<svg width="36" height="36" viewBox="0 0 36 36" fill="none" xmlns="http://www.w3.org/2000/svg">
<g clip-path="url(#clip0)">
<path d="M35.9987 18.1096C35.9987 8.10607 27.9392 -0.00292969 17.9987 -0.00292969C8.05373 -0.000679687 -0.00576782 8.10607 -0.00576782 18.1118C-0.00576782 27.1501 6.57773 34.6426 15.1817 36.0016V23.3453H10.6142V18.1118H15.1862V14.1181C15.1862 9.57982 17.875 7.07332 21.9857 7.07332C23.9567 7.07332 26.0155 7.42657 26.0155 7.42657V11.8816H23.7452C21.511 11.8816 20.8135 13.2788 20.8135 14.7121V18.1096H25.804L25.0075 23.3431H20.8112V35.9993C29.4152 34.6403 35.9987 27.1478 35.9987 18.1096Z" fill="#17405C"/>
</g>
<defs>
<clipPath id="clip0">
<rect width="36" height="36" fill="white"/>
</clipPath>
</defs>
</svg>
