<svg width="24" height="24" viewBox="0 0 24 24" fill="none" xmlns="http://www.w3.org/2000/svg">
<path d="M12 0C8.8174 0 5.76515 1.26428 3.51472 3.51472C1.26428 5.76515 0 8.8174 0 12C0 15.1826 1.26428 18.2348 3.51472 20.4853C5.76515 22.7357 8.8174 24 12 24C15.1826 24 18.2348 22.7357 20.4853 20.4853C22.7357 18.2348 24 15.1826 24 12C24 8.8174 22.7357 5.76515 20.4853 3.51472C18.2348 1.26428 15.1826 0 12 0Z" fill="#039BE5"/>
<path d="M13.6244 15.1804H16.7299L17.2174 12.0257H13.6238V10.3015C13.6238 8.99097 14.052 7.82886 15.2779 7.82886H17.2477V5.07581C16.9016 5.02907 16.1696 4.92676 14.7865 4.92676C11.8983 4.92676 10.205 6.45202 10.205 9.92697V12.0257H7.23596V15.1804H10.205V23.8514C10.793 23.9398 11.3886 23.9998 12 23.9998C12.5526 23.9998 13.092 23.9493 13.6244 23.8773V15.1804Z" fill="white"/>
</svg>
