<svg width="24" height="24" viewBox="0 0 24 24" fill="none" xmlns="http://www.w3.org/2000/svg">
<path d="M24 20.6667C24 22.508 22.508 24 20.6667 24H3.33333C1.49267 24 0 22.508 0 20.6667V3.33333C0 1.492 1.49267 0 3.33333 0H20.6667C22.508 0 24 1.492 24 3.33333V20.6667Z" fill="#0078D4"/>
<path opacity="0.05" d="M16 20.6667V13.934C16 12.808 15.454 12.1354 14.5387 12.1354C13.9954 12.1354 13.596 12.4414 13.3527 13.0447C13.3414 13.0874 13.3254 13.2614 13.332 13.7874L13.3334 20.6667H8.66671V8.00004H13.3334V8.70737C14.0147 8.23737 14.85 8.00004 15.8254 8.00004C18.8567 8.00004 20.666 10.062 20.666 13.516L20.6667 20.6667H16ZM3.33337 20.6667V8.00004H5.63804C4.30271 8.00004 3.33337 7.01871 3.33337 5.66604C3.33337 4.31471 4.31871 3.33337 5.67604 3.33337C7.01737 3.33337 7.97271 4.28737 8.00004 5.65271C8.00004 7.01537 7.01404 8.00004 5.65671 8.00004H8.00004V20.6667H3.33337Z" fill="black"/>
<path opacity="0.07" d="M16.3333 20.3333V13.934C16.3333 12.6186 15.646 11.802 14.5386 11.802C13.6753 11.802 13.2486 12.41 13.0433 12.92C12.9886 13.0526 12.996 13.5793 12.9986 13.804L13 20.3333H8.99996V8.33329H13V9.42529C13.53 8.87663 14.3833 8.33329 15.8253 8.33329C18.6473 8.33329 20.3326 10.2706 20.3326 13.516L20.3333 20.3333H16.3333ZM3.66663 20.3333V8.33329H7.66663V20.3333H3.66663ZM5.63796 7.66663C4.49596 7.66663 3.66663 6.82529 3.66663 5.66596C3.66663 4.50729 4.51196 3.66663 5.67596 3.66663C6.82529 3.66663 7.64329 4.48596 7.66663 5.65929C7.66663 6.82529 6.82129 7.66663 5.65663 7.66663H5.63796Z" fill="black"/>
<path d="M4 8.66667H7.33333V20H4V8.66667ZM5.65667 7.33333H5.638C4.64333 7.33333 4 6.592 4 5.666C4 4.72 4.66333 4 5.676 4C6.69 4 7.31467 4.72 7.33333 5.666C7.33333 6.59133 6.69 7.33333 5.65667 7.33333ZM20 20H16.6667V13.934C16.6667 12.4687 15.85 11.4687 14.5387 11.4687C13.538 11.4687 12.9967 12.1433 12.734 12.7953C12.638 13.0287 12.6667 13.674 12.6667 14V20H9.33333V8.66667H12.6667V10.4107C13.1473 9.66667 13.9 8.66667 15.8253 8.66667C18.2107 8.66667 19.9993 10.1667 19.9993 13.516L20 20Z" fill="white"/>
</svg>
