<svg id="ePHOZu9DoQ11" xmlns="http://www.w3.org/2000/svg" xmlns:xlink="http://www.w3.org/1999/xlink" viewBox="0 0 150 150" shape-rendering="geometricPrecision" text-rendering="geometricPrecision"><style><![CDATA[#ePHOZu9DoQ12_ts {animation: ePHOZu9DoQ12_ts__ts 1200ms linear infinite normal forwards}@keyframes ePHOZu9DoQ12_ts__ts { 0% {transform: translate(71.890579px,71.499996px) scale(1,1)} 25% {transform: translate(71.890579px,71.499996px) scale(0.001502,1)} 50% {transform: translate(71.890579px,71.499996px) scale(1,1)} 75% {transform: translate(71.890579px,71.499996px) scale(0.001502,1)} 100% {transform: translate(71.890579px,71.499996px) scale(1,1)}} #ePHOZu9DoQ14 {animation: ePHOZu9DoQ14_c_o 1200ms linear infinite normal forwards}@keyframes ePHOZu9DoQ14_c_o { 0% {opacity: 1} 12.5% {opacity: 1} 25% {opacity: 0} 50% {opacity: 0;animation-timing-function: cubic-bezier(0.645,0.045,0.355,1)} 75% {opacity: 0} 87.5% {opacity: 1} 100% {opacity: 1}} #ePHOZu9DoQ15 {animation: ePHOZu9DoQ15_c_o 1200ms linear infinite normal forwards}@keyframes ePHOZu9DoQ15_c_o { 0% {opacity: 0} 25% {opacity: 0} 37.5% {opacity: 1} 50% {opacity: 1} 63.333333% {opacity: 1} 75% {opacity: 0} 100% {opacity: 0}}]]></style><defs><filter id="ePHOZu9DoQ13-filter" x="-400%" width="600%" y="-400%" height="600%"><feGaussianBlur id="ePHOZu9DoQ13-filter-drop-shadow-0-blur" in="SourceAlpha" stdDeviation="4,5"/><feOffset id="ePHOZu9DoQ13-filter-drop-shadow-0-offset" dx="5" dy="5" result="tmp"/><feFlood id="ePHOZu9DoQ13-filter-drop-shadow-0-flood" flood-color="rgb(211,211,211)"/><feComposite id="ePHOZu9DoQ13-filter-drop-shadow-0-composite" operator="in" in2="tmp"/><feMerge id="ePHOZu9DoQ13-filter-drop-shadow-0-merge"><feMergeNode id="ePHOZu9DoQ13-filter-drop-shadow-0-merge-node-1"/><feMergeNode id="ePHOZu9DoQ13-filter-drop-shadow-0-merge-node-2" in="SourceGraphic"/></feMerge></filter></defs><g id="ePHOZu9DoQ12_ts" transform="translate(71.890579,71.499996) scale(1,1)"><g id="ePHOZu9DoQ12" transform="translate(-71.890579,-76.499996)"><ellipse id="ePHOZu9DoQ13" rx="75" ry="75" transform="matrix(0.91398 0 0 0.913985 71.890577 76.5)" filter="url(#ePHOZu9DoQ13-filter)" fill="rgb(255,255,255)" stroke="none" stroke-width="0"/><path id="ePHOZu9DoQ14" d="M4.355,0.522C4.618963,0.44221,4.897692,0.591194,4.978,0.855L5.269,1.811C6.080913,1.280442,7.030107,0.998568,8,1C9.007,1,9.946,1.298,10.731,1.811L11.021,0.855C11.071824,0.682863,11.211012,0.551172,11.385698,0.509949C11.560383,0.468726,11.743762,0.524295,11.866181,0.65555C11.988601,0.786805,12.031277,0.973606,11.978,1.145L11.568,2.497C12.487228,3.431045,13.001674,4.689497,13,6L13.5,6C13.776142,6,14,5.776142,14,5.5L14,5C14,4.723858,14.223858,4.5,14.5,4.5C14.776142,4.5,15,4.723858,15,5L15,5.5C15,6.328427,14.328427,7,13.5,7L13,7L13,8L14.5,8C14.776142,8,15,8.223858,15,8.5C15,8.776142,14.776142,9,14.5,9L13,9L13,10L13.5,10C14.328427,10,15,10.671573,15,11.5L15,12C15,12.276142,14.776142,12.5,14.5,12.5C14.223858,12.5,14,12.276142,14,12L14,11.5C14,11.223858,13.776142,11,13.5,11L13,11C13,13.761424,10.761424,16,8,16C5.238576,16,3,13.761424,3,11L2.5,11C2.223858,11,2,11.223858,2,11.5L2,12C2,12.276142,1.776142,12.5,1.5,12.5C1.223858,12.5,1,12.276142,1,12L1,11.5C1,10.671573,1.671573,10,2.5,10L3,10L3,9L1.5,9C1.223858,9,1,8.776142,1,8.5C1,8.223858,1.223858,8,1.5,8L3,8L3,7L2.5,7C1.671573,7,1,6.328427,1,5.5L1,5C1,4.723858,1.223858,4.5,1.5,4.5C1.776142,4.5,2,4.723858,2,5L2,5.5C2,5.776142,2.223858,6,2.5,6L3,6C3,4.636,3.547,3.399,4.432,2.497L4.022,1.145C3.94221,0.881037,4.091194,0.602308,4.355,0.522ZM4,7L4,11C3.999308,13.016334,5.499481,14.717958,7.5,14.97L7.5,7L4,7ZM8.5,7L8.5,14.97C10.500519,14.717958,12.000692,13.016334,12,11L12,7L8.5,7ZM12,6C12.0014,4.861146,11.515958,3.775998,10.666,3.018C9.933572,2.36103,8.983899,1.998402,8,2C7.015756,1.998154,6.065684,2.360799,5.333,3.018C4.483413,3.77618,3.998346,4.861303,4,6L12,6Z" transform="matrix(4.810121 0 0 5.211246 33.63063 33.516146)" fill="rgb(23,64,92)" stroke="none" stroke-width="1"/><polygon id="ePHOZu9DoQ15" points="0,-41.689968 12.252374,-16.863946 39.649516,-12.882909 19.824758,6.441454 24.504748,33.727893 0,20.844984 -24.504748,33.727893 -19.824758,6.441454 -39.649516,-12.882909 -12.252374,-16.863946 0,-41.689968" transform="matrix(1 0 0 1 71.890577 78.981038)" opacity="0" fill="none" stroke="rgb(255,153,0)" stroke-width="6" stroke-linecap="round" stroke-linejoin="round"/></g></g></svg>