<svg width="245" height="395" viewBox="0 0 245 395" fill="none" xmlns="http://www.w3.org/2000/svg">
<g clip-path="url(#clip0)">
<rect width="245" height="395" fill="white"/>
<path d="M39.6777 312.081C39.6777 312.081 -22.5747 203.51 62.0078 113.707C137.058 34.0294 191.665 82.0001 245.106 112.892C283.868 135.296 330.063 115.521 399.186 33.1226C493.459 -79.2432 727.028 41.9736 646.698 226.664C607.823 316.041 695.487 335.548 633.471 420.663L39.6777 312.081Z" fill="#F4F7FA"/>
<path d="M235.208 320.978C233.056 317.579 231.98 315.879 226.699 314.591C211.582 310.905 167.301 308.361 139.302 307.493C101.819 306.331 58.8517 307.1 39.7841 311.201C22.4657 314.927 30.1623 320.263 55.8496 324.599C102.938 332.549 200.624 335.478 224.637 332.511C234.221 331.327 235.01 328.841 236.17 325.19C236.728 323.432 235.84 321.977 235.208 320.978Z" fill="#E0EAF0"/>
<path d="M208.607 146.335C206.52 144.579 203.34 143.606 200.647 143.392C181.553 141.877 178.428 181.784 181.281 190.736C184.133 199.688 182.212 202.6 167.125 207.142C152.039 211.684 159.182 220.735 160.972 226.008C162.762 231.281 166.356 235.753 155.345 240.884C144.333 246.016 148.116 249.284 148.116 249.284C148.116 249.284 168.17 270.146 167.108 263.512C166.047 256.878 168.155 246.893 186.298 246.286C194.112 246.024 206.106 242.398 208.825 234.057C209.459 232.114 209.915 229.143 209.461 227.123C208.834 224.321 207.014 222.102 206.019 219.461C203.696 213.307 209.691 208.866 213.152 204.795C214.959 202.669 216.767 200.49 218.158 198.061C221.046 193.018 220.027 187.576 216.968 182.879C215.501 180.627 213.456 178.233 212.83 175.557C212.158 172.681 212.798 168.766 212.989 165.815C213.139 163.501 213.378 161.197 213.267 158.874C213.063 154.555 212.096 149.276 208.607 146.335Z" fill="#D1E0E8"/>
<g style="mix-blend-mode:soft-light" opacity="0.8">
<g style="mix-blend-mode:soft-light" opacity="0.8">
<path d="M146.427 260.884C146.359 260.908 146.285 260.906 146.218 260.878C146.152 260.849 146.1 260.796 146.071 260.73C146.043 260.664 146.041 260.589 146.065 260.521C146.09 260.454 146.14 260.398 146.205 260.366C146.29 260.322 154.844 255.915 164.406 248.617C173.217 241.893 184.71 231.27 189.432 218.849C193.377 208.474 197.039 191.3 199.479 171.729C201.668 154.18 202.1 141.191 201.253 138.772C201.241 138.737 201.235 138.699 201.237 138.662C201.239 138.625 201.248 138.588 201.264 138.555C201.28 138.521 201.303 138.491 201.33 138.466C201.358 138.441 201.39 138.422 201.426 138.409C201.461 138.397 201.498 138.392 201.535 138.394C201.572 138.396 201.609 138.406 201.642 138.422C201.676 138.438 201.706 138.461 201.731 138.489C201.755 138.517 201.774 138.55 201.786 138.585C202.777 141.414 202.01 156.004 200.04 171.799C197.594 191.413 193.92 208.635 189.961 219.049C185.19 231.598 173.613 242.303 164.74 249.073C155.14 256.398 146.548 260.825 146.462 260.868C146.451 260.874 146.439 260.879 146.427 260.884Z" fill="white"/>
</g>
<g style="mix-blend-mode:soft-light" opacity="0.8">
<path d="M199.42 175.134C199.273 175.185 199.125 175.143 199.073 174.997C199.003 174.803 192.043 155.582 182.895 151.179C182.862 151.163 182.832 151.141 182.808 151.114C182.784 151.087 182.765 151.056 182.753 151.021C182.741 150.987 182.736 150.951 182.738 150.914C182.741 150.878 182.751 150.842 182.767 150.81C182.8 150.743 182.859 150.692 182.93 150.668C183.001 150.644 183.078 150.649 183.145 150.682C192.502 155.186 199.318 174.006 199.604 174.805C199.657 174.951 199.569 175.082 199.422 175.131L199.42 175.134Z" fill="white"/>
</g>
<g style="mix-blend-mode:soft-light" opacity="0.8">
<path d="M195.759 197.326C195.696 197.348 195.628 197.347 195.565 197.324C195.503 197.3 195.451 197.255 195.418 197.197C195.386 197.139 195.375 197.071 195.388 197.005C195.401 196.94 195.436 196.881 195.488 196.839C195.54 196.797 200.82 192.54 207.321 188.985C216.104 184.182 222.815 182.876 227.266 185.106C227.299 185.123 227.329 185.146 227.353 185.174C227.377 185.202 227.396 185.235 227.407 185.27C227.419 185.305 227.424 185.342 227.421 185.379C227.418 185.416 227.408 185.452 227.392 185.485C227.375 185.518 227.352 185.548 227.324 185.572C227.296 185.597 227.264 185.615 227.228 185.627C227.193 185.638 227.156 185.643 227.119 185.64C227.082 185.638 227.046 185.628 227.013 185.611C216.772 180.481 196.051 197.11 195.842 197.279C195.817 197.299 195.789 197.315 195.759 197.326Z" fill="white"/>
</g>
<g style="mix-blend-mode:soft-light" opacity="0.8">
<path d="M172.547 242.553C172.518 242.563 172.487 242.569 172.456 242.569C172.419 242.569 172.382 242.562 172.347 242.548C172.313 242.534 172.282 242.513 172.255 242.487C172.229 242.461 172.208 242.43 172.193 242.396C172.179 242.362 172.171 242.325 172.171 242.288C172.172 242.206 172.094 233.984 170.447 225.309C168.936 217.354 165.762 207.378 159.221 205.03C159.184 205.019 159.151 205 159.122 204.975C159.093 204.951 159.07 204.92 159.053 204.886C159.036 204.852 159.026 204.815 159.024 204.777C159.022 204.739 159.027 204.701 159.04 204.665C159.053 204.629 159.073 204.596 159.099 204.568C159.125 204.54 159.156 204.518 159.19 204.502C159.225 204.487 159.263 204.478 159.301 204.478C159.339 204.477 159.377 204.484 159.412 204.498C164.866 206.456 168.765 213.425 171.002 225.211C172.659 233.937 172.735 242.203 172.736 242.286C172.736 242.345 172.718 242.402 172.684 242.449C172.65 242.497 172.602 242.533 172.547 242.553V242.553Z" fill="white"/>
</g>
<g style="mix-blend-mode:soft-light" opacity="0.8">
<path d="M184.332 229.369C184.268 229.391 184.199 229.389 184.137 229.364C184.074 229.339 184.023 229.292 183.991 229.232C183.96 229.173 183.952 229.104 183.967 229.038C183.982 228.973 184.02 228.915 184.074 228.875C184.989 228.21 206.581 212.614 214.937 214.192C215.011 214.205 215.076 214.248 215.118 214.31C215.161 214.372 215.177 214.448 215.163 214.521C215.149 214.595 215.106 214.66 215.045 214.702C214.983 214.745 214.907 214.761 214.833 214.747C206.713 213.214 184.628 229.17 184.406 229.331C184.384 229.348 184.359 229.361 184.332 229.369Z" fill="white"/>
</g>
</g>
<path d="M224.879 205.294C223.509 202.935 220.846 200.943 218.384 199.83C200.929 191.944 184.484 228.442 184.14 237.829C183.797 247.216 181.002 249.308 165.269 248.478C149.537 247.647 153.198 258.582 153.095 264.149C152.992 269.716 154.864 275.14 142.764 276.245C130.665 277.349 133.118 281.702 133.118 281.702C133.118 281.702 144.93 308.118 146.175 301.516C147.421 294.915 152.785 286.231 170.062 291.799C177.504 294.198 190.014 294.844 195.399 287.914C196.652 286.301 198.085 283.659 198.343 281.605C198.701 278.756 197.742 276.053 197.697 273.231C197.593 266.654 204.737 264.503 209.373 261.844C211.793 260.455 214.232 259.016 216.363 257.201C220.787 253.433 221.67 247.966 220.38 242.512C219.761 239.896 218.647 236.952 218.964 234.222C219.305 231.288 221.232 227.822 222.409 225.108C223.333 222.981 224.338 220.894 225.018 218.671C226.29 214.537 227.169 209.239 224.879 205.294Z" fill="#266A9A"/>
<g style="mix-blend-mode:soft-light" opacity="0.8">
<g style="mix-blend-mode:soft-light" opacity="0.8">
<path d="M127.606 292.045C127.534 292.044 127.466 292.016 127.414 291.967C127.362 291.918 127.331 291.851 127.327 291.779C127.323 291.708 127.346 291.638 127.391 291.583C127.437 291.528 127.502 291.492 127.573 291.483C127.668 291.47 137.208 290.217 148.676 286.586C159.24 283.238 173.652 277.133 182.302 267.042C189.524 258.614 198.781 243.692 207.7 226.101C215.698 210.328 220.5 198.251 220.521 195.686C220.526 195.613 220.557 195.545 220.61 195.496C220.663 195.446 220.734 195.418 220.806 195.419C220.879 195.42 220.949 195.448 221.001 195.499C221.053 195.549 221.084 195.618 221.087 195.691C221.061 198.689 215.402 212.158 208.204 226.355C199.266 243.984 189.982 258.947 182.731 267.406C173.996 277.6 159.479 283.755 148.84 287.123C137.326 290.768 127.744 292.026 127.648 292.039C127.634 292.042 127.62 292.044 127.606 292.045Z" fill="white"/>
</g>
<g style="mix-blend-mode:soft-light" opacity="0.8">
<path d="M206.488 229.343C206.452 229.344 206.415 229.337 206.381 229.323C206.348 229.31 206.317 229.29 206.291 229.264C206.264 229.238 206.244 229.208 206.229 229.174C206.215 229.14 206.208 229.104 206.208 229.068C206.209 228.862 206.163 208.405 199.045 201.169C199.018 201.143 198.997 201.112 198.982 201.077C198.968 201.043 198.961 201.006 198.961 200.968C198.961 200.931 198.968 200.894 198.983 200.859C198.997 200.825 199.019 200.794 199.045 200.767C199.072 200.741 199.104 200.721 199.139 200.707C199.174 200.693 199.211 200.686 199.248 200.687C199.286 200.688 199.323 200.696 199.357 200.712C199.391 200.727 199.422 200.749 199.447 200.776C206.728 208.181 206.774 228.222 206.773 229.072C206.773 229.109 206.765 229.145 206.751 229.179C206.736 229.213 206.715 229.243 206.689 229.269C206.663 229.294 206.631 229.315 206.597 229.328C206.563 229.341 206.526 229.348 206.49 229.347L206.488 229.343Z" fill="white"/>
</g>
<g style="mix-blend-mode:soft-light" opacity="0.8">
<path d="M195.535 248.929C195.469 248.929 195.405 248.904 195.354 248.861C195.304 248.818 195.27 248.758 195.259 248.693C195.249 248.627 195.261 248.56 195.295 248.503C195.329 248.445 195.381 248.402 195.444 248.38C195.51 248.358 201.917 246.138 209.237 244.992C219.128 243.444 225.884 244.488 229.32 248.092C229.371 248.147 229.399 248.219 229.397 248.294C229.396 248.369 229.364 248.44 229.31 248.492C229.283 248.517 229.251 248.537 229.217 248.551C229.182 248.564 229.145 248.57 229.108 248.569C229.033 248.568 228.962 248.536 228.91 248.482C221.006 240.188 195.883 248.826 195.632 248.913C195.601 248.924 195.568 248.93 195.535 248.929V248.929Z" fill="white"/>
</g>
<g style="mix-blend-mode:soft-light" opacity="0.8">
<path d="M158.388 283.634C158.343 283.634 158.299 283.623 158.259 283.602C158.219 283.581 158.185 283.551 158.159 283.514C158.133 283.477 158.116 283.435 158.11 283.39C158.104 283.346 158.109 283.3 158.124 283.258C158.151 283.18 160.862 275.421 162.248 266.695C163.518 258.698 163.907 248.237 158.546 243.814C158.492 243.765 158.459 243.697 158.454 243.625C158.449 243.552 158.472 243.481 158.518 243.425C158.564 243.368 158.631 243.332 158.703 243.324C158.775 243.315 158.848 243.335 158.906 243.378C163.375 247.066 164.687 254.943 162.804 266.791C161.41 275.563 158.685 283.367 158.657 283.445C158.638 283.501 158.601 283.549 158.553 283.583C158.505 283.617 158.447 283.635 158.388 283.634V283.634Z" fill="white"/>
</g>
<g style="mix-blend-mode:soft-light" opacity="0.8">
<path d="M173.939 275.216C173.871 275.216 173.806 275.191 173.755 275.146C173.704 275.101 173.671 275.04 173.661 274.973C173.652 274.905 173.667 274.837 173.704 274.78C173.741 274.723 173.797 274.682 173.863 274.663C174.949 274.344 200.544 266.978 207.874 271.289C207.938 271.327 207.985 271.389 208.004 271.462C208.023 271.534 208.012 271.611 207.974 271.676C207.936 271.741 207.874 271.787 207.801 271.806C207.729 271.825 207.652 271.814 207.587 271.776C200.466 267.59 174.284 275.129 174.022 275.205C173.995 275.213 173.967 275.216 173.939 275.216V275.216Z" fill="white"/>
</g>
</g>
<path d="M166.706 138.806L166.492 140.245C165.829 140.269 165.169 140.351 164.52 140.49L163.986 139.138C163.951 139.05 163.898 138.97 163.832 138.902C163.766 138.835 163.687 138.781 163.6 138.744C163.513 138.707 163.42 138.688 163.325 138.687C163.23 138.686 163.137 138.704 163.049 138.74L160.724 139.672C160.546 139.744 160.403 139.882 160.326 140.059C160.249 140.235 160.244 140.434 160.313 140.613L160.851 141.983C160.286 142.336 159.752 142.736 159.255 143.18L158.098 142.27C157.947 142.152 157.754 142.098 157.563 142.121C157.372 142.144 157.198 142.242 157.079 142.393L155.506 144.371C155.445 144.445 155.401 144.53 155.374 144.622C155.346 144.713 155.338 144.809 155.348 144.904C155.358 144.999 155.387 145.091 155.433 145.175C155.479 145.258 155.54 145.332 155.615 145.392L156.775 146.31C156.455 146.899 156.187 147.514 155.974 148.148L154.493 147.939C154.3 147.913 154.105 147.964 153.949 148.081C153.793 148.198 153.689 148.37 153.659 148.563L153.266 151.071C153.251 151.165 153.254 151.262 153.276 151.355C153.299 151.448 153.339 151.536 153.396 151.613C153.452 151.69 153.524 151.755 153.606 151.804C153.688 151.854 153.779 151.886 153.873 151.9L155.358 152.109C155.369 152.779 155.438 153.447 155.565 154.105L154.167 154.682C153.985 154.756 153.84 154.898 153.761 155.078C153.682 155.258 153.677 155.461 153.746 155.645L154.656 158.014C154.69 158.104 154.742 158.186 154.809 158.256C154.876 158.325 154.956 158.381 155.044 158.419C155.133 158.457 155.228 158.476 155.324 158.477C155.42 158.478 155.516 158.459 155.605 158.422L157.005 157.85C157.352 158.422 157.747 158.962 158.188 159.466L157.247 160.669C157.125 160.823 157.068 161.019 157.089 161.215C157.11 161.41 157.207 161.59 157.359 161.714L159.34 163.295C159.417 163.355 159.504 163.399 159.597 163.425C159.691 163.451 159.789 163.458 159.885 163.446C159.981 163.433 160.074 163.402 160.158 163.354C160.242 163.305 160.316 163.24 160.374 163.163L161.301 161.972C161.893 162.292 162.512 162.558 163.151 162.767L162.929 164.263C162.913 164.359 162.917 164.457 162.94 164.552C162.963 164.646 163.004 164.735 163.062 164.814C163.119 164.892 163.192 164.958 163.275 165.008C163.359 165.059 163.451 165.092 163.547 165.106L166.061 165.455C166.257 165.48 166.455 165.427 166.611 165.307C166.768 165.187 166.871 165.01 166.897 164.815L167.113 163.331C167.79 163.308 168.464 163.225 169.127 163.082L169.667 164.462C169.702 164.552 169.754 164.635 169.821 164.705C169.889 164.775 169.969 164.83 170.058 164.868C170.147 164.907 170.243 164.927 170.34 164.927C170.437 164.928 170.533 164.909 170.622 164.871L172.978 163.897C173.16 163.82 173.304 163.676 173.38 163.494C173.457 163.312 173.459 163.107 173.386 162.924L172.846 161.556C173.422 161.191 173.965 160.776 174.469 160.316L175.611 161.217C175.687 161.276 175.774 161.321 175.867 161.346C175.96 161.372 176.057 161.379 176.153 161.367C176.248 161.355 176.341 161.323 176.424 161.275C176.508 161.227 176.581 161.162 176.639 161.085L178.194 159.06C178.313 158.905 178.366 158.709 178.342 158.514C178.319 158.32 178.22 158.143 178.067 158.021L176.941 157.128C177.258 156.522 177.521 155.89 177.728 155.239L179.148 155.437C179.243 155.45 179.34 155.444 179.433 155.419C179.526 155.395 179.613 155.352 179.689 155.293C179.766 155.235 179.83 155.162 179.878 155.079C179.926 154.995 179.957 154.903 179.969 154.808L180.313 152.293C180.34 152.101 180.29 151.906 180.174 151.751C180.058 151.596 179.885 151.494 179.693 151.466L178.277 151.268C178.255 150.59 178.173 149.915 178.032 149.252L179.351 148.713C179.53 148.639 179.673 148.498 179.748 148.32C179.823 148.142 179.825 147.942 179.752 147.762L178.808 145.432C178.773 145.344 178.72 145.263 178.654 145.195C178.587 145.127 178.508 145.073 178.42 145.035C178.333 144.998 178.238 144.978 178.143 144.978C178.048 144.977 177.954 144.995 177.865 145.031L176.538 145.57C176.183 145.002 175.78 144.466 175.332 143.969L176.214 142.836C176.332 142.685 176.386 142.493 176.363 142.303C176.34 142.112 176.243 141.939 176.092 141.82L174.13 140.286C174.055 140.227 173.97 140.184 173.878 140.159C173.787 140.134 173.691 140.127 173.597 140.138C173.503 140.15 173.412 140.18 173.33 140.227C173.247 140.274 173.175 140.337 173.117 140.412L172.225 141.548C171.638 141.238 171.024 140.981 170.391 140.779L170.599 139.347C170.613 139.253 170.608 139.158 170.585 139.067C170.562 138.975 170.52 138.889 170.464 138.813C170.407 138.738 170.336 138.674 170.254 138.626C170.173 138.578 170.083 138.547 169.989 138.534L167.525 138.19C167.335 138.164 167.142 138.214 166.989 138.329C166.835 138.445 166.734 138.616 166.706 138.806ZM157.909 150.433C158.664 145.477 163.247 142.037 168.151 142.725C173.054 143.413 176.464 147.97 175.762 152.931C175.057 157.925 170.463 161.433 165.506 160.74C160.549 160.048 157.15 155.419 157.909 150.433Z" fill="#E0EAF0"/>
<path d="M128.881 137.701L128.549 139.932C127.524 139.969 126.504 140.095 125.5 140.31L124.674 138.219C124.62 138.083 124.539 137.959 124.437 137.855C124.334 137.75 124.212 137.667 124.078 137.61C123.943 137.553 123.798 137.523 123.652 137.522C123.506 137.521 123.361 137.549 123.226 137.604L119.632 139.049C119.356 139.159 119.134 139.374 119.015 139.646C118.896 139.918 118.889 140.227 118.996 140.504L119.83 142.622C118.956 143.167 118.131 143.787 117.362 144.473L115.574 143.062C115.339 142.88 115.041 142.799 114.747 142.835C114.452 142.871 114.184 143.023 114 143.256L111.568 146.314C111.475 146.429 111.405 146.561 111.364 146.702C111.322 146.844 111.308 146.992 111.324 147.139C111.34 147.286 111.384 147.428 111.455 147.557C111.526 147.687 111.621 147.801 111.736 147.894L113.53 149.312C113.038 150.222 112.624 151.173 112.295 152.155L110.005 151.835C109.707 151.795 109.405 151.874 109.164 152.055C108.924 152.235 108.763 152.502 108.717 152.8L108.103 156.678C108.079 156.824 108.084 156.973 108.119 157.117C108.153 157.261 108.216 157.397 108.303 157.516C108.391 157.635 108.501 157.736 108.628 157.812C108.755 157.888 108.895 157.939 109.042 157.96L111.338 158.281C111.355 159.317 111.461 160.349 111.657 161.366L109.497 162.248C109.216 162.362 108.991 162.582 108.87 162.86C108.748 163.138 108.74 163.452 108.846 163.736L110.253 167.4C110.306 167.539 110.386 167.666 110.49 167.773C110.593 167.88 110.716 167.966 110.853 168.025C110.99 168.083 111.137 168.114 111.286 168.115C111.435 168.116 111.582 168.087 111.72 168.03L113.886 167.145C114.42 168.031 115.032 168.869 115.713 169.649L114.256 171.504C114.067 171.742 113.978 172.045 114.011 172.348C114.043 172.65 114.194 172.928 114.429 173.12L117.491 175.565C117.609 175.658 117.744 175.726 117.889 175.766C118.034 175.806 118.185 175.817 118.334 175.798C118.482 175.779 118.626 175.73 118.756 175.655C118.886 175.58 119 175.48 119.09 175.361L120.527 173.518C121.441 174.013 122.398 174.425 123.386 174.748L123.043 177.061C123.02 177.209 123.026 177.361 123.061 177.507C123.096 177.653 123.16 177.791 123.249 177.912C123.338 178.033 123.45 178.136 123.578 178.213C123.707 178.291 123.85 178.342 123.999 178.365L127.887 178.908C128.189 178.947 128.495 178.865 128.737 178.679C128.979 178.494 129.138 178.22 129.179 177.918L129.513 175.623C130.56 175.589 131.602 175.46 132.626 175.24L133.459 177.369C133.513 177.509 133.594 177.637 133.698 177.745C133.802 177.852 133.926 177.938 134.064 177.998C134.201 178.057 134.349 178.087 134.499 178.088C134.648 178.089 134.797 178.06 134.935 178.003L138.578 176.496C138.858 176.377 139.081 176.154 139.199 175.873C139.317 175.593 139.32 175.277 139.209 174.994L138.375 172.88C139.266 172.314 140.106 171.673 140.886 170.961L142.648 172.352C142.765 172.444 142.9 172.512 143.043 172.552C143.187 172.592 143.338 172.603 143.486 172.584C143.634 172.565 143.776 172.517 143.906 172.442C144.035 172.368 144.148 172.268 144.238 172.149L146.641 169.018C146.826 168.778 146.908 168.475 146.872 168.174C146.835 167.874 146.682 167.6 146.445 167.411L144.699 166.034C145.189 165.097 145.597 164.12 145.916 163.112L148.112 163.419C148.259 163.439 148.409 163.429 148.552 163.391C148.696 163.353 148.831 163.287 148.949 163.197C149.067 163.107 149.166 162.994 149.24 162.865C149.315 162.736 149.363 162.594 149.382 162.447L149.913 158.558C149.955 158.261 149.878 157.96 149.698 157.72C149.518 157.481 149.251 157.322 148.954 157.279L146.765 156.973C146.731 155.925 146.605 154.882 146.388 153.856L148.425 153.022C148.701 152.908 148.921 152.689 149.037 152.414C149.152 152.139 149.154 151.829 149.042 151.552L147.588 147.951C147.533 147.814 147.452 147.69 147.349 147.585C147.246 147.48 147.123 147.396 146.988 147.339C146.853 147.281 146.707 147.251 146.56 147.25C146.413 147.249 146.267 147.277 146.131 147.332L144.079 148.166C143.531 147.288 142.907 146.459 142.214 145.69L143.581 143.94C143.672 143.824 143.739 143.691 143.779 143.55C143.818 143.408 143.829 143.26 143.812 143.113C143.794 142.967 143.747 142.826 143.675 142.698C143.603 142.57 143.506 142.457 143.39 142.366L140.355 139.994C140.24 139.904 140.108 139.837 139.967 139.798C139.825 139.759 139.678 139.748 139.532 139.766C139.387 139.784 139.246 139.831 139.119 139.903C138.991 139.976 138.88 140.072 138.79 140.188L137.415 141.945C136.507 141.465 135.557 141.067 134.578 140.756L134.9 138.541C134.922 138.397 134.914 138.25 134.878 138.108C134.842 137.967 134.778 137.834 134.691 137.717C134.603 137.6 134.493 137.502 134.368 137.428C134.242 137.354 134.103 137.305 133.958 137.285L130.148 136.753C129.855 136.712 129.557 136.789 129.32 136.966C129.082 137.144 128.925 137.408 128.881 137.701ZM115.278 155.683C116.445 148.02 123.532 142.701 131.114 143.761C138.695 144.82 143.967 151.867 142.883 159.541C141.792 167.261 134.69 172.687 127.025 171.615C119.361 170.544 114.104 163.392 115.278 155.683Z" fill="#8EA2AE"/>
<path d="M125.046 159.303L107.193 297.854C106.925 299.931 108.342 301.807 110.348 302.023L179.783 310.239C184.038 310.54 186.388 308.385 186.67 306.176L205.431 158.872C205.712 156.675 203.639 154.665 199.364 154.628L129.219 155.516C127.189 155.533 125.315 157.237 125.046 159.303Z" fill="url(#paint0_linear)"/>
<path d="M121.922 159.039L103.969 298.282C103.7 300.369 105.122 302.255 107.135 302.473L179.127 310.254C181.384 310.498 183.467 308.881 183.751 306.661L202.619 158.596C202.9 156.388 201.256 154.597 198.972 154.617L126.11 155.232C124.072 155.248 122.19 156.962 121.922 159.039Z" fill="#17405C"/>
<path d="M123.224 166.735L106.584 295.842C106.333 297.792 107.666 299.551 109.549 299.75L177.255 306.911C179.353 307.133 181.291 305.624 181.554 303.557L198.989 166.78C199.252 164.723 197.725 163.045 195.604 163.05L127.141 163.201C125.235 163.205 123.475 164.797 123.224 166.735Z" fill="#D8DEE8"/>
<path d="M159.63 159.26C159.535 160.002 160.063 160.6 160.809 160.597C161.556 160.594 162.24 159.989 162.336 159.246C162.431 158.504 161.901 157.905 161.154 157.91C160.406 157.915 159.722 158.52 159.63 159.26Z" fill="#FF9900"/>
<g style="mix-blend-mode:soft-light">
<g style="mix-blend-mode:soft-light">
<path d="M134.207 253.589C148.295 228.058 169.083 220.556 175.545 194.176C179.038 179.915 176.856 166.218 173.081 154.835L198.97 154.617C201.254 154.597 202.898 156.387 202.617 158.596L183.749 306.661C183.468 308.881 181.382 310.498 179.124 310.254L122.532 304.137C122.31 281.152 127.928 264.97 134.207 253.589Z" fill="white"/>
</g>
</g>
<path d="M53.3924 173.17C53.5073 159.542 65.4881 148.596 79.7544 148.718C93.5991 148.834 104.437 159.394 104.328 172.3C104.219 185.207 93.2001 196.138 79.3495 196.729C65.077 197.338 53.2774 186.799 53.3924 173.17Z" fill="#17405C"/>
<path d="M54.9394 172.097C55.0543 158.468 66.6912 147.519 80.545 147.638C93.9894 147.751 104.511 158.307 104.402 171.214C104.293 184.122 93.5898 195.054 80.1401 195.649C66.2801 196.262 54.8244 185.724 54.9394 172.097Z" fill="#D1E0E8"/>
<g style="mix-blend-mode:soft-light" opacity="0.5">
<path d="M79.5894 153.229C90.8842 153.325 99.7241 162.193 99.6326 173.037C99.609 175.562 99.1036 178.06 98.1433 180.395C99.626 177.585 100.416 174.462 100.447 171.285C100.539 160.441 91.6987 151.573 80.4033 151.477C71.4263 151.401 63.5621 156.856 60.3874 164.609C63.9681 157.801 71.3054 153.159 79.5894 153.229Z" fill="white"/>
</g>
<path d="M70.6039 169.322L70.5196 179.315C70.4952 182.205 72.9066 184.504 75.8965 184.451L83.3104 184.317C86.2643 184.265 88.671 181.906 88.6951 179.046L88.7785 169.156L70.6039 169.322ZM77.3428 179.711L78.7534 175.548C78.4577 175.396 78.2099 175.165 78.0375 174.88C77.8651 174.596 77.7748 174.269 77.7766 173.936C77.7853 172.911 78.653 172.07 79.7129 172.059C80.7728 172.048 81.622 172.869 81.6134 173.892C81.6071 174.229 81.5111 174.558 81.3353 174.845C81.1595 175.132 80.9102 175.367 80.6132 175.525L81.954 179.642L77.3428 179.711Z" fill="white"/>
<path d="M86.6787 168.278C85.8927 168.284 85.2599 167.67 85.2663 166.907C85.2911 163.969 82.845 161.59 79.8037 161.603C76.7512 161.617 74.2405 164.033 74.2155 166.993C74.2091 167.762 73.5566 168.39 72.7581 168.397C71.9596 168.403 71.3157 167.785 71.3222 167.014C71.3601 162.515 75.1856 158.844 79.8271 158.833C84.443 158.82 88.15 162.434 88.1125 166.889C88.1061 167.648 87.4648 168.271 86.6787 168.278Z" fill="white"/>
<path d="M103.365 225.422C103.365 225.422 102.877 223.527 103.239 223.047C103.6 222.567 105.8 220.653 105.585 221.281C105.459 221.653 105.28 222.004 105.052 222.325C105.052 222.325 106.227 222.88 105.461 223.693C104.695 224.506 104.444 224.693 104.398 225.428C104.353 226.163 103.861 226.413 103.365 225.422Z" fill="#D1E0E8"/>
<path d="M81.6954 306.838C81.6954 306.838 81.4144 308.473 81.4435 309.053C81.4727 309.632 87.9261 309.987 87.9953 309.551C88.0645 309.116 86.9379 308.414 86.1429 308.16C85.3479 307.907 83.0204 307.237 83.0204 307.237L81.6954 306.838Z" fill="#17405C"/>
<path d="M83.2758 305.222L83.053 307.251C83.053 307.251 82.2989 307.74 81.6413 307.352L81.3292 305.137L83.2758 305.222Z" fill="#D1E0E8"/>
<path d="M70.1529 309.391C70.1529 309.391 69.8725 311.026 69.901 311.606C69.9295 312.186 76.3843 312.54 76.4534 312.105C76.5226 311.67 75.3954 310.967 74.6004 310.714C73.8054 310.461 71.4785 309.79 71.4785 309.79L70.1529 309.391Z" fill="#17405C"/>
<path d="M71.7339 307.775L71.5111 309.803C71.5111 309.803 70.757 310.292 70.0994 309.904L69.7906 307.689L71.7339 307.775Z" fill="#D1E0E8"/>
<path d="M82.5523 252.143L84.7527 256.701C85.2798 265.341 85.4993 274.732 85.2227 284.772C85.0175 292.241 84.5583 299.315 83.9305 305.953L80.8959 305.788C79.4572 302.872 77.7666 298.457 77.6539 293.025C77.5353 287.359 79.2596 286.619 79.1946 281.196C79.1131 274.164 76.181 272.262 74.6817 263.794C74.1083 260.555 73.7392 256.328 74.2638 251.207L82.5523 252.143Z" fill="#17405C"/>
<path d="M78.5136 254.833C77.0482 262.461 75.7421 270.626 74.7048 279.289C73.4507 289.748 72.7452 299.613 72.4256 308.776L69.0911 308.842C64.7876 300.147 64.5692 294.275 65.2329 290.458C65.4883 288.987 66.1728 286.105 66.3605 281.791C66.4907 278.784 66.3181 276.492 66.1009 273.738C65.6279 267.7 64.9997 266.377 64.9469 261.761C64.897 257.428 64.8978 255.236 66.1452 253.967C69.4307 250.624 77.8736 254.529 78.5136 254.833Z" fill="#17405C"/>
<path d="M102.787 225.125L105.004 224.99C106.687 232.046 105.379 238.865 101.426 241.344C95.2485 245.217 83.8916 237.724 81.485 229.655C80.4283 226.109 80.7188 221.014 82.8978 220.038C83.5026 219.768 84.4383 219.733 86.4545 220.887C92.4757 224.335 92.5808 230.756 95.6512 231.326C97.0167 231.582 99.2326 230.729 102.787 225.125Z" fill="#3EAD52"/>
<path d="M85.5897 258.257C86.6689 256.501 85.3465 254.783 85.0701 251.44C84.7576 247.646 86.2208 247.027 87.7206 240.756C88.7167 236.585 89.6727 232.582 88.6113 227.876C88.1063 225.621 87.2406 221.797 84.0973 219.926C82.4751 218.961 80.2481 219.037 75.8611 219.23C70.4357 219.468 67.7229 219.586 65.6921 220.634C65.3947 220.788 59.2151 224.082 58.7453 229.532C58.2675 235.08 64.3072 235.877 65.0484 243.287C65.3819 246.613 64.6937 251.719 64.2472 255.031C63.8188 258.211 63.5356 259.021 64.1556 259.992C65.6496 262.328 70.2903 261.705 79.5725 260.459C83.2159 259.969 84.7841 259.568 85.5897 258.257Z" fill="#3EAD52"/>
<path d="M71.6186 242.15C71.2135 243.588 69.7955 244.655 68.7848 248.157C68.5662 248.913 67.0116 254.299 68.9581 255.641C70.0821 256.417 71.1096 254.972 73.8555 254.806C78.6133 254.519 80.8451 258.533 83.9608 257.468C84.5008 257.283 85.2161 256.885 85.9339 255.963C86.0683 256.8 86.038 257.526 85.5871 258.258C84.7815 259.569 83.2146 259.969 79.5725 260.458C70.2904 261.704 65.6496 262.327 64.1556 259.991C63.5356 259.022 63.8189 258.21 64.2472 255.03C64.6937 251.718 65.3819 246.612 65.0484 243.286C64.3046 235.878 58.2649 235.079 58.7453 229.531C58.8731 228.049 59.4305 226.731 60.1698 225.587C67.8133 228.756 72.8895 237.626 71.6186 242.15Z" fill="#3EAD52"/>
<path d="M61.8409 252.988L63.3665 253.983C63.645 253.667 64.2916 253.03 65.2857 252.82C66.4104 252.583 67.6951 252.947 67.7222 253.306C67.7433 253.593 66.9569 253.876 66.8354 253.919C65.8499 254.272 65.1319 253.966 64.7304 254.357C64.5891 254.494 64.4127 254.752 64.0091 254.989C63.921 255.041 63.8291 255.088 63.7342 255.127C63.0771 255.376 61.9673 254.229 61.8719 254.129L61.8409 252.988Z" fill="#D1E0E8"/>
<path d="M66.5436 232.901C67.6762 230.252 68.4794 226.188 66.7771 220.131C55.1864 224.585 49.204 235.327 51.4321 243.901C53.2694 250.969 60.1392 254.459 61.6722 255.195L62.7677 252.759C61.0003 250.757 59.0156 247.804 59.3281 244.455C59.761 239.812 64.2497 238.264 66.5436 232.901Z" fill="#3EAD52"/>
<path d="M75.6231 213.757C75.6231 213.757 75.515 215.776 74.8728 217.287C74.2947 218.65 71.3054 219.484 70.699 219.785C70.0925 220.086 71.8206 220.992 73.5633 221.185C75.306 221.378 80.2903 221.021 81.1939 220.367C82.0974 219.714 80.4786 219.75 79.238 219.282C77.9974 218.814 77.2975 216.374 77.5269 215.272C77.7562 214.17 75.6231 213.757 75.6231 213.757Z" fill="#D1E0E8"/>
<path d="M78.388 213.047C79.3006 212.166 79.4279 212.063 79.5288 211.756C79.9321 210.526 78.9921 208.829 77.7407 208.401C77.6754 208.379 76.8367 208.102 76.512 208.464C76.237 208.773 76.6368 209.204 76.4353 209.8C76.2517 210.358 75.7667 210.396 74.8613 211.122C74.1161 211.72 73.6524 212.094 73.5419 212.617C73.314 213.704 74.6191 215.294 75.7866 215.261C76.2098 215.252 76.3262 215.039 78.388 213.047Z" fill="#448098"/>
<path d="M75.905 215.434C75.905 215.434 76.858 216.531 78.3262 216.183C79.6388 215.872 79.3315 212.858 78.3754 212.368C78.0564 212.206 77.4741 212.214 77.0348 212.423C76.7717 212.545 76.7051 212.674 76.2745 212.865C75.88 213.042 75.7551 213.016 75.6479 213.142C75.5156 213.3 75.4544 213.641 75.8621 214.469C75.5652 214.255 75.244 214.207 75.0457 214.346C74.9784 214.398 74.9272 214.468 74.8979 214.548C74.7677 214.919 75.1522 215.301 75.905 215.434Z" fill="#D1E0E8"/>
<path d="M185.97 175.583L186.294 177.414L179.323 177.372L118.83 177.005C117.273 176.995 115.831 178.269 115.605 179.851L100.348 276.242C100.12 277.837 102.586 280.297 104.132 280.429L130.952 282.718L130.952 282.686L171.07 286.102L171.167 286.144C172.88 286.289 174.463 285.058 174.7 283.375L174.7 283.381L189.096 180.457C189.33 178.784 187.694 175.598 185.97 175.583Z" fill="url(#paint1_linear)"/>
<path d="M173.352 281.356C173.116 283.042 171.533 284.288 169.82 284.143L102.715 278.42C101.169 278.288 100.107 276.888 100.333 275.292L114.283 177.866C114.509 176.285 115.951 175.01 117.506 175.02L185.034 175.403C186.758 175.413 187.97 176.775 187.735 178.444L173.352 281.356Z" fill="#99C6D8"/>
<path d="M174.696 227.724C174.579 228.559 173.793 229.176 172.94 229.137L113.859 226.482C113.079 226.447 112.536 225.8 112.65 225.002L113.887 216.4C114.002 215.603 114.718 215.07 115.499 215.098L174.636 217.239C175.487 217.27 176.09 217.878 175.973 218.713L174.696 227.724Z" fill="white"/>
<path d="M172.26 245.203C172.142 246.04 171.355 246.748 170.503 246.695L111.473 243.28C110.694 243.234 110.157 242.483 110.271 241.686L111.516 232.919C111.631 232.121 112.355 231.443 113.135 231.481L172.205 234.362C173.056 234.404 173.654 235.181 173.537 236.016L172.26 245.203Z" fill="white"/>
<path style="mix-blend-mode:multiply" opacity="0.1" d="M175.975 218.678C175.829 218.63 175.677 218.604 175.524 218.599L116.386 216.458C115.605 216.429 114.888 216.964 114.775 217.759L113.541 226.362C113.541 226.385 113.536 226.406 113.534 226.428C112.936 226.254 112.557 225.682 112.651 225.002L113.887 216.399C114 215.605 114.717 215.069 115.497 215.098L174.636 217.239C175.473 217.271 176.07 217.86 175.975 218.678Z" fill="url(#paint2_linear)"/>
<path style="mix-blend-mode:multiply" opacity="0.1" d="M173.552 235.825C173.406 235.765 173.252 235.731 173.095 235.724L114.025 232.842C113.245 232.803 112.52 233.484 112.408 234.28L111.161 243.047C111.153 243.102 111.149 243.158 111.148 243.214C110.55 243.012 110.173 242.367 110.27 241.686L111.516 232.92C111.629 232.122 112.355 231.443 113.135 231.481L172.204 234.363C172.574 234.384 172.922 234.548 173.174 234.821C173.425 235.094 173.561 235.454 173.552 235.825V235.825Z" fill="url(#paint3_linear)"/>
<path d="M156.434 259.254C156.62 257.934 155.696 256.71 154.369 256.622L123.813 254.609C122.548 254.525 121.37 255.582 121.187 256.867L119.845 266.365C119.662 267.652 120.53 268.892 121.794 268.989L152.332 271.337C153.658 271.439 154.889 270.329 155.075 269.007L156.434 259.254Z" fill="#3EAD52"/>
<path d="M159.283 195.21C158.855 198.246 157.27 200.976 155.033 202.976C152.622 205.131 149.459 206.429 146.182 206.338C142.922 206.245 140.189 204.8 138.446 202.56C136.837 200.496 136.063 197.758 136.488 194.771C137.37 188.56 143.125 183.582 149.394 183.65C155.721 183.718 160.174 188.893 159.283 195.21Z" fill="#448098"/>
<path d="M153.216 191.703C152.832 194.423 150.3 196.584 147.571 196.528C144.853 196.473 142.968 194.239 143.351 191.538C143.734 188.837 146.241 186.679 148.959 186.714C151.69 186.75 153.601 188.983 153.216 191.703Z" fill="white"/>
<path d="M155.033 202.976C152.622 205.131 149.459 206.429 146.182 206.338C142.922 206.245 140.189 204.8 138.446 202.56C140.487 199.766 143.829 197.925 147.363 198.002C150.914 198.077 153.761 200.071 155.033 202.976Z" fill="white"/>
<g style="mix-blend-mode:soft-light" opacity="0.4">
<path d="M187.737 178.445L173.352 281.357C173.116 283.042 171.433 284.283 169.721 284.137L129.416 280.7C127.434 278.635 125.884 276.194 124.857 273.522C124.306 272.079 123.907 270.583 123.668 269.058C122.956 264.701 123.288 259.759 124.421 254.916C125.288 251.195 126.609 247.594 128.353 244.194C129.723 241.545 131.329 239.125 133.116 237.095C134.403 235.634 135.794 234.216 137.26 232.826C139.027 231.148 140.905 229.512 142.841 227.891C147.352 224.113 152.18 220.422 156.654 216.519C166.977 207.516 175.375 197.429 173.497 182.921C173.436 182.462 172.842 178.963 172.075 175.333L184.936 175.406C186.659 175.413 187.97 176.779 187.737 178.445Z" fill="#99C6D8"/>
</g>
<path d="M202.647 273.326L211.096 275.514L208.846 291.372C208.846 291.372 211.994 294.574 213.017 298.817C214.04 303.06 214.866 320.846 214.866 320.846L216.864 322.077L217.1 323.093L211.189 330.904L212.211 324.656C212.373 323.665 212.124 321.649 212.208 321.607C209.104 313.113 202.513 289.203 202.513 289.203L202.647 273.326Z" fill="#D1E0E8"/>
<path d="M199.753 323.055C199.845 323.056 199.935 323.062 200.027 323.057C199.661 317.949 197.98 295.464 196.181 287.032C194.144 277.488 199.596 258.481 199.596 258.481L209.042 268.087L203.598 286.036C207.179 291.506 202.694 323.329 202.783 323.315L202.777 323.387L204.142 325.298L203.965 326.326L195.488 331.232L198.852 325.871C199.38 325.021 199.69 324.054 199.753 323.055V323.055Z" fill="#D1E0E8"/>
<path d="M211.369 216.33C211.369 216.33 229.739 237.39 211.102 247.951L209.224 246.567C209.224 246.567 218.506 237.827 209.389 226.955L211.369 216.33Z" fill="#D1E0E8"/>
<path d="M194.925 332.01L197.617 332.032C197.866 332.035 198.111 331.98 198.335 331.873C198.559 331.766 198.756 331.608 198.909 331.413C199.757 330.33 201.514 328.216 202.346 328.167C203.466 328.101 203.289 332.079 203.289 332.079L203.916 332.084L204.752 327.147C204.855 326.541 204.765 325.919 204.494 325.367C204.222 324.816 203.785 324.364 203.242 324.075V324.075C203.242 324.075 202.971 325.965 201.577 326.79C200.182 327.614 195.899 330.576 195.899 330.576C195.535 330.531 195.167 330.538 194.804 330.596C193.954 330.741 194.062 332.002 194.925 332.01Z" fill="#3EAD52"/>
<path d="M210.969 331.836L213.459 330.813C213.689 330.719 213.895 330.573 214.059 330.387C214.224 330.201 214.344 329.98 214.41 329.741C214.771 328.413 215.571 325.784 216.319 325.417C217.326 324.923 218.706 328.657 218.706 328.657L219.286 328.419L218.142 323.544C218.002 322.945 217.677 322.406 217.214 322.002C216.75 321.598 216.171 321.351 215.559 321.295V321.295C215.559 321.295 216.041 323.142 215.074 324.443C214.107 325.744 211.309 330.135 211.309 330.135C210.956 330.234 210.619 330.383 210.308 330.578C209.586 331.045 210.173 332.164 210.969 331.836Z" fill="#3EAD52"/>
<path d="M197.307 242.354C197.307 242.354 197.602 244.264 197.102 249.505C196.602 254.746 194.317 267.042 194.661 278.829C194.661 278.829 200.847 280.326 211.619 279.733C211.619 279.733 216.318 261.376 215.269 254.373C214.221 247.371 208.259 242.304 208.259 242.304L197.307 242.354Z" fill="#3EAD52"/>
<path d="M202.182 207.345L201.349 216.246L208.546 216.306L206.871 202.696L202.182 207.345Z" fill="#D1E0E8"/>
<path d="M210.688 215.092C208.206 214.935 202.654 214.632 198.719 214.815C197.712 214.861 196.748 215.238 195.977 215.888C195.206 216.538 194.672 217.424 194.458 218.409L193.46 222.999C193.088 224.709 193.126 226.483 193.572 228.175L197.307 242.354C197.307 242.354 200.717 244.443 208.261 242.303C208.261 242.303 215.002 226.599 212.382 216.495C212.284 216.112 212.067 215.77 211.763 215.519C211.458 215.267 211.082 215.118 210.688 215.092V215.092Z" fill="#FF9900"/>
<path d="M194.653 217.586C193.569 220.369 192.587 223.289 191.536 226.023C191 227.394 190.459 228.732 189.881 229.963C189.589 230.576 189.269 231.137 188.975 231.649C188.745 232.045 188.478 232.419 188.179 232.767C188.146 232.795 188.258 232.818 188.295 232.82C188.317 232.82 187.577 232.935 187.35 232.971L186.464 232.958C185.195 232.882 183.759 232.646 182.319 232.354C179.414 231.787 176.395 231 173.296 230.397L173.272 230.393C173.037 230.346 172.793 230.379 172.577 230.485C172.362 230.591 172.187 230.765 172.081 230.98C171.974 231.195 171.941 231.439 171.987 231.675C172.032 231.911 172.154 232.125 172.334 232.284C173.577 233.398 174.897 234.314 176.266 235.208C176.956 235.637 177.658 236.059 178.371 236.464C179.099 236.843 179.829 237.224 180.589 237.578C182.116 238.259 183.694 238.888 185.515 239.298C185.994 239.383 186.466 239.471 186.959 239.541C187.512 239.565 188.014 239.615 188.619 239.588C188.94 239.559 189.263 239.522 189.585 239.479C189.755 239.46 189.924 239.431 190.091 239.392C190.312 239.328 190.533 239.255 190.748 239.176C191.202 239.017 191.497 238.823 191.866 238.621C192.174 238.422 192.454 238.214 192.726 238C193.731 237.157 194.357 236.321 194.909 235.516C195.425 234.749 195.887 233.946 196.292 233.115C197.052 231.591 197.692 230.011 198.208 228.389C199.232 225.226 199.934 222.116 200.247 218.807C200.315 218.113 200.13 217.418 199.725 216.851C199.32 216.284 198.723 215.882 198.045 215.721C197.367 215.56 196.654 215.65 196.037 215.975C195.42 216.299 194.942 216.836 194.691 217.486L194.653 217.586Z" fill="#D1E0E8"/>
<path d="M174.259 231.828L173.001 228.769L166.256 227.028C166.256 227.028 165.705 228.195 168.54 228.732C168.54 228.732 167.516 229.844 168.046 231.166C168.576 232.489 174.31 233.858 174.259 231.828Z" fill="#D1E0E8"/>
<path d="M199.221 197.033C198.963 197.182 196.878 204.306 198.549 207.315C200.22 210.323 205.429 207.013 206.871 202.696C208.312 198.378 206.1 193.054 199.221 197.033Z" fill="#D1E0E8"/>
<path d="M213.245 202.401C214.359 208.105 218.223 206.579 220.929 209.135C225.314 213.278 231.671 209.099 237.787 213.041C242.202 215.887 244.279 223.092 242.101 228.875C239.086 236.886 228.975 240.105 223.772 237.614C218.799 235.233 219.569 228.233 212.875 225.47C210.033 224.296 208.621 225.032 206.925 223.313C203.961 220.306 204.817 214.525 205.146 212.299C205.861 207.467 207.49 206.605 206.733 204.472C205.261 200.324 198.22 201.118 197.659 198.194C197.147 195.531 202.288 190.535 207.078 191.369C214.49 192.66 212.749 199.86 213.245 202.401Z" fill="#17405C"/>
<path opacity="0.72" d="M209.865 201.307C209.875 201.307 209.886 201.306 209.896 201.303C209.92 201.295 209.941 201.277 209.952 201.254C209.964 201.231 209.966 201.204 209.958 201.18C209.241 198.985 207.118 199.292 204.869 199.618C203.445 199.825 201.974 200.038 200.73 199.658C199.803 199.375 199.253 198.943 199.098 198.374C198.833 197.406 199.798 196.337 199.808 196.326C199.826 196.307 199.835 196.282 199.834 196.256C199.833 196.23 199.822 196.206 199.803 196.188C199.784 196.171 199.759 196.161 199.733 196.162C199.707 196.163 199.683 196.174 199.665 196.193C199.622 196.24 198.618 197.351 198.911 198.423C199.084 199.061 199.677 199.538 200.673 199.842C201.959 200.235 203.452 200.019 204.897 199.813C207.154 199.486 209.107 199.202 209.773 201.242C209.78 201.261 209.792 201.278 209.809 201.289C209.825 201.301 209.845 201.307 209.865 201.307Z" fill="white"/>
<path opacity="0.72" d="M220.196 231.289C220.204 231.29 220.213 231.29 220.221 231.289C220.246 231.283 220.267 231.267 220.28 231.245C220.293 231.223 220.297 231.196 220.291 231.171C219.396 227.612 217.792 225.132 215.526 223.799C213.877 222.829 212.326 222.728 210.96 222.638C209.641 222.551 208.502 222.475 207.591 221.652C205.71 219.95 205.853 215.897 208.02 209.604C208.026 209.58 208.023 209.555 208.012 209.533C208 209.511 207.981 209.494 207.957 209.486C207.934 209.478 207.908 209.48 207.886 209.49C207.863 209.5 207.845 209.518 207.836 209.541C205.642 215.912 205.516 220.035 207.461 221.794C208.422 222.663 209.592 222.74 210.948 222.83C212.294 222.918 213.82 223.019 215.428 223.965C217.648 225.27 219.221 227.71 220.103 231.217C220.109 231.237 220.121 231.256 220.138 231.269C220.155 231.282 220.175 231.289 220.196 231.289V231.289Z" fill="white"/>
</g>
<defs>
<linearGradient id="paint0_linear" x1="157.171" y1="228.585" x2="184.535" y2="231.804" gradientUnits="userSpaceOnUse">
<stop stop-color="#444B8C"/>
<stop offset="1" stop-color="#26264F"/>
</linearGradient>
<linearGradient id="paint1_linear" x1="114003" y1="220091" x2="232148" y2="221088" gradientUnits="userSpaceOnUse">
<stop stop-color="#311944"/>
<stop offset="1" stop-color="#893976"/>
</linearGradient>
<linearGradient id="paint2_linear" x1="94678.2" y1="21799.3" x2="155833" y2="22315.1" gradientUnits="userSpaceOnUse">
<stop stop-color="#F36F56"/>
<stop offset="1" stop-color="#FFC444"/>
</linearGradient>
<linearGradient id="paint3_linear" x1="92416.5" y1="25515.3" x2="153480" y2="26030.3" gradientUnits="userSpaceOnUse">
<stop stop-color="#F36F56"/>
<stop offset="1" stop-color="#FFC444"/>
</linearGradient>
<clipPath id="clip0">
<rect width="245" height="395" fill="white"/>
</clipPath>
</defs>
</svg>
