<svg width="21" height="21" viewBox="0 0 21 21" fill="none" xmlns="http://www.w3.org/2000/svg">
<path d="M0.656248 3.9375L0.708748 5.07937C0.362466 5.58278 0.203629 6.19165 0.259873 6.80006L1.09594 15.9876C1.1552 16.6398 1.45612 17.2463 1.93961 17.688C2.42309 18.1297 3.05423 18.3747 3.70912 18.375H11.8125V17.0625H3.70912C3.38169 17.0622 3.06619 16.9395 2.82457 16.7185C2.58295 16.4975 2.43265 16.1942 2.40318 15.8681L1.56712 6.68063C1.55071 6.49904 1.57232 6.31603 1.63056 6.14326C1.68879 5.97048 1.78239 5.81174 1.90538 5.67714C2.02837 5.54255 2.17805 5.43505 2.34489 5.36151C2.51172 5.28797 2.69205 5.24999 2.87437 5.25H18.1256C18.3079 5.24999 18.4883 5.28797 18.6551 5.36151C18.8219 5.43505 18.9716 5.54255 19.0946 5.67714C19.2176 5.81174 19.3112 5.97048 19.3694 6.14326C19.4277 6.31603 19.4493 6.49904 19.4329 6.68063L19.0837 10.5H20.4028L20.7388 6.80006C20.7718 6.4369 20.7288 6.07084 20.6125 5.72523C20.4962 5.37962 20.3091 5.06203 20.0633 4.79271C19.8174 4.52339 19.5181 4.30826 19.1845 4.16101C18.8509 4.01377 18.4903 3.93764 18.1256 3.9375H12.8992C12.2031 3.93735 11.5355 3.66069 11.0434 3.16838L9.95662 2.08162C9.46445 1.58931 8.79688 1.31265 8.10075 1.3125H3.28125C2.58505 1.3125 1.91738 1.58906 1.42509 2.08134C0.932809 2.57363 0.656248 3.24131 0.656248 3.9375V3.9375ZM8.10075 2.625C8.44881 2.62507 8.7826 2.7634 9.02868 3.00956L9.95662 3.9375H2.87437C2.55937 3.9375 2.2575 3.99262 1.97793 4.095L1.96875 3.91125C1.97562 3.56772 2.11693 3.24059 2.36233 3.0001C2.60773 2.7596 2.93765 2.62493 3.28125 2.625H8.10075V2.625Z" fill="#1A1A1A"/>
<path d="M16.7188 13.125C16.8928 13.125 17.0597 13.1941 17.1828 13.3172C17.3059 13.4403 17.375 13.6072 17.375 13.7812V15.75H19.3438C19.5178 15.75 19.6847 15.8191 19.8078 15.9422C19.9309 16.0653 20 16.2322 20 16.4062C20 16.5803 19.9309 16.7472 19.8078 16.8703C19.6847 16.9934 19.5178 17.0625 19.3438 17.0625H17.375V19.0312C17.375 19.2053 17.3059 19.3722 17.1828 19.4953C17.0597 19.6184 16.8928 19.6875 16.7188 19.6875C16.5447 19.6875 16.3778 19.6184 16.2547 19.4953C16.1316 19.3722 16.0625 19.2053 16.0625 19.0312V17.0625H14.0938C13.9197 17.0625 13.7528 16.9934 13.6297 16.8703C13.5066 16.7472 13.4375 16.5803 13.4375 16.4062C13.4375 16.2322 13.5066 16.0653 13.6297 15.9422C13.7528 15.8191 13.9197 15.75 14.0938 15.75H16.0625V13.7812C16.0625 13.6072 16.1316 13.4403 16.2547 13.3172C16.3778 13.1941 16.5447 13.125 16.7188 13.125Z" fill="#1A1A1A"/>
</svg>
