<svg width="21" height="21" viewBox="0 0 21 21" fill="none" xmlns="http://www.w3.org/2000/svg">
<g clip-path="url(#clip0_290_9593)">
<path fill-rule="evenodd" clip-rule="evenodd" d="M18.454 4.87331C18.6115 3.46763 18.332 2.46881 17.5327 1.55794C16.5745 0.46725 14.8473 0 12.6344 0H6.21366C5.99509 9.46519e-05 5.7837 0.0781123 5.61748 0.220042C5.45125 0.361972 5.34107 0.558515 5.30672 0.774375L2.63185 17.7306C2.61932 17.8093 2.62402 17.8898 2.64564 17.9666C2.66725 18.0434 2.70526 18.1145 2.75704 18.1752C2.80882 18.2358 2.87315 18.2845 2.94557 18.3179C3.01799 18.3512 3.09679 18.3685 3.17654 18.3684H6.79379L6.52866 20.0484C6.51008 20.1661 6.5172 20.2863 6.54955 20.4009C6.58189 20.5155 6.63869 20.6218 6.71602 20.7123C6.79336 20.8029 6.8894 20.8756 6.99753 20.9255C7.10567 20.9754 7.22333 21.0013 7.34241 21.0013H10.684C11.2471 21.0013 11.7248 20.5944 11.8154 20.0419L11.8482 19.8713L12.4782 15.8773L12.5176 15.6621L12.5189 15.6529C12.5359 15.544 12.5913 15.4448 12.6751 15.3733C12.7588 15.3018 12.8655 15.2627 12.9757 15.2631H13.4744C15.136 15.2631 16.6572 14.9271 17.8647 14.0687C18.3622 13.7143 18.7992 13.2772 19.168 12.7496C19.7805 11.8969 20.1769 10.9083 20.323 9.86869C20.6407 8.23331 20.4937 6.77644 19.5749 5.72906C19.2917 5.41303 18.9538 5.1507 18.5774 4.95469L18.454 4.87463V4.87331ZM8.58797 11.5763L7.47891 18.4183V18.4196L7.20591 20.1521C7.19279 20.2388 7.25841 20.3136 7.34372 20.3136H10.684C10.9111 20.3136 11.104 20.1495 11.1408 19.9251V19.9185L11.1749 19.7492L11.8049 15.7552L11.8443 15.54C11.8876 15.2712 12.0253 15.0266 12.2326 14.85C12.44 14.6735 12.7034 14.5766 12.9757 14.5766H13.4744C15.0507 14.5766 16.4144 14.2564 17.4683 13.5069C18.5144 12.7628 19.2927 11.5684 19.651 9.73481C19.9516 8.19263 19.777 6.99562 19.0604 6.17794C18.8542 5.94781 18.6111 5.75354 18.3412 5.60306L18.3372 5.62406C17.4907 9.97106 14.5927 11.4726 10.8927 11.4726H9.00929C8.86255 11.4727 8.71803 11.5083 8.58797 11.5763Z" fill="#3178E6"/>
</g>
<defs>
<clipPath id="clip0_290_9593">
<rect width="21" height="21" fill="white"/>
</clipPath>
</defs>
</svg>
