<svg width="21" height="21" viewBox="0 0 21 21" fill="none" xmlns="http://www.w3.org/2000/svg">
<path d="M11.1563 8.53125C11.1563 8.3572 11.0872 8.19028 10.9641 8.06721C10.8411 7.94414 10.6741 7.875 10.5001 7.875C10.326 7.875 10.1591 7.94414 10.0361 8.06721C9.91299 8.19028 9.84385 8.3572 9.84385 8.53125V13.5096L8.33972 12.0041C8.27871 11.9431 8.20627 11.8947 8.12655 11.8617C8.04683 11.8287 7.96139 11.8117 7.8751 11.8117C7.78881 11.8117 7.70336 11.8287 7.62364 11.8617C7.54392 11.8947 7.47149 11.9431 7.41047 12.0041C7.34946 12.0651 7.30106 12.1376 7.26803 12.2173C7.23501 12.297 7.21802 12.3825 7.21802 12.4688C7.21802 12.555 7.23501 12.6405 7.26803 12.7202C7.30106 12.7999 7.34946 12.8724 7.41047 12.9334L10.0355 15.5584C10.0964 15.6195 10.1688 15.668 10.2486 15.7011C10.3283 15.7341 10.4138 15.7512 10.5001 15.7512C10.5864 15.7512 10.6719 15.7341 10.7516 15.7011C10.8313 15.668 10.9038 15.6195 10.9647 15.5584L13.5897 12.9334C13.6507 12.8724 13.6991 12.7999 13.7322 12.7202C13.7652 12.6405 13.7822 12.555 13.7822 12.4688C13.7822 12.3825 13.7652 12.297 13.7322 12.2173C13.6991 12.1376 13.6507 12.0651 13.5897 12.0041C13.5287 11.9431 13.4563 11.8947 13.3766 11.8617C13.2968 11.8287 13.2114 11.8117 13.1251 11.8117C13.0388 11.8117 12.9534 11.8287 12.8736 11.8617C12.7939 11.8947 12.7215 11.9431 12.6605 12.0041L11.1563 13.5096V8.53125Z" fill="#B4B4B4"/>
<path d="M18.375 18.375V5.90625L12.4688 0H5.25C4.55381 0 3.88613 0.276562 3.39384 0.768845C2.90156 1.26113 2.625 1.92881 2.625 2.625V18.375C2.625 19.0712 2.90156 19.7389 3.39384 20.2312C3.88613 20.7234 4.55381 21 5.25 21H15.75C16.4462 21 17.1139 20.7234 17.6062 20.2312C18.0984 19.7389 18.375 19.0712 18.375 18.375ZM12.4688 3.9375C12.4688 4.45964 12.6762 4.9604 13.0454 5.32962C13.4146 5.69883 13.9154 5.90625 14.4375 5.90625H17.0625V18.375C17.0625 18.7231 16.9242 19.0569 16.6781 19.3031C16.4319 19.5492 16.0981 19.6875 15.75 19.6875H5.25C4.9019 19.6875 4.56806 19.5492 4.32192 19.3031C4.07578 19.0569 3.9375 18.7231 3.9375 18.375V2.625C3.9375 2.2769 4.07578 1.94306 4.32192 1.69692C4.56806 1.45078 4.9019 1.3125 5.25 1.3125H12.4688V3.9375Z" fill="#B4B4B4"/>
</svg>
