<svg width="21" height="21" viewBox="0 0 21 21" fill="none" xmlns="http://www.w3.org/2000/svg">
<path d="M18.375 18.375V5.90625L12.4688 0H5.25C4.55381 0 3.88613 0.276562 3.39384 0.768845C2.90156 1.26113 2.625 1.92881 2.625 2.625V18.375C2.625 19.0712 2.90156 19.7389 3.39384 20.2312C3.88613 20.7234 4.55381 21 5.25 21H15.75C16.4462 21 17.1139 20.7234 17.6062 20.2312C18.0984 19.7389 18.375 19.0712 18.375 18.375ZM12.4688 3.9375C12.4688 4.45964 12.6762 4.9604 13.0454 5.32962C13.4146 5.69883 13.9154 5.90625 14.4375 5.90625H17.0625V18.375C17.0625 18.7231 16.9242 19.0569 16.6781 19.3031C16.4319 19.5492 16.0981 19.6875 15.75 19.6875H5.25C4.9019 19.6875 4.56806 19.5492 4.32192 19.3031C4.07578 19.0569 3.9375 18.7231 3.9375 18.375V2.625C3.9375 2.2769 4.07578 1.94306 4.32192 1.69692C4.56806 1.45078 4.9019 1.3125 5.25 1.3125H12.4688V3.9375Z" fill="#7100D2"/>
<path d="M6.04144 18.4892C5.78562 18.3869 5.57952 18.1892 5.46657 17.9379C5.21063 17.4287 5.29594 16.9194 5.57157 16.4916C5.83144 16.0886 6.26194 15.7461 6.74888 15.4586C7.36567 15.1088 8.01766 14.825 8.694 14.6121C9.21925 13.6678 9.68479 12.6916 10.0879 11.6891C9.84687 11.1415 9.65792 10.5724 9.5235 9.98942C9.41063 9.46442 9.36732 8.94467 9.46313 8.49842C9.56157 8.0338 9.82275 7.61642 10.3163 7.41824C10.5683 7.31717 10.8413 7.26074 11.1064 7.31717C11.2397 7.34556 11.3651 7.40328 11.4734 7.48615C11.5817 7.56901 11.6702 7.67493 11.7324 7.79624C11.8479 8.01149 11.8899 8.26349 11.8991 8.50236C11.9083 8.74911 11.8834 9.02211 11.8374 9.30824C11.7272 9.97761 11.4831 10.7966 11.1549 11.6629C11.517 12.4373 11.9475 13.1778 12.4412 13.8757C13.0254 13.8296 13.613 13.8516 14.1921 13.9414C14.6698 14.028 15.1554 14.1973 15.4521 14.5517C15.6096 14.7407 15.7054 14.9717 15.7146 15.2316C15.7238 15.4836 15.6529 15.7329 15.5334 15.9705C15.43 16.1906 15.2696 16.3791 15.0688 16.5165C14.8704 16.6459 14.6361 16.7093 14.3994 16.6976C13.965 16.6792 13.5411 16.4404 13.1749 16.1503C12.7296 15.7821 12.3284 15.3637 11.9792 14.9034C11.0916 15.0042 10.2146 15.1825 9.35813 15.4363C8.96592 16.1319 8.51822 16.7946 8.01938 17.4182C7.63613 17.8776 7.22007 18.2792 6.80269 18.4511C6.56288 18.5596 6.29088 18.5732 6.04144 18.4892V18.4892ZM7.85138 15.9941C7.6335 16.0939 7.43138 16.1989 7.24894 16.3065C6.81844 16.5611 6.53888 16.8092 6.39975 17.0244C6.27638 17.2147 6.27375 17.3526 6.34725 17.4982C6.36038 17.5271 6.3735 17.5455 6.38138 17.556C6.39704 17.5518 6.41239 17.5465 6.42732 17.5402C6.60713 17.4667 6.89325 17.2318 7.26075 16.7895C7.46976 16.5336 7.66685 16.2682 7.85138 15.9941V15.9941ZM10.0039 14.2485C10.4422 14.1462 10.8844 14.0617 11.3295 13.9952C11.0905 13.6295 10.8672 13.2537 10.6601 12.8691C10.4543 13.3345 10.2354 13.794 10.0039 14.2472V14.2485ZM13.2143 14.8391C13.4111 15.0531 13.6028 15.2329 13.7852 15.3772C14.1002 15.6266 14.3194 15.7093 14.4388 15.7132C14.4708 15.7174 14.5032 15.7105 14.5307 15.6936C14.5853 15.6504 14.6278 15.5939 14.6541 15.5295C14.7007 15.4495 14.7273 15.3595 14.7315 15.267C14.7307 15.2362 14.7186 15.2067 14.6974 15.1843C14.6291 15.1029 14.4349 14.9848 14.0175 14.91C13.752 14.8656 13.4834 14.8423 13.2143 14.8404V14.8391ZM10.6024 10.2375C10.7128 9.88117 10.8005 9.51819 10.8649 9.15074C10.9056 8.90399 10.9213 8.70055 10.9148 8.54042C10.9151 8.45208 10.9009 8.36428 10.8728 8.28055C10.8071 8.28868 10.743 8.30636 10.6824 8.33305C10.5683 8.37899 10.4751 8.47217 10.4252 8.70449C10.3727 8.95649 10.3858 9.32005 10.4856 9.78336C10.5171 9.92905 10.5564 10.0813 10.6037 10.2375H10.6024Z" fill="#7100D2"/>
</svg>
