<svg width="21" height="21" viewBox="0 0 21 21" fill="none" xmlns="http://www.w3.org/2000/svg">
<path d="M10.8636 0.109913C10.7559 0.0382394 10.6294 0 10.5 0C10.3706 0 10.2441 0.0382394 10.1364 0.109913L0.292688 6.67252C0.175543 6.75063 0.0866264 6.86435 0.039072 6.99688C-0.00848239 7.12941 -0.0121531 7.27371 0.028602 7.40849C0.0693571 7.54326 0.152377 7.66135 0.265399 7.74532C0.378421 7.82929 0.515451 7.87468 0.65625 7.87479H3.11719V17.0624H1.96875C1.7947 17.0624 1.62778 17.1316 1.50471 17.2547C1.38164 17.3777 1.3125 17.5446 1.3125 17.7187C1.3125 17.8927 1.38164 18.0597 1.50471 18.1827C1.62778 18.3058 1.7947 18.375 1.96875 18.375H19.0312C19.2053 18.375 19.3722 18.3058 19.4953 18.1827C19.6184 18.0597 19.6875 17.8927 19.6875 17.7187C19.6875 17.5446 19.6184 17.3777 19.4953 17.2547C19.3722 17.1316 19.2053 17.0624 19.0312 17.0624H17.8828V7.87479H20.3438C20.4845 7.87468 20.6216 7.82929 20.7346 7.74532C20.8476 7.66135 20.9306 7.54326 20.9714 7.40849C21.0122 7.27371 21.0085 7.12941 20.9609 6.99688C20.9134 6.86435 20.8245 6.75063 20.7073 6.67252L10.8636 0.109913ZM16.2422 7.87479V17.0624H14.6016V7.87479H16.2422ZM12.9609 7.87479V17.0624H11.3203V7.87479H12.9609ZM9.67969 7.87479V17.0624H8.03906V7.87479H9.67969ZM6.39844 7.87479V17.0624H4.75781V7.87479H6.39844ZM10.5 5.24975C10.1519 5.24975 9.81806 5.11146 9.57192 4.86532C9.32578 4.61917 9.1875 4.28533 9.1875 3.93722C9.1875 3.58912 9.32578 3.25528 9.57192 3.00913C9.81806 2.76299 10.1519 2.6247 10.5 2.6247C10.8481 2.6247 11.1819 2.76299 11.4281 3.00913C11.6742 3.25528 11.8125 3.58912 11.8125 3.93722C11.8125 4.28533 11.6742 4.61917 11.4281 4.86532C11.1819 5.11146 10.8481 5.24975 10.5 5.24975ZM0.65625 19.6875C0.482202 19.6875 0.315282 19.7566 0.192211 19.8797C0.0691404 20.0028 0 20.1697 0 20.3437C0 20.5178 0.0691404 20.6847 0.192211 20.8078C0.315282 20.9309 0.482202 21 0.65625 21H20.3438C20.5178 21 20.6847 20.9309 20.8078 20.8078C20.9309 20.6847 21 20.5178 21 20.3437C21 20.1697 20.9309 20.0028 20.8078 19.8797C20.6847 19.7566 20.5178 19.6875 20.3438 19.6875H0.65625Z" fill="#595959"/>
</svg>
