<svg viewBox="0 0 351 278" fill="none" xmlns="http://www.w3.org/2000/svg">
<g clip-path="url(#clip0_1:34446)">
<path d="M498.999 242.328C499.016 245.36 498.835 248.389 498.456 251.4C497.841 256.377 496.632 261.274 494.853 266C493.605 269.314 492.05 272.518 490.205 275.578C489.674 276.46 489.116 277.328 488.531 278.181H-74.8457C-74.8457 278.181 -126.156 168.101 -56.2534 114.808C-55.3799 114.142 -54.5032 113.49 -53.6233 112.851C-52.8104 112.264 -51.9959 111.687 -51.1798 111.121C-50.386 110.566 -49.585 110.028 -48.7888 109.497C-27.7195 95.556 -4.64652 88.6659 19.555 84.3854C20.4062 84.2361 21.2605 84.0867 22.1181 83.9374C22.9294 83.7985 23.7424 83.6634 24.5569 83.532C44.1773 80.3625 64.4863 78.6937 85.0487 76.2163C92.2001 75.3517 99.3946 74.393 106.579 73.235C135.364 68.6073 164.307 60.8369 192.177 43.6678C200.551 38.4868 209.423 34.0496 218.678 30.414C219.283 30.1766 219.89 29.9414 220.5 29.7129C221.11 29.4844 221.696 29.2649 222.286 29.0409C239.771 22.6952 257.049 19.9557 273.29 20.0005C273.931 20.0005 274.567 20.0005 275.203 20.0162C275.839 20.0319 276.418 20.0409 277.023 20.0588C282.078 20.2058 287.119 20.6276 292.122 21.3221C294.173 21.6088 296.198 21.9381 298.197 22.3099C301.135 22.8595 304.012 23.4971 306.829 24.2228C343.004 33.5231 368.614 56.8812 370.082 81.0367C371.072 97.3211 373.133 112.965 377.697 126.537C379.813 132.822 382.465 138.666 385.798 143.921C386.703 145.351 387.66 146.738 388.667 148.08C398.633 161.296 413.772 170.009 436.845 171.459C452.882 172.467 466.393 179.198 476.677 189.154C476.77 189.248 476.868 189.34 476.966 189.434C490.965 203.196 498.908 222.944 498.999 242.328Z" fill="url(#paint0_linear_1:34446)"/>
<path d="M197.481 214.752C196.966 210.834 190.956 209.543 189.6 208.559C188.791 207.97 186.902 205.369 185.594 203.466L185.887 203.263C182.082 191.468 178.943 181.81 176.355 173.901C176.662 173.306 176.961 172.399 177.189 171.039C178.123 165.602 173.422 163.538 173.422 163.538L173.347 163.497C176.148 139.729 169.407 138.112 169.407 138.112C167.673 137.591 165.851 137.437 164.055 137.659C163.061 135.244 161.07 133.761 157.79 133.573C156.687 133.544 155.59 133.755 154.575 134.194C154.727 133.924 154.878 133.651 155.026 133.38C155.709 132.903 161.475 128.723 160.977 123.698C160.921 122.897 160.723 122.114 160.393 121.383C160.318 120.996 160.218 120.613 160.094 120.239C160.608 117.713 160.638 115.661 160.054 114.488C158.993 112.345 157.008 110.85 155.513 109.964C156.139 109.829 156.962 110.18 156.962 110.18C156.153 109.444 153.575 108.992 153.575 108.992C144.374 95.794 130.183 112.887 127.6 117.344C125.017 121.801 121.774 126.741 113.031 126.393C95.8292 125.712 94.7238 143.153 98.2543 152.082C98.3028 152.208 106.742 167.262 106.742 167.262C106.968 166.872 107.227 166.503 107.518 166.16C106.94 172.44 106.665 177.588 105.699 179.034C103.699 182.059 94.2529 200.071 102.423 208.482C95.9788 206.347 86.8624 214.33 85.7611 215.324H85.6499V277.643H200.715V215.324C199.757 215.135 198.669 214.943 197.481 214.752ZM145.948 203.809C146.72 202.637 149.555 197.29 153.021 190.146C152.918 197.329 152.876 202.535 152.876 202.535C152.814 202.968 152.865 203.41 153.023 203.817C153.181 204.224 153.441 204.583 153.777 204.86C153.373 205.778 152.886 206.669 152.498 207.534C152.099 208.492 151.869 209.512 151.819 210.549C145.334 210.242 140.411 210.185 138.792 210.484C138.507 210.537 138.173 210.592 137.804 210.645C141.674 208.805 144.359 206.225 145.948 203.809ZM172.491 211.957C171.042 209.296 166.106 209.535 164.971 208.567C164.215 207.942 163.591 207.17 163.136 206.298C163.483 206.267 163.683 206.243 163.683 206.243C165.159 201.268 166.44 196.669 167.551 192.391C171.795 199.569 175.289 204.87 175.289 204.87C175.455 205.325 175.742 205.725 176.118 206.027C176.494 206.329 176.945 206.521 177.422 206.583C177.36 206.916 177.258 207.24 177.118 207.549C176.383 209.19 176.369 211.181 176.437 212.311C175.138 212.177 173.818 212.061 172.499 211.949L172.491 211.957Z" fill="#E5E6E6"/>
<path d="M189.69 206.856H101.956V278.294H189.69V206.856Z" fill="#00719E"/>
<path d="M233.559 206.856H154.179V278.292H233.559V206.856Z" fill="#B2CBD9"/>
<path d="M220.785 220.598C220.777 220.305 220.854 220.017 221.009 219.769C221.163 219.522 221.387 219.326 221.652 219.208C221.918 219.09 222.211 219.054 222.497 219.106C222.782 219.157 223.045 219.294 223.253 219.497C223.461 219.701 223.604 219.963 223.664 220.249C223.724 220.536 223.698 220.834 223.589 221.105C223.481 221.376 223.294 221.609 223.054 221.772C222.814 221.936 222.531 222.024 222.241 222.024C222.053 222.027 221.865 221.993 221.69 221.923C221.515 221.853 221.355 221.749 221.22 221.616C221.085 221.484 220.977 221.326 220.902 221.151C220.828 220.976 220.788 220.788 220.785 220.598Z" fill="#3EAD52"/>
<path d="M110.217 220.597C110.217 219.813 110.62 219.172 111.118 219.172C111.616 219.172 112.019 219.809 112.019 220.597C112.019 221.385 111.616 222.023 111.118 222.023C110.62 222.023 110.217 221.381 110.217 220.597Z" fill="#3EAD52"/>
<path d="M143.287 220.597C143.287 219.813 143.69 219.172 144.188 219.172C144.686 219.172 145.089 219.809 145.089 220.597C145.089 221.385 144.686 222.023 144.188 222.023C143.69 222.023 143.287 221.381 143.287 220.597Z" fill="#3EAD52"/>
<path d="M110.217 265.598C110.217 264.811 110.62 264.172 111.118 264.172C111.616 264.172 112.019 264.807 112.019 265.598C112.019 266.388 111.616 267.023 111.118 267.023C110.62 267.023 110.217 266.382 110.217 265.598Z" fill="#3EAD52"/>
<path d="M143.287 265.598C143.287 264.811 143.69 264.172 144.188 264.172C144.686 264.172 145.089 264.807 145.089 265.598C145.089 266.388 144.686 267.023 144.188 267.023C143.69 267.023 143.287 266.382 143.287 265.598Z" fill="#3EAD52"/>
<path d="M101.956 206.973C101.956 206.973 113.878 195.846 121.743 199.233C132.096 203.7 156.576 202.455 162.753 201.303C168.93 200.15 217.184 203.592 233.557 206.851L101.956 206.973Z" fill="#00719E"/>
<path d="M233.557 259.553V278.292H154.179V206.856H167.502L167.762 206.972C167.762 206.972 174.882 255.427 233.557 259.553Z" fill="#266A9A"/>
<path d="M250.969 219.015C250.969 219.015 235.696 216.827 234.807 214.33C234.807 214.33 235.87 212.09 234.193 211.491C233.743 211.334 232.983 211.043 232.65 211.475L232.673 216.068C232.673 216.068 234.318 217.697 235.241 218.996C235.751 219.717 245.621 223.885 245.621 223.885L250.969 219.015Z" fill="#17405E"/>
<path d="M282.441 252.707C283.888 250.594 282.382 235.659 271.958 240.193C269.74 240.869 267.079 242.488 263.894 245.441C263.894 245.441 259.314 256.346 277.377 263.559C277.377 263.559 279.167 264.341 279.421 266.003C279.675 267.665 279.961 275.168 279.348 275.396C278.735 275.625 277.828 274.763 277.167 275.71C276.506 276.657 276.738 278.219 276.738 278.219H283.302C283.302 278.219 286.438 261.379 286.263 260.039C286.088 258.699 280.723 255.216 282.441 252.707Z" fill="#17405E"/>
<path d="M256.69 191.667C256.69 191.667 260.164 199.026 258.244 201.239L252.848 196.86C252.848 196.86 252.821 194.685 256.69 191.667Z" fill="#233862"/>
<path d="M293.908 231.301C292.497 228.704 290.366 224.364 293.168 222.592C295.557 221.082 294.642 217.933 293.261 217.18C290.352 215.595 287.396 217.601 286.003 219.561C283.369 223.288 286.87 229.115 286.87 229.115C290.178 236.313 283.366 240.061 280.08 241.399C278.486 239.002 276.63 236.794 274.549 234.814C273.416 233.729 272.378 232.845 271.507 232.093C262.26 224.107 264.497 221.186 262.302 217.595C261.872 216.884 260.171 214.947 259.717 214.336C259.264 213.725 259.113 211.538 259.056 209.613C260.094 208.719 260.209 207.717 260.209 207.717C260.268 207.985 260.268 208.263 260.209 208.532C261.286 207.648 261.042 205.613 261.042 205.613C261.28 205.908 261.375 206.538 261.375 206.538C261.917 203.372 259.988 200.79 259.963 200.769C260.302 197.796 257.861 192.622 257.861 192.622C257.861 192.622 258.036 196.458 258.405 198.413C257.782 197.76 257.053 197.22 256.25 196.816C254.321 195.849 251.686 194.938 248.896 197.704C248.263 198.331 246.386 198.841 245.501 198.722C245.013 198.659 243.904 201.128 243.86 201.464C243.376 205.199 244.549 207.045 246.66 208.957C246.956 209.799 247.182 210.929 246.66 211.691C246.66 211.691 247.106 211.507 247.16 211.361C247.124 211.564 246.882 212.734 246.247 213.261C246.393 213.244 246.538 213.21 246.676 213.159C246.122 213.87 244.015 216.809 244.056 220.433C239.62 220.469 235.411 220.194 235.002 219.048C235.002 219.048 235.958 217.159 234.387 216.208C233.858 215.925 233.264 215.785 232.665 215.801L232.589 220.958C232.589 220.958 234.512 222.4 235.435 223.708C235.754 224.156 241.953 226.983 246.588 229.054C249.287 240.868 257.958 247.709 260.826 249.691C261.229 253.302 263.362 258.001 269.448 263.474C269.448 263.474 270.86 264.83 270.537 266.478C270.214 268.126 267.916 275.275 267.273 275.275C266.63 275.275 264.451 274.322 263.501 274.982C262.552 275.642 263.862 278.206 263.862 278.206H270.511C270.511 278.206 278.71 264.574 279 263.254C279.29 261.934 275.444 256.803 277.911 255.044C278.968 254.29 280.437 250.155 280.129 246.355C283.366 245.226 298.345 239.428 293.908 231.301Z" fill="#17405C"/>
<path d="M254.028 197.816L259.429 202.195C259.748 201.786 259.938 201.289 259.973 200.769C260.314 197.796 257.87 192.622 257.87 192.622C254.002 195.645 254.028 197.816 254.028 197.816Z" fill="#17405E"/>
<path d="M245.354 198.749C245.445 198.69 245.55 198.654 245.658 198.646C245.767 198.638 245.876 198.657 245.975 198.703C245.975 198.703 245.892 199.943 244.688 200.02C244.688 200.02 245.035 198.943 245.354 198.749Z" fill="#163560"/>
<path d="M247.562 201.536C247.608 201.553 252.11 203.247 255.338 206.991C252.056 203.18 247.657 201.404 247.61 201.388L247.562 201.536Z" fill="#163560"/>
<path d="M247.143 201.859C247.191 201.889 251.91 205.134 254.586 210.372C251.864 205.038 247.29 201.732 247.239 201.7L247.143 201.859Z" fill="#163560"/>
<path d="M246.656 202.247C246.691 202.281 250.011 205.793 251.293 210.583C249.985 205.707 246.795 202.169 246.761 202.135L246.656 202.247Z" fill="#163560"/>
<path d="M198.027 146.234C198.027 146.234 203.572 148.673 202.47 155.101C201.368 161.529 199.162 159.37 199.162 159.37L198.027 146.234Z" fill="#B2CBD9"/>
<path d="M226.425 206.892L201.706 204.934C201.706 204.934 201.113 201.127 202.404 198.239C203.652 195.468 201.939 193.462 200.246 190.162C201.816 191.796 207.226 191.557 210.8 191.069C211.239 191.788 215.647 198.39 217.108 199.451C218.724 200.623 225.934 202.165 226.425 206.892Z" fill="#233862"/>
<path d="M197.393 204.935H172.672C172.672 204.935 172.079 201.128 173.372 198.24C174.62 195.469 176.763 192.495 175.071 189.194C176.641 190.829 181.604 190.65 185.176 190.163C185.615 190.881 183.512 195.568 188.087 199.452C189.596 200.754 196.894 200.206 197.393 204.935Z" fill="#233862"/>
<path d="M193.291 116.175C193.291 116.175 181.519 112.118 177.001 124.201C155.444 141.847 124.606 186.904 122.009 190.053C116.799 196.355 120.826 205.142 142.137 204.934C154.596 204.81 162.222 199.031 165.632 193.834C166.543 192.45 169.886 186.137 173.984 177.682C173.862 186.173 173.81 192.328 173.81 192.328C173.171 198.346 186.553 196.702 186.553 196.702C209.253 120.004 193.291 116.175 193.291 116.175Z" fill="#448098"/>
<path d="M182.255 88.2425C181.007 85.7091 178.662 83.9403 176.899 82.8942C177.637 82.7345 178.606 83.1505 178.606 83.1505C177.66 82.2787 174.612 81.743 174.612 81.743C163.761 66.1414 147.023 86.3498 143.975 91.6161C140.927 96.8825 137.114 102.724 126.791 102.315C106.5 101.508 106.529 121.689 109.361 132.684C110.86 138.497 119.965 152.086 119.965 152.086C122.306 147.75 142.776 127.89 156.797 128.025C161.505 126.103 166.478 120.446 166.867 119.998C163.183 124.66 160.509 126.863 158.727 127.918C172.05 125.832 185.577 94.9541 182.255 88.2425Z" fill="#17405C"/>
<path d="M157.627 128.018C157.666 128.071 155.795 135.062 150.175 131.995C146.484 129.982 140.565 121.395 142.846 118.483C143.931 117.101 148.707 114.473 153.682 105.572L154.279 106.093L164.32 114.868C164.32 114.868 162.032 118.319 160.117 121.703C158.504 124.546 157.155 127.342 157.627 128.018Z" fill="#B2CBD9"/>
<path d="M153.912 103.893C153.912 103.893 154.099 96.6814 156.209 91.8352C157.717 88.3754 166.877 77.9708 177.18 87.3398C179.262 89.216 180.9 91.5404 181.974 94.1417C183.33 97.5028 184.482 103.569 173.865 110.865L170.589 113.541L153.912 103.893Z" fill="#3EAD52"/>
<path d="M140.415 114.672C140.415 114.672 144.104 115.382 145.663 113.271C147.222 111.16 150.618 106.692 151.412 109.254C152.206 111.817 159.693 119.27 161.425 119.466C163.157 119.661 164.371 120.153 163.392 121.06C162.413 121.968 162.82 125.597 161.841 125.927C160.862 126.257 142.673 114.47 140.415 114.672Z" fill="#3EAD52"/>
<path d="M163.606 119.768C163.606 119.768 149.127 110.315 155.096 101.282C161.065 92.2489 163.205 84.9659 172.715 90.623C182.225 96.28 181.711 100.916 180.445 104.424C179.179 107.932 167.527 121.996 163.606 119.768Z" fill="#B2CBD9"/>
<path d="M164.32 127.083C164.32 127.083 139.798 108.826 131.215 115.704C118.557 125.846 121.09 160.087 118.15 164.542C115.21 168.998 98.6428 200.949 125.587 204.199C152.531 207.448 158.737 190.286 159.962 177.415C161.186 164.544 164.32 127.083 164.32 127.083Z" fill="#3EAD52"/>
<path d="M179.383 94.826C179.383 94.826 168.447 102.746 161.392 100.233C154.337 97.7207 152.807 94.3261 152.807 94.3261C152.807 94.3261 159.876 93.7463 165.128 87.9274C165.128 87.9274 179.764 87.7888 179.383 94.826Z" fill="#17405C"/>
<path d="M177.843 95.0253C177.843 95.0253 179.205 99.3695 178.396 102.149C177.587 104.928 174.787 109.871 176.242 110.635C176.242 110.635 183.964 105.447 183.342 99.1321C182.688 92.4352 177.843 95.0253 177.843 95.0253Z" fill="#17405C"/>
<path d="M187.183 116.175C186.089 113.001 183.698 111.039 179.585 110.804C161.611 109.777 118.401 186.087 115.131 190.049C109.918 196.351 113.946 205.138 135.257 204.93C147.718 204.806 152.631 198.78 156.049 193.587C157.613 191.209 168.94 173.023 177.652 154.304C184.954 171.883 200.252 195.078 200.252 195.078C202.525 200.679 212.727 193.204 212.727 193.204C188.26 117.188 187.183 116.175 187.183 116.175Z" fill="#448098"/>
<path d="M130.025 118.491C130.025 118.491 123.565 128.574 143.654 137.817C163.743 147.06 166.109 149.322 170.024 150.148C176.127 151.436 199.57 151.255 199.57 151.255C199.57 151.255 200.193 147.497 198.027 146.23C194.569 144.199 174.601 140.901 171.908 139.813C169.216 138.724 140.525 107.57 130.025 118.491Z" fill="#B2CBD9"/>
<path d="M135.726 114.17C135.726 114.17 145.987 114.59 167.39 134.51C167.39 134.51 170.666 138.529 172.294 138.796C173.922 139.063 178.339 140.237 178.434 141.371C178.53 142.506 172.999 156.738 165.959 157.143C158.919 157.548 124.999 132.202 127.312 123.969C129.624 115.737 135.726 114.17 135.726 114.17Z" fill="#3EAD52"/>
<line y1="-0.5" x2="14.4901" y2="-0.5" transform="matrix(0.703119 0.711073 -0.703119 0.711073 82.6592 84.0693)" stroke="#17405E"/>
<line y1="-0.5" x2="12.226" y2="-0.5" transform="matrix(0.972512 -0.232854 0.230393 0.973098 80.9609 118.986)" stroke="#17405E"/>
<line y1="-0.5" x2="14.3354" y2="-0.5" transform="matrix(0.830027 -0.557723 0.551679 0.834057 80.9609 137.876)" stroke="#17405E"/>
<line y1="-0.25" x2="14.3355" y2="-0.25" transform="matrix(0.829153 -0.559022 0.550382 0.834913 82.6592 137.876)" stroke="#17405E" stroke-width="0.5"/>
<line y1="-0.25" x2="12.5435" y2="-0.25" transform="matrix(0.947606 -0.319442 0.313039 0.94974 82.6592 120.133)" stroke="#17405E" stroke-width="0.5"/>
<line y1="-0.25" x2="12.9624" y2="-0.25" transform="matrix(0.785989 0.61824 -0.609635 0.792683 82.0928 85.7865)" stroke="#17405E" stroke-width="0.5"/>
</g>
<defs>
<linearGradient id="paint0_linear_1:34446" x1="39.3919" y1="171.465" x2="-126.45" y2="282.958" gradientUnits="userSpaceOnUse">
<stop stop-color="#F0F5F7"/>
<stop offset="1" stop-color="#F0F5F7" stop-opacity="0"/>
</linearGradient>
<clipPath id="clip0_1:34446">
<rect width="351" height="278" fill="white"/>
</clipPath>
</defs>
</svg>
