<svg width="49" height="47" viewBox="0 0 49 47" fill="none" xmlns="http://www.w3.org/2000/svg">
<mask id="mask0_612_7140" style="mask-type:alpha" maskUnits="userSpaceOnUse" x="0" y="0" width="49" height="47">
<rect x="0.048584" width="48.1429" height="47" rx="4" fill="#D9D9D9"/>
</mask>
<g mask="url(#mask0_612_7140)">
<path d="M19.6562 20.5625C19.3993 20.5625 19.1529 20.6646 18.9712 20.8462C18.7896 21.0279 18.6875 21.2743 18.6875 21.5312C18.6875 21.7882 18.7896 22.0346 18.9712 22.2163C19.1529 22.3979 19.3993 22.5 19.6562 22.5H29.3438C29.6007 22.5 29.8471 22.3979 30.0288 22.2163C30.2104 22.0346 30.3125 21.7882 30.3125 21.5312C30.3125 21.2743 30.2104 21.0279 30.0288 20.8462C29.8471 20.6646 29.6007 20.5625 29.3438 20.5625H19.6562ZM18.6875 25.4062C18.6875 25.1493 18.7896 24.9029 18.9712 24.7212C19.1529 24.5396 19.3993 24.4375 19.6562 24.4375H29.3438C29.6007 24.4375 29.8471 24.5396 30.0288 24.7212C30.2104 24.9029 30.3125 25.1493 30.3125 25.4062C30.3125 25.6632 30.2104 25.9096 30.0288 26.0913C29.8471 26.2729 29.6007 26.375 29.3438 26.375H19.6562C19.3993 26.375 19.1529 26.2729 18.9712 26.0913C18.7896 25.9096 18.6875 25.6632 18.6875 25.4062ZM18.6875 29.2812C18.6875 29.0243 18.7896 28.7779 18.9712 28.5962C19.1529 28.4146 19.3993 28.3125 19.6562 28.3125H23.5312C23.7882 28.3125 24.0346 28.4146 24.2163 28.5962C24.3979 28.7779 24.5 29.0243 24.5 29.2812C24.5 29.5382 24.3979 29.7846 24.2163 29.9663C24.0346 30.1479 23.7882 30.25 23.5312 30.25H19.6562C19.3993 30.25 19.1529 30.1479 18.9712 29.9663C18.7896 29.7846 18.6875 29.5382 18.6875 29.2812Z" fill="#595959"/>
<path d="M27.4062 7H16.75C15.7223 7 14.7367 7.40826 14.01 8.13496C13.2833 8.86166 12.875 9.84729 12.875 10.875V34.125C12.875 35.1527 13.2833 36.1383 14.01 36.865C14.7367 37.5917 15.7223 38 16.75 38H32.25C33.2777 38 34.2633 37.5917 34.99 36.865C35.7167 36.1383 36.125 35.1527 36.125 34.125V15.7188L27.4062 7ZM27.4062 8.9375V12.8125C27.4063 13.5833 27.7124 14.3225 28.2575 14.8675C28.8025 15.4126 29.5417 15.7188 30.3125 15.7188H34.1875V34.125C34.1875 34.6389 33.9834 35.1317 33.62 35.495C33.2567 35.8584 32.7639 36.0625 32.25 36.0625H16.75C16.2361 36.0625 15.7433 35.8584 15.38 35.495C15.0166 35.1317 14.8125 34.6389 14.8125 34.125V10.875C14.8125 10.3611 15.0166 9.86833 15.38 9.50498C15.7433 9.14163 16.2361 8.9375 16.75 8.9375H27.4062Z" fill="#595959"/>
</g>
</svg>
