<svg width="36" height="36" viewBox="0 0 36 36" fill="none" xmlns="http://www.w3.org/2000/svg">
<g clip-path="url(#clip0_612_6961)">
<path d="M19.5 32.9375C15.6709 32.9375 11.9987 31.4164 9.29115 28.7089C6.58359 26.0013 5.0625 22.3291 5.0625 18.5C5.0625 14.6709 6.58359 10.9987 9.29115 8.29115C11.9987 5.58359 15.6709 4.0625 19.5 4.0625C23.3291 4.0625 27.0013 5.58359 29.7089 8.29115C32.4164 10.9987 33.9375 14.6709 33.9375 18.5C33.9375 22.3291 32.4164 26.0013 29.7089 28.7089C27.0013 31.4164 23.3291 32.9375 19.5 32.9375ZM19.5 35C23.8761 35 28.0729 33.2616 31.1673 30.1673C34.2616 27.0729 36 22.8761 36 18.5C36 14.1239 34.2616 9.92709 31.1673 6.83274C28.0729 3.73839 23.8761 2 19.5 2C15.1239 2 10.9271 3.73839 7.83274 6.83274C4.73839 9.92709 3 14.1239 3 18.5C3 22.8761 4.73839 27.0729 7.83274 30.1673C10.9271 33.2616 15.1239 35 19.5 35Z" fill="#D84E32"/>
<path d="M12.5823 11.5824C12.6781 11.4864 12.7919 11.4102 12.9171 11.3582C13.0424 11.3062 13.1767 11.2794 13.3124 11.2794C13.448 11.2794 13.5823 11.3062 13.7076 11.3582C13.8329 11.4102 13.9467 11.4864 14.0425 11.5824L19.4999 17.0418L24.9573 11.5824C25.0531 11.4865 25.167 11.4104 25.2922 11.3586C25.4175 11.3067 25.5518 11.28 25.6874 11.28C25.823 11.28 25.9573 11.3067 26.0825 11.3586C26.2078 11.4104 26.3216 11.4865 26.4175 11.5824C26.5134 11.6783 26.5895 11.7921 26.6413 11.9174C26.6932 12.0426 26.7199 12.1769 26.7199 12.3125C26.7199 12.4481 26.6932 12.5824 26.6413 12.7077C26.5895 12.8329 26.5134 12.9468 26.4175 13.0426L20.9581 18.5L26.4175 23.9574C26.5134 24.0533 26.5895 24.1671 26.6413 24.2924C26.6932 24.4176 26.7199 24.5519 26.7199 24.6875C26.7199 24.8231 26.6932 24.9574 26.6413 25.0827C26.5895 25.2079 26.5134 25.3218 26.4175 25.4176C26.3216 25.5135 26.2078 25.5896 26.0825 25.6415C25.9573 25.6934 25.823 25.7201 25.6874 25.7201C25.5518 25.7201 25.4175 25.6934 25.2922 25.6415C25.167 25.5896 25.0531 25.5135 24.9573 25.4176L19.4999 19.9582L14.0425 25.4176C13.9466 25.5135 13.8328 25.5896 13.7075 25.6415C13.5823 25.6934 13.448 25.7201 13.3124 25.7201C13.1768 25.7201 13.0425 25.6934 12.9172 25.6415C12.792 25.5896 12.6781 25.5135 12.5823 25.4176C12.4864 25.3218 12.4103 25.2079 12.3584 25.0827C12.3065 24.9574 12.2798 24.8231 12.2798 24.6875C12.2798 24.5519 12.3065 24.4176 12.3584 24.2924C12.4103 24.1671 12.4864 24.0533 12.5823 23.9574L18.0417 18.5L12.5823 13.0426C12.4862 12.9468 12.41 12.833 12.358 12.7078C12.3061 12.5825 12.2793 12.4482 12.2793 12.3125C12.2793 12.1769 12.3061 12.0426 12.358 11.9173C12.41 11.792 12.4862 11.6782 12.5823 11.5824Z" fill="#D84E32"/>
</g>
<defs>
<clipPath id="clip0_612_6961">
<rect width="33" height="33" fill="white" transform="translate(3 2)"/>
</clipPath>
</defs>
</svg>
