<svg width="55" height="66" viewBox="0 0 55 66" fill="none" xmlns="http://www.w3.org/2000/svg">
<path d="M49.26 22.11C51.7 20.57 53.54 18.23 54.45 15.49C54 14.78 53.3999 14.17 52.6799 13.72C50.0499 14.63 47.8 16.4 46.29 18.73C41.73 14.35 35.08 11.9 28.78 11.49C29.21 9.37002 29.2399 7.18001 28.8599 5.05001C31.7399 4.90001 34.5999 4.47999 37.3899 3.77999C37.5099 3.77999 37.5898 3.21003 37.5898 2.57003C37.5898 1.93003 37.5099 1.39 37.3899 1.35C30.2899 -0.45 22.86 -0.45 15.76 1.35C15.64 1.35 15.5498 1.9 15.5498 2.54C15.5498 3.18 15.64 3.7 15.76 3.72C18.55 4.41999 21.4 4.84997 24.26 5.00997C23.88 7.15997 23.9099 9.36997 24.3499 11.51C18.6599 12.04 13.3398 14.56 9.31982 18.62C9.05982 18.86 8.84986 19.12 8.60986 19.36C7.13986 16.68 4.69003 14.67 1.78003 13.74C1.41003 13.94 1.0798 14.21 0.799805 14.53C0.489805 14.8 0.22 15.11 0 15.46C1 18.48 3.16001 20.98 6.01001 22.41C3.09001 26.61 1.47989 31.58 1.38989 36.69C1.38989 37.53 1.86 38.18 2.5 38.18C3.2 38.1 3.73 37.52 3.75 36.82V36.61C4.36 30.6 7.26986 25.06 11.8599 21.14C16.3399 17.29 22.14 15.33 28.04 15.65C40.47 16.28 50.0499 26.87 49.4199 39.3C48.8299 50.93 39.4799 60.2 27.8499 60.69C21.9599 60.96 16.2 58.96 11.75 55.1C7.18 51.13 4.31 45.55 3.75 39.53C3.72 38.82 3.16996 38.24 2.45996 38.18C1.81996 38.18 1.31982 38.82 1.31982 39.67V39.9C1.54982 46.73 4.45993 53.19 9.42993 57.89C20.2899 68 37.2899 67.4 47.3999 56.54C56.2599 47.03 57.04 32.54 49.25 22.14L49.26 22.11Z" fill="white"/>
<path d="M26.3097 42.0699C31.1497 41.9899 35.9799 41.4999 40.7499 40.6299C40.9199 40.6299 41.04 40.0199 41.04 39.3399C41.04 38.6599 40.9099 38.0799 40.7499 38.0399C36.8699 37.3599 32.9499 36.9499 29.0199 36.7999C28.9599 31.8299 28.4798 26.8699 27.5898 21.9799C27.5898 21.8099 26.9997 21.6899 26.3197 21.6899C25.6397 21.6899 25.0797 21.8199 25.0597 21.9799C24.0097 27.6999 23.5298 33.5099 23.6198 39.3199V39.3999C23.6198 40.8799 24.82 42.0699 26.29 42.0699C26.29 42.0799 26.2997 42.0799 26.3097 42.0699Z" fill="white"/>
</svg>
