<svg width="66" height="59" viewBox="0 0 66 59" fill="none" xmlns="http://www.w3.org/2000/svg">
<path d="M65.4842 7.55599C65.4442 7.11599 65.3638 6.68619 65.2538 6.25619C64.5138 3.45619 62.3138 1.28603 59.5038 0.596034C55.2038 -0.443966 50.864 2.17615 49.784 6.46615C49.654 7.01615 49.5841 7.58584 49.5741 8.14584V12.326L49.4745 23.9159L49.3544 48.806V49.6058C49.3644 49.7958 49.3443 49.9959 49.3143 50.1859C49.2643 50.5659 49.174 50.946 49.034 51.306C48.444 52.806 47.1238 53.9059 45.5438 54.2259C44.7738 54.3859 43.9745 54.3661 43.2245 54.1561C42.4645 53.9461 41.774 53.5459 41.204 52.9959C40.334 52.1759 39.8346 51.0561 39.8046 49.8661V45.0858C39.8046 44.0658 38.9737 43.2459 37.9637 43.2459C29.2537 43.2459 20.6141 43.276 12.3641 43.326C12.6241 39.536 12.8237 34.2962 12.9637 28.2762C13.0337 24.9162 13.0937 21.2958 13.1337 17.5658L13.1737 11.8958V8.34603C13.1737 8.17603 13.1837 7.99601 13.2137 7.82601C13.2537 7.47601 13.3437 7.14576 13.4637 6.81576C13.9437 5.48576 14.9846 4.43613 16.3046 3.94613C16.4646 3.87613 16.6238 3.82598 16.7938 3.78598C16.9538 3.73598 17.1238 3.70588 17.2938 3.68588C17.6838 3.63588 18.0737 3.60605 18.4637 3.61605H21.284C25.014 3.57605 28.624 3.51588 31.994 3.43588C38.724 3.27588 44.4946 3.03592 48.3446 2.72592C48.6146 2.72592 48.8138 2.26619 48.7938 1.75619C48.7738 1.24619 48.5846 0.946112 48.3446 0.926112C44.5146 0.606112 38.734 0.376151 31.994 0.216151C28.634 0.0861512 25.024 0.0861903 21.284 0.00619028H18.4745C17.9145 -0.0138097 17.3546 0.0160145 16.8046 0.0760145C16.5046 0.116014 16.2042 0.165936 15.9042 0.245936C15.6042 0.315936 15.3143 0.405956 15.0243 0.515956C12.6843 1.36596 10.8342 3.216 9.98424 5.55599C9.76424 6.13599 9.61381 6.73603 9.54381 7.34603C9.50381 7.64603 9.47448 7.95596 9.47448 8.26596V11.9159L9.52428 17.576C9.56428 21.306 9.6142 24.916 9.6942 28.286C9.8342 34.336 10.0338 39.5558 10.2938 43.3358L1.70397 43.3861C0.773969 43.3761 0.0137732 44.1162 0.00377317 45.0462C0.00377317 45.0562 0.00377317 45.066 0.00377317 45.076V48.9559C-0.0162268 49.6959 0.043695 50.4359 0.173695 51.1659C0.333695 51.9359 0.593734 52.6861 0.963734 53.3861C2.41373 56.1461 5.30393 57.8362 8.41393 57.7562L22.0038 57.5858C29.2738 57.4758 35.6539 57.3461 40.8339 57.1961C41.2639 57.4061 41.7137 57.5862 42.1737 57.7162C46.3637 58.9062 50.7741 56.6958 52.3241 52.6258C52.5741 51.9758 52.7441 51.2958 52.8241 50.6058C52.8741 50.2658 52.8744 49.9358 52.8944 49.5858V48.7762L52.7743 23.8861L52.6844 13.7962C55.3744 13.8862 58.6145 13.966 64.2245 14.036C64.8545 14.046 65.3637 13.5459 65.3837 12.9159V12.8758L65.4745 8.73617C65.5245 8.34617 65.5242 7.956 65.4842 7.55599ZM21.994 54.7962L8.42369 54.6161H7.70397C7.47397 54.5861 7.25405 54.5462 7.03405 54.4862C6.59405 54.3562 6.16405 54.1558 5.78405 53.8958C4.98405 53.4158 4.32416 52.7158 3.90416 51.8758C3.69416 51.4458 3.54373 50.9962 3.46373 50.5262C3.38373 49.9962 3.3644 49.4659 3.3944 48.9359V46.766C13.6544 46.836 24.8046 46.8758 36.0946 46.8958V50.0462C36.1746 51.9162 36.8841 53.696 38.1141 55.096C33.5041 54.996 28.054 54.8862 21.994 54.7962ZM52.6737 8.22592C52.6737 7.88592 52.7138 7.5359 52.7938 7.2059C53.0938 5.8659 53.9246 4.71594 55.0946 3.99594C57.3846 2.59594 60.364 3.18578 61.954 5.33578C62.314 5.82578 62.5945 6.36613 62.7645 6.94613C62.8545 7.22613 62.9137 7.51576 62.9637 7.81576C62.9637 8.11576 63.0145 8.37621 63.0145 8.77621L63.0839 11.7762C58.1838 11.8462 55.2337 11.9262 52.7137 12.0062V8.83578C52.6737 8.62578 52.6537 8.42592 52.6737 8.22592Z" fill="white"/>
<path d="M27.624 20.3062C27.474 20.0562 27.2945 19.8262 27.0645 19.6362C25.6245 19.8662 23.2239 21.3764 21.4639 23.5264L21.2842 23.7461C20.6342 23.2461 19.8747 22.9064 19.0547 22.7764C18.8247 23.0064 18.6339 23.2759 18.5039 23.5659C18.3539 23.7959 18.2345 24.0559 18.1445 24.3159C18.4745 24.8759 18.9843 25.5359 19.4443 26.3359C19.5643 26.5359 19.6742 26.7363 19.7842 26.9463L19.9346 27.2661L19.9746 27.3462L22.9541 27.4761L22.9844 27.436L23.124 27.2661L24.2539 25.9263C25.6339 24.4263 26.924 22.836 28.084 21.166C27.984 20.866 27.824 20.5762 27.624 20.3062Z" fill="white"/>
<path d="M43.7944 22.5161C41.4744 21.2761 34.4748 21.2861 32.1548 22.5161C32.0848 22.8361 32.0645 23.1563 32.0845 23.4863C32.0645 23.7663 32.0848 24.0459 32.1548 24.3159C34.4748 25.5759 41.4744 25.5759 43.7944 24.3159C43.8644 23.9959 43.8847 23.6562 43.8647 23.3262C43.8847 23.0562 43.8544 22.7761 43.7944 22.5161Z" fill="white"/>
<path d="M27.624 9.75635C27.474 9.50635 27.2945 9.27594 27.0645 9.08594C25.6245 9.31594 23.2239 10.8261 21.4639 12.9761L21.2842 13.1963C20.6342 12.6963 19.8747 12.3561 19.0547 12.2261C18.8247 12.4561 18.6339 12.7261 18.5039 13.0161C18.3539 13.2461 18.2345 13.5061 18.1445 13.7661C18.4745 14.3261 18.9843 14.9861 19.4443 15.7861C19.5643 15.9861 19.6742 16.186 19.7842 16.396L19.9346 16.7163L19.9746 16.7964L22.9541 16.9263L22.9844 16.8862L23.124 16.7163L24.2539 15.3662C25.6339 13.8662 26.924 12.276 28.084 10.606C27.984 10.316 27.824 10.0263 27.624 9.75635Z" fill="white"/>
<path d="M43.7944 11.956C41.4744 10.716 34.4748 10.726 32.1548 11.956C32.0848 12.276 32.0645 12.5963 32.0845 12.9263C32.0645 13.2063 32.0848 13.4863 32.1548 13.7563C34.4748 15.0163 41.4744 15.0163 43.7944 13.7563C43.8644 13.4263 43.8847 13.0961 43.8647 12.7661C43.8847 12.4961 43.8544 12.226 43.7944 11.956Z" fill="white"/>
<path d="M22.9844 38.0361L23.0146 37.9961L23.1543 37.8262L24.2842 36.4761C25.6642 34.9761 26.9443 33.3863 28.1143 31.7163C27.9943 31.4063 27.8243 31.1162 27.6143 30.8662C27.4643 30.6162 27.2847 30.3863 27.0547 30.1963C25.6147 30.4263 23.2141 31.9359 21.4541 34.0859L21.2842 34.3062C20.6342 33.8062 19.8647 33.4659 19.0547 33.3359C18.8247 33.5659 18.6339 33.836 18.5039 34.126C18.3539 34.356 18.2345 34.616 18.1445 34.876C18.4745 35.436 18.9843 36.096 19.4443 36.896C19.5543 37.096 19.6742 37.2963 19.7842 37.5063L19.9346 37.8262L19.9746 37.9062L22.9541 38.0361H22.9844Z" fill="white"/>
<path d="M32.1548 33.0859C32.0848 33.4059 32.0645 33.7261 32.0845 34.0561C32.0645 34.3361 32.0848 34.6162 32.1548 34.8862C34.4748 36.1462 41.4744 36.1462 43.7944 34.8862C43.8644 34.5662 43.8847 34.226 43.8647 33.896C43.8847 33.606 43.8644 33.3161 43.7944 33.0361C41.5044 31.8161 34.4748 31.8259 32.1548 33.0859Z" fill="white"/>
</svg>
