<svg width="66" height="68" viewBox="0 0 66 68" fill="none" xmlns="http://www.w3.org/2000/svg">
<path d="M1.89697 33.4634C2.22228 33.5634 2.56661 33.6035 2.91164 33.5835C3.20737 33.6035 3.50372 33.5732 3.7896 33.4932C4.51908 31.7932 4.82413 28.0934 4.71569 24.7134C4.98186 24.8234 5.24832 24.9232 5.52434 24.9932C6.14539 25.1432 6.78584 25.2034 7.42659 25.1934H8.94474L12.0012 25.2134C16.1317 25.2534 20.4397 25.2734 24.7278 25.2734C33.3041 25.2734 41.8706 25.1935 49.3724 25.0435L52.1228 24.9834C52.4579 24.9534 52.7929 24.9534 53.1182 24.9834C53.3843 25.0334 53.6402 25.1234 53.8768 25.2534C54.3598 25.5134 54.7441 25.9133 54.9906 26.4033C55.1089 26.6433 55.1983 26.8933 55.2476 27.1533C55.2673 27.2933 55.2868 27.4235 55.2967 27.5635V28.1533C55.415 31.1433 55.5426 33.7333 55.6904 35.8633C51.9445 36.0133 48.721 36.1933 46.365 36.4233C46.1383 36.4233 45.9515 36.9131 45.9712 37.4531C45.9811 37.9931 46.158 38.3233 46.365 38.3433C49.6674 38.6633 54.6263 38.9032 60.4326 39.0332C60.9255 39.0332 60.8469 39.0333 60.9553 39.0933C61.1032 39.1633 61.2109 39.3131 61.2307 39.4731V40.2734L61.1517 45.0635V48.9233V48.9634C61.1517 48.9934 61.1517 49.0135 61.1517 49.0435C61.1221 49.0935 61.073 49.1331 61.0237 49.1631C60.9941 49.1631 60.9743 49.1631 60.9447 49.1631H58.2444C54.9223 49.1631 51.6195 49.1631 48.4059 49.2231H46.0791C45.4975 49.2631 44.9062 49.2032 44.3443 49.0532C43.26 48.6732 42.3237 47.9532 41.6633 47.0132C40.4803 45.2332 40.4603 42.9033 41.594 41.0933C42.5107 39.6133 44.0194 38.6133 45.7248 38.3433C45.922 38.3433 46.0793 37.8435 46.0694 37.3135C46.0596 36.7835 45.8721 36.4831 45.6256 36.4731C44.5511 36.4431 43.4866 36.6535 42.5008 37.0835C41.2883 37.6135 40.2341 38.4434 39.4356 39.5034C38.9822 40.0934 38.6075 40.7534 38.3314 41.4434C38.0456 42.1934 37.8577 42.9734 37.7789 43.7734C37.6211 45.5334 38.0252 47.2932 38.9321 48.8032C40.4601 51.2932 43.1022 52.8632 45.9905 52.9932H48.4752C50.8312 52.9932 53.295 53.0432 55.6904 53.0532C55.4539 54.6832 55.267 56.8432 55.1388 59.3032L55.0801 60.4434V61.0034C55.0702 61.1234 55.05 61.2335 55.0204 61.3535C54.9218 61.8035 54.7053 62.2232 54.3899 62.5532C54.0744 62.8932 53.66 63.1432 53.2164 63.2432C53.1079 63.2732 52.99 63.2932 52.8717 63.3032H51.0869C45.4778 63.2032 39.8596 63.5332 34.2997 64.2832C34.1814 64.2832 34.0925 64.7635 34.1024 65.2935C34.1123 65.8235 34.1913 66.1431 34.2997 66.1631C39.8596 66.9231 45.4778 67.2531 51.0869 67.1431H52.3394C52.6154 67.1431 52.8816 67.1333 53.1576 67.1133C53.4632 67.0733 53.7591 67.0134 54.0549 66.9434C56.677 66.2434 58.481 63.8235 58.4514 61.0835V60.4731L58.3917 59.3335C58.2636 56.8835 58.0767 54.7233 57.8401 53.0933H61.2114C61.3987 53.0733 61.5959 53.0434 61.7832 53.0034C62.9267 52.7334 63.9029 51.9631 64.445 50.9131C64.7211 50.4031 64.8785 49.8334 64.9081 49.2534V45.1035L64.8291 40.3135V39.3032C64.8094 39.1332 64.7896 38.9532 64.7502 38.7832C64.6023 38.1132 64.2865 37.4831 63.8231 36.9731C63.3795 36.4731 62.8185 36.0933 62.1876 35.8833C61.6552 35.7133 61.0934 35.6431 60.5414 35.6831L57.7409 35.7632C57.8888 33.6732 58.0272 31.0735 58.1356 28.0835V27.4932C58.1554 27.2332 58.1554 26.9734 58.1356 26.7134C58.0469 26.1834 57.8892 25.6633 57.6427 25.1733C56.9428 23.5233 55.5229 22.3035 53.7978 21.8735C53.2556 21.7435 52.6943 21.6833 52.1324 21.6733H51.935C51.9548 21.4833 51.9842 21.3035 52.0236 21.1235C52.0827 20.7235 52.1418 20.3035 52.1911 19.8535L52.2604 19.1631V18.8032C52.2703 18.6532 52.2703 18.5035 52.2604 18.3535C52.2506 16.7935 51.5502 15.3133 50.3476 14.3433C49.7167 13.8433 48.9873 13.4835 48.2085 13.3135C48.0015 13.3135 47.7946 13.2331 47.5876 13.2231C47.3806 13.2131 47.1338 13.2231 47.0254 13.2231H46.2081C42.8465 13.1631 39.4846 13.4134 36.1625 13.9634C33.9347 11.5134 31.46 8.9235 28.9463 6.3335C28.207 5.5835 27.0142 5.5835 26.2749 6.3335C23.6921 8.9935 21.1195 11.6733 18.8719 14.1533C16.8116 14.0033 14.2092 13.8632 11.2715 13.7432L8.88601 13.6533L7.64416 13.6133H7.01264C6.73662 13.6033 6.45113 13.6131 6.17511 13.6431C4.95274 13.7831 3.8092 14.3331 2.93185 15.2031C1.99536 16.1231 1.40393 17.3331 1.2462 18.6431C1.16734 19.3331 1.21651 20.0234 1.37424 20.6934C0.684193 24.5834 0.861903 31.0334 1.89697 33.4634ZM46.2273 17.0635H47.4894C47.7358 17.1135 47.9628 17.2033 48.1796 17.3433C48.6232 17.6333 48.928 18.0835 49.0364 18.6035C49.0561 18.6935 49.0759 18.7835 49.0759 18.8735V19.2334L49.1452 19.9233C49.1945 20.3733 49.2437 20.7934 49.3127 21.1934C49.3226 21.3634 49.3522 21.5231 49.3916 21.6831H49.3425C47.2133 21.6331 44.9852 21.6035 42.6981 21.5635C41.6335 20.1635 40.2342 18.5433 38.5683 16.6733C41.1214 16.9433 43.6741 17.0735 46.2273 17.0635ZM27.6553 10.4634C31.8745 14.7434 36.094 18.7534 39.3471 21.5234C34.6252 21.4634 29.7159 21.4434 24.7673 21.4434H16.0127C19.2165 18.7034 23.4266 14.6831 27.6457 10.4531L27.6553 10.4634ZM5.12965 17.4834C5.49438 17.0834 5.9778 16.8031 6.51013 16.7031C6.65799 16.6731 6.80605 16.6633 6.95392 16.6533H7.58447L8.82633 16.6133L11.2128 16.5234C13.3421 16.4434 15.2741 16.3434 16.9696 16.2334C15.1656 18.2434 13.6273 20.0532 12.4739 21.5132H12.0205L8.93511 21.5435H7.40734C7.0426 21.5735 6.68811 21.5532 6.32337 21.4932C5.77133 21.3732 5.27805 21.0435 4.94289 20.5835C4.61758 20.1135 4.45003 19.5534 4.48947 18.9834C4.5289 18.4234 4.75505 17.8934 5.12965 17.4834Z" fill="white"/>
<path d="M48.4153 44.3233C48.4153 45.4733 47.4985 46.4034 46.3648 46.4034C45.2312 46.4034 44.3143 45.4733 44.3143 44.3233C44.3143 43.1733 45.2312 42.2432 46.3648 42.2432C47.4985 42.2332 48.4153 43.1733 48.4153 44.3233Z" fill="white"/>
<path d="M2.92166 56.9129C3.56242 57.2629 4.43973 57.6033 5.34665 58.0833C7.30835 59.1233 8.91533 60.743 9.94054 62.743C10.4334 63.673 10.7481 64.5532 11.0832 65.1932C11.4184 65.2732 11.7637 65.2933 12.0989 65.2733C12.3946 65.3033 12.691 65.2632 12.9768 65.1732C13.3416 64.0232 13.3806 62.7934 13.075 61.6234C12.2765 58.3134 9.7234 55.7329 6.46046 54.9329C5.3071 54.6229 4.09478 54.663 2.96113 55.053C2.87241 55.373 2.84299 55.713 2.87256 56.053C2.85285 56.333 2.86251 56.6329 2.92166 56.9129Z" fill="white"/>
<path d="M2.99037 48.9434C4.67605 49.3534 6.34229 49.8935 7.94912 50.5635C12.1683 52.3935 15.5296 55.8135 17.3237 60.1035C17.9743 61.7235 18.4976 63.4035 18.8919 65.1035C18.8919 65.1935 19.3841 65.2634 19.9065 65.2534C20.4389 65.2434 20.7641 65.1735 20.7739 65.0835C21.1288 63.0435 21.0013 60.9434 20.4196 58.9634C18.8325 53.3734 14.5244 49.0031 9.01384 47.4131C7.05213 46.8231 4.99173 46.7035 2.98074 47.0635C2.88216 47.0635 2.81323 47.5235 2.81323 48.0635C2.81323 48.6135 2.92136 48.9434 2.99037 48.9434Z" fill="white"/>
<path d="M21.7707 46.0732C18.9317 43.2332 15.4612 41.1233 11.6462 39.9233C8.87618 39.0433 5.94844 38.7633 3.0601 39.1133C2.92209 39.1133 2.81416 39.5735 2.83387 40.1035C2.85359 40.6335 2.93218 40.9531 3.05048 40.9731C5.61351 41.4031 8.12687 42.1135 10.542 43.0635C17.0088 45.6735 22.1453 50.8731 24.7281 57.4331C25.6744 59.8831 26.3643 62.4334 26.7882 65.0234C26.7882 65.1534 27.2811 65.2534 27.8134 65.2534C28.3458 65.2534 28.671 65.1332 28.6808 65.0132C29.0061 62.0832 28.7199 59.1235 27.8327 56.3135C26.6596 52.4635 24.5802 48.9432 21.7707 46.0732Z" fill="white"/>
<path d="M60.2947 3.94336C58.4217 4.00336 55.5229 6.9335 55.4736 8.8335C55.6806 9.1035 55.9078 9.3535 56.1542 9.5835C56.3514 9.8035 56.5684 10.0031 56.805 10.1831C58.6583 10.1231 61.5561 7.17346 61.6251 5.29346C61.4181 5.03346 61.191 4.78322 60.9445 4.55322C60.7474 4.33322 60.5313 4.12336 60.2947 3.94336Z" fill="white"/>
<path d="M59.0324 17.3931C59.0225 17.6931 59.0324 17.9933 59.0718 18.2833C60.3829 19.5733 64.3551 19.5533 65.6662 18.2833C65.7056 17.9533 65.7155 17.6135 65.7056 17.2735C65.7155 16.9735 65.7056 16.6734 65.6662 16.3834C64.3551 15.0734 60.3829 15.0734 59.0718 16.3834C59.0423 16.7234 59.0225 17.0531 59.0324 17.3931Z" fill="white"/>
<path d="M48.7012 6.77362C48.997 6.78362 49.2933 6.77358 49.5792 6.73358C50.8508 5.40358 50.8311 1.37364 49.5792 0.0436404C49.2539 0.00364036 48.9187 -0.0063987 48.5934 0.0036013C48.3075 -0.0063987 48.0215 0.0136404 47.7357 0.0436404C46.4048 1.37364 46.4048 5.40358 47.6962 6.73358C48.0313 6.76358 48.3661 6.78362 48.7012 6.77362Z" fill="white"/>
</svg>
