<svg width="21" height="21" viewBox="0 0 21 21" fill="none" xmlns="http://www.w3.org/2000/svg">
<rect width="21" height="21" rx="4" fill="#F6EAFC"/>
<g clip-path="url(#clip0_515_4187)">
<path d="M8.53132 9.78735C8.42689 9.78735 8.32674 9.82884 8.2529 9.90268C8.17906 9.97652 8.13757 10.0767 8.13757 10.1811C8.13757 10.2855 8.17906 10.3857 8.2529 10.4595C8.32674 10.5334 8.42689 10.5749 8.53132 10.5749H12.4688C12.5733 10.5749 12.6734 10.5334 12.7472 10.4595C12.8211 10.3857 12.8626 10.2855 12.8626 10.1811C12.8626 10.0767 12.8211 9.97652 12.7472 9.90268C12.6734 9.82884 12.5733 9.78735 12.4688 9.78735H8.53132ZM8.13757 11.7561C8.13757 11.6517 8.17906 11.5515 8.2529 11.4777C8.32674 11.4038 8.42689 11.3624 8.53132 11.3624H12.4688C12.5733 11.3624 12.6734 11.4038 12.7472 11.4777C12.8211 11.5515 12.8626 11.6517 12.8626 11.7561C12.8626 11.8605 12.8211 11.9607 12.7472 12.0345C12.6734 12.1084 12.5733 12.1499 12.4688 12.1499H8.53132C8.42689 12.1499 8.32674 12.1084 8.2529 12.0345C8.17906 11.9607 8.13757 11.8605 8.13757 11.7561ZM8.13757 13.3311C8.13757 13.2267 8.17906 13.1265 8.2529 13.0527C8.32674 12.9788 8.42689 12.9374 8.53132 12.9374H10.1063C10.2108 12.9374 10.3109 12.9788 10.3847 13.0527C10.4586 13.1265 10.5001 13.2267 10.5001 13.3311C10.5001 13.4355 10.4586 13.5357 10.3847 13.6095C10.3109 13.6834 10.2108 13.7249 10.1063 13.7249H8.53132C8.42689 13.7249 8.32674 13.6834 8.2529 13.6095C8.17906 13.5357 8.13757 13.4355 8.13757 13.3311Z" fill="#7100D2"/>
<path d="M11.6813 4.2749H7.35002C6.93231 4.2749 6.5317 4.44084 6.23633 4.73621C5.94096 5.03158 5.77502 5.43219 5.77502 5.8499V15.2999C5.77502 15.7176 5.94096 16.1182 6.23633 16.4136C6.5317 16.709 6.93231 16.8749 7.35002 16.8749H13.65C14.0677 16.8749 14.4683 16.709 14.7637 16.4136C15.0591 16.1182 15.225 15.7176 15.225 15.2999V7.81865L11.6813 4.2749ZM11.6813 5.0624V6.6374C11.6813 6.95069 11.8057 7.25114 12.0273 7.47267C12.2488 7.6942 12.5492 7.81865 12.8625 7.81865H14.4375V15.2999C14.4375 15.5088 14.3546 15.7091 14.2069 15.8567C14.0592 16.0044 13.8589 16.0874 13.65 16.0874H7.35002C7.14117 16.0874 6.94086 16.0044 6.79318 15.8567C6.64549 15.7091 6.56252 15.5088 6.56252 15.2999V5.8499C6.56252 5.64104 6.64549 5.44074 6.79318 5.29306C6.94086 5.14537 7.14117 5.0624 7.35002 5.0624H11.6813Z" fill="#7100D2"/>
</g>
<defs>
<clipPath id="clip0_515_4187">
<rect width="12.6" height="12.6" fill="white" transform="translate(4.20007 4.2749)"/>
</clipPath>
</defs>
</svg>
