<svg width="21" height="21" viewBox="0 0 21 21" fill="none" xmlns="http://www.w3.org/2000/svg">
<rect width="21" height="21" rx="4" fill="#F6EAFC"/>
<path d="M9.58262 8.47026C9.58262 8.75744 9.46854 9.03286 9.26547 9.23593C9.0624 9.43899 8.78698 9.55308 8.4998 9.55308C8.21262 9.55308 7.93721 9.43899 7.73414 9.23593C7.53107 9.03286 7.41699 8.75744 7.41699 8.47026C7.41699 8.18308 7.53107 7.90767 7.73414 7.7046C7.93721 7.50153 8.21262 7.38745 8.4998 7.38745C8.78698 7.38745 9.0624 7.50153 9.26547 7.7046C9.46854 7.90767 9.58262 8.18308 9.58262 8.47026Z" fill="#7100D2"/>
<path d="M6.69509 5.22192C6.31219 5.22192 5.94496 5.37403 5.67421 5.64479C5.40345 5.91554 5.25134 6.28277 5.25134 6.66567V13.8844C5.25134 14.2673 5.40345 14.6346 5.67421 14.9053C5.94496 15.1761 6.31219 15.3282 6.69509 15.3282H15.3576C15.7405 15.3282 16.1077 15.1761 16.3785 14.9053C16.6492 14.6346 16.8013 14.2673 16.8013 13.8844V6.66567C16.8013 6.28277 16.6492 5.91554 16.3785 5.64479C16.1077 5.37403 15.7405 5.22192 15.3576 5.22192H6.69509ZM15.3576 5.9438C15.549 5.9438 15.7327 6.01985 15.868 6.15523C16.0034 6.29061 16.0795 6.47422 16.0795 6.66567V11.3579L13.3529 9.95237C13.2853 9.91846 13.2086 9.9067 13.1339 9.91874C13.0591 9.93079 12.99 9.96604 12.9364 10.0195L10.2583 12.6977L8.33808 11.4185C8.26875 11.3723 8.18559 11.3516 8.1027 11.3597C8.01982 11.3679 7.9423 11.4045 7.8833 11.4633L5.97322 13.1625V6.66567C5.97322 6.47422 6.04927 6.29061 6.18465 6.15523C6.32003 6.01985 6.50364 5.9438 6.69509 5.9438H15.3576Z" fill="#7100D2"/>
</svg>
