<svg width="21" height="21" viewBox="0 0 21 21" fill="none" xmlns="http://www.w3.org/2000/svg">
<rect width="21" height="21" rx="4" fill="#F6EAFC"/>
<path fill-rule="evenodd" clip-rule="evenodd" d="M4.19995 8.08505C4.19995 7.61164 4.3728 7.15762 4.68048 6.82286C4.98816 6.48811 5.40546 6.30005 5.84058 6.30005H11.9929C12.3908 6.3 12.7752 6.4573 13.0745 6.74266C13.3737 7.02803 13.5675 7.422 13.6196 7.85121L16.1708 6.61778C16.2956 6.55724 16.4324 6.53162 16.5687 6.54324C16.705 6.55486 16.8365 6.60336 16.9512 6.68433C17.0658 6.76529 17.1601 6.87615 17.2254 7.00684C17.2907 7.13753 17.3249 7.28389 17.325 7.43263V14.0925C17.3248 14.2411 17.2906 14.3873 17.2254 14.5179C17.1601 14.6485 17.066 14.7593 16.9514 14.8402C16.8368 14.9212 16.7055 14.9697 16.5693 14.9814C16.4331 14.9931 16.2964 14.9677 16.1716 14.9073L13.6196 13.6739C13.5675 14.1031 13.3737 14.4971 13.0745 14.7824C12.7752 15.0678 12.3908 15.2251 11.9929 15.225H5.84058C5.40546 15.225 4.98816 15.037 4.68048 14.7022C4.3728 14.3675 4.19995 13.9135 4.19995 13.44V8.08505ZM13.6335 12.7037L16.5046 14.0925V7.43263L13.6335 8.82136V12.7037ZM5.84058 7.19255C5.62302 7.19255 5.41437 7.28658 5.26053 7.45396C5.10669 7.62133 5.02026 7.84834 5.02026 8.08505V13.44C5.02026 13.6768 5.10669 13.9038 5.26053 14.0711C5.41437 14.2385 5.62302 14.3325 5.84058 14.3325H11.9929C12.2105 14.3325 12.4191 14.2385 12.573 14.0711C12.7268 13.9038 12.8132 13.6768 12.8132 13.44V8.08505C12.8132 7.84834 12.7268 7.62133 12.573 7.45396C12.4191 7.28658 12.2105 7.19255 11.9929 7.19255H5.84058Z" fill="#7100D2"/>
</svg>
