<svg width="19" height="13" viewBox="0 0 19 13" fill="none" xmlns="http://www.w3.org/2000/svg">
<path fill-rule="evenodd" clip-rule="evenodd" d="M0.472458 6.88646C0.472458 6.71109 0.541597 6.54291 0.664669 6.4189C0.787739 6.2949 0.95466 6.22524 1.12871 6.22524H16.607L12.4766 2.06483C12.4156 2.00336 12.3672 1.93037 12.3341 1.85005C12.3011 1.76972 12.2841 1.68363 12.2841 1.59669C12.2841 1.50975 12.3011 1.42365 12.3341 1.34333C12.3672 1.26301 12.4156 1.19002 12.4766 1.12854C12.5376 1.06707 12.61 1.0183 12.6898 0.985027C12.7695 0.951756 12.8549 0.934631 12.9412 0.934631C13.0275 0.934631 13.1129 0.951756 13.1927 0.985027C13.2724 1.0183 13.3448 1.06707 13.4058 1.12854L18.6558 6.41831C18.7169 6.47973 18.7654 6.5527 18.7985 6.63303C18.8316 6.71337 18.8486 6.79948 18.8486 6.88646C18.8486 6.97343 18.8316 7.05955 18.7985 7.13988C18.7654 7.22021 18.7169 7.29318 18.6558 7.3546L13.4058 12.6444C13.3448 12.7059 13.2724 12.7546 13.1927 12.7879C13.1129 12.8212 13.0275 12.8383 12.9412 12.8383C12.8549 12.8383 12.7695 12.8212 12.6898 12.7879C12.61 12.7546 12.5376 12.7059 12.4766 12.6444C12.4156 12.5829 12.3672 12.5099 12.3341 12.4296C12.3011 12.3493 12.2841 12.2632 12.2841 12.1762C12.2841 12.0893 12.3011 12.0032 12.3341 11.9229C12.3672 11.8425 12.4156 11.7696 12.4766 11.7081L16.607 7.54768H1.12871C0.95466 7.54768 0.787739 7.47802 0.664669 7.35401C0.541597 7.23001 0.472458 7.06182 0.472458 6.88646Z" fill="#949494"/>
</svg>
