<svg width="19" height="21" viewBox="0 0 19 21" fill="none" xmlns="http://www.w3.org/2000/svg">
<path fill-rule="evenodd" clip-rule="evenodd" d="M0.751126 15.3647C0.751126 15.5317 0.817492 15.692 0.935625 15.8101C1.05376 15.9282 1.21398 15.9946 1.38105 15.9946H16.2383L12.2736 19.9582C12.1553 20.0765 12.0889 20.237 12.0889 20.4043C12.0889 20.5715 12.1553 20.732 12.2736 20.8503C12.3919 20.9685 12.5523 21.035 12.7196 21.035C12.8869 21.035 13.0473 20.9685 13.1656 20.8503L18.2049 15.8107C18.2636 15.7521 18.3101 15.6826 18.3419 15.6061C18.3737 15.5296 18.39 15.4475 18.39 15.3647C18.39 15.2818 18.3737 15.1997 18.3419 15.1232C18.3101 15.0467 18.2636 14.9772 18.2049 14.9186L13.1656 9.87904C13.0473 9.76076 12.8869 9.6943 12.7196 9.6943C12.5523 9.6943 12.3919 9.76076 12.2736 9.87904C12.1553 9.99733 12.0889 10.1578 12.0889 10.325C12.0889 10.4923 12.1553 10.6528 12.2736 10.7711L16.2383 14.7347H1.38105C1.21398 14.7347 1.05376 14.8011 0.935625 14.9192C0.817492 15.0373 0.751126 15.1976 0.751126 15.3647ZM18.3889 6.54535C18.3889 6.71242 18.3225 6.87265 18.2044 6.99079C18.0862 7.10893 17.926 7.1753 17.759 7.1753H2.90167L6.86638 11.1389C6.92495 11.1975 6.97141 11.267 7.00311 11.3436C7.0348 11.4201 7.05112 11.5021 7.05112 11.5849C7.05112 11.6678 7.0348 11.7498 7.00311 11.8263C6.97141 11.9029 6.92495 11.9724 6.86638 12.031C6.80782 12.0895 6.73829 12.136 6.66177 12.1677C6.58524 12.1994 6.50323 12.2157 6.4204 12.2157C6.33758 12.2157 6.25556 12.1994 6.17904 12.1677C6.10252 12.136 6.03299 12.0895 5.97442 12.031L0.935063 6.99135C0.8764 6.93284 0.829858 6.86332 0.798102 6.78679C0.766346 6.71025 0.75 6.62821 0.75 6.54535C0.75 6.46249 0.766346 6.38044 0.798102 6.30391C0.829858 6.22738 0.8764 6.15786 0.935063 6.09934L5.97442 1.05974C6.0927 0.941453 6.25313 0.875 6.4204 0.875C6.58768 0.875 6.7481 0.941453 6.86638 1.05974C6.98467 1.17803 7.05112 1.33846 7.05112 1.50575C7.05112 1.67303 6.98467 1.83346 6.86638 1.95175L2.90167 5.9154H17.759C17.926 5.9154 18.0862 5.98177 18.2044 6.09991C18.3225 6.21804 18.3889 6.37827 18.3889 6.54535Z" fill="#949494"/>
</svg>
