<svg width="49" height="47" viewBox="0 0 49 47" fill="none" xmlns="http://www.w3.org/2000/svg">
<mask id="mask0_612_7044" style="mask-type:alpha" maskUnits="userSpaceOnUse" x="0" y="0" width="49" height="47">
<rect x="0.048584" width="48.1429" height="47" rx="4" fill="#D9D9D9"/>
</mask>
<g mask="url(#mask0_612_7044)">
<path d="M27.4062 7H16.75C15.7223 7 14.7367 7.40826 14.01 8.13496C13.2833 8.86166 12.875 9.84729 12.875 10.875V34.125C12.875 35.1527 13.2833 36.1383 14.01 36.865C14.7367 37.5917 15.7223 38 16.75 38H32.25C33.2777 38 34.2633 37.5917 34.99 36.865C35.7167 36.1383 36.125 35.1527 36.125 34.125V15.7187L27.4062 7ZM27.4062 8.9375V12.8125C27.4062 13.5833 27.7124 14.3225 28.2575 14.8675C28.8025 15.4126 29.5417 15.7187 30.3125 15.7187H34.1875V34.125C34.1875 34.6389 33.9834 35.1317 33.62 35.495C33.2567 35.8584 32.7639 36.0625 32.25 36.0625H16.75C16.2361 36.0625 15.7433 35.8584 15.38 35.495C15.0166 35.1317 14.8125 34.6389 14.8125 34.125V10.875C14.8125 10.3611 15.0166 9.86833 15.38 9.50498C15.7433 9.14163 16.2361 8.9375 16.75 8.9375H27.4062Z" fill="#595959"/>
<g clip-path="url(#clip0_612_7044)">
<path d="M21.5938 26.5364C21.5938 27.4285 20.6897 28.151 19.5756 28.151C18.4615 28.151 17.5574 27.4285 17.5574 26.5364C17.5574 25.6452 18.4615 24.9218 19.5756 24.9218C20.6897 24.9218 21.5938 25.6452 21.5938 26.5364ZM28.8595 24.9218C28.8595 25.8139 27.9553 26.5364 26.8412 26.5364C25.7272 26.5364 24.823 25.8139 24.823 24.9218C24.823 24.0298 25.7272 23.3073 26.8412 23.3073C27.9553 23.3073 28.8595 24.0298 28.8595 24.9218Z" fill="#595959"/>
<path fill-rule="evenodd" clip-rule="evenodd" d="M28.052 24.9219V17.6562H28.8593V24.9219H28.052ZM21.5937 18.4635V26.5365H20.7864V18.4635H21.5937Z" fill="#595959"/>
<path d="M20.7864 18.3869C20.7864 18.1867 20.8607 17.9937 20.995 17.8453C21.1292 17.6969 21.3138 17.6036 21.5129 17.5836L27.9713 16.9378C28.0835 16.9265 28.1969 16.9389 28.3041 16.9741C28.4113 17.0093 28.5099 17.0666 28.5936 17.1423C28.6772 17.218 28.7441 17.3104 28.7899 17.4135C28.8356 17.5166 28.8593 17.6282 28.8593 17.741V18.4635L20.7864 19.2708V18.3869Z" fill="#595959"/>
</g>
<rect x="14.1667" y="31.5416" width="20.6667" height="5.16667" fill="#595959"/>
<path d="M19.8723 32.6979H20.3997L21.0833 34.7311L21.7649 32.6979H22.2922L21.2961 35.5416H20.8684L19.8723 32.6979ZM19.5676 32.6979H20.1047L20.2043 34.8053V35.5416H19.5676V32.6979ZM22.0598 32.6979H22.5989V35.5416H21.9602V34.8053L22.0598 32.6979ZM24.1926 34.5533H23.4778V34.0592H24.1926C24.2981 34.0592 24.3827 34.0416 24.4465 34.0065C24.5116 33.9713 24.5592 33.9231 24.5891 33.8619C24.6204 33.7994 24.636 33.7291 24.636 33.651C24.636 33.5703 24.6204 33.4954 24.5891 33.4264C24.5592 33.3561 24.5116 33.2994 24.4465 33.2565C24.3827 33.2135 24.2981 33.192 24.1926 33.192H23.7083V35.5416H23.0715V32.6979H24.1926C24.4192 32.6979 24.6132 32.7389 24.7747 32.8209C24.9374 32.903 25.0618 33.0156 25.1477 33.1588C25.2349 33.3007 25.2786 33.4635 25.2786 33.6471C25.2786 33.8307 25.2349 33.9902 25.1477 34.1256C25.0618 34.261 24.9374 34.3665 24.7747 34.442C24.6132 34.5162 24.4192 34.5533 24.1926 34.5533ZM26.2043 33.86H26.5149C26.6034 33.86 26.6764 33.8444 26.7336 33.8131C26.7922 33.7819 26.8352 33.7376 26.8625 33.6803C26.8912 33.623 26.9055 33.5559 26.9055 33.4791C26.9055 33.4127 26.8925 33.3535 26.8665 33.3014C26.8404 33.2493 26.8007 33.2083 26.7473 33.1783C26.6952 33.1471 26.6275 33.1315 26.5442 33.1315C26.4843 33.1315 26.427 33.1438 26.3723 33.1686C26.3189 33.192 26.2753 33.2265 26.2415 33.2721C26.2076 33.3164 26.1907 33.3698 26.1907 33.4323H25.5793C25.5793 33.2734 25.6223 33.136 25.7083 33.0201C25.7955 32.9043 25.9107 32.8151 26.054 32.7526C26.1985 32.6888 26.356 32.6569 26.5266 32.6569C26.7232 32.6569 26.8958 32.6881 27.0442 32.7506C27.1939 32.8118 27.3098 32.903 27.3918 33.024C27.4752 33.1438 27.5168 33.2923 27.5168 33.4694C27.5168 33.5618 27.4947 33.651 27.4504 33.7369C27.4075 33.8216 27.3456 33.8971 27.2649 33.9635C27.1855 34.0286 27.0904 34.0807 26.9797 34.1198C26.8704 34.1575 26.7486 34.1764 26.6145 34.1764H26.2043V33.86ZM26.2043 34.319V34.0084H26.6145C26.7629 34.0084 26.8958 34.0253 27.0129 34.0592C27.1301 34.0931 27.2297 34.1419 27.3118 34.2057C27.3938 34.2695 27.4563 34.347 27.4993 34.4381C27.5422 34.5293 27.5637 34.6308 27.5637 34.7428C27.5637 34.8756 27.5377 34.9941 27.4856 35.0983C27.4335 35.2024 27.3606 35.2903 27.2668 35.3619C27.1731 35.4336 27.0631 35.4882 26.9368 35.526C26.8105 35.5625 26.6737 35.5807 26.5266 35.5807C26.4081 35.5807 26.2903 35.5644 26.1731 35.5319C26.0559 35.4993 25.9498 35.4498 25.8547 35.3834C25.7597 35.3157 25.6835 35.2304 25.6262 35.1276C25.5689 35.0234 25.5403 34.8997 25.5403 34.7565H26.1516C26.1516 34.8229 26.1685 34.8828 26.2024 34.9362C26.2375 34.9882 26.2851 35.0299 26.345 35.0612C26.4062 35.0911 26.4726 35.1061 26.5442 35.1061C26.6301 35.1061 26.703 35.0905 26.7629 35.0592C26.8241 35.0267 26.8704 34.9824 26.9016 34.9264C26.9342 34.8704 26.9504 34.8059 26.9504 34.733C26.9504 34.6341 26.9329 34.5546 26.8977 34.4948C26.8639 34.4336 26.8144 34.3893 26.7493 34.3619C26.6842 34.3333 26.606 34.319 26.5149 34.319H26.2043Z" fill="white"/>
</g>
<defs>
<clipPath id="clip0_612_7044">
<rect width="12.9167" height="12.9167" fill="white" transform="translate(16.75 16.0416)"/>
</clipPath>
</defs>
</svg>
