<svg width="28" height="28" viewBox="0 0 28 28" fill="none" xmlns="http://www.w3.org/2000/svg">
<path d="M16.625 0H7C6.07174 0 5.1815 0.368749 4.52513 1.02513C3.86875 1.6815 3.5 2.57174 3.5 3.5V24.5C3.5 25.4283 3.86875 26.3185 4.52513 26.9749C5.1815 27.6312 6.07174 28 7 28H21C21.9283 28 22.8185 27.6312 23.4749 26.9749C24.1312 26.3185 24.5 25.4283 24.5 24.5V7.875L16.625 0ZM16.625 1.75V5.25C16.625 5.94619 16.9016 6.61387 17.3938 7.10616C17.8861 7.59844 18.5538 7.875 19.25 7.875H22.75V24.5C22.75 24.9641 22.5656 25.4092 22.2374 25.7374C21.9092 26.0656 21.4641 26.25 21 26.25H7C6.53587 26.25 6.09075 26.0656 5.76256 25.7374C5.43437 25.4092 5.25 24.9641 5.25 24.5V3.5C5.25 3.03587 5.43437 2.59075 5.76256 2.26256C6.09075 1.93437 6.53587 1.75 7 1.75H16.625Z" fill="#595959"/>
<g clip-path="url(#clip0_338_3366)">
<path d="M11.3751 17.6458C11.3751 18.4515 10.5584 19.1041 9.55216 19.1041C8.54591 19.1041 7.72925 18.4515 7.72925 17.6458C7.72925 16.8408 8.54591 16.1875 9.55216 16.1875C10.5584 16.1875 11.3751 16.8408 11.3751 17.6458ZM17.9376 16.1875C17.9376 16.9932 17.1209 17.6458 16.1147 17.6458C15.1084 17.6458 14.2917 16.9932 14.2917 16.1875C14.2917 15.3817 15.1084 14.7291 16.1147 14.7291C17.1209 14.7291 17.9376 15.3817 17.9376 16.1875Z" fill="#595959"/>
<path fill-rule="evenodd" clip-rule="evenodd" d="M17.2083 16.1875V9.625H17.9374V16.1875H17.2083ZM11.3749 10.3542V17.6458H10.6458V10.3542H11.3749Z" fill="#595959"/>
<path d="M10.6458 10.2848C10.6457 10.104 10.7129 9.92971 10.8342 9.79565C10.9554 9.66159 11.1221 9.57735 11.302 9.55928L17.1353 8.97595C17.2367 8.96575 17.3391 8.97693 17.4359 9.00875C17.5328 9.04057 17.6218 9.09233 17.6974 9.1607C17.773 9.22906 17.8334 9.3125 17.8747 9.40564C17.9161 9.49879 17.9374 9.59956 17.9374 9.70147V10.3541L10.6458 11.0832V10.2848Z" fill="#595959"/>
</g>
<rect x="4.66675" y="22.1666" width="18.6667" height="4.66667" fill="#595959"/>
<path d="M9.87231 23.3229H10.3997L11.0833 25.3561L11.7649 23.3229H12.2922L11.2961 26.1666H10.8684L9.87231 23.3229ZM9.56763 23.3229H10.1047L10.2043 25.4303V26.1666H9.56763V23.3229ZM12.0598 23.3229H12.5989V26.1666H11.9602V25.4303L12.0598 23.3229ZM14.1926 25.1783H13.4778V24.6842H14.1926C14.2981 24.6842 14.3827 24.6666 14.4465 24.6315C14.5116 24.5963 14.5592 24.5481 14.5891 24.4869C14.6204 24.4244 14.636 24.3541 14.636 24.276C14.636 24.1953 14.6204 24.1204 14.5891 24.0514C14.5592 23.9811 14.5116 23.9244 14.4465 23.8815C14.3827 23.8385 14.2981 23.817 14.1926 23.817H13.7083V26.1666H13.0715V23.3229H14.1926C14.4192 23.3229 14.6132 23.3639 14.7747 23.4459C14.9374 23.528 15.0618 23.6406 15.1477 23.7838C15.2349 23.9257 15.2786 24.0885 15.2786 24.2721C15.2786 24.4557 15.2349 24.6152 15.1477 24.7506C15.0618 24.886 14.9374 24.9915 14.7747 25.067C14.6132 25.1412 14.4192 25.1783 14.1926 25.1783ZM16.2043 24.485H16.5149C16.6034 24.485 16.6764 24.4694 16.7336 24.4381C16.7922 24.4069 16.8352 24.3626 16.8625 24.3053C16.8912 24.248 16.9055 24.1809 16.9055 24.1041C16.9055 24.0377 16.8925 23.9785 16.8665 23.9264C16.8404 23.8743 16.8007 23.8333 16.7473 23.8033C16.6952 23.7721 16.6275 23.7565 16.5442 23.7565C16.4843 23.7565 16.427 23.7688 16.3723 23.7936C16.3189 23.817 16.2753 23.8515 16.2415 23.8971C16.2076 23.9414 16.1907 23.9948 16.1907 24.0573H15.5793C15.5793 23.8984 15.6223 23.761 15.7083 23.6451C15.7955 23.5293 15.9107 23.4401 16.054 23.3776C16.1985 23.3138 16.356 23.2819 16.5266 23.2819C16.7232 23.2819 16.8958 23.3131 17.0442 23.3756C17.1939 23.4368 17.3098 23.528 17.3918 23.649C17.4752 23.7688 17.5168 23.9173 17.5168 24.0944C17.5168 24.1868 17.4947 24.276 17.4504 24.3619C17.4075 24.4466 17.3456 24.5221 17.2649 24.5885C17.1855 24.6536 17.0904 24.7057 16.9797 24.7448C16.8704 24.7825 16.7486 24.8014 16.6145 24.8014H16.2043V24.485ZM16.2043 24.944V24.6334H16.6145C16.7629 24.6334 16.8958 24.6503 17.0129 24.6842C17.1301 24.7181 17.2297 24.7669 17.3118 24.8307C17.3938 24.8945 17.4563 24.972 17.4993 25.0631C17.5422 25.1543 17.5637 25.2558 17.5637 25.3678C17.5637 25.5006 17.5377 25.6191 17.4856 25.7233C17.4335 25.8274 17.3606 25.9153 17.2668 25.9869C17.1731 26.0586 17.0631 26.1132 16.9368 26.151C16.8105 26.1875 16.6737 26.2057 16.5266 26.2057C16.4081 26.2057 16.2903 26.1894 16.1731 26.1569C16.0559 26.1243 15.9498 26.0748 15.8547 26.0084C15.7597 25.9407 15.6835 25.8554 15.6262 25.7526C15.5689 25.6484 15.5403 25.5247 15.5403 25.3815H16.1516C16.1516 25.4479 16.1685 25.5078 16.2024 25.5612C16.2375 25.6132 16.2851 25.6549 16.345 25.6862C16.4062 25.7161 16.4726 25.7311 16.5442 25.7311C16.6301 25.7311 16.703 25.7155 16.7629 25.6842C16.8241 25.6517 16.8704 25.6074 16.9016 25.5514C16.9342 25.4954 16.9504 25.4309 16.9504 25.358C16.9504 25.2591 16.9329 25.1796 16.8977 25.1198C16.8639 25.0586 16.8144 25.0143 16.7493 24.9869C16.6842 24.9583 16.606 24.944 16.5149 24.944H16.2043Z" fill="white"/>
<defs>
<clipPath id="clip0_338_3366">
<rect width="11.6667" height="11.6667" fill="white" transform="translate(7 8.16663)"/>
</clipPath>
</defs>
</svg>
