<svg width="584" height="555" viewBox="0 0 584 555" fill="none" xmlns="http://www.w3.org/2000/svg">
<path d="M70.9476 21.3113C72.8019 20.1126 74.1859 21.0897 75.513 22.6854C77.9764 25.6473 81.1946 23.4467 84.1443 24.3972L83.8165 27.6014L88.4007 25.0072L87.989 24.5576C90.9634 24.2153 93.9358 23.8443 96.9127 23.5395C99.4132 23.2834 101.918 23.0936 104.422 22.8938C108.784 22.5458 113.144 22.0743 117.51 21.9259C120.082 21.8385 122.666 22.2511 125.242 22.4795C129.087 22.8203 132.925 23.3493 136.774 23.517C140.937 23.6984 145.11 23.5637 149.278 23.5425C149.607 23.5408 150.138 23.1347 150.237 23.2755C154.306 29.0867 159.062 23.4518 163.477 24.3959C167.724 25.0538 172.011 25.2504 176.287 24.9833C177.04 24.9782 177.789 23.6617 177.895 23.5614L199.061 21.6107C198.342 22.8031 197.868 23.59 197.393 24.3763C201.383 26.6208 211.43 25.3187 213.396 22.6739C216.815 23.4171 220.013 23.9972 223.167 24.8298C226.375 25.677 229.552 24.9121 232.733 24.7787C236.097 24.6377 239.451 24.1185 242.808 23.753C243.028 23.7291 243.276 23.4775 243.452 23.5496C249.037 25.8427 254.275 22.7715 259.67 22.0344C263.155 21.5584 267.21 20.3199 270.069 21.9357C273.187 23.6977 275.416 22.8666 278.269 22.2512C280.744 25.8264 284.031 23.8587 286.659 23.4812C289.578 27.5468 293.096 25.2222 296.327 25.7672C296.408 26.5379 296.499 27.399 296.618 28.5351L313.724 28.6066C313.37 29.6408 313.087 30.4679 312.416 32.4273C326.599 33.9858 340.483 35.5116 354.415 37.0426C352.279 40.6433 354.671 41.8026 357.192 42.488C359.524 43.122 361.941 43.2855 364.398 43.6683C364.572 46.1599 367.304 47.5064 373.569 47.6099C372.456 50.3609 371.426 52.9059 370.396 55.451L369.004 56.7312L373.554 61.8406L367.764 71.8992C368.855 77.1951 372.601 76.4497 375.797 76.5079C386.549 76.7037 397.303 76.6842 408.056 76.7437C411.936 76.7651 415.815 76.7769 419.975 76.7943C418.03 70.237 416.445 64.8954 414.94 59.8241C419.187 61.0116 422.895 62.0548 426.609 63.065C426.773 63.1096 426.992 62.8531 427.185 62.737C428.472 67.9975 434.056 67.7789 435.562 72.6588C435.97 73.9808 435.799 75.5747 435.967 78.1779C444.331 78.5176 452.719 78.3625 461.019 79.3282C470.241 80.401 479.551 82.031 487.258 89.1917C488.785 90.909 489.744 93.2591 489.952 95.7938C490.907 106.851 487.257 116.601 483.303 126.058C480.745 132.176 477.488 137.848 474.671 143.811C474.253 144.695 474.718 146.146 474.453 147.216C473.942 148.965 473.353 150.679 472.69 152.35C473.035 152.534 473.749 152.915 474.987 153.576C473.772 154.518 472.988 155.631 472.163 155.682C466.784 156.013 461.389 158.313 455.996 155.355C454.91 154.759 453.337 155.535 451.987 155.622C450.797 155.699 449.367 157.649 448.477 154.917C448.364 154.568 447.479 154.538 446.942 154.472C435.097 153.007 424.211 157.398 413.501 162.857C412.902 163.079 412.37 163.515 411.971 164.109C419.82 164.141 427.67 164.175 435.519 164.21C449.501 164.297 463.529 163.592 477.451 164.748C489.138 165.718 500.745 168.657 511.448 175.226C512.384 175.73 513.345 176.162 514.324 176.52C518.178 178.191 519.551 180.938 519.735 185.927C520.113 196.2 516.926 205.331 513.872 214.481C512.643 218.165 510.2 221.363 509.458 225.123C508.961 227.641 508.737 229.414 507.083 231.397C506.122 232.548 507.301 236.097 506.961 238.446C506.732 240.023 505.529 241.388 504.677 243.011L506.828 244.199C506.664 244.672 506.607 245.09 506.5 245.111C502.908 245.975 499.282 246.61 495.637 247.014C492.885 247.187 490.099 246.18 487.318 246.06C463.53 245.038 439.74 244.062 415.95 243.133C402.336 242.578 388.722 242.014 375.108 241.442C374.32 241.409 373.531 241.431 372.159 241.426C384.651 243.794 396.552 246.019 408.445 248.314C425.474 251.6 442.488 255.003 459.531 258.181C462.134 258.457 464.753 258.425 467.352 258.088C467.733 258.067 468.226 257.415 468.434 256.909C469.23 254.978 469.532 252.56 472.005 252.603C472.242 252.607 472.504 250.78 472.866 249.365C474.143 249.639 475.378 250.153 476.527 250.889C482.353 256.226 488.569 261.128 493.66 267.399C497.354 271.949 501.275 277.395 500.399 285.106C500.324 285.769 501.057 286.512 501.174 287.275C501.635 290.285 502.017 293.315 502.386 296.345C502.451 296.878 502.174 297.498 502.289 297.994C503.841 304.649 501.042 308.302 496.47 310.601C493.414 312.358 490.233 313.765 486.967 314.805C481.933 316.074 480.993 316.801 479.797 323.635C486.295 324.71 492.823 325.48 499.252 326.916C514.757 330.381 530.252 333.947 545.677 337.905C552.561 339.594 559.321 341.968 565.891 345.005C569.847 346.887 573.202 350.744 576.736 353.869C578.676 355.363 580.419 357.212 581.905 359.353C584.55 363.767 584.931 373.457 581.491 375.606C577.532 378.08 579.269 381.547 578.785 384.196C577.522 391.109 574.237 395.563 569.082 397.014C565.782 397.943 566.28 401.41 564.62 403.294C562.624 405.843 560.805 408.595 559.185 411.52C558.437 412.717 557.825 414.042 556.598 416.349C553.258 416.18 548.825 418.77 544.457 414.039C542.497 411.917 538.879 412.122 536.017 411.249C535.267 411.02 534.535 410.706 534.406 410.658C531.699 416.748 528.967 422.601 526.488 428.611C525.343 431.385 524.069 432.871 521.317 432.894C498.461 433.089 475.604 433.755 452.749 433.703C431.364 433.653 410.281 436.188 389.495 443.141C395.064 443.65 400.636 444.117 406.201 444.678C413.117 445.374 419.933 446.407 425.873 451.537C427.275 452.748 429.506 454.417 429.922 449.716L430.811 449.33C433.232 453.136 435.654 456.942 438.509 461.43C440.058 455.58 446.848 459.808 446.873 452.216C448.843 453.831 450.185 455.926 452.654 453.781C453.288 453.229 456.249 454.786 458.062 456.976C460.451 459.863 464.41 460.782 467.659 462.529C466.586 463.357 465.362 464.301 464.2 465.197C466.663 465.376 468.88 465.536 471.097 465.697C471.141 466.201 471.186 466.706 471.231 467.21L468.997 468.678C470.956 470.419 472.944 472.187 474.933 473.955L475.347 473.222C474.58 472.485 473.813 471.749 473.567 471.513C472.415 468.726 477.391 466.879 473.38 464.4C475.754 464.459 478.277 463.935 479.478 466.99C481.666 467.36 483.907 467.74 486.148 468.119L486.405 469.056C483.449 470.81 480.492 472.563 477.536 474.316L477.806 475.531C479.143 475.536 480.663 476.054 481.782 475.448C484.69 473.871 487.395 471.732 490.247 469.978C490.915 469.567 492.196 469.356 492.57 469.818C492.961 470.26 493.275 470.795 493.494 471.39C493.712 471.986 493.829 472.631 493.839 473.285C493.623 474.829 492.638 476.211 491.775 478.117L487.012 474.335C486.839 476.547 486.839 476.547 494.413 482.426C494.252 484.072 494.1 485.624 493.891 487.76C492.844 486.845 491.692 485.838 490.151 484.492C489.987 485.516 489.493 486.919 489.767 487.205C490.615 488.088 491.843 489.224 492.768 489.042C495.654 488.474 497.008 489.914 497.658 493.491C496.816 493.715 495.957 494.316 495.42 494.023C492.831 492.696 490.323 491.144 487.913 489.379C485.364 487.415 483.53 487.812 482.41 490.57L472.407 486.269C471.65 486.865 470.801 487.263 469.914 487.439C462.404 487.703 454.889 487.74 447.378 487.963C446.03 488.155 444.698 488.491 443.397 488.968C445.067 490.584 446.197 491.678 447.299 492.744L449.832 489.217L450.567 489.724C450.498 490.585 450.429 491.445 450.351 492.418C451.544 493.035 452.784 493.501 454.054 493.809C455.021 493.75 455.968 493.453 456.841 492.936C457.134 492.817 457.332 492.236 457.609 492.188C460.328 491.718 463.055 491.317 465.775 490.9C465.216 492.709 464.659 494.515 464.106 496.319C463.561 495.77 463.016 495.221 462.471 494.671L468.521 494.697L468.674 493.678C467.694 492.759 466.714 491.841 465.734 490.922C467.779 488.45 469.926 488.753 470.828 491.643C471.841 494.892 473.179 495.692 475.763 494.625C476.297 494.404 476.971 493.932 477.381 494.148C480.334 495.717 483.639 495.977 486.734 494.884C487.431 494.658 488.43 495.856 489.29 496.399C488.412 497.139 487.539 498.493 486.654 498.506C483.733 498.55 480.809 498.101 477.885 497.859C475.759 497.683 473.632 497.535 471.505 497.375C471.447 497.909 471.389 498.443 471.332 498.978C474.412 499.358 477.493 499.738 481.19 500.195L478.527 503.111C476.086 501.275 473.907 499.868 470.962 501.506C469.679 502.219 467.787 501.269 466.171 501.075L466.184 499.767C467.533 499.531 468.881 499.294 470.229 499.058L470.369 497.941C469.16 497.874 467.951 497.735 466.743 497.757C465.111 497.788 463.47 498.127 461.853 497.987C460.378 497.746 458.919 497.377 457.487 496.883C457.41 497.265 457.333 497.647 457.257 498.029L465.051 500.251C461.001 502.861 455.954 498.533 452.268 504.323C454.813 504.57 457.153 504.961 459.496 504.981C462.193 505.004 464.899 504.477 467.589 504.587C471.705 504.755 475.813 505.245 479.92 505.659C480.289 505.696 480.917 506.147 480.935 506.451C481.125 509.584 482.872 509.185 484.612 509.17C485.625 509.218 486.585 509.735 487.3 510.619C484.159 510.605 480.076 512.103 478.093 510.232C474.976 507.289 471.695 509.208 468.745 507.551C466.042 506.033 461.81 509.588 461.091 513.675C462.262 514.035 463.45 514.301 464.649 514.471C465.709 514.452 466.766 514.326 467.81 514.095L467.956 515.144C465.098 515.754 462.24 516.365 459.383 516.975L459.349 517.979L466.975 518.01L466.568 518.651C467.418 519.158 468.267 519.665 469.936 520.662L465.248 520.642L465.092 521.536C466.565 521.864 468.531 523.101 469.427 522.364C473.559 518.966 476.927 522.16 480.549 524.176C478.612 524.451 476.676 524.727 474.739 525.003C474.754 525.476 474.769 525.949 474.784 526.422C475.907 526.639 477.031 526.856 478.61 527.161C477.937 528.212 477.479 528.927 476.75 530.066C490.69 530.259 504.269 530.412 517.817 534.403C517.904 535.508 518.032 537.123 518.135 538.417C515.273 539.007 512.483 539.583 509.682 540.161C507.904 538.029 506.363 536.883 503.376 538.089C500.637 539.195 497.267 538.013 494.185 537.69C492.527 537.517 490.89 537.031 489.244 536.686L488.985 538.086L518.07 548.384C517.949 550.249 517.813 552.347 517.665 554.643C517.087 553.734 516.546 552.886 516.029 552.072C513.897 553.35 509.613 551.643 507.883 550.345C505.573 548.613 502.767 547.864 500.15 546.779C499.652 546.573 499.003 546.938 498.492 546.753C494.881 545.446 491.319 543.92 487.682 542.738C481.254 540.649 474.83 538.459 468.309 536.92C465.589 536.278 462.625 537.193 459.187 537.442C458.394 538.93 457.118 541.161 454.882 537.959C454.627 537.717 454.327 537.558 454.009 537.496C453.69 537.433 453.364 537.471 453.06 537.604C450.696 540.551 448.445 540.141 445.825 536.557C445.922 538.268 445.959 538.925 445.977 539.239C445.126 539.544 444.262 539.782 443.387 539.952C441.253 540.205 439.111 540.462 436.969 540.503C429.933 540.638 422.896 540.646 415.859 540.764C410.407 540.856 404.953 540.945 399.505 541.21C395.451 541.407 391.409 541.934 387.357 542.219C385.223 542.369 383.08 542.322 380.942 542.349C380.263 542.357 379.478 542.036 378.924 542.352C377.41 543.123 375.736 543.281 374.145 542.802C369.344 541.967 364.385 542.487 359.264 542.465C359.445 542.093 359.935 541.085 360.48 539.964C357.951 537.347 356.808 540.013 356.013 541.371C348.857 542.043 342.249 542.664 335.37 543.309C335.439 542.837 335.539 542.154 335.696 541.082L311.417 543.007C311.281 541.974 311.109 540.662 310.937 539.349C309.751 539.949 308.529 540.429 307.281 540.787C306.271 540.985 305.182 540.477 304.145 540.571C298.279 541.1 292.419 541.717 286.556 542.304C286.217 541.933 285.877 541.562 285.537 541.19C286.477 540.723 287.416 540.256 288.355 539.788L288.171 538.905C283.306 539.288 278.441 539.672 273.576 540.055C272.172 540.056 270.992 536.226 269.142 540.21C269.031 540.449 268.367 540.295 267.961 540.332C264.148 540.684 260.18 541.997 256.568 541.117C253.085 540.269 249.911 541.909 246.798 541.404C240.04 540.307 233.62 542.259 227.061 543.13C223.54 543.598 219.967 543.439 216.421 543.66C213.457 543.844 210.498 544.168 207.28 544.453L207.702 541.424C204.563 541.616 201.57 541.8 198.255 542.002L197.826 539.251L180.238 539.177C180.413 537.359 180.566 535.777 180.803 533.312L182.985 531.315C181.437 529.5 180.012 527.83 178.588 526.16L177.362 526.257C178.472 523.126 179.757 520.092 181.205 517.177C183.548 513.055 178.084 511.414 180.472 506.552C153.544 506.396 127.52 506.261 101.496 506.087C86.621 505.987 71.7459 505.878 56.8721 505.658C52.4128 505.592 50.8872 503.946 49.4575 498.718C45.7574 485.188 46.8837 471.808 50.2517 458.474C50.7715 456.417 51.1372 454.3 51.6823 451.694C47.4622 451.677 43.4872 451.77 39.5189 451.617C34.0889 451.406 32.5948 449.85 30.9883 443.577C27.5499 430.152 28.5995 416.934 32.1749 403.825C32.8369 402.139 33.362 400.378 33.7426 398.566C33.9673 396.226 32.6363 395.377 30.8005 395.363C24.8885 395.316 18.9768 395.215 13.0656 395.06C5.58331 394.866 4.60113 394.093 2.43118 385.345C-0.633194 372.992 0.981426 360.773 3.5327 348.616C4.20246 345.425 4.61325 342.149 5.33951 338.979C5.77367 337.258 6.39321 335.615 7.18155 334.095C8.65601 330.968 10.2725 327.946 12.0233 325.043C12.8465 323.641 14.0585 322.66 15.4292 322.284C20.9256 321.658 26.4528 321.45 31.9691 321.096C32.7603 321.166 33.5558 321.107 34.3347 320.92C34.9947 320.641 35.8622 319.948 35.9899 319.257C35.9765 318.814 35.8739 318.381 35.6913 317.999C35.5086 317.617 35.2517 317.297 34.9435 317.067C33.5121 316.22 32.2529 314.99 31.2578 313.467C30.2626 311.943 29.5566 310.165 29.1913 308.262C28.8842 306.991 26.7868 305.677 25.4694 305.616C21.7396 305.443 18.3144 305.769 17.3838 299.556C16.8991 296.32 14.2484 293.378 14.2233 290.279C14.1684 283.493 11.0935 275.891 16.6846 270.072C16.8068 269.938 16.9021 269.771 16.9631 269.584C17.024 269.397 17.0491 269.195 17.0361 268.994C16.1709 266.007 18.0682 264.501 18.9349 262.241C21.2211 256.278 25.2168 253.28 29.2182 249.597C33.2917 245.847 37.7198 244.419 42.3554 243.574C49.1536 242.334 56.153 242.466 62.8418 240.707C70.8409 238.603 78.603 235.123 86.4678 232.24L86.3345 230.742C85.25 230.419 84.1477 230.195 83.0364 230.071C77.818 229.929 72.5958 229.964 67.3782 229.796C57.6601 229.483 56.3567 228.522 54.3931 216.62C52.5624 205.524 53.8595 194.465 56.1144 183.524C56.9174 179.628 56.9186 175.484 57.2963 171.455C57.5217 170.11 57.6504 168.743 57.6807 167.37C57.5101 166.11 57.228 164.878 56.8396 163.695L55.8316 163.48L61.6874 155.199C52.7108 155.162 43.2341 155.209 33.7598 155.052C27.2953 154.945 20.8296 154.663 14.3732 154.254C9.48267 153.944 7.86038 152.099 6.41388 146.391C2.9891 132.878 4.46318 119.7 8.0051 106.587C8.76818 103.762 8.9886 100.722 9.5852 97.8198C9.85409 96.4685 10.2993 95.1796 10.9035 94.0032C12.753 90.5068 14.6205 87.0095 16.6964 83.7183C17.459 82.5368 18.556 81.7535 19.767 81.5256C24.2461 81.1454 28.7503 81.2424 33.2334 80.9115C34.6846 80.6646 36.0376 79.8658 37.1035 78.6269C33.7071 77.165 31.7845 71.5155 27.8928 73.9908C22.0126 69.2594 16.3187 64.6779 10.4118 59.925L13.3096 58.7198L10.9055 54.3862C13.735 51.7144 16.0117 45.3243 14.8497 41.9014C16.5479 41.0152 18.3043 40.2325 19.9572 39.1985C21.6223 38.1567 22.9893 36.5958 21.9066 34.0649C19.8151 29.1759 23.3852 26.6941 24.9858 23.6348C25.963 21.7671 28.3207 21.0501 29.9115 19.5759C30.4173 19.1072 30.4344 17.8571 30.7055 16.9788C30.8022 16.4291 31.0051 15.9159 31.2969 15.4828C35.8262 11.0509 40.2719 6.46369 45.0154 2.40655C46.3244 1.28705 48.5804 1.39881 50.3349 1.64854C51.9819 1.883 53.4498 2.69457 54.4473 0.281321C54.5084 0.133552 55.5585 0.261163 55.6546 0.529473C56.9102 4.03535 60.0909 3.03954 62.0462 4.78996C62.7181 5.59917 63.2776 6.53873 63.7024 7.57127C64.9883 9.91073 65.9065 12.8232 67.6282 14.4636C69.6509 16.3907 70.9604 18.3189 71.0679 21.4416C67.5298 19.9762 63.9844 18.5056 60.0206 16.8615C61.4828 23.0918 66.1159 23.8045 69.5699 25.936C70.8451 26.7228 73.0597 25.2091 75.3401 24.6161C73.3738 23.1364 72.1607 22.2238 70.9476 21.3113ZM70.5163 62.8343C71.6175 62.7297 72.7224 62.6954 73.8263 62.7315C75.2896 62.8617 76.7411 63.1891 78.1976 63.4318L78.6661 62.3283C77.9098 61.327 77.1046 59.4348 76.4065 59.4943C74.4252 59.8308 72.4828 60.4549 70.6199 61.3536C70.4846 61.4069 70.5903 62.392 70.5761 62.9317C68.683 61.7858 66.8201 60.5443 64.8598 59.6115C64.6061 59.4908 63.8494 60.966 63.3256 61.7019L63.676 63.1846C65.9561 63.0679 68.2362 62.9511 70.5163 62.8343ZM47.516 55.7815C51.2484 56.3917 48.1471 58.7169 48.2436 60.7878C49.78 59.8183 50.8952 58.5964 52.091 58.4592C55.4041 58.079 58.7505 58.1143 62.0845 58.0598C63.679 58.0337 65.294 58.4029 66.8671 58.2013C72.5517 57.4725 78.1907 55.0908 83.9456 57.6401C84.0234 57.6746 84.2041 57.3584 84.3367 57.2058L83.2633 58.4383L78.3816 48.6917L77.8292 50.415L73.3271 53.1659L72.9283 52.0259L75.9244 50.7759C72.4116 46.5885 69.3733 52.0584 65.1418 50.7285C66.645 50.2313 67.4127 50.0636 68.1242 49.7191C68.9302 49.3288 69.6857 48.7798 71.0762 47.9214L66.9799 45.981C67.3819 41.1569 67.3819 41.1569 63.1696 41.6451C61.8121 37.9451 61.8121 37.9451 54.1377 35.8844C53.9535 36.5839 53.9365 37.484 53.5622 37.9353C50.9862 41.0425 49.2807 38.0958 47.4761 36.2651C45.2335 38.1729 43.7892 42.5895 40.718 39.2866C41.0532 41.8559 41.3979 44.4988 41.7427 47.1418C42.8798 47.5898 43.5955 49.0825 44.3154 50.5721C44.6046 51.1706 44.9028 51.7626 45.1969 52.3575C45.7248 51.9218 46.4218 51.625 46.7483 51.0238C47.6548 49.3552 48.407 47.56 49.3328 45.5733C49.9234 46.2183 50.5494 46.6365 50.5086 46.8986C50.1326 49.4746 49.6485 52.0252 49.0582 54.54C48.9225 55.0936 48.0495 55.3748 47.516 55.7815ZM54.4173 78.218L54.2118 76.7732C51.0697 79.0742 48.0717 79.438 46.5601 75.2977C45.3897 72.092 44.0822 72.47 42.796 73.5282C39.4131 71.247 36.3589 69.1874 33.3047 67.1279L32.7486 68.2091C33.5911 69.2394 34.5164 70.1617 35.5104 70.9617C37.8102 72.4496 40.1636 73.4294 41.5693 76.7249C42.6942 78.7081 44.3905 80.0888 46.3142 80.5869C48.0629 81.0988 50.0899 80.1799 51.9948 79.8887L51.9583 80.6565C52.778 79.8436 53.5976 79.0308 54.4173 78.218ZM96.0693 53.2893L94.8843 50.2591C94.3296 50.6238 93.411 50.8503 93.2785 51.3756C92.3191 55.1804 91.4423 55.438 88.9664 52.3268C87.3237 50.2625 85.737 50.4836 84.0423 52.0238C88.1513 55.2424 92.2404 57.9696 97.2756 56.2547C97.7757 56.0844 98.4749 56.9113 99.1051 57.1973C100.848 57.9881 103.316 56.7568 103.83 54.8005L100.1 56.1429C99.984 54.3005 99.8919 52.8434 99.7991 51.3757L96.0693 53.2893ZM40.9537 14.5948C44.3308 17.4106 46.8589 19.3154 49.1967 21.5252C51.519 23.7203 52.4117 19.6838 54.2448 20.0358C54.0706 19.3151 54.0521 18.1241 53.698 17.9472C50.5216 16.3604 47.3196 14.8178 44.0442 13.5867C43.2416 13.2851 42.1423 14.1736 40.9537 14.5948ZM83.858 59.4703L83.0923 60.4216C83.8912 61.4855 84.5933 63.2879 85.5082 63.4678C88.0525 63.7547 90.6106 63.814 93.1625 63.6452C92.6838 62.1344 92.3959 60.0658 91.9368 60.0075C90.7432 60.1073 89.5738 60.4728 88.4854 61.0861L88.5942 61.9028C87.0155 61.092 85.4367 60.2812 83.858 59.4703ZM94.7293 61.5981C96.646 64.9495 97.7896 62.7399 98.8284 61.0623C102.139 61.0787 104.992 64.4821 108.311 62.6524C103.877 61.8135 99.5299 57.2704 94.7293 61.5981ZM454.218 499.222C454.241 498.771 454.263 498.32 454.285 497.869C451.418 497.658 448.552 497.448 444.632 497.161C446.694 499.4 450.874 498.089 447.704 503.63C450.077 503.019 451.499 502.653 453.148 502.229L450.08 500.026L450.378 499.206L454.218 499.222ZM59.4104 27.0631L59.1578 25.1802C57.1507 25.9229 54.534 22.6464 53.1065 27.0047C52.9967 27.3401 53.3431 27.9011 53.6592 28.9741C54.2008 27.9261 54.4745 27.3967 54.3145 27.7062C56.284 27.4577 57.8473 27.2604 59.4104 27.0631Z" fill="#F6EAFC"/>
</svg>
