<svg width="29" height="28" viewBox="0 0 29 28" fill="none" xmlns="http://www.w3.org/2000/svg">
<g clip-path="url(#clip0)">
<rect x="2" y="3" width="25" height="25" fill="white"/>
<path d="M0.233643 2.0055C0.233643 0.89775 1.15414 0 2.28989 0H26.1774C27.3131 0 28.2336 0.89775 28.2336 2.0055V25.9945C28.2336 27.1022 27.3131 28 26.1774 28H2.28989C1.15414 28 0.233643 27.1022 0.233643 25.9945V2.0055ZM8.88389 23.4395V10.7958H4.68214V23.4395H8.88389ZM6.78389 9.0685C8.24864 9.0685 9.16039 8.099 9.16039 6.8845C9.13414 5.64375 8.25039 4.7005 6.81189 4.7005C5.37339 4.7005 4.43364 5.6455 4.43364 6.8845C4.43364 8.099 5.34539 9.0685 6.75589 9.0685H6.78389ZM15.3729 23.4395V16.3783C15.3729 16.0002 15.4009 15.6222 15.5129 15.3527C15.8156 14.5985 16.5069 13.8162 17.6689 13.8162C19.1896 13.8162 19.7969 14.9748 19.7969 16.6758V23.4395H23.9986V16.1875C23.9986 12.3025 21.9266 10.4965 19.1616 10.4965C16.9321 10.4965 15.9329 11.7215 15.3729 12.5842V12.628H15.3449C15.3542 12.6134 15.3635 12.5988 15.3729 12.5842V10.7958H11.1729C11.2254 11.9823 11.1729 23.4395 11.1729 23.4395H15.3729Z" fill="#266A9A"/>
</g>
<defs>
<clipPath id="clip0">
<rect width="28" height="28" fill="white" transform="translate(0.233643)"/>
</clipPath>
</defs>
</svg>
