<svg width="28" height="28" viewBox="0 0 28 28" fill="none" xmlns="http://www.w3.org/2000/svg">
<path d="M24 0H4C1.79086 0 0 1.79086 0 4V24C0 26.2091 1.79086 28 4 28H24C26.2091 28 28 26.2091 28 24V4C28 1.79086 26.2091 0 24 0Z" fill="#1A1A1A"/>
<path d="M23.0162 6.18061L3.66814 13.4771C3.04145 13.7135 3.07942 14.5838 3.72451 14.7681L6.59551 15.5886C7.8744 15.954 8.88797 16.9313 9.29983 18.196L10.4759 21.8075C10.6676 22.396 11.4383 22.5745 11.8844 22.1336L12.037 21.9829C13.4186 20.6176 15.5814 20.4423 17.1649 21.5671L19.414 23.1648C20.0244 23.5984 20.8936 23.2762 21.0486 22.559L24.3519 7.27528C24.5137 6.52664 23.7526 5.9029 23.0162 6.18061ZM20.5905 9.57245L11.6034 17.2634C11.5138 17.34 11.4568 17.4461 11.4435 17.5612L11.0975 20.5378C11.0862 20.6349 10.9458 20.6477 10.9158 20.5544L9.49225 16.1152C9.42705 15.912 9.51206 15.6918 9.6989 15.5797L20.3117 9.20984C20.5557 9.06324 20.8056 9.38838 20.5905 9.57245Z" fill="white"/>
</svg>
