<svg width="87" height="68" viewBox="0 0 87 68" fill="none" xmlns="http://www.w3.org/2000/svg">
<path d="M67.3077 23.3299L67.4876 13.3599L67.5376 10.0999V8.4199C67.5276 7.6699 67.4077 6.9199 67.1777 6.1999C66.2376 3.2399 63.6577 1.0899 60.5677 0.7099C59.7177 0.6299 59.2177 0.6499 58.6877 0.6399H53.7976L47.2776 0.579903L34.2477 0.469902L8.11765 0.399902C4.84765 0.489902 1.93764 2.4799 0.667639 5.4899C0.357639 6.2199 0.147654 6.9999 0.0576539 7.7899C0.00765388 8.4299 -0.0123339 9.0699 0.00766609 9.7099V12.9699L0.0776124 26.0099L0.167639 38.9299L0.237647 45.4499C0.187647 48.5399 1.89762 51.3899 4.64762 52.8099C5.32762 53.1599 6.05765 53.3999 6.80765 53.5299C7.47765 53.6399 8.16763 53.6799 8.84763 53.6499H12.0976L18.6177 53.5399L23.9776 53.4499C23.7576 56.2499 23.3276 59.9999 23.9176 63.5099C21.0976 63.7399 18.2876 64.0599 15.4776 64.5299C15.2776 64.5299 15.1277 65.0999 15.1277 65.7599C15.1277 66.4199 15.2776 66.9599 15.4776 66.9799C27.7776 67.7599 40.1076 67.7599 52.4076 66.9799C52.6076 66.9799 52.7477 66.3899 52.7477 65.7299C52.7477 65.0699 52.6076 64.5099 52.4076 64.4699H52.3476C49.5676 64.0599 46.7876 63.7399 43.9876 63.5099C44.2576 60.0199 44.1876 56.5099 43.7776 53.0299L54.8177 52.6399C55.8977 52.6399 55.9476 52.0799 55.9476 51.4199C55.9476 50.7599 55.8977 50.2099 54.8177 50.1899H54.5077L33.2976 49.8999H17.2976C7.12764 50.2999 6.20761 49.6899 5.63761 49.3499C4.86761 48.8099 4.22765 48.1199 3.73765 47.3199C3.59765 47.0299 3.49761 46.7299 3.44761 46.4099C3.41761 46.0099 3.41761 45.6199 3.44761 45.2199L3.51761 38.7099V38.6199C22.3176 39.3799 37.6577 40.1299 57.1877 38.4399L57.6576 28.8599C59.6076 24.8999 59.9277 25.1099 67.3077 23.3299ZM31.6776 53.2799L40.1076 53.0799C39.6476 56.4399 39.5776 59.8299 39.8876 63.1999C35.6976 63.3499 32.0877 63.0199 28.1776 63.1999C28.1376 60.5799 28.5276 56.5999 28.0276 53.3299L31.6776 53.2799ZM3.48765 35.7899L3.57761 25.6099L3.64762 12.5799L3.57761 8.0899C3.55761 7.6999 3.57761 7.2999 3.63761 6.9099C3.68761 6.6199 3.77763 6.3399 3.90763 6.0799C4.43763 4.9799 5.58765 4.2999 6.80765 4.3599L34.4776 4.2799L60.1777 4.0799C61.5177 4.0499 62.7976 4.6399 63.6476 5.6699C64.0876 6.4199 64.2976 7.2699 64.2676 8.1399L64.3376 14.2599V23.3299H62.2676L57.6277 25.4699C55.8377 25.3099 58.0176 35.4999 55.9176 35.3699C37.6576 34.9999 21.0476 35.1199 3.48765 35.7899Z" fill="white"/>
<path d="M60.3506 63.6299C60.8306 63.8399 61.3203 64.0099 61.8203 64.1599C62.3103 64.3099 62.8003 64.4599 63.3203 64.6099C64.3803 64.8899 65.4603 65.1199 66.5503 65.2899C71.6003 66.0899 76.7707 65.7599 81.6807 64.2999C81.8507 64.2499 82.0004 64.2099 82.1904 64.1399C82.3904 64.0799 82.5805 63.9999 82.7705 63.9199C83.1505 63.7499 83.5106 63.5499 83.8506 63.3099C85.2606 62.2999 86.1906 60.7499 86.4106 59.0299C86.4406 58.8199 86.4604 58.5999 86.4604 58.3799V56.7399L86.5103 47.9199C86.5103 41.9299 86.5403 35.7399 86.5503 29.5399C86.5503 27.5999 85.6704 25.7699 84.1504 24.5599C83.7804 24.2599 83.3707 23.9999 82.9307 23.7999C82.7107 23.6999 82.4903 23.5999 82.2603 23.5299C82.0403 23.4499 81.8704 23.4099 81.6704 23.3499C80.9104 23.1099 80.1304 22.8999 79.3604 22.7399C73.3004 21.3499 66.9703 21.6199 61.0503 23.5199L60.7803 23.5999L60.4702 23.7099C60.2602 23.7799 60.0706 23.8899 59.8706 23.9799C57.9306 24.9899 56.6505 26.9499 56.5205 29.1299V31.2399C56.6205 42.0699 56.7802 51.3299 56.9702 57.4899C56.9302 57.8599 57.2003 58.1899 57.5703 58.2299C57.5903 58.2299 57.6106 58.2299 57.6206 58.2299C57.9706 58.1599 58.2104 57.8399 58.1904 57.4899C58.4004 51.3299 58.5506 42.0599 58.6406 31.2399V29.2599C58.6906 28.7199 58.8403 28.1899 59.0903 27.6999C59.5303 26.8299 60.2904 26.1599 61.2104 25.8299L61.4902 25.7699L61.7402 25.6999C67.2802 24.0099 73.1705 23.8099 78.8105 25.1299C79.5305 25.2999 80.2505 25.4899 80.9604 25.7099C81.1304 25.7599 81.3405 25.8199 81.4805 25.8699C81.6205 25.9199 81.7504 25.9699 81.8804 26.0399C82.1404 26.1599 82.3906 26.3099 82.6206 26.4899C83.5506 27.2399 84.1006 28.3699 84.1006 29.5599C84.1006 35.7499 84.1306 41.9299 84.1406 47.9399L84.1904 56.7999V58.3899C84.1904 58.5299 84.1806 58.6699 84.1606 58.8099C84.1006 59.3599 83.9206 59.8899 83.6406 60.3699C83.3606 60.8299 82.9903 61.2399 82.5503 61.5599C82.3303 61.7199 82.1004 61.8599 81.8604 61.9699C81.7404 62.0299 81.6102 62.0799 81.4902 62.1199C81.3602 62.1699 81.1905 62.2199 81.0405 62.2699C76.4305 63.7299 71.5605 64.1699 66.7705 63.5699C65.7005 63.4399 64.6607 63.2599 63.6807 63.0399C63.1907 62.9299 62.7102 62.8199 62.2402 62.6899C61.8002 62.5799 61.3704 62.4499 60.9404 62.2999C60.2204 61.9999 59.5804 61.5099 59.1104 60.8799C58.6804 60.3099 58.3805 59.6399 58.2505 58.9299C58.2105 58.5699 57.9105 58.2999 57.5605 58.2899C57.2005 58.3799 56.9803 58.7399 57.0703 59.0999C57.2903 61.0899 58.5306 62.8099 60.3506 63.6599V63.6299Z" fill="white"/>
<path d="M63.2202 30.68C63.2602 30.53 63.2905 30.38 63.2905 30.23C63.2805 30.07 63.1903 29.93 63.0503 29.85C62.8603 29.77 62.6402 29.79 62.4702 29.9C62.0602 30.15 61.8003 30.58 61.7603 31.06L61.7202 31.96L61.6504 33.83L61.5103 38.08C61.4503 41.11 61.3903 44.56 61.3403 48.28L61.2705 54.01V55C61.2705 55.14 61.3006 55.29 61.3306 55.43C61.5606 56.3 62.3305 56.92 63.2305 56.95H67.0806L79.6807 56.99C80.6707 56.98 81.5205 56.29 81.7305 55.32C81.7605 55.17 81.7705 55.02 81.7705 54.87V49.91L81.7402 43.66L81.6206 31.86V31.17C81.6306 31.07 81.6306 30.96 81.6206 30.86C81.6006 30.74 81.5703 30.61 81.5303 30.5C81.2803 29.78 80.6204 29.27 79.8604 29.21H79.0605L76.4404 29.25L71.5903 29.36C68.5503 29.44 65.9005 29.53 63.7905 29.63C63.4705 29.67 63.2505 29.96 63.2905 30.28C63.2905 30.29 63.2903 30.3 63.3003 30.31C63.3003 30.6 63.5103 30.83 63.8003 30.87C65.9103 30.97 68.5506 31.07 71.6006 31.14L76.4404 31.25L79.0605 31.29H79.4805V31.88L79.3604 43.68L79.3306 49.93V54.56L67.0903 54.6H63.5903V54.03L63.5005 48.3C63.4505 44.59 63.3805 41.13 63.3105 38.1L63.1807 33.85L63.1104 31.98L63.0703 31.16C63.0603 31.08 63.0904 31.01 63.1504 30.95C63.1804 30.86 63.2002 30.77 63.2202 30.68Z" fill="white"/>
<path d="M73.0605 60.31C73.0605 61.18 72.3505 61.89 71.4805 61.89C70.6105 61.89 69.9004 61.18 69.9004 60.31C69.9004 59.44 70.6105 58.73 71.4805 58.73C72.3505 58.73 73.0605 59.44 73.0605 60.31Z" fill="white"/>
</svg>
