<svg width="453" height="47" viewBox="0 0 453 47" fill="none" xmlns="http://www.w3.org/2000/svg">
<g clip-path="url(#clip0_870_40318)">
<path d="M351.3 39.7654L349.423 39.9495C355.688 39.9635 361.949 39.5892 368.17 38.8285C354.484 44.399 338.319 49.3241 327.737 37.4746C326.589 43.7769 313.307 46.7058 313.036 45.1543C310.307 44.0169 307.51 43.0562 304.661 42.278C306.605 42.7317 308.538 43.2406 310.457 43.8336C308.538 43.2406 306.605 42.7317 304.661 42.278C286.808 37.3917 267.416 39.5275 247.353 41.9647C236.223 43.1783 205.991 44.5543 194.585 46.378C192.931 46.6084 191.287 46.8202 189.617 47.0001C192.384 46.4303 192.384 46.4303 195.151 45.8691C188.195 44.1858 181.892 42.5491 175.788 41.4673C176.863 40.5626 177.05 39.6884 179.601 38.4428L176.488 39.0432C173.65 36.4276 167.107 36.5436 164.032 35.4388C164.693 36.8118 162.27 37.0829 160.132 37.289L160.978 36.3827C152.865 36.9525 143.447 35.8375 136.195 36.0071C135.778 36.0113 135.366 36.1004 134.984 36.2692C134.602 36.4381 134.256 36.6832 133.968 36.9902L127.015 35.9305C127.55 37.7673 121.249 37.5455 124.567 38.6952C119.363 36.525 114.083 37.8543 109.121 35.6071C90.7235 35.3929 72.3656 33.8093 54.194 30.869L54.6428 30.1875C48.2239 28.971 42.5691 25.3535 34.7667 26.5528C29.1972 24.1052 21.2743 22.8136 19.0575 18.9888C12.6295 18.4638 10.0656 16.54 3.76202 15.5497C5.3873 13.6562 -2.36108 13.2589 0.740204 11.7918C4.92282 9.14287 5.15149 11.3974 8.7016 9.25861L8.5961 9.89528C25.1251 7.12732 41.7977 5.33905 58.5297 4.53951C69.7318 6.14444 81.8817 4.83075 93.5294 5.31657C106.068 5.99945 119.633 7.2348 130.39 8.80789C132.957 9.35158 134.808 7.76683 136.997 6.88109C146.888 7.73355 159.477 7.08842 170.635 8.12646C170.451 8.13527 170.269 8.15654 170.088 8.19025C176.017 8.5062 180.457 6.56043 186.246 6.88381C186.217 7.42333 187.114 7.45807 187.55 7.73928C188.555 5.22813 221.63 12.9717 223.672 11.5278C224.274 11.6465 224.897 11.7541 225.533 11.8206C237.753 10.694 250.39 5.79635 260.877 6.23735C263.196 7.28681 265.453 8.47436 267.635 9.79373C269.49 8.71497 269.846 10.8056 272.082 10.5158C277.757 5.47303 281.08 7.58421 278.151 9.36609C282.82 10.0475 287.505 9.60102 291.653 9.77501C293.577 10.1432 295.488 10.5304 297.429 10.965C299.076 11.387 299.995 10.639 300.826 9.4442C305.043 10.1592 303.8 8.91511 308.221 8.40471C309.29 6.6418 319.309 11.2073 320.559 10.6723L319.836 10.4113C324.948 10.1025 328.345 6.69406 333.342 6.54176C347.225 5.24981 362.39 6.5562 375.253 5.95022C375.381 7.79589 372.416 5.54135 372.266 7.9857C379.852 7.66534 387.502 5.37299 395.158 5.06423C396.486 4.59447 397.734 3.91546 398.857 3.05189C401.303 2.36333 400.301 3.93352 402.092 3.69563L402.334 2.02841C404.951 3.394 406.16 0.179665 408.625 0.869673C408.755 1.54108 409.655 1.62958 410.53 1.57733C410.574 -0.189988 413.227 1.70056 413.1 0.0855417L413.125 0.218808C413.651 0.274551 414.183 0.199473 414.674 0C415.676 0.621754 425.075 5.46736 426.093 6.21832L426.567 5.92702C427.973 5.98047 428.574 7.29266 427.753 7.61037L429.486 7.51027L429.286 7.38975L431.01 7.29001C431.253 7.07571 431.408 6.7754 431.443 6.44957C431.477 6.12375 431.39 5.7966 431.198 5.53393C431.632 5.85537 432.129 6.07833 432.656 6.18788C433.182 6.29742 433.725 6.29102 434.248 6.16909C431.154 7.38352 428.167 8.8623 425.317 10.5898C426.484 11.1973 428.593 10.2564 429.859 10.4491C431.37 9.28061 434.477 8.2874 436.894 7.48272C437.426 7.58427 437.791 9.55589 438.997 8.68616C439.585 7.32325 440.358 8.73696 441.36 7.75082C440.209 7.02601 439.083 7.35357 437.916 7.42334C438.116 5.81694 440.756 6.33299 441.678 5.8793C442.111 6.38524 444.363 5.86028 445.778 6.30688C445.161 4.7643 446.92 5.32107 447.76 4.49172C448.714 4.30614 449.324 4.92674 448.937 5.47044C449.245 7.15221 445.139 6.47495 446.469 8.2381C446.818 7.42479 448.688 7.706 449.694 7.77994C449.706 8.69625 449.006 8.47594 449.658 9.35159C450.778 9.15 451.964 10.2519 452.607 9.30229C452.397 9.05287 451.936 9.20939 451.608 9.23252C453.065 9.13991 443.71 3.25204 445.597 3.78564C445.107 4.59889 453.895 9.22091 452.925 9.27764C452.037 9.72988 453.561 10.9319 452.642 11.2522L451.621 10.1432C450.365 10.4853 449.849 12.089 450.292 12.7182C452.397 12.573 444.312 6.46334 446.112 7.38975L445.381 7.82477C446.144 8.42072 448.182 8.93826 448.969 7.97416C448.974 8.87743 450.002 9.19779 450.854 9.52557L451.157 9.37327C452.037 9.83144 453.268 9.61558 452.696 10.8131C447.53 10.6679 456.093 20.0197 451.09 20.5429C453.189 18.5422 450.383 18.4929 448.182 18.2595C447.899 18.8054 447.504 19.2837 447.026 19.6626C446.547 20.0415 445.995 20.3124 445.406 20.4574C444.035 20.3009 444.598 19.7252 444.337 19.2178C443.577 19.6688 442.124 20.0444 442.315 21.0982C441.246 19.8443 440.607 21.8987 439.325 21.4667C438.195 20.8868 439.401 20.923 438.6 20.317C436.904 20.4503 434.528 20.6285 433.179 20.8707C432.658 21.8565 431.067 23.6067 432.225 25.1361C434.795 24.9274 431.245 22.6425 433.921 22.973C432.769 25.2291 436.287 23.5906 436.774 25.2986C435.921 26.315 434.194 26.3265 432.75 26.0439L433.039 25.7451C431.767 25.4479 429.219 24.9782 427.842 26.1843C428.167 26.9759 427.566 27.5719 428.501 27.7661L426.748 27.9155C426.525 27.6648 426.297 27.4079 426.802 27.2268C426.455 26.9899 426.039 26.8804 425.623 26.9163C425.207 26.9521 424.816 27.1311 424.512 27.424C424.322 28.2608 415.19 23.9009 415.473 24.4271C414.21 24.4009 413.904 25.6597 412.674 24.8086C412.544 24.1272 424.744 27.6764 423.075 27.4053C421.996 28.3243 408.765 23.215 407.979 24.8042C407.044 24.7418 405.915 24.5648 406.134 23.7138C404.554 24.1272 406.608 25.3363 405.482 26.1324C405.457 25.9988 405.574 25.7074 405.215 25.7377L404.133 26.8108C401.678 25.4927 398.078 27.2082 395.508 25.4651C396.252 26.3859 397.101 27.9997 398.755 28.8332L399.045 28.3867C399.28 28.6476 400.641 28.9419 400.603 29.7902C399.857 30.0653 399.061 30.1698 398.271 30.0964C397.482 30.023 396.717 29.7734 396.033 29.3653C395.719 29.5774 395.418 29.8088 395.132 30.0584C395.148 29.9484 395.156 29.8375 395.158 29.7264C394.617 30.2541 394.674 30.3396 394.872 30.6718C394.898 30.7424 394.937 30.8077 394.986 30.8645C394 33.351 388.816 29.2884 385.946 30.5759C385.101 30.2253 385.867 30.154 384.814 29.6786C382.202 30.6589 379.521 31.4349 376.793 31.9997C375.813 30.9284 375.737 30.5005 376.92 29.3814L374.604 29.7309C376.71 32.5856 370.279 32.4537 372.6 35.3039C372.113 35.6433 371.548 35.8511 370.961 35.9079C370.373 35.9647 369.78 35.8687 369.239 35.6288C369.108 34.9096 368.904 33.7569 367.273 33.7599C365.002 34.7124 365.543 34.3659 363.663 35.2823C363.218 36.2158 363.908 36.5858 363.828 37.3323C360.927 36.1348 361.297 39.3636 358.561 39.1851C356.847 38.9099 353.462 38.7983 353.38 37.1613C351.07 37.2352 351.07 38.4343 351.3 39.7654Z" fill="#F9F9F9"/>
</g>
<defs>
<clipPath id="clip0_870_40318">
<rect width="453" height="47" fill="white" transform="matrix(-1 0 0 1 453 0)"/>
</clipPath>
</defs>
</svg>
