<svg width="47" height="346" viewBox="0 0 47 346" fill="none" xmlns="http://www.w3.org/2000/svg">
    <path d="M7.23466 268.322L7.05059 266.888C7.03653 271.674 7.41086 276.455 8.17151 281.207C2.60109 270.754 -2.32408 258.407 9.52549 250.325C3.22315 249.448 0.294256 239.303 1.84573 239.096C2.98314 237.011 3.94383 234.875 4.72206 232.699C4.26838 234.184 3.75942 235.661 3.16643 237.126C3.75942 235.661 4.26838 234.184 4.72206 232.699C9.60838 219.063 7.47256 204.252 5.03535 188.927C3.82177 180.427 2.44579 157.336 0.62205 148.624C0.391638 147.361 0.1799 146.104 -1.41576e-06 144.829C0.569788 146.943 0.569788 146.943 1.13101 149.056C2.81429 143.743 4.451 138.928 5.53271 134.266C6.43743 135.087 7.31163 135.231 8.55723 137.179L7.95681 134.801C10.5725 132.633 10.4564 127.636 11.5613 125.287C10.1883 125.792 9.9172 123.942 9.71108 122.309L10.6174 122.955C10.0475 116.758 11.1625 109.564 10.9929 104.025C10.9888 103.707 10.8997 103.393 10.7308 103.1C10.562 102.808 10.3168 102.545 10.0098 102.325L11.0695 97.0139C9.23275 97.4223 9.45457 92.6097 8.30484 95.1436C10.4751 91.1688 9.14574 87.1363 11.3929 83.3466C11.6072 69.2944 13.1908 55.2727 16.131 41.3933L16.8125 41.7361C18.0291 36.8334 21.6466 32.5143 20.4473 26.5548C22.8949 22.3009 24.1864 16.2493 28.0112 14.5562C28.5362 9.64648 30.46 7.68823 31.4503 2.87353C33.3438 4.1149 33.7411 -1.80328 35.2083 0.565491C37.8571 3.76016 35.6026 3.93481 37.7414 6.64636L37.1047 6.56577C39.8727 19.1906 41.661 31.925 42.4605 44.7049C40.8556 53.261 42.1693 62.5411 41.6834 71.4375C41.0006 81.0141 39.7652 91.3753 38.1921 99.5916C37.6484 101.552 39.2332 102.966 40.1189 104.638C39.2665 112.193 39.9116 121.808 38.8736 130.33C38.8647 130.19 38.8435 130.051 38.8098 129.913C38.4938 134.441 40.4396 137.832 40.1162 142.254C39.5767 142.232 39.5419 142.917 39.2607 143.25C41.7719 144.018 34.0283 169.281 35.4723 170.84C35.3535 171.3 35.246 171.776 35.1794 172.262C36.306 181.595 41.2037 191.247 40.7627 199.257C39.7132 201.028 38.5257 202.752 37.2063 204.419C38.285 205.836 36.1944 206.108 36.4842 207.816C41.527 212.15 39.4158 214.688 37.6339 212.451C36.9525 216.017 37.399 219.595 37.225 222.764C36.8568 224.233 36.4696 225.693 36.035 227.175C35.613 228.434 36.361 229.136 37.5558 229.77C36.8408 232.991 38.0849 232.041 38.5953 235.418C40.3582 236.235 35.7927 243.887 36.3277 244.842L36.5887 244.29C36.8975 248.194 40.306 250.789 40.4582 254.606C41.7502 265.21 40.4438 276.793 41.0498 286.617C39.2041 286.715 41.4587 284.45 39.0143 284.336C39.3347 290.13 41.627 295.973 41.9358 301.82C42.4055 302.835 43.0845 303.788 43.9481 304.646C44.6367 306.514 43.0665 305.749 43.3044 307.117L44.9716 307.301C43.606 309.3 46.8203 310.224 46.1303 312.106C45.4589 312.206 45.3704 312.893 45.4227 313.562C47.19 313.595 45.2994 315.621 46.9145 315.524L46.7812 315.544C46.7255 315.946 46.8005 316.352 47 316.727C46.3782 317.492 41.5326 324.671 40.7817 325.448L41.073 325.81C41.0195 326.884 39.7073 327.343 39.3896 326.716L39.4897 328.04L39.6103 327.888L39.71 329.204C39.9243 329.39 40.2246 329.508 40.5504 329.535C40.8763 329.561 41.2034 329.494 41.4661 329.347C41.1446 329.68 40.9217 330.059 40.8121 330.461C40.7026 330.863 40.709 331.278 40.8309 331.677C39.6165 329.314 38.1377 327.032 36.4102 324.856C35.8028 325.747 36.7437 327.358 36.5509 328.325C37.7194 329.479 38.7126 331.852 39.5173 333.698C39.4157 334.104 37.4441 334.384 38.3138 335.304C39.6768 335.754 38.2631 336.344 39.2492 337.11C39.974 336.23 39.6464 335.37 39.5767 334.479C41.1831 334.631 40.667 336.648 41.1207 337.352C40.6148 337.683 41.1397 339.403 40.6931 340.484C42.2357 340.013 41.6789 341.356 42.5083 341.997C42.6939 342.726 42.0733 343.192 41.5296 342.896C39.8478 343.132 40.5251 339.996 38.7619 341.011C39.5752 341.278 39.294 342.707 39.2201 343.475C38.3038 343.484 38.5241 342.95 37.6484 343.448C37.85 344.303 36.7481 345.209 37.6977 345.7C37.9471 345.539 37.7906 345.187 37.7675 344.937C37.8601 346.05 43.748 338.905 43.2144 340.346C42.4011 339.971 37.7791 346.684 37.7224 345.943C37.2701 345.265 36.0682 346.428 35.7478 345.726L36.8568 344.947C36.5148 343.987 34.911 343.593 34.2818 343.931C34.427 345.539 40.5367 339.364 39.6103 340.739L39.1752 340.18C38.5793 340.763 38.0618 342.32 39.0258 342.921C38.1226 342.925 37.8022 343.71 37.4744 344.361L37.6267 344.592C37.1686 345.265 37.3844 346.205 36.1869 345.768C36.3321 341.822 26.9803 348.362 26.4571 344.541C28.4578 346.144 28.5071 344.001 28.7405 342.32C28.1946 342.104 27.7164 341.802 27.3375 341.437C26.9586 341.071 26.6877 340.65 26.5426 340.2C26.6991 339.152 27.2748 339.583 27.7823 339.383C27.3312 338.803 26.9557 337.693 25.9019 337.838C27.1557 337.022 25.1013 336.534 25.5334 335.555C26.1132 334.692 26.077 335.613 26.683 335.001C26.5497 333.706 26.3716 331.891 26.1293 330.861C25.1435 330.463 23.3934 329.248 21.8639 330.132C22.0726 332.095 24.3575 329.384 24.027 331.427C21.7709 330.548 23.4094 333.235 21.7015 333.606C20.685 332.955 20.6735 331.636 20.9562 330.533L21.2549 330.754C21.5521 329.782 22.0219 327.836 20.8157 326.785C20.0241 327.032 19.4281 326.573 19.234 327.288L19.0846 325.949C19.3352 325.779 19.5921 325.604 19.7732 325.99C20.0101 325.725 20.1196 325.408 20.0838 325.09C20.0479 324.772 19.8689 324.473 19.576 324.241C18.7393 324.096 23.0991 317.121 22.5729 317.337C22.5991 316.372 21.3404 316.139 22.1914 315.199C22.8729 315.1 19.3236 324.418 19.5947 323.143C18.6757 322.319 23.785 312.213 22.1959 311.613C22.2582 310.899 22.4352 310.037 23.2862 310.204C22.8729 308.997 21.6638 310.566 20.8677 309.706C21.0013 309.687 21.2926 309.776 21.2623 309.502L20.1892 308.676C21.5073 306.801 19.7919 304.051 21.5349 302.087C20.6141 302.656 19.0003 303.304 18.1668 304.568L18.6134 304.789C18.3524 304.969 18.0581 306.009 17.2098 305.979C16.9347 305.41 16.8302 304.802 16.9036 304.198C16.9771 303.595 17.2266 303.011 17.6347 302.488C17.4226 302.249 17.1912 302.019 16.9416 301.801C17.0516 301.813 17.1625 301.819 17.2736 301.82C16.746 301.407 16.6605 301.451 16.3282 301.602C16.2576 301.622 16.1924 301.652 16.1355 301.689C13.649 300.936 17.7116 296.976 16.4241 294.785C16.7748 294.139 16.8461 294.724 17.3214 293.92C16.3411 291.925 15.5652 289.877 15.0003 287.793C16.0717 287.045 16.4995 286.987 17.6187 287.89L17.2692 286.121C14.4145 287.73 14.5463 282.818 11.6961 284.591C11.3567 284.218 11.1489 283.788 11.0921 283.339C11.0353 282.889 11.1313 282.437 11.3712 282.023C12.0904 281.924 13.2431 281.768 13.2401 280.522C12.2876 278.787 12.6341 279.2 11.7177 277.764C10.7842 277.425 10.4142 277.951 9.66776 277.891C10.8653 275.675 7.63644 275.957 7.81491 273.868C8.09014 272.559 8.20178 269.973 9.83878 269.91C9.76483 268.146 8.56579 268.146 7.23466 268.322Z" fill="#F6EAFC" />
</svg>
