<svg width="580" height="603" viewBox="0 0 580 603" fill="none" xmlns="http://www.w3.org/2000/svg">
<path d="M150.936 24.5941C153.041 24.1683 154.185 25.3995 155.132 27.1253C156.89 30.3286 160.57 29.49 163.267 31.1773L162.213 33.7289L167.332 32.9817L167.028 32.484C170.044 33.1088 173.064 33.7093 176.074 34.366C178.602 34.9176 181.119 35.5253 183.638 36.1245C188.026 37.1683 192.439 38.1092 196.785 39.3195C199.345 40.0324 201.804 41.1629 204.296 42.1385C208.016 43.5944 211.686 45.2041 215.45 46.5183C219.52 47.9394 223.672 49.102 227.794 50.3571C228.12 50.4563 228.736 50.2822 228.802 50.4288C231.496 56.4805 237.479 53.2695 241.624 55.3986C245.669 57.2399 249.858 58.7114 254.142 59.7961C254.887 60.0218 255.927 59.1609 256.054 59.1102L277.405 63.9586C276.423 64.7259 275.775 65.2322 275.127 65.7381C278.556 68.8138 288.776 70.8038 291.321 69.2153C294.529 70.8744 297.555 72.3308 300.48 73.9827C303.456 75.6635 306.768 76.0004 309.94 76.8613C313.295 77.7716 316.726 78.366 320.125 79.0886C320.348 79.1359 320.65 79.0035 320.807 79.1169C325.801 82.7198 331.674 81.7774 337.172 82.8149C340.722 83.4848 345.009 83.698 347.465 85.9082C350.143 88.3185 352.534 88.3112 355.492 88.6731C357.122 92.3876 360.817 91.7626 363.499 92.2527C365.455 96.5084 369.459 95.6588 372.526 97.0964C372.431 97.7589 372.324 98.4992 372.183 99.476L389.062 104.758C388.477 105.506 388.009 106.104 386.899 107.521C400.552 113.141 413.918 118.643 427.329 124.164C424.399 126.491 426.497 128.181 428.831 129.518C430.99 130.755 433.34 131.628 435.679 132.695C435.283 134.81 437.674 136.758 443.839 138.757C442.112 140.694 440.515 142.486 438.918 144.277L437.251 144.912L440.58 150.53L432.569 157.086C432.439 161.802 436.308 162.329 439.453 163.353C450.027 166.798 460.653 170.065 471.261 173.398C475.087 174.6 478.916 175.794 483.021 177.079C482.594 171.058 482.247 166.153 481.916 161.497C485.841 163.777 489.265 165.772 492.703 167.742C492.855 167.829 493.13 167.684 493.347 167.646C493.419 172.393 498.983 173.917 499.359 178.415C499.461 179.634 498.929 180.901 498.501 183.106C506.684 185.941 515.004 188.374 522.982 191.707C531.846 195.411 540.67 199.603 546.65 207.882C547.767 209.769 548.178 212.007 547.806 214.168C546.229 223.61 540.401 230.565 534.34 237.184C530.419 241.466 525.909 245.166 521.767 249.24C521.153 249.844 521.281 251.187 520.776 251.992C519.873 253.283 518.901 254.522 517.865 255.702C518.163 255.96 518.781 256.493 519.854 257.418C518.439 257.827 517.411 258.509 516.585 258.299C511.196 256.931 505.344 257.186 500.691 253.092C499.754 252.267 498.024 252.43 496.67 252.089C495.478 251.789 493.621 252.967 493.365 250.433C493.332 250.11 492.465 249.816 491.95 249.597C480.585 244.768 468.832 245.078 457.009 246.325C456.366 246.327 455.741 246.525 455.212 246.894C462.957 249.318 470.703 251.743 478.448 254.168C492.238 258.509 506.254 262.209 519.741 267.416C531.063 271.788 541.857 277.763 550.931 286.468C551.741 287.17 552.591 287.822 553.477 288.417C556.902 290.977 557.633 293.669 556.677 297.854C554.708 306.471 549.479 313.055 544.377 319.695C542.323 322.368 539.181 324.269 537.591 327.154C536.526 329.086 535.901 330.485 533.815 331.621C532.604 332.281 532.959 335.577 532.088 337.417C531.503 338.652 530.003 339.415 528.792 340.498L530.645 342.138C530.376 342.48 530.224 342.808 530.113 342.792C526.369 342.411 522.643 341.829 518.951 341.051C516.192 340.354 513.671 338.669 510.951 337.721C487.689 329.612 464.415 321.541 441.129 313.508C427.808 308.892 414.49 304.269 401.175 299.638C400.404 299.371 399.62 299.148 398.266 298.725C410.064 304.499 421.312 309.974 432.535 315.504C448.606 323.423 464.635 331.434 480.743 339.268C483.251 340.291 485.845 341.065 488.489 341.579C488.87 341.678 489.506 341.289 489.826 340.934C491.052 339.579 491.902 337.67 494.335 338.461C494.569 338.537 495.243 337.104 495.924 336.044C497.122 336.66 498.225 337.463 499.192 338.423C503.73 344.618 508.752 350.573 512.351 357.317C514.962 362.211 517.593 367.914 514.971 374.029C514.746 374.555 515.3 375.393 515.241 376.06C515.011 378.692 514.698 381.316 514.372 383.937C514.314 384.398 513.899 384.826 513.9 385.272C513.915 391.253 510.318 393.422 505.279 393.928C501.859 394.449 498.397 394.643 494.934 394.506C489.673 394.019 488.579 394.334 485.84 399.625C492.013 402.498 498.285 405.128 504.307 408.28C518.832 415.882 533.323 423.564 547.656 431.549C554.07 435.048 560.206 439.077 566.003 443.596C569.481 446.362 571.915 450.579 574.694 454.243C576.269 456.072 577.569 458.135 578.549 460.361C580.156 464.821 578.323 472.956 574.436 473.685C569.962 474.523 570.887 477.923 569.805 479.968C566.981 485.303 562.722 487.986 557.299 487.613C553.828 487.374 553.53 490.395 551.461 491.448C548.908 492.948 546.485 494.67 544.217 496.596C543.206 497.358 542.299 498.267 540.561 499.802C537.301 498.643 532.332 499.432 529.096 494.184C527.644 491.829 524.023 490.894 521.397 489.297C520.708 488.879 520.056 488.395 519.939 488.316C515.878 492.53 511.845 496.54 508.026 500.756C506.264 502.703 504.666 503.543 501.943 502.722C479.324 495.905 456.597 489.478 434.035 482.456C412.924 475.885 391.523 471.546 369.408 470.954C374.792 473.075 380.189 475.163 385.558 477.326C392.23 480.014 398.727 482.95 403.424 489.009C404.533 490.439 406.356 492.502 407.838 488.738L408.804 488.69C410.328 492.579 411.852 496.468 413.65 501.055C416.513 496.686 422.256 502.258 424.011 495.982C425.588 497.921 426.437 500.064 429.364 499.043C430.116 498.78 432.686 500.973 433.977 503.338C435.679 506.457 439.379 508.427 442.19 510.864C440.942 511.222 439.517 511.629 438.165 512.016C440.558 512.916 442.711 513.726 444.863 514.535C444.793 514.967 444.722 515.398 444.651 515.829L442.11 516.362C443.648 518.401 445.209 520.471 446.77 522.541L447.346 522.061C446.757 521.217 446.167 520.374 445.978 520.103C445.475 517.445 450.811 517.436 447.414 514.159C449.746 514.933 452.357 515.269 452.847 518.165C454.924 519.139 457.05 520.137 459.177 521.135L459.218 521.99C455.898 522.538 452.578 523.086 449.258 523.635L449.249 524.722C450.568 525.135 451.951 526.028 453.194 525.867C456.427 525.451 459.586 524.507 462.802 523.926C463.555 523.79 464.869 524.006 465.133 524.502C465.419 524.987 465.607 525.526 465.687 526.086C465.767 526.646 465.736 527.215 465.596 527.759C465.031 528.971 463.743 529.814 462.457 531.128L458.614 526.544C457.939 528.321 457.939 528.321 464.079 535.499C463.545 536.812 463.041 538.05 462.348 539.754C461.522 538.677 460.614 537.492 459.399 535.907C459.003 536.705 458.195 537.716 458.401 538.035C459.038 539.025 459.992 540.34 460.946 540.472C463.926 540.884 464.936 542.488 464.762 545.648C463.88 545.576 462.894 545.81 462.43 545.404C460.176 543.515 458.053 541.465 456.075 539.269C454.005 536.865 452.103 536.633 450.367 538.574L441.469 531.961C440.585 532.223 439.655 532.293 438.739 532.167C431.261 530.093 423.831 527.83 416.361 525.721C414.986 525.467 413.593 525.339 412.2 525.337C413.481 527.184 414.348 528.435 415.193 529.653L418.499 527.507L419.109 528.152C418.845 528.843 418.581 529.534 418.282 530.315C419.319 531.19 420.438 531.954 421.622 532.597C422.59 532.843 423.594 532.887 424.574 532.726C424.89 532.716 425.218 532.296 425.503 532.341C428.296 532.782 431.081 533.283 433.862 533.768C432.898 535.094 431.936 536.419 430.978 537.743C430.565 537.122 430.152 536.501 429.739 535.881L435.709 537.749L436.093 536.953C435.334 535.893 434.575 534.833 433.816 533.774C436.4 532.352 438.452 533.259 438.683 535.926C438.944 538.924 440.082 539.995 442.878 539.9C443.455 539.881 444.229 539.696 444.585 540C447.144 542.2 450.349 543.424 453.655 543.464C454.395 543.49 455.109 544.787 455.835 545.499C454.798 545.843 453.627 546.697 452.75 546.438C449.855 545.583 447.069 544.318 444.236 543.225C442.177 542.43 440.11 541.658 438.046 540.876C437.867 541.301 437.688 541.725 437.509 542.15C440.465 543.405 443.421 544.66 446.969 546.167L443.674 547.767C441.682 545.503 439.849 543.673 436.568 544.129C435.138 544.328 433.485 542.964 431.934 542.31L432.245 541.232C433.631 541.447 435.016 541.663 436.402 541.879L436.795 540.998C435.616 540.574 434.453 540.089 433.255 539.739C431.636 539.265 429.938 539.045 428.373 538.436C426.971 537.786 425.615 537.035 424.313 536.189C424.15 536.482 423.986 536.775 423.823 537.067L431.015 541.286C426.42 542.21 422.422 537.087 417.461 540.753C419.919 541.734 422.141 542.772 424.451 543.504C427.109 544.347 429.902 544.737 432.534 545.649C436.561 547.045 440.507 548.705 444.469 550.301C444.825 550.445 445.342 551.009 445.291 551.267C444.764 553.917 446.581 554.12 448.303 554.639C449.292 554.988 450.123 555.71 450.627 556.659C447.528 555.689 443.154 555.682 441.622 553.528C439.214 550.141 435.536 550.727 433 548.455C430.676 546.373 425.686 548.023 424.045 551.186C425.119 551.841 426.232 552.424 427.377 552.931C428.428 553.239 429.501 553.458 430.585 553.585L430.49 554.498C427.528 554.131 424.566 553.763 421.605 553.396L421.343 554.216L428.868 556.571L428.32 556.976C429.043 557.656 429.766 558.335 431.188 559.669L426.562 558.221L426.204 558.914C427.584 559.635 429.244 561.259 430.297 560.922C435.152 559.372 437.751 563.043 440.869 565.817C438.893 565.454 436.918 565.091 434.942 564.729C434.849 565.124 434.756 565.52 434.663 565.916C435.723 566.439 436.783 566.961 438.273 567.696C437.369 568.36 436.754 568.812 435.774 569.532C449.499 573.948 462.875 578.221 475.347 585.66C475.181 586.601 474.94 587.977 474.746 589.079C471.785 588.694 468.898 588.319 466 587.942C464.73 585.634 463.469 584.215 460.244 584.301C457.287 584.381 454.227 582.373 451.257 581.165C449.658 580.515 448.153 579.614 446.605 578.826L446.03 579.905L472.41 597.308C471.866 598.814 471.253 600.509 470.583 602.364C470.219 601.435 469.879 600.568 469.553 599.737C467.157 600.143 463.314 597.423 461.901 595.821C460.015 593.681 457.414 592.205 455.077 590.508C454.632 590.185 453.907 590.29 453.445 589.981C450.176 587.796 447.006 585.446 443.684 583.357C437.811 579.665 431.965 575.892 425.875 572.627C423.335 571.265 420.199 571.117 416.746 570.274C415.624 571.263 413.854 572.72 412.377 569.388C412.18 569.109 411.919 568.886 411.619 568.737C411.319 568.589 410.988 568.52 410.658 568.537C407.651 570.255 405.521 569.227 403.75 565.462C403.456 566.907 403.343 567.462 403.289 567.727C402.379 567.72 401.471 567.653 400.568 567.527C398.403 567.084 396.228 566.643 394.104 566.023C387.124 563.987 380.171 561.845 373.194 559.794C367.788 558.205 362.381 556.613 356.94 555.17C352.891 554.095 348.778 553.297 344.711 552.296C342.569 551.768 340.464 551.075 338.345 550.444C337.673 550.244 336.971 549.738 336.352 549.831C334.68 550.007 332.991 549.626 331.529 548.744C326.977 546.587 321.961 545.503 316.907 543.922C317.171 543.669 317.886 542.984 318.679 542.223C316.777 539.285 315.041 541.142 313.946 542.024C306.725 540.395 300.056 538.891 293.116 537.325C293.291 536.955 293.546 536.42 293.945 535.582L269.526 529.761C269.627 528.865 269.756 527.726 269.885 526.587C268.578 526.721 267.261 526.746 265.947 526.661C264.904 526.516 263.944 525.763 262.898 525.524C256.984 524.172 251.055 522.893 245.131 521.589C244.881 521.178 244.63 520.767 244.379 520.356C245.413 520.256 246.448 520.156 247.482 520.056L247.502 519.269C242.609 518.101 237.716 516.933 232.824 515.765C231.437 515.336 231.144 511.806 228.409 514.538C228.245 514.702 227.624 514.372 227.214 514.279C223.368 513.406 219.15 513.282 215.783 511.45C212.536 509.685 209.028 510.073 206.068 508.704C199.643 505.734 192.857 505.389 186.18 504.107C182.596 503.419 179.103 502.197 175.55 501.296C172.581 500.544 169.585 499.909 166.341 499.162L167.448 496.784C164.304 495.985 161.306 495.223 157.985 494.378L158.189 491.97L140.834 486.539C141.422 485.088 141.933 483.825 142.73 481.857L145.34 480.871C144.224 478.896 143.198 477.079 142.172 475.263L140.938 474.969C142.749 472.716 144.709 470.598 146.805 468.627C150.059 465.931 145.036 462.905 148.503 459.611C121.941 451.259 96.2682 443.202 70.6042 435.112C55.9351 430.488 41.2679 425.855 26.6273 421.132C22.2377 419.716 21.1064 417.888 20.8859 413.125C20.3154 400.798 24.4779 390.069 30.8438 380.063C31.8263 378.518 32.67 376.879 33.8024 374.888C29.6383 373.585 25.6908 372.449 21.8064 371.11C16.4912 369.278 15.3701 367.534 15.2132 361.852C14.8776 349.692 18.9272 339.074 25.4468 329.316C26.4849 328.124 27.4051 326.826 28.194 325.443C28.9494 323.575 27.8282 322.466 26.0183 321.894C20.1896 320.05 14.3738 318.161 8.57071 316.228C1.22461 313.783 0.430839 312.843 0.281534 304.942C0.0707219 293.783 4.451 284.163 9.74189 274.882C11.1309 272.445 12.2834 269.859 13.7232 267.458C14.5445 266.166 15.5309 264.995 16.656 263.978C18.8251 261.841 21.1105 259.833 23.5016 257.965C24.6341 257.056 26.055 256.614 27.4944 256.722C33.0658 257.882 38.5725 259.397 44.1017 260.788C44.867 261.089 45.6661 261.283 46.4782 261.365C47.1938 261.336 48.2084 261.027 48.4921 260.494C48.58 260.123 48.5771 259.734 48.4839 259.362C48.3906 258.99 48.2098 258.647 47.9578 258.363C46.7371 257.225 45.7738 255.822 45.1381 254.258C44.5024 252.693 44.2105 251.006 44.2835 249.319C44.2697 248.174 42.4979 246.446 41.2106 245.993C37.5661 244.711 34.1087 243.935 34.6058 238.51C34.8648 235.683 32.9174 232.439 33.599 229.867C35.0915 224.235 33.7873 217.004 40.6361 213.895C40.7874 213.822 40.9196 213.713 41.0224 213.576C41.1253 213.44 41.196 213.281 41.2289 213.111C41.0553 210.375 43.2725 209.708 44.6438 208.102C48.261 203.865 52.891 202.604 57.6828 200.778C62.5608 198.918 67.2599 199.089 72.0312 199.804C79.0284 200.854 85.9117 203.1 92.9191 203.686C101.299 204.388 109.759 203.878 118.184 203.893L118.394 202.613C117.397 202.015 116.359 201.493 115.289 201.051C110.168 199.339 105.002 197.774 99.8868 196.042C90.3596 192.816 89.2913 191.622 90.0648 181.173C90.786 171.432 94.5882 162.675 99.3093 154.309C100.99 151.33 101.936 147.901 103.228 144.682C103.757 143.637 104.196 142.545 104.539 141.418C104.657 140.324 104.659 139.218 104.545 138.121L103.599 137.635L111.27 132.57C102.413 129.798 93.0419 126.943 83.7199 123.921C77.3592 121.859 71.0375 119.651 64.7539 117.341C59.9941 115.591 58.8124 113.569 58.6847 108.404C58.3825 96.1749 62.8424 85.7188 69.3298 75.9483C70.7275 73.8434 71.6381 71.3948 72.8889 69.1754C73.4625 68.1392 74.196 67.2084 75.0609 66.4194C77.6847 64.0905 80.3264 61.7665 83.127 59.6765C84.1496 58.9316 85.4116 58.6183 86.6596 58.7995C91.1703 59.8524 95.597 61.3079 100.1 62.4029C101.59 62.6416 103.108 62.3937 104.444 61.6938C101.422 59.447 100.811 54.1845 96.403 55.0448C91.6737 49.3338 87.0942 43.8037 82.3434 38.0668L85.4803 37.9542L84.0936 33.6337C87.4974 32.2866 91.2026 27.6934 90.8352 24.5059C92.7145 24.291 94.6277 24.1795 96.4959 23.8284C98.378 23.4747 100.084 22.6003 99.5916 20.1752C98.6402 15.4905 102.732 14.5268 105.01 12.4836C106.401 11.2363 108.893 11.3628 110.801 10.6285C111.407 10.395 111.709 9.36573 112.177 8.72163C112.398 8.2962 112.715 7.93348 113.102 7.66414C118.586 5.37926 124.023 2.94041 129.633 1.03114C131.181 0.504317 133.383 1.28566 135.059 2.02803C136.633 2.72493 137.897 3.84475 139.433 2.15215C139.527 2.04851 140.535 2.47474 140.569 2.72613C141.01 6.01091 144.378 6.15795 145.91 8.20356C146.39 9.07842 146.728 10.0268 146.912 11.011C147.649 13.3397 147.892 16.0304 149.219 17.9136C150.777 20.1261 151.631 22.1216 151.025 24.7387C147.865 22.4457 144.698 20.1462 141.158 17.5753C141.182 23.1778 145.596 25.1822 148.521 28.0008C149.601 29.0413 152.134 28.4647 154.521 28.6703C152.917 26.8454 151.926 25.7197 150.936 24.5941ZM141.045 58.826C142.157 59.0757 143.256 59.3847 144.338 59.7516C145.753 60.3061 147.112 61.0203 148.496 61.6659L149.21 60.8957C148.691 59.8361 148.327 58.0243 147.624 57.8604C145.59 57.534 143.53 57.4574 141.485 57.6323C141.339 57.6351 141.219 58.4827 141.082 58.9249C139.473 57.3986 137.916 55.8024 136.193 54.4319C135.97 54.2545 134.886 55.2443 134.201 55.6934L134.209 57.0275C136.488 57.627 138.766 58.2265 141.045 58.826ZM119.936 45.9667C123.483 47.6113 119.89 48.5887 119.513 50.3319C121.251 49.9987 122.631 49.328 123.844 49.5796C127.203 50.2765 130.5 51.3275 133.805 52.3003C135.386 52.7656 136.897 53.5642 138.497 53.8777C144.278 55.0102 150.39 54.7609 155.493 58.6278C155.562 58.6801 155.813 58.4736 155.978 58.3878L154.637 59.0801L152.037 49.5234L151.099 50.7809L146.025 51.6829L145.891 50.6177L149.135 50.498C146.62 45.9601 142.373 49.5591 138.496 47.1666C140.094 47.214 140.891 47.3097 141.672 47.2418C142.557 47.1649 143.428 46.9413 144.997 46.6554L141.394 43.7988C142.891 39.9293 142.891 39.9293 138.619 39.0471C138.122 35.5706 138.122 35.5706 131.011 31.522C130.67 32.0447 130.448 32.7844 129.975 33.0436C126.723 34.8285 125.71 31.8692 124.345 29.8031C121.695 30.6973 119.262 33.9114 116.981 30.2402C116.727 32.4689 116.465 34.7613 116.203 37.0538C117.224 37.7718 117.59 39.2257 117.962 40.6782C118.111 41.2619 118.271 41.8428 118.425 42.425C119.046 42.2256 119.802 42.1927 120.262 41.7949C121.537 40.6908 122.69 39.4348 124.057 38.0733C124.493 38.7875 125.016 39.3247 124.916 39.5291C123.958 41.5461 122.898 43.5091 121.742 45.4101C121.481 45.8268 120.555 45.793 119.936 45.9667ZM121.637 66.6418L121.764 65.3834C118.136 66.3283 115.092 65.714 114.543 61.8261C114.117 58.8157 112.74 58.7293 111.228 59.2123C108.407 56.2916 105.86 53.6546 103.313 51.0177L102.517 51.7426C103.114 52.8525 103.818 53.8983 104.617 54.8639C106.55 56.7974 108.651 58.3269 109.288 61.4833C109.947 63.468 111.308 65.1286 113.094 66.1281C114.705 67.0857 116.916 66.9442 118.864 67.2848L118.653 67.9091C119.648 67.4866 120.643 67.0642 121.637 66.6418ZM168.459 58.7288L167.98 55.8593C167.349 55.9918 166.39 55.8987 166.139 56.293C164.324 59.1489 163.4 59.0943 161.663 55.7636C160.511 53.5536 158.894 53.2522 156.869 54.0094C160.194 57.9276 163.611 61.4331 168.975 61.5513C169.508 61.563 170.01 62.4609 170.567 62.89C172.108 64.0765 174.827 63.8111 175.78 62.3492L171.79 62.3213C172.095 60.761 172.337 59.527 172.58 58.284L168.459 58.7288ZM122.842 9.87776C125.536 13.2392 127.599 15.5874 129.404 18.13C131.198 20.6557 132.999 17.5877 134.73 18.4387C134.722 17.7891 134.975 16.7978 134.666 16.5433C131.89 14.2602 129.079 12.0059 126.125 9.98708C125.401 9.49238 124.112 9.89202 122.842 9.87776ZM154.989 60.1157L154.016 60.6692C154.563 61.7936 154.845 63.4996 155.708 63.9278C158.156 64.942 160.669 65.7722 163.228 66.4117C163.099 65.0152 163.287 63.2154 162.846 63.0269C161.645 62.7451 160.406 62.6905 159.192 62.8658L159.113 63.5749C157.738 62.4218 156.364 61.2688 154.989 60.1157ZM165.242 65.1959C166.371 68.5547 168.004 67.0752 169.413 66.004C172.679 67.0286 174.721 70.7162 178.416 70.2152C174.228 68.1671 170.97 63.0802 165.242 65.1959ZM420.551 537.127C420.675 536.76 420.8 536.394 420.925 536.027C418.142 534.978 415.358 533.928 411.552 532.494C413.079 534.976 417.506 535.168 413.112 538.786C415.595 539.005 417.083 539.136 418.808 539.288L416.281 536.529L416.762 535.941L420.551 537.127ZM138.23 25.8316L138.41 24.1962C136.258 24.198 134.42 20.6875 132.017 23.8585C131.832 24.1025 132.046 24.6726 132.114 25.6571C132.888 24.9552 133.279 24.6006 133.05 24.8079C135.052 25.2036 136.641 25.5176 138.23 25.8316Z" fill="#FADE4F"/>
</svg>
