<svg width="82" height="83" viewBox="0 0 82 83" fill="none" xmlns="http://www.w3.org/2000/svg">
<path d="M81.4537 8.36553C81.2129 8.14817 80.9106 8.01097 80.5884 7.97292C80.2663 7.93487 79.9403 7.99783 79.6555 8.1531C79.3707 8.30838 79.1412 8.5483 78.9986 8.83969C78.8561 9.13109 78.8076 9.45956 78.8599 9.7797C78.8616 9.79052 78.866 9.79894 78.8679 9.8095C78.1602 9.8391 76.399 9.12985 76.2516 9.10817C75.565 8.99531 74.8606 9.12929 74.2634 9.48634C72.9403 10.2848 72.3258 11.9545 71.9644 13.3704C71.5103 15.1501 71.4789 17.5564 69.5523 18.4047C67.7702 19.1894 65.5704 18.5703 63.6883 19.0484C62.9969 19.2048 62.3489 19.5126 61.7909 19.9497C61.2329 20.3868 60.7788 20.9422 60.4613 21.576C59.5457 23.442 60.3336 25.3006 59.9144 27.1782C59.4875 29.0906 57.9921 27.9183 56.8308 27.6668C56.456 27.5837 56.0691 27.5709 55.6897 27.629C57.0517 23.9217 57.3321 19.9037 56.4983 16.0432C54.6632 7.57872 45.4785 -3.58801 35.7562 1.11552C35.6289 1.17104 35.5151 1.25327 35.4223 1.35664C35.3296 1.46001 35.2602 1.5821 35.2188 1.71465C28.5203 1.74636 21.8423 6.16704 18.5774 11.8567C16.8487 14.8694 16.2257 18.1381 16.0569 21.4906C15.8444 21.326 15.5968 21.2125 15.3334 21.1587C15.07 21.1049 14.7978 21.1123 14.5377 21.1803C14.0448 21.3501 13.5946 21.6247 13.2179 21.9851C12.8469 22.356 12.4286 22.6763 11.9737 22.9376C11.3738 23.5323 11.0297 23.4361 10.9412 22.6491C10.0418 21.4408 10.4086 18.7827 10.3865 17.3536C10.3568 15.4352 11.0391 10.6979 7.68836 11.2122C6.17645 11.4443 5.28816 13.0002 3.89923 13.4C3.54443 13.8614 3.22264 13.8586 2.93381 13.3915C2.81143 12.9145 2.75909 12.4221 2.77846 11.93C2.76175 11.0519 2.84194 10.1747 3.01756 9.31429C3.12083 9.22592 3.20157 9.11423 3.25312 8.98847C3.30467 8.86271 3.32553 8.7265 3.31399 8.59108C3.30045 8.39404 3.28692 8.19697 3.2734 7.99993C3.18232 6.67252 1.02807 6.3383 0.661517 7.68528C0.0328698 9.99521 -0.889804 14.6853 1.93684 15.9848C3.24468 16.5861 4.46178 15.9783 5.56487 15.2482C5.88423 15.0368 7.64028 13.7451 7.7169 13.8219C8.00591 14.1117 7.74356 16.8956 7.7531 17.3536C7.80087 19.6447 7.51098 24.4063 10.2272 25.4356C11.5032 25.9191 12.8901 25.1948 13.9078 24.4595C14.1314 24.3188 14.3475 24.1664 14.5551 24.0031C14.6439 24.9356 15.2286 26.4515 15.4257 27.0911C15.473 27.248 15.5628 27.3887 15.6851 27.4976C15.8075 27.6066 15.9577 27.6794 16.119 27.7082C16.3262 31.232 16.9613 34.9232 19.5838 37.4541C22.1315 39.9128 25.7217 40.4578 29.1658 40.5068C28.6052 42.0537 28.585 43.7449 29.1085 45.3048C29.1217 45.5918 29.1324 45.8771 29.131 46.1567C29.1216 47.929 29.0481 49.7001 28.8829 51.4651C28.5217 55.1683 27.8033 58.8279 26.7375 62.3928C26.6742 62.6374 26.6969 62.8963 26.802 63.126C26.907 63.3558 27.088 63.5424 27.3144 63.6544C28.5543 64.3453 29.8312 64.9678 31.1392 65.5191C29.0027 70.2909 29.2902 76.3394 30.8245 81.2365C31.2776 82.6824 33.8159 82.1528 33.3957 80.6056C32.0486 75.6444 32.389 71.2909 33.2403 66.3321C35.0213 66.9649 36.849 67.4574 38.7068 67.8054C40.579 68.1547 42.475 68.362 44.3784 68.4254C44.5475 68.4309 44.7166 68.4279 44.8857 68.431C43.8251 71.6074 44.2249 75.37 45.574 78.3614C46.1649 79.6715 48.66 79.2246 48.0856 77.7451C46.8174 74.4796 46.8794 71.7431 47.3691 68.3952C47.3915 68.3941 47.414 68.3943 47.4364 68.3931C48.2957 68.3469 49.5335 68.0254 50.4582 68.2004C50.4599 68.2465 50.4588 68.2931 50.4608 68.3392C50.5109 69.5078 52.5492 69.8363 52.786 68.6193C53.4111 65.4061 53.3975 61.9998 53.623 58.7362C53.8744 55.0982 54.1073 51.4591 54.3217 47.819C54.5216 44.3247 54.7107 40.8299 54.8889 37.3344C54.9827 35.4939 55.1507 33.6139 55.2583 31.7353C55.6431 30.8677 55.8356 29.8363 56.8305 29.8512C57.8399 29.8662 58.6333 30.4902 59.743 30.3365C61.8144 30.0495 62.2809 28.4253 62.2625 26.5737C62.2501 25.3226 62.035 23.8419 62.5481 22.661C63.3442 20.8284 65.2283 20.9578 66.8987 20.9285C69.0099 20.8915 71.1848 20.7062 72.6306 18.9778C73.9458 17.4054 74.0368 15.3449 74.6501 13.471C74.8801 12.7684 75.0432 11.9569 75.8064 11.775C76.4157 11.6298 76.8054 12.0494 77.3849 12.2185C78.2977 12.4953 79.281 12.4217 80.1425 12.012C81.3262 11.4358 82.8237 9.53583 81.4537 8.36553ZM52.5899 36.0235C52.3631 39.6649 52.1245 43.3056 51.8742 46.9455C51.634 50.4391 51.3934 53.9327 51.1523 57.4264C50.96 60.1894 50.5656 63.0414 50.4634 65.8469C49.5796 65.84 48.6961 65.8879 47.8182 65.9902C45.5863 66.1352 43.3457 66.0672 41.1267 65.7871C37.0355 65.2491 33.0666 64.0141 29.3924 62.1359C30.3156 58.7754 30.9459 55.3413 31.2765 51.8721C31.4575 49.9725 31.5379 48.0647 31.5175 46.1567C31.4979 44.6245 31.6065 43.0579 30.9871 41.6654C30.9736 41.2741 30.9389 40.8838 30.8831 40.4962C31.0375 40.4926 31.1926 40.4895 31.3454 40.485C36.1821 40.3411 41.2297 40.1234 45.7509 38.228C48.4931 37.0767 50.8972 35.2467 52.737 32.91C52.6944 33.9532 52.6539 34.994 52.5899 36.0235ZM53.7916 25.5868C53.6672 25.6325 53.5576 25.7109 53.4743 25.8139C53.3909 25.9168 53.337 26.0404 53.3183 26.1715C53.2362 26.641 53.1699 27.1143 53.1108 27.5894C51.8239 30.8399 49.4965 33.5726 46.4922 35.3605C42.8112 37.5275 38.4073 37.98 34.2289 38.2127C30.6178 38.4138 26.4207 38.8949 23.0681 37.2368C19.3112 35.3787 18.6411 31.0469 18.4787 27.2765C18.3015 23.1605 18.2004 18.7782 19.7733 14.8958C22.8986 7.18209 30.8063 3.48328 38.7477 3.5902C38.8798 3.59895 39.0118 3.5715 39.1295 3.51079C39.2472 3.45009 39.3461 3.35844 39.4155 3.2457C39.485 3.13296 39.5224 3.0034 39.5236 2.871C39.5249 2.73859 39.4901 2.60834 39.4228 2.49428C46.2036 1.95417 51.769 8.76606 53.6366 14.9174C54.688 18.3889 54.7417 22.0862 53.7916 25.5868Z" fill="#7100D2"/>
<path d="M31.2678 18.3698C31.2678 19.0903 30.9816 19.7812 30.4721 20.2907C29.9626 20.8001 29.2717 21.0864 28.5512 21.0864C27.8307 21.0864 27.1397 20.8001 26.6303 20.2907C26.1208 19.7812 25.8346 19.0903 25.8346 18.3698C25.8346 16.8694 27.2438 17.3026 28.5512 16.5666C29.8021 15.8624 31.2678 16.8694 31.2678 18.3698Z" fill="#7100D2"/>
<path d="M38.9351 20.7887C38.9351 22.0509 40.1826 22.9658 41.7215 22.8323C43.2605 22.6988 44.508 21.5672 44.508 20.305C44.508 19.0428 43.0626 19.0339 41.7215 18.5312C40.4384 18.0501 38.9351 19.5265 38.9351 20.7887Z" fill="#7100D2"/>
</svg>
