<svg width="208" height="42" viewBox="0 0 208 42" fill="none" xmlns="http://www.w3.org/2000/svg">
<path d="M35.176 10.194C35.5747 10.8073 35.774 11.436 35.774 12.08C35.8047 12.6933 35.728 13.3067 35.544 13.92C35.3907 14.5333 35.1913 15.1313 34.946 15.714C34.7313 16.266 34.5933 16.7873 34.532 17.278C34.348 17.2473 34.2407 17.2627 34.21 17.324C34.1793 17.3853 34.164 17.4773 34.164 17.6C34.164 17.692 34.1487 17.8147 34.118 17.968C34.118 18.0907 34.072 18.198 33.98 18.29C33.796 18.4433 33.6273 18.612 33.474 18.796C33.3207 18.9493 33.2133 19.1793 33.152 19.486L32.784 19.164C32.416 19.808 31.9867 20.314 31.496 20.682C31.0053 21.05 30.484 21.372 29.932 21.648C29.38 21.924 28.828 22.2 28.276 22.476C27.724 22.7213 27.218 23.074 26.758 23.534C26.114 23.8407 25.4547 24.0707 24.78 24.224C24.1053 24.3467 23.492 24.5613 22.94 24.868C22.7867 24.7147 22.6487 24.6533 22.526 24.684C22.4033 24.684 22.2653 24.73 22.112 24.822C21.9893 24.8833 21.8513 24.96 21.698 25.052C21.5753 25.144 21.422 25.1747 21.238 25.144C20.6553 25.5427 20.0113 25.8033 19.306 25.926C18.6007 26.0487 18.0793 26.1867 17.742 26.34C17.742 26.4933 17.7727 26.708 17.834 26.984C17.926 27.26 18.0333 27.5513 18.156 27.858C18.2787 28.134 18.4013 28.3947 18.524 28.64C18.6773 28.8547 18.7847 28.9773 18.846 29.008C18.9073 29.3147 18.9993 29.5753 19.122 29.79C19.2753 29.974 19.4133 30.1887 19.536 30.434C19.4133 30.3113 19.2753 30.4033 19.122 30.71C18.9993 30.986 19.0147 31.2467 19.168 31.492C19.4133 31.9213 19.49 32.3353 19.398 32.734C19.306 33.1327 19.2293 33.562 19.168 34.022C19.352 34.2367 19.4133 34.39 19.352 34.482C19.2907 34.5433 19.1987 34.6047 19.076 34.666C18.984 34.6967 18.892 34.758 18.8 34.85C18.708 34.942 18.7233 35.0953 18.846 35.31C18.662 35.2487 18.5547 35.4173 18.524 35.816C18.4933 36.2147 18.5087 36.5673 18.57 36.874C18.57 36.7513 18.5087 36.69 18.386 36.69C18.386 36.6593 18.34 36.69 18.248 36.782C18.064 36.69 17.8647 36.6747 17.65 36.736C17.4353 36.7973 17.236 36.9813 17.052 37.288C17.1133 37.288 17.144 37.3187 17.144 37.38C17.1747 37.472 17.19 37.5487 17.19 37.61L16.592 37.104V37.518L16.362 37.104C16.2393 37.0427 16.0553 37.0273 15.81 37.058C15.5647 37.0887 15.3347 36.9967 15.12 36.782C14.108 35.954 13.3107 34.9573 12.728 33.792C12.1453 32.596 11.67 31.3233 11.302 29.974C10.9647 28.594 10.6733 27.1833 10.428 25.742C10.1827 24.3007 9.90667 22.9053 9.6 21.556C9.416 20.82 9.26267 20.038 9.14 19.21C9.048 18.3513 8.97133 17.4927 8.91 16.634C8.84867 15.7447 8.80267 14.886 8.772 14.058C8.74133 13.23 8.71067 12.4787 8.68 11.804C8.46533 11.4667 8.23533 11.3133 7.99 11.344C7.77533 11.344 7.49933 11.298 7.162 11.206C6.426 11.482 5.72067 11.574 5.046 11.482C4.402 11.3593 3.78867 11.1293 3.206 10.792C2.62333 10.424 2.08667 9.964 1.596 9.412C1.07467 8.82933 0.599333 8.216 0.17 7.572C0.231333 7.35733 0.231333 7.21933 0.17 7.158C0.108666 7.066 0.108666 6.974 0.17 6.882L0.86 5.87L0.492 5.778C0.645333 5.71667 0.691333 5.60933 0.63 5.456C0.568666 5.30267 0.522667 5.18 0.492 5.088C0.553333 4.87333 0.660667 4.75067 0.814 4.72C0.936666 4.68933 1.07467 4.674 1.228 4.674C1.35067 4.674 1.458 4.64333 1.55 4.582C1.642 4.49 1.688 4.29066 1.688 3.984C1.71867 4.04533 1.74933 4.076 1.78 4.076C1.81067 4.076 1.84133 4.06067 1.872 4.03C1.90267 3.99933 1.94867 3.99933 2.01 4.03C2.04067 4.03 2.08667 4.076 2.148 4.168L2.24 3.57C2.39333 3.50867 2.516 3.53933 2.608 3.662C2.66933 3.78466 2.77667 3.81533 2.93 3.754C3.114 3.662 3.17533 3.524 3.114 3.34C3.05267 3.156 3.08333 3.03333 3.206 2.972C3.206 3.09466 3.22133 3.23266 3.252 3.386C3.28267 3.53933 3.39 3.57 3.574 3.478C3.72733 3.50867 3.91133 3.49333 4.126 3.432C4.34067 3.34 4.55533 3.27867 4.77 3.248C4.98467 3.18667 5.184 3.18667 5.368 3.248C5.58267 3.27867 5.782 3.44733 5.966 3.754C8.082 3.50866 10.1673 3.41666 12.222 3.478C14.2767 3.53933 16.408 3.53933 18.616 3.478V3.57C19.4133 3.662 20.272 3.73867 21.192 3.8C22.1427 3.83066 22.986 3.95333 23.722 4.168C24.1207 4.076 24.5193 4.214 24.918 4.582C25.4393 4.52066 25.93 4.45933 26.39 4.398C26.85 4.33667 27.2947 4.536 27.724 4.996C27.9387 4.87333 28.1687 4.812 28.414 4.812C28.69 4.78133 28.9507 4.87333 29.196 5.088C29.564 5.088 29.978 5.16466 30.438 5.318C30.9287 5.44066 31.3733 5.56333 31.772 5.686C31.8333 5.74733 31.8487 5.79333 31.818 5.824C31.7873 5.85467 31.7567 5.88533 31.726 5.916C31.6953 5.94666 31.6647 5.97733 31.634 6.008C31.634 6.03867 31.68 6.08467 31.772 6.146C32.0787 6.054 32.4773 6.054 32.968 6.146C33.4587 6.20733 33.8727 6.422 34.21 6.79C34.2407 6.85133 34.302 6.94333 34.394 7.066C34.5167 7.18867 34.6087 7.32667 34.67 7.48L34.026 6.974C34.0567 7.31133 34.1333 7.60267 34.256 7.848C34.4093 8.06267 34.5473 8.27733 34.67 8.492C34.7927 8.676 34.9 8.906 34.992 9.182C35.1147 9.42733 35.176 9.76466 35.176 10.194ZM23.998 16.634C24.458 16.4807 24.9487 16.2813 25.47 16.036C25.9913 15.76 26.482 15.4993 26.942 15.254C27.402 14.978 27.816 14.7173 28.184 14.472C28.552 14.2267 28.828 14.0273 29.012 13.874C28.92 13.3527 28.5827 12.8927 28 12.494C27.4173 12.0647 26.6967 11.6967 25.838 11.39C25.01 11.0833 24.09 10.838 23.078 10.654C22.066 10.47 21.0693 10.3473 20.088 10.286C19.1067 10.2247 18.1867 10.2247 17.328 10.286C16.4693 10.3473 15.7793 10.4547 15.258 10.608C15.258 11.0373 15.304 11.6353 15.396 12.402C15.488 13.138 15.58 13.9047 15.672 14.702C15.7947 15.4993 15.902 16.2507 15.994 16.956C16.1167 17.6613 16.1933 18.198 16.224 18.566C16.2853 18.9033 16.3773 19.1027 16.5 19.164C16.6227 19.2253 16.7453 19.2407 16.868 19.21C17.0213 19.1487 17.1747 19.1027 17.328 19.072C17.4813 19.0107 17.6347 19.026 17.788 19.118C18.156 19.0567 18.5547 18.9033 18.984 18.658C19.4133 18.382 19.7507 18.2133 19.996 18.152C20.3333 17.9067 20.732 17.7227 21.192 17.6C21.6827 17.4467 22.158 17.186 22.618 16.818C22.71 16.91 22.7867 16.956 22.848 16.956C22.94 16.9253 23.0167 16.8793 23.078 16.818C23.17 16.7567 23.2467 16.6953 23.308 16.634C23.4 16.542 23.492 16.496 23.584 16.496V16.542H23.768V16.496C23.8293 16.496 23.906 16.542 23.998 16.634ZM23.768 16.312V16.496H23.584V16.312H23.768ZM20.87 17.232H20.732V17.048H20.87V17.232ZM57.7631 2.466C57.6711 2.40467 57.5944 2.40467 57.5331 2.466C57.5024 2.52733 57.4717 2.57333 57.4411 2.604C57.5024 2.66533 57.5177 2.742 57.4871 2.834C57.4871 2.89533 57.4871 2.95667 57.4871 3.018C57.4257 3.11 57.3337 3.14066 57.2111 3.11C57.1191 3.07933 57.0271 3.11 56.9351 3.202C56.9964 3.32466 57.0884 3.35533 57.2111 3.294C57.3644 3.23266 57.4411 3.30933 57.4411 3.524L57.2571 3.708C57.6251 3.708 57.8244 3.76933 57.8551 3.892C57.8857 4.01467 57.8704 4.168 57.8091 4.352C57.7784 4.50533 57.7477 4.65867 57.7171 4.812C57.6864 4.96533 57.8091 5.088 58.0851 5.18C58.1157 5.364 58.0697 5.548 57.9471 5.732C57.8244 5.916 57.7017 6.1 57.5791 6.284C57.4564 6.43733 57.3644 6.57533 57.3031 6.698C57.2724 6.82067 57.3644 6.91267 57.5791 6.974C57.4564 7.066 57.4411 7.14267 57.5331 7.204C57.6251 7.26533 57.7017 7.32667 57.7631 7.388C57.5177 7.72533 57.2417 7.97067 56.9351 8.124C56.6284 8.24666 56.3064 8.354 55.9691 8.446C55.6624 8.50733 55.3404 8.56867 55.0031 8.63C54.6657 8.69133 54.3284 8.79867 53.9911 8.952C53.6537 8.92133 53.3317 8.952 53.0251 9.044C52.7184 9.136 52.4117 9.24333 52.1051 9.366C51.7984 9.458 51.4917 9.53467 51.1851 9.596C50.8784 9.65733 50.5411 9.65733 50.1731 9.596C49.0077 9.964 47.7657 10.24 46.4471 10.424C45.1284 10.608 43.8557 10.8073 42.6291 11.022C42.3224 11.022 42.1997 11.114 42.2611 11.298C42.3531 11.482 42.3377 11.666 42.2151 11.85V17.922C42.4911 17.9833 42.7517 18.0907 42.9971 18.244C43.2424 18.3667 43.4724 18.29 43.6871 18.014C44.2084 18.0447 44.6837 18.014 45.1131 17.922C45.5424 17.7993 46.0024 17.738 46.4931 17.738C46.6464 17.6153 46.8151 17.554 46.9991 17.554C47.2137 17.5233 47.4131 17.508 47.5971 17.508C47.8117 17.508 47.9957 17.508 48.1491 17.508C48.3331 17.4773 48.4864 17.3853 48.6091 17.232C48.8544 17.3547 49.0844 17.3853 49.2991 17.324C49.5137 17.232 49.6977 17.14 49.8511 17.048C50.0044 16.9253 50.1424 16.8333 50.2651 16.772C50.3877 16.7107 50.4797 16.7567 50.5411 16.91C50.7251 17.002 50.8937 17.0173 51.0471 16.956C51.2311 16.864 51.4151 16.7873 51.5991 16.726C51.7831 16.634 51.9517 16.5727 52.1051 16.542C52.2891 16.5113 52.4731 16.588 52.6571 16.772C52.9024 16.588 53.1784 16.4807 53.4851 16.45C53.7917 16.3887 54.1137 16.358 54.4511 16.358C54.7884 16.3273 55.1104 16.2967 55.4171 16.266C55.7544 16.2047 56.0457 16.0973 56.2911 15.944C56.5671 15.852 56.8124 15.8673 57.0271 15.99C57.2724 16.1127 57.5177 16.266 57.7631 16.45L57.9011 16.266L57.5791 16.036C57.9164 15.9747 58.3151 15.9287 58.7751 15.898C59.2351 15.8673 59.6031 16.0207 59.8791 16.358C59.8177 16.4193 59.7564 16.5727 59.6951 16.818C59.6644 17.0633 59.5417 17.2627 59.3271 17.416C59.3577 17.6307 59.4497 17.7533 59.6031 17.784C59.7871 17.784 59.9557 17.784 60.1091 17.784C60.2624 17.784 60.3697 17.8147 60.4311 17.876C60.5231 17.9373 60.5077 18.106 60.3851 18.382L59.9711 18.75C60.1244 18.75 60.2164 18.7807 60.2471 18.842C60.2777 18.9033 60.2777 18.98 60.2471 19.072C60.2164 19.164 60.1857 19.256 60.1551 19.348C60.1551 19.44 60.2011 19.5167 60.2931 19.578C60.2011 19.7313 60.0937 19.854 59.9711 19.946C59.8484 20.038 59.7411 20.13 59.6491 20.222C59.5571 20.2833 59.4957 20.3753 59.4651 20.498C59.4651 20.59 59.5571 20.7433 59.7411 20.958C59.8024 21.05 59.8791 21.096 59.9711 21.096C60.0631 21.0653 60.1704 21.05 60.2931 21.05C60.2317 21.1113 60.1397 21.1727 60.0171 21.234C59.9251 21.2953 59.9097 21.4027 59.9711 21.556C60.0937 21.6173 60.2471 21.602 60.4311 21.51C60.6151 21.418 60.7071 21.5407 60.7071 21.878C60.4924 22.3073 60.1857 22.5987 59.7871 22.752C59.4191 22.8747 59.0204 23.0127 58.5911 23.166C56.2911 23.626 53.8991 24.0093 51.4151 24.316C48.9617 24.592 46.5851 24.96 44.2851 25.42C44.1931 25.5427 44.1164 25.6807 44.0551 25.834C43.9937 25.9567 44.0397 25.972 44.1931 25.88H44.1011C44.2544 26.248 44.4384 26.6313 44.6531 27.03C44.8677 27.398 45.1284 27.7353 45.4351 28.042C45.7417 28.3487 46.0944 28.6093 46.4931 28.824C46.8917 29.008 47.3517 29.1 47.8731 29.1C48.2104 29.0693 48.4864 29.0233 48.7011 28.962C48.9464 28.9007 49.1764 28.8393 49.3911 28.778C49.6057 28.686 49.8204 28.6093 50.0351 28.548C50.2804 28.456 50.5564 28.3947 50.8631 28.364C50.9551 28.3333 51.0777 28.272 51.2311 28.18C51.4151 28.0573 51.6144 27.9193 51.8291 27.766C52.0744 27.6127 52.3044 27.4747 52.5191 27.352C52.7644 27.1987 52.9791 27.076 53.1631 26.984C53.2857 26.8 53.4237 26.6313 53.5771 26.478C53.7611 26.294 53.9144 26.1253 54.0371 25.972V26.156H54.8651L54.6351 25.65C54.7884 25.282 54.9571 25.1287 55.1411 25.19C55.3251 25.2207 55.5091 25.2973 55.6931 25.42C55.8771 25.5427 56.0304 25.6347 56.1531 25.696C56.3064 25.7267 56.4291 25.5733 56.5211 25.236C56.7357 25.1747 56.9351 25.1133 57.1191 25.052C57.3337 24.9907 57.4564 24.8527 57.4871 24.638H57.7631C57.7324 24.6687 57.7631 24.73 57.8551 24.822C57.8857 24.73 57.9164 24.6533 57.9471 24.592C58.0084 24.5307 57.9931 24.4693 57.9011 24.408H57.7631L57.8551 24.178C58.1924 24.5153 58.3764 24.8987 58.4071 25.328C58.4377 25.7267 58.3917 26.11 58.2691 26.478C58.4837 26.5393 58.5604 26.662 58.4991 26.846C58.4377 26.9993 58.5144 27.122 58.7291 27.214C58.6984 27.2753 58.6371 27.3367 58.5451 27.398C58.4837 27.4593 58.4991 27.536 58.5911 27.628C58.7137 28.5173 58.6677 29.2533 58.4531 29.836C58.2691 30.4187 58.0697 31.078 57.8551 31.814C57.9471 32.0593 57.9317 32.2893 57.8091 32.504C57.7171 32.688 57.5791 32.8873 57.3951 33.102C57.2111 33.286 57.0117 33.47 56.7971 33.654C56.5824 33.8073 56.4137 33.9607 56.2911 34.114C54.7884 35.218 53.0864 36.0307 51.1851 36.552C49.2837 37.104 47.3671 37.196 45.4351 36.828C44.3311 36.4907 43.3191 36 42.3991 35.356C41.4791 34.712 40.6511 33.9607 39.9151 33.102C39.2097 32.2433 38.6117 31.3233 38.1211 30.342C37.6304 29.33 37.2624 28.2873 37.0171 27.214C36.5571 27.214 36.1584 27.122 35.8211 26.938C35.4837 26.754 35.1464 26.5547 34.8091 26.34C34.5024 26.0947 34.1957 25.88 33.8891 25.696C33.5824 25.4813 33.2297 25.3587 32.8311 25.328V24.914H32.6931C32.6011 24.5767 32.5091 24.2393 32.4171 23.902C32.2944 23.534 32.3557 23.1813 32.6011 22.844L32.7391 22.706C32.6164 22.6753 32.5704 22.6447 32.6011 22.614C32.6011 22.5527 32.6317 22.5067 32.6931 22.476C32.7237 22.4147 32.7544 22.3687 32.7851 22.338C32.8157 22.2767 32.8004 22.2307 32.7391 22.2C32.7697 22.016 32.8924 21.8933 33.1071 21.832C33.2911 21.7707 33.4751 21.7247 33.6591 21.694C33.8431 21.6327 33.9811 21.556 34.0731 21.464C34.1957 21.372 34.1957 21.2033 34.0731 20.958C34.1651 20.8047 34.2877 20.6973 34.4411 20.636C34.6251 20.5747 34.7937 20.5287 34.9471 20.498C35.1004 20.4367 35.2537 20.36 35.4071 20.268C35.5604 20.1453 35.6677 19.9613 35.7291 19.716C35.4837 18.244 35.3764 16.7873 35.4071 15.346C35.4377 13.9047 35.4837 12.402 35.5451 10.838C35.4837 10.562 35.3457 10.378 35.1311 10.286C34.9471 10.194 34.7477 10.1327 34.5331 10.102C34.3491 10.0407 34.1651 9.97933 33.9811 9.918C33.8277 9.826 33.7511 9.67266 33.7511 9.458L34.1651 9.182L33.8431 8.86C33.9044 8.79867 33.9657 8.768 34.0271 8.768C34.1191 8.73733 34.1957 8.69133 34.2571 8.63L33.4291 8.446L34.0731 8.216C34.1037 8.124 34.0731 8.032 33.9811 7.94C33.9197 7.81733 33.8584 7.69467 33.7971 7.572C33.7664 7.44933 33.7511 7.342 33.7511 7.25C33.7817 7.12733 33.8891 7.03533 34.0731 6.974C34.3184 7.03533 34.5944 7.00467 34.9011 6.882C35.2077 6.75933 35.4837 6.62133 35.7291 6.468L35.0391 6.422L35.7291 6.054C35.5757 6.054 35.4837 6.03867 35.4531 6.008C35.4224 5.94667 35.4071 5.88533 35.4071 5.824C35.4071 5.76266 35.3917 5.70133 35.3611 5.64C35.3611 5.57866 35.3151 5.53266 35.2231 5.502C35.3764 5.44067 35.5297 5.37933 35.6831 5.318C35.8671 5.226 36.0664 5.21067 36.2811 5.272C36.2811 5.33333 36.3117 5.39467 36.3731 5.456C36.4344 5.48666 36.4957 5.53267 36.5571 5.594C36.6184 5.34867 36.7411 5.19533 36.9251 5.134C37.1091 5.07267 37.3084 5.042 37.5231 5.042C37.7684 5.01133 37.9984 4.98067 38.2131 4.95C38.4584 4.91933 38.6424 4.79666 38.7651 4.582C39.6237 4.73533 40.4211 4.72 41.1571 4.536C41.8931 4.352 42.6597 4.26 43.4571 4.26L43.5951 4.49C43.7791 4.49 43.9017 4.45933 43.9631 4.398C44.0551 4.306 44.1317 4.214 44.1931 4.122C44.2544 4.03 44.3157 3.95333 44.3771 3.892C44.4691 3.8 44.5917 3.754 44.7451 3.754L44.6991 3.938C44.8524 3.99933 44.9444 4.03 44.9751 4.03C45.0057 3.99933 45.0211 3.96867 45.0211 3.938C45.0211 3.90733 45.0364 3.892 45.0671 3.892C45.1284 3.86133 45.2511 3.87666 45.4351 3.938L44.6991 4.122C44.8831 4.45933 45.1131 4.59733 45.3891 4.536C45.6957 4.47466 45.9717 4.45933 46.2171 4.49C46.1864 4.49 46.1711 4.50533 46.1711 4.536V4.674C46.4471 4.88867 46.6924 4.82733 46.9071 4.49V4.26H46.5851C46.6464 4.38266 46.5851 4.352 46.4011 4.168C46.2171 3.984 46.0484 3.83067 45.8951 3.708C46.3857 3.76933 46.7691 3.67733 47.0451 3.432C47.1064 3.49333 47.2291 3.524 47.4131 3.524L47.5511 3.294V3.616C47.6737 3.64667 47.7504 3.64667 47.7811 3.616C47.8117 3.58533 47.8271 3.55466 47.8271 3.524C47.8577 3.46267 47.8884 3.41667 47.9191 3.386C47.9497 3.32467 48.0264 3.294 48.1491 3.294C48.3637 3.35533 48.5631 3.32466 48.7471 3.202C48.9617 3.07933 49.2531 3.018 49.6211 3.018L49.8511 3.616L50.4491 3.11L50.1271 2.926L51.4151 2.604L51.3231 2.926C51.3844 2.98733 51.4764 3.018 51.5991 3.018C51.7524 2.98733 51.8751 2.972 51.9671 2.972C52.0897 2.94133 52.1817 2.94133 52.2431 2.972C52.3351 3.00267 52.3657 3.11 52.3351 3.294C52.3351 3.35533 52.3657 3.386 52.4271 3.386C52.5191 3.35533 52.5957 3.37067 52.6571 3.432C52.5037 3.27866 52.5037 3.11 52.6571 2.926C52.8411 2.742 53.0097 2.61933 53.1631 2.558C53.2551 2.558 53.3164 2.604 53.3471 2.696C53.3777 2.788 53.4084 2.88 53.4391 2.972C53.5004 3.03333 53.5617 3.09467 53.6231 3.156C53.7151 3.18666 53.8377 3.17133 53.9911 3.11C54.1137 3.04867 54.1751 2.972 54.1751 2.88C54.1751 2.788 54.1444 2.696 54.0831 2.604C54.0524 2.512 54.0064 2.43533 53.9451 2.374C53.9144 2.31267 53.9451 2.282 54.0371 2.282C54.0371 2.466 54.0831 2.57333 54.1751 2.604C54.2977 2.604 54.4204 2.604 54.5431 2.604C54.6964 2.57333 54.8344 2.558 54.9571 2.558C55.1104 2.52733 55.2177 2.57333 55.2791 2.696C55.2791 2.63467 55.2484 2.57333 55.1871 2.512C55.1564 2.45067 55.1104 2.374 55.0491 2.282C55.1411 2.31266 55.2484 2.29733 55.3711 2.236C55.5244 2.144 55.6931 2.06733 55.8771 2.006C56.0611 1.94466 56.2451 1.914 56.4291 1.914C56.6437 1.914 56.8431 2.006 57.0271 2.19C57.1497 2.06733 57.2571 2.052 57.3491 2.144C57.4717 2.20533 57.6097 2.31267 57.7631 2.466ZM91.273 34.574C91.3343 34.8807 91.3343 35.1567 91.273 35.402C91.2423 35.6473 91.1657 35.8773 91.043 36.092C90.951 36.3373 90.859 36.5673 90.767 36.782C90.675 37.0273 90.6137 37.288 90.583 37.564C90.307 37.9013 90.031 38.1007 89.755 38.162C89.479 38.254 89.1877 38.3 88.881 38.3C88.5743 38.3 88.2677 38.3153 87.961 38.346C87.6543 38.3767 87.3477 38.5147 87.041 38.76L83.131 35.264C82.3337 33.976 81.6437 32.8413 81.061 31.86C80.4783 30.848 79.9263 29.928 79.405 29.1C78.9143 28.272 78.4083 27.5053 77.887 26.8C77.3963 26.064 76.8443 25.3127 76.231 24.546C75.9243 24.6073 75.6637 24.6073 75.449 24.546C75.265 24.454 75.0657 24.5153 74.851 24.73L74.897 24.822C74.6517 24.9753 74.3143 25.0827 73.885 25.144C73.4557 25.2053 73.011 25.2667 72.551 25.328C72.091 25.3893 71.6463 25.4813 71.217 25.604C70.8183 25.696 70.4963 25.834 70.251 26.018C70.251 25.9567 70.2357 25.926 70.205 25.926C70.1743 25.926 70.159 25.8953 70.159 25.834C69.9137 25.8953 69.699 26.064 69.515 26.34C69.331 26.5853 69.2083 26.846 69.147 27.122C69.239 27.766 69.285 28.4867 69.285 29.284C69.285 30.0507 69.2543 30.8327 69.193 31.63C69.1623 32.4273 69.101 33.2093 69.009 33.976C68.917 34.712 68.825 35.3713 68.733 35.954C68.5183 36.2607 68.3343 36.4447 68.181 36.506C68.0583 36.598 67.9203 36.644 67.767 36.644C67.6443 36.6747 67.4757 36.69 67.261 36.69C67.077 36.7207 66.8163 36.828 66.479 37.012C65.6817 36.7667 64.8537 36.414 63.995 35.954C63.167 35.494 62.4923 34.8193 61.971 33.93C61.879 32.2127 61.7717 30.5567 61.649 28.962C61.557 27.3367 61.4803 25.742 61.419 24.178C61.3577 22.5833 61.2963 20.9887 61.235 19.394C61.2043 17.7687 61.189 16.1127 61.189 14.426C60.913 14.2113 60.6217 14.0273 60.315 13.874C60.039 13.69 59.7477 13.5213 59.441 13.368L59.671 13.184C59.6097 13.092 59.533 12.9847 59.441 12.862C59.3183 12.7393 59.2263 12.7087 59.165 12.77C59.165 12.5553 59.1497 12.3713 59.119 12.218C59.0883 12.034 59.073 11.8653 59.073 11.712C59.0423 11.5587 59.0423 11.39 59.073 11.206C59.1037 10.9913 59.1957 10.7613 59.349 10.516C59.1037 10.2707 59.027 9.964 59.119 9.596C59.1803 9.19733 59.3337 8.78333 59.579 8.354C59.7937 7.92467 60.0237 7.49533 60.269 7.066C60.545 6.63667 60.729 6.238 60.821 5.87L61.189 5.778C61.2197 5.80867 61.2197 5.87 61.189 5.962C61.1583 6.054 61.143 6.16133 61.143 6.284C61.143 6.376 61.1737 6.468 61.235 6.56C61.2963 6.62133 61.4037 6.63667 61.557 6.606C61.3423 6.36067 61.281 6.192 61.373 6.1C61.4957 6.008 61.649 5.94666 61.833 5.916C62.017 5.85467 62.201 5.80867 62.385 5.778C62.569 5.71667 62.6457 5.60933 62.615 5.456C63.351 5.05733 64.133 4.674 64.961 4.306C65.8197 3.938 66.709 3.67733 67.629 3.524C67.813 3.616 67.9817 3.63133 68.135 3.57C68.2883 3.50867 68.4417 3.432 68.595 3.34C68.7483 3.21733 68.917 3.11 69.101 3.018C69.285 2.926 69.469 2.88 69.653 2.88L75.817 2.098L76.093 2.282C76.1543 2.12866 76.231 2.052 76.323 2.052C76.4457 2.052 76.553 2.06733 76.645 2.098C76.7677 2.098 76.8597 2.098 76.921 2.098C77.013 2.06733 77.059 1.96 77.059 1.776C77.4883 1.92933 77.8717 2.03667 78.209 2.098C78.577 2.15933 78.9297 2.20533 79.267 2.236C79.635 2.236 79.9877 2.26667 80.325 2.328C80.6623 2.35867 81.0457 2.42 81.475 2.512L81.199 2.788C81.5977 3.00266 81.981 3.26333 82.349 3.57C82.7477 3.87666 83.1923 3.99933 83.683 3.938C83.591 4.18333 83.4377 4.24467 83.223 4.122C83.039 3.96867 82.8397 3.90733 82.625 3.938C82.5637 4.09133 82.6403 4.24467 82.855 4.398C83.1003 4.52067 83.315 4.61266 83.499 4.674C83.7443 4.55133 83.9283 4.536 84.051 4.628C84.2043 4.72 84.4037 4.73533 84.649 4.674C84.5877 4.582 84.5723 4.52067 84.603 4.49C84.6337 4.42866 84.695 4.398 84.787 4.398C84.879 4.398 84.971 4.41333 85.063 4.444C85.155 4.47466 85.2163 4.50533 85.247 4.536C85.2163 4.812 85.339 5.05733 85.615 5.272C85.9217 5.456 86.167 5.62466 86.351 5.778C86.4123 5.778 86.4737 5.778 86.535 5.778C86.627 5.74733 86.7037 5.778 86.765 5.87L86.259 6.1C86.351 6.31467 86.4583 6.43733 86.581 6.468C86.7343 6.49867 86.857 6.514 86.949 6.514C86.8877 6.698 86.9643 6.94333 87.179 7.25C87.3937 7.55667 87.6083 7.894 87.823 8.262C88.0683 8.59933 88.2677 8.952 88.421 9.32C88.5743 9.65733 88.5897 9.94867 88.467 10.194C88.4057 10.746 88.421 11.3133 88.513 11.896C88.605 12.4787 88.6663 13.0767 88.697 13.69C88.7277 14.2727 88.6817 14.8553 88.559 15.438C88.467 16.0207 88.2217 16.5727 87.823 17.094C87.2403 17.922 86.5657 18.6733 85.799 19.348C85.0323 20.0227 84.3577 20.8507 83.775 21.832C84.603 23.212 85.5383 24.638 86.581 26.11C87.6237 27.582 88.651 28.9007 89.663 30.066L89.847 29.928C89.8777 30.296 89.985 30.6793 90.169 31.078C90.3837 31.446 90.583 31.8293 90.767 32.228C90.951 32.6267 91.1043 33.0253 91.227 33.424C91.3497 33.792 91.365 34.1753 91.273 34.574ZM77.519 15.346H77.335V15.116H77.519V15.346ZM71.815 17.968C72.275 17.7533 72.919 17.554 73.747 17.37C74.6057 17.1553 75.449 16.91 76.277 16.634C77.105 16.358 77.8257 16.0207 78.439 15.622C79.083 15.1927 79.405 14.6253 79.405 13.92C79.5277 12.8773 79.405 12.0493 79.037 11.436C78.6997 10.8227 78.1937 10.378 77.519 10.102C76.875 9.826 76.1237 9.688 75.265 9.688C74.437 9.688 73.5783 9.76467 72.689 9.918C71.8303 10.0407 71.0023 10.2247 70.205 10.47C69.4383 10.6847 68.8097 10.884 68.319 11.068C68.319 11.4053 68.3037 11.9113 68.273 12.586C68.273 13.23 68.2883 13.92 68.319 14.656C68.3497 15.3613 68.3957 16.036 68.457 16.68C68.549 17.2933 68.687 17.738 68.871 18.014C68.9323 17.7993 69.0857 17.738 69.331 17.83C69.607 17.8913 69.8983 17.9833 70.205 18.106C70.5117 18.2287 70.8183 18.3053 71.125 18.336C71.4317 18.3667 71.6617 18.244 71.815 17.968ZM59.073 12.862C59.073 12.862 59.1037 12.8313 59.165 12.77V12.862H59.073ZM111.972 3.064L111.88 3.432C111.757 3.34 111.68 3.30933 111.65 3.34C111.619 3.37066 111.604 3.432 111.604 3.524C111.634 3.58533 111.65 3.662 111.65 3.754C111.65 3.846 111.634 3.90733 111.604 3.938H111.88L111.696 4.306C112.033 4.42866 112.232 4.59733 112.294 4.812C112.355 4.996 112.416 5.18 112.478 5.364C112.386 5.51733 112.355 5.64 112.386 5.732C112.447 5.824 112.508 5.90066 112.57 5.962C112.662 6.02333 112.738 6.1 112.8 6.192C112.861 6.284 112.876 6.39133 112.846 6.514C112.784 6.606 112.784 6.71333 112.846 6.836C112.938 6.95866 113.03 7.066 113.122 7.158C113.214 7.25 113.29 7.342 113.352 7.434C113.413 7.49533 113.398 7.54133 113.306 7.572C113.52 7.664 113.612 7.756 113.582 7.848C113.582 7.94 113.536 8.032 113.444 8.124C113.352 8.216 113.26 8.308 113.168 8.4C113.106 8.46133 113.122 8.538 113.214 8.63C113.275 8.96733 113.244 9.228 113.122 9.412C113.03 9.56533 112.876 9.70333 112.662 9.826C112.447 9.94867 112.217 10.0713 111.972 10.194C111.757 10.286 111.573 10.4393 111.42 10.654C110.285 10.838 109.212 10.976 108.2 11.068C107.188 11.16 106.191 11.2673 105.21 11.39C104.259 11.482 103.293 11.62 102.312 11.804C101.33 11.988 100.318 12.2487 99.2756 12.586C99.2756 12.8313 99.2909 13.138 99.3216 13.506C99.3522 13.874 99.3982 14.2573 99.4596 14.656C99.5516 15.024 99.6436 15.3767 99.7356 15.714C99.8582 16.0207 99.9962 16.2353 100.15 16.358C100.855 16.542 101.637 16.634 102.496 16.634C103.354 16.634 104.228 16.588 105.118 16.496C106.038 16.404 106.958 16.2967 107.878 16.174C108.828 16.0513 109.718 15.9593 110.546 15.898C110.668 15.9287 110.822 15.9287 111.006 15.898C111.22 15.8367 111.435 15.7753 111.65 15.714C111.864 15.6527 112.079 15.6067 112.294 15.576C112.539 15.5147 112.754 15.4993 112.938 15.53C113.367 15.6833 113.781 15.7447 114.18 15.714C114.578 15.6833 114.992 15.622 115.422 15.53V15.116C115.636 15.3 115.728 15.4533 115.698 15.576C115.698 15.6987 115.652 15.8213 115.56 15.944C115.498 16.0667 115.437 16.2047 115.376 16.358C115.314 16.5113 115.36 16.68 115.514 16.864C115.575 16.8027 115.621 16.7413 115.652 16.68C115.713 16.6187 115.774 16.6187 115.836 16.68L116.02 16.864L115.698 17.324L116.664 17.83C116.418 17.9527 116.311 18.06 116.342 18.152C116.372 18.244 116.434 18.336 116.526 18.428C116.618 18.52 116.694 18.6273 116.756 18.75C116.817 18.842 116.756 18.9493 116.572 19.072C116.725 19.1333 116.74 19.2407 116.618 19.394C116.526 19.5473 116.572 19.7007 116.756 19.854H116.664C116.602 20.0073 116.572 20.0533 116.572 19.992C116.572 19.9 116.572 19.7927 116.572 19.67C116.602 19.5473 116.602 19.44 116.572 19.348C116.572 19.256 116.51 19.256 116.388 19.348C116.633 19.2867 116.894 19.348 117.17 19.532C117.446 19.716 117.63 19.946 117.722 20.222C117.752 20.498 117.691 20.7127 117.538 20.866C117.415 20.9887 117.277 21.096 117.124 21.188C116.97 21.28 116.848 21.4027 116.756 21.556C116.664 21.6787 116.664 21.878 116.756 22.154C116.602 22.154 116.449 22.154 116.296 22.154C116.142 22.1233 115.989 22.154 115.836 22.246C115.774 22.338 115.774 22.43 115.836 22.522C115.897 22.5833 115.958 22.66 116.02 22.752C114.977 22.936 113.873 23.0893 112.708 23.212C111.573 23.3347 110.408 23.442 109.212 23.534C108.046 23.5953 106.866 23.672 105.67 23.764C104.504 23.856 103.37 23.9633 102.266 24.086C102.388 24.822 102.557 25.65 102.772 26.57C102.986 27.49 103.201 28.41 103.416 29.33C103.63 30.25 103.83 31.1547 104.014 32.044C104.198 32.9333 104.32 33.7307 104.382 34.436C104.106 34.7733 103.922 35.1107 103.83 35.448C103.768 35.7547 103.569 35.954 103.232 36.046C103.201 36.2913 103.155 36.46 103.094 36.552C103.032 36.644 102.956 36.7053 102.864 36.736C102.772 36.7667 102.664 36.7973 102.542 36.828C102.45 36.8893 102.358 36.9813 102.266 37.104C102.174 36.828 101.99 36.736 101.714 36.828C101.468 36.92 101.269 37.012 101.116 37.104C100.84 36.9813 100.579 36.8127 100.334 36.598C100.119 36.414 99.9042 36.2147 99.6896 36C99.4749 35.7853 99.2449 35.586 98.9996 35.402C98.7849 35.218 98.5242 35.08 98.2176 34.988C98.1562 34.6813 98.0182 34.436 97.8036 34.252C97.6196 34.0373 97.4202 33.838 97.2056 33.654C97.0216 33.4393 96.8529 33.2093 96.6996 32.964C96.5769 32.7187 96.5462 32.3967 96.6076 31.998C96.2702 30.9247 95.9636 29.882 95.6876 28.87C95.4116 27.8273 95.1662 26.754 94.9516 25.65C94.6756 25.4047 94.3842 25.1287 94.0776 24.822C93.7709 24.5153 93.4796 24.1933 93.2036 23.856C92.9276 23.5187 92.6822 23.1967 92.4676 22.89C92.2529 22.5527 92.0996 22.246 92.0076 21.97C91.9462 21.786 91.8849 21.6327 91.8236 21.51C91.7929 21.3873 91.7776 21.2953 91.7776 21.234C91.7776 21.142 91.8082 21.0653 91.8696 21.004C91.9616 20.9427 92.0996 20.8507 92.2836 20.728L91.7316 20.13C91.8236 20.13 91.9002 20.084 91.9616 19.992C92.0229 19.9 92.0996 19.8847 92.1916 19.946C92.2529 19.7927 92.2376 19.67 92.1456 19.578C92.0842 19.4553 92.1302 19.2867 92.2836 19.072C92.6516 18.7653 92.8662 18.3667 92.9276 17.876C92.9889 17.3853 92.9736 16.864 92.8816 16.312C92.7896 15.76 92.6669 15.1927 92.5136 14.61C92.3909 13.9967 92.3142 13.4293 92.2836 12.908C92.1916 12.5707 92.0382 12.2793 91.8236 12.034C91.6396 11.7887 91.4402 11.5587 91.2256 11.344C91.0109 11.0987 90.7962 10.8687 90.5816 10.654C90.3669 10.4087 90.1982 10.1327 90.0756 9.826C90.1369 9.826 90.1982 9.826 90.2596 9.826C90.3209 9.826 90.3822 9.79533 90.4436 9.734C90.4436 9.48866 90.3516 9.39666 90.1676 9.458C89.9529 9.51933 89.7996 9.47333 89.7076 9.32C89.7996 9.16666 89.8149 8.998 89.7536 8.814C89.6616 8.63 89.7689 8.47667 90.0756 8.354C89.8302 8.262 89.7229 8.13933 89.7536 7.986C89.7536 7.802 89.8149 7.618 89.9376 7.434C90.0296 7.25 90.1216 7.08133 90.2136 6.928C90.2749 6.744 90.2596 6.606 90.1676 6.514C90.5049 6.33 90.8116 6.25333 91.0876 6.284C91.3636 6.31466 91.6089 6.146 91.8236 5.778L91.5016 5.272C91.6856 5.364 91.8236 5.39467 91.9156 5.364C92.0382 5.33333 92.1456 5.28733 92.2376 5.226C92.3602 5.134 92.4982 5.05733 92.6516 4.996C92.8049 4.904 93.0042 4.87333 93.2496 4.904C93.3109 4.84266 93.4029 4.78133 93.5256 4.72C93.6789 4.65867 93.8782 4.59733 94.1236 4.536V4.628C94.3382 4.536 94.5529 4.52066 94.7676 4.582C94.9822 4.61266 95.1969 4.64333 95.4116 4.674C95.6262 4.70467 95.8102 4.70467 95.9636 4.674C96.1476 4.61266 96.3009 4.45933 96.4236 4.214L96.3316 4.306C96.5769 4.52067 96.7916 4.56666 96.9756 4.444C97.1596 4.29066 97.3282 4.214 97.4816 4.214V4.03C97.7269 4.214 98.0029 4.352 98.3096 4.444C98.6162 4.50533 98.9076 4.45933 99.1836 4.306L99.4136 4.122C99.3522 4.18333 99.3369 4.22933 99.3676 4.26C99.3982 4.29067 99.4442 4.306 99.5056 4.306C99.5362 4.18333 99.5822 4.122 99.6436 4.122C99.7049 4.09133 99.7816 4.09133 99.8736 4.122C99.9656 4.15267 100.042 4.18333 100.104 4.214C100.196 4.24466 100.272 4.24466 100.334 4.214C100.426 4.33666 100.487 4.398 100.518 4.398C100.548 4.36733 100.579 4.33667 100.61 4.306C100.64 4.24467 100.671 4.19866 100.702 4.168C100.732 4.10667 100.778 4.09133 100.84 4.122C101.637 4.122 102.419 4.04533 103.186 3.892C103.952 3.73867 104.704 3.58533 105.44 3.432C106.206 3.248 106.988 3.09466 107.786 2.972C108.583 2.84933 109.396 2.81866 110.224 2.88V2.788C110.53 2.88 110.837 2.91066 111.144 2.88C111.45 2.81866 111.726 2.88 111.972 3.064ZM140.734 2.466C140.642 2.40467 140.565 2.40467 140.504 2.466C140.473 2.52733 140.442 2.57333 140.412 2.604C140.473 2.66533 140.488 2.742 140.458 2.834C140.458 2.89533 140.458 2.95667 140.458 3.018C140.396 3.11 140.304 3.14066 140.182 3.11C140.09 3.07933 139.998 3.11 139.906 3.202C139.967 3.32466 140.059 3.35533 140.182 3.294C140.335 3.23266 140.412 3.30933 140.412 3.524L140.228 3.708C140.596 3.708 140.795 3.76933 140.826 3.892C140.856 4.01467 140.841 4.168 140.78 4.352C140.749 4.50533 140.718 4.65867 140.688 4.812C140.657 4.96533 140.78 5.088 141.056 5.18C141.086 5.364 141.04 5.548 140.918 5.732C140.795 5.916 140.672 6.1 140.55 6.284C140.427 6.43733 140.335 6.57533 140.274 6.698C140.243 6.82067 140.335 6.91267 140.55 6.974C140.427 7.066 140.412 7.14267 140.504 7.204C140.596 7.26533 140.672 7.32667 140.734 7.388C140.488 7.72533 140.212 7.97067 139.906 8.124C139.599 8.24666 139.277 8.354 138.94 8.446C138.633 8.50733 138.311 8.56867 137.974 8.63C137.636 8.69133 137.299 8.79867 136.962 8.952C136.624 8.92133 136.302 8.952 135.996 9.044C135.689 9.136 135.382 9.24333 135.076 9.366C134.769 9.458 134.462 9.53467 134.156 9.596C133.849 9.65733 133.512 9.65733 133.144 9.596C131.978 9.964 130.736 10.24 129.418 10.424C128.099 10.608 126.826 10.8073 125.6 11.022C125.293 11.022 125.17 11.114 125.232 11.298C125.324 11.482 125.308 11.666 125.186 11.85V17.922C125.462 17.9833 125.722 18.0907 125.968 18.244C126.213 18.3667 126.443 18.29 126.658 18.014C127.179 18.0447 127.654 18.014 128.084 17.922C128.513 17.7993 128.973 17.738 129.464 17.738C129.617 17.6153 129.786 17.554 129.97 17.554C130.184 17.5233 130.384 17.508 130.568 17.508C130.782 17.508 130.966 17.508 131.12 17.508C131.304 17.4773 131.457 17.3853 131.58 17.232C131.825 17.3547 132.055 17.3853 132.27 17.324C132.484 17.232 132.668 17.14 132.822 17.048C132.975 16.9253 133.113 16.8333 133.236 16.772C133.358 16.7107 133.45 16.7567 133.512 16.91C133.696 17.002 133.864 17.0173 134.018 16.956C134.202 16.864 134.386 16.7873 134.57 16.726C134.754 16.634 134.922 16.5727 135.076 16.542C135.26 16.5113 135.444 16.588 135.628 16.772C135.873 16.588 136.149 16.4807 136.456 16.45C136.762 16.3887 137.084 16.358 137.422 16.358C137.759 16.3273 138.081 16.2967 138.388 16.266C138.725 16.2047 139.016 16.0973 139.262 15.944C139.538 15.852 139.783 15.8673 139.998 15.99C140.243 16.1127 140.488 16.266 140.734 16.45L140.872 16.266L140.55 16.036C140.887 15.9747 141.286 15.9287 141.746 15.898C142.206 15.8673 142.574 16.0207 142.85 16.358C142.788 16.4193 142.727 16.5727 142.666 16.818C142.635 17.0633 142.512 17.2627 142.298 17.416C142.328 17.6307 142.42 17.7533 142.574 17.784C142.758 17.784 142.926 17.784 143.08 17.784C143.233 17.784 143.34 17.8147 143.402 17.876C143.494 17.9373 143.478 18.106 143.356 18.382L142.942 18.75C143.095 18.75 143.187 18.7807 143.218 18.842C143.248 18.9033 143.248 18.98 143.218 19.072C143.187 19.164 143.156 19.256 143.126 19.348C143.126 19.44 143.172 19.5167 143.264 19.578C143.172 19.7313 143.064 19.854 142.942 19.946C142.819 20.038 142.712 20.13 142.62 20.222C142.528 20.2833 142.466 20.3753 142.436 20.498C142.436 20.59 142.528 20.7433 142.712 20.958C142.773 21.05 142.85 21.096 142.942 21.096C143.034 21.0653 143.141 21.05 143.264 21.05C143.202 21.1113 143.11 21.1727 142.988 21.234C142.896 21.2953 142.88 21.4027 142.942 21.556C143.064 21.6173 143.218 21.602 143.402 21.51C143.586 21.418 143.678 21.5407 143.678 21.878C143.463 22.3073 143.156 22.5987 142.758 22.752C142.39 22.8747 141.991 23.0127 141.562 23.166C139.262 23.626 136.87 24.0093 134.386 24.316C131.932 24.592 129.556 24.96 127.256 25.42C127.164 25.5427 127.087 25.6807 127.026 25.834C126.964 25.9567 127.01 25.972 127.164 25.88H127.072C127.225 26.248 127.409 26.6313 127.624 27.03C127.838 27.398 128.099 27.7353 128.406 28.042C128.712 28.3487 129.065 28.6093 129.464 28.824C129.862 29.008 130.322 29.1 130.844 29.1C131.181 29.0693 131.457 29.0233 131.672 28.962C131.917 28.9007 132.147 28.8393 132.362 28.778C132.576 28.686 132.791 28.6093 133.006 28.548C133.251 28.456 133.527 28.3947 133.834 28.364C133.926 28.3333 134.048 28.272 134.202 28.18C134.386 28.0573 134.585 27.9193 134.8 27.766C135.045 27.6127 135.275 27.4747 135.49 27.352C135.735 27.1987 135.95 27.076 136.134 26.984C136.256 26.8 136.394 26.6313 136.548 26.478C136.732 26.294 136.885 26.1253 137.008 25.972V26.156H137.836L137.606 25.65C137.759 25.282 137.928 25.1287 138.112 25.19C138.296 25.2207 138.48 25.2973 138.664 25.42C138.848 25.5427 139.001 25.6347 139.124 25.696C139.277 25.7267 139.4 25.5733 139.492 25.236C139.706 25.1747 139.906 25.1133 140.09 25.052C140.304 24.9907 140.427 24.8527 140.458 24.638H140.734C140.703 24.6687 140.734 24.73 140.826 24.822C140.856 24.73 140.887 24.6533 140.918 24.592C140.979 24.5307 140.964 24.4693 140.872 24.408H140.734L140.826 24.178C141.163 24.5153 141.347 24.8987 141.378 25.328C141.408 25.7267 141.362 26.11 141.24 26.478C141.454 26.5393 141.531 26.662 141.47 26.846C141.408 26.9993 141.485 27.122 141.7 27.214C141.669 27.2753 141.608 27.3367 141.516 27.398C141.454 27.4593 141.47 27.536 141.562 27.628C141.684 28.5173 141.638 29.2533 141.424 29.836C141.24 30.4187 141.04 31.078 140.826 31.814C140.918 32.0593 140.902 32.2893 140.78 32.504C140.688 32.688 140.55 32.8873 140.366 33.102C140.182 33.286 139.982 33.47 139.768 33.654C139.553 33.8073 139.384 33.9607 139.262 34.114C137.759 35.218 136.057 36.0307 134.156 36.552C132.254 37.104 130.338 37.196 128.406 36.828C127.302 36.4907 126.29 36 125.37 35.356C124.45 34.712 123.622 33.9607 122.886 33.102C122.18 32.2433 121.582 31.3233 121.092 30.342C120.601 29.33 120.233 28.2873 119.988 27.214C119.528 27.214 119.129 27.122 118.792 26.938C118.454 26.754 118.117 26.5547 117.78 26.34C117.473 26.0947 117.166 25.88 116.86 25.696C116.553 25.4813 116.2 25.3587 115.802 25.328V24.914H115.664C115.572 24.5767 115.48 24.2393 115.388 23.902C115.265 23.534 115.326 23.1813 115.572 22.844L115.71 22.706C115.587 22.6753 115.541 22.6447 115.572 22.614C115.572 22.5527 115.602 22.5067 115.664 22.476C115.694 22.4147 115.725 22.3687 115.756 22.338C115.786 22.2767 115.771 22.2307 115.71 22.2C115.74 22.016 115.863 21.8933 116.078 21.832C116.262 21.7707 116.446 21.7247 116.63 21.694C116.814 21.6327 116.952 21.556 117.044 21.464C117.166 21.372 117.166 21.2033 117.044 20.958C117.136 20.8047 117.258 20.6973 117.412 20.636C117.596 20.5747 117.764 20.5287 117.918 20.498C118.071 20.4367 118.224 20.36 118.378 20.268C118.531 20.1453 118.638 19.9613 118.7 19.716C118.454 18.244 118.347 16.7873 118.378 15.346C118.408 13.9047 118.454 12.402 118.516 10.838C118.454 10.562 118.316 10.378 118.102 10.286C117.918 10.194 117.718 10.1327 117.504 10.102C117.32 10.0407 117.136 9.97933 116.952 9.918C116.798 9.826 116.722 9.67266 116.722 9.458L117.136 9.182L116.814 8.86C116.875 8.79867 116.936 8.768 116.998 8.768C117.09 8.73733 117.166 8.69133 117.228 8.63L116.4 8.446L117.044 8.216C117.074 8.124 117.044 8.032 116.952 7.94C116.89 7.81733 116.829 7.69467 116.768 7.572C116.737 7.44933 116.722 7.342 116.722 7.25C116.752 7.12733 116.86 7.03533 117.044 6.974C117.289 7.03533 117.565 7.00467 117.872 6.882C118.178 6.75933 118.454 6.62133 118.7 6.468L118.01 6.422L118.7 6.054C118.546 6.054 118.454 6.03867 118.424 6.008C118.393 5.94667 118.378 5.88533 118.378 5.824C118.378 5.76266 118.362 5.70133 118.332 5.64C118.332 5.57866 118.286 5.53266 118.194 5.502C118.347 5.44067 118.5 5.37933 118.654 5.318C118.838 5.226 119.037 5.21067 119.252 5.272C119.252 5.33333 119.282 5.39467 119.344 5.456C119.405 5.48666 119.466 5.53267 119.528 5.594C119.589 5.34867 119.712 5.19533 119.896 5.134C120.08 5.07267 120.279 5.042 120.494 5.042C120.739 5.01133 120.969 4.98067 121.184 4.95C121.429 4.91933 121.613 4.79666 121.736 4.582C122.594 4.73533 123.392 4.72 124.128 4.536C124.864 4.352 125.63 4.26 126.428 4.26L126.566 4.49C126.75 4.49 126.872 4.45933 126.934 4.398C127.026 4.306 127.102 4.214 127.164 4.122C127.225 4.03 127.286 3.95333 127.348 3.892C127.44 3.8 127.562 3.754 127.716 3.754L127.67 3.938C127.823 3.99933 127.915 4.03 127.946 4.03C127.976 3.99933 127.992 3.96867 127.992 3.938C127.992 3.90733 128.007 3.892 128.038 3.892C128.099 3.86133 128.222 3.87666 128.406 3.938L127.67 4.122C127.854 4.45933 128.084 4.59733 128.36 4.536C128.666 4.47466 128.942 4.45933 129.188 4.49C129.157 4.49 129.142 4.50533 129.142 4.536V4.674C129.418 4.88867 129.663 4.82733 129.878 4.49V4.26H129.556C129.617 4.38266 129.556 4.352 129.372 4.168C129.188 3.984 129.019 3.83067 128.866 3.708C129.356 3.76933 129.74 3.67733 130.016 3.432C130.077 3.49333 130.2 3.524 130.384 3.524L130.522 3.294V3.616C130.644 3.64667 130.721 3.64667 130.752 3.616C130.782 3.58533 130.798 3.55466 130.798 3.524C130.828 3.46267 130.859 3.41667 130.89 3.386C130.92 3.32467 130.997 3.294 131.12 3.294C131.334 3.35533 131.534 3.32466 131.718 3.202C131.932 3.07933 132.224 3.018 132.592 3.018L132.822 3.616L133.42 3.11L133.098 2.926L134.386 2.604L134.294 2.926C134.355 2.98733 134.447 3.018 134.57 3.018C134.723 2.98733 134.846 2.972 134.938 2.972C135.06 2.94133 135.152 2.94133 135.214 2.972C135.306 3.00267 135.336 3.11 135.306 3.294C135.306 3.35533 135.336 3.386 135.398 3.386C135.49 3.35533 135.566 3.37067 135.628 3.432C135.474 3.27866 135.474 3.11 135.628 2.926C135.812 2.742 135.98 2.61933 136.134 2.558C136.226 2.558 136.287 2.604 136.318 2.696C136.348 2.788 136.379 2.88 136.41 2.972C136.471 3.03333 136.532 3.09467 136.594 3.156C136.686 3.18666 136.808 3.17133 136.962 3.11C137.084 3.04867 137.146 2.972 137.146 2.88C137.146 2.788 137.115 2.696 137.054 2.604C137.023 2.512 136.977 2.43533 136.916 2.374C136.885 2.31267 136.916 2.282 137.008 2.282C137.008 2.466 137.054 2.57333 137.146 2.604C137.268 2.604 137.391 2.604 137.514 2.604C137.667 2.57333 137.805 2.558 137.928 2.558C138.081 2.52733 138.188 2.57333 138.25 2.696C138.25 2.63467 138.219 2.57333 138.158 2.512C138.127 2.45067 138.081 2.374 138.02 2.282C138.112 2.31266 138.219 2.29733 138.342 2.236C138.495 2.144 138.664 2.06733 138.848 2.006C139.032 1.94466 139.216 1.914 139.4 1.914C139.614 1.914 139.814 2.006 139.998 2.19C140.12 2.06733 140.228 2.052 140.32 2.144C140.442 2.20533 140.58 2.31267 140.734 2.466ZM155.108 2.788L154.694 2.696L155.108 2.788ZM152.808 2.972C152.961 2.94133 153.13 2.94133 153.314 2.972C153.528 3.00267 153.728 3.03333 153.912 3.064C154.126 3.09467 154.326 3.11 154.51 3.11C154.724 3.11 154.924 3.064 155.108 2.972C155.568 3.18667 155.936 3.37067 156.212 3.524C156.518 3.67733 156.978 3.87667 157.592 4.122C157.684 4.306 157.791 4.36733 157.914 4.306C158.067 4.24467 158.19 4.168 158.282 4.076C158.404 3.984 158.512 3.938 158.604 3.938C158.726 3.938 158.818 4.076 158.88 4.352C159.248 4.26 159.616 4.29066 159.984 4.444C160.352 4.56666 160.704 4.70466 161.042 4.858C161.011 5.01133 161.057 5.134 161.18 5.226C161.333 5.28733 161.502 5.364 161.686 5.456C161.87 5.51733 162.054 5.594 162.238 5.686C162.452 5.778 162.621 5.916 162.744 6.1L162.698 6.146C162.974 6.238 163.311 6.422 163.71 6.698C164.108 6.94333 164.476 7.23467 164.814 7.572C165.182 7.90933 165.504 8.308 165.78 8.768C166.056 9.19733 166.224 9.642 166.286 10.102C166.224 10.102 166.178 10.1633 166.148 10.286C166.117 10.4087 166.163 10.516 166.286 10.608L166.47 10.516C166.531 10.6693 166.638 10.9913 166.792 11.482C166.945 11.942 166.914 12.3867 166.7 12.816C166.638 12.9693 166.73 13.1073 166.976 13.23C166.761 13.322 166.684 13.4447 166.746 13.598C166.807 13.7207 166.884 13.8433 166.976 13.966C166.822 13.966 166.684 14.012 166.562 14.104C166.439 14.196 166.347 14.3187 166.286 14.472L166.47 14.564C166.224 14.7173 165.933 14.886 165.596 15.07C165.258 15.2233 164.906 15.3767 164.538 15.53C164.17 15.6527 163.802 15.7447 163.434 15.806C163.096 15.8367 162.79 15.806 162.514 15.714C162.299 15.898 162.207 16.036 162.238 16.128C162.299 16.22 162.36 16.2967 162.422 16.358C162.514 16.3887 162.56 16.4347 162.56 16.496C162.59 16.5267 162.468 16.588 162.192 16.68C162.314 16.404 162.268 16.1587 162.054 15.944C161.87 15.6987 161.701 15.53 161.548 15.438C160.873 14.4873 160.214 13.6287 159.57 12.862C158.956 12.0647 158.236 11.3133 157.408 10.608C157.162 10.4853 156.856 10.3167 156.488 10.102C156.15 9.88733 155.767 9.70333 155.338 9.55C155.062 9.55 154.755 9.48866 154.418 9.366C154.08 9.24333 153.758 9.15133 153.452 9.09C153.145 8.998 152.854 8.98267 152.578 9.044C152.302 9.07467 152.072 9.25867 151.888 9.596L151.336 10.286C151.336 10.1327 151.305 10.056 151.244 10.056L150.922 10.286L150.83 10.194C150.124 11.1753 149.603 12.2487 149.266 13.414C148.928 14.5793 148.76 15.7753 148.76 17.002C148.76 18.2287 148.913 19.4553 149.22 20.682C149.526 21.878 149.956 22.982 150.508 23.994C150.784 24.546 151.106 25.1133 151.474 25.696C151.842 26.248 152.256 26.7693 152.716 27.26C153.176 27.72 153.682 28.1033 154.234 28.41C154.816 28.7167 155.43 28.87 156.074 28.87C157.055 28.6247 157.929 28.1493 158.696 27.444C159.493 26.7387 160.214 26.064 160.858 25.42L161.18 25.512C161.026 25.2053 161.011 24.9907 161.134 24.868C161.256 24.7147 161.41 24.6073 161.594 24.546C161.808 24.454 162.008 24.362 162.192 24.27C162.406 24.1473 162.544 23.948 162.606 23.672C162.851 23.764 163.035 23.764 163.158 23.672C163.311 23.58 163.434 23.4727 163.526 23.35C163.648 23.2273 163.786 23.12 163.94 23.028C164.093 22.9053 164.308 22.8747 164.584 22.936C164.584 23.0893 164.66 23.166 164.814 23.166L165.458 23.12L165.32 23.166C165.412 23.3807 165.534 23.5187 165.688 23.58C165.841 23.6107 165.994 23.6413 166.148 23.672C166.332 23.672 166.47 23.7027 166.562 23.764C166.684 23.8253 166.73 23.9633 166.7 24.178L167.942 24.316L167.758 24.408C167.972 24.5 168.095 24.6687 168.126 24.914C168.187 25.1593 168.218 25.42 168.218 25.696C168.248 25.9413 168.279 26.202 168.31 26.478C168.371 26.7233 168.524 26.9073 168.77 27.03C168.954 27.2447 169.061 27.444 169.092 27.628C169.122 27.812 169.107 28.0113 169.046 28.226C169.015 28.41 168.938 28.6093 168.816 28.824C168.724 29.008 168.647 29.2073 168.586 29.422C167.696 30.4953 166.7 31.5533 165.596 32.596C164.522 33.608 163.357 34.482 162.1 35.218C160.873 35.954 159.554 36.4907 158.144 36.828C156.733 37.1653 155.261 37.196 153.728 36.92C152.808 36.7053 151.903 36.3987 151.014 36C150.155 35.632 149.358 35.172 148.622 34.62C147.886 34.068 147.226 33.4547 146.644 32.78C146.061 32.1053 145.616 31.3693 145.31 30.572C144.972 30.3573 144.712 30.0353 144.528 29.606C144.344 29.146 144.144 28.8087 143.93 28.594C143.562 27.95 143.27 27.1833 143.056 26.294C142.872 25.374 142.611 24.5 142.274 23.672L142.55 23.35C142.304 23.2887 142.166 23.1813 142.136 23.028C142.074 22.844 142.044 22.6447 142.044 22.43C142.044 22.1847 142.044 21.9393 142.044 21.694C142.013 21.4487 141.936 21.2033 141.814 20.958C141.722 20.866 141.691 20.7587 141.722 20.636C141.752 20.5133 141.783 20.3907 141.814 20.268C141.844 20.1147 141.86 19.9767 141.86 19.854C141.829 19.7007 141.722 19.578 141.538 19.486C141.691 19.1487 141.752 18.75 141.722 18.29C141.691 17.83 141.599 17.3853 141.446 16.956C141.415 16.864 141.492 16.7567 141.676 16.634C141.829 16.5113 141.875 16.3427 141.814 16.128C141.599 15.8213 141.538 15.53 141.63 15.254C141.722 14.9473 141.798 14.6253 141.86 14.288C142.105 14.104 142.166 13.8893 142.044 13.644C142.044 13.2147 142.059 12.77 142.09 12.31C142.12 11.85 142.243 11.4513 142.458 11.114L142.136 10.838C142.197 10.7767 142.289 10.7767 142.412 10.838C142.534 10.8993 142.58 10.8533 142.55 10.7L142.458 10.608C142.58 10.7 142.657 10.7307 142.688 10.7C142.749 10.6387 142.78 10.5467 142.78 10.424C142.81 10.3013 142.826 10.1633 142.826 10.01C142.856 9.85667 142.918 9.74933 143.01 9.688C143.01 9.596 143.025 9.48866 143.056 9.366C143.117 9.21266 143.178 9.05933 143.24 8.906C143.332 8.75266 143.408 8.63 143.47 8.538C143.531 8.41533 143.577 8.33867 143.608 8.308L143.424 8.124C143.516 7.97067 143.684 7.81733 143.93 7.664C144.175 7.51066 144.236 7.31133 144.114 7.066C144.359 7.00467 144.451 6.89733 144.39 6.744C144.359 6.56 144.42 6.422 144.574 6.33C144.88 6.08466 145.233 5.85466 145.632 5.64C146.03 5.39466 146.306 5.134 146.46 4.858C146.736 4.79667 146.935 4.72 147.058 4.628C147.18 4.50533 147.288 4.398 147.38 4.306C147.502 4.18333 147.64 4.09133 147.794 4.03C147.947 3.938 148.192 3.87667 148.53 3.846C148.438 3.72333 148.315 3.69267 148.162 3.754C148.039 3.81533 147.947 3.76933 147.886 3.616C148.223 3.40133 148.514 3.30933 148.76 3.34C149.036 3.37066 149.342 3.35533 149.68 3.294V3.11L150.002 3.294C150.155 3.23266 150.216 3.17133 150.186 3.11C150.155 3.018 150.201 2.972 150.324 2.972H150.83V2.788C150.86 2.94133 150.952 3.03333 151.106 3.064C151.29 3.064 151.474 3.064 151.658 3.064C151.872 3.03333 152.072 3.00267 152.256 2.972C152.47 2.94133 152.654 2.94133 152.808 2.972ZM154.372 3.294L152.808 3.11C153.145 3.202 153.406 3.248 153.59 3.248C153.804 3.21733 154.065 3.27866 154.372 3.432V3.294ZM158.65 3.432H158.788V3.616H158.65V3.432ZM158.42 4.352H158.558V4.168H158.42V4.352ZM158.742 4.582H158.88V4.444H158.742V4.582ZM159.156 4.582H159.294V4.444H159.156V4.582ZM144.252 7.158H144.344V6.974H144.252V7.158ZM166.148 10.102C166.148 9.97933 166.086 9.85667 165.964 9.734C165.841 9.61133 165.734 9.55 165.642 9.55L165.826 9.688L165.734 9.78L166.148 10.102ZM142.596 10.056H142.366H142.596ZM141.308 17.416H141.4V17.508H141.308V17.416ZM194.509 4.49C194.754 4.52067 194.892 4.59733 194.923 4.72C194.984 4.84266 195.015 4.96533 195.015 5.088C195.015 5.21066 195.03 5.318 195.061 5.41C195.122 5.502 195.291 5.53266 195.567 5.502C195.414 5.80866 195.368 6.054 195.429 6.238C195.521 6.422 195.644 6.59067 195.797 6.744C195.95 6.86667 196.104 7.00467 196.257 7.158C196.441 7.31133 196.548 7.49533 196.579 7.71C196.487 7.86333 196.364 7.87867 196.211 7.756C196.088 7.63333 195.981 7.69467 195.889 7.94L196.809 8.216L196.119 8.446C196.334 8.446 196.456 8.52266 196.487 8.676C196.548 8.79867 196.548 8.93667 196.487 9.09C196.456 9.21267 196.41 9.33533 196.349 9.458C196.318 9.58067 196.334 9.642 196.395 9.642V10.01L196.211 9.964C196.211 10.0253 196.196 10.1633 196.165 10.378C196.134 10.562 196.226 10.654 196.441 10.654C196.349 10.562 196.272 10.562 196.211 10.654C196.18 10.746 196.134 10.8533 196.073 10.976C196.042 11.068 195.996 11.16 195.935 11.252C195.874 11.3133 195.782 11.298 195.659 11.206L195.797 11.482C195.705 11.6353 195.598 11.6507 195.475 11.528C195.383 11.3747 195.291 11.3747 195.199 11.528C195.107 11.6813 194.969 11.7887 194.785 11.85C194.601 11.9113 194.402 11.9573 194.187 11.988C193.972 11.988 193.727 11.988 193.451 11.988C193.206 11.988 192.976 12.0033 192.761 12.034C191.841 11.8193 190.798 11.6967 189.633 11.666C188.498 11.6047 187.456 11.6047 186.505 11.666C186.352 11.8807 186.275 12.126 186.275 12.402C186.306 12.6473 186.336 12.908 186.367 13.184C186.428 13.46 186.49 13.736 186.551 14.012C186.612 14.288 186.612 14.5487 186.551 14.794C186.919 16.2353 187.256 17.7227 187.563 19.256C187.9 20.7587 188.238 22.2767 188.575 23.81C188.912 25.3127 189.265 26.8153 189.633 28.318C190.001 29.8207 190.43 31.2773 190.921 32.688C190.982 33.0253 190.982 33.47 190.921 34.022C190.89 34.5433 190.706 34.9113 190.369 35.126C190.461 35.2793 190.507 35.5093 190.507 35.816C190.507 36.092 190.415 36.3067 190.231 36.46L189.311 36.092L189.495 36C189.311 35.8773 189.188 35.862 189.127 35.954C189.096 36.0153 189.066 36.1073 189.035 36.23C189.035 36.3833 188.989 36.5213 188.897 36.644C188.836 36.7667 188.698 36.7973 188.483 36.736C188.544 36.644 188.529 36.5673 188.437 36.506C188.345 36.4753 188.268 36.4293 188.207 36.368C188.023 36.5213 187.87 36.5673 187.747 36.506C187.655 36.4753 187.563 36.4293 187.471 36.368C187.379 36.3067 187.272 36.2607 187.149 36.23C187.026 36.23 186.873 36.3373 186.689 36.552C186.781 36.6133 186.812 36.6747 186.781 36.736C186.781 36.7973 186.781 36.8433 186.781 36.874C186.566 36.966 186.367 36.9353 186.183 36.782C186.03 36.6593 185.876 36.5213 185.723 36.368C185.6 36.2147 185.447 36.092 185.263 36C185.11 35.9387 184.926 36.0307 184.711 36.276C184.742 36.2453 184.757 36.1533 184.757 36C184.757 35.8467 184.68 35.7393 184.527 35.678L184.435 36.276C184.404 36.276 184.374 36.23 184.343 36.138C184.312 36.046 184.266 35.9387 184.205 35.816C184.144 35.6933 184.067 35.586 183.975 35.494C183.883 35.3713 183.776 35.31 183.653 35.31C183.561 35.0647 183.408 34.9113 183.193 34.85C183.009 34.7887 182.948 34.574 183.009 34.206L182.779 33.93L182.687 34.114C182.626 34.114 182.61 34.0833 182.641 34.022C182.702 33.93 182.764 33.838 182.825 33.746C182.886 33.654 182.902 33.562 182.871 33.47C182.871 33.3473 182.764 33.2707 182.549 33.24C182.61 33.1787 182.626 33.102 182.595 33.01C182.595 32.8873 182.534 32.7953 182.411 32.734C182.564 32.366 182.61 32.1053 182.549 31.952C182.518 31.768 182.38 31.5533 182.135 31.308C182.074 30.4187 181.92 29.606 181.675 28.87C181.46 28.1033 181.292 27.2907 181.169 26.432C181.138 26.0027 181.046 25.5273 180.893 25.006C180.74 24.4847 180.678 23.948 180.709 23.396C180.464 23.1813 180.341 22.9667 180.341 22.752C180.341 22.5373 180.356 22.338 180.387 22.154C180.448 21.9393 180.448 21.74 180.387 21.556C180.356 21.372 180.188 21.188 179.881 21.004C179.912 20.452 179.881 19.854 179.789 19.21C179.728 18.566 179.574 18.106 179.329 17.83C179.452 17.7073 179.498 17.5847 179.467 17.462C179.436 17.3087 179.39 17.1707 179.329 17.048C179.298 16.8947 179.268 16.7567 179.237 16.634C179.206 16.5113 179.237 16.3887 179.329 16.266C179.237 16.1127 179.176 15.944 179.145 15.76C179.114 15.576 179.099 15.392 179.099 15.208C179.099 15.024 179.084 14.8707 179.053 14.748C179.022 14.5947 178.946 14.472 178.823 14.38C178.915 14.2267 178.946 14.1193 178.915 14.058C178.884 13.9967 178.838 13.9507 178.777 13.92C178.716 13.8587 178.639 13.7973 178.547 13.736C178.486 13.6747 178.455 13.5673 178.455 13.414C178.394 13.322 178.363 13.2147 178.363 13.092C178.363 12.9387 178.363 12.8007 178.363 12.678C178.363 12.5247 178.348 12.3867 178.317 12.264C178.286 12.1413 178.21 12.0493 178.087 11.988C177.014 12.0493 175.956 12.172 174.913 12.356C173.87 12.5093 172.843 12.6167 171.831 12.678C170.85 12.7087 169.868 12.632 168.887 12.448C167.936 12.264 166.986 11.85 166.035 11.206C166.066 11.1447 166.05 11.0373 165.989 10.884C165.897 10.7 165.836 10.516 165.805 10.332C165.744 10.148 165.728 9.97933 165.759 9.826C165.79 9.642 165.912 9.504 166.127 9.412C165.943 9.35067 165.836 9.274 165.805 9.182C165.774 9.05933 165.774 8.952 165.805 8.86C165.836 8.768 165.866 8.69133 165.897 8.63C165.897 8.538 165.851 8.46133 165.759 8.4C165.82 8.33866 165.882 8.308 165.943 8.308C165.974 8.27733 166.004 8.23133 166.035 8.17L165.943 8.078C165.698 8.13933 165.667 8.124 165.851 8.032C166.004 7.94 166.112 7.86333 166.173 7.802C166.234 7.74067 166.234 7.69467 166.173 7.664C166.081 7.60266 166.004 7.60266 165.943 7.664L165.621 7.618L165.943 7.664V7.296C166.004 7.296 166.081 7.31133 166.173 7.342C166.265 7.37267 166.311 7.342 166.311 7.25C166.311 7.158 166.265 7.12733 166.173 7.158C166.081 7.158 166.02 7.158 165.989 7.158C166.05 7.066 166.096 6.98933 166.127 6.928C166.127 6.836 166.158 6.77466 166.219 6.744L165.851 6.376C165.882 6.34533 165.943 6.33 166.035 6.33C166.096 6.29933 166.173 6.284 166.265 6.284C166.326 6.284 166.372 6.26867 166.403 6.238C166.403 6.20733 166.357 6.146 166.265 6.054C166.572 5.99266 166.97 5.93133 167.461 5.87C167.921 5.80867 168.35 5.686 168.749 5.502L168.565 5.226C169.301 4.88867 170.037 4.65867 170.773 4.536C171.54 4.41333 172.306 4.33667 173.073 4.306C173.87 4.27533 174.683 4.26 175.511 4.26C176.339 4.26 177.198 4.18333 178.087 4.03C180.387 3.69266 182.687 3.46267 184.987 3.34C187.287 3.18667 189.556 3.064 191.795 2.972C192.102 2.972 192.347 3.064 192.531 3.248C192.746 3.40133 192.945 3.58533 193.129 3.8C193.313 3.984 193.497 4.15267 193.681 4.306C193.896 4.45933 194.172 4.52067 194.509 4.49ZM178.961 17.094H179.099V17.002H178.961V17.094ZM202.223 3.34C202.346 5.364 202.453 7.35733 202.545 9.32C202.668 11.252 202.852 13.1533 203.097 15.024C203.373 16.8947 203.757 18.7347 204.247 20.544C204.738 22.3533 205.443 24.132 206.363 25.88C206.179 26.0333 206.087 26.1867 206.087 26.34C206.118 26.4627 206.149 26.6007 206.179 26.754C206.241 26.9073 206.256 27.0607 206.225 27.214C206.195 27.3673 206.041 27.536 205.765 27.72L205.857 27.766C205.735 27.7353 205.643 27.812 205.581 27.996C205.551 28.18 205.535 28.3487 205.535 28.502C205.443 28.594 205.367 28.594 205.305 28.502C205.244 28.3793 205.152 28.3793 205.029 28.502C205.183 28.594 205.275 28.732 205.305 28.916C205.336 29.0693 205.382 29.2073 205.443 29.33C205.321 29.4833 205.183 29.514 205.029 29.422C204.907 29.2993 204.83 29.1613 204.799 29.008L204.431 29.284L204.845 29.928L204.063 29.422C203.971 29.514 203.941 29.5753 203.971 29.606C204.002 29.6367 204.048 29.6673 204.109 29.698C204.171 29.7287 204.217 29.7747 204.247 29.836C204.309 29.8667 204.324 29.928 204.293 30.02C204.079 30.0813 203.818 30.066 203.511 29.974C203.205 29.882 202.867 29.8667 202.499 29.928C202.346 29.7747 202.147 29.652 201.901 29.56C201.687 29.468 201.472 29.376 201.257 29.284C201.043 29.192 200.859 29.0693 200.705 28.916C200.552 28.7627 200.46 28.548 200.429 28.272C200.368 28.5173 200.291 28.64 200.199 28.64C200.107 28.64 199.985 28.594 199.831 28.502C199.709 28.41 199.571 28.318 199.417 28.226C199.295 28.1033 199.187 28.042 199.095 28.042C198.85 27.3367 198.62 26.6467 198.405 25.972C198.191 25.2667 197.93 24.6073 197.623 23.994L197.531 22.844H197.393C197.148 22.016 196.918 21.1113 196.703 20.13C196.489 19.118 196.366 18.2133 196.335 17.416C196.151 17.1707 196.105 16.9713 196.197 16.818C196.289 16.634 196.274 16.404 196.151 16.128C196.213 16.0667 196.274 16.128 196.335 16.312C196.397 16.496 196.504 16.588 196.657 16.588C196.657 16.3733 196.657 16.1893 196.657 16.036C196.688 15.852 196.596 15.6833 196.381 15.53C196.351 15.6833 196.289 15.7447 196.197 15.714C196.136 15.6527 196.059 15.5913 195.967 15.53C195.845 14.5793 195.783 13.5827 195.783 12.54C195.753 11.4973 195.63 10.4853 195.415 9.504C195.323 9.07467 195.339 8.66066 195.461 8.262C195.553 7.86333 195.538 7.434 195.415 6.974C195.415 7.00466 195.431 7.02 195.461 7.02C195.492 7.05067 195.523 7.066 195.553 7.066C195.523 6.82067 195.477 6.59067 195.415 6.376C195.323 6.13067 195.354 5.87 195.507 5.594C195.323 5.37933 195.262 5.16467 195.323 4.95C195.385 4.73533 195.477 4.52067 195.599 4.306C195.691 4.06067 195.768 3.83066 195.829 3.616C195.891 3.37067 195.829 3.12533 195.645 2.88C195.86 2.66533 196.167 2.57333 196.565 2.604C196.596 2.604 196.611 2.52733 196.611 2.374C196.642 2.22066 196.673 2.06733 196.703 1.914C196.765 1.76066 196.841 1.65333 196.933 1.592C197.025 1.5 197.179 1.51533 197.393 1.638C197.455 1.546 197.485 1.46933 197.485 1.408C197.516 1.34667 197.562 1.28533 197.623 1.224C197.777 1.16267 197.961 1.19333 198.175 1.316C198.421 1.408 198.543 1.34666 198.543 1.132C198.605 1.00933 198.589 0.901999 198.497 0.809998C198.405 0.717999 198.451 0.641333 198.635 0.579998C199.433 0.794666 200.077 1.16267 200.567 1.684C201.089 2.17467 201.641 2.72667 202.223 3.34ZM195.645 1.546H195.829V1.408H195.645V1.546ZM196.381 1.776H196.565V1.638H196.381V1.776ZM196.059 3.34H196.243V3.294H196.059V3.34ZM195.967 3.708H196.151V3.524H195.967V3.708ZM195.645 4.674H195.553L195.829 4.168C195.737 4.22933 195.707 4.306 195.737 4.398C195.737 4.49 195.707 4.582 195.645 4.674ZM195.829 10.102H195.921V9.918H195.829V10.102ZM195.829 11.666H195.921V11.482H195.829V11.666ZM196.657 11.758H196.795V11.666H196.657V11.758ZM195.829 12.172L195.967 12.724L195.829 12.172ZM196.059 14.196H196.243V14.15H196.059V14.196ZM195.967 14.38H196.151V14.196H195.967V14.38ZM196.795 15.622L196.979 15.944L196.795 15.622ZM197.485 17.094H197.623V16.91H197.485V17.094ZM197.623 21.924H197.807V21.786H197.623V21.924ZM197.623 22.614H197.807V22.522H197.623V22.614ZM205.995 27.766H206.179V27.628H205.995V27.766ZM205.673 28.87H205.765V28.686H205.673V28.87ZM205.351 34.758C205.627 34.9727 205.919 35.218 206.225 35.494C206.563 35.7393 206.839 36.0153 207.053 36.322C207.299 36.6593 207.452 37.012 207.513 37.38C207.605 37.748 207.575 38.1313 207.421 38.53C207.36 38.622 207.283 38.7447 207.191 38.898C207.13 39.0513 207.115 39.2047 207.145 39.358C206.655 39.8793 206.103 40.278 205.489 40.554C204.876 40.8607 204.171 40.9373 203.373 40.784C202.852 40.7227 202.377 40.508 201.947 40.14C201.518 39.8027 201.119 39.496 200.751 39.22L200.521 39.358C200.583 38.99 200.445 38.6373 200.107 38.3L199.831 38.392V38.208L200.429 38.07C200.276 37.9167 200.199 37.6713 200.199 37.334C200.199 37.0273 200.276 36.7207 200.429 36.414L200.015 36.23C200.383 36.0767 200.69 35.8467 200.935 35.54C201.211 35.2027 201.472 34.9727 201.717 34.85C201.533 34.39 201.595 34.068 201.901 33.884C202.239 33.7 202.591 33.608 202.959 33.608L202.913 33.516C203.404 33.4547 203.864 33.562 204.293 33.838C204.723 34.114 205.075 34.4207 205.351 34.758ZM201.901 35.586H202.085V35.448H201.901V35.586ZM200.981 36.184H200.843L200.935 35.908C200.966 35.9693 200.997 36.0153 201.027 36.046C201.058 36.0767 201.043 36.1227 200.981 36.184ZM200.981 36.69H201.165V36.506H200.981V36.69ZM201.257 37.748L200.981 37.886L200.567 37.38C200.659 37.5333 200.767 37.5793 200.889 37.518C201.043 37.4873 201.165 37.564 201.257 37.748ZM200.107 39.542H200.245V39.358H200.107V39.542ZM200.935 40.37H201.073V40.278H200.935V40.37Z" fill="black"/>
</svg>
