<svg width="89" height="147" viewBox="0 0 89 147" fill="none" xmlns="http://www.w3.org/2000/svg">
<path d="M80.0657 96.4316C78.8855 94.9307 77.8601 92.981 76.4268 91.6299C76.2211 88.447 76.0047 85.2647 75.7776 82.083C75.3466 76.0912 74.897 70.1007 74.4287 64.1115C74.039 59.1273 73.9447 53.9333 73.2713 48.9232C75.2008 41.8734 74.9205 34.4013 72.4685 27.5158C67.4764 13.5132 49.3778 -3.46669 33.8675 6.68541C33.6631 6.80802 33.4874 6.97312 33.3524 7.16954C33.2174 7.36596 33.1261 7.5891 33.0849 7.82386C21.6902 9.35643 11.2991 18.355 6.99782 28.7603C3.70947 36.7151 4.45974 45.0693 5.80379 53.3737C6.90051 60.15 8.51238 67.7659 14.3611 72.1084C19.2404 75.7312 25.4717 75.8662 31.3448 75.1894C30.732 77.9463 31.0709 80.8294 32.3063 83.369C32.3922 83.8546 32.4735 84.3378 32.5326 84.8139C32.908 87.8329 33.1737 90.8636 33.2822 93.9044C33.4848 100.288 33.0697 106.675 32.0426 112.978C31.9888 113.409 32.0847 113.844 32.3142 114.212C32.5437 114.58 32.8929 114.858 33.303 114.999C35.2699 115.784 37.2717 116.465 39.2965 117.059C39.2039 117.232 39.1553 117.425 39.155 117.622C39.1548 117.818 39.2028 118.011 39.295 118.185C41.4334 122.457 47.2097 125.223 51.2879 127.303C53.7123 128.571 56.2027 129.707 58.7485 130.709C56.9971 133.459 55.1362 136.136 53.1661 138.738C51.5907 140.821 54.9294 142.801 56.3721 140.924C58.5898 138.052 60.6282 135.046 62.4756 131.924C64.3296 132.444 66.2448 132.715 68.1704 132.728C69.9998 132.711 71.3681 130.401 69.2096 129.522C67.7367 128.938 66.2345 128.432 64.709 128.005C66.3576 125.13 68.2618 121.76 68.136 118.72C68.1357 118.712 68.1318 118.707 68.1313 118.699C68.2869 118.671 68.4438 118.651 68.5993 118.623C70.0517 118.354 72.0878 117.534 73.7004 117.628C73.7135 117.706 73.7218 117.785 73.7353 117.863C74.0787 119.842 77.6207 119.951 77.755 117.827C78.1097 112.22 77.3347 106.425 76.9982 100.82C76.9475 99.974 76.8921 99.1286 76.8405 98.283C78.3062 100.165 79.9079 102.34 82.2508 103.097C82.8765 103.299 83.9487 102.887 83.7629 102.06C83.2623 99.8301 81.4412 98.1808 80.0657 96.4316ZM20.2439 70.9695C13.4389 68.636 11.3421 61.4105 10.2335 55.0287C9.02329 48.0618 7.88384 40.6249 9.70418 33.6694C13.3211 19.8497 25.9648 11.8083 39.5056 10.2373C39.7324 10.223 39.9511 10.1472 40.138 10.0179C40.3249 9.88859 40.473 9.71075 40.5663 9.50353C40.6596 9.2963 40.6947 9.06754 40.6676 8.84188C40.6406 8.61623 40.5525 8.40223 40.4128 8.22293C51.8356 5.8068 62.8121 16.1731 67.3489 26.2311C69.9048 31.9081 70.8123 38.1895 69.9677 44.3577C69.7662 44.4629 69.5969 44.6207 69.4778 44.8143C69.3587 45.0079 69.2942 45.2302 69.2912 45.4575C69.2553 46.2747 69.2469 47.0951 69.2511 47.9167C67.7781 53.7336 64.4197 58.8988 59.7008 62.6052C53.9134 67.1062 46.5173 68.8486 39.4565 70.167C33.3544 71.3063 26.3165 73.0518 20.2439 70.9695ZM61.008 126.955C58.8191 126.375 56.6789 125.625 54.6066 124.712C50.9417 122.971 47.4833 120.824 44.2961 118.313C47.3654 118.959 50.4791 119.372 53.6106 119.549C56.8745 119.73 60.1474 119.665 63.4014 119.353C64.027 119.292 64.6498 119.211 65.2729 119.131C63.4779 121.311 62.3529 124.402 61.008 126.955ZM72.5036 99.1356C72.7861 103.881 72.7442 108.823 73.1897 113.621C71.6838 113.804 70.1906 114.08 68.7189 114.448C64.9519 115.188 61.123 115.567 57.2842 115.58C50.2016 115.567 43.1735 114.341 36.5048 111.955C37.3344 106.031 37.6494 100.047 37.4462 94.0688C37.335 90.7955 37.0508 87.5304 36.5949 84.2871C36.2232 81.6836 36.0623 78.993 34.7006 76.7596C34.5912 76.0965 34.446 75.4398 34.2656 74.7924C34.5276 74.7521 34.7909 74.7127 35.05 74.6712C43.2509 73.3586 51.7945 71.8739 59.0719 67.6496C60.921 66.5727 62.649 65.2999 64.2258 63.8533C63.2095 65.7566 62.1525 67.6348 61.0546 69.488C59.1193 72.7556 57.0261 75.9327 54.8026 79.0113C52.5553 82.1226 50.0843 84.4031 47.4143 87.0565C46.3032 88.1606 47.7154 89.5335 48.9188 89.432C52.4012 89.1383 54.5874 86.0009 56.5559 83.401C59.0466 80.108 61.3563 76.6818 63.4747 73.1377C65.6251 69.5577 67.5601 65.8527 69.2694 62.0424C69.4991 61.5282 69.7781 60.9712 70.0729 60.3863C70.1271 61.0545 70.1816 61.7229 70.2261 62.3877C70.6439 68.6359 71.0415 74.8855 71.4189 81.1363C71.7812 87.136 72.1427 93.1358 72.5036 99.1356Z" fill="#FFDC17"/>
<path d="M34.1062 37.385C34.1062 38.6217 33.615 39.8076 32.7405 40.6821C31.8661 41.5565 30.6801 42.0478 29.4435 42.0478C28.2069 42.0478 27.0209 41.5565 26.1464 40.6821C25.272 39.8076 24.7808 38.6217 24.7808 37.385C24.7808 34.8099 27.1994 35.5533 29.4435 34.2901C31.5906 33.0814 34.1062 34.8099 34.1062 37.385Z" fill="#FFDC17"/>
<path d="M47.2665 37.7768C47.2665 39.9432 49.4078 41.5136 52.0492 41.2844C54.6906 41.0552 56.8319 39.1131 56.8319 36.9467C56.8319 34.7802 54.3509 35.6209 52.0492 34.758C49.8468 33.9323 47.2665 35.6104 47.2665 37.7768Z" fill="#FFDC17"/>
</svg>
