<svg width="26" height="38" viewBox="0 0 26 38" fill="none" xmlns="http://www.w3.org/2000/svg">
<path d="M24.6395 20.4022C23.9821 18.7872 23.1488 16.9934 21.4458 16.2483C20.0251 15.6267 18.4653 15.9443 17.0408 16.4426C17.0371 15.7259 16.7893 15.0316 16.3376 14.4727C16.2886 14.3574 16.241 14.2424 16.1992 14.1279C15.9346 13.402 15.6965 12.667 15.4971 11.9207C15.1049 10.4299 14.8525 8.90631 14.7429 7.3693C16.0322 7.47572 17.3457 7.48944 18.6195 7.67579C18.9108 7.71842 19.3671 7.57838 19.3337 7.19475C19.1374 4.93962 19.2189 2.72395 19.249 0.467284C19.2575 -0.172082 18.2405 -0.137904 18.1657 0.467284C17.9168 2.48116 17.9952 4.5708 18.1565 6.59973C16.5293 6.35539 14.7796 6.1095 13.1898 6.36129C13.1328 6.36897 13.0783 6.3893 13.0304 6.42079C12.9824 6.45228 12.9422 6.49412 12.9128 6.54318C11.5994 6.44241 10.2785 6.5018 8.97965 6.72003C8.1564 6.85901 7.3449 7.0596 6.55209 7.32012C6.1276 7.46012 5.70983 7.61795 5.2988 7.79358C4.95222 7.94178 4.49161 8.25947 4.08463 8.32711C4.07694 8.30853 4.07034 8.28929 4.06255 8.27076C4.05765 8.2591 4.05053 8.24962 4.04481 8.23876C3.80556 7.61269 3.54615 6.99437 3.33859 6.35669C3.09837 5.61868 3.00522 4.85589 2.78856 4.11466C2.59396 3.4489 2.22191 2.94219 1.88519 2.34332C1.60215 1.83994 1.52219 1.2877 1.08154 0.888486C0.682487 0.526933 -0.235244 1.0055 0.188284 1.49784C0.541963 1.90898 0.682159 2.52053 0.974667 2.98734C1.38623 3.59825 1.68622 4.27642 1.86085 4.99077C2.12799 6.1546 2.53334 7.28278 3.06839 8.35161C3.05683 8.40236 3.05514 8.45484 3.0634 8.50622C3.29298 9.91372 3.81459 11.304 4.21621 12.672C4.6639 14.1969 5.11936 15.7194 5.5826 17.2396C6.02969 18.698 6.48135 20.155 6.93757 21.6107C7.31722 22.822 7.63521 24.102 8.08701 25.3038C8.00615 27.1569 8.49961 28.9901 9.50077 30.5558C9.50303 30.5593 9.50562 30.5628 9.50787 30.5663C9.29424 31.646 9.44541 32.8597 9.45016 33.9475C9.45509 35.0871 9.24761 36.451 9.58657 37.5448C9.69902 37.9076 10.3099 37.9174 10.4176 37.5448C10.735 36.4465 10.5031 35.0844 10.4859 33.9475C10.4757 33.2696 10.5219 32.5424 10.5032 31.8301C12.9791 34.4793 17.4534 36.464 20.2966 33.5359C20.3406 33.4941 20.375 33.4433 20.3975 33.3871C20.42 33.3309 20.43 33.2705 20.427 33.2101C20.4495 33.2018 20.4711 33.191 20.4935 33.1824C20.5012 33.7049 20.5355 34.2268 20.5962 34.7459C20.6626 35.6785 20.727 36.6112 20.8054 37.543C20.8542 38.1229 21.8606 38.1289 21.8209 37.543C21.7537 36.5516 21.6711 35.5614 21.5912 34.5711C21.5425 33.9674 21.5419 33.3494 21.3744 32.7729C23.6476 31.5207 25.3133 29.0432 25.7377 26.56C26.1057 24.4064 25.4451 22.3814 24.6395 20.4022ZM8.08209 21.8005C7.62373 20.2779 7.17035 18.7538 6.72195 17.2283C6.29153 15.7641 5.86129 14.2999 5.43121 12.8356C5.09178 11.6772 4.82202 10.4521 4.43903 9.28991C4.80373 9.15971 5.15997 9.00719 5.50569 8.83323C6.40205 8.43809 7.33426 8.12867 8.28969 7.90917C10.0546 7.51338 11.8746 7.42087 13.671 7.63566C13.8002 9.1482 14.0611 10.6468 14.4506 12.1146C14.6639 12.9183 14.9198 13.7102 15.2173 14.4871C15.4575 15.1104 15.6501 15.7671 16.1159 16.2431C16.1808 16.401 16.2542 16.5553 16.3358 16.7054C16.2728 16.7301 16.2095 16.7547 16.1473 16.7795C14.179 17.5663 12.1352 18.4149 10.562 19.8701C9.60816 20.7534 8.89621 21.8633 8.4932 23.0953C8.35271 22.6625 8.21166 22.2309 8.08209 21.8005V21.8005ZM24.7852 25.4977C24.6679 29.1211 21.9746 31.8231 18.6909 32.9746C18.6352 32.9909 18.585 33.022 18.5458 33.0645C18.5066 33.107 18.4798 33.1594 18.4683 33.2159C18.4568 33.2724 18.461 33.331 18.4806 33.3853C18.5001 33.4396 18.5342 33.4876 18.5791 33.5241C15.8709 34.7654 12.5491 32.8186 10.8488 30.5853C9.89028 29.3245 9.30809 27.8213 9.16871 26.2474C9.21295 26.21 9.24618 26.1615 9.26487 26.1068C9.28356 26.0522 9.28702 25.9936 9.27488 25.9372C9.2375 25.7329 9.19307 25.5295 9.14544 25.3264C9.18254 23.804 9.72617 22.3367 10.6914 21.1538C11.8777 19.714 13.6212 18.8662 15.3051 18.1423C16.7604 17.5167 18.4145 16.6883 20.0451 16.8615C21.8724 17.0556 22.8044 18.7255 23.4423 20.2422C24.1388 21.898 24.8443 23.674 24.7852 25.4977V25.4977Z" fill="#7100D2"/>
<path d="M17.7603 28.0093C17.7603 28.5591 18.3072 28.9576 18.982 28.8994C19.6568 28.8413 20.2038 28.3484 20.2038 27.7986C20.2038 27.2488 19.57 27.2449 18.982 27.0259C18.4194 26.8164 17.7603 27.4595 17.7603 28.0093Z" fill="#7100D2"/>
<path d="M15.8985 25.839C15.83 25.9788 15.7345 26.1039 15.6173 26.207C15.5001 26.3102 15.3637 26.3894 15.2157 26.4401C15.0677 26.4908 14.9111 26.512 14.7549 26.5025C14.5986 26.4931 14.4458 26.4531 14.3051 26.3849C14.1644 26.3167 14.0386 26.2217 13.9349 26.1051C13.8312 25.9886 13.7517 25.8529 13.7008 25.7059C13.65 25.5588 13.6288 25.4032 13.6385 25.248C13.6482 25.0928 13.6887 24.941 13.7575 24.8013C14.0459 24.2139 14.5179 24.6526 15.1746 24.6142C15.803 24.5775 16.1869 25.2516 15.8985 25.839Z" fill="#7100D2"/>
</svg>
