<svg width="41" height="26" viewBox="0 0 41 26" fill="none" xmlns="http://www.w3.org/2000/svg">
<path d="M38.7122 5.25704C38.6659 5.21407 38.611 5.18153 38.5512 5.16163C38.4913 5.14173 38.4278 5.13494 38.3651 5.1417C37.1377 2.35655 34.0853 0.375483 31.1229 0.0465573C28.8582 -0.204908 26.7887 0.60005 24.7756 1.55233C23.1329 2.32939 21.3146 3.29921 20.6402 5.10587C20.0776 6.61305 20.5013 8.20767 21.1052 9.65152C20.3591 9.69835 19.6508 9.9965 19.0957 10.4974C18.9786 10.5549 18.8617 10.6111 18.7449 10.6612C18.0048 10.9786 17.2535 11.269 16.4882 11.5201C14.8798 12.0409 13.2248 12.4049 11.5463 12.607C11.4329 12.625 11.3292 12.6814 11.2525 12.7668C11.1758 12.8522 11.1309 12.9614 11.1252 13.0761C11.0194 14.1428 11.0123 15.217 11.1041 16.285C11.0664 16.244 11.0289 16.2038 10.9903 16.161C10.5317 15.6398 10.0214 15.1666 9.46732 14.7484C8.82238 14.2728 8.00603 13.7461 7.51972 14.6817C6.84293 15.9839 6.60949 17.7803 6.38466 19.2131C6.21229 20.3194 6.1071 21.435 6.06968 22.554C5.55226 22.4398 5.02677 22.3659 4.49794 22.3329C4.03084 22.3109 3.56152 22.32 3.09524 22.282C2.85071 22.2621 1.9854 22.1957 1.68561 21.9887C1.68485 21.9278 1.67097 21.8679 1.64491 21.8129C1.61886 21.7579 1.58125 21.7092 1.53465 21.67C1.44728 21.5879 1.33995 21.5301 1.22333 21.5023C1.10671 21.4746 0.984855 21.4778 0.869859 21.5116C0.753823 21.5371 0.649261 21.5998 0.572035 21.69C0.49481 21.7803 0.449135 21.8933 0.44193 22.0119C0.408835 22.9345 1.95386 23.2241 2.63004 23.3095C3.25024 23.3879 3.87464 23.3737 4.49794 23.4009C5.02156 23.4352 5.54131 23.5139 6.05158 23.6363C6.05202 23.8148 6.0533 23.9934 6.05696 24.1722C6.07062 24.8428 7.22599 24.8438 7.2123 24.1722C7.2102 24.0692 7.21211 23.9666 7.21111 23.8637C8.58072 24.0578 9.96789 24.0962 11.3462 23.9783C11.9495 23.9365 12.6405 23.9849 13.1667 23.7742C12.9968 24.1219 13.2327 24.6865 13.6738 24.5887C15.1259 24.2667 16.5427 23.6436 17.9433 23.146C19.5046 22.5913 21.0631 22.0287 22.6186 21.4581C23.7286 21.0489 24.8373 20.6363 25.9447 20.2201C25.9977 20.5412 26.0227 20.9042 26.0565 21.0569C26.1294 21.3854 26.2041 21.7136 26.2782 22.0418C25.468 22.0308 24.6613 22.1502 23.889 22.3953C23.1123 22.6478 22.0259 23.0088 21.6466 23.7822C21.4821 24.1176 21.7819 24.388 22.1191 24.3292C22.9139 24.1907 23.5846 23.6147 24.3642 23.3718C25.2099 23.1134 26.0966 23.0161 26.9782 23.0851C27.0599 23.0902 27.1417 23.0763 27.2171 23.0444C27.2925 23.0125 27.3594 22.9635 27.4126 22.9013C27.4659 22.8392 27.5039 22.7654 27.5238 22.686C27.5437 22.6066 27.5448 22.5237 27.5272 22.4437C27.3257 21.607 27.194 20.6815 26.8934 19.867C26.9588 19.8425 27.0244 19.8185 27.0898 19.7939C28.0007 19.4517 28.952 19.1413 29.8787 18.7867C30.6328 20.1258 31.4794 21.4107 32.4124 22.6319C31.6618 22.752 30.9225 22.9341 30.202 23.1762C29.0493 23.5148 27.7164 23.7424 26.6649 24.3278C26.5685 24.3805 26.4932 24.4649 26.4517 24.5667C26.4102 24.6685 26.405 24.7814 26.437 24.8866C26.469 24.9917 26.5362 25.0827 26.6274 25.1441C26.7185 25.2055 26.8281 25.2336 26.9375 25.2237C29.1571 25.0434 31.2255 23.5355 33.4834 23.6604C33.8591 23.6812 34.2554 23.2288 33.9868 22.8797C32.8696 21.4282 31.9036 19.881 30.8402 18.3946C30.8492 18.3906 30.8583 18.387 30.8673 18.383C32.802 18.3555 34.6816 17.7349 36.2525 16.6051C39.4465 14.3062 42.4342 8.45519 38.7122 5.25704ZM12.6596 22.8839C12.0961 22.9065 11.5337 22.9516 10.9702 22.9744C9.71762 23.0561 8.45983 22.9946 7.22124 22.791C7.27396 20.7168 7.56697 18.6557 8.09442 16.6491C8.17844 16.332 8.4536 15.7975 8.55211 15.3771C8.61106 15.4173 8.67247 15.4537 8.72935 15.497C8.99523 15.6837 9.25028 15.8853 9.49324 16.1009C10.1147 16.6554 10.5583 17.3101 11.2839 17.6805C11.3355 17.9797 11.3923 18.2783 11.4608 18.5751C11.6547 19.4185 11.912 20.246 12.2306 21.0506C12.4017 21.4813 12.5909 21.9041 12.7984 22.3188C12.8839 22.4897 13.0132 22.6866 13.1341 22.8917C12.9566 22.8944 12.7569 22.8799 12.6596 22.8839ZM27.2192 18.5985C25.6609 19.164 24.1008 19.7246 22.5389 20.2801C21.0397 20.8133 19.5405 21.3463 18.0412 21.8791C16.8551 22.2999 15.5953 22.6525 14.4079 23.1185C14.2506 22.749 14.0705 22.3896 13.8687 22.0423C13.4038 21.1387 13.0259 20.1928 12.7404 19.2175C12.2229 17.4154 12.0181 15.5379 12.1346 13.6666C13.7021 13.4421 15.2471 13.0823 16.7525 12.5911C17.5768 12.3222 18.3862 12.0099 19.1775 11.6555C19.8123 11.3696 20.4847 11.1309 20.9526 10.6204C21.1132 10.5438 21.2695 10.4586 21.4209 10.3652C21.4504 10.4288 21.4798 10.4929 21.5094 10.5557C22.4461 12.5448 23.4518 14.6084 25.061 16.1486C26.0378 17.0824 27.2361 17.7524 28.5431 18.0954C28.1008 18.2667 27.6598 18.4385 27.2192 18.5985V18.5985ZM36.2028 15.2087C34.947 16.276 33.4162 16.9686 31.7855 17.2073C31.7439 17.1637 31.6914 17.1323 31.6334 17.1162C31.5754 17.1002 31.5141 17.1001 31.4561 17.1161C31.2456 17.167 31.0363 17.2252 30.8277 17.2867C29.2401 17.3397 27.6797 16.8653 26.3901 15.9377C24.82 14.7968 23.8332 13.0439 22.9788 11.3452C22.2405 9.87711 21.2792 8.21561 21.3624 6.51822C21.4555 4.61607 23.1389 3.55165 24.6804 2.80053C26.3632 1.9806 28.1707 1.14411 30.0734 1.09573C33.8539 0.999583 36.8284 3.62387 38.2233 6.952C38.2436 7.00864 38.279 7.05867 38.3256 7.09669C38.3723 7.13472 38.4284 7.15931 38.4879 7.16781C38.5475 7.17631 38.6082 7.1684 38.6636 7.14493C38.719 7.12147 38.767 7.08334 38.8023 7.03464C40.2565 9.76196 38.4272 13.3155 36.2028 15.2087Z" fill="#7100D2"/>
<path d="M31.2767 6.17878C31.2058 6.32467 31.1068 6.45513 30.9854 6.56273C30.8639 6.67032 30.7225 6.75292 30.5692 6.80581C30.4158 6.8587 30.2535 6.88084 30.0916 6.87097C29.9297 6.8611 29.7713 6.81941 29.6255 6.74828C29.4797 6.67714 29.3493 6.57797 29.2419 6.45643C29.1345 6.33489 29.052 6.19335 28.9993 6.03993C28.9466 5.88651 28.9247 5.7242 28.9348 5.56229C28.9448 5.40038 28.9867 5.24204 29.058 5.09633C29.3569 4.48365 29.8461 4.94127 30.5266 4.9012C31.1777 4.86286 31.5756 5.56609 31.2767 6.17878Z" fill="#7100D2"/>
<path d="M35.2976 13.6105C35.7703 13.2858 35.7921 12.5832 35.3462 12.0412C34.9003 11.4991 34.1556 11.323 33.6828 11.6477C33.2101 11.9724 33.7654 12.3877 33.922 13.0193C34.0719 13.6237 34.8249 13.9352 35.2976 13.6105Z" fill="#7100D2"/>
</svg>
