<svg width="30" height="40" viewBox="0 0 30 40" fill="none" xmlns="http://www.w3.org/2000/svg">
<path d="M0.368702 22.9295C1.38755 22.1896 2.29082 21.3025 3.04894 20.2971C3.68356 19.4335 4.65256 18.1465 4.71638 17.0538C4.71798 17.0008 4.73078 16.9488 4.75395 16.9011C4.77712 16.8534 4.81013 16.8112 4.85081 16.7772C4.78953 15.9156 4.73419 15.0487 4.73816 14.1924C3.91918 12.2341 3.72083 10.0716 4.16986 7.99698C5.08461 3.77773 9.66289 -1.7885 14.5091 0.556049C14.5726 0.583727 14.6293 0.624717 14.6755 0.676244C14.7217 0.72777 14.7564 0.788629 14.777 0.854697C18.116 0.870504 21.4447 3.07404 23.0721 5.91014C24.3163 8.07832 24.4122 10.5124 24.3353 12.9543C24.3243 13.8865 24.2325 14.8161 24.061 15.7324C24.8223 15.5703 25.5692 15.3462 26.2941 15.0624C27.108 14.7851 27.9677 14.3061 28.8323 14.3999C29.1705 14.4366 29.3915 14.7577 29.1296 15.0388C28.4107 15.8105 27.0011 15.9943 26.02 16.2991C25.2606 16.535 24.5213 16.8401 23.7707 16.768C23.5218 17.4855 23.1112 18.1362 22.5705 18.6696C21.3005 19.8952 19.5109 20.1668 17.7942 20.1912C18.0736 20.9623 18.0837 21.8054 17.8228 22.5829C17.8162 22.726 17.8108 22.8682 17.8116 23.0075C17.8162 23.891 17.8529 24.7738 17.9352 25.6536C18.1153 27.4995 18.4734 29.3237 19.0046 31.1007C19.0362 31.2226 19.0248 31.3517 18.9725 31.4662C18.9201 31.5807 18.8299 31.6737 18.7171 31.7296C18.2916 31.967 17.8583 32.1878 17.4171 32.3918C17.8348 33.2828 17.8383 34.3929 17.9057 35.3541C18.0083 36.6434 18.0128 37.9387 17.9194 39.2287C17.8684 39.8481 16.8193 39.8635 16.8369 39.2287C16.871 38.0023 16.9137 36.7843 16.8485 35.5578C16.7997 34.6408 16.5663 33.6584 16.6372 32.7332C15.4774 33.2113 14.2714 33.5683 13.0383 33.7986C12.1051 33.9728 11.16 34.0761 10.2112 34.1077C9.91935 34.1171 9.62751 34.1174 9.3357 34.1124C9.52322 34.5588 9.53177 35.123 9.60155 35.6095C9.78086 36.8072 9.85621 38.0183 9.82673 39.229C9.80617 39.9009 8.66417 39.9044 8.66717 39.229C8.68917 38.0872 8.64055 36.9452 8.52159 35.8095C8.4513 35.2206 8.20058 34.5965 8.30546 34.0504C7.93537 33.9761 7.55621 33.9576 7.18064 33.9956C7.17979 34.0185 7.18036 34.0418 7.17937 34.0648C7.1544 34.6473 6.13836 34.811 6.02032 34.2044C5.70874 32.6027 5.71551 30.9048 5.6031 29.278C5.5003 27.7905 5.40412 26.3026 5.31455 24.8143C4.6866 25.4221 4.05827 26.0296 3.42956 26.6366C2.92305 27.1233 2.48063 27.5579 1.77619 27.7167C1.05495 27.8793 0.703035 26.8982 1.45564 26.6819C2.12752 26.4887 2.68887 25.7451 3.17607 25.2751L4.06113 24.4212C2.98027 24.1097 1.87506 23.89 0.757256 23.7644C0.385252 23.7228 -0.0594732 23.2487 0.368702 22.9295ZM6.11811 17.9565C6.23113 19.7716 6.35002 21.5863 6.4748 23.4007C6.59455 25.1422 6.71451 26.8836 6.83467 28.6251C6.93054 30.0024 7.12715 31.424 7.17806 32.8224C7.61862 32.819 8.05898 32.8429 8.49659 32.8939C9.60911 32.9661 10.726 32.9322 11.8321 32.7926C13.8714 32.5244 15.8498 31.9089 17.6812 30.9726C17.2211 29.2975 16.9069 27.5858 16.7421 25.8565C16.6519 24.9096 16.6118 23.9586 16.6219 23.0075C16.6317 22.2438 16.5776 21.4629 16.8864 20.7688C16.8931 20.5737 16.9104 20.3792 16.9381 20.186C16.8612 20.1842 16.7839 20.1826 16.7077 20.1804C14.2968 20.1087 11.7808 20.0002 9.52711 19.0553C8.16023 18.4815 6.96184 17.5693 6.04474 16.4045C6.06599 16.9245 6.08615 17.4433 6.11811 17.9565ZM5.5191 12.7541C5.58107 12.7769 5.63573 12.816 5.67726 12.8673C5.7188 12.9186 5.74567 12.9802 5.75502 13.0456C5.79591 13.2796 5.82895 13.5156 5.85842 13.7524C6.49993 15.3726 7.66005 16.7348 9.15757 17.626C10.9924 18.7062 13.1876 18.9318 15.2704 19.0477C17.0704 19.1479 19.1625 19.3878 20.8337 18.5613C22.7064 17.6351 23.0404 15.4758 23.1214 13.5964C23.2097 11.5447 23.2601 9.36028 22.476 7.42507C20.9182 3.58002 16.9765 1.7363 13.018 1.78958C12.9521 1.79395 12.8863 1.78027 12.8276 1.75001C12.769 1.71975 12.7197 1.67407 12.6851 1.61787C12.6504 1.56168 12.6318 1.4971 12.6312 1.4311C12.6305 1.3651 12.6479 1.30018 12.6814 1.24332C9.3014 0.974095 6.5273 4.36959 5.59632 7.43579C5.07225 9.16624 5.04549 11.0092 5.5191 12.7541ZM5.24428 23.6404C5.162 22.1967 5.08387 20.7527 5.00991 19.3085C4.78036 19.6666 4.5469 19.984 4.39306 20.2056C3.70328 21.1959 2.90005 22.1022 1.99971 22.9058C3.10164 23.0497 4.18782 23.2956 5.24428 23.6404Z" fill="#7100D2"/>
<path d="M17.6814 9.45412C17.6814 10.202 18.2877 10.0604 19.0355 10.0604C19.3947 10.0604 19.7391 9.91771 19.993 9.66376C20.247 9.40982 20.3896 9.06539 20.3896 8.70625C20.3896 7.95839 19.6872 8.17428 19.0355 7.80743C18.412 7.45642 17.6814 8.70626 17.6814 9.45412Z" fill="#7100D2"/>
<path d="M14.1758 10.7144C14.1758 11.3436 13.5789 11.8545 12.9284 11.4425C11.3978 10.4734 11.3978 11.1025 11.3978 10.4734C11.3978 9.8442 12.1183 9.15951 12.7868 8.90889C13.4264 8.66909 14.1758 10.0853 14.1758 10.7144Z" fill="#7100D2"/>
</svg>
