<svg width="32" height="40" viewBox="0 0 32 40" fill="none" xmlns="http://www.w3.org/2000/svg">
<path d="M31.0002 29.1411C29.6926 27.6283 28.9311 25.7829 28.0922 23.9894C27.6843 23.1172 27.2553 22.2504 26.9184 21.3474C26.6254 20.4902 26.4501 19.5972 26.3975 18.6929C26.6101 18.2008 26.8137 17.7057 26.9948 17.2067C28.5038 15.5832 29.4784 13.5357 29.7869 11.3408C30.4127 6.87635 27.9347 -0.229771 22.34 0.319208C22.2678 0.323444 22.1974 0.34314 22.1335 0.376958C22.0696 0.410776 22.0138 0.457928 21.9697 0.51522C18.6921 -0.673944 14.6353 0.284365 12.0174 2.47632C10.016 4.15208 9.04378 6.50262 8.23817 8.92319C7.58079 10.8984 6.94391 13.1715 7.90556 15.1603C8.70783 16.8195 10.3634 17.7313 12.0369 18.3746C11.4849 19.0294 11.1708 19.8518 11.146 20.7079C11.1009 20.8504 11.0548 20.9917 11.0038 21.128C10.6805 21.9921 10.3261 22.8439 9.92798 23.6763C9.10196 25.3862 8.11526 27.0137 6.98118 28.5368C6.41499 28.2146 5.72456 28.0383 5.16057 27.7926C4.37209 27.4094 3.60686 26.9801 2.86884 26.507C2.60665 26.3546 2.39867 26.2196 2.07425 26.2773C1.21273 26.4303 0.779068 27.9269 0.529949 28.6305C0.0803024 29.9126 -0.0862019 31.277 0.0418893 32.6296C0.0837381 33.0784 0.474329 33.2624 0.885741 33.2017L0.791675 33.2174C0.860024 33.2555 0.936737 33.2763 1.01502 33.2777C1.0933 33.2792 1.17073 33.2613 1.24046 33.2257C1.31018 33.1901 1.37006 33.1379 1.41477 33.0736C1.45948 33.0093 1.48763 32.935 1.49676 32.8572C1.50653 32.7912 1.51629 32.7252 1.52606 32.6591C1.52837 32.5888 1.51451 32.5188 1.48556 32.4547C1.4566 32.3905 1.41332 32.3339 1.35904 32.2891C1.31716 31.467 1.38835 30.643 1.57064 29.8402C1.68564 29.3583 1.84073 28.8869 2.03427 28.4308C2.13857 28.1875 2.25572 27.9499 2.38523 27.719C2.97885 28.2429 3.99693 28.6099 4.67476 28.89C5.4802 29.2228 6.24645 29.4533 6.95952 29.9748C7.05188 30.04 7.15917 30.081 7.27152 30.094C7.38388 30.1069 7.49769 30.0914 7.60247 30.0488C8.83304 31.364 10.2419 32.5003 11.7879 33.4244C12.6395 33.9317 13.5283 34.3739 14.4466 34.7472C14.9387 34.9466 15.4386 35.1246 15.9461 35.2813C16.1289 35.3377 16.3548 35.3824 16.5859 35.4342C16.5597 35.5131 16.5519 35.597 16.5632 35.6793C16.5744 35.7617 16.6044 35.8404 16.6508 35.9093C17.8809 37.5948 19.4908 38.9667 21.3501 39.914C21.5105 39.9978 21.6957 40.0214 21.872 39.9802C22.0483 39.9391 22.204 39.836 22.3107 39.6898C23.3377 37.9516 24.4705 36.2927 25.5595 34.5949C26.0308 33.8602 24.8235 33.351 24.3611 33.9714C23.3054 35.4257 22.3277 36.935 21.4319 38.4929C20.6732 38.0599 19.965 37.544 19.3202 36.9547C19.0702 36.708 18.8391 36.4428 18.629 36.1612C19.4516 34.7505 20.0378 33.1632 20.7046 31.677C20.966 31.0945 21.2262 30.5114 21.485 29.9278C21.6284 30.1373 21.7697 30.3481 21.9038 30.5643C22.1538 30.9671 22.3579 31.4097 22.6436 31.7876C22.981 32.2338 23.9717 32.0334 23.7502 31.3724C23.4458 30.4641 22.7714 29.5661 22.175 28.8259C22.134 28.7762 22.0851 28.7335 22.0304 28.6994C22.3585 27.9572 22.6848 27.2141 23.0092 26.4702C23.7353 24.7994 24.4561 23.1263 25.1718 21.451C25.2469 21.2753 25.3235 21.0993 25.4016 20.9231C25.7156 22.0572 26.29 23.174 26.7189 24.1217C27.6026 26.0742 28.4012 28.1165 29.8157 29.7573C30.3153 30.3369 31.5504 29.7777 31.0002 29.1411ZM24.2846 20.3973C23.519 22.1351 22.7477 23.8705 21.9709 25.6034C21.2252 27.2666 20.4794 28.9298 19.7334 30.5929C19.1425 31.9079 18.437 33.23 17.8826 34.582C17.4521 34.4197 17.012 34.2842 16.5647 34.1763C15.4485 33.8458 14.3663 33.4096 13.3328 32.8737C11.4312 31.8752 9.71474 30.5582 8.25784 28.9801C9.3131 27.5047 10.2386 25.9406 11.0239 24.3055C11.4539 23.4102 11.8363 22.4929 12.1695 21.5572C12.4354 20.8053 12.7702 20.0596 12.7181 19.2681C12.7819 19.0745 12.8351 18.8776 12.8776 18.6783C12.9537 18.7043 13.03 18.7307 13.1054 18.7559C15.4938 19.5555 17.9984 20.3569 20.5476 20.2441C22.0941 20.175 23.5975 19.7134 24.9164 18.9029C24.7079 19.4048 24.501 19.9059 24.2846 20.3973ZM21.4254 18.9768C19.2377 19.3733 17.0053 18.8024 14.9225 18.1646C13.1225 17.6134 10.9859 17.0936 9.64657 15.6808C8.14562 14.0976 8.59734 11.8612 9.19607 9.99035C9.84974 7.94803 10.5884 5.78933 12.0549 4.17589C14.9687 0.970132 19.4964 0.585593 23.3561 2.06594C23.4191 2.09398 23.4885 2.10431 23.5569 2.09583C23.6253 2.08734 23.6901 2.06036 23.7443 2.01779C23.7985 1.97521 23.84 1.91865 23.8645 1.85421C23.8889 1.78977 23.8953 1.71988 23.883 1.65207C27.2922 2.6077 28.7855 6.9358 28.5915 10.2763C28.4808 12.161 27.8421 13.9766 26.7484 15.5156C26.6795 15.5155 26.6118 15.5341 26.5526 15.5694C26.4934 15.6047 26.4449 15.6554 26.4121 15.7161C26.2876 15.9306 26.1701 16.1499 26.0558 16.3713C24.8426 17.7276 23.2144 18.6438 21.4254 18.9768Z" fill="#7100D2"/>
<path d="M15.3983 10.2274C15.3983 10.6024 15.2493 10.962 14.9841 11.2272C14.719 11.4924 14.3593 11.6413 13.9843 11.6413C13.6093 11.6413 13.2496 11.4924 12.9845 11.2272C12.7193 10.962 12.5703 10.6024 12.5703 10.2274C12.5703 9.44643 13.3038 9.67187 13.9843 9.28879C14.6354 8.92226 15.3983 9.44643 15.3983 10.2274Z" fill="#7100D2"/>
<path d="M19.3893 10.3456C19.3893 11.0026 20.0386 11.4788 20.8397 11.4093C21.6407 11.3398 22.29 10.7509 22.29 10.0939C22.29 9.43689 21.5377 9.43226 20.8397 9.17057C20.1718 8.92018 19.3893 9.68863 19.3893 10.3456Z" fill="#7100D2"/>
</svg>
