<svg width="30" height="32" viewBox="0 0 30 32" fill="none" xmlns="http://www.w3.org/2000/svg">
<path d="M29.0618 18.0322C28.0208 19.2855 27.219 20.7193 26.6962 22.2624C25.9975 21.7869 25.2299 21.4215 24.4203 21.1789C24.6336 20.9204 24.8836 20.6945 25.1623 20.5084C25.1749 20.5229 25.1868 20.5383 25.1995 20.5526C25.5218 20.9172 26.2666 20.4893 26.0243 20.034C25.3846 18.8319 24.4879 17.7347 23.7058 16.6209C22.8341 15.3794 21.956 14.1424 21.0718 12.9099C20.221 11.7283 19.3666 10.5494 18.5086 9.37308C18.0806 8.7865 17.6648 8.17112 17.2334 7.56788C18.5066 6.91135 19.7103 6.14073 21.0266 5.54928C22.4683 4.90148 23.9551 4.37146 25.4067 3.75001C25.928 3.52683 25.5206 2.76396 25.0222 2.93849C23.4936 3.47927 21.9932 4.09655 20.5266 4.78799C19.2606 5.38051 17.8571 6.01415 16.7508 6.9121C16.6158 6.7342 16.4792 6.55793 16.3387 6.38622C15.8405 4.68621 14.8327 3.18001 13.4513 2.07097C10.6409 -0.183693 4.74759 -1.38634 2.83784 2.68045C2.81125 2.73174 2.79599 2.78814 2.79311 2.84584C2.79022 2.90354 2.79977 2.96118 2.8211 3.01486C0.664718 4.77983 -0.335339 7.95777 0.100034 10.6517C0.432871 12.7112 1.64983 14.3397 2.98298 15.8823C3.57931 16.6163 4.26347 17.2742 5.02009 17.8415C3.90005 18.3485 2.87848 19.2882 2.00082 20.1986C1.8676 20.3316 1.73748 20.4687 1.61046 20.6099C1.56817 20.6551 1.52564 20.7005 1.48414 20.7451L1.48619 20.7469C1.45852 20.7786 1.42925 20.8079 1.40186 20.8399C1.02482 21.2804 1.87344 21.7947 2.22829 21.4074C2.48823 21.1237 2.75552 20.8477 3.03015 20.5794C3.0352 20.5747 3.0399 20.5697 3.04497 20.565C3.06553 20.5451 3.08692 20.526 3.10759 20.5061C3.40933 20.2314 3.73126 19.9798 4.07067 19.7533C4.70542 19.3325 5.50618 19.111 6.07506 18.6117C6.12484 18.5698 6.16063 18.5138 6.17761 18.451C6.48508 18.5611 6.80537 18.6314 7.13068 18.6602C8.59809 18.7873 9.90104 18.023 11.0269 17.1366C11.2509 17.7834 11.6874 18.3352 12.2652 18.7022C12.3447 18.7915 12.4229 18.8808 12.4956 18.9716C12.9569 19.5468 13.3971 20.1384 13.8061 20.752C14.6184 21.9811 15.3151 23.2828 15.8873 24.6405C15.5271 25.5396 15.7455 26.8013 15.7835 27.7522C15.8258 28.8116 15.8558 29.9012 16.0609 30.9432C16.1494 31.3929 16.9653 31.2998 16.9524 30.8359C16.9223 29.7511 16.7587 28.6661 16.7042 27.5804C16.6657 26.8115 16.7907 25.8677 16.644 25.0726C18.2587 24.7823 19.8171 24.2377 21.2612 23.4591C21.9577 23.0816 22.6247 22.6519 23.2565 22.1738C23.4332 22.0398 23.6067 21.9017 23.7769 21.7597C24.7096 22.3136 25.7298 22.6789 26.6311 23.3174C26.8989 23.5072 27.3526 23.493 27.4652 23.1214C27.8727 21.7615 28.4953 20.4757 29.3096 19.3128C29.4185 19.3368 29.5324 19.3183 29.628 19.261C29.7237 19.2038 29.7938 19.1121 29.824 19.0048C29.8901 18.7995 29.944 18.5904 29.9854 18.3787C30.1129 17.8158 29.3713 17.6575 29.0618 18.0322ZM8.19974 17.6772C6.49889 18.0609 5.14759 16.8365 4.10744 15.6606C2.97196 14.3769 1.79132 12.9872 1.28264 11.3206C0.271921 8.00911 1.85849 4.74228 4.45283 2.69655C4.49782 2.66477 4.5333 2.62132 4.55543 2.57088C4.57755 2.52043 4.5855 2.46491 4.57841 2.41028C4.57132 2.35566 4.54947 2.304 4.5152 2.26087C4.48093 2.21775 4.43554 2.18479 4.38393 2.16554C6.43375 0.214701 10.0167 0.958191 12.2316 2.45679C13.4808 3.30325 14.4666 4.48401 15.0766 5.86417C15.0484 5.91149 15.0335 5.96557 15.0335 6.02067C15.0336 6.07576 15.0485 6.12982 15.0768 6.1771C15.1733 6.3503 15.2759 6.52064 15.3812 6.68965C15.8168 8.07722 15.7805 9.57 15.278 10.9348C14.6561 12.5993 13.3515 13.8992 12.0621 15.0689C10.9479 16.0798 9.71754 17.3348 8.19974 17.6772V17.6772ZM21.5145 22.173C20.0515 23.0709 18.4454 23.7114 16.766 24.067C16.184 22.7392 15.4882 21.4642 14.6862 20.2565C14.2471 19.5953 13.7733 18.9576 13.2669 18.3464C12.8592 17.8564 12.4839 17.3217 11.919 17.034C11.8121 16.911 11.6986 16.794 11.5791 16.6833C11.628 16.6417 11.6773 16.6001 11.7255 16.5586C13.2509 15.2451 14.825 13.8525 15.7896 12.0556C16.3742 10.9652 16.6717 9.74405 16.6542 8.50698C16.9137 8.85528 17.1733 9.20222 17.4222 9.55169C18.3028 10.7879 19.1794 12.0269 20.052 13.2687C20.8896 14.4607 21.727 15.6527 22.5643 16.8449C23.2259 17.7881 23.8455 18.8131 24.5474 19.7465C24.26 19.9758 23.9871 20.2227 23.7302 20.4858C23.0469 21.1173 22.305 21.6822 21.5145 22.173V22.173Z" fill="#7100D2"/>
<path d="M8.15079 12.6813C8.38906 12.8632 8.54536 13.1322 8.58528 13.4292C8.6252 13.7263 8.54548 14.027 8.36367 14.2653C8.18186 14.5035 7.91285 14.6598 7.61581 14.6998C7.31876 14.7397 7.01803 14.66 6.77975 14.4782C6.28362 14.0995 6.78245 13.7428 6.86899 13.1247C6.9518 12.5333 7.65465 12.3027 8.15079 12.6813Z" fill="#7100D2"/>
<path d="M12.1043 10.4348C12.5217 10.7534 13.1391 10.5717 13.4833 10.0291C13.8274 9.48642 13.7681 8.78828 13.3507 8.46974C12.9333 8.1512 12.7305 8.75283 12.2259 9.06945C11.743 9.37239 11.6869 10.1163 12.1043 10.4348Z" fill="#7100D2"/>
</svg>
