<svg width="24" height="34" viewBox="0 0 24 34" fill="none" xmlns="http://www.w3.org/2000/svg">
<path d="M23.4955 14.1194C23.2477 12.3711 22.812 10.6545 22.1958 8.99965C21.797 7.96613 21.0127 6.68815 19.815 6.61522C19.797 6.51045 19.7769 6.40589 19.7547 6.30155C19.0487 2.98635 15.4703 -1.39692 11.6588 0.429816C11.6089 0.451362 11.5642 0.483376 11.5278 0.523696C11.4913 0.564016 11.464 0.611696 11.4476 0.663508C8.82607 0.666296 6.2063 2.38672 4.92043 4.60866C3.9374 6.30732 3.85505 8.21806 3.90838 10.1354C3.95191 11.7 4.08655 13.4698 5.27749 14.6276C6.12153 15.4482 7.2621 15.7285 8.41257 15.8093C8.18691 16.0811 7.98072 16.3676 7.77973 16.6649C7.61598 16.9071 7.34534 17.5027 7.07383 17.8207C6.49178 17.391 5.96226 16.7006 5.48643 16.2132C4.90033 15.6128 4.32786 14.9995 3.769 14.3733C3.327 13.8784 2.91851 13.3046 2.25618 13.0989C1.82713 12.9826 1.37721 12.9659 0.940708 13.0499C0.870341 13.0124 0.791734 12.9932 0.712028 12.9939C0.632321 12.9945 0.55405 13.0151 0.484335 13.0538C0.406171 13.1033 0.328005 13.1528 0.249844 13.2023C-0.270949 13.5322 0.0981612 14.1978 0.664289 14.0772C1.45437 13.9091 2.02763 13.9564 2.59682 14.574C2.95226 14.9596 3.29695 15.3549 3.65544 15.7379C4.47955 16.6184 5.32987 17.4768 6.21273 18.2985C6.69074 18.7434 7.18597 19.098 7.70472 18.5149C8.06251 18.1127 8.32454 17.5539 8.6119 17.0979C8.69533 16.9655 8.77608 16.8338 8.8544 16.7017C8.82976 17.0451 8.87719 17.3898 8.99366 17.7137C8.99842 17.826 9.00223 17.9377 9.00123 18.0471C8.99503 18.7407 8.9637 19.4337 8.89652 20.1242C8.74985 21.5729 8.46341 23.0041 8.04121 24.3976C8.01608 24.4933 8.02462 24.5946 8.0654 24.6847C8.10618 24.7747 8.17672 24.848 8.26516 24.8922C8.50636 25.028 8.75199 25.1546 8.99956 25.2769C8.2691 26.1666 8.25996 27.8949 8.25499 28.986C8.2519 29.6565 8.05505 31.3031 8.87713 31.5775C9.20306 31.6863 9.59106 31.377 9.48897 31.033L9.47924 31.0002C9.46458 30.9517 9.44004 30.9068 9.40718 30.8682C9.27241 30.568 9.32564 29.9268 9.31154 29.6213C9.28693 29.0922 9.29353 28.5621 9.33131 28.0338C9.38906 27.2315 9.6986 26.3818 9.64154 25.5755C10.6277 26.0092 11.6596 26.3303 12.7176 26.533C13.4498 26.6724 14.1915 26.7563 14.9363 26.7839C15.1013 26.7898 15.2662 26.791 15.4312 26.7911C14.6626 27.4486 14.5925 28.9336 14.5424 29.8531C14.5105 30.6884 14.5394 31.5249 14.6289 32.3559C14.6634 32.7348 14.6249 33.2171 14.8155 33.5668C14.8313 33.6217 14.8584 33.6727 14.895 33.7166C14.9317 33.7604 14.9771 33.7962 15.0283 33.8215L15.0702 33.8388C15.2777 33.9248 15.6074 33.9213 15.7284 33.6852C15.8964 33.3572 15.774 33.0235 15.7341 32.6684C15.6698 32.0969 15.6274 31.5199 15.6091 30.9452C15.5868 30.3748 15.6042 29.8036 15.6613 29.2357C15.7016 28.8622 15.8018 27.465 16.2897 27.3447C16.3496 27.3338 16.4053 27.3066 16.4506 27.2659C16.496 27.2253 16.5291 27.1729 16.5465 27.1145C16.5638 27.0562 16.5646 26.9941 16.5487 26.9353C16.5329 26.8766 16.501 26.8233 16.4567 26.7816C16.4447 26.7697 16.4326 26.7579 16.4205 26.746C16.7153 26.6877 17.0171 26.6738 17.3159 26.7045C17.3165 26.7226 17.316 26.7408 17.3167 26.7589C17.3347 27.2163 18.1319 27.3478 18.2263 26.8718C18.4756 25.6152 18.4751 24.2822 18.5681 23.0053C18.6717 21.5819 18.7681 20.1581 18.8572 18.7339C18.9405 17.3667 19.0195 15.9992 19.0943 14.6315C19.1165 14.2248 19.1481 13.8131 19.1794 13.3995C20.0927 14.2175 21.0759 15.0079 22.1424 15.5583C22.5315 15.759 23.0544 16.0739 23.4415 15.7063C23.8393 15.3286 23.5662 14.5822 23.4955 14.1194ZM18.1964 14.1152C18.1024 15.5399 18.0038 16.9644 17.9006 18.3885C17.8016 19.7554 17.7024 21.1223 17.6031 22.4891C17.5238 23.5702 17.3653 24.6857 17.3213 25.7835C16.9755 25.7795 16.6297 25.797 16.286 25.8358C15.4123 25.8893 14.5355 25.8595 13.6675 25.7467C12.0672 25.5302 10.5158 25.0412 9.08058 24.3009C9.4467 22.9871 9.69832 21.6441 9.83265 20.2869C9.90623 19.5438 9.94046 18.7973 9.93522 18.0505C9.92973 17.4509 9.97448 16.838 9.73407 16.2921C9.72935 16.139 9.71633 15.9861 9.69508 15.8344C9.75551 15.8332 9.81619 15.8322 9.876 15.8307C11.7691 15.7813 13.7447 15.7034 15.5168 14.9681C16.5916 14.5215 17.5351 13.8088 18.2585 12.897C18.2403 13.3052 18.223 13.7124 18.1964 14.1152ZM18.6817 10.0325C18.633 10.0502 18.5899 10.0808 18.5572 10.121C18.5244 10.1611 18.5032 10.2094 18.4957 10.2607C18.4629 10.4443 18.4362 10.6295 18.4124 10.8153C17.9041 12.0855 16.9894 13.1516 15.8111 13.847C14.3674 14.6897 12.6433 14.8605 11.0077 14.9456C9.59426 15.0191 7.95103 15.2013 6.64138 14.5476C5.17376 13.815 4.91773 12.1188 4.85961 10.643C4.79618 9.03198 4.76293 7.31683 5.38407 5.79975C6.6182 2.78547 9.71823 1.34932 12.8259 1.40257C12.8776 1.40619 12.9293 1.39564 12.9755 1.37205C13.0216 1.34847 13.0604 1.31274 13.0878 1.26872C13.1151 1.2247 13.1299 1.17405 13.1306 1.12223C13.1313 1.07042 13.1179 1.01941 13.0917 0.97467C15.7462 0.77304 17.9143 3.44687 18.6364 5.85686C19.0429 7.21696 19.0586 8.66395 18.6817 10.0325V10.0325ZM20.9821 13.6089C20.4011 13.1494 19.843 12.6612 19.2598 12.2047C19.2783 11.8568 19.291 11.5093 19.2907 11.164C19.756 10.0636 19.9726 8.87402 19.9249 7.68023C20.3434 7.91221 20.6861 8.25984 20.9121 8.68154C21.2746 9.36513 21.4876 10.1686 21.7017 10.9086C21.9109 11.6317 22.0904 12.3627 22.2403 13.1015C22.3043 13.4177 22.3627 13.735 22.4153 14.0534C22.4514 14.2717 22.4817 14.4907 22.5114 14.7099C21.9519 14.4165 21.407 13.9449 20.9821 13.6089Z" fill="#7100D2"/>
<path d="M12.8621 6.47706C12.8621 6.75902 12.7501 7.02943 12.5507 7.22881C12.3514 7.42819 12.0809 7.54019 11.799 7.54019C11.517 7.54019 11.2466 7.42819 11.0472 7.22881C10.8478 7.02943 10.7358 6.75902 10.7358 6.47706C10.7358 5.8899 11.2873 6.0594 11.799 5.77138C12.2885 5.49581 12.8621 5.8899 12.8621 6.47706Z" fill="#7100D2"/>
<path d="M17.4305 6.47706C17.4305 6.75902 17.3185 7.02943 17.1191 7.22881C16.9197 7.42819 16.6493 7.54019 16.3673 7.54019C16.0854 7.54019 15.815 7.42819 15.6156 7.22881C15.4162 7.02943 15.3042 6.75902 15.3042 6.47706C15.3042 5.8899 15.8557 6.0594 16.3673 5.77138C16.8569 5.49581 17.4305 5.8899 17.4305 6.47706Z" fill="#7100D2"/>
</svg>
