<svg width="35" height="38" viewBox="0 0 35 38" fill="none" xmlns="http://www.w3.org/2000/svg">
<path d="M2.02312 37.0866C2.85212 35.6738 3.81149 34.3416 4.88869 33.1075C5.37385 32.5311 6.43177 31.6468 6.74166 30.756C6.88519 30.8226 7.02263 30.886 7.14576 30.931C7.61003 31.1008 8.08086 31.2502 8.55826 31.3794C9.44938 31.6197 10.3574 31.7923 11.2745 31.8958C12.8237 32.0682 14.3887 32.0374 15.9299 31.8041C16.6485 32.8527 18.3218 32.6421 19.3393 33.2576C19.9407 33.6214 19.8383 34.3658 20.0727 34.9783C20.1943 35.2962 20.7096 36.6209 21.0093 36.3776C20.9588 36.4217 20.9183 36.4761 20.8905 36.5371C20.8628 36.5982 20.8484 36.6644 20.8484 36.7315C20.8484 36.7986 20.8628 36.8648 20.8905 36.9259C20.9183 36.9869 20.9588 37.0413 21.0093 37.0854L21.047 37.1171C21.3559 37.3762 21.9476 37.3133 22.0697 36.8768C22.2601 36.1956 21.6839 35.4921 21.4159 34.895C21.1141 34.2228 21.3306 33.3041 20.8232 32.7455C20.3288 32.2012 19.3643 32.0673 18.704 31.8586C18.3022 31.7316 17.8752 31.5474 17.4437 31.424C17.535 31.3342 17.5871 31.2118 17.5884 31.0837C17.5997 29.2806 17.7854 27.4828 18.1428 25.7155C18.3164 24.8742 18.5333 24.043 18.7801 23.2203C18.819 23.0906 18.8645 22.9599 18.9112 22.8287C19.3749 22.18 19.6052 21.3934 19.5646 20.5971C20.7289 20.9351 21.9656 21.1605 23.1414 20.9616C24.2123 21.1633 25.2786 21.3799 26.3795 21.3608C27.5501 21.3405 28.6726 20.9464 29.8417 20.8867C30.1468 20.8711 33.2174 20.916 33.2354 20.9915C33.3481 21.4646 34.1283 21.524 34.357 21.122L34.421 21.0094C34.4907 20.8968 34.5185 20.7632 34.4995 20.6321C34.4805 20.5009 34.4159 20.3807 34.317 20.2925C33.5871 19.6121 31.9995 19.7476 31.0717 19.7086C29.7023 19.6511 28.4642 19.9002 27.1243 20.108C26.4742 20.1935 25.8149 20.1799 25.169 20.0675C26.4983 19.0181 27.1689 17.2979 27.7034 15.7286C28.4691 13.4802 29.0719 11.19 28.5317 8.82049C27.825 5.72112 25.3567 2.72613 22.257 1.76215C22.2566 1.69485 22.2417 1.62843 22.2134 1.56738C22.185 1.50633 22.1439 1.45209 22.0928 1.40833C18.2538 -2.14917 12.415 1.72412 10.365 5.38668C9.35767 7.18781 8.92729 9.25465 9.13196 11.3081C8.70823 12.671 8.43707 14.1125 8.09355 15.4816C7.68077 17.1267 7.27312 18.7731 6.87059 20.4208C6.45119 22.1375 6.0434 23.8569 5.64723 25.5791C5.28925 27.1234 4.80022 28.7001 4.63454 30.2777C4.63086 30.3471 4.64161 30.4165 4.66611 30.4816C4.69061 30.5466 4.72832 30.6058 4.77688 30.6556C4.82543 30.7053 4.88376 30.7444 4.94819 30.7704C5.01262 30.7965 5.08176 30.8089 5.15122 30.8069C4.5823 31.5228 4.0144 32.2443 3.42107 32.9463C2.46572 34.0464 1.61683 35.2346 0.885784 36.4949C0.484647 37.207 1.65617 37.738 2.02312 37.0866ZM17.5434 18.8165C16.8511 18.5619 16.1494 18.289 15.469 17.9721C16.3252 17.3936 17.1334 16.7469 17.8856 16.0384C18.2293 16.0469 18.6016 15.8413 18.5917 15.4728L18.5805 15.0607C18.5626 14.3987 17.6785 14.3091 17.3308 14.7594C16.5072 15.8263 15.4003 16.5891 14.3176 17.3728C13.556 16.9402 12.8639 16.3954 12.2645 15.7568C11.599 15.0302 11.084 14.1791 10.7493 13.2524C10.8063 13.1915 10.8463 13.1166 10.8651 13.0353C10.884 12.9539 10.881 12.8691 10.8566 12.7893C10.8322 12.7094 10.7871 12.6375 10.726 12.5806C10.6649 12.5238 10.5898 12.4841 10.5084 12.4655C10.4066 12.0555 10.3364 11.6383 10.2985 11.2175C10.3385 10.989 10.3748 10.7602 10.4034 10.531C10.4133 10.4676 10.4058 10.4027 10.3818 10.3432C10.3577 10.2837 10.318 10.2318 10.2669 10.193C10.3227 8.43608 10.8715 6.73029 11.8507 5.2705C13.588 2.68453 17.1324 0.316433 20.1982 1.52769C20.1509 1.57101 20.1163 1.62643 20.0981 1.68797C20.08 1.74951 20.0789 1.81485 20.0951 1.87693C20.1113 1.93902 20.1442 1.99551 20.1901 2.04031C20.236 2.08512 20.2933 2.11654 20.3558 2.1312C24.0511 3.20707 27.1916 6.04184 27.5468 10.0595C27.7255 12.0815 27.0576 14.098 26.3922 15.9804C25.8558 17.4976 25.0749 19.1594 23.5297 19.7608C22.4097 19.5432 21.2974 19.3854 20.2119 19.735C19.2903 19.4914 18.3863 19.1264 17.5434 18.8165ZM12.2017 17.1907C12.5833 17.5058 12.9858 17.7948 13.4064 18.0557C12.9233 18.428 12.4755 18.8438 12.0684 19.2978C11.849 18.522 11.6439 17.7424 11.4582 16.9572C11.4091 16.7499 11.3631 16.5419 11.3164 16.3341C11.5902 16.6408 11.8861 16.9271 12.2017 17.1907ZM6.10376 29.3221C6.45402 28.0075 6.67541 26.6299 6.97784 25.3222C7.36018 23.6688 7.74375 22.0157 8.12857 20.3628C8.5284 18.6405 8.93379 16.9196 9.34472 15.1999C9.4258 14.8607 9.51353 14.5202 9.60235 14.1793C9.61265 14.2338 9.62285 14.2884 9.63202 14.3431C9.75236 15.0609 9.88815 15.7759 10.0394 16.4881C10.354 17.9776 10.7441 19.448 11.1854 20.9047C11.3309 21.3851 12.1347 21.5004 12.3828 21.044C12.9073 20.0794 13.6755 19.3458 14.5199 18.6815C15.8267 19.3078 17.176 19.8413 18.5577 20.2781C18.6278 20.3019 18.6993 20.3253 18.7703 20.3488C18.6895 20.5205 18.6181 20.6965 18.5564 20.876C18.072 21.4335 17.9004 22.1749 17.6741 22.8821C17.3943 23.7634 17.1612 24.659 16.9759 25.5649C16.6374 27.2195 16.4429 28.9003 16.3945 30.5884C14.4256 30.9381 12.4113 30.948 10.4391 30.6175C9.37106 30.4328 8.32307 30.1468 7.3093 29.7634C6.91695 29.5915 6.51433 29.4442 6.10376 29.3221V29.3221Z" fill="#7100D2"/>
<path d="M24.9631 12.019C25.4673 11.6727 25.4905 10.9234 25.0149 10.3453C24.5394 9.76717 23.7451 9.57928 23.2409 9.92559C22.7367 10.2719 23.3289 10.7149 23.496 11.3885C23.6559 12.0331 24.4589 12.3654 24.9631 12.019Z" fill="#7100D2"/>
<path d="M20.9611 9.43789C20.9611 10.165 20.3717 9.64658 19.6446 9.64658C18.9175 9.64658 18.3281 9.43789 18.3281 8.71082C18.3281 7.98375 19.011 8.19364 19.6446 7.83699C20.2508 7.49574 20.9611 8.71082 20.9611 9.43789Z" fill="#7100D2"/>
</svg>
