<svg width="26" height="41" viewBox="0 0 26 41" fill="none" xmlns="http://www.w3.org/2000/svg">
<path d="M0.404346 22.7947C1.61789 21.754 2.8621 20.7042 3.79407 19.3919C4.60909 18.2444 4.90092 17.1 5.15017 15.7948C5.13067 15.3756 5.11822 14.9571 5.12016 14.5411C4.28105 12.5347 4.07781 10.3191 4.53788 8.19347C5.47511 3.87056 10.1659 -1.83245 15.1312 0.569712C15.1962 0.598069 15.2543 0.640066 15.3017 0.692859C15.349 0.745652 15.3845 0.808006 15.4057 0.875698C18.8267 0.891894 22.2372 3.14957 23.9046 6.05536C25.1793 8.27683 25.2776 10.7707 25.1988 13.2726C25.1345 15.3141 24.9503 17.6231 23.3906 19.1283C22.6394 19.8216 21.7061 20.2864 20.7002 20.4683C21.0444 20.6727 21.3736 20.9165 21.734 21.0852C21.7943 21.1134 21.848 21.1541 21.8914 21.2046C21.9348 21.2551 21.967 21.3143 21.9858 21.3781C22.0046 21.442 22.0096 21.5092 22.0006 21.5752C21.9915 21.6411 21.9685 21.7044 21.9331 21.7608C21.1311 22.7213 20.2215 23.5865 19.2222 24.3396C20.373 24.8784 21.578 25.2931 22.8167 25.5764C23.6207 25.7623 23.23 26.782 22.4827 26.6547C21.1091 26.4178 19.7855 25.9504 18.5677 25.2722C18.5869 25.6097 18.6099 25.9471 18.6415 26.2839C18.8259 28.1752 19.1929 30.0442 19.7372 31.8649C19.7695 31.9898 19.7579 32.122 19.7042 32.2393C19.6506 32.3567 19.5582 32.452 19.4425 32.5092C19.0023 32.7549 18.5539 32.9833 18.0973 33.1942C18.5626 34.3127 18.7103 35.6021 18.8462 36.7961C18.9908 38.0672 19.1068 39.3914 18.8707 40.6554C18.766 41.216 17.8862 41.0336 17.8331 40.5304C17.7027 39.2922 17.7841 38.0392 17.6597 36.7961C17.5522 35.7218 17.2772 34.6693 17.1469 33.6016C16.0094 34.0591 14.8294 34.4033 13.6243 34.6291C12.6681 34.8075 11.6998 34.9134 10.7277 34.9458C10.4998 34.9532 10.272 34.9544 10.0441 34.9533C10.5644 36.589 10.4131 38.5277 10.3332 40.1929C10.2982 40.9214 9.03946 40.9213 9.07664 40.1929C9.1648 38.4659 8.9064 36.6434 9.12361 34.9257C8.68703 34.8948 8.08045 34.7443 7.62266 34.8309C7.62178 34.8544 7.62236 34.8783 7.62135 34.9018C7.59576 35.4986 6.55476 35.6664 6.43382 35.0448C6.11458 33.4038 6.12152 31.6642 6.00635 29.9974C5.91053 28.6108 5.82037 27.224 5.73588 25.8368C5.34722 26.282 4.93195 26.7032 4.49235 27.0981C3.69143 27.9098 2.79567 28.6219 1.82441 29.2193C1.27693 29.548 0.454546 28.7704 1.04711 28.3227C2.35051 27.3379 3.41484 26.2622 4.57894 25.1352C4.48397 25.1042 4.39622 25.0544 4.32094 24.9887C3.94761 24.9765 3.451 24.6944 3.10564 24.5751C2.29649 24.2958 1.48934 24.0104 0.681243 23.728C0.290482 23.5915 0.0222564 23.1223 0.404346 22.7947ZM18.5263 23.1378C18.52 23.2726 18.5159 23.4063 18.5157 23.5381C19.2758 22.9648 19.9845 22.3264 20.6338 21.6302C20.2161 21.4097 19.8853 21.0544 19.6952 20.622C19.2966 20.6619 18.895 20.6817 18.497 20.6874C18.7833 21.4774 18.7936 22.3411 18.5263 23.1378V23.1378ZM6.534 18.3977C6.64979 20.2574 6.77162 22.1167 6.89947 23.9757C7.02216 25.76 7.14506 27.5442 7.26817 29.3284C7.3664 30.7396 7.56785 32.1961 7.62001 33.6289C8.07139 33.6254 8.52257 33.6499 8.97093 33.7021C10.1108 33.7761 11.2551 33.7414 12.3884 33.5984C14.4778 33.3236 16.5048 32.6929 18.3813 31.7337C17.9098 30.0174 17.5879 28.2636 17.419 26.4918C17.3266 25.5217 17.2855 24.5473 17.2959 23.5728C17.306 22.7904 17.2505 21.9903 17.5669 21.2791C17.5737 21.0793 17.5914 20.8799 17.6199 20.682C17.5411 20.6801 17.4619 20.6786 17.3839 20.6762C14.9137 20.6028 12.3358 20.4916 10.0268 19.5236C8.6263 18.9356 7.39847 18.001 6.45884 16.8076C6.48061 17.3404 6.50125 17.8719 6.534 18.3977V18.3977ZM5.92028 13.0675C5.98378 13.0908 6.03977 13.1309 6.08233 13.1835C6.12489 13.2361 6.15242 13.2992 6.162 13.3662C6.20389 13.6059 6.23774 13.8477 6.26793 14.0903C6.9252 15.7504 8.11384 17.146 9.64816 18.0591C11.5281 19.1658 13.7772 19.3969 15.9112 19.5158C17.7554 19.6184 19.8989 19.8642 21.6111 19.0174C23.5299 18.0684 23.8721 15.8561 23.955 13.9305C24.0456 11.8284 24.0972 9.59027 23.2939 7.60751C21.6978 3.66799 17.6591 1.77897 13.6034 1.83355C13.5359 1.83803 13.4685 1.82401 13.4084 1.79301C13.3483 1.76201 13.2978 1.7152 13.2623 1.65763C13.2268 1.60005 13.2078 1.53389 13.2071 1.46626C13.2064 1.39864 13.2243 1.33212 13.2586 1.27387C9.79551 0.99803 6.95325 4.47696 5.99939 7.6185C5.46245 9.39147 5.43503 11.2797 5.92028 13.0675V13.0675ZM4.67245 23.8539C5.00196 23.9433 5.32441 24.0569 5.6372 24.1937C5.53989 22.4851 5.44745 20.7763 5.35986 19.0672L5.35954 19.0617C4.50877 20.5474 3.16534 21.878 1.97723 22.965C2.87665 23.2582 3.77579 23.5523 4.67245 23.8539V23.8539Z" fill="#7100D2"/>
<path d="M18.2792 9.82367C18.2792 10.1916 18.4253 10.5445 18.6855 10.8047C18.9457 11.0649 19.2986 11.2111 19.6666 11.2111C20.0345 11.2111 20.3874 11.0649 20.6476 10.8047C20.9078 10.5445 21.054 10.1916 21.054 9.82367C21.054 9.05743 20.3343 9.27863 19.6666 8.90276C19.0277 8.54312 18.2792 9.05743 18.2792 9.82367Z" fill="#7100D2"/>
<path d="M14.3635 11.0589C14.3635 11.7036 13.7264 12.1708 12.9404 12.1026C12.1545 12.0344 11.5173 11.4566 11.5173 10.8119C11.5173 10.1673 12.2555 10.1628 12.9404 9.90599C13.5957 9.6603 14.3635 10.4143 14.3635 11.0589Z" fill="#7100D2"/>
</svg>
