<svg width="28" height="28" viewBox="0 0 28 28" fill="none" xmlns="http://www.w3.org/2000/svg">
<g clip-path="url(#clip0_364_1319)">
<path d="M0.760271 19.5754C0.760271 23.2278 3.58346 26.1885 7.06619 26.1885C10.549 26.1885 13.3722 23.2278 13.3722 19.5754C13.3722 15.923 10.549 12.9623 7.06619 12.9623C6.35043 12.9623 5.66529 13.0932 5.02389 13.3238C6.44299 4.78844 12.7898 -0.715881 6.90632 3.81428C0.382449 8.83773 0.753284 19.3733 0.760584 19.5664C0.760584 19.5694 0.760271 19.572 0.760271 19.5754Z" fill="#FFDC17"/>
<path d="M14.6333 19.5754C14.6333 23.2278 17.4565 26.1885 20.9393 26.1885C24.4221 26.1885 27.2453 23.2278 27.2453 19.5754C27.2453 15.923 24.422 12.9623 20.9392 12.9623C20.2234 12.9623 19.5383 13.0932 18.8969 13.3238C20.316 4.78844 26.6628 -0.715881 20.7794 3.81428C14.2555 8.83773 14.6263 19.3733 14.6336 19.5664C14.6336 19.5694 14.6333 19.572 14.6333 19.5754Z" fill="#FFDC17"/>
</g>
<defs>
<clipPath id="clip0_364_1319">
<rect width="27" height="27" fill="white" transform="translate(0.5 0.126465)"/>
</clipPath>
</defs>
</svg>
