<svg width="137" height="87" viewBox="0 0 137 87" fill="none" xmlns="http://www.w3.org/2000/svg">
<path d="M130.494 17.9252C130.336 17.7787 130.149 17.6677 129.945 17.5999C129.741 17.5321 129.524 17.5089 129.31 17.5319C125.125 8.03526 114.717 1.28031 104.616 0.158749C96.8942 -0.698688 89.8379 2.04602 82.9737 5.29308C77.3725 7.94266 71.1725 11.2495 68.873 17.4098C66.9546 22.5489 68.3994 27.9862 70.4586 32.9093C67.9144 33.069 65.4993 34.0856 63.6067 35.7934C63.2072 35.9897 62.8085 36.1813 62.4105 36.3519C59.8867 37.4342 57.3252 38.4244 54.7156 39.2806C49.2314 41.0563 43.5882 42.2975 37.8649 42.9868C37.4784 43.048 37.1246 43.2404 36.8632 43.5316C36.6017 43.8229 36.4485 44.1952 36.4292 44.5861C36.0683 48.2233 36.0442 51.8861 36.3572 55.5277C36.2285 55.3879 36.1008 55.2509 35.9692 55.105C34.4054 53.328 32.6655 51.7142 30.7762 50.2884C28.5771 48.6668 25.7935 46.8709 24.1353 50.0611C21.8276 54.5011 21.0316 60.6266 20.265 65.5121C19.6773 69.284 19.3186 73.0881 19.191 76.9034C17.4267 76.5143 15.635 76.2624 13.8318 76.1498C12.2391 76.0747 10.6388 76.1056 9.04892 75.9762C8.21513 75.9082 5.26464 75.6819 4.24243 74.976C4.23983 74.7685 4.1925 74.5641 4.10366 74.3765C4.01483 74.189 3.88659 74.0229 3.72768 73.8894C3.42979 73.6095 3.06383 73.4124 2.66618 73.3177C2.26853 73.2229 1.85303 73.2339 1.46092 73.3494C1.06526 73.4363 0.708734 73.6498 0.445414 73.9577C0.182093 74.2655 0.0263516 74.6508 0.00178456 75.0552C-0.111059 78.2009 5.15711 79.1883 7.46271 79.4797C9.57744 79.7469 11.7065 79.6985 13.8318 79.7914C15.6172 79.9081 17.3894 80.1766 19.1293 80.594C19.1308 81.2027 19.1352 81.8117 19.1476 82.4212C19.1943 84.7079 23.1338 84.7113 23.0871 82.4212C23.0799 82.0702 23.0864 81.7202 23.083 81.3694C27.7531 82.0311 32.483 82.1622 37.1825 81.7602C39.2397 81.6177 41.596 81.7824 43.3901 81.0642C42.8108 82.2498 43.6153 84.175 45.1192 83.8415C50.0705 82.7435 54.9013 80.6189 59.6772 78.9221C65.001 77.0307 70.3148 75.1124 75.6187 73.167C79.4035 71.7716 83.184 70.3646 86.9601 68.9457C87.1407 70.0404 87.2258 71.2781 87.3413 71.7987C87.5897 72.919 87.8444 74.038 88.097 75.1573C85.3345 75.1197 82.5838 75.5267 79.9505 76.3625C77.3022 77.2234 73.598 78.4544 72.3044 81.0913C71.7435 82.235 72.7658 83.1571 73.9156 82.9566C76.6257 82.4842 78.9125 80.5202 81.571 79.6921C84.4545 78.8109 87.478 78.4794 90.4839 78.7146C90.7625 78.732 91.0414 78.6845 91.2984 78.5757C91.5555 78.467 91.7838 78.3 91.9653 78.0879C92.1468 77.8759 92.2765 77.6245 92.3443 77.3538C92.4121 77.083 92.416 76.8002 92.3558 76.5277C91.6689 73.6746 91.2198 70.5189 90.1947 67.7417C90.4177 67.658 90.6415 67.5762 90.8645 67.4924C93.9705 66.3254 97.2141 65.2671 100.374 64.058C102.945 68.6241 105.832 73.0052 109.013 77.1694C106.454 77.5789 103.933 78.1996 101.476 79.0252C97.546 80.1798 93.001 80.9559 89.4156 82.9517C89.0868 83.1317 88.8301 83.4193 88.6886 83.7664C88.547 84.1134 88.5293 84.4986 88.6384 84.8571C88.7475 85.2157 88.9768 85.5257 89.2877 85.7351C89.5985 85.9444 89.972 86.0404 90.3453 86.0067C97.9136 85.3918 104.966 80.2504 112.665 80.6763C113.946 80.7472 115.297 79.2044 114.381 78.0142C110.572 73.0648 107.278 67.7893 103.652 62.7209C103.683 62.7075 103.714 62.6951 103.745 62.6816C110.342 62.5876 116.751 60.4716 122.107 56.6193C132.998 48.7805 143.185 28.8301 130.494 17.9252ZM41.6611 78.0283C39.7396 78.1056 37.8221 78.2594 35.9005 78.3369C31.6296 78.6157 27.3409 78.4058 23.1176 77.7115C23.2973 70.6392 24.2964 63.6115 26.0949 56.7692C26.3814 55.688 27.3196 53.8654 27.6555 52.4321C27.8565 52.5691 28.0659 52.6934 28.2598 52.841C29.1664 53.4774 30.0361 54.1649 30.8645 54.9001C32.9837 56.7907 34.4962 59.0233 36.9701 60.2861C37.146 61.3063 37.3398 62.3244 37.5735 63.3366C38.2345 66.2123 39.1119 69.0339 40.1982 71.7774C40.7816 73.2461 41.4269 74.6875 42.1341 76.1016C42.4259 76.6844 42.8666 77.3556 43.2791 78.055C42.6738 78.0642 41.9929 78.015 41.6611 78.0283ZM91.3057 63.4161C85.9924 65.3446 80.6728 67.2559 75.347 69.1501C70.2352 70.9681 65.1232 72.7856 60.0109 74.6025C55.9667 76.037 51.6712 77.2394 47.6224 78.8283C47.0858 77.5685 46.4718 76.343 45.7838 75.159C44.1984 72.0778 42.9102 68.8526 41.9365 65.5271C40.1722 59.3822 39.4735 52.9805 39.8709 46.5997C45.2156 45.8343 50.4839 44.6073 55.6169 42.9325C58.4274 42.0156 61.1875 40.9508 63.8856 39.7424C66.05 38.7675 68.3428 37.9536 69.9382 36.2129C70.4858 35.9519 71.0188 35.6613 71.535 35.3426C71.6355 35.5597 71.7358 35.7781 71.8367 35.9924C75.0306 42.7748 78.4597 49.8112 83.9469 55.0627C87.2773 58.2469 91.3632 60.5312 95.82 61.7008C94.3116 62.285 92.8079 62.8709 91.3057 63.4161ZM121.937 51.858C117.655 55.4973 112.436 57.8588 106.876 58.6725C106.734 58.5241 106.555 58.4169 106.357 58.3621C106.159 58.3074 105.95 58.3072 105.752 58.3616C105.035 58.5352 104.321 58.7336 103.61 58.9433C98.1964 59.124 92.8757 57.5065 88.4788 54.3436C83.1251 50.4534 79.7602 44.4766 76.8471 38.6844C74.3295 33.6785 71.0518 28.0132 71.3353 22.2255C71.6529 15.7397 77.3929 12.1102 82.6489 9.54911C88.3869 6.75336 94.5502 3.90114 101.038 3.73617C113.928 3.40833 124.071 12.3565 128.827 23.7046C128.896 23.8977 129.017 24.0683 129.176 24.198C129.335 24.3276 129.526 24.4115 129.729 24.4405C129.932 24.4695 130.14 24.4425 130.328 24.3625C130.517 24.2825 130.681 24.1524 130.801 23.9864C135.76 33.2859 129.522 45.4026 121.937 51.858Z" fill="#A322DB"/>
<path d="M108.005 40.8026C109.617 39.6955 109.692 37.2997 108.171 35.4515C106.651 33.6033 104.111 33.0026 102.499 34.1098C100.888 35.217 102.781 36.6332 103.315 38.7869C103.826 40.8475 106.394 41.9098 108.005 40.8026Z" fill="#A322DB"/>
<path d="M100.815 21.6288C102.427 20.5216 102.501 18.1259 100.981 16.2777C99.4603 14.4295 96.921 13.8288 95.309 14.936C93.6971 16.0431 95.5905 17.4594 96.1247 19.613C96.6359 21.6736 99.2031 22.736 100.815 21.6288Z" fill="#A322DB"/>
</svg>
