<svg width="87" height="68" viewBox="0 0 87 68" fill="none" xmlns="http://www.w3.org/2000/svg">
<path d="M67.3077 23.33L67.4876 13.36L67.5376 10.1V8.42002C67.5276 7.67002 67.4077 6.92002 67.1777 6.20002C66.2376 3.24002 63.6577 1.09002 60.5677 0.710022C59.7177 0.630022 59.2177 0.650022 58.6877 0.640022H53.7976L47.2776 0.580025L34.2477 0.470024L8.11765 0.400024C4.84765 0.490024 1.93764 2.48002 0.667639 5.49002C0.357639 6.22002 0.147654 7.00002 0.0576539 7.79002C0.00765388 8.43002 -0.0123339 9.07002 0.00766609 9.71002V12.97L0.0776124 26.01L0.167639 38.93L0.237647 45.45C0.187647 48.54 1.89762 51.39 4.64762 52.81C5.32762 53.16 6.05765 53.4 6.80765 53.53C7.47765 53.64 8.16763 53.68 8.84763 53.65H12.0976L18.6177 53.54L23.9776 53.45C23.7576 56.25 23.3276 60 23.9176 63.51C21.0976 63.74 18.2876 64.06 15.4776 64.53C15.2776 64.53 15.1277 65.1 15.1277 65.76C15.1277 66.42 15.2776 66.96 15.4776 66.98C27.7776 67.76 40.1076 67.76 52.4076 66.98C52.6076 66.98 52.7477 66.39 52.7477 65.73C52.7477 65.07 52.6076 64.51 52.4076 64.47H52.3476C49.5676 64.06 46.7876 63.74 43.9876 63.51C44.2576 60.02 44.1876 56.51 43.7776 53.03L54.8177 52.64C55.8977 52.64 55.9476 52.08 55.9476 51.42C55.9476 50.76 55.8977 50.21 54.8177 50.19H54.5077L33.2976 49.9H17.2976C7.12764 50.3 6.20761 49.69 5.63761 49.35C4.86761 48.81 4.22765 48.12 3.73765 47.32C3.59765 47.03 3.49761 46.73 3.44761 46.41C3.41761 46.01 3.41761 45.62 3.44761 45.22L3.51761 38.71V38.62C22.3176 39.38 37.6577 40.13 57.1877 38.44L57.6576 28.86C59.6076 24.9 59.9277 25.11 67.3077 23.33ZM31.6776 53.28L40.1076 53.08C39.6476 56.44 39.5776 59.83 39.8876 63.2C35.6976 63.35 32.0877 63.02 28.1776 63.2C28.1376 60.58 28.5276 56.6 28.0276 53.33L31.6776 53.28ZM3.48765 35.79L3.57761 25.61L3.64762 12.58L3.57761 8.09002C3.55761 7.70002 3.57761 7.30003 3.63761 6.91003C3.68761 6.62003 3.77763 6.34002 3.90763 6.08002C4.43763 4.98002 5.58765 4.30002 6.80765 4.36002L34.4776 4.28002L60.1777 4.08002C61.5177 4.05002 62.7976 4.64002 63.6476 5.67002C64.0876 6.42002 64.2976 7.27002 64.2676 8.14002L64.3376 14.26V23.33H62.2676L57.6277 25.47C55.8377 25.31 58.0176 35.5 55.9176 35.37C37.6576 35 21.0476 35.12 3.48765 35.79Z" fill="white"/>
<path d="M60.3506 63.63C60.8306 63.84 61.3203 64.01 61.8203 64.16C62.3103 64.31 62.8003 64.46 63.3203 64.61C64.3803 64.89 65.4603 65.12 66.5503 65.29C71.6003 66.09 76.7707 65.76 81.6807 64.3C81.8507 64.25 82.0004 64.21 82.1904 64.14C82.3904 64.08 82.5805 64 82.7705 63.92C83.1505 63.75 83.5106 63.55 83.8506 63.31C85.2606 62.3 86.1906 60.75 86.4106 59.03C86.4406 58.82 86.4604 58.6 86.4604 58.38V56.74L86.5103 47.92C86.5103 41.93 86.5403 35.74 86.5503 29.54C86.5503 27.6 85.6704 25.77 84.1504 24.56C83.7804 24.26 83.3707 24 82.9307 23.8C82.7107 23.7 82.4903 23.6 82.2603 23.53C82.0403 23.45 81.8704 23.41 81.6704 23.35C80.9104 23.11 80.1304 22.9 79.3604 22.74C73.3004 21.35 66.9703 21.62 61.0503 23.52L60.7803 23.6L60.4702 23.71C60.2602 23.78 60.0706 23.89 59.8706 23.98C57.9306 24.99 56.6505 26.95 56.5205 29.13V31.24C56.6205 42.07 56.7802 51.33 56.9702 57.49C56.9302 57.86 57.2003 58.19 57.5703 58.23C57.5903 58.23 57.6106 58.23 57.6206 58.23C57.9706 58.16 58.2104 57.84 58.1904 57.49C58.4004 51.33 58.5506 42.06 58.6406 31.24V29.26C58.6906 28.72 58.8403 28.19 59.0903 27.7C59.5303 26.83 60.2904 26.16 61.2104 25.83L61.4902 25.77L61.7402 25.7C67.2802 24.01 73.1705 23.81 78.8105 25.13C79.5305 25.3 80.2505 25.49 80.9604 25.71C81.1304 25.76 81.3405 25.82 81.4805 25.87C81.6205 25.92 81.7504 25.97 81.8804 26.04C82.1404 26.16 82.3906 26.31 82.6206 26.49C83.5506 27.24 84.1006 28.37 84.1006 29.56C84.1006 35.75 84.1306 41.93 84.1406 47.94L84.1904 56.8V58.39C84.1904 58.53 84.1806 58.67 84.1606 58.81C84.1006 59.36 83.9206 59.89 83.6406 60.37C83.3606 60.83 82.9903 61.24 82.5503 61.56C82.3303 61.72 82.1004 61.86 81.8604 61.97C81.7404 62.03 81.6102 62.08 81.4902 62.12C81.3602 62.17 81.1905 62.22 81.0405 62.27C76.4305 63.73 71.5605 64.17 66.7705 63.57C65.7005 63.44 64.6607 63.26 63.6807 63.04C63.1907 62.93 62.7102 62.82 62.2402 62.69C61.8002 62.58 61.3704 62.45 60.9404 62.3C60.2204 62 59.5804 61.51 59.1104 60.88C58.6804 60.31 58.3805 59.64 58.2505 58.93C58.2105 58.57 57.9105 58.3 57.5605 58.29C57.2005 58.38 56.9803 58.74 57.0703 59.1C57.2903 61.09 58.5306 62.81 60.3506 63.66V63.63Z" fill="white"/>
<path d="M63.2202 30.68C63.2602 30.53 63.2905 30.38 63.2905 30.23C63.2805 30.07 63.1903 29.93 63.0503 29.85C62.8603 29.77 62.6402 29.79 62.4702 29.9C62.0602 30.15 61.8003 30.58 61.7603 31.06L61.7202 31.96L61.6504 33.83L61.5103 38.08C61.4503 41.11 61.3903 44.56 61.3403 48.28L61.2705 54.01V55C61.2705 55.14 61.3006 55.29 61.3306 55.43C61.5606 56.3 62.3305 56.92 63.2305 56.95H67.0806L79.6807 56.99C80.6707 56.98 81.5205 56.29 81.7305 55.32C81.7605 55.17 81.7705 55.02 81.7705 54.87V49.91L81.7402 43.66L81.6206 31.86V31.17C81.6306 31.07 81.6306 30.96 81.6206 30.86C81.6006 30.74 81.5703 30.61 81.5303 30.5C81.2803 29.78 80.6204 29.27 79.8604 29.21H79.0605L76.4404 29.25L71.5903 29.36C68.5503 29.44 65.9005 29.53 63.7905 29.63C63.4705 29.67 63.2505 29.96 63.2905 30.28C63.2905 30.29 63.2903 30.3 63.3003 30.31C63.3003 30.6 63.5103 30.83 63.8003 30.87C65.9103 30.97 68.5506 31.07 71.6006 31.14L76.4404 31.25L79.0605 31.29H79.4805V31.88L79.3604 43.68L79.3306 49.93V54.56L67.0903 54.6H63.5903V54.03L63.5005 48.3C63.4505 44.59 63.3805 41.13 63.3105 38.1L63.1807 33.85L63.1104 31.98L63.0703 31.16C63.0603 31.08 63.0904 31.01 63.1504 30.95C63.1804 30.86 63.2002 30.77 63.2202 30.68Z" fill="white"/>
<path d="M73.0605 60.31C73.0605 61.18 72.3505 61.89 71.4805 61.89C70.6105 61.89 69.9004 61.18 69.9004 60.31C69.9004 59.44 70.6105 58.73 71.4805 58.73C72.3505 58.73 73.0605 59.44 73.0605 60.31Z" fill="white"/>
</svg>
