<svg width="99" height="117" viewBox="0 0 99 117" fill="none" xmlns="http://www.w3.org/2000/svg">
<path d="M79.9918 56.983C80.5094 56.1336 81.0112 55.2772 81.4855 54.4109C85.976 50.8482 89.2927 45.9577 90.9879 40.3997C94.4319 29.0942 91.1348 9.61231 76.7688 8.64089C76.5847 8.62098 76.3986 8.64189 76.223 8.70222C76.0475 8.76254 75.8867 8.86088 75.7514 8.99054C67.9656 4.5051 57.3147 5.25294 49.7851 9.81477C44.0288 13.3022 40.5916 18.9794 37.546 24.9096C35.0609 29.7485 32.5032 35.3687 34.1035 40.9359C35.4385 45.5802 39.2416 48.6526 43.2017 51.0365C41.5337 52.4976 40.3971 54.4952 39.9772 56.7038C39.8036 57.0541 39.6283 57.4006 39.4426 57.7321C38.2652 59.8336 37.0143 61.8901 35.6611 63.8776C32.8049 68.0377 29.5633 71.9047 25.9815 75.4246C25.7471 75.6727 25.6031 75.996 25.5736 76.3401C25.5442 76.6843 25.6311 77.0283 25.8197 77.3145C25.9105 77.4679 26.0082 77.6165 26.1003 77.769C25.6268 77.7925 25.1638 77.9203 24.7427 78.1437C23.0467 78.9803 21.3052 79.7164 19.5269 80.3483C16.1629 81.3904 12.693 82.0148 9.33529 83.0878C7.79464 83.5801 7.51209 85.3533 8.88288 86.2484C9.38041 86.6267 9.96814 86.8606 10.5842 86.9253C11.2344 87.0325 12.0682 86.7088 12.0671 85.9054C17.2654 84.4297 22.6754 83.5738 27.1549 80.2774C27.2834 80.1776 27.3885 80.0497 27.4628 79.903C29.9547 83.6407 32.925 87.0178 36.2938 89.9437C38.2342 91.6234 40.2956 93.1501 42.4603 94.5109C43.3882 95.0928 44.3395 95.6322 45.3037 96.1472C43.7041 97.8942 43.3965 101.581 43.1744 103.586C42.7515 107.404 42.2256 112.653 43.9175 116.162C44.3893 117.141 46.17 116.901 46.425 115.863C47.2816 112.375 46.2496 108.18 46.4882 104.541C46.5841 102.616 46.9392 100.714 47.5433 98.8892C47.751 98.2931 47.9624 97.8476 48.0885 97.4271C48.651 97.6565 49.1789 97.9668 49.6562 98.3487C49.6278 98.4047 49.5958 98.4593 49.5678 98.5155C48.8567 99.9391 51.0033 101.706 52.0789 100.419C54.9184 97.0195 57.1447 92.9594 59.5542 89.2305C61.5285 86.1751 63.4908 83.1117 65.4409 80.0404C68.0819 80.9849 70.8751 81.269 73.6577 81.6652C76.7276 82.1022 79.9187 82.9214 82.9702 82.0421C83.1865 81.9961 83.3917 81.9061 83.5736 81.7775C83.7554 81.6488 83.9104 81.4841 84.0292 81.293C84.148 81.1019 84.2283 80.8883 84.2654 80.6649C84.3025 80.4414 84.2955 80.2127 84.245 79.992C83.3584 76.2773 82.5437 72.5459 81.8282 68.7923C81.5062 67.1037 81.2075 65.4107 80.9157 63.7163C80.6231 62.0165 79.5243 58.6744 79.9806 57.0423C79.9864 57.0215 79.9869 57.0033 79.9918 56.983ZM38.2856 43.0302C35.1534 38.2836 37.2279 32.6795 39.5213 28.086C42.0251 23.0713 44.7923 17.7916 49.171 14.2366C57.871 7.17334 69.4723 8.1144 78.6077 13.6039C78.7551 13.7036 78.9262 13.7601 79.1025 13.7673C79.2789 13.7746 79.4538 13.7324 79.6086 13.6452C79.7633 13.558 79.8919 13.4292 79.9805 13.2726C80.0692 13.116 80.1145 12.9376 80.1116 12.7565C88.3275 16.6929 90.2954 28.552 88.4116 37.1284C87.3454 41.9669 84.9741 46.4001 81.5685 49.9216C81.3944 49.892 81.2156 49.9112 81.0513 49.9774C80.8869 50.0435 80.7431 50.1541 80.635 50.2974C80.231 50.8003 79.8425 51.3185 79.4613 51.8435C75.83 54.8401 71.3334 56.5184 66.674 56.616C60.9806 56.7075 55.5777 54.2719 50.5809 51.7271C46.2625 49.5279 41.0805 47.266 38.2856 43.0302ZM57.5523 86.0044C55.5107 89.1605 53.1763 92.2858 51.2113 95.5533C50.1912 94.9483 49.1357 94.4087 48.0506 93.9376C45.368 92.6029 42.8154 91.009 40.4275 89.1776C36.039 85.7751 32.2511 81.6265 29.2281 76.9117C32.5102 73.5387 35.5012 69.8804 38.1678 65.9778C39.6279 63.841 40.9769 61.6265 42.2092 59.3436C43.1948 57.5083 44.3519 55.7185 44.5504 53.6442C44.7923 53.1697 45.009 52.6821 45.1995 52.1835C45.3808 52.2835 45.5626 52.3846 45.7427 52.4824C51.4441 55.5773 57.4386 58.7267 63.9272 59.5256C67.8638 60.0081 71.8552 59.4551 75.526 57.9186C74.7899 59.1304 74.058 60.3409 73.3061 61.5219C70.6465 65.6993 67.9737 69.8679 65.2877 74.0276C62.7097 78.0201 60.1312 82.0124 57.5523 86.0044ZM80.3213 79.0901C78.1043 79.2031 75.7496 78.5229 73.6178 78.1924C71.5303 77.8688 69.3745 77.6792 67.355 77.0259C67.4195 76.9234 67.4852 76.8217 67.5498 76.7191C70.0815 72.6986 72.601 68.67 75.1083 64.6333C75.7362 63.6224 76.3903 62.6117 77.0493 61.5976C77.2958 63.3496 77.5691 65.0972 77.8693 66.8403C78.5766 70.947 79.405 75.0281 80.3213 79.0901Z" fill="#FFDC17"/>
<path d="M74.3943 33.341C74.3943 35.0672 76.0573 36.3184 78.1088 36.1358C80.1602 35.9532 81.8233 34.4058 81.8233 32.6796C81.8233 30.9534 79.8964 30.9413 78.1088 30.2537C76.3983 29.5958 74.3943 31.6149 74.3943 33.341Z" fill="#FFDC17"/>
<path d="M60.8937 23.3773C60.6855 23.8164 60.395 24.209 60.0389 24.5329C59.6827 24.8567 59.2677 25.1053 58.8178 25.2645C58.3679 25.4237 57.8918 25.4904 57.4167 25.4606C56.9417 25.4309 56.477 25.3054 56.0492 25.0913C55.6215 24.8773 55.2391 24.5788 54.9238 24.2129C54.6086 23.8471 54.3668 23.4211 54.2122 22.9594C54.0576 22.4976 53.9932 22.0091 54.0227 21.5217C54.0523 21.0344 54.1752 20.5579 54.3844 20.1193C55.2613 18.2752 56.6965 19.6526 58.693 19.532C60.6033 19.4166 61.7706 21.5332 60.8937 23.3773Z" fill="#FFDC17"/>
</svg>
