<svg viewBox="0 0 266 212" fill="none" xmlns="http://www.w3.org/2000/svg">
<path d="M55.0002 59C-19.6439 98.7122 -2.99981 173.333 17.5002 212H265.5V0C206.5 58 156.5 5 55.0002 59Z" fill="url(#paint0_linear_310:25013)"/>
<path d="M160.123 162.737C159.725 159.7 155.08 158.699 154.032 157.936C153.408 157.48 151.948 155.463 150.937 153.988L151.163 153.83C148.223 144.686 145.797 137.198 143.797 131.066C144.034 130.605 144.265 129.902 144.442 128.847C145.163 124.632 141.531 123.032 141.531 123.032L141.473 123C143.637 104.573 138.427 103.319 138.427 103.319C137.087 102.916 135.679 102.796 134.292 102.969C133.523 101.095 131.985 99.9458 129.45 99.8005C128.597 99.7775 127.75 99.9419 126.966 100.282C127.083 100.072 127.2 99.8605 127.314 99.6504C127.842 99.2809 132.297 96.0402 131.913 92.144C131.87 91.5236 131.717 90.916 131.462 90.3499C131.404 90.0494 131.326 89.7529 131.231 89.4624C131.627 87.504 131.651 85.9137 131.2 85.004C130.38 83.3426 128.846 82.1834 127.69 81.4964C128.174 81.3921 128.81 81.6638 128.81 81.6638C128.185 81.0936 126.193 80.743 126.193 80.743C119.082 70.5107 108.115 83.7627 106.119 87.2182C104.123 90.6737 101.617 94.5035 94.8605 94.2334C81.5668 93.7059 80.7125 107.228 83.4409 114.15C83.4784 114.248 90.0003 125.919 90.0003 125.919C90.1746 125.617 90.3753 125.331 90.6 125.065C90.1533 129.934 89.9409 133.924 89.1944 135.046C87.6483 137.391 80.3486 151.355 86.6628 157.876C81.6824 156.221 74.6372 162.41 73.7861 163.181H73.7002V211.497H162.622V163.181C161.882 163.034 161.042 162.886 160.123 162.737ZM120.298 154.253C120.895 153.345 123.086 149.199 125.765 143.661C125.685 149.229 125.652 153.266 125.652 153.266C125.605 153.602 125.644 153.944 125.766 154.26C125.888 154.575 126.089 154.854 126.349 155.068C126.036 155.78 125.66 156.471 125.36 157.142C125.052 157.884 124.874 158.675 124.835 159.479C119.824 159.241 116.019 159.196 114.768 159.429C114.548 159.47 114.29 159.512 114.005 159.553C116.995 158.127 119.071 156.126 120.298 154.253ZM140.811 160.57C139.691 158.508 135.877 158.693 134.999 157.942C134.415 157.458 133.933 156.859 133.581 156.183C133.85 156.159 134.004 156.14 134.004 156.14C135.145 152.284 136.135 148.718 136.994 145.401C140.273 150.967 142.974 155.076 142.974 155.076C143.102 155.429 143.323 155.739 143.614 155.973C143.904 156.207 144.253 156.356 144.621 156.404C144.574 156.662 144.495 156.914 144.387 157.153C143.819 158.426 143.808 159.969 143.861 160.845C142.856 160.741 141.837 160.651 140.817 160.564L140.811 160.57Z" fill="#E5E6E6"/>
<path d="M154.103 156.615H86.3018V212H154.103V156.615Z" fill="#00719E"/>
<path d="M188.005 156.615H126.66V211.998H188.005V156.615Z" fill="#B2CBD9"/>
<path d="M178.133 167.269C178.126 167.043 178.186 166.819 178.305 166.627C178.425 166.435 178.598 166.283 178.803 166.192C179.008 166.1 179.235 166.072 179.455 166.112C179.676 166.152 179.879 166.258 180.04 166.416C180.201 166.574 180.311 166.777 180.357 166.999C180.404 167.221 180.384 167.452 180.3 167.663C180.215 167.873 180.071 168.053 179.886 168.18C179.7 168.307 179.481 168.375 179.257 168.375C179.112 168.377 178.967 168.351 178.832 168.296C178.697 168.242 178.573 168.161 178.469 168.059C178.364 167.956 178.281 167.834 178.223 167.698C178.165 167.563 178.135 167.417 178.133 167.269V167.269Z" fill="#3EAD52"/>
<path d="M92.686 167.269C92.686 166.661 92.9976 166.163 93.3824 166.163C93.7672 166.163 94.0788 166.658 94.0788 167.269C94.0788 167.88 93.7672 168.374 93.3824 168.374C92.9976 168.374 92.686 167.877 92.686 167.269Z" fill="#3EAD52"/>
<path d="M118.243 167.269C118.243 166.661 118.555 166.163 118.94 166.163C119.324 166.163 119.636 166.658 119.636 167.269C119.636 167.88 119.324 168.374 118.94 168.374C118.555 168.374 118.243 167.877 118.243 167.269Z" fill="#3EAD52"/>
<path d="M92.686 202.157C92.686 201.547 92.9976 201.052 93.3824 201.052C93.7672 201.052 94.0788 201.544 94.0788 202.157C94.0788 202.77 93.7672 203.262 93.3824 203.262C92.9976 203.262 92.686 202.765 92.686 202.157Z" fill="#3EAD52"/>
<path d="M118.243 202.157C118.243 201.547 118.555 201.052 118.94 201.052C119.324 201.052 119.636 201.544 119.636 202.157C119.636 202.77 119.324 203.262 118.94 203.262C118.555 203.262 118.243 202.765 118.243 202.157Z" fill="#3EAD52"/>
<path d="M86.3022 156.706C86.3022 156.706 95.5158 148.079 101.593 150.705C109.595 154.168 128.513 153.204 133.286 152.31C138.06 151.416 175.35 154.085 188.003 156.611L86.3022 156.706Z" fill="#00719E"/>
<path d="M188.003 197.471V211.998H126.66V156.615H136.956L137.157 156.705C137.157 156.705 142.66 194.272 188.003 197.471Z" fill="#266A9A"/>
<path d="M201.46 166.041C201.46 166.041 189.657 164.345 188.97 162.409C188.97 162.409 189.791 160.672 188.495 160.208C188.148 160.086 187.561 159.861 187.303 160.195L187.321 163.756C187.321 163.756 188.592 165.019 189.305 166.027C189.7 166.586 197.327 169.817 197.327 169.817L201.46 166.041Z" fill="#17405E"/>
<path d="M225.781 192.162C226.9 190.525 225.736 178.945 217.68 182.461C215.966 182.985 213.91 184.24 211.448 186.53C211.448 186.53 207.909 194.984 221.868 200.576C221.868 200.576 223.251 201.182 223.447 202.471C223.644 203.759 223.865 209.577 223.391 209.754C222.918 209.93 222.217 209.262 221.706 209.997C221.195 210.731 221.374 211.942 221.374 211.942H226.446C226.446 211.942 228.871 198.886 228.735 197.847C228.6 196.808 224.454 194.108 225.781 192.162Z" fill="#17405E"/>
<path d="M205.881 144.839C205.881 144.839 208.566 150.544 207.082 152.261L202.912 148.866C202.912 148.866 202.892 147.179 205.881 144.839Z" fill="#233862"/>
<path d="M234.644 175.567C233.553 173.554 231.906 170.189 234.072 168.815C235.918 167.645 235.211 165.204 234.144 164.619C231.895 163.391 229.612 164.946 228.535 166.465C226.499 169.355 229.205 173.873 229.205 173.873C231.761 179.453 226.497 182.359 223.958 183.396C222.725 181.538 221.291 179.826 219.683 178.291C218.807 177.449 218.005 176.764 217.332 176.181C210.186 169.99 211.915 167.725 210.219 164.941C209.887 164.39 208.572 162.889 208.221 162.415C207.871 161.941 207.754 160.245 207.71 158.753C208.513 158.06 208.601 157.283 208.601 157.283C208.646 157.491 208.646 157.706 208.601 157.915C209.433 157.229 209.245 155.652 209.245 155.652C209.429 155.881 209.502 156.369 209.502 156.369C209.921 153.915 208.43 151.912 208.411 151.897C208.673 149.591 206.786 145.58 206.786 145.58C206.786 145.58 206.922 148.554 207.207 150.07C206.726 149.563 206.163 149.145 205.542 148.832C204.051 148.081 202.015 147.376 199.858 149.52C199.369 150.006 197.919 150.401 197.235 150.31C196.858 150.261 196.001 152.175 195.967 152.435C195.593 155.331 196.499 156.762 198.131 158.245C198.36 158.897 198.534 159.773 198.131 160.364C198.131 160.364 198.475 160.222 198.517 160.108C198.489 160.266 198.302 161.172 197.811 161.581C197.925 161.568 198.036 161.541 198.143 161.502C197.715 162.053 196.087 164.332 196.118 167.141C192.69 167.17 189.437 166.956 189.121 166.067C189.121 166.067 189.86 164.604 188.646 163.866C188.237 163.646 187.778 163.538 187.316 163.55L187.256 167.549C187.256 167.549 188.743 168.667 189.456 169.68C189.702 170.028 194.493 172.22 198.075 173.825C200.161 182.984 206.861 188.288 209.078 189.825C209.39 192.625 211.038 196.268 215.741 200.511C215.741 200.511 216.832 201.562 216.583 202.84C216.333 204.117 214.557 209.66 214.06 209.66C213.563 209.66 211.879 208.921 211.146 209.432C210.412 209.944 211.424 211.932 211.424 211.932H216.562C216.562 211.932 222.898 201.363 223.123 200.34C223.347 199.317 220.375 195.339 222.282 193.975C223.098 193.39 224.234 190.185 223.995 187.238C226.497 186.363 238.073 181.868 234.644 175.567Z" fill="#17405C"/>
<path d="M203.823 149.607L207.997 153.002C208.244 152.685 208.391 152.3 208.418 151.897C208.681 149.591 206.793 145.58 206.793 145.58C203.803 147.924 203.823 149.607 203.823 149.607Z" fill="#17405E"/>
<path d="M197.122 150.33C197.192 150.284 197.273 150.256 197.357 150.25C197.441 150.244 197.525 150.259 197.602 150.294C197.602 150.294 197.538 151.256 196.608 151.316C196.608 151.316 196.876 150.48 197.122 150.33Z" fill="#163560"/>
<path d="M198.828 152.491C198.863 152.504 202.342 153.818 204.837 156.72C202.3 153.766 198.901 152.389 198.865 152.376L198.828 152.491Z" fill="#163560"/>
<path d="M198.503 152.74C198.541 152.764 202.188 155.28 204.255 159.341C202.152 155.205 198.617 152.643 198.578 152.617L198.503 152.74Z" fill="#163560"/>
<path d="M198.127 153.041C198.154 153.068 200.72 155.79 201.71 159.504C200.699 155.724 198.235 152.981 198.208 152.954L198.127 153.041Z" fill="#163560"/>
<path d="M160.547 109.615C160.547 109.615 164.832 111.506 163.981 116.49C163.129 121.473 161.424 119.799 161.424 119.799L160.547 109.615Z" fill="#B2CBD9"/>
<path d="M182.493 156.642L163.389 155.124C163.389 155.124 162.932 152.173 163.929 149.934C164.893 147.786 163.569 146.23 162.261 143.672C163.475 144.939 167.655 144.753 170.418 144.375C170.757 144.932 174.163 150.051 175.293 150.873C176.541 151.782 182.113 152.978 182.493 156.642Z" fill="#233862"/>
<path d="M160.055 155.125H140.951C140.951 155.125 140.493 152.174 141.492 149.935C142.456 147.787 144.113 145.481 142.805 142.922C144.018 144.189 147.853 144.051 150.614 143.673C150.953 144.23 149.328 147.863 152.863 150.875C154.03 151.884 159.67 151.459 160.055 155.125Z" fill="#233862"/>
<path d="M156.886 86.3108C156.886 86.3108 147.788 83.166 144.297 92.5338C127.638 106.214 103.806 141.146 101.799 143.588C97.7724 148.474 100.885 155.286 117.354 155.125C126.982 155.029 132.876 150.548 135.511 146.519C136.215 145.446 138.798 140.552 141.965 133.997C141.871 140.58 141.83 145.352 141.83 145.352C141.337 150.018 151.678 148.742 151.678 148.742C169.221 89.2798 156.886 86.3108 156.886 86.3108Z" fill="#448098"/>
<path d="M148.357 64.6551C147.393 62.691 145.581 61.3197 144.218 60.5086C144.788 60.3848 145.537 60.7073 145.537 60.7073C144.806 60.0314 142.451 59.6161 142.451 59.6161C134.065 47.5204 121.13 63.1877 118.775 67.2706C116.419 71.3536 113.472 75.8828 105.494 75.5652C89.8139 74.9398 89.8364 90.5859 92.0248 99.1101C93.1833 103.617 100.219 114.152 100.219 114.152C102.029 110.791 117.847 95.3936 128.684 95.4979C132.321 94.0077 136.165 89.6218 136.465 89.2749C133.618 92.8888 131.552 94.5972 130.175 95.4148C140.471 93.7976 150.925 69.8585 148.357 64.6551Z" fill="#17405C"/>
<path d="M129.324 95.4924C129.355 95.5331 127.908 100.953 123.565 98.5754C120.713 97.0151 116.139 90.3573 117.901 88.1001C118.74 87.0284 122.431 84.991 126.276 78.0906L126.737 78.4945L134.496 85.2972C134.496 85.2972 132.729 87.973 131.249 90.5968C130.002 92.8003 128.959 94.968 129.324 95.4924Z" fill="#B2CBD9"/>
<path d="M126.453 76.789C126.453 76.789 126.598 71.198 128.229 67.4407C129.394 64.7584 136.473 56.6919 144.435 63.9555C146.044 65.4101 147.31 67.2122 148.14 69.229C149.188 71.8348 150.078 76.5382 141.874 82.1944L139.341 84.2693L126.453 76.789Z" fill="#3EAD52"/>
<path d="M116.024 85.1456C116.024 85.1456 118.874 85.696 120.079 84.0593C121.285 82.4225 123.908 78.9584 124.522 80.9454C125.136 82.9323 130.922 88.7106 132.26 88.8621C133.599 89.0135 134.537 89.3946 133.78 90.0982C133.024 90.8018 133.339 93.616 132.582 93.8717C131.825 94.1274 117.769 84.9892 116.024 85.1456Z" fill="#3EAD52"/>
<path d="M133.946 89.0958C133.946 89.0958 122.756 81.767 127.369 74.7639C131.982 67.7609 133.636 62.1145 140.985 66.5003C148.335 70.8862 147.938 74.4806 146.959 77.2004C145.981 79.9202 136.976 90.8238 133.946 89.0958Z" fill="#B2CBD9"/>
<path d="M134.497 94.7677C134.497 94.7677 115.547 80.6134 108.914 85.9455C99.1318 93.8085 101.089 120.355 98.8169 123.809C96.5449 127.264 83.742 152.035 104.564 154.554C125.387 157.074 130.183 143.768 131.129 133.789C132.076 123.811 134.497 94.7677 134.497 94.7677Z" fill="#3EAD52"/>
<path d="M146.139 69.7591C146.139 69.7591 137.688 75.899 132.236 73.9511C126.784 72.0033 125.601 69.3714 125.601 69.3714C125.601 69.3714 131.064 68.922 135.123 64.4107C135.123 64.4107 146.433 64.3032 146.139 69.7591Z" fill="#17405C"/>
<path d="M144.948 69.9137C144.948 69.9137 146.001 73.2817 145.376 75.4364C144.751 77.591 142.586 81.4232 143.711 82.016C143.711 82.016 149.679 77.9933 149.198 73.0977C148.692 67.9056 144.948 69.9137 144.948 69.9137Z" fill="#17405C"/>
<path d="M152.165 86.3103C151.32 83.8494 149.472 82.3283 146.294 82.1459C132.403 81.3495 99.011 140.512 96.4835 143.584C92.4553 148.47 95.5677 155.282 112.037 155.121C121.667 155.025 125.464 150.352 128.105 146.327C129.313 144.483 138.067 130.384 144.8 115.871C150.443 129.5 162.265 147.483 162.265 147.483C164.021 151.825 171.906 146.03 171.906 146.03C152.997 87.0953 152.165 86.3103 152.165 86.3103Z" fill="#448098"/>
<path d="M107.994 88.1057C107.994 88.1057 103.002 95.923 118.526 103.089C134.051 110.255 135.88 112.009 138.905 112.649C143.621 113.647 161.738 113.507 161.738 113.507C161.738 113.507 162.22 110.594 160.545 109.612C157.873 108.037 142.442 105.48 140.361 104.636C138.28 103.793 116.108 79.6385 107.994 88.1057Z" fill="#B2CBD9"/>
<path d="M112.4 84.7561C112.4 84.7561 120.329 85.0818 136.87 100.526C136.87 100.526 139.402 103.642 140.66 103.848C141.918 104.055 145.331 104.966 145.405 105.845C145.479 106.725 141.205 117.758 135.764 118.073C130.324 118.387 104.11 98.7361 105.897 92.3536C107.684 85.971 112.4 84.7561 112.4 84.7561Z" fill="#3EAD52"/>
<line y1="-0.5" x2="15.2344" y2="-0.5" transform="matrix(0.703119 0.711073 -0.703119 0.711073 55.7844 72)" stroke="#17405E"/>
<line y1="-0.5" x2="12.8541" y2="-0.5" transform="matrix(0.972512 -0.232854 0.230393 0.973098 54 108.711)" stroke="#17405E"/>
<line y1="-0.5" x2="15.0718" y2="-0.5" transform="matrix(0.830027 -0.557723 0.551679 0.834057 54 128.571)" stroke="#17405E"/>
<line y1="-0.25" x2="15.0719" y2="-0.25" transform="matrix(0.829153 -0.559022 0.550382 0.834913 55.7844 128.571)" stroke="#17405E" stroke-width="0.5"/>
<line y1="-0.25" x2="13.1879" y2="-0.25" transform="matrix(0.947606 -0.319442 0.313039 0.94974 55.7844 109.916)" stroke="#17405E" stroke-width="0.5"/>
<line y1="-0.25" x2="13.6282" y2="-0.25" transform="matrix(0.785989 0.61824 -0.609635 0.792683 55.189 73.8049)" stroke="#17405E" stroke-width="0.5"/>
<defs>
<linearGradient id="paint0_linear_310:25013" x1="132.814" y1="-4.95466e-06" x2="-6.70231e-06" y2="200.5" gradientUnits="userSpaceOnUse">
<stop stop-color="#F0F5F7"/>
<stop offset="0.99987" stop-color="#F0F5F7" stop-opacity="0"/>
</linearGradient>
</defs>
</svg>
