<svg width="55" height="66" viewBox="0 0 55 66" fill="none" xmlns="http://www.w3.org/2000/svg">
<path d="M49.4563 22.11C51.8963 20.57 53.7362 18.23 54.6462 15.49C54.1962 14.78 53.5962 14.17 52.8762 13.72C50.2462 14.63 47.9963 16.4 46.4863 18.73C41.9263 14.35 35.2763 11.9 28.9763 11.49C29.4063 9.37002 29.4362 7.18001 29.0562 5.05001C31.9362 4.90001 34.7962 4.47999 37.5862 3.77999C37.7062 3.77999 37.7861 3.21003 37.7861 2.57003C37.7861 1.93003 37.7062 1.39 37.5862 1.35C30.4862 -0.45 23.0563 -0.45 15.9563 1.35C15.8363 1.35 15.7461 1.9 15.7461 2.54C15.7461 3.18 15.8363 3.7 15.9563 3.72C18.7463 4.41999 21.5963 4.84997 24.4563 5.00997C24.0763 7.15997 24.1061 9.36997 24.5461 11.51C18.8561 12.04 13.5361 14.56 9.51611 18.62C9.25611 18.86 9.04615 19.12 8.80615 19.36C7.33615 16.68 4.88632 14.67 1.97632 13.74C1.60632 13.94 1.27609 14.21 0.996094 14.53C0.686094 14.8 0.416289 15.11 0.196289 15.46C1.19629 18.48 3.3563 20.98 6.2063 22.41C3.2863 26.61 1.67618 31.58 1.58618 36.69C1.58618 37.53 2.05629 38.18 2.69629 38.18C3.39629 38.1 3.92629 37.52 3.94629 36.82V36.61C4.55629 30.6 7.46615 25.06 12.0562 21.14C16.5362 17.29 22.3363 15.33 28.2363 15.65C40.6663 16.28 50.2462 26.87 49.6162 39.3C49.0262 50.93 39.6761 60.2 28.0461 60.69C22.1561 60.96 16.3963 58.96 11.9463 55.1C7.37629 51.13 4.50629 45.55 3.94629 39.53C3.91629 38.82 3.36625 38.24 2.65625 38.18C2.01625 38.18 1.51611 38.82 1.51611 39.67V39.9C1.74611 46.73 4.65622 53.19 9.62622 57.89C20.4862 68 37.4862 67.4 47.5962 56.54C56.4562 47.03 57.2363 32.54 49.4463 22.14L49.4563 22.11Z" fill="white"/>
<path d="M26.506 42.0699C31.346 41.9899 36.1762 41.4999 40.9462 40.6299C41.1162 40.6299 41.2362 40.0199 41.2362 39.3399C41.2362 38.6599 41.1062 38.0799 40.9462 38.0399C37.0662 37.3599 33.1462 36.9499 29.2162 36.7999C29.1562 31.8299 28.676 26.8699 27.786 21.9799C27.786 21.8099 27.196 21.6899 26.516 21.6899C25.836 21.6899 25.276 21.8199 25.256 21.9799C24.206 27.6999 23.7261 33.5099 23.8161 39.3199V39.3999C23.8161 40.8799 25.0162 42.0699 26.4862 42.0699C26.4862 42.0799 26.496 42.0799 26.506 42.0699Z" fill="white"/>
</svg>
