<svg width="65" height="68" viewBox="0 0 65 68" fill="none" xmlns="http://www.w3.org/2000/svg">
<path d="M1.38848 34.7704C11.0385 45.3904 21.4186 56.7105 31.2786 67.3605L31.3885 67.4704C32.1585 68.1804 33.3584 68.1305 34.0584 67.3605C34.0584 67.3605 34.0584 67.3604 34.0684 67.3504C45.1384 55.2404 55.5585 43.6804 63.6585 34.5204L63.6985 34.4805C64.1585 33.9705 64.1886 33.2105 63.7686 32.6705C58.9086 26.2405 54.8584 21.1004 51.8184 17.2704C51.4484 16.8204 50.9786 16.8704 50.7486 17.3904C50.7286 17.4404 50.7185 17.4905 50.7085 17.5405H50.6485C50.7085 17.4705 50.7586 17.3805 50.7986 17.2905C50.9686 16.8705 50.7286 16.5304 50.2186 16.5004C46.0986 16.3104 40.8185 16.1105 34.6585 15.9805L25.1084 15.8104L14.6285 15.6705C14.0985 15.6605 13.5986 15.9104 13.2886 16.3304L1.33843 32.4305C0.778428 33.1305 0.808477 34.1104 1.38848 34.7704ZM6.44853 34.7704C10.1085 35.0304 14.8885 35.2204 20.1885 35.3404H20.2886C21.4186 40.6604 24.7485 50.5004 27.8685 58.0004C20.7585 50.2304 13.4686 42.3304 6.47856 34.7704H6.44853ZM32.6685 61.8904C30.1385 52.8104 26.8785 43.9404 22.9185 35.3804C29.2485 35.4904 36.0985 35.4904 42.4285 35.3804C38.4685 43.9504 35.2085 52.8104 32.6685 61.8904ZM37.3985 58.1805C40.5085 50.6605 43.9184 40.7104 45.0584 35.3904H45.1285C50.6685 35.2804 55.6785 35.0805 59.3885 34.8005C52.9585 41.5305 45.4085 49.5805 37.3985 58.1805ZM50.8184 18.8804C50.8184 18.9204 50.8385 18.9605 50.8685 18.9905C53.2685 22.6105 56.2985 27.1004 59.9585 32.3504C56.6285 32.1004 52.1584 31.8905 47.1084 31.7905C48.5784 27.5505 49.8184 23.2404 50.8184 18.8804ZM48.7085 18.2104C46.9185 21.8704 45.3185 25.6304 43.9185 29.4604C40.8085 25.2904 37.6486 21.3304 35.2986 18.6904C40.3886 18.5704 44.9285 18.3904 48.7085 18.2104ZM40.7286 31.6604C35.4486 31.6004 29.8985 31.6004 24.6185 31.6604C27.5185 27.7004 30.2185 23.5804 32.6785 19.3304C35.1485 23.5804 37.8286 27.6904 40.7286 31.6604ZM25.0884 18.8804L30.0086 18.7905C27.6386 21.4104 24.5285 25.3404 21.4485 29.5004C19.8785 25.3704 18.3186 21.6104 17.0186 19.0004L25.0884 18.8804ZM14.7686 20.0004C15.4686 23.0604 16.7386 27.3004 18.2386 31.7804C13.4686 31.9004 9.1885 32.0904 5.9085 32.3404L14.7686 20.0004Z" fill="white"/>
<path d="M46.5487 4.51038C44.5787 4.62038 41.4385 7.75039 41.3085 9.71039C41.5185 9.98039 41.7587 10.2404 42.0087 10.4704C42.2087 10.6904 42.4386 10.8904 42.6786 11.0804C44.6286 10.9604 47.7685 7.82039 47.8785 5.84039C47.6685 5.57039 47.4286 5.32039 47.1786 5.09039C46.9786 4.88039 46.7687 4.69038 46.5487 4.51038Z" fill="white"/>
<path d="M18.8085 4.51038C18.5385 4.72038 18.2885 4.96039 18.0685 5.21039C17.8585 5.41039 17.6586 5.62041 17.4886 5.86041C17.5986 7.83041 20.7286 10.9704 22.6886 11.1004C22.9586 10.8904 23.2186 10.6504 23.4486 10.4004C23.6686 10.2004 23.8687 9.97041 24.0487 9.73041C23.9187 7.76041 20.7785 4.62038 18.8085 4.51038Z" fill="white"/>
<path d="M31.7386 0.0304191C30.4286 1.44042 30.4186 5.80044 31.7386 7.24044C32.0786 7.28044 32.4286 7.30042 32.7686 7.28042C33.0586 7.30042 33.3485 7.2904 33.6385 7.2604C34.9385 5.8504 34.9285 1.49044 33.6385 0.0504386C33.2985 0.0104386 32.9685 -0.00960043 32.6285 0.0103996C32.3385 -0.00960043 32.0386 0.000419101 31.7386 0.0304191Z" fill="white"/>
</svg>
