<svg width="190" height="198" viewBox="0 0 190 198" fill="none" xmlns="http://www.w3.org/2000/svg">
<path d="M121.992 89.983C122.509 89.1336 123.011 88.2772 123.485 87.4109C127.976 83.8482 131.293 78.9577 132.988 73.3997C136.432 62.0942 133.135 42.6123 118.769 41.6409C118.585 41.621 118.399 41.6419 118.223 41.7022C118.048 41.7625 117.887 41.8609 117.751 41.9905C109.966 37.5051 99.3147 38.2529 91.7851 42.8148C86.0288 46.3022 82.5916 51.9794 79.546 57.9096C77.0609 62.7485 74.5032 68.3687 76.1035 73.9359C77.4385 78.5802 81.2416 81.6526 85.2017 84.0365C83.5337 85.4976 82.3971 87.4952 81.9772 89.7038C81.8036 90.0541 81.6283 90.4006 81.4426 90.7321C80.2652 92.8336 79.0143 94.8901 77.6611 96.8776C74.8049 101.038 71.5633 104.905 67.9815 108.425C67.7471 108.673 67.6031 108.996 67.5736 109.34C67.5442 109.684 67.6311 110.028 67.8197 110.314C67.9105 110.468 68.0082 110.617 68.1003 110.769C67.6268 110.792 67.1638 110.92 66.7427 111.144C65.0467 111.98 63.3052 112.716 61.5269 113.348C58.1629 114.39 54.693 115.015 51.3353 116.088C49.7946 116.58 49.5121 118.353 50.8829 119.248C51.3804 119.627 51.9681 119.861 52.5842 119.925C53.2344 120.033 54.0682 119.709 54.0671 118.905C59.2654 117.43 64.6754 116.574 69.1549 113.277C69.2834 113.178 69.3885 113.05 69.4628 112.903C71.9547 116.641 74.925 120.018 78.2938 122.944C80.2342 124.623 82.2956 126.15 84.4603 127.511C85.3882 128.093 86.3395 128.632 87.3037 129.147C85.7041 130.894 85.3965 134.581 85.1744 136.586C84.7515 140.404 84.2256 145.653 85.9175 149.162C86.3893 150.141 88.17 149.901 88.425 148.863C89.2816 145.375 88.2496 141.18 88.4882 137.541C88.5841 135.616 88.9392 133.714 89.5433 131.889C89.751 131.293 89.9624 130.848 90.0885 130.427C90.651 130.657 91.1789 130.967 91.6562 131.349C91.6278 131.405 91.5958 131.459 91.5678 131.515C90.8567 132.939 93.0033 134.706 94.0789 133.419C96.9184 130.019 99.1447 125.959 101.554 122.23C103.529 119.175 105.491 116.112 107.441 113.04C110.082 113.985 112.875 114.269 115.658 114.665C118.728 115.102 121.919 115.921 124.97 115.042C125.187 114.996 125.392 114.906 125.574 114.777C125.755 114.649 125.91 114.484 126.029 114.293C126.148 114.102 126.228 113.888 126.265 113.665C126.302 113.441 126.296 113.213 126.245 112.992C125.358 109.277 124.544 105.546 123.828 101.792C123.506 100.104 123.207 98.4107 122.916 96.7163C122.623 95.0165 121.524 91.6744 121.981 90.0423C121.986 90.0215 121.987 90.0033 121.992 89.983ZM80.2856 76.0302C77.1534 71.2836 79.2279 65.6795 81.5213 61.086C84.0251 56.0713 86.7923 50.7916 91.171 47.2366C99.871 40.1733 111.472 41.1144 120.608 46.6039C120.755 46.7036 120.926 46.7601 121.103 46.7673C121.279 46.7746 121.454 46.7324 121.609 46.6452C121.763 46.558 121.892 46.4292 121.981 46.2726C122.069 46.116 122.114 45.9376 122.112 45.7565C130.328 49.6929 132.295 61.552 130.412 70.1284C129.345 74.9669 126.974 79.4001 123.569 82.9216C123.394 82.892 123.216 82.9112 123.051 82.9774C122.887 83.0435 122.743 83.1541 122.635 83.2974C122.231 83.8003 121.843 84.3185 121.461 84.8435C117.83 87.8401 113.333 89.5184 108.674 89.616C102.981 89.7075 97.5777 87.2719 92.5809 84.7271C88.2625 82.5279 83.0805 80.266 80.2856 76.0302ZM99.5523 119.004C97.5107 122.16 95.1763 125.286 93.2113 128.553C92.1912 127.948 91.1357 127.409 90.0506 126.938C87.368 125.603 84.8154 124.009 82.4275 122.178C78.039 118.775 74.2511 114.626 71.2281 109.912C74.5102 106.539 77.5012 102.88 80.1678 98.9778C81.6279 96.841 82.9769 94.6265 84.2092 92.3436C85.1948 90.5083 86.3519 88.7185 86.5503 86.6442C86.7923 86.1697 87.009 85.6821 87.1995 85.1835C87.3808 85.2835 87.5626 85.3846 87.7427 85.4824C93.4441 88.5773 99.4386 91.7267 105.927 92.5256C109.864 93.0081 113.855 92.4551 117.526 90.9186C116.79 92.1304 116.058 93.3409 115.306 94.5219C112.646 98.6993 109.974 102.868 107.288 107.028C104.71 111.02 102.131 115.012 99.5523 119.004V119.004ZM122.321 112.09C120.104 112.203 117.75 111.523 115.618 111.192C113.53 110.869 111.374 110.679 109.355 110.026C109.42 109.923 109.485 109.822 109.55 109.719C112.081 105.699 114.601 101.67 117.108 97.6333C117.736 96.6224 118.39 95.6117 119.049 94.5976C119.296 96.3496 119.569 98.0972 119.869 99.8403C120.577 103.947 121.405 108.028 122.321 112.09V112.09Z" fill="#FFDC17"/>
<path d="M116.394 66.341C116.394 68.0672 118.057 69.3184 120.109 69.1358C122.16 68.9532 123.823 67.4058 123.823 65.6796C123.823 63.9534 121.896 63.9413 120.109 63.2537C118.398 62.5958 116.394 64.6149 116.394 66.341Z" fill="#FFDC17"/>
<path d="M102.894 56.3773C102.686 56.8164 102.395 57.209 102.039 57.5329C101.683 57.8567 101.268 58.1053 100.818 58.2645C100.368 58.4237 99.8918 58.4904 99.4167 58.4606C98.9417 58.4309 98.477 58.3054 98.0492 58.0913C97.6215 57.8773 97.2391 57.5788 96.9238 57.2129C96.6086 56.8471 96.3668 56.4211 96.2122 55.9594C96.0576 55.4976 95.9932 55.0091 96.0227 54.5217C96.0523 54.0344 96.1752 53.5579 96.3844 53.1193C97.2613 51.2752 98.6965 52.6526 100.693 52.532C102.603 52.4166 103.771 54.5332 102.894 56.3773Z" fill="#FFDC17"/>
</svg>
