<svg width="65" height="63" viewBox="0 0 65 63" fill="none" xmlns="http://www.w3.org/2000/svg">
<path d="M0.0799561 57.7975C0.549956 60.3737 2.82998 62.3176 5.59998 62.5064H12.34C23.19 62.5064 34.0499 62.4309 43.5399 62.2894L50.38 62.1667H52.11C54.21 61.9685 56.01 60.6851 56.78 58.8355C57.01 58.2787 57.13 57.6842 57.15 57.0897V55.7213L57.0499 53.2583C56.9899 51.8806 56.93 50.616 56.86 49.4742H60.37C61.75 49.3609 62.97 48.5966 63.61 47.4359C63.77 47.1151 63.89 46.7658 63.96 46.4072C64 46.2279 64.0199 46.0487 64.0399 45.8694V42.0003L63.96 37.5273V36.5931C63.94 36.4327 63.92 36.2723 63.88 36.1118C63.73 35.4796 63.41 34.9039 62.96 34.4226C62.51 33.9602 61.9499 33.6111 61.3199 33.4129C60.7899 33.2525 60.2299 33.1958 59.6699 33.2336L56.86 33.309C57.01 31.3556 57.14 28.9399 57.25 26.156V25.6087C57.27 25.3634 57.27 25.1274 57.25 24.8821C57.19 24.3725 57.06 23.8723 56.84 23.4004C56.12 21.8528 54.6599 20.7204 52.9199 20.3524C52.3699 20.2392 51.81 20.1921 51.25 20.2015H51.0499C51.0699 20.0316 51.1 19.8523 51.14 19.6824C51.2 19.3144 51.2599 18.918 51.2999 18.4934L51.37 17.8423V17.5119C51.38 17.3704 51.38 17.2289 51.37 17.0873C51.36 15.6341 50.66 14.2563 49.45 13.3504C48.81 12.8597 48.05 12.5199 47.25 12.3595C47.04 12.3595 46.84 12.284 46.63 12.2746C46.42 12.2652 46.1699 12.2746 46.0599 12.2746H45.3199C41.9499 12.218 38.58 12.4444 35.25 12.9635C33.02 10.7081 30.54 8.30174 28.02 5.91424C27.28 5.21592 26.08 5.21592 25.34 5.91424C22.73 8.37723 20.18 10.8685 17.89 13.171C15.82 13.0295 13.22 12.8973 10.27 12.7841L7.88 12.6992L6.64001 12.6614H6C5.72 12.652 5.43991 12.6615 5.15991 12.6992C3.92991 12.8219 2.78 13.3126 1.88 14.1147C0.950005 14.9735 0.359951 16.1059 0.199951 17.3232C0.0799512 18.3613 0.28002 19.4087 0.77002 20.3524C0.50002 25.2972 0.329941 31.9502 0.189941 39.5374C0.109941 44.0104 0.05 48.8137 0 53.7774V57.1275C0.03 57.3257 0.0499561 57.5615 0.0799561 57.7975ZM45.33 15.8039H46.6C46.85 15.8417 47.0799 15.9361 47.2899 16.0682C47.7299 16.3324 48.04 16.7571 48.14 17.2478C48.16 17.3327 48.1799 17.4082 48.1799 17.4931V17.8234L48.25 18.4745C48.3 18.8897 48.3499 19.2861 48.4199 19.6635C48.4299 19.8145 48.46 19.9655 48.5 20.1165C46.36 20.0693 44.13 20.041 41.85 20.0032C40.79 18.701 39.38 17.1911 37.71 15.4453C40.24 15.7001 42.79 15.8228 45.33 15.8039ZM26.71 9.65116C30.96 13.624 35.2199 17.3799 38.4299 19.9656C33.6899 19.9089 28.7799 19.89 23.8199 19.89H15.0399C18.2499 17.3326 22.47 13.5957 26.71 9.65116ZM4.15002 16.2002C4.52002 15.8227 5.00003 15.568 5.53003 15.4737C5.68003 15.4454 5.81997 15.4359 5.96997 15.4264H6.59998L7.84998 15.3887L10.24 15.3038C12.37 15.2283 14.31 15.1339 16.01 15.0395C14.2 16.9174 12.66 18.5972 11.51 19.9656H11.03L7.92993 20.0032H6.40991C6.04991 20.0315 5.68997 20.0222 5.33997 19.9656C4.78997 19.8523 4.29996 19.5503 3.95996 19.1162C3.62996 18.6821 3.46 18.1536 3.5 17.6157C3.54 17.0873 3.77002 16.5871 4.15002 16.2002ZM4.53003 23.174C5.16003 23.3061 5.79994 23.3722 6.43994 23.3533H7.95996L11.0599 23.3911C15.1999 23.4289 19.5099 23.4477 23.8099 23.4477C32.3999 23.4477 40.99 23.3722 48.5 23.2306L51.26 23.174C51.59 23.1457 51.93 23.1457 52.26 23.174C52.53 23.2212 52.79 23.3061 53.03 23.4288C53.51 23.6647 53.9 24.0422 54.15 24.4951C54.27 24.7122 54.3599 24.9575 54.4099 25.1934C54.4299 25.3161 54.45 25.4483 54.46 25.5804V26.1277C54.58 28.9115 54.71 31.3368 54.86 33.3185C51.1 33.4506 47.88 33.6299 45.51 33.847C45.28 33.847 45.1 34.3 45.11 34.8001C45.12 35.3003 45.3 35.6117 45.51 35.6305C48.82 35.9325 53.78 36.1589 59.6 36.2816C60.09 36.2816 60.01 36.2817 60.12 36.3383C60.27 36.4044 60.37 36.5365 60.4 36.6969V37.4423L60.3199 41.9153V45.5108V45.5486C60.3199 45.5769 60.3199 45.5957 60.3199 45.624C60.2899 45.6712 60.2399 45.709 60.1899 45.7373C60.1599 45.7373 60.14 45.7373 60.11 45.7373H57.37C54.05 45.7373 50.73 45.7373 47.51 45.7939H45.1799C44.5899 45.7939 44.01 45.6901 43.45 45.5108C42.3899 45.1899 41.45 44.5766 40.76 43.7461C39.57 42.0853 39.5399 39.9243 40.6799 38.2257C41.5999 36.8479 43.1099 35.9137 44.8199 35.6589C45.0099 35.6589 45.1699 35.1965 45.1599 34.7058C45.1599 34.2717 44.96 33.9319 44.72 33.9224C43.64 33.8941 42.58 34.0923 41.59 34.4981C40.38 34.9888 39.32 35.772 38.52 36.7535C38.06 37.3008 37.6899 37.9142 37.4099 38.5654C37.1199 39.2637 36.93 39.9902 36.86 40.7357C36.7 42.3777 37.11 44.0198 38.02 45.4259C39.55 47.7473 42.19 49.21 45.09 49.3327H47.5699C49.9799 49.3327 52.4499 49.3798 54.9299 49.3798C54.8599 50.5311 54.8 51.7957 54.74 53.1734L54.64 55.6364V56.8821C54.59 57.203 54.4799 57.5238 54.3199 57.8069C54.0399 58.3825 53.5499 58.8449 52.9399 59.1092C52.6299 59.2413 52.29 59.3168 51.95 59.3262H50.45L43.61 59.2035C34.12 59.0525 23.2599 58.9865 12.4099 58.9865H5.89001C5.80001 58.9959 5.70999 58.9959 5.60999 58.9865C4.67999 58.8166 3.95001 58.1277 3.76001 57.25C3.75001 57.1651 3.75001 57.0803 3.76001 56.9859V53.8152C3.72001 48.8609 3.65995 44.0575 3.56995 39.575C3.44995 33.0637 3.28997 27.3073 3.08997 22.655C3.53997 22.8909 4.03003 23.0702 4.53003 23.174Z" fill="white"/>
<path d="M47.5203 41.2171C47.5203 42.2834 46.6002 43.1517 45.4602 43.1517C44.3302 43.1517 43.4102 42.2834 43.4102 41.2171C43.4102 40.1413 44.3302 39.2732 45.4602 39.2732C46.5902 39.2826 47.5203 40.1507 47.5203 41.2171Z" fill="white"/>
<path d="M55.5203 9.71722C57.3803 9.6606 60.2802 6.90512 60.3502 5.15932C60.1402 4.91396 59.9102 4.67806 59.6602 4.47045C59.4702 4.27228 59.2503 4.09292 59.0303 3.9325C57.1503 3.98912 54.2402 6.71641 54.2002 8.49052C54.4102 8.74531 54.6403 8.98122 54.8903 9.18883C55.0803 9.387 55.3003 9.5568 55.5203 9.71722Z" fill="white"/>
<path d="M57.7399 16.4174C57.7299 16.7005 57.74 16.9742 57.78 17.2478C59.1 18.4557 63.08 18.4369 64.39 17.2478C64.43 16.9364 64.4399 16.625 64.4299 16.3136C64.4399 16.0399 64.43 15.7756 64.39 15.5114C63.07 14.2941 59.09 14.2846 57.78 15.5114C57.75 15.8134 57.7299 16.1154 57.7399 16.4174Z" fill="white"/>
<path d="M47.3998 6.54648C47.6898 6.55592 47.9898 6.54656 48.2798 6.50881C49.5598 5.26315 49.5398 1.50732 48.2798 0.271102C47.9498 0.233355 47.6197 0.223881 47.2897 0.233318C46.9997 0.223881 46.7197 0.233355 46.4297 0.271102C45.1397 1.51676 45.1297 5.27259 46.4297 6.50881C46.7497 6.54656 47.0798 6.55592 47.3998 6.54648Z" fill="white"/>
</svg>
