<svg width="100" height="129" viewBox="0 0 100 129" fill="none" xmlns="http://www.w3.org/2000/svg">
<path d="M99.5557 93.5852C95.3565 88.7269 92.911 82.8005 90.2169 77.0407C88.9069 74.2397 87.5291 71.4562 86.4471 68.5563C85.5061 65.8035 84.9434 62.9356 84.7743 60.0313C85.457 58.4509 86.1108 56.8612 86.6925 55.2584C91.5387 50.0447 94.6685 43.4694 95.6592 36.4204C97.6691 22.0831 89.7109 -0.737898 71.7437 1.02512C71.512 1.03873 71.2859 1.10198 71.0807 1.21058C70.8756 1.31919 70.6962 1.47061 70.5547 1.65461C60.0289 -2.16434 47.0006 0.913225 38.5932 7.95259C32.1658 13.3342 29.0437 20.8829 26.4565 28.6564C24.3454 34.9996 22.3 42.2998 25.3883 48.6866C27.9648 54.0149 33.2817 56.9432 38.6558 59.0092C36.8831 61.112 35.8747 63.7532 35.7949 66.5024C35.65 66.9602 35.5019 67.4139 35.3382 67.8516C34.3 70.6265 33.1618 73.3621 31.8832 76.0353C29.2305 81.5266 26.0618 86.7532 22.4197 91.6447C20.6014 90.6099 18.3842 90.0436 16.5729 89.2546C14.0408 88.024 11.5833 86.6454 9.21316 85.1259C8.37113 84.6367 7.70321 84.2031 6.66135 84.3882C3.89463 84.8797 2.50194 89.6859 1.70191 91.9456C0.257887 96.0631 -0.276833 100.445 0.134526 104.788C0.268921 106.23 1.52329 106.821 2.84451 106.626L2.54243 106.676C2.76193 106.799 3.00829 106.865 3.25968 106.87C3.51108 106.875 3.75974 106.817 3.98367 106.703C4.20759 106.589 4.39989 106.421 4.54346 106.214C4.68704 106.008 4.77746 105.769 4.80678 105.52C4.83815 105.307 4.86951 105.095 4.90088 104.883C4.90827 104.657 4.86378 104.433 4.77079 104.227C4.6778 104.021 4.53882 103.839 4.36451 103.695C4.23 101.055 4.45862 98.4085 5.04403 95.8305C5.41336 94.2829 5.91142 92.7688 6.53297 91.3042C6.86791 90.5227 7.24414 89.7597 7.66005 89.0181C9.56644 90.7009 12.836 91.8793 15.0128 92.7788C17.5994 93.8476 20.0602 94.5878 22.3502 96.2626C22.6468 96.4722 22.9913 96.6038 23.3522 96.6454C23.713 96.687 24.0785 96.6371 24.415 96.5004C28.3669 100.724 32.8913 104.373 37.8562 107.341C40.5912 108.97 43.4456 110.39 46.3947 111.589C47.9751 112.229 49.5802 112.801 51.2102 113.304C51.7973 113.485 52.5225 113.629 53.2649 113.795C53.1808 114.049 53.1558 114.318 53.1919 114.582C53.228 114.847 53.3242 115.1 53.4731 115.321C57.4238 120.734 62.5939 125.14 68.5648 128.182C69.08 128.451 69.6748 128.527 70.241 128.395C70.8072 128.263 71.3071 127.932 71.6499 127.462C74.948 121.88 78.5858 116.552 82.0832 111.1C83.5967 108.74 79.7195 107.105 78.2345 109.098C74.8443 113.768 71.7042 118.615 68.8275 123.618C66.3911 122.228 64.1166 120.571 62.046 118.678C61.243 117.886 60.5009 117.034 59.8263 116.13C62.468 111.6 64.3504 106.502 66.492 101.729C67.3314 99.8585 68.1669 97.986 68.9982 96.1118C69.4585 96.7844 69.9123 97.4615 70.343 98.1557C71.146 99.4494 71.8015 100.871 72.719 102.084C73.8023 103.517 76.984 102.874 76.2726 100.751C75.2951 97.8339 73.1292 94.9503 71.2141 92.5729C71.0822 92.4134 70.9254 92.2763 70.7496 92.1669C71.8033 89.7832 72.8511 87.3969 73.893 85.0079C76.2247 79.6421 78.5397 74.2691 80.838 68.8889C81.0791 68.3246 81.3251 67.7594 81.5761 67.1934C82.5845 70.8358 84.429 74.4221 85.8065 77.4659C88.6444 83.7361 91.2093 90.2947 95.7517 95.5641C97.3563 97.4255 101.323 95.6296 99.5557 93.5852ZM77.9888 65.5049C75.5301 71.0859 73.0533 76.659 70.5584 82.2241C68.1638 87.5655 65.7687 92.9067 63.3729 98.2477C61.4754 102.471 59.2095 106.717 57.429 111.059C56.0466 110.537 54.6332 110.102 53.1969 109.756C49.6122 108.694 46.1368 107.293 42.8178 105.573C36.7108 102.366 31.1984 98.1364 26.5197 93.0681C29.9086 88.3299 32.8807 83.3072 35.4028 78.0561C36.7838 75.1809 38.0119 72.2348 39.0819 69.23C39.9359 66.8153 41.011 64.4205 40.8436 61.8786C41.0484 61.2569 41.2194 60.6246 41.3559 59.9844C41.6001 60.0679 41.8452 60.1527 42.0875 60.2338C49.7575 62.8015 57.801 65.3752 65.9878 65.0131C70.9541 64.7909 75.7823 63.3087 80.0178 60.7059C79.3484 62.3177 78.6839 63.927 77.9888 65.5049ZM68.8067 60.9433C61.781 62.2166 54.6116 60.383 47.9229 58.3347C42.1424 56.5647 35.2808 54.8954 30.9795 50.3581C26.1593 45.2737 27.61 38.0916 29.5327 32.0835C31.632 25.5247 34.0042 18.5922 38.7138 13.4107C48.0711 3.11553 62.6117 1.8806 75.007 6.63466C75.2092 6.72471 75.4322 6.7579 75.6518 6.73065C75.8715 6.7034 76.0795 6.61675 76.2536 6.48002C76.4276 6.34329 76.5611 6.16167 76.6396 5.95471C76.7181 5.74776 76.7386 5.52332 76.699 5.30555C87.6476 8.37452 92.4433 22.274 91.8204 33.0017C91.4647 39.0545 89.4136 44.8852 85.9014 49.8276C85.68 49.8274 85.4627 49.8872 85.2725 50.0005C85.0823 50.1139 84.9264 50.2766 84.8212 50.4714C84.4215 51.1605 84.0441 51.8647 83.677 52.5758C79.7809 56.9314 74.5518 59.8738 68.8067 60.9433Z" fill="#A322DB"/>
<path d="M49.4511 32.8435C49.4511 34.0478 48.9726 35.2029 48.1211 36.0545C47.2695 36.906 46.1144 37.3845 44.9101 37.3845C43.7058 37.3845 42.5507 36.906 41.6991 36.0545C40.8475 35.2029 40.3691 34.0478 40.3691 32.8435C40.3691 30.3356 42.7247 31.0596 44.9101 29.8294C47.0011 28.6523 49.4511 30.3356 49.4511 32.8435Z" fill="#A322DB"/>
<path d="M62.2677 33.2252C62.2677 35.3351 64.3531 36.8645 66.9255 36.6413C69.4979 36.418 71.5833 34.5267 71.5833 32.4168C71.5833 30.3069 69.1672 30.2921 66.9255 29.4517C64.7807 28.6475 62.2677 31.1154 62.2677 33.2252Z" fill="#A322DB"/>
</svg>
