<svg width="117" height="130" viewBox="0 0 117 130" fill="none" xmlns="http://www.w3.org/2000/svg">
<path d="M4.21208 128.053C7.07447 123.175 10.387 118.575 14.1064 114.314C15.7815 112.324 19.4343 109.271 20.5043 106.195C20.9999 106.425 21.4744 106.644 21.8996 106.799C23.5026 107.385 25.1283 107.901 26.7767 108.347C29.8536 109.177 32.9888 109.773 36.1555 110.13C41.5044 110.726 46.9083 110.619 52.2296 109.813C54.711 113.434 60.4884 112.707 64.0016 114.832C66.0783 116.088 65.7245 118.659 66.5338 120.774C66.9538 121.871 68.733 126.445 69.7678 125.605C69.5934 125.757 69.4536 125.945 69.3577 126.156C69.2619 126.367 69.2123 126.595 69.2123 126.827C69.2123 127.059 69.2619 127.287 69.3577 127.498C69.4536 127.709 69.5934 127.897 69.7678 128.049L69.898 128.158C70.9646 129.053 73.0076 128.836 73.429 127.329C74.0867 124.977 72.0973 122.548 71.1717 120.486C70.1296 118.165 70.8772 114.993 69.1253 113.064C67.4183 111.185 64.0878 110.723 61.8079 110.002C60.4209 109.563 58.9463 108.927 57.4565 108.501C57.7719 108.191 57.9515 107.769 57.956 107.326C57.9951 101.1 58.6362 94.8931 59.8702 88.7908C60.4696 85.8858 61.2185 83.016 62.0709 80.1754C62.2053 79.7274 62.3621 79.2761 62.5236 78.8234C64.1246 76.5836 64.9198 73.8675 64.7797 71.1179C68.7996 72.285 73.0698 73.0634 77.1297 72.3766C80.8271 73.0731 84.5091 73.8207 88.3102 73.7549C92.3521 73.6849 96.2277 72.324 100.265 72.1178C101.318 72.064 111.92 72.2191 111.982 72.4798C112.371 74.1132 115.065 74.3185 115.855 72.9303L116.076 72.5416C116.317 72.1527 116.413 71.6913 116.347 71.2386C116.281 70.7859 116.058 70.3708 115.717 70.0662C113.196 67.7169 107.715 68.1846 104.512 68.0502C99.7832 67.8517 95.5082 68.7116 90.8816 69.429C88.6371 69.7245 86.3608 69.6773 84.1304 69.2893C88.7202 65.6661 91.0357 59.7263 92.8813 54.3078C95.5252 46.5447 97.6066 38.637 95.7412 30.4555C93.3011 19.754 84.7786 9.41283 74.0758 6.08437C74.0744 5.85201 74.023 5.62265 73.9252 5.41187C73.8274 5.20109 73.6855 5.01381 73.509 4.86269C60.2538 -7.4207 40.0931 5.95307 33.015 18.5992C29.5369 24.8182 28.0509 31.9546 28.7576 39.0449C27.2945 43.7508 26.3583 48.7278 25.1721 53.455C23.7469 59.1354 22.3393 64.8201 20.9495 70.5092C19.5014 76.4367 18.0934 82.3736 16.7255 88.3198C15.4894 93.6522 13.8009 99.096 13.2288 104.543C13.2161 104.783 13.2532 105.023 13.3378 105.247C13.4224 105.472 13.5526 105.676 13.7203 105.848C13.8879 106.02 14.0893 106.155 14.3118 106.245C14.5343 106.335 14.773 106.377 15.0128 106.37C13.0484 108.842 11.0876 111.334 9.03893 113.757C5.7403 117.556 2.80923 121.658 0.285068 126.01C-1.09998 128.469 2.94508 130.302 4.21208 128.053ZM57.8007 64.9697C55.4103 64.0906 52.9874 63.1485 50.6382 62.0544C53.5945 60.0568 56.3849 57.824 58.9823 55.3778C60.1689 55.4071 61.4545 54.6972 61.4201 53.4249L61.3816 52.0017C61.3197 49.7162 58.2671 49.4066 57.0667 50.9616C54.223 54.6453 50.401 57.2789 46.6627 59.9851C44.0331 58.4914 41.6433 56.6104 39.5736 54.4053C37.2758 51.8967 35.4976 48.9577 34.3418 45.7581C34.5388 45.5477 34.6768 45.2891 34.7419 45.0083C34.8069 44.7275 34.7968 44.4346 34.7125 44.159C34.6281 43.8833 34.4726 43.6349 34.2615 43.4386C34.0504 43.2423 33.7913 43.1052 33.5103 43.0411C33.1587 41.6254 32.9164 40.1848 32.7856 38.732C32.9235 37.943 33.049 37.1531 33.1475 36.3617C33.1816 36.1427 33.1559 35.9186 33.0729 35.7131C32.9899 35.5076 32.8529 35.3284 32.6763 35.1945C32.8688 29.1282 34.7639 23.2384 38.1449 18.198C44.1433 9.26917 56.3816 1.09258 66.9674 5.27482C66.804 5.42441 66.6845 5.61575 66.6217 5.82824C66.559 6.04073 66.5554 6.26633 66.6114 6.48071C66.6673 6.69508 66.7807 6.89011 66.9393 7.04482C67.0979 7.19952 67.2957 7.30802 67.5114 7.35864C80.2708 11.0734 91.1143 20.8614 92.3405 34.7334C92.9577 41.7153 90.6516 48.6779 88.354 55.1773C86.502 60.416 83.8054 66.1537 78.4703 68.2303C74.6032 67.4789 70.7626 66.9343 67.0147 68.1414C63.8324 67.3002 60.7111 66.04 57.8007 64.9697ZM39.3567 59.3563C40.6745 60.4442 42.0642 61.4421 43.5163 62.3431C41.8485 63.6285 40.3021 65.0641 38.8964 66.6318C38.1391 63.9531 37.4309 61.2613 36.7895 58.5501C36.6201 57.8343 36.4613 57.1161 36.2999 56.3985C37.2455 57.4576 38.2671 58.4461 39.3567 59.3563ZM18.3018 101.244C19.5112 96.7045 20.2756 91.9481 21.3198 87.4328C22.64 81.7239 23.9644 76.016 25.293 70.309C26.6736 64.3623 28.0733 58.4201 29.4922 52.4825C29.7722 51.3111 30.0751 50.1355 30.3818 48.9584C30.4173 49.1468 30.4525 49.3353 30.4842 49.524C30.8997 52.0025 31.3686 54.4713 31.8907 56.9305C32.9772 62.0735 34.3238 67.1502 35.8476 72.1801C36.3501 73.8387 39.1255 74.237 39.9822 72.6611C41.7932 69.3304 44.4457 66.7976 47.3612 64.5039C51.8734 66.6661 56.5321 68.5082 61.3028 70.0165C61.545 70.0986 61.7917 70.1794 62.0369 70.2607C61.758 70.8536 61.5116 71.4612 61.2985 72.0808C59.626 74.0057 59.0333 76.5656 58.2521 79.0076C57.2858 82.0507 56.481 85.1428 55.8412 88.2709C54.6725 93.9838 54.0009 99.7872 53.8337 105.616C47.0354 106.824 40.0805 106.858 33.2708 105.717C29.5831 105.079 25.9646 104.091 22.4643 102.767C21.1096 102.174 19.7194 101.665 18.3018 101.244V101.244Z" fill="#A322DB"/>
<path d="M83.4202 41.5005C85.1611 40.3047 85.2412 37.7173 83.5991 35.7212C81.957 33.7252 79.2145 33.0764 77.4736 34.2721C75.7327 35.4679 77.7776 36.9975 78.3546 39.3234C78.9066 41.5489 81.6793 42.6962 83.4202 41.5005Z" fill="#A322DB"/>
<path d="M69.6022 32.5876C69.6022 35.098 67.5671 33.3082 65.0567 33.3082C62.5462 33.3082 60.5111 32.5876 60.5111 30.0771C60.5111 27.5667 62.869 28.2914 65.0567 27.06C67.1498 25.8817 69.6022 30.0771 69.6022 32.5876Z" fill="#A322DB"/>
</svg>
