<svg width="100" height="129" viewBox="0 0 100 129" fill="none" xmlns="http://www.w3.org/2000/svg">
<path d="M74.2299 1.05512C73.9914 1.06912 73.7587 1.13422 73.5476 1.246C73.3364 1.35778 73.1518 1.51365 73.0061 1.70303C62.1723 -2.22768 48.7627 0.93995 40.1093 8.18532C33.4938 13.7244 30.2803 21.494 27.6174 29.495C27.204 30.737 26.7936 32.015 26.4211 33.3151C24.8358 31.2256 22.4267 29.5455 20.512 28.0495C16.5123 24.9245 12.4691 21.855 8.4406 18.7674C6.40397 17.2063 3.25924 19.4515 5.24443 21.612C9.78856 26.724 15.0098 31.1913 20.7633 34.89C20.9939 35.0293 21.2531 35.1147 21.5214 35.1399C21.7897 35.1651 22.0602 35.1294 22.3128 35.0354C23.2974 35.9282 24.3301 36.7664 25.4062 37.5465C24.6111 41.7945 24.5906 46.1255 26.518 50.1115C29.1698 55.5957 34.6423 58.6097 40.1737 60.7361C38.349 62.9004 37.3111 65.6189 37.229 68.4486C37.0798 68.9198 36.9276 69.3868 36.759 69.8373C35.6904 72.6934 34.5189 75.5091 33.203 78.2605C30.4185 84.0247 27.0831 89.5062 23.2433 94.6283C23.0137 94.955 22.8955 95.3469 22.9063 95.7461C22.9171 96.1452 23.0563 96.5302 23.3032 96.844C19.8507 95.3501 16.2708 91.0499 13.9818 89.0673C13.0493 88.2596 11.1883 88.2626 10.5238 89.4638C7.16318 95.54 3.75019 101.586 0.28489 107.602C-1.07827 109.96 2.82574 111.736 4.07773 109.576C7.1037 104.353 10.0778 99.1012 13.0001 93.8199C16.7448 97.2961 23.7782 103.396 26.66 100.511C30.4484 104.362 34.7131 107.712 39.3507 110.482C42.1658 112.159 45.1037 113.621 48.1391 114.855C49.7657 115.514 51.4178 116.102 53.0955 116.62C53.3367 116.695 53.6057 116.762 53.8841 116.827C53.9844 117.018 54.1122 117.192 54.2633 117.345C58.0774 121.208 62.372 124.665 66.4387 128.26C66.7133 128.497 67.0401 128.666 67.3923 128.752C67.7445 128.839 68.1122 128.84 68.4652 128.757C68.8182 128.674 69.1466 128.509 69.4235 128.275C69.7004 128.041 69.918 127.744 70.0583 127.41C73.0065 121.056 77.182 116.37 81.4531 110.947C82.936 109.064 79.7256 107.626 78.2822 108.77C73.5571 112.514 69.9817 118.069 67.2379 123.551C65.565 122.071 63.8948 120.578 62.2004 119.117C64.7955 114.557 66.6849 109.475 68.8245 104.706C71.393 98.9822 73.9322 93.2453 76.4421 87.4956C78.8421 81.9728 81.2249 76.4426 83.5904 70.9049C85.559 66.2964 87.8875 61.6388 89.6162 56.8756C94.6043 51.5092 97.8256 44.7416 98.8452 37.4863C100.914 22.7293 92.7228 -0.759493 74.2299 1.05512ZM80.6578 67.4218C78.1271 73.1663 75.5778 78.9024 73.01 84.6304C70.5452 90.1281 68.08 95.6257 65.6141 101.123C63.6611 105.47 61.3289 109.84 59.4964 114.309C58.0734 113.772 56.6187 113.324 55.1404 112.968C51.4508 111.875 47.8736 110.433 44.4575 108.662C38.1718 105.361 32.4981 101.008 27.6824 95.7917C31.1705 90.9149 34.2296 85.7451 36.8256 80.3404C38.2469 77.3811 39.5109 74.3487 40.6123 71.256C41.4912 68.7706 42.5978 66.3058 42.4255 63.6895C42.6363 63.0496 42.8123 62.3988 42.9528 61.7399C43.2041 61.8258 43.4564 61.913 43.7057 61.9965C51.6003 64.6394 59.8792 67.2884 68.3056 66.9157C73.4173 66.687 78.3867 65.1614 82.7462 62.4825C82.0572 64.1415 81.3732 65.7978 80.6578 67.4218V67.4218ZM94.8942 33.9675C94.528 40.1974 92.4169 46.1987 88.802 51.2858C88.5741 51.2856 88.3504 51.3471 88.1547 51.4637C87.9589 51.5804 87.7984 51.7479 87.6902 51.9484C87.2787 52.6577 86.8902 53.3825 86.5124 54.1145C85.5065 55.2178 84.4176 56.2425 83.2553 57.1796C79.4373 54.3875 74.9832 52.5253 71.3102 49.398C67.7816 46.3935 64.4474 43.2558 60.138 41.3988C57.5968 40.3038 54.9529 43.8322 57.7599 45.0198C65.8965 48.4621 71.4118 56.1418 79.5305 59.7106C76.9454 61.1771 74.1314 62.1968 71.207 62.7268C63.9757 64.0373 56.5965 62.1501 49.712 60.0419C43.7623 58.22 36.6999 56.5019 32.2727 51.8319C27.3115 46.5986 28.8046 39.2064 30.7837 33.0225C32.9443 26.2716 35.386 19.1363 40.2334 13.8031C49.8646 3.2067 64.8307 1.93557 77.5888 6.82882C77.7969 6.92151 78.0264 6.95567 78.2525 6.92761C78.4785 6.89956 78.6927 6.81036 78.8718 6.66962C79.051 6.52888 79.1883 6.34193 79.2691 6.12891C79.3498 5.91589 79.371 5.68489 79.3302 5.46075C90.5992 8.61961 95.5353 22.9258 94.8942 33.9675V33.9675Z" fill="#A322DB"/>
<path d="M56.1595 22.7874C55.8908 23.3398 55.5159 23.8338 55.0562 24.2412C54.5964 24.6486 54.0609 24.9614 53.4802 25.1616C52.8995 25.3619 52.285 25.4458 51.6719 25.4084C51.0588 25.371 50.4591 25.2131 49.907 24.9438C49.3549 24.6745 48.8613 24.2989 48.4545 23.8387C48.0477 23.3785 47.7356 22.8426 47.536 22.2616C47.3364 21.6807 47.2534 21.0661 47.2915 20.453C47.3296 19.84 47.4882 19.2404 47.7582 18.6887C48.8901 16.3687 50.7423 18.1015 53.3191 17.9498C55.7847 17.8046 57.2913 20.4675 56.1595 22.7874Z" fill="#A322DB"/>
<path d="M77.3898 38.9729C79.1798 37.7434 79.2622 35.0829 77.5738 33.0305C75.8853 30.9781 73.0654 30.311 71.2754 31.5405C69.4853 32.77 71.5879 34.3428 72.1812 36.7344C72.7488 39.0227 75.5998 40.2024 77.3898 38.9729Z" fill="#A322DB"/>
</svg>
