<svg width="130" height="130" viewBox="0 0 130 130" fill="none" xmlns="http://www.w3.org/2000/svg">
<path d="M128.376 13.1846C127.997 12.842 127.52 12.6258 127.013 12.5658C126.505 12.5059 125.991 12.6051 125.542 12.8498C125.093 13.0946 124.732 13.4727 124.507 13.9319C124.282 14.3912 124.206 14.9089 124.288 15.4134C124.291 15.4305 124.298 15.4438 124.301 15.4604C123.186 15.5071 120.41 14.3892 120.178 14.3551C119.095 14.1772 117.985 14.3883 117.044 14.9511C114.959 16.2094 113.99 18.841 113.421 21.0726C112.705 23.8775 112.655 27.67 109.619 29.0069C106.81 30.2437 103.343 29.2679 100.377 30.0215C99.2873 30.268 98.2659 30.7532 97.3865 31.4421C96.507 32.1309 95.7913 33.0063 95.291 34.0052C93.848 36.9461 95.0898 39.8754 94.4291 42.8347C93.7562 45.8486 91.3993 44.001 89.5691 43.6046C88.9784 43.4737 88.3686 43.4536 87.7705 43.5451C89.9172 37.7022 90.3592 31.3695 89.0451 25.2851C86.1528 11.9446 71.6771 -5.65494 56.3541 1.75813C56.1535 1.84563 55.974 1.97524 55.8279 2.13816C55.6818 2.30108 55.5724 2.49349 55.5071 2.7024C44.9498 2.75238 34.4248 9.71966 29.2792 18.6869C26.5546 23.4351 25.5728 28.5869 25.3068 33.8706C24.9718 33.6112 24.5816 33.4322 24.1665 33.3474C23.7514 33.2626 23.3223 33.2743 22.9124 33.3816C22.1356 33.6492 21.4259 34.0819 20.8323 34.65C20.2476 35.2345 19.5882 35.7393 18.8713 36.1512C17.9259 37.0885 17.3834 36.9369 17.244 35.6964C15.8265 33.7922 16.4046 29.6027 16.3698 27.3504C16.323 24.3269 17.3984 16.8606 12.1174 17.6712C9.73449 18.037 8.33449 20.4891 6.14544 21.1193C5.58626 21.8465 5.07908 21.842 4.62388 21.1059C4.43099 20.354 4.3485 19.5781 4.37904 18.8024C4.3527 17.4186 4.47909 16.0361 4.75587 14.6799C4.91862 14.5407 5.04589 14.3646 5.12713 14.1664C5.20838 13.9682 5.24125 13.7535 5.22307 13.5401C5.20172 13.2296 5.1804 12.919 5.1591 12.6084C5.01554 10.5163 1.62031 9.98958 1.04259 12.1125C0.051805 15.7531 -1.40239 23.1449 3.05259 25.1931C5.11383 26.1407 7.03205 25.1828 8.7706 24.0322C9.27393 23.699 12.0416 21.6632 12.1623 21.7843C12.6178 22.241 12.2043 26.6286 12.2194 27.3504C12.2947 30.9613 11.8378 38.4659 16.1188 40.0881C18.1298 40.8502 20.3157 39.7086 21.9197 38.5497C22.2721 38.3279 22.6126 38.0879 22.9399 37.8305C23.0797 39.3001 24.0013 41.6892 24.312 42.6973C24.3864 42.9446 24.5279 43.1664 24.7208 43.3381C24.9137 43.5098 25.1504 43.6246 25.4047 43.6699C25.7312 49.2237 26.7321 55.0412 30.8653 59.0301C34.8808 62.9052 40.5391 63.7641 45.9672 63.8413C45.0836 66.2794 45.0518 68.9449 45.8768 71.4034C45.8977 71.8557 45.9146 72.3053 45.9123 72.7459C45.8976 75.5393 45.7818 78.3306 45.5214 81.1124C44.9521 86.9489 43.8198 92.7167 42.1401 98.3352C42.0403 98.7206 42.0761 99.1286 42.2417 99.4907C42.4072 99.8528 42.6924 100.147 43.0492 100.324C45.0035 101.412 47.0158 102.394 49.0773 103.262C45.7101 110.783 46.1632 120.316 48.5815 128.034C49.2955 130.313 53.2961 129.478 52.6339 127.04C50.5106 119.221 51.0471 112.359 52.3888 104.544C55.1958 105.541 58.0764 106.317 61.0044 106.866C63.9552 107.416 66.9433 107.743 69.9433 107.843C70.2098 107.852 70.4763 107.847 70.7429 107.852C69.0712 112.858 69.7013 118.788 71.8276 123.503C72.7588 125.567 76.6914 124.863 75.786 122.531C73.7873 117.385 73.885 113.072 74.6569 107.795C74.6922 107.794 74.7275 107.794 74.7628 107.792C76.1171 107.719 78.068 107.212 79.5254 107.488C79.5281 107.561 79.5263 107.634 79.5294 107.707C79.6085 109.549 82.821 110.067 83.1942 108.148C84.1793 103.084 84.1579 97.7157 84.5134 92.5721C84.9096 86.8383 85.2767 81.1029 85.6145 75.3659C85.9296 69.8587 86.2276 64.3505 86.5084 58.8414C86.6564 55.9408 86.9211 52.9778 87.0907 50.0168C87.6972 48.6495 88.0006 47.024 89.5686 47.0474C91.1595 47.0711 92.41 48.0545 94.1589 47.8122C97.4236 47.3599 98.1587 44.8002 98.1298 41.8819C98.1102 39.9101 97.7712 37.5764 98.5798 35.7152C99.8347 32.827 102.804 33.0308 105.437 32.9847C108.764 32.9263 112.192 32.6343 114.471 29.9102C116.543 27.4321 116.687 24.1845 117.653 21.2312C118.016 20.1238 118.273 18.8448 119.476 18.5582C120.436 18.3294 121.05 18.9906 121.964 19.2571C123.402 19.6935 124.952 19.5775 126.31 18.9318C128.175 18.0235 130.536 15.0291 128.376 13.1846ZM82.885 56.7754C82.5276 62.5145 82.1517 68.2524 81.7572 73.9891C81.3785 79.4953 80.9993 85.0015 80.6194 90.5077C80.3162 94.8624 79.6946 99.3573 79.5337 103.779C78.1407 103.768 76.7483 103.844 75.3646 104.005C71.847 104.233 68.3157 104.126 64.8184 103.685C58.3703 102.837 52.1152 100.89 46.3243 97.9302C47.7793 92.6339 48.7728 87.2215 49.2938 81.7538C49.579 78.76 49.7058 75.7531 49.6737 72.7459C49.6427 70.3312 49.8138 67.862 48.8376 65.6674C48.8164 65.0507 48.7617 64.4355 48.6738 63.8247C48.9171 63.819 49.1615 63.8141 49.4024 63.807C57.0253 63.5802 64.9806 63.2371 72.1064 60.2498C76.4282 58.4353 80.2174 55.551 83.117 51.8683C83.0499 53.5124 82.986 55.1528 82.885 56.7754ZM84.779 40.3265C84.5831 40.3984 84.4103 40.5221 84.2789 40.6843C84.1476 40.8466 84.0626 41.0414 84.0331 41.248C83.9038 41.9879 83.7993 42.7339 83.7061 43.4827C81.6778 48.6057 78.0097 52.9126 73.2748 55.7305C67.4732 59.1458 60.5324 59.859 53.947 60.2257C48.2557 60.5427 41.6408 61.3009 36.3569 58.6877C30.4357 55.7592 29.3795 48.9319 29.1237 42.9896C28.8443 36.5024 28.685 29.5957 31.164 23.4768C36.0896 11.3194 48.5528 5.48988 61.0689 5.65839C61.2771 5.67218 61.4852 5.62892 61.6707 5.53324C61.8561 5.43756 62.012 5.29312 62.1214 5.11543C62.2309 4.93775 62.2898 4.73356 62.2918 4.52488C62.2939 4.3162 62.2389 4.11092 62.1329 3.93115C72.82 3.0799 81.5913 13.8159 84.5348 23.5108C86.1919 28.9821 86.2765 34.8093 84.779 40.3265Z" fill="#A322DB"/>
<path d="M49.2801 28.9519C49.2801 30.0874 48.829 31.1764 48.0261 31.9793C47.2231 32.7823 46.1341 33.2334 44.9986 33.2334C43.863 33.2334 42.774 32.7823 41.9711 31.9793C41.1681 31.1764 40.717 30.0874 40.717 28.9519C40.717 26.5873 42.938 27.2699 44.9986 26.1099C46.9701 25.0001 49.2801 26.5873 49.2801 28.9519Z" fill="#A322DB"/>
<path d="M61.3643 32.7644C61.3643 34.7537 63.3305 36.1958 65.7559 35.9853C68.1814 35.7748 70.1476 33.9915 70.1476 32.0022C70.1476 30.0128 67.8695 29.9988 65.7559 29.2064C63.7337 28.4482 61.3643 30.7751 61.3643 32.7644Z" fill="#A322DB"/>
</svg>
