<svg width="538" height="384" viewBox="0 0 538 384" fill="none" xmlns="http://www.w3.org/2000/svg">
<path d="M121.303 354.738C120.217 353.388 117.948 351.4 118.268 350.808C119.2 349.081 121.165 347.91 122.726 346.521C123.84 347.813 125.821 349.095 125.837 350.4C125.855 351.828 124.057 353.279 123.05 354.719L121.303 354.738Z" fill="#FADE4F"/>
<path d="M448.561 14.8094C446.636 16.0712 445.345 17.5778 444.201 17.4729C443.152 17.3766 442.263 15.5428 441.303 14.4745C442.529 13.4785 443.64 12.0251 445.028 11.6771C445.736 11.4996 446.942 13.3068 448.561 14.8094Z" fill="#FADE4F"/>
<path d="M309.125 365.449C307.421 366.533 306.374 367.712 305.645 367.541C304.617 367.298 303.824 366.056 302.931 365.242C303.78 364.378 304.599 362.868 305.485 362.828C306.422 362.786 307.422 364.143 309.125 365.449Z" fill="#FADE4F"/>
<path d="M266.758 371.695C264.955 372.899 263.823 374.237 262.926 374.095C261.957 373.942 261.207 372.404 260.362 371.47C261.189 370.725 262.043 369.353 262.837 369.388C263.914 369.434 264.945 370.556 266.758 371.695Z" fill="#FADE4F"/>
<path d="M220.193 381.681C218.821 382.513 218.013 383.399 217.322 383.315C216.573 383.225 215.933 382.231 215.245 381.631C216.023 380.939 216.711 379.94 217.613 379.678C218.095 379.538 218.947 380.668 220.193 381.681Z" fill="#FADE4F"/>
<path d="M417.676 35.4516C418.709 34.2964 419.869 33.2605 421.132 32.3635C421.634 32.1076 422.181 31.9551 422.743 31.915C423.304 31.8749 423.868 31.948 424.401 32.13C425.968 32.786 427.288 34.0139 428.763 34.9173C429.269 35.227 430.134 35.0991 430.486 35.4873C432.589 37.8111 432.555 37.842 433.769 35.2356C436.066 32.5864 438.029 40.4741 440.588 34.832C443.573 36.3476 446.818 38.2399 450.671 34.9953C450.699 35.5166 450.728 36.038 450.757 36.5593C449.982 37.2628 449.207 37.9662 448.433 38.6697L449.147 39.6511C450.281 38.6156 451.354 37.5 452.574 36.5787C452.872 36.3204 453.22 36.1247 453.595 36.0031C453.971 35.8815 454.367 35.8364 454.76 35.8705C455.553 36.1352 456.134 37.0362 457.028 37.8714C457.919 36.3597 458.744 35.6964 461.182 37.2487C463.652 38.8206 467.21 38.9334 469.57 41.0933C470.767 42.1882 471.409 43.8891 472.366 45.4199C471.91 45.9908 471.307 46.7462 470.3 48.0084C471.833 48.0084 473.045 48.371 473.657 47.9199C474.488 47.3066 474.861 46.0714 475.309 45.3098C477.741 48.2849 477.461 48.8279 471.462 50.8046C471.822 51.6308 472.171 52.4324 472.294 52.7156C474.242 52.0666 475.897 51.5154 478.165 50.7596C476.822 55.4689 470.627 52.5613 470.519 57.8267L475.293 57.4847C471.871 61.7504 472.677 63.9053 477.847 64.8815C486.16 66.451 494.527 67.7332 502.849 69.2556C504.675 69.5897 506.922 69.924 508.089 71.1215C511.219 74.3348 515.627 73.7461 519.063 75.4858C525.02 78.3503 530.615 81.9142 535.729 86.1022C539.185 89.0656 537.967 95.112 534.831 98.8435C533.218 100.763 532.106 102.62 532.662 105.803C533.358 109.784 531.869 113.564 528.696 117.068C521.655 124.844 511.927 127.085 502.948 130.74C499.03 132.335 494.302 132.066 489.924 132.385C478.254 133.234 466.572 133.913 454.9 134.737C452.906 134.975 450.926 135.315 448.967 135.756C457.09 136.935 465.202 137.972 473.252 139.371C475.545 139.784 477.69 140.791 479.472 142.293C481.821 144.355 483.974 146.14 487.307 146.388C490.427 146.621 502.747 156.465 504.038 159.283C505.5 162.473 504.347 167.457 502.195 170.344C501.142 171.755 501.163 173.968 500.706 175.821C500.163 178.022 500.193 180.623 498.977 182.348C496.15 186.362 492.747 189.974 489.532 193.71C487.418 196.167 485.07 196.477 482.1 194.912C480.938 194.3 479.063 194.734 477.595 195.062C472.651 196.167 467.745 197.439 462.824 198.647L462.165 197.529C462.097 198.746 461.948 199.966 461.975 201.181C462.086 206.149 462.729 207.048 467.558 207.763C482.526 209.981 496.692 215.013 510.725 220.33C516.358 222.401 521.643 225.313 526.403 228.968C528.904 230.94 530.969 233.409 532.467 236.22C533.966 239.03 534.866 242.12 535.11 245.295C535.479 249.447 536.107 253.587 536.244 257.744C536.301 259.468 535.934 261.835 534.806 262.858C530.29 266.958 526.461 272.08 519.731 273.194C517.195 273.614 514.805 275.159 512.45 276.386C510.042 277.669 507.385 278.417 504.661 278.579C501.938 278.74 499.211 278.313 496.668 277.324C491.457 275.479 486.216 273.719 481.243 272.009C481.983 277.548 482.941 283.07 483.32 288.631C483.423 290.141 482.144 292.218 480.865 293.251C478.122 295.469 477.03 297.872 477.824 301.36C478.205 303.035 477.678 304.414 476.224 306.037C473.76 308.787 472.339 312.471 470.48 315.763L471.289 316.661L465.87 315.949C464.141 319.235 462.417 322.511 460.697 325.779C458.78 323.043 455.399 320.991 459.233 317.947C457.791 316.254 456.613 314.901 455.244 317.996C454.073 320.646 449.572 320.753 447.665 318.412C446.905 317.487 445.817 316.891 444.629 316.75C436.787 316.616 428.942 316.702 421.098 316.682C413.665 316.663 406.231 316.653 398.798 316.534C394.988 316.473 391.175 315.989 387.377 316.11C386.688 316.207 386.032 316.464 385.46 316.861C384.888 317.257 384.417 317.782 384.085 318.393C383.135 320.722 382.616 323.203 382.552 325.717C382.6 327.164 382.294 328.601 381.66 329.903C381.027 331.205 380.085 332.332 378.917 333.187C375.522 335.908 373.911 339.429 372.58 343.762C369.94 352.352 365.171 360.053 357.741 365.639C357.367 365.824 356.956 365.925 356.538 365.934C356.121 365.943 355.706 365.86 355.324 365.691C354.131 365.243 353.076 364.489 352.266 363.505C347.577 356.453 340.796 357.01 333.59 357.64C326.753 358.116 319.895 358.192 313.05 357.87C289.218 357.16 265.391 356.286 241.562 355.482C240.431 355.444 239.297 355.477 237.954 355.477C236.628 357.61 236.372 361.8 232.311 360.063C231.12 359.554 230.883 356.812 230.209 355.094C230.517 354.834 230.824 354.575 231.132 354.316C229.537 354.203 227.943 353.996 226.348 353.99C209.598 353.929 192.848 353.826 176.099 353.917C172.192 353.938 169.209 352.708 167.001 349.535C163.914 345.099 160.105 340.989 157.921 336.145C154.935 329.52 153.185 322.336 150.795 315.058C145.635 315.4 140.646 315.828 135.648 316.042C123.802 316.549 111.955 317.154 100.103 317.301C95.556 317.357 91.031 312.404 89.7658 308.038C89.0796 305.671 88.2947 303.431 85.2803 301.974C80.0567 299.449 79.1796 293.632 77.8047 288.508C77.3143 286.681 77.1665 284.763 76.8448 282.889C76.0834 278.452 76.7874 276.923 81.3004 276.583C87.3508 276.127 93.0275 275.01 98.4462 272.129C99.8613 271.377 102.145 272.418 104.017 272.338C114.908 271.868 125.811 271.521 136.681 270.734C154.129 269.469 171.557 267.902 188.991 266.445C195.18 266.029 201.34 265.259 207.441 264.139C200.143 264.139 192.845 264.139 185.547 264.139C179.329 264.139 173.105 264.27 166.896 264.037C165.473 263.983 164.093 262.682 162.704 261.936C162.198 261.665 161.751 261.146 161.228 261.066C156.334 260.32 154.491 257.444 154.455 252.603C154.44 250.582 153 248.572 152.027 246.093C145.882 245.615 143.662 240.334 140.882 234.685C132.483 235.571 123.883 236.507 115.276 237.376C109.399 237.969 103.51 238.438 97.6319 239.019C87.8813 239.982 78.138 241.021 68.3862 241.972C59.879 242.802 51.3673 243.586 42.8513 244.325C38.7317 244.784 34.5881 244.993 30.4433 244.952C28.8138 244.894 27.2509 243.34 25.6309 242.519C24.7278 242.203 23.85 241.819 23.005 241.37C21.2697 240.113 18.9131 239.02 18.145 237.273C16.7832 234.176 16.4144 230.642 15.5962 227.147C5.23921 224.833 4.1748 215.792 1.83576 207.762C0.955251 204.739 0.781071 201.517 0.153088 198.412C-0.394001 195.707 0.503139 193.977 3.20145 193.314C5.5207 192.745 7.86091 192.261 10.1927 191.742C14.5586 190.772 18.9435 189.876 23.2732 188.764C23.6966 188.6 24.0722 188.332 24.3661 187.986C24.66 187.639 24.863 187.225 24.9567 186.78C24.8832 186.31 24.7043 185.862 24.4332 185.471C24.1621 185.08 23.8059 184.755 23.3914 184.521C22.4563 184.046 21.2211 184.163 19.6535 183.144L24.4244 180.623C24.2827 179.722 24.0977 178.546 23.8434 176.93C23.039 177.777 22.4285 178.42 21.5407 179.355L21.1306 177.323C24.7442 176.835 26.3598 171.637 31.1456 173.336C32.3615 173.767 34.3213 171.526 36.0748 171.158C38.5707 170.634 41.2043 170.81 43.7565 170.5C47.3351 170.066 50.9026 169.517 54.4577 168.916C61.5471 167.717 68.6233 166.441 75.7078 165.212C82.3024 164.069 88.9214 163.052 95.4853 161.755C97.6347 161.33 99.612 160.097 101.729 159.428C103.422 158.987 105.137 158.637 106.867 158.378C108.226 154.301 107.46 152.809 103.11 151.017C98.2523 149.017 96.5451 144.374 95.1249 139.993C93.5441 134.791 92.3471 129.48 91.5437 124.103C90.854 119.993 92.0662 118.702 97.2756 117.477C99.9645 116.844 102.818 116.936 105.533 116.383C109.223 115.632 112.852 114.578 116.507 113.654L116.319 112.587C111.063 112.587 105.807 112.587 100.551 112.587C92.8102 112.587 85.0624 112.766 77.3313 112.486C74.794 112.394 71.2462 113.479 70.1864 109.355C70.1 109.019 68.9144 108.919 68.2243 108.792C64.475 108.103 62.6589 105.989 62.3109 102.07C62.0767 99.4324 60.8959 96.8747 60.0788 94.3003C59.9874 94.1388 59.8608 94 59.7084 93.8943C59.5559 93.7885 59.3816 93.7185 59.1983 93.6894C52.3988 92.7822 50.3416 87.1921 48.6554 82.0233C46.7919 76.3109 45.962 70.2356 45.0493 64.2623C44.8813 63.1626 46.2063 61.081 47.2895 60.6893C50.2203 59.6293 53.4204 58.5852 56.4619 58.7183C62.0082 58.9609 66.5023 56.2144 71.3785 54.5511C72.3232 54.2289 72.992 53.0982 73.8848 52.2484C78.2728 54.0755 82.0063 53.5671 84.3094 50.6645C82.8138 48.223 82.6985 46.1114 84.9458 43.8129C86.8374 41.878 87.999 39.2491 89.7708 37.1722C91.534 35.1052 96.6181 36.173 99.2222 39.44V35.7403L119.619 37.5299C121.422 37.136 123.152 36.294 124.729 36.519C127.297 36.8854 129.726 38.1652 132.292 38.6234C133.496 38.8383 134.89 38.0674 136.181 37.6869C137.448 37.3135 138.76 36.3888 139.935 36.5514C142.684 36.9316 145.039 37.599 148.163 36.8435C152.895 35.6992 158.112 36.6235 163.121 36.5337C165.252 36.4955 167.386 35.8671 169.503 35.943C173.82 36.0978 178.128 36.5482 182.513 36.8824C182.513 37.1573 182.782 36.2859 182.471 35.7529C179.242 30.2157 182.19 25.8103 185.024 21.3949C185.188 21.1295 185.405 20.9001 185.66 20.7204C185.915 20.5407 186.203 20.4144 186.509 20.3493C191.539 20.1092 194.528 17.0703 198.024 13.7184C202.37 9.5522 208.906 9.28385 214.83 9.13878C225.231 8.88415 235.656 9.41602 246.044 8.97449C257.759 8.47654 269.456 7.39282 281.14 6.34002C301.141 4.53781 321.095 2.04497 341.128 0.818032C357.816 -0.203984 374.59 0.00713773 391.325 0.0402481C395.93 0.0493896 400.585 1.10706 404.335 4.44438C405.829 5.61139 407.444 6.61396 409.152 7.43472C414.924 10.6509 417.069 15.4621 415.671 21.9029C415.351 23.1827 415.311 24.5163 415.552 25.8132C415.916 27.363 417.124 28.75 417.327 30.2916C417.508 31.6581 416.813 33.1401 416.504 34.5711L417.676 35.4516Z" fill="#FADE4F"/>
<path d="M432.287 93.5917C431.781 93.1346 431.145 92.8461 430.468 92.7661C429.79 92.6861 429.105 92.8185 428.506 93.145C427.907 93.4715 427.424 93.976 427.125 94.5888C426.825 95.2016 426.723 95.8923 426.833 96.5655C426.837 96.5883 426.846 96.606 426.85 96.6282C425.361 96.6904 421.658 95.199 421.348 95.1534C419.904 94.9161 418.423 95.1978 417.167 95.9486C414.385 97.6276 413.092 101.139 412.333 104.116C411.378 107.859 411.311 112.919 407.26 114.703C403.513 116.353 398.887 115.051 394.929 116.056C393.475 116.385 392.112 117.033 390.939 117.952C389.765 118.871 388.81 120.039 388.143 121.372C386.218 125.296 387.874 129.204 386.993 133.153C386.095 137.174 382.95 134.709 380.508 134.18C379.72 134.005 378.907 133.978 378.109 134.1C380.973 126.304 381.563 117.855 379.809 109.737C375.95 91.9371 356.636 68.4548 336.191 78.3458C335.923 78.4626 335.684 78.6355 335.489 78.8529C335.294 79.0702 335.148 79.327 335.061 79.6057C320.975 79.6724 306.932 88.9686 300.066 100.933C296.431 107.268 295.121 114.142 294.766 121.192C294.319 120.846 293.798 120.607 293.244 120.494C292.69 120.381 292.118 120.397 291.571 120.54C290.535 120.897 289.588 121.474 288.796 122.232C288.015 123.012 287.136 123.685 286.179 124.235C284.918 125.486 284.194 125.283 284.008 123.628C282.117 121.088 282.888 115.498 282.842 112.493C282.779 108.458 284.214 98.4965 277.168 99.578C273.988 100.066 272.12 103.338 269.2 104.179C268.454 105.149 267.777 105.143 267.169 104.161C266.912 103.158 266.802 102.122 266.843 101.087C266.808 99.2409 266.976 97.3963 267.346 95.5868C267.563 95.401 267.733 95.1661 267.841 94.9017C267.949 94.6372 267.993 94.3508 267.969 94.066C267.94 93.6517 267.912 93.2372 267.884 92.8229C267.692 90.0315 263.162 89.3287 262.391 92.1612C261.069 97.0187 259.129 106.881 265.073 109.614C267.823 110.878 270.383 109.6 272.702 108.065C273.374 107.621 277.067 104.904 277.228 105.066C277.835 105.675 277.284 111.53 277.304 112.493C277.404 117.31 276.795 127.324 282.507 129.488C285.19 130.505 288.106 128.982 290.247 127.435C290.717 127.139 291.171 126.819 291.608 126.476C291.794 128.437 293.024 131.624 293.438 132.969C293.538 133.299 293.727 133.595 293.984 133.824C294.241 134.053 294.557 134.207 294.896 134.267C295.332 141.677 296.668 149.439 302.182 154.761C307.54 159.932 315.09 161.078 322.332 161.181C321.153 164.434 321.111 167.99 322.212 171.271C322.239 171.874 322.262 172.474 322.259 173.062C322.239 176.789 322.085 180.513 321.737 184.225C320.978 192.012 319.467 199.708 317.226 207.205C317.093 207.719 317.14 208.263 317.361 208.746C317.582 209.23 317.963 209.622 318.439 209.858C321.046 211.31 323.731 212.619 326.482 213.779C321.989 223.813 322.594 236.533 325.82 246.83C326.773 249.871 332.111 248.757 331.227 245.504C328.394 235.071 329.11 225.916 330.9 215.488C334.646 216.819 338.489 217.855 342.396 218.587C346.333 219.321 350.32 219.757 354.323 219.89C354.678 219.902 355.034 219.896 355.389 219.902C353.159 226.582 354 234.494 356.837 240.785C358.079 243.54 363.326 242.6 362.118 239.489C359.451 232.622 359.582 226.867 360.612 219.827C360.659 219.825 360.706 219.825 360.753 219.822C362.56 219.725 365.163 219.049 367.108 219.417C367.111 219.514 367.109 219.612 367.113 219.709C367.218 222.167 371.505 222.857 372.003 220.298C373.317 213.541 373.288 206.378 373.763 199.515C374.291 191.865 374.781 184.212 375.232 176.558C375.652 169.21 376.05 161.86 376.425 154.51C376.622 150.64 376.975 146.686 377.202 142.735C378.011 140.911 378.416 138.742 380.508 138.773C382.63 138.805 384.299 140.117 386.632 139.794C390.988 139.19 391.969 135.775 391.931 131.881C391.904 129.25 391.452 126.137 392.531 123.653C394.205 119.8 398.167 120.072 401.68 120.01C406.12 119.932 410.693 119.543 413.733 115.908C416.499 112.601 416.69 108.268 417.98 104.328C418.464 102.85 418.807 101.144 420.412 100.761C421.693 100.456 422.512 101.338 423.731 101.694C425.651 102.276 427.718 102.121 429.53 101.26C432.019 100.048 435.168 96.0527 432.287 93.5917ZM371.59 151.753C371.113 159.411 370.612 167.066 370.085 174.721C369.58 182.067 369.074 189.414 368.567 196.761C368.163 202.571 367.333 208.568 367.119 214.468C365.26 214.454 363.402 214.554 361.556 214.77C356.863 215.074 352.151 214.931 347.485 214.342C338.881 213.211 330.535 210.614 322.809 206.664C324.75 199.598 326.076 192.376 326.771 185.081C327.151 181.086 327.32 177.074 327.278 173.062C327.236 169.84 327.465 166.546 326.162 163.617C326.134 162.794 326.061 161.974 325.944 161.159C326.268 161.151 326.594 161.145 326.916 161.135C337.087 160.833 347.701 160.375 357.209 156.389C362.975 153.968 368.031 150.119 371.9 145.206C371.81 147.399 371.725 149.588 371.59 151.753ZM374.117 129.806C373.856 129.902 373.625 130.067 373.45 130.283C373.275 130.5 373.161 130.76 373.122 131.036C372.949 132.023 372.81 133.018 372.686 134.017C369.979 140.853 365.085 146.599 358.768 150.359C351.027 154.916 341.766 155.867 332.979 156.357C325.386 156.78 316.56 157.791 309.509 154.305C301.609 150.397 300.2 141.288 299.859 133.359C299.486 124.704 299.273 115.488 302.581 107.324C309.153 91.1031 325.782 83.3249 342.482 83.5498C342.76 83.5682 343.037 83.5104 343.285 83.3828C343.532 83.2551 343.74 83.0624 343.886 82.8253C344.032 82.5882 344.111 82.3158 344.113 82.0374C344.116 81.7589 344.043 81.485 343.901 81.2452C358.161 80.1094 369.864 94.434 373.791 107.369C376.002 114.67 376.115 122.445 374.117 129.806Z" fill="#1D1D1B"/>
<path d="M326.752 114.629C326.752 116.144 326.15 117.597 325.079 118.669C324.008 119.74 322.555 120.342 321.04 120.342C319.524 120.342 318.071 119.74 317 118.669C315.929 117.597 315.327 116.144 315.327 114.629C315.327 111.474 318.29 112.385 321.04 110.837C323.67 109.357 326.752 111.474 326.752 114.629Z" fill="#1D1D1B"/>
<path d="M342.876 119.716C342.876 122.37 345.499 124.294 348.735 124.014C351.972 123.733 354.595 121.353 354.595 118.699C354.595 116.045 351.555 116.026 348.735 114.969C346.037 113.957 342.876 117.062 342.876 119.716Z" fill="#1D1D1B"/>
<path d="M264.554 201.253C263.198 191.687 260.814 182.295 257.443 173.241C255.261 167.586 250.969 160.594 244.416 160.195C244.317 159.621 244.207 159.049 244.086 158.478C240.223 140.34 220.645 116.357 199.79 126.352C199.517 126.47 199.273 126.645 199.073 126.865C198.874 127.086 198.724 127.347 198.634 127.63C184.291 127.646 169.957 137.059 162.922 149.216C157.543 158.51 157.093 168.964 157.384 179.455C157.623 188.015 158.359 197.699 164.875 204.034C169.493 208.523 175.734 210.057 182.029 210.499C180.794 211.986 179.666 213.554 178.566 215.181C177.67 216.506 176.189 219.765 174.704 221.504C171.519 219.153 168.622 215.376 166.018 212.709C162.812 209.424 159.679 206.068 156.622 202.642C154.203 199.934 151.968 196.795 148.344 195.669C145.997 195.033 143.535 194.942 141.147 195.401C140.762 195.196 140.332 195.091 139.896 195.095C139.46 195.098 139.031 195.211 138.65 195.423C138.222 195.694 137.795 195.964 137.367 196.235C134.518 198.04 136.537 201.682 139.635 201.022C143.957 200.102 147.094 200.361 150.208 203.74C152.153 205.85 154.039 208.013 156 210.109C160.509 214.926 165.162 219.623 169.992 224.119C172.608 226.553 175.317 228.493 178.156 225.302C180.113 223.102 181.547 220.044 183.119 217.549C183.576 216.825 184.018 216.105 184.446 215.382C184.311 217.261 184.571 219.147 185.208 220.919C185.234 221.533 185.255 222.144 185.249 222.743C185.215 226.538 185.044 230.33 184.676 234.108C183.874 242.034 182.307 249.865 179.997 257.489C179.859 258.013 179.906 258.567 180.129 259.06C180.352 259.553 180.738 259.954 181.222 260.195C182.542 260.938 183.886 261.631 185.24 262.3C181.244 267.168 181.194 276.624 181.166 282.595C181.15 286.263 180.072 295.272 184.57 296.773C186.354 297.369 188.477 295.676 187.918 293.794L187.865 293.615C187.785 293.349 187.65 293.104 187.471 292.893C186.733 291.25 187.024 287.742 186.947 286.07C186.813 283.175 186.849 280.275 187.055 277.385C187.371 272.995 189.065 268.345 188.753 263.934C194.149 266.307 199.794 268.064 205.583 269.173C209.589 269.936 213.647 270.395 217.723 270.545C218.625 270.578 219.528 270.584 220.43 270.585C216.225 274.182 215.842 282.308 215.567 287.338C215.393 291.909 215.551 296.485 216.041 301.033C216.23 303.105 216.019 305.744 217.062 307.657C217.148 307.958 217.296 308.237 217.497 308.477C217.697 308.717 217.946 308.913 218.226 309.051L218.455 309.146C219.591 309.616 221.394 309.598 222.056 308.306C222.976 306.511 222.306 304.685 222.087 302.742C221.736 299.615 221.504 296.458 221.404 293.314C221.282 290.193 221.377 287.068 221.69 283.961C221.91 281.917 222.458 274.272 225.127 273.614C225.455 273.555 225.76 273.405 226.008 273.183C226.256 272.961 226.438 272.674 226.532 272.355C226.627 272.035 226.631 271.696 226.545 271.374C226.458 271.053 226.284 270.761 226.041 270.533C225.975 270.468 225.909 270.403 225.843 270.338C227.456 270.02 229.107 269.943 230.742 270.111C230.746 270.21 230.743 270.31 230.747 270.409C230.845 272.911 235.207 273.631 235.724 271.027C237.087 264.151 237.085 256.858 237.594 249.871C238.161 242.083 238.688 234.293 239.175 226.501C239.631 219.02 240.063 211.538 240.473 204.055C240.594 201.83 240.767 199.577 240.938 197.314C245.935 201.79 251.315 206.115 257.15 209.126C259.279 210.224 262.14 211.947 264.258 209.935C266.434 207.869 264.94 203.785 264.554 201.253ZM235.56 201.23C235.046 209.025 234.506 216.819 233.942 224.611C233.4 232.09 232.857 239.569 232.314 247.047C231.88 252.962 231.013 259.066 230.772 265.072C228.88 265.05 226.988 265.146 225.107 265.358C220.327 265.651 215.53 265.488 210.781 264.871C202.025 263.686 193.536 261.011 185.684 256.96C187.687 249.772 189.063 242.424 189.798 234.998C190.201 230.932 190.388 226.848 190.36 222.762C190.33 219.481 190.574 216.127 189.259 213.141C189.233 212.303 189.162 211.467 189.046 210.636C189.376 210.63 189.708 210.625 190.036 210.616C200.393 210.346 211.203 209.92 220.899 205.897C226.78 203.453 231.942 199.553 235.9 194.565C235.8 196.798 235.705 199.026 235.56 201.23ZM238.215 178.892C237.949 178.989 237.713 179.156 237.534 179.376C237.355 179.596 237.238 179.86 237.197 180.14C237.018 181.145 236.872 182.158 236.742 183.175C233.961 190.125 228.956 195.958 222.509 199.763C214.61 204.374 205.177 205.308 196.228 205.773C188.494 206.175 179.503 207.173 172.338 203.596C164.308 199.588 162.907 190.307 162.589 182.232C162.242 173.418 162.06 164.033 165.458 155.733C172.211 139.24 189.172 131.383 206.176 131.674C206.459 131.694 206.742 131.636 206.994 131.507C207.246 131.378 207.459 131.183 207.609 130.942C207.758 130.701 207.839 130.424 207.843 130.14C207.847 129.857 207.773 129.578 207.63 129.333C222.154 128.23 234.017 142.859 237.968 156.045C240.191 163.487 240.277 171.404 238.215 178.892ZM250.802 198.46C247.623 195.946 244.569 193.275 241.378 190.777C241.479 188.873 241.549 186.972 241.547 185.083C244.093 179.062 245.278 172.553 245.017 166.022C247.307 167.291 249.182 169.193 250.419 171.5C252.402 175.24 253.567 179.637 254.739 183.686C255.884 187.642 256.866 191.641 257.686 195.684C258.036 197.414 258.355 199.15 258.643 200.892C258.841 202.086 259.007 203.285 259.169 204.484C256.108 202.878 253.127 200.298 250.802 198.46Z" fill="#1D1D1B"/>
<path d="M206.374 159.439C206.374 160.982 205.761 162.461 204.671 163.552C203.58 164.643 202.1 165.256 200.557 165.256C199.015 165.256 197.535 164.643 196.444 163.552C195.353 162.461 194.74 160.982 194.74 159.439C194.74 156.226 197.758 157.154 200.557 155.578C203.236 154.07 206.374 156.226 206.374 159.439Z" fill="#1D1D1B"/>
<path d="M231.369 159.439C231.369 160.982 230.756 162.461 229.665 163.552C228.574 164.643 227.095 165.256 225.552 165.256C224.009 165.256 222.53 164.643 221.439 163.552C220.348 162.461 219.735 160.982 219.735 159.439C219.735 156.226 222.752 157.154 225.552 155.578C228.231 154.07 231.369 156.226 231.369 159.439Z" fill="#1D1D1B"/>
</svg>
