<svg width="299" height="180" viewBox="0 0 299 180" fill="none" xmlns="http://www.w3.org/2000/svg">
<g clip-path="url(#clip0_641_5442)">
<path d="M310.626 229.99C309.901 232.411 309.421 234.698 308.535 236.816C307.093 240.267 307.38 243.841 307.343 247.409C307.339 247.724 307.496 248.039 307.504 248.356C307.54 249.79 303.31 256.079 301.885 256.522C299.351 257.309 297.278 258.421 296.121 261.101C295.712 262.049 294.141 262.8 292.972 263.061C288.558 264.043 284.111 264.597 279.764 262.586C278.388 261.95 276.926 261.5 275.161 260.836C275.209 263.258 275.17 265.326 272.682 266.188C270.749 266.859 268.896 267.761 267.006 268.556C266.934 268.586 266.841 268.566 266.77 268.598C260.926 271.188 255.722 268.737 250.359 266.715C189.957 243.948 129.54 221.223 69.106 198.539C67.8286 198.091 66.5234 197.725 65.1986 197.444C62.3888 196.788 60.3086 193.967 60.0107 190.859C59.8796 189.491 59.6428 188.157 58.1766 187.006C56.8475 185.962 56.0181 183.831 55.7058 182.049C55.2397 179.391 55.3075 176.616 55.4068 173.899C55.4316 173.221 56.3264 172.339 57.0374 171.986C57.7651 171.624 58.7883 171.62 59.6294 171.765C62.766 172.307 65.7593 171.808 68.8137 171.077C69.9924 170.794 71.4045 171.488 72.7967 171.54C71.052 170.884 69.3336 170.142 67.5557 169.594C65.5612 168.979 64.8066 167.475 63.9594 165.729C61.5251 160.711 62.2493 155.439 62.1806 150.186C62.1366 146.817 62.2043 143.602 64.4394 140.841C64.6889 140.533 64.8702 140.113 65.1893 139.929C66.0573 139.428 67.0682 139.141 67.8606 138.552C68.6655 137.953 69.2772 137.094 70.0398 136.278C64.6053 133.818 59.1608 131.477 53.8523 128.86C52.5713 128.229 51.4844 126.83 50.7467 125.535C47.7137 120.208 48.7972 114.335 48.6974 108.606C48.6456 105.636 48.4672 102.331 50.8747 100.548C53.7983 98.3821 56.2897 94.4382 61.079 96.2706C62.2336 96.7123 63.6087 96.658 64.8836 96.6676C65.4281 96.6717 66.178 96.4094 66.4884 96.0034C68.1954 93.7713 70.6633 93.1046 73.1432 93.2834C78.447 93.666 83.7566 94.2299 89.0031 95.0894C100.466 96.9674 111.89 99.0771 123.333 101.078C123.445 101.098 123.591 100.925 123.932 100.708C119.685 98.3409 115.526 96.062 111.405 93.7165C102.964 88.9132 94.5621 84.0434 86.1071 79.2667C83.1694 77.6071 80.0371 76.2805 77.164 74.5234C75.8568 73.6665 74.7918 72.4879 74.0712 71.1006C70.5761 64.4802 71.9998 57.3133 72.2132 50.3411C72.2919 47.7699 72.9165 44.7851 76.6369 44.593C76.8536 44.5818 77.0631 44.1712 77.2524 43.9281C79.61 40.9012 80.0732 40.8747 83.7789 41.9168C85.4375 42.3678 87.1739 42.4553 88.8696 42.1733C89.4926 42.0673 90.1493 40.5018 90.2616 39.5398C90.3627 38.6742 89.6058 37.7447 89.4623 36.8073C89.0931 34.3971 88.6819 31.9723 88.605 29.5433C88.4985 26.1824 88.3966 22.7742 88.8371 19.4586C89.1642 16.9968 89.6649 14.0864 93.2841 13.9935C93.5261 13.9872 93.7941 13.444 93.9814 13.1118C95.0488 11.2182 96.637 10.4113 98.7911 10.7564C101.042 11.1169 103.291 11.4847 105.643 11.8657C107.8 7.97462 111.612 7.5243 115.28 8.01226C120.49 8.70537 125.791 9.58543 130.724 11.3202C144.388 16.1246 157.88 21.413 171.44 26.5101C171.962 26.7061 172.483 26.9022 173.348 27.2274C173.393 25.2037 173.431 23.4251 173.473 21.6466C173.505 20.3375 174.044 19.5068 175.48 19.4859C176.194 19.4755 176.907 19.3881 177.621 19.3799C179.813 19.3549 182.151 19.8377 184.168 19.2362C188.151 18.0483 191.527 19.6032 194.957 20.8897C241.078 38.1874 287.179 55.5364 333.261 72.9366C334.871 73.545 336.167 74.9969 337.587 76.0847C338.09 76.4697 338.469 77.0355 339.002 77.359C343.322 79.9841 344.833 83.1702 343.786 88.1635C343.324 90.3662 343.8 91.5051 346.077 92.2476C350.204 93.5929 354.257 95.192 358.264 96.8673C361.767 98.3316 362.214 99.2081 361.866 102.988C361.749 104.255 361.552 105.6 361.013 106.729C359.049 110.842 359.038 115.165 359.314 119.548C359.324 119.709 359.398 119.924 359.323 120.023C357.261 122.731 357.189 126.932 353.406 128.309C351.064 129.162 349.339 130.342 347.908 132.546C347.015 133.92 344.797 134.751 343.019 135.169C338.932 136.13 334.826 135.925 330.646 135.043C324.478 133.742 318.188 133.029 311.983 131.887C305.456 130.686 298.968 129.275 292.898 128.044C291.756 131.912 290.363 135.713 289.573 139.634C289.064 142.164 289.434 144.872 289.422 147.5C289.421 147.819 289.653 148.276 289.512 148.436C287.322 150.935 287.428 155.159 283.598 156.404C281.24 157.169 279.513 158.393 278.172 160.697C277.413 162 275.168 162.902 273.487 163.106C269.819 163.551 266.083 163.434 263.09 163.525C271.315 166.618 280.324 169.997 289.327 173.394C303.482 178.734 317.668 183.994 331.76 189.495C335.474 190.945 338.903 193.129 342.438 195.024C344.003 195.863 344.816 197.216 344.456 199.02C344.019 201.211 343.699 203.471 342.9 205.535C341.553 209.017 341.772 212.579 341.717 216.163C341.703 217.119 341.349 218.11 340.969 219.008C340.666 219.727 339.84 220.273 339.674 220.994C339.001 223.922 336.86 224.998 334.318 225.939C333.089 226.394 331.744 227.449 331.181 228.592C330.149 230.685 328.487 231.468 326.476 231.89C321.74 232.884 317.063 233.055 312.588 230.741C311.951 230.449 311.296 230.198 310.626 229.99Z" fill="#FFDE17" fill-opacity="0.6"/>
<path d="M175.662 134.57C174.939 131.632 174.3 128.675 173.745 125.699C173.18 122.672 172.699 119.631 172.304 116.575C172.073 114.807 172.163 112.636 171.651 110.811C171.73 109.493 171.786 108.175 171.78 106.868C173.649 102.412 174.102 97.4907 173.077 92.7696C170.989 83.1682 160.538 70.5015 149.475 75.8368C149.331 75.8998 149.201 75.9931 149.095 76.1103C148.99 76.2276 148.911 76.3661 148.864 76.5164C141.242 76.5524 133.643 81.5668 129.928 88.0208C127.088 92.9547 126.869 98.4938 127.045 104.051C127.188 108.585 127.599 113.713 131.073 117.056C132.355 118.261 133.902 119.149 135.59 119.648C134.674 120.572 134.451 121.719 134.149 123.068C133.703 124.931 133.102 126.753 132.352 128.516C130.775 132.404 129.232 136.306 127.678 140.203C127.072 141.722 129.758 142.301 130.332 140.852C131.763 137.243 133.208 133.638 134.618 130.021C135.888 126.76 136.649 123.49 137.541 120.129C139.006 120.382 140.49 120.513 141.976 120.519C141.338 122.274 141.316 124.192 141.911 125.962C141.926 126.287 141.938 126.611 141.937 126.928C141.926 128.938 141.842 130.947 141.655 132.95C141.244 137.15 140.426 141.301 139.213 145.345C139.141 145.622 139.167 145.916 139.287 146.177C139.406 146.437 139.612 146.649 139.87 146.776C140.634 147.202 141.414 147.596 142.2 147.976C140.99 150.629 140.855 153.749 140.501 156.617C140.067 160.136 139.655 163.686 139.512 167.23C139.447 168.824 142.093 168.783 142.241 167.23C142.546 164.014 142.745 160.792 143.102 157.58C143.418 154.74 144.216 151.67 143.995 148.792C146.831 150.013 149.796 150.916 152.833 151.485C154.721 151.833 156.63 152.055 158.548 152.15C158.262 152.991 158.049 153.856 157.914 154.734C157.156 158.872 156.746 163.276 157.227 167.469C157.404 169.01 159.971 169.092 159.968 167.469C159.964 164.846 159.86 162.255 160.075 159.635C160.183 158.311 160.34 156.992 160.546 155.679C160.664 154.917 160.695 153.145 161.06 152.225C161.071 152.218 161.081 152.211 161.092 152.205C161.65 152.198 162.208 152.18 162.766 152.151C163.743 152.099 165.152 151.734 166.204 151.933C166.206 151.985 166.205 152.038 166.207 152.09C166.264 153.416 168.583 153.788 168.853 152.408C169.564 148.763 169.549 144.899 169.805 141.197C170.091 137.071 170.356 132.943 170.6 128.814C170.682 127.393 170.753 125.971 170.831 124.55C170.906 124.988 170.98 125.427 171.059 125.866C171.564 128.687 172.145 131.494 172.802 134.286C173.457 137.071 173.898 140.3 175.345 142.785C175.84 143.635 177.508 143.332 177.473 142.274C177.386 139.693 176.279 137.076 175.662 134.57ZM168.63 115.434C168.372 119.564 168.1 123.694 167.815 127.823C167.542 131.786 167.268 135.749 166.994 139.711C166.775 142.846 166.326 146.081 166.21 149.263C165.204 149.255 164.199 149.31 163.2 149.426C160.661 149.59 158.111 149.513 155.586 149.195C150.931 148.585 146.415 147.184 142.234 145.054C143.285 141.242 144.002 137.346 144.378 133.411C144.584 131.256 144.676 129.092 144.652 126.928C144.63 125.19 144.754 123.413 144.049 121.834C144.033 121.39 143.994 120.947 143.93 120.507C144.106 120.503 144.283 120.5 144.456 120.495C149.96 120.331 155.703 120.084 160.848 117.934C163.968 116.628 166.704 114.553 168.797 111.902C168.749 113.085 168.702 114.266 168.63 115.434ZM169.997 103.595C169.855 103.647 169.731 103.736 169.636 103.853C169.541 103.969 169.48 104.11 169.458 104.258C169.365 104.791 169.29 105.328 169.222 105.867C167.758 109.554 165.11 112.654 161.691 114.682C157.503 117.14 152.492 117.653 147.737 117.917C143.629 118.145 138.853 118.691 135.038 116.81C130.763 114.702 130.001 109.789 129.816 105.512C129.614 100.843 129.499 95.872 131.289 91.4682C134.845 82.7183 143.843 78.5227 152.879 78.6439C153.03 78.6538 153.18 78.6227 153.314 78.5538C153.447 78.485 153.56 78.381 153.639 78.2531C153.718 78.1253 153.761 77.9783 153.762 77.8281C153.764 77.6779 153.724 77.5302 153.647 77.4008C161.363 76.7882 167.696 84.515 169.821 91.4926C171.017 95.4304 171.078 99.6243 169.997 103.595Z" fill="#7100D2"/>
<path d="M142.357 107.423C142.357 108.241 142.031 109.024 141.451 109.602C140.872 110.18 140.085 110.505 139.266 110.505C138.446 110.505 137.66 110.18 137.08 109.602C136.5 109.024 136.175 108.241 136.175 107.423C136.175 105.721 137.778 106.213 139.266 105.378C140.689 104.579 142.357 105.721 142.357 107.423Z" fill="#7100D2"/>
<path d="M151.081 107.682C151.081 109.114 152.501 110.152 154.252 110.001C156.003 109.849 157.423 108.566 157.423 107.134C157.423 105.702 155.778 106.258 154.252 105.687C152.792 105.142 151.081 106.251 151.081 107.682Z" fill="#7100D2"/>
<path d="M175.662 134.999C174.939 132.061 174.3 129.104 173.745 126.128C173.18 123.101 172.699 120.06 172.304 117.004C172.073 115.235 172.163 113.065 171.651 111.24C171.73 109.922 171.786 108.604 171.78 107.297C173.649 102.84 174.102 97.9193 173.077 93.1981C170.989 83.5967 160.538 70.93 149.475 76.2654C149.331 76.3283 149.201 76.4216 149.095 76.5389C148.99 76.6561 148.911 76.7946 148.864 76.945C141.242 76.9809 133.643 81.9954 129.928 88.4493C127.088 93.3832 126.869 98.9223 127.045 104.479C127.188 109.014 127.599 114.142 131.073 117.485C132.355 118.69 133.902 119.577 135.59 120.077C134.674 121 134.451 122.147 134.149 123.497C133.703 125.359 133.102 127.182 132.352 128.945C130.775 132.833 129.232 136.734 127.678 140.631C127.072 142.151 129.758 142.729 130.332 141.281C131.763 137.671 133.208 134.067 134.618 130.449C135.888 127.189 136.649 123.919 137.541 120.557C139.006 120.811 140.49 120.941 141.976 120.948C141.338 122.702 141.316 124.621 141.911 126.39C141.926 126.716 141.938 127.039 141.937 127.357C141.926 129.367 141.842 131.376 141.655 133.378C141.244 137.579 140.426 141.73 139.213 145.774C139.141 146.051 139.167 146.345 139.287 146.605C139.406 146.866 139.612 147.078 139.87 147.205C140.634 147.63 141.414 148.025 142.2 148.404C140.99 151.058 140.855 154.177 140.501 157.046C140.067 160.565 139.655 164.115 139.512 167.658C139.447 169.253 142.093 169.212 142.241 167.658C142.546 164.443 142.745 161.22 143.102 158.008C143.418 155.169 144.216 152.098 143.995 149.221C146.831 150.442 149.796 151.345 152.833 151.913C154.721 152.261 156.63 152.483 158.548 152.578C158.262 153.42 158.049 154.284 157.914 155.162C157.156 159.301 156.746 163.705 157.227 167.897C157.404 169.439 159.971 169.52 159.968 167.897C159.964 165.275 159.86 162.684 160.075 160.063C160.183 158.739 160.34 157.421 160.546 156.108C160.664 155.346 160.695 153.574 161.06 152.653C161.071 152.647 161.081 152.64 161.092 152.633C161.65 152.627 162.208 152.609 162.766 152.58C163.743 152.527 165.152 152.163 166.204 152.361C166.206 152.414 166.205 152.466 166.207 152.519C166.264 153.844 168.583 154.217 168.853 152.836C169.564 149.192 169.549 145.328 169.805 141.626C170.091 137.499 170.356 133.371 170.6 129.242C170.682 127.821 170.753 126.399 170.831 124.978C170.906 125.417 170.98 125.856 171.059 126.294C171.564 129.116 172.145 131.923 172.802 134.715C173.457 137.499 173.898 140.729 175.345 143.214C175.84 144.064 177.508 143.76 177.473 142.702C177.386 140.121 176.279 137.504 175.662 134.999ZM168.63 115.862C168.372 119.993 168.1 124.122 167.815 128.251C167.542 132.214 167.268 136.177 166.994 140.14C166.775 143.274 166.326 146.509 166.21 149.692C165.204 149.684 164.199 149.738 163.2 149.854C160.661 150.019 158.111 149.941 155.586 149.624C150.931 149.013 146.415 147.613 142.234 145.482C143.285 141.67 144.002 137.775 144.378 133.84C144.584 131.685 144.676 129.521 144.652 127.357C144.63 125.619 144.754 123.842 144.049 122.262C144.033 121.818 143.994 121.375 143.93 120.936C144.106 120.932 144.283 120.928 144.456 120.923C149.96 120.76 155.703 120.513 160.848 118.363C163.968 117.057 166.704 114.981 168.797 112.331C168.749 113.514 168.702 114.694 168.63 115.862ZM169.997 104.024C169.855 104.075 169.731 104.164 169.636 104.281C169.541 104.398 169.48 104.538 169.458 104.687C169.365 105.219 169.29 105.756 169.222 106.295C167.758 109.982 165.11 113.082 161.691 115.11C157.503 117.568 152.492 118.082 147.737 118.346C143.629 118.574 138.853 119.119 135.038 117.239C130.763 115.131 130.001 110.217 129.816 105.94C129.614 101.271 129.499 96.3005 131.289 91.8967C134.845 83.1468 143.843 78.9512 152.879 79.0724C153.03 79.0824 153.18 79.0512 153.314 78.9824C153.447 78.9135 153.56 78.8096 153.639 78.6817C153.718 78.5538 153.761 78.4068 153.762 78.2567C153.764 78.1065 153.724 77.9587 153.647 77.8293C161.363 77.2167 167.696 84.9436 169.821 91.9211C171.017 95.8589 171.078 100.053 169.997 104.024Z" fill="#7100D2"/>
<path d="M142.357 107.852C142.357 108.669 142.031 109.453 141.451 110.031C140.872 110.609 140.085 110.933 139.266 110.933C138.446 110.933 137.66 110.609 137.08 110.031C136.5 109.453 136.175 108.669 136.175 107.852C136.175 106.15 137.778 106.641 139.266 105.806C140.689 105.008 142.357 106.15 142.357 107.852Z" fill="#7100D2"/>
<path d="M151.081 108.111C151.081 109.543 152.501 110.581 154.252 110.429C156.003 110.278 157.423 108.994 157.423 107.562C157.423 106.131 155.778 106.686 154.252 106.116C152.792 105.57 151.081 106.679 151.081 108.111Z" fill="#7100D2"/>
<path d="M139.333 109.393C138.5 110.322 137.5 112.604 140.167 114.295C143.502 116.408 139.847 117.836 141.34 119.182" stroke="#7100D2" stroke-width="3"/>
<path d="M154.153 108.5C153.179 109.201 151.768 111.206 153.921 113.618C156.613 116.634 152.887 117.064 154.009 118.814" stroke="#7100D2" stroke-width="3"/>
<path d="M258.766 106.333C250.641 104.677 247.419 112.73 246.004 119.697C245.455 118.697 244.91 117.696 244.386 116.682C243.392 114.595 242.556 112.438 241.884 110.228C241.899 109.659 241.909 109.09 241.906 108.524C244.089 103.346 244.618 97.6288 243.421 92.1436C240.982 80.9881 228.777 66.2713 215.857 72.4702C215.688 72.5433 215.537 72.6517 215.414 72.7879C215.29 72.9242 215.198 73.0851 215.143 73.2598C206.242 73.3016 197.367 79.1277 193.029 86.6261C189.712 92.3587 189.456 98.7942 189.661 105.25C189.758 108.291 189.963 111.56 190.896 114.529C189.454 115.59 188.187 116.866 187.138 118.31C184.996 115.797 181.58 114.509 178.939 112.438C177.41 111.239 175.885 110.079 173.82 110.338C172.185 110.543 170.645 111.558 170.756 113.311C170.793 113.588 170.906 113.849 171.082 114.067C171.259 114.284 171.491 114.45 171.755 114.547C172.019 114.643 172.305 114.667 172.581 114.615C172.857 114.562 173.114 114.437 173.324 114.25C174.965 112.716 178.249 116.073 179.816 116.974C181.93 118.189 184.456 119.214 185.39 121.634C185.513 121.921 185.71 122.171 185.962 122.358C186.214 122.544 186.511 122.662 186.823 122.698C187.135 122.734 187.452 122.687 187.74 122.563C188.028 122.438 188.278 122.24 188.464 121.989C189.532 120.379 190.795 118.905 192.226 117.6C192.802 118.617 193.523 119.547 194.366 120.361C197.752 123.602 202.523 124.32 207.099 124.385C206.354 126.423 206.328 128.652 207.023 130.708C207.041 131.086 207.055 131.462 207.053 131.831C207.041 134.167 206.943 136.501 206.724 138.827C206.244 143.707 205.289 148.53 203.873 153.229C203.788 153.551 203.819 153.892 203.958 154.195C204.098 154.498 204.338 154.744 204.639 154.891C206.037 155.665 207.47 156.365 208.927 157.005C208.88 157.051 208.838 157.102 208.803 157.158C207.617 159.239 208.03 161.752 208.02 164.089C208.007 166.953 207.879 169.843 208.062 172.701C208.184 174.606 211.251 174.61 211.373 172.701C211.556 169.843 211.429 166.953 211.416 164.089C211.406 162.003 211.731 159.778 210.958 157.844C213.811 158.958 216.765 159.801 219.778 160.362C222.266 160.822 224.786 161.095 227.315 161.179C227.55 161.187 227.784 161.183 228.019 161.187C227.732 162.072 227.521 162.98 227.39 163.9C226.684 167.826 226.605 171.838 227.156 175.788C227.437 177.694 230.791 177.78 230.59 175.788C230.292 173.24 230.186 170.675 230.271 168.112C230.327 166.949 230.387 161.905 231.279 161.139C231.313 161.138 231.346 161.138 231.379 161.136C232.521 161.076 234.166 160.652 235.394 160.882C235.397 160.943 235.395 161.005 235.398 161.065C235.464 162.606 238.173 163.038 238.488 161.434C239.318 157.2 239.3 152.711 239.6 148.409C239.934 143.615 240.244 138.819 240.528 134.022C240.794 129.416 241.045 124.81 241.282 120.204C241.321 119.44 241.372 118.671 241.425 117.899C242.688 120.456 244.042 122.969 245.447 125.45C246.265 126.895 248.438 126.114 248.633 124.689C249.244 120.25 250.883 107.886 257.806 109.404C259.965 109.944 261.047 106.798 258.766 106.333ZM238.227 118.476C237.926 123.275 237.609 128.073 237.276 132.87C236.957 137.475 236.637 142.079 236.317 146.683C236.061 150.325 235.537 154.083 235.401 157.781C234.227 157.772 233.053 157.835 231.886 157.97C228.92 158.161 225.943 158.071 222.994 157.702C217.557 156.993 212.283 155.365 207.401 152.89C208.627 148.461 209.465 143.935 209.904 139.363C210.145 136.86 210.252 134.345 210.225 131.831C210.198 129.811 210.343 127.747 209.52 125.912C209.502 125.396 209.456 124.881 209.382 124.371C209.587 124.366 209.793 124.362 209.996 124.356C216.423 124.166 223.131 123.879 229.139 121.381C232.783 119.864 235.978 117.452 238.423 114.373C238.366 115.747 238.312 117.119 238.227 118.476ZM239.824 104.721C239.659 104.781 239.513 104.885 239.402 105.021C239.292 105.156 239.22 105.319 239.195 105.492C239.086 106.111 238.998 106.734 238.919 107.361C237.209 111.644 234.116 115.246 230.124 117.602C225.232 120.458 219.38 121.055 213.828 121.361C209.029 121.626 203.452 122.26 198.996 120.075C197.004 119.087 195.429 117.43 194.55 115.4C194.703 115.084 194.773 114.735 194.756 114.385C194.746 114.235 194.687 114.092 194.589 113.978C194.49 113.864 194.357 113.784 194.209 113.751C194.106 113.721 194.001 113.696 193.895 113.677C193.28 111.485 192.945 109.224 192.898 106.948C192.662 101.524 192.528 95.7481 194.618 90.6315C198.771 80.4654 209.28 75.5907 219.833 75.7316C220.008 75.7431 220.184 75.7069 220.34 75.6269C220.496 75.5469 220.628 75.4261 220.72 75.2776C220.812 75.129 220.862 74.9582 220.864 74.7837C220.865 74.6092 220.819 74.4376 220.73 74.2873C229.741 73.5754 237.136 82.553 239.618 90.6598C241.015 95.2351 241.087 100.108 239.824 104.721Z" fill="#7100D2"/>
<path d="M222.536 100.463C222.534 101.411 222.158 102.319 221.488 102.989C220.818 103.659 219.911 104.036 218.964 104.036C218.018 104.036 217.11 103.659 216.44 102.989C215.771 102.319 215.394 101.411 215.393 100.463C215.393 98.4866 217.245 99.057 218.964 98.0877C220.609 97.1603 222.536 98.4866 222.536 100.463Z" fill="#7100D2"/>
<path d="M203.786 93.3177C203.786 94.2659 203.409 95.1753 202.74 95.8457C202.07 96.5162 201.161 96.8929 200.214 96.8929C199.267 96.8929 198.359 96.5162 197.689 95.8457C197.019 95.1753 196.643 94.2659 196.643 93.3177C196.643 91.3432 198.495 91.9132 200.214 90.9446C201.859 90.0179 203.786 91.3432 203.786 93.3177Z" fill="#7100D2"/>
</g>
<defs>
<clipPath id="clip0_641_5442">
<rect width="299" height="215" fill="white"/>
</clipPath>
</defs>
</svg>
