<svg width="2445" height="324" viewBox="0 0 2445 324" fill="none" xmlns="http://www.w3.org/2000/svg">
<g clip-path="url(#clip0_318_1275)">
<path fill-rule="evenodd" clip-rule="evenodd" d="M258.134 157.849C258.137 157.885 258.139 157.922 258.142 157.958C240.956 154.049 223.735 150.125 204.482 145.738C210.089 158.733 224.998 162.745 239.253 166.581C243.277 167.664 247.25 168.733 250.946 169.986C255.102 171.395 261.292 170.035 268.252 168.506C271.67 167.755 275.275 166.963 278.915 166.438C269.666 162.614 263.844 160.208 258.134 157.849ZM279.723 161.273C273.391 157.094 266.803 154.504 258.097 157.423C257.294 149.383 250.976 144.339 241.347 139.301C235.588 136.288 231.661 131.665 227.73 127.037C225.944 124.934 224.156 122.829 222.195 120.874C220.118 118.113 217.39 115.601 214.117 113.439C210.503 111.661 206.035 110.945 201.548 110.226C194.229 109.054 186.857 107.872 183.046 102.06C182.576 101.342 177.48 101.004 177.186 101.4C173.173 106.8 167.529 106.17 161.115 105.455C159.857 105.315 158.57 105.172 157.26 105.069C148.745 104.407 137.8 104.114 131.468 107.113C113.659 115.548 96.725 124.836 79.7965 134.122C74.9138 136.8 70.0315 139.478 65.1289 142.135C63.72 143.295 62.744 144.668 62.2836 146.139C61.8441 146.933 61.5459 147.84 61.2494 148.741C60.6678 150.51 60.0931 152.258 58.4729 153.089C55.5466 154.591 52.0803 155.8 48.6491 156.997C43.0594 158.947 37.5626 160.864 34.6437 163.962C32.7609 165.96 30.3088 167.867 27.8258 169.798C21.4922 174.722 14.9576 179.803 17.1584 186.959L1.12537 186.932L1.08875 208.565C-1.48628 209.31 -4.08092 210.026 -6.67134 210.74C-9.20454 211.439 -11.7337 212.136 -14.2366 212.859C-8.5462 222.012 -19.4891 239.114 -33.1725 246.27L-21.4426 257.856L-35.4801 261.089C-23.1903 266.521 -11.0901 271.869 0.972537 277.201L0.897897 321.287C-1.1828 322.216 -3.04989 323.372 -4.62051 324.722C-14.6383 333.533 -23.6422 342.894 -32.5586 352.253C-35.4708 355.402 -37.6101 358.852 -38.8931 362.467C-40.0564 365.639 -40.9149 368.871 -41.7728 372.101C-43.0153 376.78 -44.2563 381.453 -46.4198 385.925C-63.3943 421.015 -70.3373 456.274 -53.5118 492.415C-46.4053 507.68 -38.507 512.611 -14.7792 513.425C-9.66329 513.601 -4.54624 513.767 0.571733 513.924L0.0664036 812.379C-1.31361 814.671 -1.73443 817.212 -0.0560757 820.371C0.0097804 820.907 -0.108344 821.447 -0.401229 821.947C-0.694122 822.448 -1.15377 822.895 -1.74419 823.254C-21.8296 834.835 -18.6875 849.035 -15.5942 863.015C-14.5247 867.848 -13.4611 872.655 -13.3652 877.319C-13.2732 881.79 -9.47742 886.137 -5.62281 890.551C-3.61986 892.844 -1.60103 895.156 -0.0777396 897.513L-0.187816 962.527C-2.46354 962.656 -4.73826 962.792 -7.01184 962.937C-13.6551 963.945 -19.5187 966.574 -23.4896 970.326C-31.9368 978.098 -39.7303 986.187 -46.8334 994.557C-50.6335 998.625 -53.6128 1003.02 -55.6918 1007.63C-57.6006 1012.29 -59.0467 1017.04 -60.4931 1021.79C-61.6783 1025.68 -62.8639 1029.57 -64.3044 1033.41C-76.4887 1065.94 -84.1284 1098.64 -69.0695 1131.68C-58.4059 1155.07 -53.6294 1157.14 -17.3316 1157.63C-11.7273 1157.71 -6.12294 1157.78 -0.518524 1157.85L-1.52439 1751.93L2441.47 1756.07L2442.32 1257.37C2444.43 1257.36 2446.55 1257.35 2448.66 1257.34C2462.01 1257.27 2468.17 1253.29 2473.68 1245.87C2482.13 1234.48 2491.19 1223.3 2500.39 1211.95C2504.18 1207.28 2508 1202.57 2511.8 1197.81C2511.92 1197.84 2512.15 1197.89 2512.47 1197.96C2513.81 1198.26 2516.69 1198.9 2519.63 1199.39C2524.02 1200.13 2528.79 1200.57 2533.54 1201.02C2543.82 1201.99 2554.09 1202.95 2560.61 1206.83C2576.31 1216.16 2592.12 1214.82 2605.84 1213.66C2610.7 1213.25 2615.3 1212.86 2619.54 1212.97C2621.62 1210.81 2623.33 1208.96 2624.83 1207.34C2627.61 1204.35 2629.67 1202.13 2632.01 1200.05C2639.83 1192.22 2648.61 1184.85 2658.25 1178.03C2661.19 1176.18 2662.72 1173.76 2664.27 1171.31C2666.94 1167.09 2669.66 1162.79 2679.79 1161.21C2704.78 1157.31 2720.64 1145.39 2726.66 1126.89C2727.3 1124.92 2727.11 1122.77 2726.91 1120.56C2726.39 1114.84 2725.83 1108.69 2739.65 1103.9C2756.3 1098.14 2754.3 1072.22 2741.4 1060.42C2734.16 1054.7 2725.68 1049.76 2716.24 1045.77C2711.74 1043.58 2707.29 1041.26 2702.84 1038.93C2690.29 1032.38 2677.68 1025.79 2663.5 1022.09C2631.58 1013.98 2598.75 1007.65 2565.33 1003.15C2524.56 997.414 2483.69 991.985 2442.77 986.741L2444.12 191.069L1475.68 189.429L1429.03 186.631L1435.32 176.406L1352.34 176.266C1351.74 173.227 1351.29 170.923 1350.88 168.862C1346.03 168.413 1341.04 168.701 1336.05 168.99C1324.92 169.632 1313.77 170.276 1303.95 162.775C1301.27 162.989 1298.45 163.392 1295.56 163.805C1284.69 165.355 1272.76 167.056 1263.24 159.51C1261.66 159.698 1260.13 159.894 1258.62 160.086C1246.89 161.582 1236.88 162.859 1223.45 158.69C1212.34 155.24 1197.55 156.675 1183.43 158.045C1179.89 158.388 1176.4 158.728 1173.01 158.985C1165.08 159.588 1157.21 160.765 1149.35 161.943C1131.3 164.646 1113.26 167.348 1094.37 163.086C1093.88 162.976 1093.27 163.15 1092.65 163.331C1092.18 163.466 1091.7 163.605 1091.25 163.632C1086.54 163.918 1081.84 164.237 1077.14 164.557C1065.57 165.344 1053.99 166.131 1042.39 166.406C1038.05 166.509 1033.71 166.746 1029.38 166.983C1018.29 167.588 1007.18 168.193 995.987 166.571C985.42 165.04 974.751 163.831 963.697 162.578C958.737 162.016 953.7 161.445 948.559 160.833C939.064 167.914 890.35 171.427 870.96 165.435L879.009 158.031L776.366 163.312C776.273 163.361 776.08 163.515 775.804 163.736C774.549 164.738 771.583 167.108 768.589 167.121C747.849 167.848 727.052 167.335 706.44 165.587C698.606 164.669 690.564 166.103 682.544 167.533C668.627 170.015 654.778 172.484 642.197 162.63C641.943 162.431 641.107 162.641 640.138 162.884C639.275 163.101 638.306 163.344 637.553 163.347C632.212 163.365 626.869 163.404 621.527 163.444C606.644 163.554 591.76 163.664 576.899 163.316C564.622 163.028 552.367 162.323 540.111 161.618C533.723 161.25 527.334 160.883 520.941 160.574C517.581 160.412 514.218 160.214 510.855 160.016C501.705 159.478 492.548 158.94 483.428 159.116C468.107 159.413 452.807 160.162 437.506 160.911C431.657 161.197 425.808 161.483 419.957 161.744C418.355 161.816 416.753 161.887 415.15 161.958C404.609 162.425 394.066 162.893 383.541 163.494C373.465 164.069 363.399 164.731 353.334 165.393C348.98 165.679 344.625 165.965 340.27 166.244L342.275 167.446L320.079 174.399L321.618 165.826C316.173 164.863 310.546 165.118 305.003 165.37C295.969 165.779 287.158 166.179 279.723 161.273ZM126.77 146.405C122.195 144.363 117.295 142.176 111.957 139.731C113.852 139.359 115.7 138.852 117.464 138.367C121.063 137.379 124.317 136.485 126.933 137.025C142.84 140.309 158.396 144.426 173.829 148.662C175.005 148.984 175.428 150.573 175.851 152.163C176.047 152.9 176.244 153.637 176.515 154.247C172.865 153.863 169.994 155.454 167.098 157.06C162.933 159.368 158.715 161.706 152.051 158.247C144.373 154.261 136.275 150.647 126.77 146.405ZM200.427 167.995L201.682 173.032L200.216 173.135C193.118 173.633 185.908 174.14 176.974 174.767C177.745 173.938 176.426 175.356 173.815 178.161C173.239 177.095 172.644 176.218 172.151 175.491C171.316 174.26 170.771 173.458 171.103 172.894C175.593 165.256 182.607 166.375 189.645 167.498C193.355 168.09 197.071 168.683 200.427 167.995Z" fill="white"/>
</g>
<defs>
<clipPath id="clip0_318_1275">
<rect width="2443" height="318" fill="white" transform="matrix(0.999999 0.00169323 0.00169323 -0.999999 0.732422 318.932)"/>
</clipPath>
</defs>
</svg>
