<svg width="666" height="299" viewBox="0 0 666 299" fill="none" xmlns="http://www.w3.org/2000/svg">
<g clip-path="url(#clip0_321_1240)">
<path fill-rule="evenodd" clip-rule="evenodd" d="M-0.999837 134.558L71.1112 128.659L69.7492 136.645L174.088 129.385L176.218 142.487C181.303 140.32 186.55 138.579 191.909 137.28C194.247 136.888 196.687 137.232 199.138 137.577C201.234 137.872 203.339 138.169 205.394 138.007C224.171 136.527 242.936 134.874 261.701 133.221C268.124 132.655 274.547 132.089 280.971 131.531L285.372 135.507L273.282 140.574L274.089 143.738L336.811 139.395C338.764 139.388 340.623 140.819 342.513 142.273C346.461 145.312 350.538 148.45 355.869 138.776C356.187 138.2 357.58 138.255 358.989 138.311C359.678 138.338 360.371 138.366 360.945 138.32C365.936 137.918 370.988 137.196 376.039 136.474C387.569 134.827 399.097 133.179 409.907 135.335C418.042 136.957 425.771 135.953 433.28 134.978C439.606 134.157 445.776 133.356 451.899 134.163C473.343 136.986 493.964 133.868 514.619 130.746C521.967 129.635 529.319 128.524 536.713 127.679C546.138 126.602 555.653 126.396 565.173 126.19C570.935 126.065 576.698 125.94 582.443 125.622C591.206 125.138 599.956 124.415 609.065 123.663C613.199 123.322 617.407 122.975 621.724 122.641L619.967 133.503L660.567 131.29L662.459 141.144L666 141.144L666 1983.92C646.102 1979.63 612.158 1984.36 604.807 1992.68C600.25 1991.87 595.785 1991.11 591.389 1990.37C581.591 1988.72 572.134 1987.12 562.766 1985.1C552.841 1982.95 543.003 1983.78 533.177 1984.62C529.332 1984.95 525.489 1985.27 521.644 1985.42C511.362 1985.82 501.105 1986.9 490.849 1987.98C486.684 1988.42 482.518 1988.86 478.351 1989.25C477.948 1989.29 477.523 1989.47 477.11 1989.66C476.556 1989.9 476.022 1990.13 475.588 1989.99C458.834 1984.32 442.85 1987.98 426.857 1991.64C419.893 1993.24 412.927 1994.83 405.895 1995.66C402.895 1996.01 399.798 1996.48 396.663 1996.94C384.153 1998.81 371.046 2000.77 361.194 1996.17C349.288 1990.62 340.421 1992.35 330.028 1994.38C328.693 1994.64 327.333 1994.91 325.937 1995.16C317.485 1985.07 306.919 1987.38 297.288 1989.48C294.723 1990.04 292.224 1990.59 289.848 1990.88C281.138 1980.85 271.254 1981.74 261.396 1982.63C256.972 1983.02 252.553 1983.42 248.248 1982.83C247.885 1980.07 247.48 1976.99 246.945 1972.92L173.409 1972.92L175.604 1967.5L178.963 1959.2L-0.999995 1943.35L-0.999995 1942.32C3.22089 1935.83 2.3415 1931.68 -0.999994 1928.85L-0.999837 134.558Z" fill="white"/>
</g>
<defs>
<clipPath id="clip0_321_1240">
<rect width="666" height="299" fill="white" transform="translate(666 299) rotate(-180)"/>
</clipPath>
</defs>
</svg>
