<svg width="64" height="64" viewBox="0 0 64 64" fill="none" xmlns="http://www.w3.org/2000/svg">
<path d="M49.3071 47.8782C49.55 47.3578 49.6779 46.7912 49.6822 46.2169C49.6865 45.6427 49.5671 45.0742 49.3321 44.5502C48.8864 43.619 48.1063 42.8897 47.1471 42.5076C46.188 42.1255 45.1202 42.1186 44.1561 42.4882L35.2262 45.7382C35.0379 44.9919 34.6383 44.3157 34.0753 43.7909C33.5123 43.266 32.8098 42.9148 32.0521 42.7792L19.9891 40.6522C17.396 40.1971 14.7288 40.4306 12.2541 41.3292L10.7001 41.9002C9.23993 42.4349 7.8603 43.1681 6.60015 44.0792L6.37915 43.4722C6.33446 43.3487 6.26587 43.2352 6.1773 43.1381C6.08873 43.0411 5.98191 42.9625 5.86295 42.9068C5.74399 42.8511 5.61522 42.8194 5.48399 42.8134C5.35277 42.8075 5.22165 42.8275 5.09815 42.8722L1.82715 44.0602L2.51015 45.9402L4.84515 45.0902L9.97515 59.1902L6.65815 60.3932L7.34215 62.2722L11.6001 60.7232C11.7238 60.6785 11.8374 60.6099 11.9345 60.5213C12.0316 60.4326 12.1103 60.3257 12.166 60.2066C12.2217 60.0875 12.2534 59.9587 12.2593 59.8273C12.2651 59.696 12.245 59.5648 12.2001 59.4412L11.8581 58.5012L14.1631 57.6632C15.6088 57.1335 17.1503 56.916 18.6861 57.0252L23.4301 57.3542C25.2449 57.482 27.0663 57.2254 28.7751 56.6012L47.0551 49.9482C47.5486 49.769 48.0017 49.4938 48.3882 49.1385C48.7748 48.7832 49.0871 48.3549 49.3071 47.8782V47.8782ZM46.3671 48.0682L28.0871 54.7222C26.6412 55.2495 25.1005 55.4665 23.5651 55.3592L18.8201 55.0302C17.0057 54.9019 15.1845 55.1585 13.4761 55.7832L11.1701 56.6222L7.31515 46.0292C8.54579 45.0697 9.91909 44.3088 11.3851 43.7742L12.9371 43.2092C15.0805 42.4299 17.391 42.2274 19.6371 42.6222L31.7001 44.7492C31.9615 44.7918 32.2118 44.8859 32.4365 45.026C32.6612 45.166 32.8559 45.3494 33.0092 45.5653C33.1625 45.7812 33.2714 46.0254 33.3296 46.2837C33.3878 46.5421 33.3941 46.8094 33.3481 47.0702C33.3022 47.331 33.2049 47.5801 33.0619 47.8029C32.919 48.0258 32.7332 48.2181 32.5153 48.3686C32.2974 48.5192 32.0518 48.6249 31.7928 48.6798C31.5337 48.7346 31.2663 48.7375 31.0061 48.6882L20.1731 46.7782L19.8251 48.7482L30.6581 50.6582C31.6181 50.8281 32.607 50.64 33.4375 50.1294C34.268 49.6189 34.8824 48.8214 35.1642 47.8882L44.8361 44.3672C45.3257 44.1753 45.869 44.1712 46.3614 44.3558C46.8538 44.5405 47.2604 44.9007 47.5031 45.3672C47.6202 45.6297 47.6796 45.9142 47.6774 46.2016C47.6751 46.489 47.6113 46.7726 47.4902 47.0332C47.3806 47.2714 47.225 47.4854 47.0322 47.6631C46.8395 47.8407 46.6134 47.9784 46.3671 48.0682V48.0682Z" fill="#17405C"/>
<path d="M32.1305 26.168L31.468 25.5099C29.9131 23.9653 27.0619 24.4983 26.0326 26.4403C25.5494 27.3537 25.4404 28.6724 26.3227 30.3555C27.1727 31.976 28.9411 33.9171 32.1305 36.0314C35.3198 33.9171 37.0873 31.976 37.9382 30.3555C38.8205 28.6715 38.7124 27.3537 38.2283 26.4403C37.1991 24.4983 34.3479 23.9644 32.7929 25.509L32.1305 26.168ZM32.1305 37.1073C17.9641 28.0608 27.7687 21.0001 31.9679 24.7349C32.0233 24.784 32.0778 24.8349 32.1305 24.8876C32.1826 24.835 32.2368 24.7843 32.2931 24.7358C36.4913 20.9983 46.2968 28.0599 32.1305 37.1073Z" fill="#17405C"/>
<path d="M32.1306 25.748L31.4019 25.011C29.6914 23.281 26.555 23.878 25.4228 26.053C24.8912 27.076 24.7713 28.553 25.7419 30.438C26.6769 32.253 28.6222 34.427 32.1306 36.795C35.639 34.427 37.5832 32.253 38.5193 30.438C39.4899 28.552 39.3709 27.076 38.8384 26.053C37.7062 23.878 34.5698 23.28 32.8593 25.01L32.1306 25.748ZM32.1306 38C16.5471 27.868 27.3325 19.9601 31.9517 24.143C32.0127 24.198 32.0726 24.255 32.1306 24.314C32.1879 24.2551 32.2476 24.1984 32.3095 24.144C36.9277 19.9581 47.714 27.867 32.1306 38Z" fill="#17405C"/>
</svg>
