<svg width="62" height="58" viewBox="0 0 62 58" fill="none" xmlns="http://www.w3.org/2000/svg">
<g clip-path="url(#clip0)">
<path d="M17.0436 37.4979C13.3395 32.7081 11.6805 26.7696 12.3985 20.8705C13.1164 14.9714 16.1583 9.54671 20.9157 5.6817C25.6731 1.81669 31.795 -0.203585 38.0567 0.0250557C44.3184 0.253696 50.2582 2.71439 54.6876 6.91484C59.117 11.1153 61.7094 16.7457 61.9462 22.6797C62.183 28.6137 60.0467 34.4136 55.9647 38.919C51.8827 43.4245 46.156 46.3032 39.9304 46.9794C33.7048 47.6555 27.4393 46.0791 22.3875 42.5656H22.3914C22.2766 42.7106 22.1542 42.8484 22.0165 42.9825L7.28899 56.9387C6.5717 57.6189 5.59866 58.0012 4.58392 58.0016C3.56917 58.0019 2.59584 57.6203 1.87806 56.9405C1.16027 56.2608 0.756821 55.3387 0.756462 54.3771C0.7561 53.4155 1.15887 52.4932 1.87615 51.813L16.6037 37.8567C16.7404 37.7255 16.8875 37.6044 17.0436 37.4942V37.4979ZM16.0566 23.5634C16.0566 26.1816 16.6008 28.7742 17.6582 31.1931C18.7155 33.612 20.2652 35.8099 22.2189 37.6613C24.1726 39.5127 26.4919 40.9812 29.0445 41.9832C31.5971 42.9852 34.333 43.5009 37.0959 43.5009C39.8589 43.5009 42.5947 42.9852 45.1473 41.9832C47.6999 40.9812 50.0193 39.5127 51.973 37.6613C53.9266 35.8099 55.4764 33.612 56.5337 31.1931C57.591 28.7742 58.1352 26.1816 58.1352 23.5634C58.1352 18.2756 55.9186 13.2044 51.973 9.46541C48.0273 5.72641 42.6759 3.62585 37.0959 3.62585C31.516 3.62585 26.1645 5.72641 22.2189 9.46541C18.2733 13.2044 16.0566 18.2756 16.0566 23.5634Z" fill="#17405C"/>
<path d="M33.4818 15.6875C33.6314 15.6459 33.7929 15.6606 33.9308 15.7283C34.0687 15.7961 34.1717 15.9113 34.2172 16.0488L34.5607 17.086C35.519 16.5103 36.6395 16.2045 37.7843 16.2061C38.973 16.2061 40.0813 16.5294 41.0079 17.086L41.3503 16.0488C41.3723 15.9801 41.4089 15.9162 41.458 15.8606C41.507 15.805 41.5676 15.7589 41.6361 15.725C41.7046 15.691 41.7798 15.6698 41.8572 15.6626C41.9347 15.6555 42.0129 15.6625 42.0875 15.6832C42.162 15.704 42.2313 15.7381 42.2914 15.7836C42.3515 15.829 42.4012 15.885 42.4377 15.9482C42.4742 16.0115 42.4967 16.0807 42.5039 16.1519C42.5112 16.2232 42.503 16.2951 42.4799 16.3634L41.9959 17.8302C43.081 18.8436 43.6882 20.2089 43.6862 21.6307H44.2764C44.433 21.6307 44.5831 21.5735 44.6938 21.4718C44.8045 21.3701 44.8666 21.2321 44.8666 21.0882V20.5458C44.8666 20.4019 44.9288 20.2639 45.0395 20.1622C45.1502 20.0605 45.3003 20.0033 45.4568 20.0033C45.6134 20.0033 45.7635 20.0605 45.8742 20.1622C45.9848 20.2639 46.047 20.4019 46.047 20.5458V21.0882C46.047 21.5198 45.8605 21.9338 45.5284 22.239C45.1964 22.5442 44.746 22.7156 44.2764 22.7156H43.6862V23.8005H45.4568C45.6134 23.8005 45.7635 23.8577 45.8742 23.9594C45.9848 24.0611 46.047 24.1991 46.047 24.343C46.047 24.4869 45.9848 24.6248 45.8742 24.7266C45.7635 24.8283 45.6134 24.8855 45.4568 24.8855H43.6862V25.9704H44.2764C44.746 25.9704 45.1964 26.1418 45.5284 26.447C45.8605 26.7522 46.047 27.1662 46.047 27.5978V28.1402C46.047 28.2841 45.9848 28.4221 45.8742 28.5238C45.7635 28.6255 45.6134 28.6827 45.4568 28.6827C45.3003 28.6827 45.1502 28.6255 45.0395 28.5238C44.9288 28.4221 44.8666 28.2841 44.8666 28.1402V27.5978C44.8666 27.4539 44.8045 27.3159 44.6938 27.2142C44.5831 27.1125 44.433 27.0553 44.2764 27.0553H43.6862C43.6862 28.494 43.0644 29.8738 41.9576 30.8911C40.8508 31.9084 39.3496 32.4799 37.7843 32.4799C36.219 32.4799 34.7178 31.9084 33.611 30.8911C32.5042 29.8738 31.8824 28.494 31.8824 27.0553H31.2922C31.1357 27.0553 30.9855 27.1125 30.8749 27.2142C30.7642 27.3159 30.702 27.4539 30.702 27.5978V28.1402C30.702 28.2841 30.6398 28.4221 30.5291 28.5238C30.4184 28.6255 30.2683 28.6827 30.1118 28.6827C29.9553 28.6827 29.8052 28.6255 29.6945 28.5238C29.5838 28.4221 29.5216 28.2841 29.5216 28.1402V27.5978C29.5216 27.1662 29.7081 26.7522 30.0402 26.447C30.3722 26.1418 30.8226 25.9704 31.2922 25.9704H31.8824V24.8855H30.1118C29.9553 24.8855 29.8052 24.8283 29.6945 24.7266C29.5838 24.6248 29.5216 24.4869 29.5216 24.343C29.5216 24.1991 29.5838 24.0611 29.6945 23.9594C29.8052 23.8577 29.9553 23.8005 30.1118 23.8005H31.8824V22.7156H31.2922C30.8226 22.7156 30.3722 22.5442 30.0402 22.239C29.7081 21.9338 29.5216 21.5198 29.5216 21.0882V20.5458C29.5216 20.4019 29.5838 20.2639 29.6945 20.1622C29.8052 20.0605 29.9553 20.0033 30.1118 20.0033C30.2683 20.0033 30.4184 20.0605 30.5291 20.1622C30.6398 20.2639 30.702 20.4019 30.702 20.5458V21.0882C30.702 21.2321 30.7642 21.3701 30.8749 21.4718C30.9855 21.5735 31.1357 21.6307 31.2922 21.6307H31.8824C31.8824 20.1509 32.5281 18.8088 33.5727 17.8302L33.0887 16.3634C33.0435 16.2259 33.0595 16.0774 33.1332 15.9507C33.2069 15.824 33.3323 15.7293 33.4818 15.6875ZM33.0628 22.7156V27.0553C33.0624 28.1126 33.4819 29.1336 34.2426 29.9267C35.0033 30.7197 36.0528 31.2303 37.1941 31.3624V22.7156H33.0628ZM38.3745 22.7156V31.3624C39.5158 31.2303 40.5653 30.7197 41.326 29.9267C42.0867 29.1336 42.5063 28.1126 42.5059 27.0553V22.7156H38.3745ZM42.5059 21.6307C42.5067 21.0198 42.3668 20.4157 42.0954 19.8581C41.824 19.3005 41.4272 18.802 40.9312 18.3955C40.0667 17.6827 38.9457 17.2893 37.7843 17.291C36.6225 17.289 35.5011 17.6824 34.6362 18.3955C34.1404 18.8021 33.7439 19.3007 33.4727 19.8583C33.2015 20.4159 33.0618 21.0199 33.0628 21.6307H42.5059Z" fill="#17405C"/>
</g>
<defs>
<clipPath id="clip0">
<rect width="61.2052" height="58" fill="white" transform="matrix(-1 0 0 1 61.9603 0)"/>
</clipPath>
</defs>
</svg>
