<svg width="45" height="60" viewBox="0 0 45 60" fill="none" xmlns="http://www.w3.org/2000/svg">
<path d="M43.118 37.2738C43.357 34.5106 42.9164 31.7419 41.6356 29.2535C38.3272 22.8246 39.0861 22.3581 38.9834 15.9775C38.9834 14.6738 37.8771 13.6174 36.5127 13.6174C35.1478 13.6174 34.042 14.6738 34.042 15.9775C34.042 16.8193 34.042 39.7982 34.042 39.7083C34.042 40.0763 34.0009 40.4355 33.9249 40.782V44.1793C33.9249 47.042 31.4868 49.3715 28.4899 49.3715C26.4995 49.3715 19.6357 49.3715 14.9653 49.3715C17.0426 52.1315 19.8851 54.2931 23.184 55.6019C23.2045 55.6096 23.2251 55.6178 23.2456 55.6261C25.2303 56.4272 26.7456 57.9378 27.5437 59.7693C33.9708 59.3625 39.8445 57.022 44.5307 53.349L42.6894 46.8873C42.4265 45.9637 42.3338 45.0037 42.4155 44.0501L43.118 37.2738Z" fill="#B2CBD9"/>
<path d="M5.78847 13.7001L5.0358 13.0341C3.87597 12.0069 2.04709 12.0736 0.972328 13.182C-0.102439 14.2899 -0.0326674 16.0369 1.12716 17.0636L5.78847 21.1895V13.7001Z" fill="#B2CBD9"/>
<path d="M30.5024 0H9.37262C7.32249 0 5.65466 1.59365 5.65466 3.55204V46.0884C5.65466 48.0468 7.32249 49.6404 9.37262 49.6404H30.5024C32.5525 49.6404 34.2208 48.0468 34.2208 46.0884V3.55204C34.2208 1.59365 32.5525 0 30.5024 0V0Z" fill="#17405C"/>
<path d="M7.80707 22.4353V46.0885C7.80707 46.9147 8.50813 47.5844 9.37262 47.5844H30.5024C31.3669 47.5844 32.0679 46.9147 32.0679 46.0885C32.0679 45.2768 32.0679 33.4279 32.0679 22.4353H7.80707Z" fill="#F0F5F7"/>
<path d="M16.3177 29.5702C16.3177 30.8644 15.2195 31.9135 13.8647 31.9135C12.5099 31.9135 11.4117 30.8644 11.4117 29.5702C11.4117 28.2761 12.5099 27.2266 13.8647 27.2266C15.2195 27.2266 16.3177 28.2761 16.3177 29.5702Z" fill="#3EAD52"/>
<path d="M16.3177 38.2592C16.3177 39.5534 15.2195 40.6029 13.8647 40.6029C12.5099 40.6029 11.4117 39.5534 11.4117 38.2592C11.4117 36.9651 12.5099 35.916 13.8647 35.916C15.2195 35.916 16.3177 36.9651 16.3177 38.2592Z" fill="#3EAD52"/>
<path d="M23.8895 28.5962H20.4067C19.9001 28.5962 19.4891 28.2036 19.4891 27.7197C19.4891 27.2354 19.9001 26.8433 20.4067 26.8433H23.8895C24.3961 26.8433 24.8071 27.2354 24.8071 27.7197C24.8071 28.2036 24.3961 28.5962 23.8895 28.5962Z" fill="#266A9A"/>
<path d="M27.3723 32.2976H20.4066C19.8996 32.2976 19.4891 31.9051 19.4891 31.4212C19.4891 30.9368 19.8996 30.5447 20.4066 30.5447H27.3723C27.8788 30.5447 28.2898 30.9368 28.2898 31.4212C28.2898 31.9051 27.8788 32.2976 27.3723 32.2976Z" fill="#266A9A"/>
<path d="M23.8895 37.2854H20.4066C19.9001 37.2854 19.4891 36.8933 19.4891 36.409C19.4891 35.9246 19.9001 35.5325 20.4066 35.5325H23.8895C24.396 35.5325 24.807 35.9246 24.807 36.409C24.807 36.8933 24.396 37.2854 23.8895 37.2854Z" fill="#266A9A"/>
<path d="M27.3723 40.9866H20.4066C19.8996 40.9866 19.4891 40.5945 19.4891 40.1101C19.4891 39.6262 19.8996 39.2336 20.4066 39.2336H27.3723C27.8788 39.2336 28.2898 39.6262 28.2898 40.1101C28.2898 40.5945 27.8788 40.9866 27.3723 40.9866Z" fill="#266A9A"/>
<path d="M30.49 2.05664H27.3498C27.0535 2.05664 26.8136 2.2858 26.8136 2.56838C26.8136 3.2472 26.2325 3.8023 25.5224 3.8023H14.3288C13.6182 3.8023 13.0371 3.2472 13.0371 2.56838C13.0371 2.2858 12.7972 2.05664 12.5009 2.05664H9.36071C8.49574 2.05664 7.79468 2.72633 7.79468 3.55214V22.669H32.056V3.55214C32.056 2.72633 31.355 2.05664 30.49 2.05664Z" fill="#F0F5F7"/>
<path d="M15.9804 9.02274H11.7491C11.2426 9.02274 10.8316 8.6306 10.8316 8.14626C10.8316 7.66191 11.2426 7.26978 11.7491 7.26978H15.9804C16.4869 7.26978 16.8979 7.66191 16.8979 8.14626C16.8979 8.63015 16.4869 9.02274 15.9804 9.02274Z" fill="#17405C"/>
<path d="M9.97242 28.1868C9.02669 29.1614 7.43246 29.2198 6.41169 28.3164L2.19148 24.5809C1.17071 23.6774 1.11002 22.1546 2.05576 21.1795C3.00149 20.2044 4.59572 20.1464 5.61649 21.0498L9.8367 24.7854C10.857 25.6888 10.9182 27.2117 9.97242 28.1868Z" fill="#B2CBD9"/>
<path d="M9.97242 34.751C9.02669 35.7261 7.43246 35.7841 6.41169 34.8806L2.19148 31.1451C1.17071 30.2417 1.11002 28.7188 2.05576 27.7442C3.00149 26.7691 4.59572 26.7111 5.61649 27.6145L9.8367 31.3501C10.857 32.2535 10.9182 33.7759 9.97242 34.751Z" fill="#B2CBD9"/>
<path d="M9.97242 41.3159C9.02669 42.291 7.43246 42.349 6.41169 41.4456L2.19148 37.71C1.17071 36.8066 1.11002 35.2837 2.05576 34.3086C3.00149 33.3335 4.59572 33.2756 5.61649 34.179L9.8367 37.9145C10.857 38.8179 10.9182 40.3408 9.97242 41.3159Z" fill="#B2CBD9"/>
</svg>
