<svg width="92" height="102" viewBox="0 0 92 102" fill="none" xmlns="http://www.w3.org/2000/svg">
<path d="M54.9688 20H33.0312C31.8461 20 30.7094 20.4708 29.8714 21.3089C29.0333 22.1469 28.5625 23.2836 28.5625 24.4688V67.5312C28.5625 68.7164 29.0333 69.8531 29.8714 70.6911C30.7094 71.5292 31.8461 72 33.0312 72H54.9688C56.1539 72 57.2906 71.5292 58.1286 70.6911C58.9667 69.8531 59.4375 68.7164 59.4375 67.5312V24.4688C59.4375 23.2836 58.9667 22.1469 58.1286 21.3089C57.2906 20.4708 56.1539 20 54.9688 20V20ZM31 29.2178H57V60.4544H31V29.2178ZM33.0312 22.4375H54.9688C55.2355 22.4375 55.4996 22.49 55.7461 22.5921C55.9925 22.6942 56.2164 22.8438 56.4051 23.0324C56.5937 23.2211 56.7433 23.445 56.8454 23.6914C56.9475 23.9379 57 24.202 57 24.4688V26.7803H31V24.4688C31 23.93 31.214 23.4134 31.5949 23.0324C31.9759 22.6515 32.4925 22.4375 33.0312 22.4375V22.4375ZM54.9688 69.5625H33.0312C32.4925 69.5625 31.9759 69.3485 31.5949 68.9676C31.214 68.5866 31 68.07 31 67.5312V62.8919H57V67.5312C57 67.798 56.9475 68.0621 56.8454 68.3086C56.7433 68.555 56.5937 68.7789 56.4051 68.9676C56.2164 69.1562 55.9925 69.3058 55.7461 69.4079C55.4996 69.51 55.2355 69.5625 54.9688 69.5625V69.5625Z" fill="#17405C"/>
<path d="M44 68.7129C45.3462 68.7129 46.4375 67.6216 46.4375 66.2754C46.4375 64.9292 45.3462 63.8379 44 63.8379C42.6538 63.8379 41.5625 64.9292 41.5625 66.2754C41.5625 67.6216 42.6538 68.7129 44 68.7129Z" fill="#17405C"/>
<path d="M40.8027 25.7773H47.2012C47.5244 25.7773 47.8344 25.6489 48.063 25.4204C48.2915 25.1918 48.4199 24.8818 48.4199 24.5586C48.4199 24.2354 48.2915 23.9254 48.063 23.6968C47.8344 23.4682 47.5244 23.3398 47.2012 23.3398H40.8027C40.4795 23.3398 40.1695 23.4682 39.9409 23.6968C39.7124 23.9254 39.584 24.2354 39.584 24.5586C39.584 24.8818 39.7124 25.1918 39.9409 25.4204C40.1695 25.6489 40.4795 25.7773 40.8027 25.7773Z" fill="#17405C"/>
<path d="M45.4796 42.2871C45.653 42.1223 45.8839 42.0313 46.1235 42.0331C46.363 42.0349 46.5925 42.1294 46.7635 42.2967C46.9345 42.4641 47.0336 42.6911 47.0399 42.9299C47.0462 43.1687 46.9593 43.4006 46.7974 43.5767L41.8831 49.7056C41.7986 49.7964 41.6966 49.8692 41.5833 49.9197C41.4699 49.9703 41.3475 49.9975 41.2233 49.9998C41.0991 50.0021 40.9757 49.9794 40.8606 49.9331C40.7454 49.8868 40.6408 49.8177 40.553 49.7301L37.294 46.4802C37.2032 46.3959 37.1305 46.2942 37.08 46.1812C37.0295 46.0682 37.0023 45.9462 37.0001 45.8226C36.998 45.6989 37.0208 45.576 37.0672 45.4613C37.1137 45.3466 37.1828 45.2424 37.2706 45.1549C37.3583 45.0675 37.4628 44.9985 37.5778 44.9522C37.6928 44.9058 37.816 44.8831 37.94 44.8853C38.0641 44.8875 38.1864 44.9145 38.2997 44.9649C38.413 45.0152 38.515 45.0878 38.5996 45.1783L41.1786 47.749L45.4549 42.3141C45.4626 42.3046 45.4708 42.2956 45.4796 42.2871V42.2871ZM44.3464 48.6002L45.4796 49.7301C45.5673 49.8175 45.6719 49.8864 45.787 49.9326C45.902 49.9789 46.0252 50.0015 46.1493 49.9992C46.2733 49.9969 46.3956 49.9697 46.5088 49.9193C46.6221 49.8688 46.724 49.7962 46.8085 49.7056L51.7252 43.5767C51.8136 43.4897 51.8834 43.3859 51.9306 43.2715C51.9778 43.157 52.0014 43.0342 51.9999 42.9104C51.9985 42.7867 51.972 42.6645 51.9222 42.5511C51.8723 42.4378 51.8001 42.3356 51.7097 42.2507C51.6194 42.1659 51.5129 42.1 51.3964 42.0571C51.28 42.0142 51.1561 41.9951 51.0321 42.0011C50.9082 42.007 50.7867 42.0377 50.6749 42.0915C50.5631 42.1453 50.4633 42.221 50.3815 42.3141L46.104 47.749L45.5066 47.1521L44.3452 48.6002H44.3464Z" fill="#17405C"/>
</svg>
