<svg width="55" height="67" viewBox="0 0 55 67" fill="none" xmlns="http://www.w3.org/2000/svg">
<path d="M49.4568 23.1088C51.8968 21.5688 53.7367 19.2288 54.6467 16.4888C54.1967 15.7788 53.5967 15.1688 52.8767 14.7188C50.2467 15.6288 47.9968 17.3988 46.4868 19.7288C41.9268 15.3488 35.2768 12.8988 28.9768 12.4888C29.4068 10.3688 29.4366 8.17879 29.0566 6.04879C31.9366 5.89879 34.7967 5.47877 37.5867 4.77877C37.7067 4.77877 37.7866 4.20881 37.7866 3.56881C37.7866 2.92881 37.7067 2.38878 37.5867 2.34878C30.4867 0.548779 23.0568 0.548779 15.9568 2.34878C15.8368 2.34878 15.7466 2.89878 15.7466 3.53878C15.7466 4.17878 15.8368 4.69877 15.9568 4.71877C18.7468 5.41877 21.5968 5.84875 24.4568 6.00875C24.0768 8.15875 24.1066 10.3688 24.5466 12.5088C18.8566 13.0388 13.5366 15.5588 9.5166 19.6188C9.2566 19.8588 9.04664 20.1188 8.80664 20.3588C7.33664 17.6788 4.88681 15.6688 1.97681 14.7388C1.60681 14.9388 1.27658 15.2088 0.996582 15.5288C0.686582 15.7988 0.416777 16.1088 0.196777 16.4588C1.19678 19.4788 3.35679 21.9788 6.20679 23.4088C3.28679 27.6088 1.67667 32.5788 1.58667 37.6888C1.58667 38.5288 2.05678 39.1788 2.69678 39.1788C3.39678 39.0988 3.92678 38.5188 3.94678 37.8188V37.6088C4.55678 31.5988 7.46664 26.0588 12.0566 22.1388C16.5366 18.2888 22.3368 16.3288 28.2368 16.6488C40.6668 17.2788 50.2467 27.8688 49.6167 40.2988C49.0267 51.9288 39.6766 61.1988 28.0466 61.6888C22.1566 61.9588 16.3968 59.9588 11.9468 56.0988C7.37678 52.1288 4.50678 46.5488 3.94678 40.5288C3.91678 39.8188 3.36674 39.2388 2.65674 39.1788C2.01674 39.1788 1.5166 39.8188 1.5166 40.6688V40.8988C1.7466 47.7288 4.65671 54.1888 9.62671 58.8888C20.4867 68.9988 37.4867 68.3988 47.5967 57.5388C56.4567 48.0288 57.2368 33.5388 49.4468 23.1388L49.4568 23.1088Z" fill="#7100D2"/>
<path d="M26.5063 43.0687C31.3463 42.9887 36.1764 42.4987 40.9464 41.6287C41.1164 41.6287 41.2365 41.0187 41.2365 40.3387C41.2365 39.6587 41.1064 39.0787 40.9464 39.0387C37.0664 38.3587 33.1465 37.9487 29.2165 37.7987C29.1565 32.8287 28.6763 27.8687 27.7863 22.9787C27.7863 22.8087 27.1963 22.6887 26.5163 22.6887C25.8363 22.6887 25.2763 22.8187 25.2563 22.9787C24.2063 28.6987 23.7263 34.5087 23.8163 40.3187V40.3987C23.8163 41.8787 25.0165 43.0687 26.4865 43.0687C26.4865 43.0787 26.4963 43.0787 26.5063 43.0687Z" fill="#7100D2"/>
</svg>
