<svg width="101" height="102" viewBox="0 0 101 102" fill="none" xmlns="http://www.w3.org/2000/svg">
<g clip-path="url(#clip0)">
<path d="M50.3125 39.1875V34.9375C50.3125 34.6557 50.2006 34.3855 50.0013 34.1862C49.802 33.9869 49.5318 33.875 49.25 33.875C48.9682 33.875 48.698 33.9869 48.4987 34.1862C48.2994 34.3855 48.1875 34.6557 48.1875 34.9375V39.1875C48.1875 39.4693 48.2994 39.7395 48.4987 39.9388C48.698 40.1381 48.9682 40.25 49.25 40.25C49.5318 40.25 49.802 40.1381 50.0013 39.9388C50.2006 39.7395 50.3125 39.4693 50.3125 39.1875Z" fill="#17405C"/>
<path d="M73.6875 59.375V55.125C73.6875 54.8432 73.5756 54.573 73.3763 54.3737C73.177 54.1744 72.9068 54.0625 72.625 54.0625C72.3432 54.0625 72.073 54.1744 71.8737 54.3737C71.6744 54.573 71.5625 54.8432 71.5625 55.125V59.375C71.5625 59.6568 71.6744 59.927 71.8737 60.1263C72.073 60.3256 72.3432 60.4375 72.625 60.4375C72.9068 60.4375 73.177 60.3256 73.3763 60.1263C73.5756 59.927 73.6875 59.6568 73.6875 59.375Z" fill="#17405C"/>
<path d="M80.0625 59.375V55.125C80.0625 54.8432 79.9506 54.573 79.7513 54.3737C79.552 54.1744 79.2818 54.0625 79 54.0625C78.7182 54.0625 78.448 54.1744 78.2487 54.3737C78.0494 54.573 77.9375 54.8432 77.9375 55.125V59.375C77.9375 59.6568 78.0494 59.927 78.2487 60.1263C78.448 60.3256 78.7182 60.4375 79 60.4375C79.2818 60.4375 79.552 60.3256 79.7513 60.1263C79.9506 59.927 80.0625 59.6568 80.0625 59.375Z" fill="#17405C"/>
<path d="M85.6217 61.5943C85.4945 61.5367 85.3571 61.5048 85.2175 61.5003C85.078 61.4958 84.9388 61.5189 84.8082 61.5683C84.6775 61.6176 84.5579 61.6922 84.4561 61.7879C84.3543 61.8835 84.2724 61.9982 84.215 62.1256L82.447 66.0132L71.1228 71.1579C70.9782 71.2237 70.8502 71.3211 70.7482 71.4429C70.6462 71.5647 70.5728 71.7079 70.5335 71.8618C70.4941 72.0158 70.4898 72.1766 70.5208 72.3324C70.5518 72.4882 70.6174 72.6351 70.7127 72.7622L73.3137 76.2302L65.1155 83.5179L59.2048 79.2956L62.8842 73.7769C63.0039 73.5976 63.0661 73.386 63.0627 73.1704C63.0593 72.9549 62.9904 72.7454 62.8651 72.5699L57.8086 65.4905L58.7989 59.5501C58.8363 59.3259 58.8009 59.0957 58.6978 58.8932C58.5947 58.6907 58.4294 58.5265 58.2262 58.4249L54.4416 56.5326L53.4853 51.729C53.4452 51.5285 53.348 51.3439 53.2055 51.1973C53.0631 51.0507 52.8813 50.9483 52.6821 50.9024L45.2446 49.1864C44.97 49.123 44.6814 49.1713 44.4424 49.3206C44.2034 49.47 44.0335 49.7082 43.9701 49.9828C43.9067 50.2574 43.955 50.5459 44.1043 50.7849C44.2537 51.0239 44.4919 51.1938 44.7665 51.2572L51.5356 52.8191L52.459 57.4622C52.4904 57.6212 52.5578 57.7708 52.6559 57.8997C52.7541 58.0286 52.8804 58.1334 53.0253 58.206L56.573 59.9793L55.6401 65.5797C55.617 65.7174 55.6212 65.8582 55.6526 65.9942C55.684 66.1302 55.7418 66.2587 55.8228 66.3724L60.7103 73.2127L56.8673 78.9779C56.7141 79.2075 56.6563 79.4877 56.706 79.7592C56.7558 80.0306 56.9093 80.2721 57.134 80.4324L64.5715 85.7449C64.7674 85.885 65.0051 85.9544 65.2457 85.9417C65.4862 85.9289 65.7153 85.8348 65.8953 85.6748L75.4578 77.1748C75.6584 76.9973 75.7845 76.7505 75.8109 76.4839C75.8373 76.2174 75.7621 75.9507 75.6002 75.7372L73.2064 72.5497L83.6901 67.7844C83.926 67.678 84.1149 67.489 84.2213 67.2532L86.153 63.0032C86.2109 62.8758 86.2431 62.7383 86.2477 62.5985C86.2524 62.4587 86.2293 62.3193 86.18 62.1884C86.1306 62.0575 86.0559 61.9376 85.9601 61.8357C85.8643 61.7337 85.7493 61.6517 85.6217 61.5943Z" fill="#17405C"/>
<path d="M62 43.4375C62.2818 43.4375 62.552 43.3256 62.7513 43.1263C62.9506 42.927 63.0625 42.6568 63.0625 42.375C63.0625 42.0932 62.9506 41.823 62.7513 41.6237C62.552 41.4244 62.2818 41.3125 62 41.3125H60.9375C60.6557 41.3125 60.3855 41.4244 60.1862 41.6237C59.9869 41.823 59.875 42.0932 59.875 42.375C59.875 42.6568 59.9869 42.927 60.1862 43.1263C60.3855 43.3256 60.6557 43.4375 60.9375 43.4375H62Z" fill="#17405C"/>
<path d="M66.25 43.4375C66.5318 43.4375 66.802 43.3256 67.0013 43.1263C67.2006 42.927 67.3125 42.6568 67.3125 42.375C67.3125 42.0932 67.2006 41.823 67.0013 41.6237C66.802 41.4244 66.5318 41.3125 66.25 41.3125H65.1875C64.9057 41.3125 64.6355 41.4244 64.4362 41.6237C64.2369 41.823 64.125 42.0932 64.125 42.375C64.125 42.6568 64.2369 42.927 64.4362 43.1263C64.6355 43.3256 64.9057 43.4375 65.1875 43.4375H66.25Z" fill="#17405C"/>
<path d="M41.8125 47.6875L39.1562 46.0938L31.1875 41.3125L34.375 34.9375H38.625L37.5625 25.375L53.5 19L54.5625 25.375H63.5938L66.25 21.125L71.5625 23.7812V28.5625L93.3438 34.9375L94.9375 41.3125L86.9688 47.6875L89.625 53L88.0312 56.7188" stroke="#17405C" stroke-width="2" stroke-linecap="round" stroke-linejoin="round"/>
<path d="M83.417 21.2158H79.6982V28.1221M79.6982 40.3408V28.1221M79.6982 28.1221H90.3232V21.2158H87.667" stroke="#17405C" stroke-width="2" stroke-linecap="round" stroke-linejoin="round"/>
</g>
<defs>
<clipPath id="clip0">
<rect width="68" height="68" fill="white" transform="translate(28 19)"/>
</clipPath>
</defs>
</svg>
