<svg width="69" height="67" viewBox="0 0 69 67" fill="none" xmlns="http://www.w3.org/2000/svg">
<path d="M22.8578 19.8906V15.7031C22.8578 15.4255 22.7449 15.1592 22.5439 14.9629C22.343 14.7665 22.0704 14.6562 21.7862 14.6562C21.502 14.6562 21.2294 14.7665 21.0285 14.9629C20.8275 15.1592 20.7146 15.4255 20.7146 15.7031V19.8906C20.7146 20.1683 20.8275 20.4346 21.0285 20.6309C21.2294 20.8272 21.502 20.9375 21.7862 20.9375C22.0704 20.9375 22.343 20.8272 22.5439 20.6309C22.7449 20.4346 22.8578 20.1683 22.8578 19.8906Z" fill="#17405C"/>
<path d="M27.1432 25.2344V21.0469C27.1432 20.7692 27.0303 20.5029 26.8293 20.3066C26.6284 20.1103 26.3558 20 26.0716 20C25.7874 20 25.5148 20.1103 25.3139 20.3066C25.1129 20.5029 25 20.7692 25 21.0469V25.2344C25 25.512 25.1129 25.7783 25.3139 25.9746C25.5148 26.171 25.7874 26.2812 26.0716 26.2812C26.3558 26.2812 26.6284 26.171 26.8293 25.9746C27.0303 25.7783 27.1432 25.512 27.1432 25.2344Z" fill="#17405C"/>
<path d="M43.9778 40.212L48.1653 40.212C48.4429 40.212 48.7092 40.0991 48.9055 39.8982C49.1019 39.6972 49.2122 39.4246 49.2122 39.1404C49.2122 38.8562 49.1019 38.5837 48.9055 38.3827C48.7092 38.1817 48.4429 38.0688 48.1653 38.0688L43.9778 38.0688C43.7001 38.0688 43.4339 38.1817 43.2375 38.3827C43.0412 38.5837 42.9309 38.8562 42.9309 39.1404C42.9309 39.4246 43.0412 39.6972 43.2375 39.8982C43.4339 40.0991 43.7001 40.212 43.9778 40.212Z" fill="#17405C"/>
<path d="M47.0469 25.1432L51.2344 25.1432C51.512 25.1432 51.7783 25.0303 51.9746 24.8293C52.171 24.6284 52.2812 24.3558 52.2812 24.0716C52.2812 23.7874 52.171 23.5148 51.9746 23.3139C51.7783 23.1129 51.512 23 51.2344 23L47.0469 23C46.7692 23 46.5029 23.1129 46.3066 23.3139C46.1103 23.5148 46 23.7874 46 24.0716C46 24.3558 46.1103 24.6284 46.3066 24.8293C46.5029 25.0303 46.7692 25.1432 47.0469 25.1432Z" fill="#17405C"/>
<path d="M61.8716 2.18359H52.4951V8.98828M52.4951 21.0273V8.98828M52.4951 8.98828H63.2111V2.18359H60.5321" stroke="#17405C" stroke-width="2" stroke-linecap="round" stroke-linejoin="round"/>
<path d="M2 24L13 31.5L16 33H24V38.5L29.5 41L28.5 48L34.5 55L31.5 60.5L38 65.5L46.5 59L43.5 54.5L55 50L61.5 36.5L59 31.5L66.5 24.5L65.5 19L43.5 12V7L38 4.5L35.5 9.5L26 8.5L24 2L8.5 8.5L10 19L5.5 17.5L2 24Z" stroke="#17405C" stroke-width="2" stroke-linecap="round" stroke-linejoin="round"/>
</svg>
