<svg width="88" height="69" viewBox="0 0 88 69" fill="none" xmlns="http://www.w3.org/2000/svg">
<g clip-path="url(#clip0_158_2995)">
<path d="M67.315 23.8288L67.495 13.8588L67.545 10.5988V8.9188C67.535 8.1688 67.415 7.4188 67.185 6.6988C66.245 3.7388 63.665 1.5888 60.575 1.2088C59.725 1.1288 59.225 1.1488 58.695 1.1388H53.805L47.285 1.0788L34.255 0.968803L8.12498 0.898804C4.85498 0.988804 1.94496 2.9788 0.674963 5.9888C0.364963 6.7188 0.154978 7.4988 0.0649781 8.2888C0.0149781 8.9288 -0.00500969 9.5688 0.0149903 10.2088V13.4688L0.0849366 26.5088L0.174963 39.4288L0.244971 45.9488C0.194971 49.0388 1.90494 51.8888 4.65494 53.3088C5.33494 53.6588 6.06498 53.8988 6.81498 54.0288C7.48498 54.1388 8.17496 54.1788 8.85496 54.1488H12.105L18.625 54.0388L23.985 53.9488C23.765 56.7488 23.335 60.4988 23.925 64.0088C21.105 64.2388 18.295 64.5588 15.485 65.0288C15.285 65.0288 15.135 65.5988 15.135 66.2588C15.135 66.9188 15.285 67.4588 15.485 67.4788C27.785 68.2588 40.115 68.2588 52.415 67.4788C52.615 67.4788 52.755 66.8888 52.755 66.2288C52.755 65.5688 52.615 65.0088 52.415 64.9688H52.355C49.575 64.5588 46.795 64.2388 43.995 64.0088C44.265 60.5188 44.195 57.0088 43.785 53.5288L54.825 53.1388C55.905 53.1388 55.9549 52.5788 55.9549 51.9188C55.9549 51.2588 55.905 50.7088 54.825 50.6888H54.515L33.305 50.3988H17.305C7.13497 50.7988 6.21493 50.1888 5.64493 49.8488C4.87493 49.3088 4.23497 48.6188 3.74497 47.8188C3.60497 47.5288 3.50493 47.2288 3.45493 46.9088C3.42493 46.5088 3.42493 46.1188 3.45493 45.7188L3.52494 39.2088V39.1188C22.3249 39.8788 37.665 40.6288 57.195 38.9388L57.665 29.3588C59.615 25.3988 59.935 25.6088 67.315 23.8288ZM31.685 53.7788L40.115 53.5788C39.655 56.9388 39.5849 60.3288 39.8949 63.6988C35.7049 63.8488 32.095 63.5188 28.185 63.6988C28.145 61.0788 28.5349 57.0988 28.0349 53.8288L31.685 53.7788ZM3.49497 36.2888L3.58494 26.1088L3.65494 13.0788L3.58494 8.5888C3.56494 8.1988 3.58493 7.79881 3.64493 7.40881C3.69493 7.11881 3.78495 6.8388 3.91495 6.5788C4.44495 5.4788 5.59498 4.7988 6.81498 4.8588L34.485 4.7788L60.185 4.5788C61.525 4.5488 62.8049 5.1388 63.6549 6.1688C64.0949 6.9188 64.3049 7.7688 64.2749 8.6388L64.3449 14.7588V23.8288H62.2749L57.635 25.9688C55.845 25.8088 58.025 35.9988 55.925 35.8688C37.665 35.4988 21.055 35.6188 3.49497 36.2888Z" fill="#7100D2"/>
<path d="M60.3579 64.1288C60.8379 64.3388 61.3276 64.5088 61.8276 64.6588C62.3176 64.8088 62.8076 64.9588 63.3276 65.1088C64.3876 65.3888 65.4676 65.6188 66.5576 65.7888C71.6076 66.5888 76.778 66.2588 81.688 64.7988C81.858 64.7488 82.0078 64.7088 82.1978 64.6388C82.3978 64.5788 82.5878 64.4988 82.7778 64.4188C83.1578 64.2488 83.5179 64.0488 83.8579 63.8088C85.2679 62.7988 86.198 61.2488 86.418 59.5288C86.448 59.3188 86.4678 59.0988 86.4678 58.8788V57.2388L86.5176 48.4188C86.5176 42.4288 86.5476 36.2388 86.5576 30.0388C86.5576 28.0988 85.6777 26.2688 84.1577 25.0588C83.7877 24.7588 83.378 24.4988 82.938 24.2988C82.718 24.1988 82.4976 24.0988 82.2676 24.0288C82.0476 23.9488 81.8777 23.9088 81.6777 23.8488C80.9177 23.6088 80.1377 23.3988 79.3677 23.2388C73.3077 21.8488 66.9776 22.1188 61.0576 24.0188L60.7876 24.0988L60.4775 24.2088C60.2675 24.2788 60.0779 24.3888 59.8779 24.4788C57.9379 25.4888 56.6578 27.4488 56.5278 29.6288V31.7388C56.6278 42.5688 56.7875 51.8288 56.9775 57.9888C56.9375 58.3588 57.2076 58.6888 57.5776 58.7288C57.5976 58.7288 57.6179 58.7288 57.6279 58.7288C57.9779 58.6588 58.2178 58.3388 58.1978 57.9888C58.4078 51.8288 58.5579 42.5588 58.6479 31.7388V29.7588C58.6979 29.2188 58.8477 28.6888 59.0977 28.1988C59.5377 27.3288 60.2978 26.6588 61.2178 26.3288L61.4976 26.2688L61.7476 26.1988C67.2876 24.5088 73.1779 24.3088 78.8179 25.6288C79.5379 25.7988 80.2578 25.9888 80.9678 26.2088C81.1378 26.2588 81.3478 26.3188 81.4878 26.3688C81.6278 26.4188 81.7577 26.4688 81.8877 26.5388C82.1477 26.6588 82.3979 26.8088 82.6279 26.9888C83.5579 27.7388 84.1079 28.8688 84.1079 30.0588C84.1079 36.2488 84.1379 42.4288 84.1479 48.4388L84.1978 57.2988V58.8888C84.1978 59.0288 84.188 59.1688 84.168 59.3088C84.108 59.8588 83.9279 60.3888 83.6479 60.8688C83.3679 61.3288 82.9976 61.7388 82.5576 62.0588C82.3376 62.2188 82.1077 62.3588 81.8677 62.4688C81.7477 62.5288 81.6176 62.5788 81.4976 62.6188C81.3676 62.6688 81.1979 62.7188 81.0479 62.7688C76.4379 64.2288 71.5678 64.6688 66.7778 64.0688C65.7078 63.9388 64.668 63.7588 63.688 63.5388C63.198 63.4288 62.7176 63.3188 62.2476 63.1888C61.8076 63.0788 61.3778 62.9488 60.9478 62.7988C60.2278 62.4988 59.5877 62.0088 59.1177 61.3788C58.6877 60.8088 58.3878 60.1388 58.2578 59.4288C58.2178 59.0688 57.9179 58.7988 57.5679 58.7888C57.2079 58.8788 56.9876 59.2388 57.0776 59.5988C57.2976 61.5888 58.5379 63.3088 60.3579 64.1588V64.1288Z" fill="#7100D2"/>
<path d="M63.2275 31.1787C63.2675 31.0287 63.2979 30.8787 63.2979 30.7287C63.2879 30.5687 63.1976 30.4287 63.0576 30.3487C62.8676 30.2687 62.6475 30.2887 62.4775 30.3987C62.0675 30.6487 61.8076 31.0787 61.7676 31.5587L61.7275 32.4587L61.6577 34.3287L61.5176 38.5787C61.4576 41.6087 61.3977 45.0587 61.3477 48.7787L61.2778 54.5087V55.4987C61.2778 55.6387 61.3079 55.7887 61.3379 55.9287C61.5679 56.7987 62.3378 57.4187 63.2378 57.4487H67.0879L79.688 57.4887C80.678 57.4787 81.5278 56.7887 81.7378 55.8187C81.7678 55.6687 81.7778 55.5187 81.7778 55.3687V50.4087L81.7476 44.1587L81.6279 32.3587V31.6687C81.6379 31.5687 81.6379 31.4587 81.6279 31.3587C81.6079 31.2387 81.5776 31.1087 81.5376 30.9987C81.2876 30.2787 80.6277 29.7687 79.8677 29.7087H79.0679L76.4478 29.7487L71.5977 29.8587C68.5577 29.9387 65.9079 30.0287 63.7979 30.1287C63.4779 30.1687 63.2579 30.4587 63.2979 30.7787C63.2979 30.7887 63.2976 30.7987 63.3076 30.8087C63.3076 31.0987 63.5176 31.3287 63.8076 31.3687C65.9176 31.4687 68.5579 31.5687 71.6079 31.6387L76.4478 31.7487L79.0679 31.7887H79.4878V32.3787L79.3677 44.1787L79.3379 50.4287V55.0587L67.0977 55.0987H63.5977V54.5287L63.5078 48.7987C63.4578 45.0887 63.3879 41.6287 63.3179 38.5987L63.188 34.3487L63.1177 32.4787L63.0776 31.6587C63.0676 31.5787 63.0977 31.5087 63.1577 31.4487C63.1877 31.3587 63.2075 31.2687 63.2275 31.1787Z" fill="#7100D2"/>
<path d="M73.0679 60.8088C73.0679 61.6788 72.3578 62.3888 71.4878 62.3888C70.6178 62.3888 69.9077 61.6788 69.9077 60.8088C69.9077 59.9388 70.6178 59.2288 71.4878 59.2288C72.3578 59.2288 73.0679 59.9388 73.0679 60.8088Z" fill="#7100D2"/>
</g>
<defs>
<clipPath id="clip0_158_2995">
<rect width="87" height="68" fill="white" transform="translate(0.00732422 0.498779)"/>
</clipPath>
</defs>
</svg>
