<svg width="65" height="54" viewBox="0 0 65 54" fill="none" xmlns="http://www.w3.org/2000/svg">
<path d="M63.0749 25.7911H55.4586V17.6363C55.4586 16.9445 54.9218 16.3837 54.2594 16.3837H51.5522V1.67023C51.5522 0.747764 50.8362 0 49.9533 0H2.31733C1.43426 0 0.718445 0.747764 0.718445 1.67023V33.6021C0.718445 34.5246 1.43426 35.2723 2.31733 35.2723H18.8605C18.5423 37.1821 17.8581 40.3375 16.4812 43.4697C16.2538 43.9868 16.2943 44.5892 16.5883 45.0683C16.8824 45.5473 17.3895 45.8371 17.9343 45.8371H29.2109V50.2251C29.2109 50.9169 29.7476 51.4778 30.41 51.4778H47.674V52.9979C47.674 53.5512 48.1036 54 48.6333 54H63.0749C63.6047 54 64.0342 53.5512 64.0342 52.9979V26.7932C64.0342 26.2397 63.6047 25.7911 63.0749 25.7911ZM29.2109 17.6363V31.932H3.91621V3.34047H48.3546V16.3835H30.41C29.7478 16.3837 29.2109 16.9444 29.2109 17.6363ZM47.674 48.9724H31.6092V47.5178H41.1358V47.6354C41.1358 48.3274 41.6726 48.8881 42.335 48.8881C42.9974 48.8881 43.5341 48.3274 43.5341 47.6354V47.5178H47.674V48.9724ZM47.674 26.7932V45.0125H31.6092V18.889H53.0603V25.7911H48.6333C48.1034 25.7911 47.674 26.2397 47.674 26.7932ZM62.1155 51.9957H49.5926V50.8157H54.8948V50.9154C54.8948 51.4689 55.3243 51.9176 55.8542 51.9176C56.3839 51.9176 56.8135 51.4689 56.8135 50.9154V50.8157H62.1155V51.9957ZM62.1155 48.8113H49.5926V30.9797H62.1155V48.8113ZM62.1155 28.9754H49.5926V27.7954H62.1155V28.9754Z" fill="#17405C"/>
</svg>
