<svg width="65" height="68" viewBox="0 0 65 68" fill="none" xmlns="http://www.w3.org/2000/svg">
<path d="M1.3886 34.2704C11.0386 44.8904 21.4187 56.2105 31.2787 66.8605L31.3886 66.9704C32.1586 67.6804 33.3585 67.6305 34.0585 66.8605C34.0585 66.8605 34.0585 66.8604 34.0685 66.8504C45.1385 54.7404 55.5586 43.1804 63.6586 34.0204L63.6987 33.9805C64.1587 33.4705 64.1887 32.7105 63.7687 32.1705C58.9087 25.7405 54.8585 20.6004 51.8185 16.7704C51.4485 16.3204 50.9787 16.3704 50.7487 16.8904C50.7287 16.9404 50.7187 16.9905 50.7087 17.0405H50.6486C50.7086 16.9705 50.7588 16.8805 50.7988 16.7905C50.9688 16.3705 50.7287 16.0304 50.2187 16.0004C46.0987 15.8104 40.8186 15.6105 34.6586 15.4805L25.1086 15.3104L14.6286 15.1705C14.0986 15.1605 13.5987 15.4104 13.2887 15.8304L1.33855 31.9305C0.77855 32.6305 0.808599 33.6104 1.3886 34.2704ZM6.44866 34.2704C10.1087 34.5304 14.8886 34.7204 20.1886 34.8404H20.2887C21.4187 40.1604 24.7486 50.0004 27.8686 57.5004C20.7586 49.7304 13.4687 41.8304 6.47869 34.2704H6.44866ZM32.6686 61.3904C30.1386 52.3104 26.8786 43.4404 22.9186 34.8804C29.2486 34.9904 36.0986 34.9904 42.4286 34.8804C38.4686 43.4504 35.2086 52.3104 32.6686 61.3904ZM37.3986 57.6805C40.5086 50.1605 43.9185 40.2104 45.0585 34.8904H45.1286C50.6686 34.7804 55.6786 34.5805 59.3886 34.3005C52.9586 41.0305 45.4086 49.0805 37.3986 57.6805ZM50.8185 18.3804C50.8185 18.4204 50.8386 18.4605 50.8686 18.4905C53.2686 22.1105 56.2987 26.6004 59.9587 31.8504C56.6287 31.6004 52.1586 31.3905 47.1086 31.2905C48.5786 27.0505 49.8185 22.7404 50.8185 18.3804ZM48.7087 17.7104C46.9187 21.3704 45.3186 25.1304 43.9186 28.9604C40.8086 24.7904 37.6488 20.8304 35.2988 18.1904C40.3888 18.0704 44.9287 17.8904 48.7087 17.7104ZM40.7287 31.1604C35.4487 31.1004 29.8986 31.1004 24.6186 31.1604C27.5186 27.2004 30.2186 23.0804 32.6786 18.8304C35.1486 23.0804 37.8287 27.1904 40.7287 31.1604ZM25.0886 18.3804L30.0087 18.2905C27.6387 20.9105 24.5287 24.8404 21.4487 29.0004C19.8787 24.8704 18.3187 21.1104 17.0187 18.5004L25.0886 18.3804ZM14.7687 19.5004C15.4687 22.5604 16.7387 26.8004 18.2387 31.2804C13.4687 31.4004 9.18862 31.5904 5.90862 31.8404L14.7687 19.5004Z" fill="#7100D2"/>
<path d="M46.5488 4.01038C44.5788 4.12038 41.4386 7.25039 41.3086 9.21039C41.5186 9.48039 41.7588 9.7404 42.0088 9.9704C42.2088 10.1904 42.4387 10.3904 42.6787 10.5804C44.6287 10.4604 47.7687 7.32039 47.8787 5.34039C47.6687 5.07039 47.4287 4.82039 47.1787 4.59039C46.9787 4.38039 46.7688 4.19038 46.5488 4.01038Z" fill="#7100D2"/>
<path d="M18.8086 4.01038C18.5386 4.22038 18.2886 4.46039 18.0686 4.71039C17.8586 4.91039 17.6588 5.12041 17.4888 5.36041C17.5988 7.33041 20.7287 10.4704 22.6887 10.6004C22.9587 10.3904 23.2187 10.1504 23.4487 9.90039C23.6687 9.70039 23.8688 9.47041 24.0488 9.23041C23.9188 7.26041 20.7786 4.12038 18.8086 4.01038Z" fill="#7100D2"/>
<path d="M31.7387 -0.469581C30.4287 0.940419 30.4187 5.30044 31.7387 6.74044C32.0787 6.78044 32.4287 6.80042 32.7687 6.78042C33.0587 6.80042 33.3486 6.7904 33.6386 6.7604C34.9386 5.3504 34.9286 0.990439 33.6386 -0.449561C33.2986 -0.489561 32.9686 -0.5096 32.6286 -0.4896C32.3386 -0.5096 32.0387 -0.499581 31.7387 -0.469581Z" fill="#7100D2"/>
</svg>
