<svg width="30" height="28" viewBox="0 0 30 28" fill="none" xmlns="http://www.w3.org/2000/svg">
<path d="M28.103 0H2.36356C1.94002 0 1.53383 0.162823 1.23434 0.45265C0.934852 0.742477 0.766602 1.13557 0.766602 1.54544V26.4549C0.766708 26.8648 0.935006 27.2577 1.23448 27.5475C1.53396 27.8372 1.94009 28 2.36356 28H16.2206V17.157H12.45V12.9313H16.2206V9.81478C16.2206 6.19811 18.5031 4.22917 21.8369 4.22917C23.4339 4.22917 24.8062 4.34389 25.2064 4.39561V8.17522L22.8942 8.17639C21.081 8.17639 20.7302 9.01017 20.7302 10.2336V12.9317H25.0541L24.4911 17.1574H20.7302V28H28.1034C28.5268 27.9999 28.9329 27.837 29.2323 27.5472C29.5317 27.2574 29.6999 26.8644 29.6999 26.4546V1.54544C29.6999 1.13557 29.5317 0.742477 29.2322 0.45265C28.9327 0.162823 28.5265 0 28.103 0Z" fill="#54819C"/>
</svg>
