<svg width="29" height="28" viewBox="0 0 29 28" fill="none" xmlns="http://www.w3.org/2000/svg">
<g clip-path="url(#clip0)">
<g clip-path="url(#clip1)">
<rect x="2" y="3" width="25" height="25" fill="white"/>
<path d="M25.6679 0H2.7994C1.40031 0 0.233643 1.16667 0.233643 2.56576V25.4342C0.233643 26.8333 1.40031 28 2.7994 28H14.2336V16.3333H10.7336V12.8333H14.2336V9.33333C14.2336 6.41667 15.4003 4.66667 18.9003 4.66667H22.4003V8.16667H20.8827C19.8346 8.16667 18.9003 9.10091 18.9003 10.1491V12.8333H23.567L22.9836 16.3333H18.9003V28H25.6679C27.067 28 28.2336 26.8333 28.2336 25.4342V2.56576C28.2336 1.16667 27.067 0 25.6679 0Z" fill="#17405C"/>
</g>
</g>
<defs>
<clipPath id="clip0">
<rect width="28" height="28" fill="white" transform="translate(0.233643)"/>
</clipPath>
<clipPath id="clip1">
<rect width="28" height="28" fill="white" transform="translate(0.233643)"/>
</clipPath>
</defs>
</svg>
