<svg width="411" height="1980" viewBox="0 0 411 1980" fill="none" xmlns="http://www.w3.org/2000/svg">
<path d="M-272.86 75.3469C-267.771 71.0234 -263.951 74.5044 -260.28 80.2032C-253.467 90.781 -244.636 82.8463 -236.507 86.2086L-237.373 97.6966L-224.787 88.3309L-225.925 86.726C-217.743 85.4545 -209.568 84.0805 -201.379 82.9435C-194.5 81.9884 -187.609 81.2707 -180.72 80.517C-168.72 79.2047 -156.728 77.4495 -144.713 76.8523C-137.637 76.5006 -130.521 77.9406 -123.429 78.7207C-112.844 79.8843 -102.276 81.7227 -91.6798 82.2661C-80.2213 82.8539 -68.7396 82.3085 -57.2684 82.17C-56.3621 82.1591 -54.9072 80.6957 -54.6341 81.199C-43.3685 101.964 -30.3434 81.6985 -18.1842 85.0157C-6.48819 87.3101 5.31107 87.9504 17.0771 86.929C19.149 86.8996 21.1949 82.1702 21.4852 81.8091L79.7134 74.5013C77.7478 78.7854 76.4507 81.6125 75.1544 84.4377C86.1603 92.4217 113.794 87.6047 119.175 78.0969C128.593 80.7094 137.4 82.7403 146.088 85.6769C154.928 88.6649 163.661 85.8762 172.414 85.3507C181.669 84.7949 190.893 82.8839 200.129 81.5236C200.734 81.4346 201.414 80.5293 201.898 80.7853C217.294 88.9194 231.674 77.8344 246.514 75.1121C256.098 73.3542 267.243 68.8548 275.131 74.6027C283.732 80.8707 289.856 77.8587 297.701 75.6105C304.554 88.3861 313.576 81.2851 320.805 79.8929C328.883 94.4195 338.539 86.0358 347.436 87.9408C347.669 90.7013 347.928 93.7859 348.27 97.8558H395.347C394.385 101.567 393.615 104.536 391.791 111.568C430.84 116.941 469.068 122.201 507.425 127.479C501.588 140.415 508.185 144.534 515.131 146.953C521.556 149.19 528.209 149.74 534.974 151.075C535.482 160.002 543.016 164.786 560.258 165.063C557.227 174.939 554.422 184.075 551.617 193.212L547.801 197.821L560.382 216.063L544.563 252.198C547.625 271.161 557.926 268.433 566.724 268.594C596.314 269.135 625.909 268.904 655.503 268.956C666.179 268.975 676.855 268.959 688.305 268.959C682.875 245.488 678.452 226.369 674.252 208.217C685.954 212.409 696.171 216.092 706.403 219.657C706.855 219.814 707.454 218.892 707.984 218.472C711.587 237.306 726.95 236.439 731.152 253.904C732.29 258.636 731.838 264.351 732.33 273.678C755.351 274.77 778.432 274.089 801.285 277.425C826.677 281.132 852.318 286.834 873.61 312.381C877.831 318.512 880.497 326.92 881.098 336.001C883.854 375.611 873.923 410.61 863.149 444.56C856.18 466.524 847.281 486.901 839.597 508.311C838.458 511.485 839.753 516.682 839.037 520.518C837.651 526.795 836.051 532.946 834.246 538.943C835.196 539.597 837.165 540.952 840.581 543.303C837.247 546.697 835.104 550.699 832.833 550.893C818.034 552.162 803.213 560.482 788.337 549.962C785.341 547.843 781.023 550.65 777.307 550.982C774.035 551.274 770.121 558.285 767.64 548.505C767.324 547.258 764.889 547.164 763.411 546.934C730.797 541.86 700.889 557.761 671.476 577.484C669.831 578.292 668.371 579.861 667.28 581.994C688.882 581.994 710.484 581.998 732.087 582.004C770.567 582.106 809.162 579.37 847.491 583.304C879.664 586.607 911.639 596.964 941.169 620.346C943.751 622.137 946.401 623.672 949.101 624.942C959.725 630.871 963.536 640.694 964.099 658.572C965.257 695.383 956.592 728.155 948.293 760.991C944.952 774.212 938.265 785.709 936.266 799.197C934.928 808.228 934.333 814.585 929.802 821.718C927.173 825.857 930.457 838.556 929.548 846.979C928.937 852.634 925.643 857.545 923.316 863.374L929.249 867.601C928.804 869.299 928.651 870.797 928.356 870.872C918.481 874.022 908.51 876.353 898.485 877.857C890.911 878.518 883.234 874.949 875.578 874.562C810.101 871.256 744.622 868.115 679.139 865.141C641.666 863.355 604.194 861.538 566.722 859.691C564.554 859.587 562.383 859.677 558.607 859.677C593.011 867.979 625.79 875.773 658.546 883.819C705.447 895.34 752.31 907.282 799.247 918.417C806.414 919.366 813.621 919.214 820.77 917.965C821.819 917.887 823.167 915.539 823.734 913.726C825.902 906.793 826.706 898.124 833.512 898.24C834.166 898.251 834.864 891.7 835.845 886.624C839.362 887.585 842.766 889.408 845.937 892.029C862.032 911.068 879.195 928.542 893.277 950.94C903.495 967.193 914.347 986.649 912.028 1014.3C911.828 1016.67 913.853 1019.33 914.183 1022.06C915.488 1032.84 916.574 1043.69 917.625 1054.55C917.81 1056.45 917.053 1058.68 917.377 1060.46C921.723 1084.28 914.063 1097.42 901.508 1105.72C893.116 1112.07 884.378 1117.16 875.404 1120.93C861.566 1125.56 858.986 1128.18 855.774 1152.69C873.669 1156.44 891.643 1159.1 909.351 1164.15C952.061 1176.34 994.744 1188.89 1037.24 1202.84C1056.2 1208.79 1074.84 1217.2 1092.95 1227.98C1103.86 1234.67 1113.14 1248.44 1122.9 1259.59C1128.25 1264.91 1133.07 1271.51 1137.19 1279.16C1144.52 1294.94 1145.68 1329.66 1136.23 1337.42C1125.37 1346.34 1130.19 1358.74 1128.89 1368.24C1125.49 1393.03 1116.5 1409.05 1102.33 1414.32C1093.26 1417.7 1094.67 1430.12 1090.12 1436.9C1084.66 1446.06 1079.69 1455.95 1075.26 1466.46C1073.22 1470.76 1071.55 1475.52 1068.2 1483.8C1059 1483.25 1046.83 1492.59 1034.76 1475.71C1029.34 1468.13 1019.38 1468.92 1011.5 1465.83C1009.43 1465.02 1007.41 1463.91 1007.06 1463.74C999.68 1485.61 992.228 1506.62 985.473 1528.2C982.355 1538.16 978.866 1543.5 971.294 1543.63C908.395 1544.67 845.501 1547.4 782.604 1547.55C723.75 1547.69 665.759 1557.09 608.636 1582.32C623.968 1584.06 639.306 1585.65 654.629 1587.58C673.668 1589.97 692.44 1593.57 708.844 1611.87C712.717 1616.19 718.877 1622.13 719.966 1605.28L722.409 1603.88C729.116 1617.49 735.824 1631.09 743.734 1647.13C747.928 1626.14 766.664 1641.19 766.645 1613.98C772.085 1619.74 775.803 1627.23 782.571 1619.51C784.312 1617.52 792.477 1623.06 797.491 1630.88C804.1 1641.19 815.005 1644.42 823.967 1650.63C821.023 1653.62 817.665 1657.02 814.477 1660.25C821.259 1660.85 827.361 1661.39 833.464 1661.93C833.593 1663.74 833.721 1665.55 833.85 1667.36L827.719 1672.65C833.13 1678.86 838.623 1685.17 844.116 1691.47L845.248 1688.84C843.129 1686.21 841.009 1683.58 840.329 1682.74C837.126 1672.77 850.799 1666.08 839.732 1657.25C846.266 1657.43 853.203 1655.51 856.544 1666.44C862.57 1667.74 868.741 1669.06 874.912 1670.39L875.631 1673.74C867.515 1680.07 859.399 1686.4 851.283 1692.73L852.041 1697.08C855.72 1697.08 859.908 1698.91 862.98 1696.72C870.967 1691.03 878.387 1683.32 886.214 1676.99C888.047 1675.51 891.571 1674.73 892.605 1676.38C893.687 1677.96 894.558 1679.87 895.166 1682C895.773 1684.14 896.104 1686.44 896.138 1688.79C895.561 1694.32 892.867 1699.29 890.515 1706.14L877.362 1692.65C876.912 1700.58 876.912 1700.58 897.821 1721.54C897.398 1727.44 896.998 1733 896.448 1740.66C893.554 1737.4 890.373 1733.81 886.117 1729.01C885.678 1732.68 884.333 1737.72 885.091 1738.73C887.436 1741.89 890.829 1745.94 893.37 1745.27C901.307 1743.2 905.05 1748.34 906.88 1761.15C904.567 1761.96 902.208 1764.13 900.727 1763.09C893.588 1758.37 886.667 1752.84 880.015 1746.56C872.978 1739.55 867.934 1741 864.883 1750.9L837.307 1735.64C835.229 1737.79 832.898 1739.23 830.458 1739.87C809.793 1740.93 789.114 1741.18 768.446 1742.09C764.738 1742.79 761.075 1744.02 757.501 1745.75C762.115 1751.51 765.239 1755.42 768.282 1759.22L775.213 1746.54L777.242 1748.35C777.062 1751.44 776.882 1754.52 776.678 1758.01C779.968 1760.2 783.387 1761.85 786.885 1762.94C789.545 1762.71 792.149 1761.63 794.546 1759.77C795.349 1759.34 795.887 1757.25 796.65 1757.08C804.128 1755.35 811.627 1753.87 819.109 1752.34C817.59 1758.83 816.079 1765.31 814.577 1771.78C813.071 1769.82 811.565 1767.86 810.059 1765.9H826.709L827.119 1762.25C824.411 1758.97 821.703 1755.69 818.995 1752.42C824.595 1743.52 830.508 1744.58 833.021 1754.92C835.848 1766.55 839.538 1769.4 846.637 1765.54C848.104 1764.74 849.953 1763.04 851.084 1763.8C859.229 1769.38 868.328 1770.26 876.832 1766.3C878.748 1765.48 881.512 1769.76 883.886 1771.69C881.477 1774.36 879.089 1779.22 876.655 1779.28C868.617 1779.49 860.563 1777.92 852.513 1777.09C846.662 1776.5 840.806 1776 834.952 1775.46C834.799 1777.37 834.646 1779.29 834.493 1781.2C842.975 1782.52 851.457 1783.84 861.636 1785.42L854.342 1795.91C847.604 1789.37 841.589 1784.36 833.505 1790.27C829.982 1792.84 824.763 1789.47 820.315 1788.8L820.336 1784.11C824.044 1783.24 827.752 1782.37 831.46 1781.51L831.833 1777.5C828.505 1777.28 825.174 1776.8 821.85 1776.9C817.36 1777.03 812.847 1778.27 808.396 1777.79C804.335 1776.95 800.316 1775.65 796.369 1773.9C796.162 1775.27 795.954 1776.64 795.747 1778.01L817.222 1785.86C806.108 1795.28 792.169 1779.84 782.09 1800.64C789.098 1801.49 795.543 1802.86 801.991 1802.89C809.413 1802.94 816.852 1801.01 824.258 1801.36C835.588 1801.9 846.898 1803.6 858.206 1805.02C859.221 1805.15 860.954 1806.75 861.008 1807.84C861.567 1819.07 866.369 1817.61 871.157 1817.53C873.946 1817.69 876.594 1819.53 878.571 1822.68C869.927 1822.68 858.707 1828.11 853.23 1821.43C844.617 1810.93 835.611 1817.86 827.474 1811.97C820.017 1806.57 808.41 1819.37 806.481 1834.03C809.706 1835.3 812.979 1836.24 816.28 1836.83C819.197 1836.74 822.105 1836.28 824.975 1835.43L825.389 1839.19C817.531 1841.42 809.674 1843.65 801.816 1845.88L801.734 1849.48H822.723L821.611 1851.78C823.954 1853.58 826.297 1855.39 830.901 1858.93H818.001L817.581 1862.14C821.638 1863.29 827.063 1867.7 829.52 1865.04C840.851 1852.8 850.157 1864.2 860.148 1871.37C854.822 1872.39 849.496 1873.4 844.17 1874.42C844.216 1876.12 844.262 1877.81 844.308 1879.5C847.403 1880.27 850.498 1881.03 854.846 1882.1C853.006 1885.87 851.756 1888.44 849.761 1892.54C888.127 1893.02 925.498 1893.36 962.827 1907.46C963.08 1911.42 963.451 1917.21 963.748 1921.84C955.879 1924 948.209 1926.11 940.507 1928.22C935.589 1920.61 931.334 1916.52 923.129 1920.89C915.605 1924.89 906.315 1920.71 897.83 1919.6C893.265 1919 888.756 1917.28 884.221 1916.07L883.524 1921.09L963.684 1957.56C963.374 1964.25 963.025 1971.77 962.643 1980C961.041 1976.75 959.544 1973.72 958.11 1970.81C952.259 1975.42 940.45 1969.37 935.672 1964.75C929.295 1958.57 921.565 1955.93 914.351 1952.08C912.978 1951.35 911.195 1952.67 909.787 1952.01C899.835 1947.38 890.015 1941.97 879.993 1937.78C862.279 1930.39 844.575 1922.64 826.611 1917.22C819.119 1914.96 810.972 1918.29 801.513 1919.23C799.348 1924.57 795.861 1932.59 789.673 1921.15C788.968 1920.29 788.139 1919.72 787.262 1919.5C786.386 1919.28 785.489 1919.42 784.654 1919.9C778.182 1930.5 771.981 1929.06 764.731 1916.26C765.016 1922.39 765.126 1924.74 765.178 1925.87C762.843 1926.98 760.465 1927.84 758.06 1928.46C752.189 1929.4 746.298 1930.35 740.405 1930.53C721.043 1931.12 701.676 1931.26 682.312 1931.79C667.309 1932.2 652.301 1932.6 637.311 1933.63C626.158 1934.4 615.038 1936.35 603.891 1937.43C598.021 1938 592.123 1937.86 586.238 1937.99C584.369 1938.03 582.206 1936.89 580.686 1938.03C576.527 1940.82 571.922 1941.41 567.539 1939.72C554.317 1936.79 540.676 1938.73 526.581 1938.73C527.076 1937.39 528.414 1933.77 529.9 1929.75C522.909 1920.41 519.796 1929.98 517.623 1934.86C497.938 1937.37 479.758 1939.7 460.836 1942.11C461.021 1940.42 461.288 1937.97 461.708 1934.13L394.912 1941.39C394.527 1937.69 394.038 1932.99 393.549 1928.29C390.294 1930.45 386.934 1932.19 383.504 1933.49C380.727 1934.22 377.724 1932.41 374.871 1932.77C358.735 1934.75 342.614 1937.05 326.488 1939.24C325.549 1937.92 324.61 1936.59 323.671 1935.27C326.251 1933.58 328.83 1931.89 331.41 1930.2L330.893 1927.04C317.509 1928.48 304.125 1929.93 290.741 1931.38C286.878 1931.4 283.586 1917.69 278.54 1932C278.237 1932.85 276.408 1932.31 275.29 1932.45C264.802 1933.77 253.898 1938.54 243.946 1935.44C234.351 1932.45 225.636 1938.37 217.063 1936.61C198.452 1932.78 180.808 1939.87 162.767 1943.09C153.082 1944.82 143.247 1944.31 133.491 1945.15C125.336 1945.85 117.197 1947.06 108.345 1948.13L109.469 1937.27C100.834 1938.01 92.5993 1938.71 83.4785 1939.48L82.2667 1929.63H33.8634C34.3246 1923.11 34.7258 1917.44 35.3511 1908.6L41.3339 1901.41C37.0512 1894.93 33.1121 1888.97 29.173 1883L25.7988 1883.37C28.8196 1872.13 32.3191 1861.24 36.2725 1850.77C42.673 1835.96 27.6175 1830.16 34.1332 1812.7C-39.976 1812.55 -111.596 1812.45 -183.216 1812.22C-224.153 1812.08 -265.091 1811.91 -306.026 1811.35C-318.299 1811.18 -322.516 1805.3 -326.511 1786.59C-336.849 1738.16 -333.904 1690.19 -324.788 1642.35C-323.381 1634.97 -322.399 1627.38 -320.929 1618.03C-332.543 1618.03 -343.481 1618.43 -354.404 1617.94C-369.35 1617.26 -373.479 1611.71 -377.972 1589.25C-387.589 1541.19 -384.853 1493.81 -375.164 1446.77C-373.362 1440.72 -371.937 1434.4 -370.91 1427.9C-370.319 1419.51 -373.991 1416.49 -379.044 1416.47C-395.314 1416.39 -411.584 1416.11 -427.854 1415.65C-448.447 1415.06 -451.159 1412.31 -457.232 1380.99C-465.807 1336.77 -461.504 1292.95 -454.623 1249.35C-452.816 1237.9 -451.723 1226.15 -449.761 1214.78C-448.586 1208.61 -446.9 1202.71 -444.748 1197.25C-440.726 1186.02 -436.312 1175.17 -431.527 1164.74C-429.278 1159.7 -425.954 1156.17 -422.186 1154.8C-407.067 1152.47 -391.859 1151.64 -376.682 1150.29C-374.504 1150.53 -372.315 1150.31 -370.174 1149.63C-368.361 1148.62 -365.981 1146.12 -365.638 1143.64C-365.68 1142.05 -365.967 1140.51 -366.474 1139.14C-366.981 1137.77 -367.692 1136.63 -368.542 1135.81C-372.492 1132.8 -375.971 1128.41 -378.727 1122.96C-381.483 1117.52 -383.447 1111.16 -384.474 1104.34C-385.334 1099.79 -391.121 1095.11 -394.747 1094.91C-405.014 1094.35 -414.436 1095.57 -417.068 1073.32C-418.44 1061.73 -425.768 1051.22 -425.873 1040.12C-426.102 1015.8 -434.652 988.602 -419.332 967.663C-418.997 967.18 -418.737 966.58 -418.571 965.909C-418.405 965.238 -418.339 964.515 -418.377 963.796C-420.792 953.103 -415.588 947.678 -413.229 939.565C-407.006 918.163 -396.044 907.358 -385.075 894.097C-373.907 880.599 -361.738 875.415 -348.99 872.316C-330.296 867.77 -311.032 868.137 -292.645 861.733C-270.655 854.075 -249.334 841.488 -227.723 831.036L-228.107 825.669C-231.095 824.53 -234.131 823.744 -237.191 823.316C-251.554 822.882 -265.925 823.088 -280.286 822.563C-307.034 821.586 -310.632 818.163 -316.172 775.539C-321.338 735.801 -317.896 696.146 -311.816 656.903C-309.651 642.929 -309.695 628.079 -308.702 613.635C-308.097 608.809 -307.759 603.907 -307.691 598.987C-308.175 594.477 -308.966 590.065 -310.048 585.831L-312.825 585.076L-296.805 555.31C-321.509 555.31 -347.588 555.622 -373.663 555.202C-391.455 554.916 -409.252 554 -427.025 552.631C-440.487 551.594 -444.973 545.006 -449.019 524.573C-458.6 476.195 -454.694 428.945 -445.098 381.898C-443.03 371.762 -442.459 360.864 -440.85 350.456C-440.126 345.609 -438.915 340.983 -437.266 336.758C-432.217 324.2 -427.117 311.639 -421.442 299.812C-419.357 295.567 -416.347 292.743 -413.017 291.909C-400.695 290.479 -388.298 290.759 -375.965 289.506C-371.974 288.599 -368.259 285.716 -365.341 281.26C-374.704 276.072 -380.06 255.854 -390.742 264.784C-406.978 247.915 -422.701 231.581 -439.011 214.637L-431.05 210.274L-437.716 194.779C-429.96 185.162 -423.768 162.227 -427.005 149.978C-422.342 146.776 -417.517 143.945 -412.981 140.214C-408.41 136.456 -404.666 130.842 -407.675 121.788C-413.487 104.298 -403.69 95.3503 -399.321 84.3623C-396.653 77.6542 -390.173 75.0492 -385.812 69.7424C-384.425 68.055 -384.393 63.5748 -383.657 60.423C-383.397 58.4514 -382.845 56.6094 -382.046 55.0528C-369.633 39.1019 -357.451 22.5959 -344.443 7.98495C-340.854 3.9533 -334.644 4.32006 -329.813 5.18876C-325.277 6.00432 -321.229 8.89085 -318.511 0.227348C-318.345 -0.303138 -315.453 0.138463 -315.186 1.09859C-311.69 13.6441 -302.948 10.0277 -297.547 16.2715C-295.689 19.1615 -294.138 22.5203 -292.957 26.2143C-289.391 34.5792 -286.831 45.0029 -282.074 50.8561C-276.485 57.7323 -272.86 64.6229 -272.528 75.8122C-282.282 70.6136 -292.056 65.3965 -302.983 59.5637C-298.887 81.8697 -286.129 84.3544 -276.598 91.9415C-273.08 94.7423 -267.003 89.2842 -260.734 87.1249C-266.162 81.8515 -269.511 78.5992 -272.86 75.3469ZM-273.57 224.163C-270.54 223.771 -267.5 223.632 -264.462 223.745C-260.433 224.189 -256.435 225.341 -252.424 226.189L-251.147 222.227C-253.24 218.65 -255.478 211.881 -257.398 212.105C-262.847 213.341 -268.185 215.606 -273.302 218.855C-273.673 219.048 -273.371 222.577 -273.404 224.511C-278.627 220.433 -283.768 216.011 -289.173 212.698C-289.873 212.269 -291.939 217.567 -293.372 220.212L-292.39 225.521C-286.117 225.068 -279.843 224.616 -273.57 224.163V224.163ZM-336.948 199.232C-326.669 201.363 -335.177 209.742 -334.888 217.162C-330.671 213.665 -327.616 209.269 -324.327 208.759C-315.213 207.347 -306.004 207.424 -296.829 207.178C-292.441 207.061 -287.993 208.36 -283.666 207.614C-268.03 204.917 -252.539 196.297 -236.672 205.347C-236.458 205.469 -235.964 204.333 -235.601 203.785L-238.54 208.218L-252.087 173.361L-253.587 179.545L-265.946 189.471L-267.056 185.392L-258.825 180.867C-268.541 165.913 -276.839 185.561 -288.5 180.859C-284.369 179.054 -282.258 178.442 -280.304 177.197C-278.09 175.786 -276.017 173.807 -272.201 170.71L-283.496 163.817C-282.445 146.523 -282.445 146.523 -294.032 148.335C-297.81 135.096 -297.81 135.096 -318.954 127.825C-319.452 130.335 -319.489 133.561 -320.514 135.184C-327.567 146.358 -332.295 135.824 -337.282 129.29C-343.432 136.161 -347.356 152.01 -355.846 140.219C-354.894 149.422 -353.915 158.888 -352.936 168.355C-349.801 169.944 -347.814 175.282 -345.816 180.61C-345.013 182.751 -344.186 184.868 -343.369 186.996C-341.922 185.426 -340.007 184.352 -339.115 182.192C-336.64 176.199 -334.59 169.754 -332.065 162.62C-330.433 164.923 -328.705 166.413 -328.814 167.352C-329.82 176.59 -331.122 185.738 -332.718 194.759C-333.085 196.745 -335.484 197.766 -336.948 199.232ZM-317.698 279.536L-318.279 274.361C-326.9 282.654 -335.146 284.003 -339.354 269.188C-342.612 257.717 -346.206 259.091 -349.733 262.903C-359.069 254.778 -367.498 247.443 -375.927 240.108L-377.445 243.991C-375.115 247.67 -372.557 250.962 -369.813 253.814C-363.467 259.112 -356.979 262.588 -353.072 274.377C-349.954 281.468 -345.27 286.39 -339.97 288.147C-335.152 289.955 -329.584 286.631 -324.345 285.559L-324.436 288.312C-322.19 285.386 -319.944 282.461 -317.698 279.535V279.536ZM-203.358 189.573L-206.653 178.731C-208.176 180.047 -210.701 180.872 -211.06 182.756C-213.656 196.406 -216.066 197.343 -222.916 186.23C-227.46 178.856 -231.824 179.673 -236.471 185.218C-225.125 196.691 -213.841 206.403 -200.004 200.182C-198.629 199.564 -196.696 202.518 -194.958 203.533C-190.153 206.341 -183.375 201.891 -181.982 194.872L-192.231 199.739C-192.572 193.138 -192.843 187.918 -193.115 182.659L-203.358 189.573ZM-355.481 51.7259C-346.155 61.7665 -339.175 68.5549 -332.717 76.4392C-326.3 84.2713 -323.89 69.7921 -318.841 71.026C-319.329 68.4458 -319.394 64.1779 -320.37 63.5492C-329.13 57.9099 -337.96 52.4295 -346.988 48.0668C-349.2 46.9978 -352.215 50.1983 -355.481 51.7259ZM-236.892 211.907L-238.988 215.328C-236.777 219.129 -234.825 225.578 -232.305 226.209C-225.3 227.199 -218.259 227.373 -211.238 226.73C-212.573 221.323 -213.389 213.913 -214.653 213.711C-217.937 214.087 -221.151 215.414 -224.139 217.629L-223.83 220.554C-228.184 217.672 -232.538 214.789 -236.892 211.907ZM-206.95 219.37C-201.636 231.352 -198.514 223.416 -195.675 217.388C-186.563 217.398 -178.674 229.552 -169.562 222.945C-181.774 220.005 -193.788 203.789 -206.95 219.37ZM787.4 1782.34C787.456 1780.72 787.511 1779.1 787.567 1777.48C779.676 1776.77 771.784 1776.06 760.994 1775.09C766.696 1783.08 778.184 1778.32 769.524 1798.23C776.048 1796 779.956 1794.67 784.489 1793.13L776.022 1785.28L776.832 1782.34H787.4ZM-304.545 96.1332L-305.262 89.389C-310.777 92.0807 -318.015 80.3776 -321.894 96.018C-322.192 97.2217 -321.232 99.2273 -320.35 103.068C-318.872 99.3039 -318.124 97.4024 -318.561 98.514C-313.144 97.594 -308.844 96.8635 -304.545 96.1332Z" fill="url(#paint0_linear_285_3140)"/>
<defs>
<linearGradient id="paint0_linear_285_3140" x1="-462" y1="989.999" x2="1143" y2="989.999" gradientUnits="userSpaceOnUse">
<stop offset="0.0042" stop-color="#FFDC17"/>
<stop offset="0.10825" stop-color="#F9D320"/>
<stop offset="0.27722" stop-color="#E9BB38"/>
<stop offset="0.49003" stop-color="#D0945F"/>
<stop offset="0.73834" stop-color="#AC5E96"/>
<stop offset="1" stop-color="#811DD7"/>
</linearGradient>
</defs>
</svg>
