<svg width="74" height="67" viewBox="0 0 74 67" fill="none" xmlns="http://www.w3.org/2000/svg">
<path d="M1.02028 15.2882C1.12028 15.4582 1.24038 15.6182 1.37038 15.7682L1.57033 15.9881L1.67031 16.0882L8.02028 22.4881L9.62038 24.0882L10.4203 24.8781L10.6703 25.1181C10.8203 25.2581 10.9703 25.3781 11.1403 25.4981C11.4803 25.7281 11.8504 25.8982 12.2404 26.0082C13.0204 26.2282 13.8504 26.2081 14.6204 25.9281C15.0004 25.7881 15.3503 25.5982 15.6703 25.3482C15.7503 25.2882 15.8203 25.2182 15.9003 25.1482L16.0703 24.9881L16.2703 24.7882L17.8303 23.2082C21.9603 18.9982 25.8804 14.9282 29.2604 11.3282L30.5004 10.0082L31.1503 9.30814C32.2503 8.06814 32.2703 6.20816 31.2003 4.94816L30.9704 4.71818L30.8203 4.57816L30.5203 4.31815L29.9403 3.79813L27.7604 1.87815L27.6204 1.75815L27.4103 1.58817C27.2603 1.47817 27.1103 1.37813 26.9403 1.29813C26.6203 1.13813 26.2803 1.04815 25.9303 1.00815C25.3003 0.958154 24.6703 1.10817 24.1403 1.45817C23.7503 1.71817 23.8903 2.31816 24.3303 2.69816C24.5703 2.94816 24.8503 3.13816 25.1703 3.26816C25.3203 3.21816 25.4903 3.21816 25.6403 3.26816C25.7103 3.29816 25.7803 3.32815 25.8403 3.37815L25.9203 3.45817V3.50815L26.0203 3.61814L27.9403 5.78818L28.4603 6.36814L28.7204 6.66819L28.8604 6.81815C28.9004 6.89815 28.9004 6.98815 28.8604 7.06815L26.8604 8.91819C23.2604 12.2782 19.1803 16.1882 14.9503 20.3182L13.3604 21.8681L13.3203 21.9082L12.5603 21.1482L10.9603 19.5481L4.63039 13.2782L6.98036 10.9281L7.35036 10.5382L7.44032 10.4381L7.76039 10.7381L9.23036 12.1582L12.0803 14.7882L12.1503 14.8581C12.8303 15.5081 13.9103 15.4781 14.5603 14.7981L14.5703 14.7882C18.9403 10.1682 22.3803 6.38815 24.6403 3.68815C24.8103 3.47815 24.6403 2.98817 24.1903 2.58817C23.7403 2.19817 23.4003 2.09814 23.2103 2.24814C20.7603 4.28814 17.4204 7.28815 13.3704 11.0682L11.8604 9.45817L10.4704 7.98813L10.1104 7.61814C10.1104 7.61814 9.92031 7.42815 9.80031 7.31815C8.50031 6.21815 6.61036 6.13815 5.23036 7.12815C5.08036 7.23815 4.93031 7.35813 4.80031 7.48813L4.60036 7.68815L4.21034 8.05814L2.6603 9.56815L1.90029 10.3282C1.76029 10.4782 1.70039 10.5181 1.38039 10.8681C1.13039 11.1681 0.930291 11.5081 0.780291 11.8781C0.480291 12.6181 0.430369 13.4282 0.610369 14.1982C0.680369 14.5782 0.820281 14.9482 1.02028 15.2882Z" fill="#7100D2"/>
<path d="M62.3803 33.3281L58.7905 29.5481L53.9604 24.5481L51.3903 21.9681L50.1003 20.6481C49.9103 20.4481 49.6003 20.1581 49.3403 19.8881C49.0503 19.6281 48.7504 19.3881 48.4304 19.1681C47.0104 18.1081 45.2304 17.6281 43.4604 17.8281C41.8004 18.1081 40.2705 18.8681 39.0405 20.0181C38.7705 20.2581 38.5205 20.5081 38.2805 20.7781L37.6003 21.4481L36.2404 22.8181L33.5203 25.5381L32.1603 26.8981L32.0004 27.0581L31.9103 27.1381C31.8503 27.1981 31.7804 27.2481 31.7104 27.2881C31.5704 27.3781 31.4303 27.4681 31.2803 27.5281C30.1103 27.9681 28.8004 27.3781 28.3504 26.2081C28.0704 25.4681 28.1904 24.6381 28.6804 24.0181L38.5204 13.9081L40.7905 11.5381C42.5605 9.71814 45.1003 8.8881 47.6003 9.3181L48.1603 9.42809L48.7404 9.58812C49.2604 9.74812 49.8103 9.8481 50.3503 9.8781C51.3603 9.9381 52.3705 9.78809 53.3205 9.42809C54.1505 9.10809 54.9203 8.64809 55.5903 8.05809C56.1303 7.56809 56.6303 7.03814 57.1003 6.47814C57.3403 6.20814 57.1804 5.6381 56.7504 5.2481C56.3204 4.8581 55.8803 4.78811 55.6303 5.00811C55.1703 5.43811 54.6803 5.84814 54.1703 6.22814C53.6603 6.56814 53.1004 6.82809 52.5104 6.98809C51.8904 7.14809 51.2403 7.18813 50.6003 7.09813C50.2803 7.04813 49.9603 6.95812 49.6503 6.83812L48.9504 6.58812C48.7004 6.50812 48.4404 6.4481 48.1904 6.3781C45.9404 5.8481 43.5804 6.04812 41.4504 6.95812C40.3004 7.45812 39.2403 8.14811 38.3303 9.00811L35.9203 11.2781L30.9203 16.1481L28.3204 18.6781L27.0004 19.9681L26.3404 20.6181L26.0104 20.9481C25.9004 21.0581 25.7104 21.2681 25.5704 21.4281C23.3204 24.1081 23.6704 28.1181 26.3504 30.3681C28.1604 31.8781 30.6504 32.2681 32.8304 31.3781C33.2704 31.1881 33.6804 30.9481 34.0604 30.6781C34.2604 30.5481 34.4403 30.3981 34.6203 30.2381L34.8803 29.9981L36.4203 28.4581L39.1403 25.7381L40.4904 24.3781L41.1603 23.6981C41.3903 23.4581 41.5504 23.3181 41.7604 23.1181C42.3904 22.4981 43.1705 22.0781 44.0305 21.8881C44.7805 21.8081 45.5403 22.0181 46.1403 22.4881C46.5503 22.7681 46.9305 23.0981 47.2805 23.4581L48.6003 24.7481L51.2004 27.2781L56.2004 32.1081L60.8903 36.5781L61.9304 37.6581L62.4704 38.1681C62.5804 38.2781 62.6905 38.3881 62.7805 38.5181C63.1605 39.0081 63.3603 39.6081 63.3603 40.2281C63.3603 41.4281 62.6304 42.4981 61.5204 42.9481C61.1604 43.0881 60.7803 43.1581 60.4003 43.1481L59.8903 42.6681C59.0103 41.8581 58.1405 41.0981 57.3205 40.3981C55.9905 39.2381 54.5605 38.1881 53.0405 37.2881C52.9605 37.2381 52.5703 37.5481 52.1703 37.9581C51.7703 38.3681 51.5703 38.6581 51.6203 38.7181C52.5403 40.2281 53.5904 41.6381 54.7704 42.9581C55.4704 43.7781 56.2505 44.6381 57.0405 45.5081L58.2905 46.8181L58.6103 47.1481C58.7103 47.2381 58.8003 47.3381 58.8803 47.4381C58.9903 47.5581 59.0803 47.6781 59.1603 47.8181C59.4903 48.3681 59.5904 49.0281 59.4304 49.6581C59.2704 50.2781 58.8903 50.8081 58.3703 51.1681C57.8603 51.5081 57.2503 51.6881 56.6403 51.6781C56.5103 51.6881 56.3704 51.6881 56.2404 51.6781C56.0604 51.3081 55.8403 50.9681 55.5903 50.6481C55.3803 50.3781 55.1503 50.1281 54.8903 49.8881L54.3603 49.4381L53.3205 48.5981C52.2405 47.6881 51.0705 46.8981 49.8205 46.2481C49.5005 46.4281 49.2204 46.6681 48.9804 46.9481C48.5904 47.3681 48.3803 47.6481 48.4103 47.7081C49.0903 48.9481 49.9003 50.1081 50.8403 51.1681L51.7104 52.1781L52.1703 52.6881C52.2503 52.7881 52.3203 52.8981 52.3903 53.0081C52.6603 53.4381 52.7804 53.9481 52.7504 54.4581C52.6904 55.4881 52.0305 56.3981 51.0605 56.7781C50.5305 56.9781 49.9603 57.0481 49.3903 56.9781L49.3403 56.8981C48.9903 56.4281 48.5703 56.0181 48.1103 55.6681C47.7603 55.3981 47.4203 55.1481 47.1003 54.9081C46.5403 54.5081 45.9603 54.1381 45.3503 53.8181C45.0203 53.9881 44.7304 54.2181 44.4904 54.4981C44.0904 54.9081 43.8803 55.1881 43.9203 55.2581C44.2403 55.8681 44.6104 56.4481 45.0104 57.0081C45.4804 57.5881 45.9105 58.2081 46.3005 58.8581C46.7705 59.9181 46.4505 61.1681 45.5405 61.8881C44.8605 62.4081 43.9603 62.5381 43.1603 62.2381C43.0303 62.1881 42.9005 62.1281 42.7805 62.0681C42.7105 62.0381 42.6503 62.0081 42.5903 61.9581C42.5203 61.9181 42.4403 61.8681 42.3803 61.8081C41.2003 60.7781 39.9105 59.8581 38.5505 59.0881C38.2205 59.2681 37.9203 59.4981 37.6703 59.7881C37.2603 60.2081 37.0503 60.4981 37.0803 60.5481C37.8603 61.9081 38.7705 63.1981 39.8005 64.3781C39.8605 64.4581 40.0003 64.5981 40.1203 64.7181C40.2403 64.8481 40.3704 64.9681 40.5104 65.0781C40.7904 65.3081 41.0903 65.5181 41.4003 65.6981C42.0703 66.0681 42.8005 66.3181 43.5605 66.4081C46.9005 66.8181 49.9503 64.4481 50.3703 61.1081C50.4003 60.8581 50.4103 60.6081 50.4103 60.3481C50.8703 60.4081 51.3305 60.4081 51.7905 60.3481C53.1105 60.1581 54.3204 59.5181 55.2304 58.5481C56.1804 57.5281 56.7603 56.2181 56.8603 54.8281C57.9303 54.9981 59.0204 54.8581 60.0104 54.4281C61.5404 53.7481 62.7305 52.4681 63.2805 50.8781C63.8805 49.1481 63.6804 47.2381 62.7404 45.6781C62.6604 45.5381 62.5504 45.4081 62.4704 45.2681C63.4404 44.9581 64.3104 44.3781 64.9804 43.5981C65.7504 42.6881 66.2205 41.5481 66.3105 40.3581C66.4105 39.0581 66.0703 37.7681 65.3503 36.6881C65.1603 36.4181 64.9504 36.1681 64.7204 35.9281L64.3603 35.5481C67.7103 33.5081 72.5304 28.4381 73.5004 25.7881C73.2904 25.4681 73.0404 25.1781 72.7404 24.9381C72.5204 24.6881 72.2704 24.4781 71.9804 24.3181C69.4604 25.2481 64.4503 30.0381 62.3803 33.3281Z" fill="#7100D2"/>
<path d="M36.3705 59.3482C36.7305 59.7082 37.0805 59.9282 37.1805 59.8482C38.1705 59.0782 38.8306 57.9682 39.0306 56.7282C39.3106 55.0082 38.7905 53.2482 37.6105 51.9482C36.9305 51.1982 36.0805 50.6382 35.1305 50.3082C34.5305 50.1082 33.9005 49.9982 33.2705 49.9882V49.7582C33.3205 48.8382 33.1505 47.9182 32.7705 47.0782C31.7705 44.8982 29.5505 43.5382 27.1605 43.6382V43.1182C27.0405 40.8682 25.6305 38.8882 23.5405 38.0382C22.7705 37.7282 21.9506 37.5782 21.1206 37.6082C21.1706 36.6882 21.0006 35.7682 20.6206 34.9282C20.1806 33.9782 19.5005 33.1582 18.6405 32.5582C16.3605 30.9782 13.3005 31.1382 11.1805 32.9382L11.1106 32.9982C9.3006 30.1982 5.4506 26.6382 3.2406 26.0282C2.9306 26.2382 2.65051 26.4982 2.40051 26.7882C2.16051 27.0082 1.95051 27.2682 1.77051 27.5482C2.38051 29.7482 5.90056 33.6082 8.70056 35.3882L7.79053 36.2782C6.86053 37.2082 6.25052 38.4082 6.03052 39.6982C5.82052 40.9682 6.01055 42.2682 6.56055 43.4182C7.09055 44.5282 7.94062 45.4582 9.01062 46.0782C9.54062 46.3882 10.1106 46.6182 10.7106 46.7482C10.6206 47.0782 10.5605 47.4182 10.5205 47.7582C10.3905 49.1982 10.7605 50.6282 11.5605 51.8282C12.3305 52.9682 13.4605 53.8282 14.7805 54.2582C15.9205 54.6282 17.1405 54.6582 18.2905 54.3382C18.3905 54.7682 18.5306 55.1782 18.7106 55.5682C19.2406 56.6782 20.0905 57.6082 21.1505 58.2282C22.1405 58.8182 23.2806 59.1082 24.4406 59.0682C24.8006 59.0482 25.1705 58.9982 25.5205 58.9082C25.5605 59.1282 25.6105 59.3482 25.6705 59.5582C25.9905 60.5882 26.5806 61.5182 27.3706 62.2582C28.1106 62.9382 29.0106 63.4282 29.9906 63.6782C31.6906 64.1082 33.4905 63.7382 34.8905 62.6782C35.1705 62.4482 35.4205 62.1982 35.6505 61.9182C35.8605 61.6682 35.9805 61.4982 36.1305 61.2882C36.4105 60.8982 36.6605 60.5282 36.8905 60.1982C36.9505 60.0982 36.6606 59.6882 36.2306 59.2782C35.8106 58.8782 35.4705 58.6682 35.4105 58.7282C35.0805 58.9382 34.7107 59.1882 34.3207 59.4882C34.1307 59.6182 33.9006 59.8082 33.7406 59.9082C33.5906 60.0082 33.4306 60.0882 33.2606 60.1582C32.5506 60.4482 31.7405 60.4482 31.0305 60.1582C30.2805 59.8482 29.7105 59.2082 29.5205 58.4182C29.3405 57.6082 29.5906 56.7682 30.1906 56.1882L31.7506 54.6182C32.0406 54.3382 32.3905 54.1382 32.7805 54.0382C33.5705 53.8282 34.4207 54.0082 35.0507 54.5182C35.6507 55.0182 36.0205 55.7282 36.0905 56.4982C36.1505 57.1782 36.0106 57.8682 35.7006 58.4782C35.6606 58.5582 35.9705 58.9582 36.3705 59.3482ZM12.3306 43.2182C11.4106 43.1382 10.6206 42.5482 10.2606 41.7082C9.91062 40.8482 10.1106 39.8582 10.7606 39.1882L12.6106 37.3082L13.5405 36.3582L13.7705 36.1282L13.9105 35.9982C13.9905 35.9182 14.0805 35.8482 14.1705 35.7782C14.9305 35.2482 15.9206 35.1882 16.7406 35.6082C17.1306 35.8182 17.4706 36.1082 17.7306 36.4682C18.1406 37.0282 18.3106 37.7182 18.2106 38.4082C18.1206 38.4582 18.0206 38.4982 17.9406 38.5482C17.6506 38.7382 17.3806 38.9482 17.1206 39.1782L16.8206 39.4582L16.5605 39.7082C15.3905 40.8282 14.2005 41.9782 13.0205 43.1582C12.8005 43.2082 12.5706 43.2282 12.3306 43.2182ZM19.9906 48.3882C19.4806 48.9082 19.0706 49.5082 18.7606 50.1582L18.6006 50.2682C18.5006 50.3382 18.4005 50.4082 18.2905 50.4682C18.0705 50.5782 17.8406 50.6582 17.5906 50.7082C16.5806 50.9282 15.5306 50.4882 14.9806 49.6082C14.7206 49.1482 14.6105 48.6182 14.6805 48.0982C14.7505 47.5882 14.9706 47.1182 15.3306 46.7482C16.7206 45.3582 18.1005 43.9382 19.4205 42.5682L19.6705 42.3082L19.8806 42.0982C20.1406 41.8182 20.4706 41.6182 20.8306 41.4882C21.3206 41.3182 21.8506 41.2982 22.3406 41.4382C23.3006 41.7182 24.0405 42.4782 24.2805 43.4482C24.3605 43.7682 24.3906 44.0982 24.3706 44.4282L24.1405 44.5382C23.8705 44.6982 23.6206 44.8682 23.3806 45.0682L23.0405 45.3682L22.8105 45.5982L21.8706 46.5282L19.9906 48.3882ZM30.3806 50.6582C29.8806 50.8982 29.4206 51.2182 29.0006 51.5882C28.7606 51.7982 28.6506 51.9082 28.5106 52.0482L28.1006 52.4482L27.2705 53.2482C26.7605 53.7782 26.3405 54.3882 26.0305 55.0582L25.7805 55.1782C25.3705 55.3482 24.9306 55.4182 24.4906 55.3782C23.5706 55.2982 22.7805 54.7082 22.4205 53.8682C22.0705 53.0082 22.2605 52.0082 22.9205 51.3482L24.7705 49.4682L25.6605 48.5182L25.8905 48.2882L26.0305 48.1582C26.1105 48.0782 26.2005 48.0082 26.2905 47.9382C27.0505 47.4082 28.0406 47.3482 28.8606 47.7682C29.2506 47.9782 29.5906 48.2682 29.8506 48.6282C30.0906 48.9882 30.2606 49.3882 30.3306 49.8082C30.3806 50.0782 30.4006 50.3582 30.3806 50.6382V50.6582Z" fill="#7100D2"/>
</svg>
