<svg width="74" height="66" viewBox="0 0 74 66" fill="none" xmlns="http://www.w3.org/2000/svg">
<path d="M1.01711 14.2894C1.11711 14.4594 1.2372 14.6194 1.3672 14.7694L1.56716 14.9894L1.66713 15.0894L8.01711 21.4894L9.6172 23.0894L10.4171 23.8794L10.6671 24.1194C10.8171 24.2594 10.9671 24.3794 11.1371 24.4994C11.4771 24.7294 11.8472 24.8994 12.2372 25.0094C13.0172 25.2294 13.8472 25.2094 14.6172 24.9294C14.9972 24.7894 15.3471 24.5994 15.6671 24.3494C15.7471 24.2894 15.8171 24.2194 15.8971 24.1494L16.0672 23.9894L16.2671 23.7894L17.8272 22.2094C21.9572 17.9994 25.8772 13.9294 29.2572 10.3294L30.4972 9.00937L31.1471 8.30936C32.2471 7.06936 32.2672 5.20938 31.1972 3.94938L30.9672 3.7194L30.8172 3.57938L30.5171 3.31937L29.9372 2.79935L27.7572 0.87937L27.6172 0.759374L27.4071 0.589392C27.2571 0.479392 27.1072 0.379353 26.9372 0.299352C26.6172 0.139353 26.2771 0.0493745 25.9271 0.00937448C25.2971 -0.0406255 24.6671 0.109387 24.1371 0.459387C23.7471 0.719387 23.8872 1.31938 24.3272 1.69938C24.5672 1.94938 24.8471 2.13938 25.1671 2.26938C25.3171 2.21938 25.4871 2.21938 25.6371 2.26938C25.7071 2.29938 25.7772 2.32937 25.8372 2.37937L25.9171 2.45939V2.50937L26.0171 2.61936L27.9372 4.7894L28.4572 5.36936L28.7172 5.66941L28.8572 5.81937C28.8972 5.89937 28.8972 5.98937 28.8572 6.06937L26.8572 7.91941C23.2572 11.2794 19.1772 15.1894 14.9472 19.3194L13.3572 20.8694L13.3172 20.9094L12.5571 20.1494L10.9572 18.5494L4.62721 12.2794L6.97719 9.92936L7.34719 9.5394L7.43715 9.43937L7.75722 9.73936L9.22719 11.1594L12.0772 13.7894L12.1471 13.8594C12.8271 14.5093 13.9071 14.4794 14.5571 13.7994L14.5672 13.7894C18.9372 9.1694 22.3771 5.38937 24.6371 2.68937C24.8071 2.47937 24.6372 1.98939 24.1872 1.58939C23.7372 1.19939 23.3972 1.09936 23.2072 1.24936C20.7572 3.28936 17.4172 6.28937 13.3672 10.0694L11.8572 8.45939L10.4672 6.98936L10.1072 6.61936C10.1072 6.61936 9.91714 6.42937 9.79714 6.31937C8.49714 5.21937 6.60719 5.13937 5.22719 6.12937C5.07719 6.23937 4.92714 6.35935 4.79714 6.48936L4.59719 6.68937L4.20717 7.05936L2.65712 8.56937L1.89711 9.32938C1.75711 9.47938 1.69721 9.51936 1.37721 9.86936C1.12721 10.1694 0.927117 10.5094 0.777117 10.8794C0.477117 11.6194 0.427195 12.4294 0.607195 13.1994C0.677195 13.5794 0.817107 13.9494 1.01711 14.2894Z" fill="white"/>
<path d="M62.3771 32.3294L58.7873 28.5494L53.9572 23.5494L51.3871 20.9694L50.0971 19.6494C49.9071 19.4494 49.5971 19.1594 49.3371 18.8894C49.0471 18.6294 48.7472 18.3894 48.4272 18.1694C47.0072 17.1094 45.2272 16.6294 43.4572 16.8294C41.7972 17.1094 40.2673 17.8694 39.0373 19.0194C38.7673 19.2594 38.5173 19.5094 38.2773 19.7794L37.5971 20.4494L36.2372 21.8194L33.5171 24.5394L32.1572 25.8994L31.9973 26.0594L31.9072 26.1394C31.8472 26.1994 31.7772 26.2494 31.7072 26.2894C31.5672 26.3794 31.4272 26.4694 31.2772 26.5294C30.1072 26.9694 28.7972 26.3794 28.3472 25.2094C28.0672 24.4694 28.1872 23.6394 28.6772 23.0194L38.5173 12.9094L40.7873 10.5394C42.5573 8.71942 45.0971 7.88939 47.5971 8.31939L48.1572 8.42937L48.7372 8.58941C49.2572 8.7494 49.8071 8.84938 50.3471 8.87938C51.3571 8.93938 52.3673 8.78937 53.3173 8.42937C54.1473 8.10937 54.9171 7.64938 55.5871 7.05938C56.1271 6.56938 56.6271 6.03942 57.0971 5.47942C57.3371 5.20942 57.1772 4.63938 56.7472 4.24938C56.3172 3.85938 55.8771 3.78939 55.6271 4.00939C55.1671 4.43939 54.6772 4.84942 54.1672 5.22942C53.6572 5.56942 53.0973 5.82937 52.5073 5.98937C51.8873 6.14937 51.2371 6.18941 50.5971 6.09941C50.2771 6.04941 49.9572 5.9594 49.6472 5.8394L48.9472 5.5894C48.6972 5.5094 48.4372 5.44938 48.1872 5.37938C45.9372 4.84938 43.5772 5.0494 41.4472 5.9594C40.2972 6.4594 39.2371 7.14939 38.3271 8.00939L35.9172 10.2794L30.9172 15.1494L28.3172 17.6794L26.9973 18.9694L26.3372 19.6194L26.0073 19.9494C25.8973 20.0594 25.7072 20.2694 25.5672 20.4294C23.3172 23.1094 23.6672 27.1194 26.3472 29.3694C28.1572 30.8794 30.6472 31.2694 32.8272 30.3794C33.2672 30.1894 33.6772 29.9494 34.0572 29.6794C34.2572 29.5494 34.4371 29.3994 34.6171 29.2394L34.8771 28.9994L36.4172 27.4594L39.1371 24.7394L40.4872 23.3794L41.1572 22.6994C41.3872 22.4594 41.5473 22.3194 41.7573 22.1194C42.3873 21.4994 43.1673 21.0794 44.0273 20.8894C44.7773 20.8094 45.5371 21.0194 46.1371 21.4894C46.5471 21.7694 46.9273 22.0994 47.2773 22.4594L48.5971 23.7494L51.1972 26.2794L56.1972 31.1094L60.8871 35.5794L61.9272 36.6594L62.4672 37.1694C62.5772 37.2794 62.6873 37.3894 62.7773 37.5194C63.1573 38.0094 63.3571 38.6094 63.3571 39.2294C63.3571 40.4294 62.6273 41.4994 61.5173 41.9494C61.1573 42.0894 60.7772 42.1594 60.3972 42.1494L59.8871 41.6694C59.0071 40.8594 58.1373 40.0994 57.3173 39.3994C55.9873 38.2394 54.5573 37.1894 53.0373 36.2894C52.9573 36.2394 52.5672 36.5494 52.1672 36.9594C51.7672 37.3694 51.5671 37.6594 51.6171 37.7194C52.5371 39.2294 53.5873 40.6394 54.7673 41.9594C55.4673 42.7794 56.2473 43.6394 57.0373 44.5094L58.2873 45.8194L58.6071 46.1494C58.7071 46.2394 58.7971 46.3394 58.8771 46.4394C58.9871 46.5594 59.0772 46.6794 59.1572 46.8194C59.4872 47.3694 59.5872 48.0294 59.4272 48.6594C59.2672 49.2794 58.8871 49.8094 58.3671 50.1694C57.8571 50.5094 57.2471 50.6894 56.6371 50.6794C56.5071 50.6894 56.3672 50.6894 56.2372 50.6794C56.0572 50.3094 55.8371 49.9694 55.5871 49.6494C55.3771 49.3794 55.1471 49.1294 54.8871 48.8894L54.3571 48.4394L53.3173 47.5994C52.2373 46.6894 51.0673 45.8994 49.8173 45.2494C49.4973 45.4294 49.2172 45.6694 48.9772 45.9494C48.5872 46.3694 48.3772 46.6494 48.4072 46.7094C49.0872 47.9494 49.8971 49.1094 50.8371 50.1694L51.7072 51.1794L52.1672 51.6894C52.2472 51.7894 52.3171 51.8994 52.3871 52.0094C52.6571 52.4394 52.7773 52.9494 52.7473 53.4594C52.6873 54.4894 52.0273 55.3994 51.0573 55.7794C50.5273 55.9794 49.9571 56.0494 49.3871 55.9794L49.3371 55.8994C48.9871 55.4294 48.5671 55.0194 48.1071 54.6694C47.7571 54.3994 47.4171 54.1494 47.0971 53.9094C46.5371 53.5094 45.9571 53.1394 45.3471 52.8194C45.0171 52.9894 44.7272 53.2194 44.4872 53.4994C44.0872 53.9094 43.8772 54.1894 43.9172 54.2594C44.2372 54.8694 44.6073 55.4494 45.0073 56.0094C45.4773 56.5894 45.9073 57.2094 46.2973 57.8594C46.7673 58.9194 46.4473 60.1694 45.5373 60.8894C44.8573 61.4094 43.9572 61.5394 43.1572 61.2394C43.0272 61.1894 42.8973 61.1294 42.7773 61.0694C42.7073 61.0394 42.6471 61.0094 42.5871 60.9594C42.5171 60.9194 42.4371 60.8694 42.3771 60.8094C41.1971 59.7794 39.9073 58.8594 38.5473 58.0894C38.2173 58.2694 37.9172 58.4994 37.6672 58.7894C37.2572 59.2094 37.0471 59.4994 37.0771 59.5494C37.8571 60.9094 38.7673 62.1994 39.7973 63.3794C39.8573 63.4594 39.9971 63.5994 40.1171 63.7194C40.2371 63.8494 40.3673 63.9694 40.5073 64.0794C40.7873 64.3094 41.0872 64.5194 41.3972 64.6994C42.0672 65.0694 42.7973 65.3194 43.5573 65.4094C46.8973 65.8194 49.9471 63.4494 50.3671 60.1094C50.3971 59.8594 50.4072 59.6094 50.4072 59.3494C50.8672 59.4094 51.3273 59.4094 51.7873 59.3494C53.1073 59.1594 54.3172 58.5194 55.2272 57.5494C56.1772 56.5294 56.7571 55.2194 56.8571 53.8294C57.9271 53.9994 59.0173 53.8594 60.0073 53.4294C61.5373 52.7494 62.7273 51.4694 63.2773 49.8794C63.8773 48.1494 63.6772 46.2394 62.7372 44.6794C62.6572 44.5394 62.5472 44.4094 62.4672 44.2694C63.4372 43.9594 64.3072 43.3794 64.9772 42.5994C65.7472 41.6894 66.2173 40.5494 66.3073 39.3594C66.4073 38.0594 66.0671 36.7694 65.3471 35.6894C65.1571 35.4194 64.9472 35.1694 64.7172 34.9294L64.3571 34.5494C67.7071 32.5094 72.5272 27.4394 73.4972 24.7894C73.2873 24.4694 73.0372 24.1794 72.7372 23.9394C72.5172 23.6894 72.2672 23.4794 71.9772 23.3194C69.4572 24.2494 64.4471 29.0394 62.3771 32.3294Z" fill="white"/>
<path d="M36.3673 58.3494C36.7273 58.7094 37.0774 58.9294 37.1774 58.8494C38.1674 58.0794 38.8275 56.9694 39.0275 55.7294C39.3075 54.0094 38.7873 52.2494 37.6073 50.9494C36.9273 50.1994 36.0773 49.6394 35.1273 49.3094C34.5273 49.1094 33.8973 48.9994 33.2673 48.9894V48.7594C33.3173 47.8394 33.1473 46.9194 32.7673 46.0794C31.7673 43.8994 29.5473 42.5394 27.1573 42.6394V42.1194C27.0373 39.8694 25.6274 37.8894 23.5374 37.0394C22.7674 36.7294 21.9474 36.5794 21.1174 36.6094C21.1674 35.6894 20.9974 34.7694 20.6174 33.9294C20.1774 32.9794 19.4973 32.1594 18.6373 31.5594C16.3573 29.9794 13.2974 30.1394 11.1774 31.9394L11.1074 31.9994C9.29742 29.1994 5.44743 25.6394 3.23743 25.0294C2.92743 25.2394 2.64734 25.4994 2.39734 25.7894C2.15734 26.0094 1.94733 26.2694 1.76733 26.5494C2.37733 28.7494 5.89739 32.6094 8.69739 34.3894L7.78735 35.2794C6.85735 36.2094 6.24734 37.4094 6.02734 38.6994C5.81734 39.9694 6.00737 41.2694 6.55737 42.4194C7.08737 43.5294 7.93745 44.4594 9.00745 45.0794C9.53745 45.3894 10.1074 45.6194 10.7074 45.7494C10.6174 46.0794 10.5573 46.4194 10.5173 46.7594C10.3873 48.1994 10.7574 49.6294 11.5574 50.8294C12.3274 51.9694 13.4573 52.8294 14.7773 53.2594C15.9173 53.6294 17.1374 53.6594 18.2874 53.3394C18.3874 53.7694 18.5274 54.1794 18.7074 54.5694C19.2374 55.6794 20.0873 56.6094 21.1473 57.2294C22.1373 57.8194 23.2774 58.1094 24.4374 58.0694C24.7974 58.0494 25.1673 57.9994 25.5173 57.9094C25.5573 58.1294 25.6074 58.3494 25.6674 58.5594C25.9874 59.5894 26.5774 60.5194 27.3674 61.2594C28.1074 61.9394 29.0074 62.4294 29.9874 62.6794C31.6874 63.1094 33.4873 62.7394 34.8873 61.6794C35.1673 61.4494 35.4173 61.1994 35.6473 60.9194C35.8573 60.6694 35.9773 60.4994 36.1273 60.2894C36.4073 59.8994 36.6573 59.5294 36.8873 59.1994C36.9473 59.0994 36.6574 58.6894 36.2274 58.2794C35.8074 57.8794 35.4674 57.6694 35.4073 57.7294C35.0773 57.9394 34.7075 58.1894 34.3175 58.4894C34.1275 58.6194 33.8974 58.8094 33.7374 58.9094C33.5874 59.0094 33.4274 59.0894 33.2574 59.1594C32.5474 59.4494 31.7373 59.4494 31.0273 59.1594C30.2773 58.8494 29.7073 58.2094 29.5173 57.4194C29.3373 56.6094 29.5874 55.7694 30.1874 55.1894L31.7474 53.6194C32.0374 53.3394 32.3873 53.1394 32.7773 53.0394C33.5673 52.8294 34.4175 53.0094 35.0475 53.5194C35.6475 54.0194 36.0173 54.7294 36.0873 55.4994C36.1473 56.1794 36.0074 56.8694 35.6974 57.4794C35.6574 57.5594 35.9673 57.9594 36.3673 58.3494ZM12.3274 42.2194C11.4074 42.1394 10.6174 41.5494 10.2574 40.7094C9.90745 39.8494 10.1074 38.8594 10.7574 38.1894L12.6074 36.3094L13.5374 35.3594L13.7673 35.1294L13.9073 34.9994C13.9873 34.9194 14.0774 34.8494 14.1674 34.7794C14.9274 34.2494 15.9174 34.1894 16.7374 34.6094C17.1274 34.8194 17.4674 35.1094 17.7274 35.4694C18.1374 36.0294 18.3074 36.7194 18.2074 37.4094C18.1174 37.4594 18.0174 37.4994 17.9374 37.5494C17.6474 37.7394 17.3774 37.9494 17.1174 38.1794L16.8174 38.4594L16.5574 38.7094C15.3874 39.8294 14.1973 40.9794 13.0173 42.1594C12.7973 42.2094 12.5674 42.2294 12.3274 42.2194ZM19.9874 47.3894C19.4774 47.9094 19.0674 48.5094 18.7574 49.1594L18.5974 49.2694C18.4974 49.3394 18.3974 49.4094 18.2874 49.4694C18.0674 49.5794 17.8374 49.6594 17.5874 49.7094C16.5774 49.9294 15.5274 49.4894 14.9774 48.6094C14.7174 48.1494 14.6074 47.6194 14.6774 47.0994C14.7474 46.5894 14.9674 46.1194 15.3274 45.7494C16.7174 44.3594 18.0974 42.9394 19.4174 41.5694L19.6674 41.3094L19.8774 41.0994C20.1374 40.8194 20.4674 40.6194 20.8274 40.4894C21.3174 40.3194 21.8474 40.2994 22.3374 40.4394C23.2974 40.7194 24.0373 41.4794 24.2773 42.4494C24.3573 42.7694 24.3874 43.0994 24.3674 43.4294L24.1373 43.5394C23.8673 43.6994 23.6174 43.8694 23.3774 44.0694L23.0374 44.3694L22.8074 44.5994L21.8674 45.5294L19.9874 47.3894ZM30.3774 49.6594C29.8774 49.8994 29.4174 50.2194 28.9974 50.5894C28.7574 50.7994 28.6474 50.9094 28.5074 51.0494L28.0974 51.4494L27.2673 52.2494C26.7573 52.7794 26.3373 53.3894 26.0273 54.0594L25.7773 54.1794C25.3673 54.3494 24.9274 54.4194 24.4874 54.3794C23.5674 54.2994 22.7774 53.7094 22.4174 52.8694C22.0674 52.0094 22.2574 51.0094 22.9174 50.3494L24.7673 48.4694L25.6573 47.5194L25.8873 47.2894L26.0273 47.1594C26.1073 47.0794 26.1974 47.0094 26.2874 46.9394C27.0474 46.4094 28.0374 46.3494 28.8574 46.7694C29.2474 46.9794 29.5874 47.2694 29.8474 47.6294C30.0874 47.9894 30.2574 48.3894 30.3274 48.8094C30.3774 49.0794 30.3974 49.3594 30.3774 49.6394V49.6594Z" fill="white"/>
</svg>
