<svg width="500" height="292" viewBox="0 0 500 292" fill="none" xmlns="http://www.w3.org/2000/svg">
<path d="M371.147 257.816C369.233 264.952 359.403 273.908 356.784 263.845C356.456 261.329 356.137 258.738 356.843 256.306C358.144 251.82 359.403 251.619 357.237 247.803C355.894 245.439 355.239 245.615 355.264 242.277C355.29 238.453 358.723 237.85 360.981 235.208C363.508 232.265 368.83 232.726 370.459 234.672C374.035 238.957 372.717 251.971 371.147 257.816Z" fill="#54819C"/>
<path d="M337.451 268.507C342.622 265.95 364.154 250.495 364.759 250.084C368.116 247.778 368.746 238.344 363.281 235.208C361.778 234.344 328.242 247.627 324.255 252.223C313.551 264.558 323.835 275.241 337.451 268.507Z" fill="#17405E"/>
<path d="M359.294 258.931C361.577 258.688 363.474 259.241 365.606 259.963C366.043 260.113 366.295 259.459 365.917 259.233C363.953 258.025 361.426 257.916 359.21 258.285C358.84 258.344 358.924 258.965 359.294 258.931Z" fill="#448098"/>
<path d="M360.989 256.097C362.097 256.038 363.138 255.962 364.238 256.172C365.22 256.357 366.118 256.776 367.084 257.019C367.461 257.111 367.839 256.591 367.495 256.315C365.783 254.948 362.945 254.679 360.872 255.225C360.393 255.342 360.477 256.122 360.989 256.097Z" fill="#448098"/>
<path d="M364.062 252.332C364.943 252.315 365.825 252.373 366.698 252.541C367.478 252.701 368.217 253.011 368.998 253.162C369.384 253.237 369.594 252.751 369.266 252.524C367.831 251.552 365.741 251.451 364.062 251.594C363.6 251.644 363.583 252.348 364.062 252.332Z" fill="#448098"/>
<path d="M367.982 248.969C368.586 248.986 369.132 249.002 369.728 248.868C369.972 248.81 369.972 248.432 369.728 248.374C369.132 248.239 368.586 248.256 367.982 248.273C367.529 248.281 367.529 248.952 367.982 248.969Z" fill="#448098"/>
<path d="M381.002 257.816C382.916 264.952 392.746 273.908 395.365 263.845C395.693 261.329 396.012 258.738 395.306 256.306C394.005 251.82 392.746 251.619 394.912 247.803C396.255 245.439 396.91 245.615 396.885 242.277C396.859 238.453 393.426 237.85 391.168 235.208C388.641 232.265 383.319 232.726 381.699 234.672C378.114 238.957 379.432 251.971 381.002 257.816Z" fill="#54819C"/>
<path d="M414.698 268.507C409.527 265.95 387.995 250.495 387.39 250.084C384.032 247.778 383.403 238.344 388.868 235.208C390.37 234.344 423.907 247.627 427.894 252.223C438.597 264.558 428.314 275.241 414.698 268.507Z" fill="#17405E"/>
<path d="M392.948 258.285C390.723 257.916 388.205 258.025 386.24 259.233C385.871 259.459 386.106 260.113 386.551 259.963C388.683 259.241 390.58 258.68 392.864 258.931C393.225 258.965 393.309 258.344 392.948 258.285Z" fill="#448098"/>
<path d="M391.277 255.216C389.204 254.671 386.366 254.948 384.654 256.307C384.31 256.583 384.687 257.103 385.065 257.011C386.03 256.768 386.929 256.348 387.911 256.164C389.002 255.954 390.06 256.03 391.16 256.089C391.663 256.122 391.756 255.351 391.277 255.216Z" fill="#448098"/>
<path d="M388.087 251.602C386.408 251.459 384.326 251.552 382.883 252.533C382.555 252.759 382.757 253.246 383.151 253.17C383.932 253.019 384.671 252.709 385.451 252.55C386.324 252.373 387.197 252.315 388.087 252.34C388.566 252.348 388.549 251.644 388.087 251.602Z" fill="#448098"/>
<path d="M384.167 248.273C383.563 248.256 383.017 248.239 382.421 248.374C382.177 248.432 382.177 248.81 382.421 248.868C383.017 249.002 383.563 248.986 384.167 248.969C384.62 248.952 384.62 248.281 384.167 248.273Z" fill="#448098"/>
<path d="M317.891 252.885C316.296 275.207 333.975 271.727 340.414 266.226C353.182 255.325 367.05 217.632 375.235 207.737C381.153 219.871 400.52 253.732 404.633 258.403C408.746 263.074 414.161 269.849 420.381 270.109C424.78 270.294 429.766 268.801 431.915 264.96C437.12 255.669 417.049 203.385 403.432 178.144C402.627 176.651 401.737 175.083 400.234 174.287C399.034 173.649 397.607 173.599 396.247 173.574C378.626 173.197 360.889 172.215 343.285 172.492C330.206 205.288 318.571 243.359 317.891 252.885Z" fill="#B2CBD9"/>
<path d="M375.965 200.819C376.016 197.934 376.167 195.033 376.1 192.156C376.083 191.435 374.992 191.427 374.975 192.156C374.899 195.041 375.05 197.942 375.109 200.819C375.109 201.372 375.957 201.38 375.965 200.819Z" fill="#17405E"/>
<path d="M368.267 195.561C369.04 196.886 369.938 198.119 370.886 199.318C371.676 200.324 372.574 201.867 373.833 202.269C374.16 202.37 374.454 202.043 374.37 201.733C374.06 200.576 372.826 199.687 372.062 198.789C371.038 197.582 370.114 196.299 369.166 195.024C368.779 194.504 367.915 194.966 368.267 195.561Z" fill="#17405E"/>
<path d="M367.462 200.945C368.477 201.548 369.502 202.135 370.551 202.689C371.374 203.125 372.331 203.821 373.287 203.737C373.531 203.712 373.783 203.435 373.606 203.184C373.027 202.387 371.986 202.135 371.122 201.724C370.056 201.213 368.998 200.676 367.965 200.106C367.403 199.804 366.924 200.618 367.462 200.945Z" fill="#17405E"/>
<path d="M377.216 203.443C380.112 203.578 384.184 203.997 386.861 202.68C387.071 202.58 387.038 202.186 386.794 202.152C385.325 201.942 383.823 202.337 382.345 202.471C380.633 202.622 378.928 202.689 377.216 202.68C376.721 202.68 376.729 203.418 377.216 203.443Z" fill="#17405E"/>
<path d="M363.785 75.8895C366.908 78.5896 370.996 78.9167 374.874 77.4157C378.794 75.8979 380.624 71.9566 382.127 68.116C384.519 62.0029 385.846 55.328 384.687 48.8794C383.529 42.4309 379.592 36.2591 373.556 33.3828C362.509 28.1166 352.654 35.8733 351.839 46.8669C351.176 55.764 356.901 69.9273 363.785 75.8895Z" fill="#B2CBD9"/>
<path d="M355.499 54.129C355.373 50.758 355.256 47.3869 355.13 44.0159C357.615 45.0977 360.822 44.2843 362.45 42.1543C362.803 41.6847 363.105 41.1564 363.583 40.8126C364.44 40.2005 365.623 40.3514 366.673 40.5359C369.132 40.9636 373.279 39.4961 374.043 41.8105C375.462 46.1039 380.037 41.3074 380.767 42.0453C381.179 42.4646 381.246 52.1835 382.958 56.0493C383.227 56.653 383.529 57.2987 384.108 57.6174C385.812 58.5734 387.382 56.1164 387.6 54.2128C387.928 51.4624 387.835 48.6616 387.34 45.9362C387.223 45.2654 387.072 44.5778 387.239 43.9237C387.97 41.0893 393.359 41.4667 393.88 38.5904C394.14 37.1481 392.872 35.8567 391.521 35.2194C390.169 34.5821 386.635 33.2404 386.576 29.6178C388.784 23.3286 376.209 29.0308 372.893 25.3495C372.079 24.4439 371.365 23.4125 370.316 22.7752C369.267 22.1379 367.73 22.0456 366.916 22.9513C366.152 23.815 366.362 25.1231 366.035 26.2133C365.355 28.4942 362.459 29.425 360.041 29.1566C357.623 28.8883 355.357 27.8149 352.939 27.555C350.521 27.3034 346.895 27.446 346.987 30.557C347.012 31.3033 347.869 32.536 347.524 33.2069C346.013 36.167 341.363 34.7666 341.329 38.2382C341.296 42.9593 347.415 40.494 348.582 44.561C349.497 47.7475 348.809 51.9655 350.085 56.586C351.235 60.6362 355.667 58.7243 355.499 54.129Z" fill="#3EAD52"/>
<path d="M357.758 57.7935C357.758 57.7935 357.573 49.3995 350.866 51.1688C347.273 52.1164 349.976 58.0534 351.159 59.9905C352.343 61.9276 353.166 62.6571 355.39 62.1792C357.606 61.7012 357.984 60.3846 357.758 57.7935Z" fill="#B2CBD9"/>
<path d="M363.885 54.5735C363.885 55.5882 363.247 56.41 362.458 56.41C361.669 56.41 361.031 55.5882 361.031 54.5735C361.031 53.5589 361.669 52.7371 362.458 52.7371C363.247 52.7371 363.885 53.5589 363.885 54.5735Z" fill="#54819C" fill-opacity="0.8"/>
<path d="M376.687 53.7935C376.687 54.8081 376.049 55.6299 375.26 55.6299C374.471 55.6299 373.833 54.8081 373.833 53.7935C373.833 52.7788 374.471 51.957 375.26 51.957C376.041 51.957 376.687 52.7788 376.687 53.7935Z" fill="#54819C" fill-opacity="0.8"/>
<path d="M368.486 50.7746C368.427 52.6278 368.578 54.8416 369.166 56.6194C369.367 57.2315 369.661 57.7263 370.047 58.2378C370.291 58.5648 370.694 58.8583 370.87 59.2189C371.474 60.46 370.744 62.7493 368.78 62.6235C368.049 62.5816 368.049 63.5627 368.62 63.7975C370.618 64.6109 372.759 62.1707 372.599 60.1916C372.507 59.0512 371.617 58.3804 370.988 57.5166C369.628 55.6466 369.586 53.0052 369.325 50.7746C369.267 50.2463 368.511 50.2212 368.486 50.7746Z" fill="#B2CBD9"/>
<path d="M353.644 53.7767C348.062 51.4874 353.224 62.2126 355.096 60.4851C355.424 60.1833 355.004 59.6382 354.618 59.8646C353.972 60.242 352.519 57.0219 352.385 56.6278C352.225 56.1666 352.1 55.6886 352.024 55.2022C351.823 53.936 352.469 54.0618 353.459 54.4307C353.879 54.5901 354.039 53.9444 353.644 53.7767Z" fill="#B2CBD9"/>
<path d="M381.028 57.7935C381.028 57.7935 381.212 49.3995 387.92 51.1688C391.512 52.1164 388.809 58.0534 387.626 59.9905C386.442 61.9276 385.619 62.6571 383.395 62.1792C381.17 61.7012 380.801 60.3846 381.028 57.7935Z" fill="#B2CBD9"/>
<path d="M385.317 54.4391C386.308 54.0701 386.954 53.9443 386.752 55.2105C386.677 55.6969 386.551 56.1665 386.391 56.6361C386.257 57.0302 384.796 60.2503 384.158 59.8729C383.781 59.6465 383.353 60.1832 383.68 60.4935C385.552 62.2377 390.706 51.5041 385.132 53.785C384.738 53.9443 384.906 54.59 385.317 54.4391Z" fill="#B2CBD9"/>
<path d="M359.445 48.7538C360.351 48.1668 361.258 47.6888 362.366 47.6049C363.373 47.5295 364.23 47.9571 365.203 47.9991C365.892 48.0242 366.295 47.085 365.774 46.6154C363.894 44.9048 360.125 45.9362 358.53 47.5798C357.951 48.1668 358.706 49.2318 359.445 48.7538Z" fill="#448098"/>
<path d="M371.844 47.8228C372.851 47.3364 373.8 46.9926 374.933 47.1939C375.772 47.3364 376.57 48.1498 377.409 47.8479C377.695 47.7473 377.896 47.5125 377.896 47.2023C377.896 47.1436 377.896 47.0765 377.896 47.0178C377.905 46.6907 377.712 46.3721 377.435 46.2128C375.512 45.1142 372.641 45.0472 371.063 46.8165C370.568 47.37 371.181 48.1414 371.844 47.8228Z" fill="#448098"/>
<path d="M375.588 69.9946C375.454 70.2462 375.302 70.4978 375.126 70.741C373.514 73.0638 370.274 74.8331 366.211 70.8919C366.035 70.7242 365.85 70.5397 365.665 70.3385C364.977 69.5921 362.736 65.9528 364.616 65.6677C366.245 65.4161 368.578 65.6928 370.308 65.6928C371.961 65.6677 375.386 65.4077 375.538 65.4077C377.561 65.4077 375.949 69.3154 375.588 69.9946Z" fill="#448098"/>
<path d="M375.126 70.7411C373.514 73.0639 370.274 74.8332 366.211 70.892C367.823 69.6929 371.197 67.999 375.126 70.7411Z" fill="#266A9A"/>
<path d="M353.258 40.3766C351.797 40.0999 350.857 38.993 351.201 37.5171C351.445 36.4689 352.435 35.9993 352.964 35.102C353.552 34.1125 353.82 32.7876 353.098 31.8316C352.939 31.622 352.528 31.5885 352.46 31.9155C352.334 32.5864 352.435 33.2824 352.225 33.9364C351.906 34.9008 351.319 35.1188 350.765 35.7897C350.143 36.5444 349.833 37.4081 349.925 38.3808C350.085 40.1166 351.453 41.2068 353.132 41.299C353.661 41.3325 353.787 40.4772 353.258 40.3766Z" fill="#17405E"/>
<path d="M357.204 39.4123C356.784 37.8945 357.397 36.1168 358.891 35.4459C359.554 35.144 360.318 35.0769 361.023 35.2614C361.569 35.404 361.972 35.7394 362.543 35.7729C362.719 35.7813 362.878 35.5801 362.82 35.404C362.249 33.7604 359.378 34.0455 358.194 34.7499C356.524 35.7394 355.902 37.8023 356.557 39.5884C356.708 39.9909 357.321 39.8316 357.204 39.4123Z" fill="#17405E"/>
<path d="M367.839 35.865C368.494 34.9091 369.779 34.4395 370.861 35.0181C371.499 35.3619 371.802 35.9908 372.179 36.5611C372.641 37.2654 373.036 37.9782 373.833 38.3472C374.824 38.8 376.41 38.6742 376.385 37.299C376.377 37.039 376.075 36.93 375.89 37.0977C373.858 38.9006 372.608 34.6407 370.819 34.0957C369.409 33.668 367.982 34.2969 367.201 35.4877C366.933 35.8986 367.571 36.2592 367.839 35.865Z" fill="#17405E"/>
<path d="M368.688 30.8506C370.064 29.8108 371.5 28.9555 373.069 30.4649C373.657 31.0267 373.959 31.7562 374.715 32.1336C375.546 32.5445 376.965 32.5613 377.132 31.4292C377.183 31.0686 376.881 30.8338 376.545 30.9764C374.413 31.9156 373.917 29.3244 372.154 28.8381C370.685 28.4356 369.351 29.4334 368.259 30.2972C367.949 30.5403 368.369 31.0938 368.688 30.8506Z" fill="#17405E"/>
<path d="M378.845 36.0666C380.003 35.5634 381.137 36.4439 381.699 37.4083C382.102 38.1043 382.169 39.1357 382.858 39.6053C383.076 39.7478 383.344 39.5969 383.42 39.3789C383.63 38.7667 383.26 38.1462 383 37.5927C382.698 36.9554 382.304 36.3265 381.766 35.8569C380.834 35.0435 379.55 34.7668 378.417 35.3119C377.905 35.5718 378.35 36.2846 378.845 36.0666Z" fill="#17405E"/>
<path d="M381.447 31.6892C383.437 31.3034 383.63 34.2719 384.05 35.513C384.327 36.3264 384.864 37.5591 385.896 37.4585C386.182 37.4333 386.333 37.1733 386.207 36.9134C386.047 36.5863 385.821 36.4438 385.594 36.1671C385.258 35.7646 385.074 35.2698 384.906 34.7834C384.671 34.0874 384.536 33.3747 384.175 32.729C383.579 31.664 382.572 30.7584 381.296 31.1022C380.91 31.2112 381.07 31.7646 381.447 31.6892Z" fill="#17405E"/>
<path d="M350.79 45.5674C351.285 45.7351 351.806 45.9699 352.318 46.0537C352.461 46.0789 352.645 46.0705 352.746 45.9447C352.83 45.8441 352.88 45.7686 352.872 45.6345C352.872 45.4835 352.788 45.3242 352.654 45.2571C352.15 44.9971 351.562 44.863 351.025 44.6869C350.471 44.5024 350.228 45.3829 350.79 45.5674Z" fill="#17405E"/>
<path d="M351.319 48.7622C351.739 48.9048 352.133 49.0893 352.586 49.0306C353.107 48.9635 353.275 48.3849 352.847 48.0662C352.486 47.7895 352.058 47.756 351.621 47.6721C350.907 47.5379 350.622 48.5275 351.319 48.7622Z" fill="#17405E"/>
<path d="M383.714 45.19C384.024 44.93 384.318 44.6952 384.545 44.3598C384.847 43.8986 384.259 43.3535 383.806 43.6219C383.462 43.8315 383.218 44.125 382.941 44.4269C382.471 44.9468 383.185 45.6428 383.714 45.19Z" fill="#17405E"/>
<path d="M383.647 48.1918C384.016 48.2086 384.385 48.2505 384.755 48.1751C384.931 48.1331 385.099 47.9654 385.141 47.7893C385.166 47.6887 385.166 47.6048 385.141 47.4958C385.107 47.3197 384.931 47.152 384.755 47.1101C384.385 47.0262 384.024 47.0682 383.647 47.0933C382.941 47.1269 382.941 48.1583 383.647 48.1918Z" fill="#17405E"/>
<path d="M261.119 7.12777C258.13 7.111 258.399 10.8678 258.432 13.962C257.819 13.8027 256.317 11.8573 255.704 10.3311C253.866 5.73576 252.405 0.461209 250.911 0C248.426 0.47798 253.186 10.6749 251.784 11.2451C251.288 11.8321 242.86 2.42344 241.433 4.10895C240.627 5.50096 249.265 13.5428 249.005 14.3897C248.073 15.7146 237.446 7.80701 237.446 9.90341C236.422 12.6203 248.056 17.5259 247.729 18.4316C247.183 19.3456 242.533 17.2995 239.477 17.4505C238.403 18.8928 246.923 21.0144 248.082 22.1296C252.556 26.465 252.942 24.117 257.526 28.1421C258.315 28.8381 260.195 31.2029 261.228 31.3874C263.049 31.7228 264.661 30.2301 265.778 28.7543C265.962 28.5195 266.138 28.2595 266.197 27.966C266.138 28.3014 263.133 21.3078 262.974 20.4609C262.487 17.9284 261.731 16.3184 261.379 13.526C261.035 10.9516 261.782 8.30176 261.119 7.12777Z" fill="#B2CBD9"/>
<path d="M476.029 8.80502C479.018 8.78825 478.749 12.545 478.715 15.6393C479.328 15.48 480.831 13.5345 481.444 12.0083C483.282 7.41301 484.743 2.13845 486.237 1.67725C488.722 2.15523 483.962 12.3521 485.364 12.9224C485.859 13.5093 494.287 4.10069 495.715 5.7862C496.529 7.17821 487.882 15.22 488.143 16.067C489.074 17.3919 499.702 9.48425 499.702 11.5807C500.726 14.2976 489.091 19.2032 489.419 20.1088C489.964 21.0229 494.615 18.9768 497.67 19.1277C498.745 20.57 490.224 22.6916 489.066 23.8069C484.592 28.1422 484.206 25.7943 479.622 29.8194C478.833 30.5154 476.953 32.8801 475.92 33.0646C474.098 33.4 472.487 31.9074 471.37 30.4315C471.185 30.1967 471.009 29.9368 470.95 29.6433C471.009 29.9787 474.014 22.9851 474.174 22.1381C474.661 19.6057 475.416 17.9957 475.769 15.2032C476.113 12.6289 475.374 9.979 476.029 8.80502Z" fill="#B2CBD9"/>
<path d="M326.689 67.2191C321.258 64.2674 315.818 61.3156 310.387 58.3639C305.837 55.8901 301.262 53.3996 297.182 50.2047C284.984 40.6451 272.56 21.0647 264.367 21.0647C258.701 21.7104 257.366 27.748 258.667 31.9408C259.969 36.1336 262.957 39.5466 265.534 43.1021C273.727 54.4227 278.277 68.2925 287.813 78.5145C298.483 89.9525 333.707 110.162 334.739 112.132C335.419 113.424 336.208 133.516 337.678 153.432C338.634 166.438 333.463 178.857 334.53 183.41C334.924 185.096 342.891 190.161 350.689 185.297C353.501 183.544 359.982 187.402 363.273 186.974C366.563 186.546 370.668 184.945 373.984 185.096C379.819 185.364 380.305 188.559 386.072 189.498C392.721 190.58 399.218 187.343 405.179 184.207C406.32 183.603 407.521 182.941 408.117 181.8C408.704 180.668 408.545 179.31 408.385 178.043C407.294 169.423 405.54 160.97 405.464 152.811C405.347 139.537 407.546 126.698 408.453 112.594C438.48 102.17 454.38 71.001 475.274 47.0685C479.689 42.012 484.407 35.4963 482.073 29.2071C480.176 26.3979 477.347 23.6055 473.183 23.6055C469.591 23.6055 460.759 36.5948 453.313 42.3306C445.867 48.0664 440.78 54.9258 432.327 59.0431C411.752 69.0556 409.519 74.9003 386.652 77.9862C383.613 78.3971 378.005 83.4537 371.886 83.7052C364.759 83.9903 357.036 79.395 353.426 78.7493C345.988 77.416 333.237 70.783 326.689 67.2191Z" fill="#266A9A"/>
<path d="M359.302 75.873C357.052 78.7996 356.221 78.4641 353.434 78.7493C356.297 87.2439 361.753 92.8371 370.702 93.3905C372.868 93.5247 375.033 93.3822 377.157 92.9209C383.243 91.6128 386.114 88.1579 386.668 77.9778C383.092 78.9421 382.068 77.7765 380.851 74.7493C379.642 71.7221 380.121 65.9612 378.61 63.0765C378.442 62.7495 376.377 64.4182 376.091 64.1918C375.554 63.7642 374.807 63.7306 374.118 63.7222C371.407 63.6887 368.695 63.6635 365.984 63.63C363.776 63.6048 358.572 61.2569 358.462 63.4623C358.194 69.1393 359.596 75.504 359.302 75.873Z" fill="#B2CBD9"/>
<path d="M334.664 107.646C333.556 101.944 333.354 97.1809 334.462 91.4871C334.504 91.2523 334.185 91.0846 334.051 91.3194C331.398 96.1914 332.951 102.707 333.992 107.831C334.076 108.267 334.748 108.082 334.664 107.646Z" fill="#17405C"/>
<path d="M337.98 108.074C338.735 105.743 339.516 103.42 340.305 101.105C341.077 98.8162 342.185 96.5018 342.546 94.1202C342.605 93.7513 342.127 93.4913 341.908 93.8519C339.533 97.8938 338.55 103.395 337.316 107.889C337.199 108.317 337.845 108.493 337.98 108.074Z" fill="#17405C"/>
<path d="M401.905 92.6443C402.089 96.8455 402.979 103.369 406.337 106.313C406.581 106.522 406.975 106.321 406.883 105.994C406.329 103.881 404.927 102.019 404.213 99.9314C403.407 97.5666 402.979 95.1432 402.82 92.6527C402.786 92.0573 401.88 92.0573 401.905 92.6443Z" fill="#17405C"/>
<path d="M399.571 103.059C400.553 104.426 401.536 105.793 402.526 107.168C403.29 108.233 404.046 109.751 405.263 110.313C405.582 110.455 405.859 110.22 405.808 109.893C405.615 108.535 404.314 107.327 403.508 106.271C402.535 105.005 401.561 103.738 400.587 102.472C400.142 101.877 399.118 102.439 399.571 103.059Z" fill="#17405C"/>
<path d="M350.832 82.3217C351.915 92.2921 362.576 97.617 371.651 98.1537C380.692 98.682 388.23 91.9819 390.606 83.5711C390.807 82.8583 389.708 82.5564 389.489 83.2608C387.13 90.9085 380.717 97.0971 372.364 96.9965C363.021 96.8875 354.056 91.4787 351.73 82.2043C351.604 81.7095 350.773 81.8017 350.832 82.3217Z" fill="#17405C"/>
<path d="M296.611 66.3888C297.283 65.1561 297.988 63.9318 298.752 62.7494C299.499 61.5838 300.523 60.4937 301.102 59.2526C301.304 58.825 300.825 58.4476 300.456 58.7495C299.432 59.5965 298.718 60.913 298.022 62.0367C297.232 63.3113 296.536 64.6194 295.914 65.9863C295.696 66.4475 296.359 66.8584 296.611 66.3888Z" fill="#17405C"/>
<path d="M304.922 61.5169C303.025 63.2192 302.269 65.433 301.74 67.8732C301.178 70.523 300.397 73.5586 300.783 76.2672C300.842 76.7032 301.447 76.6026 301.564 76.2672C303.159 71.7557 301.925 65.9026 305.661 62.2548C306.148 61.7852 305.417 61.0641 304.922 61.5169Z" fill="#17405C"/>
<path d="M305.979 69.6004C305.66 71.4955 305.215 74.2711 306.214 76.007C306.332 76.2082 306.701 76.1914 306.743 75.9399C306.886 75.051 306.651 74.137 306.617 73.2397C306.575 72.0993 306.659 70.9672 306.852 69.8435C306.945 69.2733 306.072 69.0301 305.979 69.6004Z" fill="#17405C"/>
<path d="M440.579 63.1352C441.032 64.8961 441.679 66.5649 442.552 68.1582C443.274 69.4663 444.214 71.286 445.624 71.9568C445.884 72.0826 446.245 71.873 446.145 71.5543C445.691 70.1791 444.457 69.0554 443.702 67.8227C442.753 66.2714 442.023 64.611 441.435 62.9004C441.259 62.3637 440.436 62.5733 440.579 63.1352Z" fill="#17405C"/>
<path d="M471.631 26.6493C473.352 27.4123 474.888 28.4522 476.231 29.7771C476.877 30.4144 477.465 31.1188 477.969 31.8735C478.43 32.5611 478.733 33.3494 479.379 33.886C479.555 34.0286 479.849 33.9447 479.849 33.6932C479.841 31.9993 478.078 30.2048 476.919 29.0895C475.484 27.7058 473.763 26.6996 471.908 25.9868C471.53 25.8358 471.253 26.4815 471.631 26.6493Z" fill="#17405C"/>
<path d="M261.899 30.4648C262.344 29.4753 262.882 28.5445 263.511 27.6556C264.107 26.8087 265.089 26.0707 265.543 25.1483C265.677 24.88 265.408 24.6368 265.148 24.7542C264.225 25.1651 263.511 26.3055 262.949 27.1189C262.277 28.0833 261.773 29.1315 261.345 30.2216C261.211 30.5486 261.757 30.7834 261.899 30.4648Z" fill="#17405C"/>
<path d="M356.952 113.155C361.552 118.975 366.966 124.048 372.557 128.895C374.975 130.992 377.602 133.163 379.088 136.065C381.053 139.117 379.793 143.402 375.235 143.612C373.699 143.486 372.171 143.276 370.652 142.991C368.578 142.664 366.513 142.27 364.431 141.985C363.684 141.884 363.332 142.991 364.112 143.151C368.276 143.989 374.807 146.27 378.845 144.056C381.8 142.438 381.833 139.377 380.666 136.551C378.862 132.182 374.765 129.272 371.323 126.262C366.421 121.977 362.03 117.256 357.648 112.459C357.212 111.973 356.566 112.669 356.952 113.155Z" fill="#17405C"/>
<path d="M359.529 151.57C366.001 153.968 371.138 157.775 377.082 161.079C377.35 161.23 377.619 160.878 377.409 160.66C372.885 155.855 365.875 152.962 359.713 150.907C359.285 150.757 359.117 151.419 359.529 151.57Z" fill="#17405C"/>
<path d="M370.543 110.489C374.975 114.329 381.028 118.422 387.038 118.958C387.45 118.992 387.643 118.329 387.256 118.162C384.612 117.013 381.8 116.401 379.181 115.134C376.268 113.734 373.582 111.99 371.072 109.969C370.702 109.675 370.182 110.178 370.543 110.489Z" fill="#17405C"/>
<path d="M83.6287 67.5208C89.3371 61.1981 98.3697 54.8082 106.697 56.586C124.821 60.4601 125.921 74.8415 125.493 79.6129C124.494 90.6567 127.021 100.191 129.74 101.39C128.263 103.973 120.33 105.29 113.824 104.736C110.298 104.443 106.11 104.602 102.584 104.309C97.7233 103.898 91.2762 102.9 86.9194 100.719C74.1848 94.3632 75.5615 76.4515 83.6287 67.5208Z" fill="#17405C"/>
<path d="M89.4043 175.729C83.4945 175.788 70.869 174.957 64.9424 175.729C56.9003 176.769 14.1381 187.15 8.82434 189.649C3.51054 192.148 -1.24921 196.139 0.295401 204.533C0.421321 204.634 11.7708 247.778 16.3795 260.96C16.5726 261.522 25.0847 260.994 27.8298 260.264C25.4961 253.564 24.2788 243.87 23.666 227.736C23.1456 213.942 19.7541 207.167 19.7541 207.167C29.2568 208.223 85.8786 205.85 86.8104 202.085C89.0349 193.045 100.897 175.611 89.4043 175.729Z" fill="#E0EAF0"/>
<path d="M29.9116 273.245C25.3617 274.025 3.6364 274.293 2.15055 273.673C-0.107602 272.734 0.152629 270.604 2.5451 269.447C6.88511 267.568 8.67317 267.526 11.5777 266.52C14.6082 265.472 16.9083 265.279 15.456 261.195C14.5074 258.537 27.3344 255.761 28.5013 260.197C29.6933 264.725 34.218 272.499 29.9116 273.245Z" fill="#89A8B5"/>
<path d="M10.1169 268.138C10.6458 268.566 11.1746 268.994 11.7119 269.421C12.1568 269.782 12.6353 270.26 13.2061 270.386C13.4748 270.444 13.7014 270.168 13.5587 269.925C13.2733 269.413 12.6857 269.094 12.2156 268.767C11.6531 268.382 11.0907 267.996 10.5199 267.61C10.2177 267.4 9.82311 267.895 10.1169 268.138Z" fill="#E5E6E6"/>
<path d="M13.6932 267.904C14.1549 268.08 14.583 268.306 14.9944 268.583C15.3553 268.826 15.6743 269.262 16.1108 269.354C16.4047 269.413 16.7236 269.161 16.6229 268.843C16.455 268.348 15.8842 268.054 15.4477 267.811C14.9608 267.543 14.4319 267.333 13.8947 267.174C13.4162 267.048 13.2483 267.736 13.6932 267.904Z" fill="#E5E6E6"/>
<path d="M16.556 266.033C17.3199 266.461 18.1341 266.797 18.9148 267.207C19.4941 267.509 20.0817 268.096 20.7281 267.744C20.8288 267.694 20.9128 267.56 20.896 267.442C20.8204 266.662 19.9558 266.503 19.3178 266.226C18.5119 265.883 17.6976 265.539 16.833 265.354C16.4468 265.262 16.1782 265.815 16.556 266.033Z" fill="#E5E6E6"/>
<path d="M17.1183 263.258C18.2432 263.35 19.3681 263.459 20.493 263.585C21.4919 263.702 22.6168 264.038 23.6074 263.828C23.9432 263.753 23.9264 263.325 23.6913 263.157C22.8938 262.579 21.5927 262.696 20.6525 262.662C19.4688 262.621 18.2936 262.604 17.1099 262.604C16.6902 262.604 16.6986 263.224 17.1183 263.258Z" fill="#E5E6E6"/>
<path d="M126.316 255.317C121.455 254.453 91.7549 252.692 89.119 252.533C87.0791 252.415 81.0182 252.39 77.8954 253.011C85.3834 234.344 114.697 209.481 117.123 185.247C118.937 167.159 94.097 180.232 83.4107 181.196C81.1441 181.398 77.9542 177.926 68.2416 211.988C64.3633 225.598 58.2268 247.099 60.3338 263.367C60.5269 267.484 63.5994 270.294 65.7987 270.235C70.1472 270.872 107.898 266.05 127.516 262.503C128.104 262.386 128.498 255.694 126.316 255.317Z" fill="#E0EAF0"/>
<path d="M136.599 253.371C137.464 253.916 138.337 267.166 135.667 272.147C133.359 276.457 130.194 279.006 126.324 277.765C123.722 276.927 128.926 271.694 129.212 268.725C129.254 268.306 129.388 265.606 124.511 264.315C123.495 264.046 123.663 254.889 123.646 254.353C123.613 253.212 133.955 251.719 136.599 253.371Z" fill="#89A8B5"/>
<path d="M129.942 271.392C130.664 271.057 131.411 270.847 132.209 270.78C132.754 270.738 133.325 270.914 133.737 270.487C133.871 270.344 133.854 270.151 133.737 270.009C133.308 269.472 132.41 269.732 131.823 269.866C131.033 270.05 130.295 270.394 129.606 270.83C129.245 271.057 129.556 271.568 129.942 271.392Z" fill="#E5E6E6"/>
<path d="M130.731 268.49C131.159 268.247 131.613 268.063 132.099 267.954C132.553 267.853 133.023 267.912 133.459 267.736C133.694 267.644 133.829 267.258 133.543 267.124C132.57 266.679 131.201 267.333 130.379 267.878C129.992 268.13 130.328 268.717 130.731 268.49Z" fill="#E5E6E6"/>
<path d="M129.573 265.924C130.32 265.363 131.067 264.801 131.814 264.239C132.402 263.795 131.738 262.939 131.201 263.442C130.513 264.08 129.824 264.709 129.136 265.346C128.826 265.631 129.228 266.184 129.573 265.924Z" fill="#E5E6E6"/>
<path d="M127.869 264.189C128.171 263.535 128.49 262.889 128.826 262.252C129.094 261.757 129.539 261.237 129.38 260.65C129.338 260.491 129.161 260.39 129.002 260.432C128.381 260.625 128.188 261.329 127.936 261.866C127.625 262.52 127.34 263.174 127.063 263.845C126.878 264.315 127.659 264.642 127.869 264.189Z" fill="#E5E6E6"/>
<path d="M32.9001 181.834C30.4741 186.396 30.2138 194.286 33.2863 199.796C39.2633 210.529 47.3725 204.894 48.8499 209.154C52.4764 219.577 56.766 219.946 60.6611 220.005C67.3684 220.097 63.381 230.085 74.9908 232.651C78.8355 233.498 86.7516 230.47 90.5712 229.514C96.8755 227.929 102.525 233.556 109.023 233.422C115.52 233.288 121.891 231.267 125.107 225.632C120.162 220.785 118.676 209.858 117.652 203.016C117.073 199.133 116.863 194.521 113.556 192.391C112.196 191.511 110.534 191.259 108.939 190.999C96.6405 188.978 84.2332 185.121 74.7809 176.995C73.0432 175.503 71.3055 173.809 69.0726 173.264C64.2624 172.098 59.7545 176.282 55.0283 176.526C53.4921 176.61 34.1509 179.486 32.9001 181.834Z" fill="#3EAD52"/>
<path d="M128.951 109.508C130.765 110.766 132.628 112.468 132.679 114.673C132.712 116.275 131.772 117.717 130.865 119.034C123.293 130.078 115.982 147.612 116.108 160.861C116.124 162.53 117.106 187.192 120.07 197.565C118.315 208.651 95.3141 196.475 79.6749 196.416C63.6076 196.349 53.341 182.396 55.0115 176.526C57.5802 167.486 66.3274 160.065 64.5226 145.323C63.574 137.549 62.4239 132.845 64.6485 125.164C66.3526 119.294 77.7945 103.982 78.6843 103.848C88.5648 102.43 96.8083 100.401 106.764 101.55C113.782 102.372 123.285 105.583 128.951 109.508Z" fill="#99C6D8"/>
<path d="M67.8638 132.015C69.1734 138.799 77.3245 141.097 83.2679 139.201C83.5701 139.109 83.5282 138.631 83.1924 138.631C77.3497 138.723 70.08 139.185 68.3675 131.864C68.2919 131.537 67.805 131.68 67.8638 132.015Z" fill="#266A9A"/>
<path d="M89.9246 137.7C92.1072 142.673 98.2269 145.893 103.364 143.126C103.759 142.908 103.482 142.329 103.062 142.421C97.8239 143.579 93.0558 142.505 90.4786 137.373C90.294 137.004 89.7651 137.331 89.9246 137.7Z" fill="#266A9A"/>
<path d="M71.2131 147.419C74.4786 152.727 78.1303 157.775 82.1765 162.505C85.4756 166.362 89.1692 171.109 94.0297 173.029C94.4327 173.188 94.5922 172.601 94.3067 172.383C85.1062 165.473 78.0464 156.685 71.5657 147.21C71.4146 147 71.0704 147.193 71.2131 147.419Z" fill="#266A9A"/>
<path d="M73.3789 163.209C76.1239 166.471 79.4566 169.851 83.2846 171.83C83.5532 171.972 83.889 171.595 83.6287 171.385C80.145 168.626 76.7787 166.119 73.8826 162.706C73.5804 162.362 73.0851 162.865 73.3789 163.209Z" fill="#266A9A"/>
<path d="M111.885 102.472C114.009 102.967 114.168 104.334 114.924 106.38C115.31 107.428 114.983 108.602 114.479 109.6C113.027 112.443 110.214 114.363 107.293 115.671C101.728 118.162 95.3644 118.824 89.4042 117.541C86.676 116.954 83.9058 115.881 82.1429 113.717C80.38 111.554 80.019 108.082 81.9582 106.07C84.5353 103.403 88.6655 104.778 90.4787 101.541C91.0496 100.527 92.6194 90.9922 92.6949 88.1159C92.7789 84.8455 106.11 84.8791 108.275 87.5457C112.305 92.4848 102.743 100.359 111.885 102.472Z" fill="#E0EAF0"/>
<path d="M86.4995 107.336C87.9769 107.445 89.446 107.847 90.7891 108.468C91.7965 108.929 92.5772 109.701 93.5425 110.204C93.8112 110.346 94.2057 110.112 94.0882 109.785C93.6852 108.644 92.2414 108.049 91.2172 107.613C89.7146 106.975 88.1196 106.59 86.4995 106.523C85.9706 106.497 85.979 107.294 86.4995 107.336Z" fill="#B2CBD9"/>
<path d="M98.101 110.413C100.838 108.87 104.372 109.675 107.318 109.063C107.663 108.988 107.663 108.434 107.318 108.367C105.53 108.015 103.524 108.359 101.744 108.594C100.376 108.778 98.8733 108.954 97.6645 109.667C97.1776 109.952 97.6141 110.69 98.101 110.413Z" fill="#B2CBD9"/>
<path d="M109.736 91.076C107.839 93.9355 104.582 95.6378 101.61 97.3569C98.6386 99.0759 92.4517 100.77 89.3289 99.3526C86.1474 97.9103 84.6447 94.8663 84.0067 91.4366C83.3771 88.0069 83.0498 82.9252 83.9648 79.5626C85.2491 74.8415 87.2723 70.1456 90.8651 66.8165C94.7015 63.261 100.586 61.6174 105.363 63.7557C116.712 68.8206 114.479 83.9063 109.736 91.076Z" fill="#E0EAF0"/>
<path d="M108.687 67.5544C109.468 70.6403 108.275 77.0637 110.005 79.7387C111.742 82.4137 114.597 84.5688 117.787 84.6191C118.853 78.7324 118.122 72.5354 115.722 67.0596C114.731 64.7955 113.396 62.5817 111.34 61.2149C109.635 60.0828 107.57 59.6132 105.53 59.4623C100.359 59.0765 95.0707 60.6446 90.949 63.7892C86.8272 66.9339 83.9143 71.6214 82.9321 76.7031C84.2753 77.4075 87.0875 77.1056 88.5817 77.114C90.8147 77.1224 93.0476 76.8624 95.2219 76.3593C96.5482 76.0322 109.132 69.3154 108.687 67.5544Z" fill="#17405C"/>
<path d="M115.722 81.1977C113.657 78.204 110.609 80.9796 109.224 84.2333C109.224 84.2333 105.472 93.7761 113.279 89.8684C116.032 88.4848 117.652 83.4283 115.722 81.1977Z" fill="#E0EAF0"/>
<path d="M103.726 81.7175C103.247 82.4722 102.382 82.7825 101.795 82.4051C101.207 82.0278 101.123 81.1137 101.602 80.3674C102.08 79.6127 102.945 79.3024 103.532 79.6798C104.12 80.0488 104.204 80.9628 103.726 81.7175Z" fill="#17405C"/>
<path d="M91.0998 78.875C90.6214 79.6297 89.7567 79.9399 89.1691 79.5626C88.5815 79.1852 88.4975 78.2712 88.976 77.5249C89.4545 76.7702 90.3191 76.4599 90.9068 76.8373C91.4944 77.2062 91.5783 78.1203 91.0998 78.875Z" fill="#17405C"/>
<path d="M94.3489 79.4787C93.946 80.376 93.2912 81.0552 92.5524 81.6841C91.9648 82.1789 91.0666 82.5394 90.5965 83.1348C89.7402 84.2166 91.352 85.5667 92.2586 85.944C92.8127 86.1788 93.0897 85.3989 92.7875 85.0384C92.5524 84.7532 92.267 84.5352 92.0236 84.2585C91.6039 83.7889 91.7214 83.9398 92.0823 83.6128C92.5021 83.2355 93.0058 82.9419 93.4255 82.5562C94.265 81.8015 94.8274 80.8875 95.0876 79.789C95.18 79.3697 94.542 79.051 94.3489 79.4787Z" fill="#E0EAF0"/>
<path d="M101.963 74.7323C102.953 74.682 103.936 74.8497 104.842 75.2774C105.472 75.5793 106.034 76.292 106.739 76.292C106.882 76.292 107.025 76.1663 107.016 76.0153C106.966 75.1348 105.791 74.6485 105.069 74.3717C104.036 73.9692 102.962 73.9105 101.879 74.0866C101.51 74.1453 101.602 74.7491 101.963 74.7323Z" fill="#17405C"/>
<path d="M113.019 83.3949C113.371 83.2775 113.774 84.0405 113.833 84.2586C113.892 84.4598 113.925 84.6695 113.934 84.8791C113.95 85.3655 113.85 85.8351 113.648 86.2711C113.27 87.0845 112.515 87.3109 112.011 87.965C111.793 88.2501 112.095 88.5772 112.381 88.6023C113.816 88.7365 114.765 86.5143 114.832 85.3655C114.882 84.4263 114.202 81.9861 112.817 82.9001C112.565 83.0594 112.708 83.4955 113.019 83.3949Z" fill="#B2CBD9"/>
<path d="M90.2353 87.3696C89.5805 91.0174 91.6876 94.3884 91.889 94.5309C94.8943 96.7363 96.7495 90.3465 96.9258 89.0467L90.2353 87.3696Z" fill="white"/>
<path d="M110.962 68.6612C111.004 70.2545 111.188 71.8561 111.348 73.441C111.491 74.833 111.516 76.3005 111.977 77.6254C112.112 78.0028 112.607 77.9105 112.649 77.5332C112.834 75.9735 112.498 74.3131 112.313 72.7534C112.145 71.353 112.003 69.9442 111.734 68.5522C111.65 68.1245 110.953 68.2252 110.962 68.6612Z" fill="#17405C"/>
<path d="M113.379 66.8333C114.37 68.6362 115.193 70.523 115.755 72.502C116.25 74.2546 116.385 76.0911 116.871 77.8353C116.947 78.0952 117.3 78.0197 117.325 77.7766C117.686 73.9527 115.822 69.7515 113.984 66.4811C113.757 66.0954 113.161 66.4392 113.379 66.8333Z" fill="#17405C"/>
<path d="M115.688 66.1204C120.322 70.5815 120.876 75.7051 120.691 81.7679C120.683 82.1117 121.136 82.1201 121.245 81.8434C123.562 76.225 120.456 69.374 116.25 65.5669C115.873 65.2231 115.327 65.7682 115.688 66.1204Z" fill="#17405C"/>
<path d="M121.682 87.8811C121.623 92.1578 122.093 96.7112 124.007 100.594C124.175 100.938 124.687 100.694 124.603 100.342C123.621 96.1661 122.58 92.2165 122.479 87.8811C122.471 87.3612 121.69 87.3612 121.682 87.8811Z" fill="#17405C"/>
<path d="M116.913 90.8328C116.603 93.4994 116.519 96.6859 117.761 99.1429C117.912 99.4448 118.441 99.3106 118.408 98.9668C118.164 96.1996 117.493 93.6503 117.686 90.8328C117.719 90.3296 116.972 90.3464 116.913 90.8328Z" fill="#17405C"/>
<path d="M112.515 95.5206C112.565 97.0635 112.741 99.0593 113.791 100.284C114.034 100.569 114.622 100.351 114.571 99.9565C114.487 99.2689 114.21 98.6232 114.034 97.9524C113.824 97.1557 113.723 96.3423 113.698 95.5206C113.673 94.7575 112.489 94.7575 112.515 95.5206Z" fill="#17405C"/>
<path d="M86.483 73.7179C92.9049 73.5837 100.452 71.9569 105.363 67.5377C105.606 67.3197 105.295 66.9758 105.027 67.1016C98.8147 70.1037 93.5681 72.7284 86.4746 73.0973C86.0969 73.1225 86.0885 73.7263 86.483 73.7179Z" fill="#17405C"/>
<path d="M89.4464 68.8039C94.8022 69.4076 100.032 65.8773 104.817 63.957C105.044 63.8647 105.044 63.4706 104.758 63.4958C99.2597 63.9654 95.2639 68.7284 89.4464 68.393C89.1778 68.3678 89.1861 68.7703 89.4464 68.8039Z" fill="#17405C"/>
<path d="M98.5544 62.8751C100.158 61.8856 101.904 61.2735 103.801 61.2064C105.547 61.1393 107.05 61.7682 108.72 62.0534C109.031 62.1037 109.174 61.7515 108.93 61.5586C105.984 59.2861 101.039 60.4098 98.1766 62.2127C97.7569 62.481 98.1346 63.1351 98.5544 62.8751Z" fill="#17405C"/>
<path d="M101.669 59.0261C103.104 58.3553 104.674 58.1792 106.227 58.5482C107.612 58.8836 108.46 59.7473 109.652 60.393C109.862 60.502 110.072 60.284 109.963 60.0827C108.485 57.24 103.826 57.2819 101.375 58.5146C101.031 58.6907 101.333 59.1939 101.669 59.0261Z" fill="#17405C"/>
<path d="M81.1524 78.8919C80.1367 82.0281 79.5407 86.2796 81.3035 89.2649C81.4714 89.5416 81.9667 89.441 81.9415 89.0888C81.8324 87.5123 81.3623 85.9945 81.2784 84.4096C81.1776 82.5899 81.3623 80.8373 81.7988 79.068C81.8996 78.6571 81.2868 78.4894 81.1524 78.8919Z" fill="#17405C"/>
<path d="M157.174 145.549C158.819 148.006 161.732 152.274 160.246 154.832C154.504 164.71 120.137 176.895 119.062 178.723C117.535 181.331 114.101 181.641 112.489 182.287C107.444 184.291 103.289 185.364 102.726 184.257C102.533 182.924 108.712 181.909 108.275 181.263C103.667 182.035 98.6298 183.536 98.5459 182.354C98.4535 181.146 106.899 179.41 106.94 178.639C106.58 177.708 98.3528 180.643 98.2856 178.823C98.697 177.347 107.495 176.031 106.957 175.201C106.957 175.201 98.5123 175.913 98.8229 174.84C100.158 173.406 108.544 172.66 111.356 172.098C110.97 169.431 107.411 169.339 109.19 166.673C110.726 167.746 112.557 167.922 113.53 169.121C114.504 170.32 115.352 171.922 116.855 172.257C117.837 172.475 136.851 157.49 143.583 151.26C135.264 143.495 126.114 137.331 121.917 126.765C120.918 124.258 120.045 121.583 120.364 118.908C120.817 115.176 122.605 112.854 126.475 112.552C131.05 112.191 134.131 116.443 136.448 119.889C143.163 129.86 150.483 135.553 157.174 145.549Z" fill="#E0EAF0"/>
<path d="M140.695 120.703C142.03 122.983 155.134 134.195 154.966 135.612C154.848 136.618 136.405 148.048 126.911 150.815C126.458 150.949 119.188 134.799 116.435 127.369C115.746 125.499 115.05 123.612 114.84 121.625C114.269 116.099 119.96 107.411 125.518 107.453C132.158 107.504 137.572 115.361 140.695 120.703Z" fill="#99C6D8"/>
<path d="M119.289 135.369C115.352 130.136 112.959 121.826 117.635 116.317C117.803 116.124 117.593 115.797 117.35 115.948C110.878 119.981 115.234 131.252 118.752 135.788C118.987 136.082 119.524 135.679 119.289 135.369Z" fill="#266A9A"/>
<path d="M120.616 133.818C118.559 129.281 119.188 125.348 120.397 120.728C120.481 120.392 120.028 120.208 119.843 120.493C117.308 124.501 118.013 130.111 120.003 134.17C120.204 134.581 120.8 134.22 120.616 133.818Z" fill="#266A9A"/>
<path d="M146.471 151.277C147.285 151.075 148.125 150.908 148.972 150.849C149.678 150.79 150.383 150.882 151.071 150.757C151.482 150.69 151.415 150.094 151.071 149.985C149.61 149.524 147.654 149.994 146.244 150.455C145.724 150.623 145.934 151.411 146.471 151.277Z" fill="#B2CBD9"/>
<path d="M53.1058 83.4871C74.1008 74.2965 77.2319 71.6634 88.6822 63.9067C89.6056 63.2778 92.1828 62.0954 93.2405 61.7516C96.9677 60.5189 96.0275 54.3136 96.4053 52.8712C97.505 48.6617 105.933 51.3954 103.675 48.1082C93.5175 43.8651 88.145 50.8251 87.0117 57.693C75.7965 63.5964 63.7334 65.2316 50.4447 70.2881C43.4184 72.9632 33.815 76.7702 36.4341 83.8141C43.687 103.286 53.4164 110.849 56.9254 113.818C66.6547 122.061 79.7252 114.556 70.0126 103.327C67.3599 100.275 50.7385 84.5269 53.1058 83.4871Z" fill="#E0EAF0"/>
<path d="M66.9065 129.038C63.7501 126.505 63.2632 124.769 59.2086 124.786C55.154 124.803 50.9735 125.113 47.1791 123.688C43.3847 122.262 40.1108 118.43 40.9083 114.455C41.1602 113.214 41.8065 112.099 42.3942 110.975C46.4907 103.084 57.0428 88.0237 60.1068 90.3382C62.919 92.8119 62.4153 95.6798 66.0502 96.6106C70.7596 97.8181 72.4469 101.34 74.0755 101.055C77.2235 100.502 79.9853 100.619 82.277 103.319C66.5119 121.281 68.8372 130.581 66.9065 129.038Z" fill="#99C6D8"/>
<path d="M65.387 124.828C65.6724 117.114 76.6694 116.317 77.5005 108.46C77.534 108.174 77.1311 108.174 77.0388 108.401C75.9223 111.143 74.8394 113.273 72.4637 115.135C71.0702 116.233 69.492 117.097 68.1489 118.262C66.1509 119.99 64.7155 122.12 65.068 124.828C65.0848 125.03 65.3786 125.046 65.387 124.828Z" fill="#266A9A"/>
<path d="M63.0284 123.369C63.3054 121.726 63.2718 120.074 63.4313 118.422C63.6244 116.426 64.4051 115.168 65.2781 113.441C65.3957 113.197 65.1522 112.946 64.9088 113.072C61.6768 114.757 62.6338 120.443 62.6086 123.31C62.6002 123.545 62.9864 123.612 63.0284 123.369Z" fill="#266A9A"/>
<path d="M46.0795 83.0596C47.6073 83.1686 49.0931 83.437 50.5622 83.8563C51.1246 84.0156 51.3681 83.1351 50.8056 82.9842C49.2526 82.5649 47.6829 82.3217 46.0795 82.2378C45.5422 82.2043 45.5506 83.0177 46.0795 83.0596Z" fill="#B2CBD9"/>
<path d="M163.025 167.285C168.935 194.06 166.685 214.277 159.709 239.619C168.23 243.535 172.863 243.946 193.8 246.243C208.566 247.862 228.839 242.898 228.385 240.986C221.779 213.129 219.966 204.768 223.08 176.307C223.323 174.068 230.392 154.932 229.242 152.995C228.503 151.754 219.084 145.13 208.566 144.014C193.136 142.388 194.933 144.014 180.788 143.536C177.313 143.419 167.684 145.474 165.149 146.337C157.056 149.104 160.565 156.157 163.025 167.285Z" fill="#D1E0E8"/>
<path d="M176.498 152.576C178.756 160.09 185.699 164.777 193.439 164.937C199.432 165.062 209.162 161.792 211.462 156.266C212.049 154.849 212.553 151.712 212.1 150.245C211.05 146.815 206.375 146.933 205.132 143.57C204.494 141.843 204.83 139.931 204.838 138.086C204.838 137.549 204.788 136.954 204.41 136.568C204.058 136.207 203.504 136.124 203 136.073C199.667 135.696 196.326 135.319 192.994 134.941C185.64 134.111 180.679 130.774 180.998 140.719C181.166 146.052 174.475 145.809 176.498 152.576Z" fill="#F0F5F7"/>
<path d="M252.453 229.841C255.962 240.65 256.079 252.114 259.588 262.923C260.176 264.742 264.205 268.507 265.607 269.816C267.546 271.619 274.27 277.598 274.27 278.394C274.27 281.103 266.732 273.455 266.027 274.579C266.035 276.247 271.995 284.541 271.995 285.857C271.005 287.291 267.37 282.889 263.357 278.906C261.695 279.736 267.991 287.987 267.076 289.648C265.33 290.226 261.729 284.08 257.876 280.054C258.161 284.155 261.829 291.056 258.052 291.056C255.676 289.094 254.417 279.82 252.738 275.828C252.243 278.319 248.96 283.669 246.442 281.69C245.779 280.818 249.011 276.943 249.523 273.17C250.178 268.289 250.74 267.468 248.826 262.923C243.546 250.386 239.617 237.497 234.975 222.571C230.148 207.058 224.289 199.175 220.696 187.041C220.033 184.811 219.42 182.278 220.595 180.274C221.46 178.798 223.113 177.976 224.7 177.339C229.359 175.452 234.329 174.329 239.349 174.035C243.093 182.999 243.21 189.473 245.191 198.949C247.223 208.743 249.355 220.341 252.453 229.841Z" fill="#E0EAF0"/>
<path d="M243.428 185.465C241.12 188.819 233.002 191.108 227.789 191.712C224.683 192.073 222.005 192.869 219.604 190.865C217.875 189.431 217.59 186.932 217.464 184.693C217.036 177.339 214.123 144.442 225.59 150.178C238.291 156.534 243.848 184.861 243.428 185.465Z" fill="#D1E0E8"/>
<path d="M236.159 220.525C236.923 221.573 238.711 222.236 239.978 222.018C240.75 221.892 240.625 220.785 239.978 220.584C239.441 220.416 238.862 220.433 238.316 220.273C237.779 220.122 237.284 219.871 236.729 219.77C236.343 219.703 235.865 220.131 236.159 220.525Z" fill="#B2CBD9"/>
<path d="M124.435 183.779C123.671 185.431 121.916 188.047 122.899 190.84C123.881 193.64 126.643 195.234 129.472 196.131C132.301 197.028 136.498 196.223 139.461 195.98C152.364 194.915 176.918 191.544 176.918 191.544C177.967 193.959 181.955 193.154 181.182 194.253C180.368 195.41 182.5 196.039 182.996 196.198C186.009 197.179 193.128 194.362 191.441 187.335C191.315 186.806 190.265 178.941 185.564 180.936C185.086 181.138 177.648 182.588 177.128 182.622C163.923 183.36 160.179 181.188 146.974 181.926C153.438 180.022 158.912 176.66 165.031 173.85C166.458 173.196 168.926 172.014 169.976 170.857C171.974 168.643 172.058 165.339 171.789 162.379C169.01 131.822 129.547 172.76 124.435 183.779Z" fill="#E0EAF0"/>
<path d="M141.199 163.93C142.752 165.255 155.856 179.897 157.51 179.486C158.542 179.234 168.876 175.008 170.362 173.498C172.981 170.84 174.576 164.744 173.308 159.453C170.782 148.895 168.062 145.289 165.149 146.346C148.888 152.258 140.737 163.536 141.199 163.93Z" fill="#D1E0E8"/>
<path d="M194.622 188.961C198.903 194.244 204.175 198.529 210.236 201.632C210.715 201.875 211.143 201.154 210.656 200.911C204.662 197.842 199.449 193.607 195.218 188.366C194.874 187.947 194.286 188.542 194.622 188.961Z" fill="#17405C"/>
<path d="M180.091 200.626C188.007 205.372 196.343 210.185 205.837 210.378C206.375 210.386 206.375 209.548 205.837 209.539C196.502 209.355 188.309 204.575 180.519 199.904C180.057 199.628 179.629 200.349 180.091 200.626Z" fill="#17405C"/>
<path d="M182.71 217.195C185.481 216.038 188.939 216.265 191.902 216.223C195.101 216.172 198.299 216.265 201.489 216.474C202.026 216.508 202.026 215.669 201.489 215.636C198.022 215.418 194.547 215.325 191.063 215.401C188.268 215.46 185.111 215.292 182.484 216.39C181.997 216.592 182.207 217.397 182.71 217.195Z" fill="#17405C"/>
<path d="M173.619 147.318C168.826 155.654 181.141 166.958 188.889 167.57C189.132 167.586 189.233 167.217 189.015 167.108C185.43 165.331 182.098 164.148 179.143 161.289C175.55 157.809 172.477 152.66 174.341 147.62C174.492 147.193 173.837 146.941 173.619 147.318Z" fill="#17405C"/>
<path d="M195.453 167.787C204.133 169.02 212.209 163.419 214.878 155.243C215.046 154.731 214.257 154.53 214.081 155.025C211.084 163.268 204.133 167.377 195.52 167.301C195.252 167.301 195.176 167.754 195.453 167.787Z" fill="#17405C"/>
<path d="M221.51 190.354C222.862 182.404 223.39 174.295 222.811 166.245C222.769 165.708 221.947 165.7 221.972 166.245C222.307 174.337 222.081 182.253 221.032 190.287C220.998 190.555 221.468 190.622 221.51 190.354Z" fill="#17405C"/>
<path d="M223.105 187.184C224.541 183.243 226.161 179.452 227.756 175.578C227.89 175.243 227.353 175.033 227.177 175.335C225.12 178.899 223.659 183.092 222.795 187.1C222.753 187.293 223.03 187.368 223.105 187.184Z" fill="#17405C"/>
<path d="M165.955 174.639C166.122 169.062 165.72 163.31 164.922 157.784C164.863 157.373 164.15 157.465 164.192 157.884C164.687 163.469 165.048 169.037 165.409 174.639C165.426 174.991 165.946 174.991 165.955 174.639Z" fill="#17405C"/>
<path d="M159.466 164.442C160.397 167.519 161.69 170.916 163.31 173.7C163.562 174.127 164.225 173.842 164.099 173.364C163.285 170.27 161.774 166.916 160.263 164.098C160.028 163.67 159.323 163.964 159.466 164.442Z" fill="#17405C"/>
<path d="M136.087 183.326C137.312 182.974 138.555 182.748 139.839 182.731C140.972 182.714 142.114 183.083 143.231 182.941C143.575 182.899 143.717 182.488 143.407 182.278C141.417 180.945 137.942 181.691 135.852 182.463C135.323 182.664 135.524 183.494 136.087 183.326Z" fill="#B2CBD9"/>
<path d="M182.576 193.733C183.088 194.211 183.768 194.295 184.431 194.119C185.011 193.959 185.825 193.448 185.59 192.735C185.54 192.576 185.38 192.433 185.204 192.442C184.776 192.467 184.515 192.785 184.146 192.953C183.794 193.112 183.365 193.087 182.988 193.012C182.601 192.928 182.241 193.414 182.576 193.733Z" fill="#B2CBD9"/>
<path d="M185.078 148.761C188.981 152.065 194.824 153.608 199.323 151.176C203.596 148.87 205.51 143.805 206.576 139.076C207.693 134.103 208.247 128.996 208.23 123.898C208.221 120.736 207.978 117.525 206.887 114.564C203.949 106.59 194.328 101.768 186.177 104.183C166.114 110.103 173.149 138.665 185.078 148.761Z" fill="#F0F5F7"/>
<path d="M207.239 123.067C206.517 125.055 206.274 130.723 208.23 131.537C208.792 128.954 211.084 125.357 211.646 122.774C214.727 122.723 217.8 121.952 220.536 120.543C217.514 118.363 216.817 116.476 213.795 114.296C214.349 113.843 219.898 113.13 221.938 111.411C213.795 108.996 210.773 97.4492 191.801 99.336C183.709 100.141 179.839 104.963 179.05 105.047C171.411 105.877 170.362 114.749 170.362 118.229C170.362 125.256 170.353 124.166 172.427 131.52C173.065 133.767 176.548 133.096 178.874 132.862C181.711 132.577 175.81 121.365 182.374 118.237C190.66 114.279 196.821 125.432 207.239 123.067Z" fill="#3EAD52"/>
<path d="M177.463 129.843C177.463 129.843 175.801 126.153 173.317 126.556C172.041 126.765 171.218 128.945 171.73 132.09C171.99 133.692 172.393 134.782 173.384 136.098C174.248 137.247 175.44 138.396 176.951 138.43C178.899 138.472 179.562 135.293 177.463 129.843Z" fill="#E0EAF0"/>
<path d="M176.271 130.011C175.742 129.306 174.718 127.981 173.669 128.484C172.762 128.92 172.897 130.497 172.964 131.285C173.098 132.878 173.644 134.069 174.668 135.302C175.146 135.88 176.464 136.786 176.817 135.57C176.867 135.386 176.691 135.235 176.515 135.268C174.853 135.654 173.896 132.702 173.753 131.444C173.703 130.958 173.543 129.994 173.787 129.533C174.265 128.644 175.39 129.91 175.81 130.363C176.028 130.606 176.473 130.279 176.271 130.011Z" fill="#B2CBD9"/>
<path d="M206.291 129.767C206.291 129.767 208.23 126.111 210.715 126.522C211.99 126.732 212.637 130.48 211.965 132.476C211.445 134.011 211.344 134.782 210.354 136.099C209.489 137.247 208.297 138.396 206.786 138.43C204.821 138.472 204.612 134.757 206.291 129.767Z" fill="#E0EAF0"/>
<path d="M207.911 130.371C208.246 130.027 209.447 128.912 209.967 129.474C210.135 129.65 210.127 130.128 210.135 130.354C210.152 130.941 210.051 131.545 209.909 132.115C209.623 133.273 208.624 135.604 207.205 135.277C207.029 135.235 206.853 135.394 206.903 135.579C207.247 136.769 208.574 135.897 209.052 135.31C209.967 134.17 210.572 133.046 210.798 131.596C210.916 130.816 211.092 129.516 210.446 128.895C209.506 127.981 208.053 129.248 207.482 129.96C207.264 130.237 207.642 130.648 207.911 130.371Z" fill="#B2CBD9"/>
<path d="M188.452 131.025C188.452 132.04 187.814 132.862 187.025 132.862C186.236 132.862 185.598 132.04 185.598 131.025C185.598 130.011 186.236 129.189 187.025 129.189C187.806 129.189 188.452 130.011 188.452 131.025Z" fill="#3EAD52"/>
<path d="M201.01 131.025C201.01 132.04 200.372 132.862 199.583 132.862C198.794 132.862 198.156 132.04 198.156 131.025C198.156 130.011 198.794 129.189 199.583 129.189C200.372 129.189 201.01 130.011 201.01 131.025Z" fill="#3EAD52"/>
<path d="M193.413 130.681C192.977 132.09 193.296 134.396 194.471 135.419C195.168 136.023 195.906 135.738 196.611 136.141C196.838 137.516 196.452 138.304 195.445 138.497C195.277 138.556 195.109 138.614 194.941 138.665C194.143 138.941 193.388 139.193 192.532 139.193C192.196 139.193 191.952 139.662 192.238 139.897C193.287 140.761 194.328 140.09 195.486 139.646C196.611 139.21 197.325 138.908 197.736 137.683C198.013 136.853 197.971 136.082 197.283 135.495C196.821 135.101 196.183 135.159 195.705 134.849C194.53 134.078 194.101 132.241 194.278 130.925C194.362 130.363 193.589 130.111 193.413 130.681Z" fill="#B2CBD9"/>
<path d="M189.316 142.782C190.626 143.796 192.112 144.727 193.824 144.769C195.025 144.803 196.821 144.442 197.182 143.134C197.266 142.832 196.989 142.597 196.704 142.656C195.554 142.891 194.891 143.646 193.598 143.604C192.196 143.57 190.945 142.899 189.795 142.144C189.426 141.91 188.956 142.505 189.316 142.782Z" fill="#B2CBD9"/>
<path d="M192.431 146.329C192.775 146.363 193.111 146.396 193.455 146.438C193.783 146.472 194.118 146.547 194.437 146.446C194.572 146.404 194.714 146.295 194.74 146.144C194.756 146.061 194.756 145.994 194.74 145.91C194.714 145.759 194.572 145.65 194.437 145.608C194.118 145.499 193.791 145.583 193.455 145.616C193.111 145.65 192.775 145.683 192.431 145.725C192.037 145.75 192.037 146.287 192.431 146.329Z" fill="#B2CBD9"/>
<path d="M184.288 125.549C185.102 124.879 186.101 124.115 187.168 123.931C188.183 123.755 188.863 124.333 189.803 124.451C190.383 124.526 190.576 123.83 190.399 123.419C189.887 122.22 188.024 122.187 186.941 122.463C185.48 122.832 184.465 123.855 183.591 125.021C183.272 125.44 183.936 125.851 184.288 125.549Z" fill="#3EAD52"/>
<path d="M203.26 125.013C202.387 123.847 201.371 122.833 199.911 122.455C198.819 122.179 196.964 122.212 196.452 123.411C196.276 123.822 196.461 124.518 197.048 124.443C197.988 124.325 198.668 123.747 199.684 123.923C200.75 124.107 201.749 124.87 202.563 125.541C202.916 125.843 203.588 125.449 203.26 125.013Z" fill="#3EAD52"/>
<path d="M183.315 114.237C184.935 114.078 186.589 113.885 188.217 114.044C190.736 114.288 192.364 115.453 194.412 116.711C196.368 117.91 198.417 118.875 200.717 119.101C201.136 119.143 201.162 118.531 200.809 118.405C199.13 117.784 197.409 117.332 195.814 116.485C194.463 115.763 193.279 114.74 191.877 114.12C189.166 112.921 186.186 113.223 183.323 113.558C182.887 113.608 182.87 114.279 183.315 114.237Z" fill="#54819C" fill-opacity="0.8"/>
<path d="M185.766 110.204C191.088 109.558 194.613 110.204 199.071 113.374C201.38 115.017 203.655 116.032 206.492 115.654C206.777 115.613 206.761 115.151 206.492 115.101C203.982 114.59 201.69 114.053 199.541 112.569C198.274 111.696 197.09 110.665 195.671 110.036C192.506 108.627 188.997 109.105 185.673 109.567C185.321 109.617 185.405 110.254 185.766 110.204Z" fill="#54819C" fill-opacity="0.8"/>
<path d="M186.882 105.567C194.102 104.384 199.902 106.397 206.131 109.852C206.433 110.019 206.794 109.6 206.509 109.357C201.229 104.787 193.405 103.789 186.765 105.139C186.479 105.198 186.605 105.609 186.882 105.567Z" fill="#54819C" fill-opacity="0.8"/>
<path d="M194.714 101.684C200.901 101.667 205.443 103.847 210.597 106.958C210.823 107.093 211.059 106.782 210.874 106.598C206.844 102.422 200.33 100.879 194.714 101.231C194.42 101.248 194.412 101.692 194.714 101.684Z" fill="#54819C" fill-opacity="0.8"/>
<path d="M174.156 118.254C173.837 116.711 173.929 115.135 174.618 113.701C175.247 112.393 176.33 111.747 177.229 110.69C177.43 110.455 177.237 110.128 176.935 110.187C175.508 110.464 174.374 112.107 173.82 113.357C173.107 114.967 172.972 116.753 173.585 118.405C173.711 118.766 174.232 118.631 174.156 118.254Z" fill="#54819C" fill-opacity="0.8"/>
<path d="M177.195 122.531C177.631 121.139 177.329 119.856 177.329 118.43C177.338 116.803 177.984 116.032 179.327 115.269C179.537 115.151 179.47 114.866 179.268 114.791C178.135 114.38 177.203 115.554 176.826 116.502C176.07 118.388 176.943 120.409 176.515 122.346C176.414 122.791 177.061 122.967 177.195 122.531Z" fill="#54819C" fill-opacity="0.8"/>
<path d="M68.1908 274.042C64.6147 275.534 61.8192 276.381 58.9063 278.939C58.3019 279.467 57.6891 280.13 57.6807 280.935C57.6723 282.234 59.1246 283.199 60.4257 283.299C77.5424 284.616 90.7555 283.375 98.9319 282.31C98.7556 273.815 100.51 268.381 104.078 259.367C101.274 258.495 96.0861 252.507 93.5845 254.436C91.5614 256.004 89.2697 261.916 87.809 263.979C84.0734 269.245 74.0502 271.601 68.1908 274.042Z" fill="#89A8B5"/>
<path d="M189.627 237.12C180.259 229.85 142.063 196.148 133.669 196.148C118.03 195.636 107.326 232.743 88.3882 260.34C92.7198 263.182 100.426 266.998 101.786 266.771C103.356 266.511 128.632 235.367 132.2 224.147C139.864 231.594 162.739 259.216 166.55 263.442C171.738 269.203 185.489 272.214 190.735 270.017C196.032 267.794 234.387 241.405 229.351 238.638C218.454 232.634 191.583 238.629 189.627 237.12Z" fill="#17405C"/>
<path d="M188.301 251.778C188.217 249.858 188.318 247.963 188.662 246.068C188.931 244.592 189.476 243.183 189.669 241.699C189.72 241.33 189.166 241.229 188.998 241.514C187.319 244.382 187.369 248.583 187.68 251.778C187.705 252.172 188.318 252.189 188.301 251.778Z" fill="#FF9900"/>
<path d="M190.374 251.895C191.021 250.369 191.734 248.868 192.54 247.417C193.262 246.109 194.144 244.877 194.664 243.476C194.757 243.216 194.396 243.032 194.211 243.216C192.079 245.388 190.929 248.885 189.921 251.702C189.829 251.962 190.265 252.155 190.374 251.895Z" fill="#FF9900"/>
<path d="M74.1677 275.157C74.7301 275.786 75.2842 276.423 75.8634 277.035C76.3671 277.58 76.8539 278.234 77.5591 278.511C77.8781 278.637 78.2055 278.268 78.1047 277.966C77.8865 277.253 77.2233 276.708 76.7196 276.18C76.1404 275.568 75.5444 274.972 74.9484 274.377C74.4531 273.857 73.6976 274.629 74.1677 275.157Z" fill="#54819C"/>
<path d="M78.4993 274.193C79.1289 274.956 79.8341 275.66 80.5308 276.356C81.1268 276.952 81.706 277.773 82.5539 278.008C82.8729 278.1 83.2255 277.782 83.108 277.455C82.8141 276.583 81.9159 276.021 81.2527 275.425C80.5224 274.771 79.7921 274.117 79.003 273.539C78.6 273.228 78.2223 273.849 78.4993 274.193Z" fill="#54819C"/>
<path d="M81.8489 271.962C82.6296 272.767 83.4607 273.522 84.3337 274.226C85.0053 274.763 85.7692 275.593 86.6842 275.551C86.8773 275.543 87.0871 275.342 87.0032 275.14C86.6758 274.327 85.8028 273.966 85.1228 273.472C84.2078 272.801 83.3431 272.071 82.5121 271.3C82.0672 270.897 81.4292 271.535 81.8489 271.962Z" fill="#54819C"/>
<path d="M86.6589 269.883C87.4899 270.361 88.3042 270.872 89.0933 271.426C89.8068 271.929 90.4784 272.633 91.3431 272.834C91.7124 272.927 91.9811 272.541 91.8132 272.222C91.4186 271.426 90.5456 270.956 89.832 270.478C88.9842 269.916 88.1111 269.405 87.2213 268.927C86.5917 268.6 86.0377 269.522 86.6589 269.883Z" fill="#54819C"/>
<path d="M119.675 281.27C115.981 283.358 116.661 288.297 121.018 290.276C122.068 290.754 129.363 291.048 134.231 290.888C142.483 290.62 145.312 290.561 153.707 287.45C159.759 285.211 160.834 275.643 153.858 273.01C147.512 270.62 125.232 278.126 119.675 281.27Z" fill="#89A8B5"/>
<path d="M210.799 273.866C191.919 282.771 175.055 283.35 153.699 287.459C145.9 288.96 141.174 275.015 150.265 272.885C158.223 271.023 183.634 264.172 198.199 252.063C207.088 244.675 225.338 227.493 234.178 244.164C236.646 248.801 231.055 264.315 210.799 273.866Z" fill="#17405C"/>
<path d="M128.011 281.69C127.952 283.342 128.582 285.371 130.068 286.277C130.571 286.587 131.293 285.941 130.916 285.43C130.043 284.222 129.262 283.266 129.245 281.69C129.237 280.893 128.036 280.901 128.011 281.69Z" fill="#54819C"/>
<path d="M132.93 280.7C133.073 281.647 133.266 282.587 133.568 283.492C133.828 284.255 134.08 285.144 134.643 285.74C135.062 286.184 135.675 285.706 135.583 285.195C135.449 284.39 134.928 283.627 134.634 282.855C134.332 282.067 134.072 281.27 133.862 280.448C133.703 279.819 132.838 280.096 132.93 280.7Z" fill="#54819C"/>
<path d="M137.69 279.736C137.656 281.086 137.875 282.369 138.42 283.602C138.832 284.532 139.444 285.924 140.578 286.025C140.754 286.042 140.913 285.866 140.905 285.698C140.88 284.801 140.032 284.121 139.604 283.358C138.983 282.243 138.63 280.994 138.529 279.736C138.487 279.199 137.707 279.191 137.69 279.736Z" fill="#54819C"/>
<path d="M141.568 279.308C141.829 280.373 142.139 281.421 142.542 282.436C142.886 283.283 143.214 284.222 143.919 284.826C144.246 285.111 144.691 284.834 144.624 284.415C144.481 283.551 143.944 282.78 143.583 281.991C143.138 281.035 142.769 280.063 142.45 279.056C142.274 278.503 141.426 278.738 141.568 279.308Z" fill="#54819C"/>
<path d="M323.457 170.161C319.822 171.511 316.07 172.92 313.299 175.57C310.538 178.211 309.01 182.446 310.722 185.817C311.528 187.41 313.031 188.894 312.745 190.638C312.594 191.586 311.923 192.366 311.209 193.037C307.683 196.316 302.328 197.649 297.593 196.425C295.839 195.972 292.321 191.997 290.659 192.701C289.576 193.163 277.79 196.869 272.627 193.942C267.792 191.192 267.742 188.634 268.136 183.2C268.279 181.255 268.355 177.926 267.44 176.182C266.609 174.605 264.913 174.287 263.519 173.138C259.439 169.75 258.785 164.291 260.229 159.301C262.05 153.021 270.092 151.226 269.95 144.71C269.882 141.834 267.146 139.947 268.816 135.587C271.486 128.593 276.758 131.73 276.246 125.893C274.844 109.91 290.483 107.923 290.483 107.923C301.295 99.7132 304.569 108.493 311.956 108.493C318.084 108.493 321.022 113.206 321.862 117.315C324.103 128.291 318.252 125.7 323.264 140.124C326.059 148.182 317.841 150.79 318.848 156.283C319.604 160.408 326.076 165.934 323.457 170.161Z" fill="#99C6D8"/>
<path d="M353.342 179.654C353.342 179.654 348.867 150.002 346.525 147.696C344.502 145.7 340.33 142.304 334.177 140.602C333.866 138.681 335.898 137.843 337.568 138.849C339.239 139.855 340.758 140.468 342.546 139.688C341.43 134.799 334.454 126.17 336.057 125.197C337.534 124.979 340.8 130.17 343.856 133.793C342.756 128.719 339.91 119.78 342.429 119.78C343.805 119.78 345.786 132.325 347.323 132.325C348.859 132.325 346.525 122.824 348.439 122.044C349.556 121.139 349.698 132.325 350.538 133.021C351.906 132.862 352.913 127.369 354.315 127.076C356.976 127.369 351.906 132.862 353.476 136.996C355.297 141.776 353.98 144.384 354.592 145.885C358.983 156.669 370.819 186.555 367.042 193.683C364.078 199.267 361.308 199.829 356.011 197.574C350.194 195.091 345.283 191.888 339.616 189.071C333.186 185.867 326.311 180.333 322.794 174.077C319.696 168.559 318.017 166.228 320.242 160.3C322.038 155.486 324.061 155.973 324.061 155.973C328.703 156.92 333.304 160.425 335.092 162.329C343.318 171.1 346.416 173.356 353.342 179.654Z" fill="#E0EAF0"/>
<path d="M353.333 182.84C353.216 184.341 353.207 187.1 354.668 188.014C354.953 188.19 355.255 187.955 355.281 187.662C355.356 186.907 354.928 186.186 354.718 185.473C354.466 184.601 354.332 183.737 354.315 182.832C354.307 182.203 353.384 182.219 353.333 182.84Z" fill="#B2CBD9"/>
<path d="M287.259 205.137C289.24 216.147 281.375 227.25 278.554 238.084C276.867 244.575 275.725 251.761 277.807 260.063C292.884 262.403 313.005 253.614 326.529 246.554C328.93 245.296 331.322 243.862 333.035 241.766C338.727 234.831 335.302 224.583 333.035 215.904C328.317 197.867 335.73 194.219 336.149 183.896C336.359 178.622 330.13 174.756 329.274 168.777C328.435 162.907 325.547 156.199 324.07 155.972C321.022 155.503 318.663 154.48 316.984 154.622C309.547 155.243 296.879 153.239 287.007 155.209C282.004 156.207 272.971 159.285 271.309 160.626C261.11 168.819 285.421 194.898 287.259 205.137Z" fill="#17405C"/>
<path d="M288.006 154.765C284.867 155.805 286.613 159.746 288.837 162.186C291.809 165.44 297.517 170.362 305.215 170.354C315.045 170.337 317.228 165.599 317.807 164.182C319.008 161.28 319.671 156.257 316.993 154.614C316.993 154.614 310.806 154.991 309.135 153.7C306.407 151.595 306.474 141.021 306.474 141.021C305.039 139.78 287.1 136.878 288.199 139.62C290.802 146.128 291.607 153.574 288.006 154.765Z" fill="#E0EAF0"/>
<path d="M292.976 161.557C294.823 161.633 296.678 161.641 298.525 161.725C300.128 161.8 301.782 162.161 303.368 161.876C303.763 161.809 303.662 161.289 303.368 161.171C301.765 160.534 299.834 160.677 298.13 160.668C296.367 160.651 294.646 160.769 292.909 161.037C292.59 161.079 292.682 161.549 292.976 161.557Z" fill="#B2CBD9"/>
<path d="M308.716 161.23C310.571 161.163 313.182 161.138 314.793 160.115C315.129 159.905 315.02 159.318 314.584 159.335C313.702 159.369 312.837 159.738 311.981 159.947C310.907 160.207 309.824 160.4 308.724 160.526C308.271 160.568 308.246 161.239 308.716 161.23Z" fill="#B2CBD9"/>
<path d="M305.006 152.283C309.975 151.1 314.189 144.048 315.583 139.134C316.993 134.145 316.179 127.403 315.574 122.262C313.711 106.43 293.79 105.374 286.109 118.346C278.579 131.059 291.364 155.52 305.006 152.283Z" fill="#E0EAF0"/>
<path d="M296.888 134.153C297.676 134.153 298.315 133.331 298.315 132.317C298.315 131.302 297.676 130.48 296.888 130.48C296.1 130.48 295.461 131.302 295.461 132.317C295.461 133.331 296.1 134.153 296.888 134.153Z" fill="#54819C" fill-opacity="0.8"/>
<path d="M309.824 131.981C309.824 132.996 309.186 133.818 308.397 133.818C307.608 133.818 306.97 132.996 306.97 131.981C306.97 130.967 307.608 130.145 308.397 130.145C309.186 130.145 309.824 130.967 309.824 131.981Z" fill="#54819C" fill-opacity="0.8"/>
<path d="M288.577 129.382C290.122 125.667 292.9 121.348 296.888 121.348C299.692 121.348 303.133 122.053 305.794 121.155C307.599 120.552 308.657 118.74 309.555 117.063C311.562 119.612 314.634 122.187 314.475 125.424C314.021 134.488 317.723 137.356 319.234 137.231C320.074 132.426 321.022 123.705 318.017 117.29C317.304 115.772 316.54 114.22 315.28 113.114C314.114 112.091 312.645 111.512 311.201 110.95C306.886 109.273 302.411 107.562 297.778 107.755C295.251 107.856 292.774 108.535 290.39 109.39C287.956 110.271 285.513 111.411 283.817 113.374C281.526 116.023 280.955 119.721 280.728 123.21C280.426 127.839 280.627 132.744 282.583 137.029C283.129 138.245 287.293 132.493 288.577 129.382Z" fill="#99C6D8"/>
<path d="M303.318 130.925C302.932 132.535 303.117 134.12 304.015 135.528C304.367 136.082 305.476 136.702 305.652 137.231C305.895 137.943 304.493 139.193 304.275 140.015C304.2 140.308 304.544 140.61 304.812 140.426C305.727 139.813 307.39 138.136 306.836 136.92C306.559 136.3 305.778 135.964 305.341 135.478C304.284 134.304 303.923 132.686 304.183 131.159C304.284 130.606 303.461 130.354 303.318 130.925Z" fill="#B2CBD9"/>
<path d="M306.122 142.455L299.146 141.23C299.431 142.95 299.683 147.763 301.925 148.14C304.225 148.534 305.652 144.97 306.122 142.455Z" fill="white"/>
<path d="M306.676 124.518C307.683 124.317 308.691 124.317 309.681 124.56C310.462 124.753 311.133 125.206 311.897 125.424C312.057 125.466 312.25 125.264 312.132 125.113C310.974 123.587 308.212 123.637 306.542 124.057C306.256 124.141 306.382 124.577 306.676 124.518Z" fill="#54819C" fill-opacity="0.8"/>
<path d="M300.095 124.065C298.365 123.654 295.452 123.562 294.193 125.08C294.067 125.231 294.185 125.491 294.395 125.432C295.209 125.214 295.931 124.761 296.754 124.568C297.82 124.317 298.894 124.317 299.969 124.526C300.263 124.577 300.397 124.132 300.095 124.065Z" fill="#54819C" fill-opacity="0.8"/>
<path d="M287.805 132.468C287.805 132.468 286.319 129.08 283.818 129.315C282.533 129.432 281.61 131.336 281.962 134.17C282.147 135.612 282.491 136.61 283.415 137.834C284.221 138.908 285.362 139.998 286.865 140.107C288.829 140.249 289.643 137.449 287.805 132.468Z" fill="#E0EAF0"/>
<path d="M286.604 132.526C286.084 131.855 285.203 130.983 284.254 131.143C283.095 131.335 282.961 132.979 283.079 133.893C283.221 134.975 283.775 136.023 284.447 136.878C284.925 137.482 286.126 138.488 286.823 137.65C286.94 137.507 286.898 137.306 286.714 137.247C286.084 137.054 285.605 137.071 285.127 136.518C284.766 136.09 284.455 135.553 284.22 135.042C283.851 134.229 283.398 132.711 284.304 132.14C284.791 131.83 284.951 131.973 285.404 132.275C285.673 132.451 285.916 132.652 286.134 132.878C286.369 133.113 286.814 132.795 286.604 132.526Z" fill="#B2CBD9"/>
<path d="M287.033 125.382C289.61 119.554 293.782 115.705 300.456 116.3C303.352 116.56 304.023 114.984 306.046 113.097C306.365 112.803 305.954 112.275 305.585 112.501C303.167 113.977 303.646 115.327 300.095 115.394C298.08 115.428 296.502 115.302 294.563 116.099C290.6 117.726 288.166 121.298 286.537 125.088C286.395 125.432 286.882 125.726 287.033 125.382Z" fill="#17405E"/>
<path d="M284.346 121.675C285.496 118.396 288.166 116.266 290.928 114.338C292.372 113.323 293.706 112.77 295.52 112.602C296.737 112.493 297.744 112.594 298.911 112.216C299.196 112.124 299.171 111.646 298.835 111.663C297.123 111.755 295.209 111.629 293.547 112.099C292.019 112.535 290.726 113.6 289.484 114.547C286.991 116.459 284.926 118.514 284.019 121.583C283.96 121.801 284.279 121.885 284.346 121.675Z" fill="#17405E"/>
<path d="M280.862 120.032C281.5 118.002 282.936 116.468 284.707 115.336C286.201 114.38 287.948 113.935 289.425 112.971C289.66 112.82 289.501 112.493 289.24 112.543C285.446 113.197 281.358 116.074 280.325 119.889C280.241 120.233 280.753 120.367 280.862 120.032Z" fill="#17405E"/>
<path d="M276.791 134.363C275.003 136.182 273.333 137.164 273.559 139.922C273.929 144.417 277.077 148.182 273.71 152.492C273.509 152.744 273.769 153.214 274.088 152.987C276.162 151.545 276.439 149.088 276.212 146.69C276.061 145.029 275.532 143.511 275.087 141.91C274.206 138.715 275.742 137.239 277.396 134.824C277.647 134.463 277.093 134.052 276.791 134.363Z" fill="#17405E"/>
<path d="M279.99 139.143C278.596 139.964 278.218 141.44 278.63 142.958C278.965 144.207 279.797 145.247 280.233 146.455C280.913 148.358 280.569 149.96 280.023 151.813C279.939 152.09 280.3 152.291 280.502 152.09C281.694 150.916 281.92 149.281 281.66 147.662C281.341 145.641 278.017 141.49 280.435 139.906C280.913 139.595 280.485 138.849 279.99 139.143Z" fill="#17405E"/>
<path d="M284.85 144.275C285.564 145.398 286.16 146.564 286.596 147.822C286.949 148.845 287.083 149.935 287.511 150.924C287.645 151.243 288.09 151.05 288.107 150.765C288.241 148.467 286.672 145.767 285.421 143.939C285.194 143.578 284.623 143.906 284.85 144.275Z" fill="#17405E"/>
<path d="M312.787 115.554C317.018 117.793 316.179 123.638 316.884 127.562C316.943 127.872 317.354 127.755 317.388 127.495C317.9 123.638 316.917 117.13 312.98 115.227C312.762 115.126 312.569 115.445 312.787 115.554Z" fill="#17405E"/>
<path d="M315.146 113.701C318.739 114.799 318.84 118.455 319.612 121.491C319.679 121.768 320.066 121.684 320.091 121.424C320.385 118.086 318.84 114.053 315.281 113.231C314.97 113.164 314.844 113.608 315.146 113.701Z" fill="#17405E"/>
<path d="M315.44 151.78C314.147 147.184 319.931 144.92 319.528 140.677C319.503 140.434 319.192 140.384 319.1 140.619C318.638 141.885 318.261 143.075 317.539 144.241C316.926 145.222 316.212 146.128 315.683 147.159C314.894 148.685 314.55 150.22 315.071 151.88C315.146 152.115 315.507 152.015 315.44 151.78Z" fill="#17405E"/>
<path d="M318.454 150.673C319.495 148.71 322.063 145.901 320.997 143.52C320.913 143.335 320.619 143.394 320.577 143.578C320.267 144.92 320.124 146.111 319.495 147.369C318.982 148.4 318.445 149.423 318.026 150.497C317.925 150.74 318.336 150.907 318.454 150.673Z" fill="#17405E"/>
<path d="M264.426 167.15C262.722 163.268 263.754 159.704 267.557 157.817C267.784 157.7 267.691 157.281 267.423 157.314C262.596 157.935 262.319 163.989 263.931 167.436C264.082 167.788 264.569 167.486 264.426 167.15Z" fill="#17405E"/>
<path d="M311.956 278.167C329.174 272.867 367.101 257.438 385.099 256.633C392.721 256.289 398.774 260.801 406.295 262.084C420.759 264.557 431.689 265.019 447.219 268.582C449.066 264.18 450.493 261.497 450.535 257.203C435.206 251.828 420.146 245.715 404.826 240.34C398.178 238.008 392.436 235.669 385.485 234.503C367.394 231.476 347.827 238.855 330.206 243.937C322.785 246.075 315.339 248.222 308.229 251.233C300.271 254.595 289.324 266.276 297.182 274.243C303.595 280.742 311.956 278.167 311.956 278.167Z" fill="#448098"/>
<path d="M454.128 274.813C456.814 274.763 471.362 258.1 475.475 249.337C476.491 247.174 474.325 246.159 472.143 246.73C463.253 249.044 457.855 258.721 448.881 255.954C447.328 255.476 443.567 252.708 441.939 252.759C440.319 252.809 438.891 258.536 438.589 260.13C437.985 263.299 436.029 267.71 437.296 269.01C439.185 271.031 440.579 269.077 445.305 269.396C448.512 269.622 451.45 274.863 454.128 274.813Z" fill="#3EAD52"/>
<path d="M443.634 260.104C443.786 259.341 443.903 258.578 444.088 257.824C444.23 257.211 444.617 256.515 444.39 255.903C444.314 255.702 444.079 255.559 443.878 255.694C443.29 256.079 443.215 256.884 443.08 257.538C442.904 258.343 442.795 259.165 442.795 259.979C442.787 260.465 443.542 260.591 443.634 260.104Z" fill="#234183"/>
<path d="M447.89 261.404C448.117 260.926 448.251 260.415 448.403 259.903C448.528 259.484 448.814 258.981 448.528 258.587C448.428 258.452 448.293 258.411 448.134 258.486C447.689 258.679 447.689 259.257 447.588 259.685C447.471 260.205 447.32 260.717 447.286 261.245C447.261 261.555 447.756 261.698 447.89 261.404Z" fill="#234183"/>
<path d="M453.691 261.664C453.733 260.742 453.918 259.669 453.523 258.813C453.448 258.654 453.171 258.654 453.095 258.813C452.701 259.669 452.885 260.742 452.927 261.664C452.952 262.159 453.666 262.159 453.691 261.664Z" fill="#234183"/>
<path d="M456.881 258.143C456.839 258.595 457.175 259.14 457.343 259.56C457.679 260.415 458.913 259.761 458.434 259.098C458.149 258.704 457.846 258.067 457.41 257.841C457.158 257.715 456.906 257.874 456.881 258.143Z" fill="#234183"/>
<path d="M460.474 256.113C460.642 256.641 460.894 257.136 461.129 257.631C461.439 258.31 462.564 257.665 462.128 257.044C461.817 256.591 461.523 256.122 461.154 255.719C460.877 255.417 460.357 255.736 460.474 256.113Z" fill="#234183"/>
<path d="M309.27 278.788C316.682 277.698 323.432 271.442 325.606 268.968C338.072 254.864 344.788 247.258 357.254 233.153C366.765 243.082 371.256 249.329 380.767 259.266C388.246 267.073 391.814 269.882 397.707 276.725C400.158 275.853 406.396 275.962 407.772 270.964C408.461 268.457 366.53 204.6 363.063 203.795C360.527 203.208 358.236 201.598 355.633 201.481C353.098 201.364 350.739 202.68 348.54 203.955C331.658 213.749 322.617 223.074 307.868 235.854C302.193 240.768 299.188 243.409 291.834 246.419C286.05 248.784 276.145 250.872 277.429 258.377C280.728 277.698 297.677 280.499 309.27 278.788Z" fill="#448098"/>
<path d="M399.579 287.836C401.535 289.672 423.596 287.911 432.671 284.515C434.912 283.677 434.073 281.438 432.108 280.322C424.133 275.769 413.497 278.922 409.023 270.679C408.251 269.253 407.487 264.65 406.295 263.551C405.103 262.453 401.157 265.262 398.74 266.486C397.346 267.191 391.604 270.117 391.604 271.937C391.546 274.696 393.904 274.276 397.061 277.807C399.193 280.197 397.632 285.999 399.579 287.836Z" fill="#3EAD52"/>
<path d="M402.291 270.151C403.063 269.648 403.877 269.22 404.742 268.893C405.405 268.641 406.177 268.591 406.74 268.147C406.941 267.987 406.815 267.644 406.589 267.585C405.816 267.4 404.969 267.845 404.263 268.155C403.399 268.532 402.626 269.052 401.888 269.631C401.602 269.866 401.98 270.361 402.291 270.151Z" fill="#17405E"/>
<path d="M404.809 273.949C405.38 273.689 405.951 273.43 406.522 273.161C406.992 272.943 407.571 272.809 407.84 272.339C407.965 272.121 407.798 271.912 407.579 271.887C407.05 271.82 406.564 272.222 406.11 272.457C405.556 272.75 405.011 273.044 404.457 273.337C404.045 273.555 404.406 274.134 404.809 273.949Z" fill="#17405E"/>
<path d="M407.756 277.513C408.192 277.211 408.629 276.901 409.065 276.599C409.46 276.322 409.888 276.088 410.115 275.652C410.24 275.417 410.039 275.165 409.779 275.215C409.292 275.308 408.939 275.66 408.57 275.953C408.15 276.289 407.739 276.616 407.319 276.951C407 277.203 407.42 277.748 407.756 277.513Z" fill="#17405E"/>
<path d="M412.205 280.524C412.96 280.012 414.102 279.191 414.177 278.218C414.194 277.941 413.875 277.815 413.665 277.924C413.262 278.134 413.061 278.495 412.759 278.822C412.448 279.157 412.104 279.459 411.735 279.719C411.248 280.063 411.709 280.868 412.205 280.524Z" fill="#266A9A"/>
<path d="M417.157 281.53C417.812 280.909 418.627 279.937 418.383 278.981C418.316 278.729 417.997 278.662 417.812 278.83C417.502 279.115 417.367 279.459 417.174 279.819C416.973 280.188 416.721 280.507 416.427 280.8C415.949 281.27 416.671 281.983 417.157 281.53Z" fill="#17405E"/>
<path d="M372.498 213.162C373.707 210.865 369.224 201.775 368.058 200.777C367.176 199.536 365.791 197.724 362.148 196.861C349.556 197.439 341.623 188.844 314.567 187.662C309.748 187.452 300.758 179.578 294.848 174.345C287.083 167.461 281.349 156.249 271.301 160.618C261.387 164.92 269.605 178.228 276.523 183.184C281.887 187.024 299.986 199.351 304.997 199.728C324.078 201.146 333.757 202.311 351.94 203.309C353.963 203.418 355.508 206.638 357.396 207.368C357.598 207.552 362.156 209.598 365.648 214.999C367.781 215.124 364.859 210.269 363.927 208.592C364.003 204.533 369.292 218.688 370.962 216.726C371.457 214.915 369.552 209.942 367.957 206.839C369.753 208.735 371.323 213.883 372.498 213.162Z" fill="#E0EAF0"/>
<path d="M364.75 201.582C365.262 202.546 365.774 203.51 366.295 204.466C366.698 205.213 367.033 206.194 367.772 206.646C367.94 206.747 368.175 206.613 368.167 206.42C368.142 205.556 367.453 204.768 367.017 204.047C366.454 203.116 365.867 202.194 365.296 201.263C365.078 200.919 364.557 201.221 364.75 201.582Z" fill="#B2CBD9"/>
<path d="M361.787 205.363C361.98 205.799 362.802 207.77 363.524 207.292C363.919 207.032 363.55 206.529 363.348 206.286C363.012 205.875 362.727 205.431 362.467 204.961C362.215 204.516 361.585 204.911 361.787 205.363Z" fill="#B2CBD9"/>
<path d="M310.58 191.175C310.89 190.563 311.352 190.11 311.872 189.682C312.292 189.339 312.913 188.953 313.048 188.399C313.098 188.165 312.88 187.854 312.611 187.963C312.04 188.198 311.553 188.819 311.125 189.255C310.63 189.75 310.235 190.278 309.967 190.924C309.807 191.267 310.403 191.511 310.58 191.175Z" fill="#B2CBD9"/>
</svg>
