<svg width="31" height="29" viewBox="0 0 31 29" fill="none" xmlns="http://www.w3.org/2000/svg">
<path d="M26.8986 0H4.41324C2.47388 0 0.899902 1.5232 0.899902 3.4V25.16C0.899902 27.0368 2.47388 28.56 4.41324 28.56H26.8986C28.8379 28.56 30.4119 27.0368 30.4119 25.16V3.4C30.4119 1.5232 28.8379 0 26.8986 0ZM10.0346 10.88V23.8H5.81857V10.88H10.0346ZM5.81857 7.1196C5.81857 6.1676 6.66177 5.44 7.92657 5.44C9.19137 5.44 9.98538 6.1676 10.0346 7.1196C10.0346 8.0716 9.24758 8.84 7.92657 8.84C6.66177 8.84 5.81857 8.0716 5.81857 7.1196ZM25.4932 23.8H21.2772C21.2772 23.8 21.2772 17.5032 21.2772 17C21.2772 15.64 20.5746 14.28 18.8179 14.2528H18.7617C17.0612 14.2528 16.3586 15.6536 16.3586 17C16.3586 17.6188 16.3586 23.8 16.3586 23.8H12.1426V10.88H16.3586V12.6208C16.3586 12.6208 17.7147 10.88 20.4411 10.88C23.2306 10.88 25.4932 12.7364 25.4932 16.4968V23.8Z" fill="#54819C"/>
</svg>
