<svg width="290" height="51" viewBox="0 0 290 51" fill="none" xmlns="http://www.w3.org/2000/svg">
<path d="M79.897 4.87402L68.4419 36.7504H71.0544L74.5168 27.1238C76.2831 27.013 78.6221 26.945 81.5376 26.945C84.5197 26.945 86.8587 27.013 88.5585 27.1238L92.0098 36.7504H94.6223L83.1414 4.87402H79.897ZM81.5266 7.58462L87.668 24.6743C86.0162 24.6063 83.9728 24.5634 81.5229 24.5634C79.073 24.5634 77.0517 24.6063 75.3778 24.6743L81.5266 7.58462Z" fill="#1A4087"/>
<path d="M109.319 16.1887C110.26 16.1123 111.208 16.2185 112.106 16.5009C113.005 16.7834 113.836 17.2364 114.551 17.8336C116.269 19.264 117.138 21.5669 117.138 24.7675C117.138 28.769 116.059 31.5011 113.927 32.9922C112.641 33.9041 110.878 34.3475 108.654 34.3475C108.262 34.3475 107.623 34.3261 106.728 34.3046C105.675 34.2617 104.881 34.2367 104.345 34.2367C103.376 34.2176 102.407 34.2991 101.455 34.4799V24.771C101.455 21.3488 102.564 18.9243 104.847 17.4796C106.082 16.7089 107.507 16.2719 108.975 16.2137L109.319 16.1887ZM101.452 36.9723C101.84 36.7506 102.804 36.6147 104.341 36.6147C104.847 36.6147 105.601 36.6362 106.636 36.6827C107.575 36.7041 108.24 36.7256 108.654 36.7256C111.406 36.7256 113.653 36.1248 115.371 34.9376C118.192 32.9803 119.599 29.5939 119.591 24.7782C119.65 22.6936 119.21 20.624 118.305 18.7312C117.614 17.3507 116.542 16.1815 115.209 15.3519C113.442 14.293 111.392 13.7596 109.315 13.8178H108.971C107.014 13.8328 105.106 14.4131 103.491 15.4842C100.488 17.3914 98.9906 20.4906 98.998 24.7818L98.9758 48.2117H101.429L101.452 36.9723Z" fill="#1A4087"/>
<path d="M134.291 16.1887C135.231 16.1128 136.178 16.2192 137.076 16.5016C137.974 16.7841 138.804 17.2369 139.519 17.8336C141.238 19.264 142.106 21.5669 142.106 24.7675C142.106 28.769 141.027 31.5011 138.895 32.9922C137.609 33.9041 135.846 34.3475 133.622 34.3475C133.234 34.3475 132.591 34.3261 131.697 34.3046C130.643 34.2617 129.849 34.2367 129.313 34.2367C128.344 34.2176 127.375 34.2991 126.424 34.4799V24.771C126.424 21.3488 127.532 18.9243 129.816 17.4796C131.05 16.7089 132.475 16.2719 133.943 16.2137L134.291 16.1887ZM126.424 36.9723C126.812 36.7506 127.776 36.6147 129.313 36.6147C129.819 36.6147 130.573 36.6362 131.608 36.6827C132.546 36.7041 133.212 36.7256 133.625 36.7256C136.378 36.7256 138.625 36.1248 140.343 34.9376C143.164 32.9803 144.571 29.5939 144.563 24.7782C144.622 22.6936 144.182 20.624 143.277 18.7312C142.586 17.3507 141.514 16.1815 140.181 15.3519C138.414 14.293 136.364 13.7596 134.287 13.8178H133.943C131.986 13.8328 130.078 14.4131 128.463 15.4842C125.46 17.3914 123.963 20.4906 123.97 24.7818L123.948 48.2117H126.401L126.424 36.9723Z" fill="#1A4087"/>
<path d="M177.587 34.2615L173.759 32.2625C176.305 29.484 177.587 25.6827 177.587 20.8194C177.587 14.6186 175.499 10.0914 171.35 7.32715C169.123 5.76162 166.449 4.90438 163.697 4.87402H163.239C160.036 4.87402 157.285 5.62975 154.984 7.1412C153.11 8.38622 151.62 10.0989 150.671 12.0975C149.496 14.4756 148.916 17.39 148.916 20.8122C148.916 24.2344 149.489 27.1489 150.66 29.5269C151.61 31.526 153.101 33.2388 154.976 34.4832C157.27 35.9947 160.022 36.7504 163.231 36.7504H163.697C166.327 36.728 168.89 35.946 171.058 34.5047L176.331 36.7504L177.587 34.2615ZM166.165 32.4163C165.364 32.6576 164.529 32.7783 163.69 32.7739H163.231C160.364 32.7739 158.058 32.0194 156.373 30.5067C154.156 28.5077 153.025 25.2822 153.025 20.8158C153.025 16.3494 154.134 13.1238 156.373 11.1249C158.069 9.61221 160.364 8.85768 163.231 8.85768H163.697C165.621 8.88475 167.489 9.49092 169.04 10.592C171.996 12.5922 173.475 16.0001 173.475 20.8158C173.475 25.0819 172.307 28.2395 169.99 30.3065L164.144 27.2383L162.356 30.7964L166.165 32.4163Z" fill="#44AD3F"/>
<path d="M183.573 33.7714C185.089 35.7489 187.45 36.7502 190.683 36.7502C192.923 36.776 195.116 36.1233 196.954 34.8835V36.7502H201.059V13.8102H196.954V30.7926C195.409 32.0971 193.432 32.8228 191.381 32.838C188.928 32.838 187.317 32.1729 186.611 30.814C186.255 30.2084 186.133 29.4997 186.267 28.8151V13.7959H182.151L182.129 28.6899V28.7114C182.129 30.646 182.498 32.3124 183.573 33.7571" fill="#44AD3F"/>
<path d="M219.025 31.5727C218.818 31.9053 218.316 32.195 217.466 32.4381C216.192 32.7871 214.857 32.8784 213.545 32.7063C210.863 32.3738 209.51 31.2187 209.51 29.2841C209.506 28.8182 209.635 28.3603 209.882 27.9604C210.129 27.5605 210.485 27.2341 210.911 27.0169C211.716 26.5481 212.632 26.2883 213.571 26.2624C215.422 26.2409 217.259 25.964 219.029 25.4399L219.025 31.5727ZM207.603 34.3084C209.348 35.9319 211.753 36.7543 214.828 36.7543C217.739 36.7543 220.001 36.0892 221.571 34.7303C222.057 34.3625 222.451 33.894 222.725 33.3593C222.998 32.8246 223.145 32.2373 223.153 31.6407V21.2345C223.153 17.7658 221.18 15.4343 217.259 14.3007C215.171 13.6859 212.946 13.6475 210.837 14.1898C208.879 14.6606 207.114 15.6912 205.771 17.1472L208.845 19.8149C209.626 18.9165 210.689 18.2888 211.871 18.0269C213.25 17.6706 214.704 17.6941 216.069 18.0948C217.994 18.6491 218.981 19.6504 219.025 21.0736C218.682 21.3847 217.972 21.6529 216.915 21.8747C215.763 22.1244 214.589 22.2657 213.409 22.2966C211.522 22.3381 209.696 22.944 208.18 24.031C207.304 24.6142 206.592 25.399 206.108 26.3147C205.623 27.2305 205.382 28.2484 205.405 29.277C205.389 30.2155 205.578 31.1468 205.96 32.0096C206.342 32.8724 206.909 33.6472 207.622 34.2833" fill="#44AD3F"/>
<path d="M227.509 31.6833C227.514 32.9823 228.044 34.2277 228.987 35.152C229.445 35.6578 230.009 36.0626 230.642 36.339C231.275 36.6154 231.962 36.757 232.657 36.7541H234.401V32.8992H232.797C232.606 32.9015 232.417 32.8604 232.246 32.779C232.075 32.6976 231.925 32.5783 231.81 32.4307C231.626 32.2094 231.52 31.9356 231.511 31.6511V2.73926H227.52L227.509 31.6833Z" fill="#44AD3F"/>
<path d="M242.345 36.7506H238.244V13.8321H242.349L242.345 36.7506ZM242.002 8.78639C242.23 8.57428 242.404 8.3125 242.507 8.02273C242.611 7.73295 242.641 7.4235 242.597 7.11998C242.636 6.81718 242.603 6.50962 242.501 6.22104C242.398 5.93246 242.228 5.67058 242.004 5.45562C241.78 5.24067 241.508 5.07838 241.209 4.9813C240.91 4.88422 240.592 4.85494 240.28 4.89571C239.972 4.85389 239.658 4.88222 239.364 4.97845C239.069 5.07469 238.802 5.23615 238.584 5.44999C238.356 5.66314 238.184 5.92503 238.081 6.21451C237.977 6.504 237.946 6.81295 237.989 7.1164C237.944 7.41993 237.975 7.72938 238.078 8.01915C238.182 8.30893 238.355 8.5707 238.584 8.78281C238.798 9.00301 239.064 9.17044 239.359 9.2712C239.654 9.37196 239.97 9.40313 240.28 9.36213C240.593 9.40489 240.913 9.37464 241.211 9.27388C241.51 9.17311 241.78 9.00476 241.998 8.78281" fill="#44AD3F"/>
<path d="M253.926 13.9678V4.87402H249.732V13.9213L246.406 13.8533V17.8549L249.71 17.812C249.71 18.0122 249.71 19.9003 249.732 23.5335C249.754 27.3134 249.754 30.0025 249.754 31.601C249.746 32.3405 249.912 33.072 250.24 33.7404C250.567 34.4088 251.046 34.9966 251.642 35.4595C252.695 36.3249 253.774 36.8148 254.853 36.7504L258.294 36.475V33.2567L255.267 32.9885C254.373 32.8991 253.915 32.3877 253.915 31.5008C253.915 31.0324 253.915 28.7008 253.937 24.4776C253.959 20.3438 253.959 18.098 253.959 17.744L260.012 17.6546V14.0536L253.926 13.9678Z" fill="#44AD3F"/>
<path d="M280.129 13.8102C277.643 20.3686 275.311 26.2737 273.134 31.5257C270.567 25.1461 268.313 19.241 266.372 13.8102H262.015C264.56 21.0337 267.516 28.6947 270.883 36.7931C269.509 39.9257 268.36 42.3073 267.443 43.9737C266.593 44.2848 265.518 44.3313 264.165 44.131L263.523 48.0646C264.183 48.156 264.85 48.2003 265.518 48.1969C268.315 48.1969 270.104 47.5068 270.883 46.1515C272.741 42.883 275.431 36.8885 278.954 28.1678C280.879 23.3653 282.76 18.5877 284.526 13.8066L280.129 13.8102Z" fill="#44AD3F"/>
<path d="M19.7876 1.1625C19.69 1.16652 19.5932 1.18213 19.4994 1.20899C19.4091 1.23483 19.3232 1.27339 19.2445 1.32342C19.169 1.37158 19.1027 1.43208 19.0486 1.50222C18.9919 1.57611 18.9505 1.65989 18.9267 1.74896C18.5916 2.96718 18.2726 4.1866 17.9696 5.4072C17.6666 6.62781 17.3673 7.85318 17.0717 9.08332C16.7761 10.3135 16.4829 11.5496 16.1922 12.7916C15.9015 14.0337 15.5985 15.2841 15.2832 16.5428V16.5965V16.6501V16.7038C15.2832 16.7038 15.2832 16.7395 15.2832 16.7574C15.2827 16.8678 15.3001 16.9776 15.3349 17.0828C15.3691 17.1871 15.4189 17.2859 15.4828 17.376C15.546 17.4657 15.6233 17.5454 15.7119 17.6121C15.8005 17.6785 15.9006 17.7293 16.0075 17.7622L16.9387 18.0412L17.8735 18.313L18.8084 18.5812L19.7433 18.8422H19.8061H19.8689H19.9318H20.0759H20.1572L20.2348 18.8243L20.3124 18.7993L21.9678 18.1306L23.6454 17.4547L25.3452 16.761L27.0709 16.0458C27.2021 15.9901 27.3193 15.9076 27.4143 15.8039C27.5094 15.7002 27.58 15.5777 27.6214 15.445C27.6497 15.3582 27.6647 15.2678 27.6658 15.1768C27.6719 15.1162 27.6719 15.0551 27.6658 14.9944C27.6658 14.9658 27.6658 14.9336 27.6436 14.905C27.6342 14.8747 27.6231 14.8448 27.6104 14.8156C27.1177 13.7285 26.625 12.6414 26.1323 11.5543C25.6396 10.4672 25.1161 9.38013 24.5618 8.29303C24.0199 7.20593 23.4533 6.11406 22.862 5.01742C22.2708 3.92078 21.6315 2.82891 20.9442 1.74181C20.8854 1.64274 20.8105 1.55341 20.7225 1.47719C20.6371 1.40272 20.5413 1.34013 20.438 1.29124C20.3357 1.24397 20.2277 1.20914 20.1165 1.18753C20.0072 1.16598 19.8955 1.15757 19.784 1.1625" fill="#1A4087"/>
<path d="M32.8869 28.6296C32.8316 28.6248 32.7759 28.6248 32.7206 28.6296C32.609 28.6487 32.5022 28.6888 32.4065 28.7477C32.3561 28.7788 32.3091 28.8147 32.2661 28.8549C31.5271 29.5558 30.7782 30.252 30.0194 30.9433C29.2607 31.6347 28.5044 32.3248 27.7506 33.0138C26.9894 33.7028 26.2171 34.3941 25.4337 35.0879C24.6503 35.7816 23.8571 36.4825 23.054 37.1906C23.0018 37.2369 22.9547 37.2885 22.9136 37.3443C22.8732 37.3967 22.8385 37.4531 22.8101 37.5124C22.783 37.5698 22.7619 37.6297 22.7473 37.6912C22.7333 37.7523 22.7258 37.8146 22.7251 37.8772C22.7243 37.9556 22.7342 38.0337 22.7547 38.1096C22.7751 38.186 22.8062 38.2594 22.8471 38.3277C22.8893 38.3977 22.9415 38.4615 23.0023 38.5173C23.0673 38.576 23.1407 38.6254 23.2203 38.6639C24.654 39.3612 26.1284 40.0943 27.6545 40.856C29.1806 41.6176 30.7696 42.4509 32.4102 43.327C34.0509 44.2031 35.7692 45.1543 37.5502 46.1878C39.3313 47.2212 41.2011 48.3119 43.1411 49.5063C43.2139 49.5507 43.2891 49.5913 43.3665 49.6279C43.4372 49.6619 43.51 49.6918 43.5845 49.7173C43.6509 49.7395 43.7188 49.7574 43.7877 49.7709C43.8499 49.7827 43.9129 49.7899 43.9762 49.7924C44.0708 49.7976 44.1656 49.7879 44.257 49.7638C44.3365 49.7429 44.4108 49.7064 44.475 49.6565C44.5355 49.6082 44.5836 49.547 44.6154 49.4777C44.6498 49.4022 44.6674 49.3206 44.6672 49.2381C44.6719 49.1893 44.6719 49.1402 44.6672 49.0915C44.6567 49.0368 44.6419 48.983 44.6228 48.9305C44.6023 48.8717 44.5776 48.8144 44.5489 48.7589C44.5168 48.6962 44.481 48.6353 44.4418 48.5765C43.2593 46.7885 42.1692 45.0649 41.1567 43.377C40.1443 41.6892 39.2205 40.0549 38.3558 38.4529C37.4911 36.8509 36.6893 35.2881 35.9354 33.754C35.1816 32.2199 34.4758 30.7145 33.8033 29.2304C33.7584 29.134 33.6986 29.0448 33.626 28.9658C33.5629 28.894 33.4895 28.8313 33.4079 28.7798C33.3303 28.7303 33.2456 28.6917 33.1567 28.6654C33.0692 28.6396 32.9783 28.6264 32.8869 28.6261" fill="#1A4087"/>
<path d="M12.0683 29.9883C11.9726 29.988 11.8776 30.0037 11.7874 30.0348C11.6917 30.0674 11.6019 30.1144 11.5214 30.1742C11.435 30.2393 11.359 30.3165 11.296 30.4031C11.2268 30.4975 11.172 30.6011 11.1334 30.7106C10.6653 32.0314 10.1566 33.3688 9.60726 34.7229C9.05791 36.077 8.47407 37.4442 7.85574 38.8246C7.23002 40.2073 6.55627 41.6067 5.83447 43.0228C5.11268 44.4389 4.33915 45.8693 3.51389 47.314C3.48265 47.3686 3.45428 47.4247 3.4289 47.482C3.40578 47.5332 3.38603 47.5858 3.36978 47.6394C3.35517 47.6874 3.34406 47.7364 3.33652 47.786C3.3292 47.8297 3.32549 47.874 3.32544 47.9183C3.32541 47.9878 3.33791 48.0568 3.36239 48.1221C3.38433 48.1795 3.4183 48.2319 3.46216 48.2759C3.50612 48.3194 3.55898 48.3535 3.61736 48.376C3.68223 48.4005 3.751 48.4138 3.8206 48.4154C3.882 48.4218 3.94395 48.4218 4.00535 48.4154C4.07457 48.4032 4.14257 48.3853 4.20859 48.3617C4.2858 48.3385 4.36114 48.3098 4.434 48.2759C4.51478 48.232 4.59255 48.183 4.66679 48.1293C5.95026 47.2162 7.20293 46.3449 8.4248 45.5152C9.64668 44.6856 10.8452 43.887 12.0202 43.1193C13.1953 42.3517 14.3445 41.6162 15.4678 40.9129C16.5912 40.2097 17.6997 39.5278 18.7935 38.8675C18.8745 38.818 18.9489 38.7591 19.0152 38.6922C19.0782 38.6286 19.1328 38.5578 19.1778 38.4813C19.2211 38.4082 19.2546 38.3301 19.2776 38.2488C19.3005 38.1708 19.3129 38.0903 19.3145 38.0092C19.319 37.9581 19.319 37.9066 19.3145 37.8555C19.3057 37.8055 19.2921 37.7564 19.2739 37.7089C19.2369 37.6109 19.1804 37.521 19.1076 37.4442C18.5435 36.853 17.988 36.257 17.4411 35.6562C16.8942 35.0555 16.3534 34.4595 15.8189 33.8682C15.2843 33.2746 14.7547 32.6786 14.2299 32.0802C13.7052 31.4819 13.1805 30.8727 12.6558 30.2529C12.6185 30.2093 12.5763 30.1697 12.5302 30.1349C12.4455 30.0705 12.347 30.0253 12.2419 30.0026C12.1903 29.9973 12.1383 29.9973 12.0867 30.0026" fill="#1A4087"/>
<path d="M52.9524 4.17332C52.889 4.17642 52.8259 4.18479 52.764 4.19835C52.6935 4.2137 52.6244 4.23401 52.557 4.25914C52.4812 4.28701 52.4072 4.31925 52.3353 4.35569C52.253 4.39707 52.1728 4.44242 52.0951 4.49158C48.9616 6.47268 45.987 8.19988 43.138 9.73398C40.289 11.2681 37.6174 12.5948 35.0086 13.8035C32.3998 15.0121 29.9314 16.0921 27.5184 17.0969C25.1055 18.1018 22.7664 19.0494 20.4606 19.9899L20.3645 20.0257L20.2648 20.0507H20.165H20.0615H19.9839H19.9063H19.8324L19.7585 20.0328C18.4381 19.6705 17.1165 19.2926 15.7936 18.8992C14.4707 18.5059 13.1478 18.0887 11.825 17.6476C10.5119 17.209 9.19399 16.7417 7.87111 16.2459C6.54823 15.75 5.23398 15.2219 3.92834 14.6617L3.81749 14.6188L3.69555 14.5902H3.59208H3.50709C3.41383 14.5916 3.32184 14.6113 3.23671 14.6482C3.15159 14.6851 3.07511 14.7383 3.01194 14.8047C2.87668 14.9545 2.78712 15.1378 2.75327 15.334C2.70839 15.5714 2.71722 15.8154 2.77914 16.0492C2.85031 16.3096 2.97609 16.553 3.14866 16.7644C4.73759 18.7669 6.23045 20.6336 7.66787 22.4073C9.1053 24.181 10.4725 25.8438 11.825 27.4602C13.1774 29.0765 14.552 30.6499 15.9192 32.184C17.2865 33.7181 18.6906 35.2379 20.1502 36.7613C20.2003 36.8145 20.256 36.8625 20.3165 36.9044C20.3767 36.9452 20.4411 36.98 20.5087 37.0081C20.5754 37.0359 20.6446 37.0574 20.7156 37.0724C20.7873 37.0873 20.8603 37.0957 20.9336 37.0975C21.0123 37.1048 21.0914 37.1048 21.1701 37.0975C21.3322 37.0711 21.4876 37.0152 21.6283 36.933C21.701 36.8894 21.769 36.8391 21.8315 36.7828C24.3886 34.512 26.7461 32.37 29.0741 30.2137C31.4021 28.0574 33.73 25.851 36.1245 23.523C38.519 21.195 41.0502 18.6847 43.7884 15.9133C46.5265 13.1419 49.5565 10.0308 52.9487 6.51201C53.1902 6.26462 53.3864 5.97923 53.5289 5.66808C53.6406 5.4302 53.6961 5.17122 53.6915 4.90997C53.6922 4.71061 53.6188 4.51766 53.4845 4.36642C53.4165 4.29868 53.3339 4.24626 53.2426 4.21289C53.1512 4.17952 53.0534 4.16601 52.9561 4.17332" fill="#44AD3F"/>
<path d="M133.142 44.0848H131.918V46.7417H130.366V39.4825H133.153C133.884 39.4366 134.609 39.6389 135.203 40.0546C135.448 40.2505 135.643 40.4989 135.771 40.7801C135.899 41.0613 135.958 41.3675 135.942 41.6745C135.959 42.1095 135.843 42.5396 135.61 42.9118C135.361 43.2649 135.01 43.5396 134.601 43.7021L136.223 46.6666V46.7381H134.564L133.142 44.0848ZM131.918 42.8725H133.164C133.491 42.893 133.814 42.7905 134.065 42.5864C134.174 42.4844 134.258 42.361 134.313 42.2247C134.368 42.0883 134.392 41.9422 134.383 41.7961C134.391 41.6486 134.369 41.501 134.317 41.3621C134.265 41.2233 134.184 41.096 134.08 40.988C133.954 40.882 133.807 40.8014 133.649 40.7511C133.49 40.7007 133.323 40.6816 133.156 40.6947H131.918V42.8725Z" fill="#1A4087"/>
<path d="M139.679 46.8454C139.314 46.8613 138.949 46.8062 138.606 46.6833C138.264 46.5605 137.95 46.3724 137.683 46.1302C137.424 45.876 137.222 45.5726 137.089 45.239C136.957 44.9054 136.898 44.5489 136.915 44.192V44.0525C136.906 43.5508 137.017 43.0539 137.24 42.6007C137.44 42.1914 137.76 41.8482 138.16 41.6137C138.569 41.3757 139.039 41.2519 139.516 41.2561C139.852 41.2417 140.187 41.2982 140.497 41.4217C140.808 41.5452 141.087 41.7328 141.316 41.9713C141.786 42.5262 142.021 43.2329 141.973 43.9488V44.5353H138.426C138.46 44.8598 138.615 45.1612 138.862 45.3828C139.115 45.5993 139.445 45.7132 139.782 45.7011C140.04 45.7122 140.297 45.6632 140.531 45.558C140.765 45.4528 140.97 45.2946 141.127 45.0967L141.866 45.8906C141.636 46.2031 141.323 46.45 140.961 46.6058C140.557 46.7766 140.119 46.8584 139.679 46.8454ZM139.509 42.4147C139.375 42.4102 139.241 42.4338 139.118 42.4838C138.994 42.5337 138.883 42.609 138.792 42.7044C138.584 42.9377 138.455 43.2273 138.422 43.534H140.492V43.4196C140.504 43.148 140.409 42.8821 140.226 42.6758C140.133 42.5875 140.024 42.5182 139.903 42.4722C139.782 42.4261 139.653 42.4041 139.524 42.4076L139.509 42.4147Z" fill="#1A4087"/>
<path d="M146.185 46.7379C146.11 46.5855 146.06 46.4226 146.038 46.2552C145.862 46.4479 145.645 46.6007 145.402 46.7027C145.159 46.8047 144.895 46.8534 144.63 46.8452C144.134 46.8626 143.65 46.6992 143.274 46.3875C143.101 46.246 142.962 46.0688 142.869 45.869C142.776 45.6692 142.73 45.4517 142.734 45.2325C142.721 44.9773 142.774 44.7231 142.889 44.4931C143.004 44.2632 143.177 44.0649 143.392 43.9165C143.96 43.5756 144.624 43.4132 145.291 43.4516H145.96V43.1441C145.971 42.9282 145.9 42.7159 145.76 42.5469C145.68 42.467 145.582 42.4054 145.474 42.3664C145.366 42.3275 145.251 42.3122 145.136 42.3216C144.925 42.3103 144.716 42.3725 144.548 42.4968C144.477 42.5556 144.421 42.6293 144.384 42.7124C144.347 42.7954 144.33 42.8856 144.334 42.976H142.856C142.856 42.6627 142.961 42.3579 143.155 42.107C143.373 41.8276 143.666 41.6112 144.002 41.4813C144.39 41.3259 144.808 41.2493 145.228 41.256C145.819 41.2247 146.401 41.4026 146.865 41.7566C147.07 41.932 147.23 42.1499 147.335 42.3939C147.44 42.6379 147.487 42.9017 147.471 43.1655V45.5042C147.451 45.903 147.527 46.3008 147.693 46.6664V46.7523L146.185 46.7379ZM144.955 45.7367C145.166 45.738 145.374 45.6889 145.561 45.5936C145.736 45.5096 145.88 45.3761 145.975 45.211V44.2848H145.417C144.678 44.2848 144.281 44.5339 144.227 45.0322V45.118C144.225 45.2012 144.241 45.284 144.275 45.3605C144.308 45.4371 144.359 45.5056 144.423 45.5614C144.571 45.6834 144.761 45.7461 144.955 45.7367Z" fill="#1A4087"/>
<path d="M150.309 46.7382H148.831V39.082H150.309V46.7382Z" fill="#1A4087"/>
<path d="M160.401 44.3209C160.39 44.6713 160.305 45.0157 160.151 45.3331C159.998 45.6504 159.778 45.9339 159.507 46.1662C158.908 46.6351 158.152 46.8744 157.382 46.8384C156.955 46.8582 156.529 46.7838 156.136 46.6209C155.743 46.4579 155.393 46.2108 155.113 45.898C154.525 45.1633 154.231 44.2476 154.286 43.3197V42.8762C154.268 42.2424 154.395 41.6127 154.655 41.031C154.885 40.5275 155.264 40.1018 155.745 39.808C156.325 39.4911 156.987 39.3456 157.651 39.3895C158.315 39.4333 158.952 39.6646 159.481 40.0548C160.03 40.5439 160.359 41.2218 160.398 41.9429H158.853C158.854 41.5666 158.711 41.2033 158.45 40.9237C158.153 40.6909 157.775 40.577 157.393 40.6055C157.169 40.5916 156.945 40.6336 156.743 40.7276C156.54 40.8215 156.366 40.9641 156.237 41.1419C155.942 41.6475 155.804 42.2251 155.841 42.8047V43.3518C155.797 43.9473 155.925 44.5428 156.211 45.0719C156.338 45.253 156.512 45.3986 156.716 45.494C156.92 45.5894 157.146 45.6313 157.371 45.6154C157.756 45.6438 158.138 45.5301 158.439 45.2972C158.697 45.0321 158.841 44.6817 158.842 44.3174L160.401 44.3209Z" fill="#1A4087"/>
<path d="M164.573 42.6975C164.395 42.673 164.216 42.6598 164.037 42.6582C163.473 42.6582 163.103 42.8429 162.928 43.2124V46.7419H161.45V41.3458H162.858L162.899 41.9894C163.013 41.7654 163.19 41.5769 163.409 41.4454C163.629 41.3139 163.882 41.2447 164.14 41.2456C164.297 41.2446 164.452 41.2663 164.602 41.31L164.573 42.6975Z" fill="#1A4087"/>
<path d="M164.998 43.9849C164.988 43.4907 165.097 43.0011 165.316 42.5545C165.516 42.1491 165.836 41.8105 166.236 41.5818C166.658 41.3419 167.14 41.2182 167.629 41.2242C167.967 41.2108 168.305 41.263 168.623 41.3778C168.94 41.4927 169.23 41.6678 169.477 41.893C169.97 42.3777 170.254 43.0259 170.271 43.706V44.0636C170.308 44.7923 170.051 45.5063 169.554 46.0554C169.037 46.5364 168.348 46.805 167.631 46.805C166.914 46.805 166.224 46.5364 165.707 46.0554C165.204 45.4931 164.947 44.7633 164.991 44.0207L164.998 43.9849ZM166.476 44.0886C166.449 44.5012 166.553 44.9119 166.775 45.2651C166.875 45.3912 167.004 45.4934 167.151 45.5637C167.299 45.6339 167.461 45.6705 167.625 45.6705C167.79 45.6705 167.952 45.6339 168.099 45.5637C168.246 45.4934 168.375 45.3912 168.475 45.2651C168.709 44.8771 168.815 44.4291 168.778 43.9813C168.804 43.5706 168.698 43.1622 168.475 42.812C168.381 42.6786 168.253 42.5705 168.104 42.4979C167.954 42.4254 167.788 42.3907 167.622 42.3972C167.456 42.3902 167.291 42.4243 167.143 42.4963C166.995 42.5683 166.868 42.6757 166.775 42.8084C166.548 43.1999 166.448 43.6484 166.487 44.0958L166.476 44.0886Z" fill="#1A4087"/>
<path d="M176.168 44.7821L176.907 41.3491H178.345L176.922 46.7417H175.669L174.613 43.3481L173.556 46.7417H172.314L170.892 41.3491H172.329L173.068 44.7785L174.088 41.3491H175.152L176.168 44.7821Z" fill="#1A4087"/>
<path d="M178.969 44.0026C178.93 43.2888 179.136 42.5825 179.553 41.9929C179.737 41.7513 179.978 41.5569 180.257 41.4266C180.536 41.2963 180.844 41.2341 181.153 41.2455C181.409 41.2397 181.662 41.2894 181.895 41.3909C182.127 41.4924 182.334 41.6431 182.498 41.832V39.082H183.976V46.7382H182.631L182.557 46.1661C182.391 46.3794 182.174 46.5514 181.926 46.6683C181.677 46.7851 181.404 46.8434 181.127 46.8384C180.821 46.8461 180.518 46.7819 180.243 46.6511C179.968 46.5202 179.73 46.3268 179.55 46.0874C179.124 45.4733 178.92 44.7404 178.969 44.0026ZM180.447 44.1099C180.423 44.5145 180.518 44.9174 180.721 45.2721C180.805 45.4015 180.922 45.5071 181.062 45.5781C181.201 45.6491 181.358 45.6829 181.515 45.6762C181.718 45.6891 181.919 45.6419 182.093 45.5409C182.266 45.4399 182.404 45.29 182.487 45.1112V42.9656C182.406 42.787 182.27 42.637 182.097 42.5359C181.925 42.4349 181.724 42.3876 181.523 42.4006C180.813 42.4125 180.459 42.9822 180.459 44.1099H180.447Z" fill="#1A4087"/>
<path d="M185.658 48.5585L184.882 48.1651L185.067 47.8397C185.291 47.4713 185.418 47.0548 185.436 46.6274V45.5117H186.693V46.5094C186.684 46.8975 186.586 47.2788 186.404 47.6251C186.225 47.9831 185.971 48.3009 185.658 48.5585Z" fill="#1A4087"/>
<path d="M190.823 46.7381V39.4824H193.129C193.748 39.4728 194.359 39.6221 194.899 39.9151C195.419 40.2017 195.843 40.6277 196.119 41.1416C196.417 41.6993 196.566 42.3199 196.555 42.9475V43.2693C196.565 43.8903 196.418 44.5043 196.126 45.0573C195.852 45.5686 195.431 45.9922 194.914 46.2768C194.375 46.5706 193.766 46.7223 193.148 46.7166L190.823 46.7381ZM192.368 40.691V45.5365H193.107C193.368 45.5523 193.629 45.5088 193.87 45.4094C194.111 45.3101 194.324 45.1577 194.493 44.9644C194.843 44.4864 195.015 43.9078 194.981 43.323V42.9404C195.024 42.3456 194.857 41.7543 194.508 41.2632C194.339 41.0697 194.126 40.9171 193.885 40.8177C193.644 40.7184 193.383 40.675 193.122 40.691H192.368Z" fill="#1A4087"/>
<path d="M197.693 39.951C197.69 39.8519 197.709 39.7534 197.748 39.6617C197.787 39.5699 197.845 39.487 197.919 39.4182C198.091 39.2822 198.306 39.208 198.528 39.208C198.75 39.208 198.966 39.2822 199.138 39.4182C199.284 39.5608 199.366 39.7536 199.366 39.9546C199.366 40.1555 199.284 40.3483 199.138 40.491C198.967 40.627 198.753 40.7014 198.532 40.7014C198.311 40.7014 198.097 40.627 197.926 40.491C197.85 40.4219 197.79 40.3381 197.75 40.2451C197.71 40.152 197.69 40.0518 197.693 39.951ZM199.275 46.7454H197.797V41.3456H199.275V46.7454Z" fill="#1A4087"/>
<path d="M200.416 44.0025C200.38 43.2886 200.595 42.584 201.026 42.0035C201.217 41.7588 201.466 41.5622 201.753 41.4303C202.039 41.2983 202.354 41.2349 202.67 41.2454C202.941 41.2319 203.21 41.2799 203.458 41.3854C203.706 41.491 203.925 41.6512 204.097 41.8533L204.159 41.3455H205.508V46.5593C205.519 46.9914 205.403 47.4177 205.176 47.7894C204.953 48.1393 204.627 48.4169 204.241 48.5869C203.797 48.7785 203.315 48.8725 202.829 48.8622C202.419 48.8618 202.013 48.7815 201.636 48.6262C201.293 48.4995 200.99 48.2888 200.756 48.0147L201.414 47.1386C201.579 47.3293 201.785 47.4823 202.019 47.5868C202.252 47.6913 202.506 47.7446 202.763 47.743C202.93 47.753 203.098 47.731 203.256 47.6782C203.415 47.6255 203.561 47.5429 203.687 47.4354C203.8 47.3205 203.889 47.1839 203.945 47.0343C204.002 46.8848 204.026 46.7254 204.015 46.5665V46.2768C203.847 46.4624 203.638 46.6094 203.403 46.7071C203.169 46.8048 202.914 46.8508 202.659 46.8418C202.345 46.8493 202.034 46.7841 201.751 46.6516C201.468 46.5191 201.222 46.3232 201.033 46.0801C200.594 45.4963 200.375 44.7845 200.413 44.0633L200.416 44.0025ZM201.894 44.1098C201.87 44.5146 201.976 44.9168 202.197 45.2612C202.288 45.3939 202.413 45.5019 202.559 45.5751C202.705 45.6483 202.868 45.6843 203.032 45.6796C203.226 45.6938 203.42 45.6551 203.592 45.5678C203.763 45.4806 203.906 45.3483 204.004 45.1861V42.9118C203.907 42.7505 203.766 42.6187 203.595 42.5315C203.425 42.4443 203.232 42.405 203.04 42.4183C202.874 42.4135 202.709 42.4501 202.561 42.5246C202.414 42.5991 202.288 42.7091 202.197 42.8439C201.972 43.2282 201.87 43.6691 201.905 44.1098H201.894Z" fill="#1A4087"/>
<path d="M206.768 39.951C206.766 39.8519 206.784 39.7534 206.823 39.6617C206.862 39.5699 206.92 39.487 206.994 39.4182C207.166 39.2822 207.381 39.208 207.603 39.208C207.826 39.208 208.041 39.2822 208.213 39.4182C208.359 39.5608 208.441 39.7536 208.441 39.9546C208.441 40.1555 208.359 40.3483 208.213 40.491C208.042 40.627 207.828 40.7014 207.607 40.7014C207.386 40.7014 207.172 40.627 207.001 40.491C206.925 40.4219 206.865 40.3381 206.825 40.2451C206.785 40.152 206.766 40.0518 206.768 39.951ZM208.35 46.7454H206.872V41.3456H208.35V46.7454Z" fill="#1A4087"/>
<path d="M211.483 40.0226V41.3493H212.437V42.4221H211.483V45.1148C211.469 45.2669 211.511 45.419 211.601 45.5439C211.664 45.5944 211.737 45.6318 211.815 45.654C211.893 45.6761 211.975 45.6825 212.056 45.6727C212.202 45.6738 212.348 45.6618 212.492 45.6369V46.7276C212.2 46.8137 211.896 46.8571 211.59 46.8563C210.546 46.8563 210.014 46.3462 209.994 45.3258V42.4185H209.181V41.3457H209.994V40.019L211.483 40.0226Z" fill="#1A4087"/>
<path d="M216.623 46.7379C216.548 46.5856 216.498 46.4227 216.476 46.2552C216.3 46.4488 216.081 46.6022 215.837 46.7042C215.592 46.8063 215.327 46.8544 215.06 46.8452C214.565 46.8626 214.081 46.6992 213.704 46.3875C213.531 46.246 213.393 46.0688 213.3 45.869C213.206 45.6692 213.16 45.4517 213.165 45.2325C213.152 44.9773 213.205 44.7231 213.32 44.4931C213.435 44.2632 213.608 44.0649 213.823 43.9165C214.391 43.5756 215.054 43.4132 215.722 43.4516H216.405V43.1441C216.416 42.9282 216.345 42.7159 216.206 42.5469C216.126 42.467 216.028 42.4054 215.92 42.3664C215.812 42.3275 215.696 42.3122 215.581 42.3216C215.369 42.3095 215.159 42.3717 214.99 42.4968C214.919 42.5556 214.863 42.6293 214.826 42.7124C214.789 42.7954 214.772 42.8856 214.776 42.976H213.298C213.298 42.6626 213.403 42.3577 213.597 42.107C213.815 41.8275 214.107 41.611 214.443 41.4813C214.832 41.3258 215.25 41.2492 215.67 41.256C216.261 41.2247 216.843 41.4026 217.307 41.7566C217.511 41.932 217.672 42.1499 217.777 42.3939C217.882 42.6379 217.928 42.9017 217.913 43.1655V45.5042C217.893 45.903 217.969 46.3009 218.135 46.6664V46.7523L216.623 46.7379ZM215.393 45.7367C215.604 45.738 215.812 45.6889 215.999 45.5936C216.174 45.5096 216.318 45.3761 216.413 45.211V44.2848H215.855C215.116 44.2848 214.719 44.5339 214.665 45.0322V45.118C214.663 45.2012 214.679 45.284 214.713 45.3605C214.746 45.4371 214.797 45.5056 214.861 45.5614C215.009 45.6834 215.199 45.7461 215.393 45.7367Z" fill="#1A4087"/>
<path d="M220.747 46.7382H219.269V39.082H220.747V46.7382Z" fill="#1A4087"/>
<path d="M231.101 43.2686C231.115 43.8739 231 44.4754 230.761 45.0351C230.557 45.5073 230.233 45.9219 229.819 46.2402L231.064 47.1879L230.081 48.0318L228.485 46.7909C228.298 46.8217 228.109 46.8373 227.92 46.8374C227.334 46.8471 226.758 46.6971 226.257 46.4047C225.762 46.1084 225.367 45.6783 225.122 45.1674C224.845 44.5874 224.706 43.9542 224.716 43.3151V42.9575C224.702 42.3072 224.838 41.662 225.115 41.0694C225.355 40.5535 225.747 40.118 226.242 39.8178C226.747 39.5335 227.321 39.3838 227.905 39.3838C228.489 39.3838 229.063 39.5335 229.568 39.8178C230.063 40.118 230.455 40.5535 230.695 41.0694C230.971 41.6597 231.107 42.3024 231.094 42.9503L231.101 43.2686ZM229.534 42.9396C229.575 42.3338 229.429 41.73 229.113 41.2052C228.976 41.02 228.796 40.8689 228.587 40.7648C228.377 40.6606 228.146 40.6062 227.91 40.6062C227.675 40.6062 227.443 40.6606 227.234 40.7648C227.025 40.8689 226.844 41.02 226.708 41.2052C226.391 41.7232 226.242 42.321 226.279 42.9217V43.2793C226.243 43.8813 226.389 44.4804 226.7 45.0029C226.835 45.1902 227.014 45.3434 227.223 45.45C227.431 45.5565 227.663 45.6131 227.899 45.6152C228.135 45.6173 228.368 45.5648 228.578 45.462C228.789 45.3592 228.971 45.2092 229.109 45.0244C229.422 44.5023 229.568 43.9029 229.531 43.3008L229.534 42.9396Z" fill="#1A4087"/>
<path d="M235.598 46.1912C235.413 46.4061 235.178 46.5765 234.914 46.6888C234.649 46.8011 234.361 46.8523 234.072 46.8384C233.82 46.8552 233.568 46.8195 233.332 46.7337C233.096 46.648 232.882 46.5142 232.705 46.3414C232.364 45.9288 232.193 45.4093 232.224 44.8824V41.3493H233.702V44.8359C233.702 45.3985 233.967 45.6798 234.497 45.6798C234.703 45.7012 234.91 45.6646 235.095 45.5746C235.28 45.4845 235.434 45.3447 235.539 45.172V41.3457H237.017V46.7383H235.616L235.598 46.1912Z" fill="#1A4087"/>
<path d="M241.521 46.7379C241.446 46.5856 241.396 46.4227 241.374 46.2552C241.198 46.4479 240.981 46.6007 240.738 46.7027C240.494 46.8047 240.231 46.8534 239.966 46.8452C239.47 46.8626 238.986 46.6992 238.61 46.3875C238.436 46.246 238.298 46.0688 238.205 45.869C238.112 45.6692 238.066 45.4517 238.07 45.2325C238.057 44.9773 238.11 44.7231 238.225 44.4931C238.34 44.2632 238.513 44.0649 238.728 43.9165C239.296 43.5756 239.96 43.4132 240.627 43.4516H241.296V43.1441C241.307 42.9282 241.236 42.7159 241.096 42.5469C241.016 42.467 240.918 42.4054 240.81 42.3664C240.702 42.3275 240.587 42.3122 240.472 42.3216C240.26 42.3095 240.05 42.3717 239.881 42.4968C239.81 42.5556 239.753 42.6293 239.716 42.7124C239.679 42.7954 239.662 42.8856 239.666 42.976H238.188C238.188 42.6626 238.293 42.3577 238.488 42.107C238.706 41.8269 239 41.6104 239.338 41.4813C239.726 41.3258 240.144 41.2492 240.564 41.256C241.155 41.2247 241.737 41.4026 242.201 41.7566C242.406 41.932 242.566 42.1499 242.671 42.3939C242.776 42.6379 242.823 42.9017 242.807 43.1655V45.5042C242.787 45.903 242.863 46.3009 243.029 46.6664V46.7523L241.521 46.7379ZM240.291 45.7367C240.502 45.738 240.71 45.6889 240.897 45.5936C241.072 45.5096 241.216 45.3761 241.311 45.211V44.2848H240.753C240.014 44.2848 239.617 44.5339 239.563 45.0322V45.118C239.561 45.2012 239.577 45.284 239.611 45.3605C239.644 45.4371 239.695 45.5056 239.759 45.5614C239.907 45.6834 240.097 45.7461 240.291 45.7367Z" fill="#1A4087"/>
<path d="M245.645 46.7382H244.167V39.082H245.645V46.7382Z" fill="#1A4087"/>
<path d="M246.987 39.951C246.984 39.8519 247.003 39.7534 247.041 39.6617C247.08 39.5699 247.138 39.487 247.212 39.4182C247.384 39.2822 247.599 39.208 247.822 39.208C248.044 39.208 248.259 39.2822 248.431 39.4182C248.578 39.5608 248.66 39.7536 248.66 39.9546C248.66 40.1555 248.578 40.3483 248.431 40.491C248.261 40.627 248.046 40.7014 247.825 40.7014C247.604 40.7014 247.39 40.627 247.219 40.491C247.143 40.4219 247.083 40.3381 247.043 40.2451C247.003 40.152 246.984 40.0518 246.987 39.951ZM248.568 46.7454H247.09V41.3456H248.568V46.7454Z" fill="#1A4087"/>
<path d="M251.702 40.0226V41.3493H252.655V42.4221H251.702V45.1148C251.688 45.2669 251.729 45.419 251.82 45.5439C251.883 45.5944 251.956 45.6318 252.034 45.654C252.112 45.6761 252.194 45.6825 252.275 45.6727C252.421 45.6738 252.567 45.6618 252.711 45.6369V46.7276C252.419 46.8137 252.115 46.8571 251.809 46.8563C250.765 46.8563 250.233 46.3462 250.213 45.3258V42.4185H249.4V41.3457H250.213V40.019L251.702 40.0226Z" fill="#1A4087"/>
<path d="M255.707 44.7001L256.738 41.3459H258.334L256.076 47.5609L255.955 47.8434C255.831 48.1669 255.605 48.4445 255.309 48.637C255.014 48.8295 254.663 48.9272 254.306 48.9162C254.084 48.9156 253.862 48.8843 253.649 48.8233V47.7326H253.859C254.078 47.7461 254.296 47.7029 254.491 47.6074C254.645 47.5076 254.76 47.3619 254.82 47.1926L254.994 46.7492L253.043 41.3423H254.643L255.707 44.7001Z" fill="#1A4087"/>
</svg>
