<svg width="28" height="27" viewBox="0 0 28 27" fill="none" xmlns="http://www.w3.org/2000/svg">
<g clip-path="url(#clip0)">
<path d="M0.942766 19.4489C0.942766 23.1013 3.76595 26.062 7.24869 26.062C10.7315 26.062 13.5547 23.1013 13.5547 19.4489C13.5547 15.7965 10.7315 12.8359 7.24869 12.8359C6.53293 12.8359 5.84778 12.9667 5.20638 13.1973C6.62548 4.66197 12.9723 -0.842346 7.08882 3.68782C0.564944 8.71127 0.935779 19.2468 0.943079 19.4399C0.943079 19.4429 0.942766 19.4456 0.942766 19.4489Z" fill="#7100D2"/>
<path d="M14.8157 19.4489C14.8157 23.1013 17.6389 26.062 21.1217 26.062C24.6045 26.062 27.4276 23.1013 27.4276 19.4489C27.4276 15.7965 24.6044 12.8359 21.1216 12.8359C20.4058 12.8359 19.7207 12.9667 19.0793 13.1973C20.4984 4.66197 26.8452 -0.842346 20.9618 3.68782C14.4379 8.71127 14.8087 19.2468 14.816 19.4399C14.816 19.4429 14.8157 19.4456 14.8157 19.4489Z" fill="#7100D2"/>
</g>
<defs>
<clipPath id="clip0">
<rect width="27" height="27" fill="white" transform="translate(0.682373)"/>
</clipPath>
</defs>
</svg>
