<svg width="946" height="644" viewBox="0 0 946 644" fill="none" xmlns="http://www.w3.org/2000/svg">
<path d="M734.269 62.3234C736.085 60.2925 738.123 58.4715 740.344 56.8945C741.226 56.4447 742.189 56.1766 743.176 56.1061C744.163 56.0356 745.154 56.1642 746.091 56.4841C748.846 57.6373 751.166 59.796 753.76 61.3842C754.649 61.9285 756.169 61.7036 756.787 62.3861C760.486 66.4713 760.426 66.5257 762.56 61.9436C766.598 57.2864 770.048 71.1529 774.548 61.2341C779.794 63.8986 785.5 67.2252 792.273 61.5213C792.323 62.4377 792.373 63.3542 792.424 64.2707C791.062 65.5074 789.7 66.7441 788.338 67.9808L789.594 69.7061C791.587 67.8856 793.474 65.9245 795.618 64.3048C796.143 63.8508 796.754 63.5067 797.414 63.2929C798.074 63.0791 798.77 62.9999 799.461 63.0599C800.856 63.5252 801.877 65.1091 803.449 66.5774C805.016 63.9197 806.465 62.7538 810.752 65.4827C815.093 68.246 821.348 68.4444 825.498 72.2414C827.601 74.1662 828.729 77.1563 830.413 79.8475C829.612 80.8511 828.551 82.1791 826.78 84.398C829.475 84.398 831.606 85.0355 832.682 84.2424C834.143 83.1644 834.799 80.9928 835.586 79.654C839.862 84.8842 839.37 85.8387 828.823 89.3137C829.456 90.7662 830.07 92.1754 830.287 92.6732C833.711 91.5323 836.619 90.5633 840.607 89.2346C838.247 97.5135 827.355 92.402 827.166 101.659L835.557 101.057C829.542 108.556 830.959 112.345 840.048 114.061C854.662 116.82 869.371 119.074 884.001 121.75C887.212 122.338 891.161 122.925 893.212 125.031C898.716 130.679 906.465 129.645 912.506 132.703C922.978 137.739 932.813 144.004 941.804 151.366C947.879 156.576 945.739 167.206 940.225 173.765C937.389 177.14 935.435 180.404 936.413 186.001C937.635 192.998 935.019 199.644 929.44 205.804C917.061 219.473 899.96 223.414 884.175 229.84C877.287 232.644 868.976 232.171 861.279 232.731C840.763 234.224 820.227 235.417 799.708 236.866C796.203 237.283 792.721 237.881 789.277 238.657C803.558 240.729 817.819 242.552 831.97 245.013C836.002 245.737 839.772 247.508 842.904 250.148C847.035 253.774 850.818 256.912 856.678 257.348C862.163 257.757 883.823 275.062 886.092 280.017C888.661 285.626 886.635 294.388 882.851 299.462C881.001 301.943 881.037 305.834 880.234 309.09C879.279 312.96 879.331 317.532 877.194 320.566C872.224 327.621 866.243 333.972 860.591 340.539C856.874 344.858 852.747 345.403 847.525 342.653C845.482 341.576 842.185 342.339 839.605 342.916C830.914 344.859 822.289 347.095 813.638 349.219L812.48 347.253C812.36 349.393 812.099 351.537 812.146 353.674C812.34 362.407 813.471 363.987 821.96 365.245C848.273 369.144 873.178 377.99 897.848 387.337C907.749 390.978 917.042 396.098 925.409 402.522C929.805 405.99 933.435 410.33 936.069 415.271C938.704 420.211 940.286 425.643 940.716 431.226C941.364 438.525 942.468 445.802 942.709 453.11C942.809 456.141 942.164 460.301 940.181 462.101C932.242 469.309 925.511 478.313 913.68 480.272C909.221 481.01 905.02 483.726 900.879 485.883C896.646 488.138 891.976 489.452 887.188 489.737C882.399 490.022 877.606 489.27 873.135 487.532C863.975 484.288 854.761 481.194 846.018 478.188C847.32 487.926 849.003 497.633 849.67 507.409C849.851 510.063 847.601 513.714 845.354 515.532C840.532 519.43 838.612 523.654 840.007 529.787C840.677 532.732 839.751 535.156 837.195 538.008C832.864 542.843 830.365 549.32 827.096 555.107L828.519 556.686L818.993 555.434C815.953 561.21 812.922 566.97 809.899 572.714C806.528 567.905 800.585 564.297 807.324 558.946C804.79 555.97 802.718 553.591 800.313 559.032C798.253 563.692 790.342 563.879 786.988 559.763C785.653 558.137 783.74 557.09 781.651 556.841C767.866 556.607 754.074 556.757 740.285 556.722C727.217 556.689 714.147 556.672 701.082 556.463C694.383 556.355 687.681 555.504 681.003 555.717C679.792 555.888 678.638 556.339 677.633 557.036C676.628 557.733 675.8 558.656 675.216 559.73C673.546 563.824 672.633 568.187 672.521 572.607C672.605 575.15 672.067 577.676 670.953 579.964C669.84 582.253 668.184 584.235 666.13 585.738C660.163 590.522 657.331 596.711 654.99 604.329C650.35 619.43 641.966 632.968 628.904 642.787C628.246 643.114 627.524 643.291 626.789 643.307C626.055 643.323 625.326 643.177 624.655 642.88C622.557 642.091 620.703 640.766 619.278 639.036C611.035 626.639 599.114 627.619 586.446 628.726C574.427 629.562 562.371 629.697 550.337 629.13C508.441 627.882 466.553 626.346 424.662 624.932C422.673 624.865 420.681 624.924 418.32 624.924C415.988 628.674 415.539 636.039 408.4 632.986C406.305 632.09 405.889 627.271 404.704 624.25C405.245 623.794 405.786 623.338 406.327 622.882C403.523 622.683 400.72 622.319 397.916 622.309C368.47 622.202 339.024 622.021 309.58 622.181C302.71 622.218 297.467 620.056 293.585 614.477C288.159 606.679 281.462 599.453 277.624 590.939C272.373 579.291 269.297 566.663 265.096 553.867C256.024 554.468 247.254 555.221 238.467 555.598C217.643 556.489 196.816 557.552 175.98 557.81C167.986 557.909 160.031 549.201 157.807 541.527C156.601 537.365 155.221 533.428 149.922 530.866C140.738 526.427 139.197 516.201 136.779 507.194C135.917 503.981 135.658 500.608 135.092 497.314C133.754 489.515 134.991 486.827 142.925 486.229C153.561 485.426 163.541 483.463 173.067 478.399C175.555 477.076 179.569 478.907 182.86 478.765C202.007 477.94 221.173 477.33 240.282 475.946C270.957 473.723 301.594 470.968 332.244 468.407C343.124 467.675 353.953 466.322 364.678 464.352C351.848 464.352 339.019 464.352 326.189 464.352C315.257 464.352 304.316 464.583 293.4 464.173C290.9 464.079 288.474 461.791 286.031 460.48C285.142 460.003 284.356 459.091 283.436 458.951C274.832 457.639 271.592 452.582 271.529 444.072C271.502 440.519 268.973 436.985 267.261 432.628C256.459 431.788 252.555 422.503 247.669 412.573C232.904 414.131 217.784 415.776 202.653 417.304C192.322 418.347 181.969 419.171 171.635 420.192C154.494 421.885 137.366 423.711 120.222 425.384C105.266 426.843 90.303 428.221 75.3319 429.52C68.0897 430.326 60.8054 430.694 53.5188 430.623C50.6542 430.52 47.9067 427.787 45.0588 426.345C43.4711 425.79 41.9279 425.114 40.4425 424.325C37.3919 422.115 33.249 420.194 31.8986 417.122C29.5046 411.678 28.8562 405.466 27.4179 399.32C9.21046 395.254 7.33924 379.359 3.22723 365.242C1.67932 359.928 1.37311 354.263 0.269127 348.805C-0.692648 344.05 0.884511 341.009 5.62811 339.844C9.70531 338.843 13.8194 337.992 17.9186 337.08C25.5938 335.374 33.3023 333.799 40.914 331.845C41.6582 331.555 42.3185 331.085 42.8352 330.476C43.352 329.867 43.7088 329.139 43.8734 328.357C43.7443 327.53 43.4297 326.743 42.9532 326.055C42.4766 325.367 41.8505 324.796 41.1218 324.385C39.4778 323.551 37.3064 323.756 34.5506 321.964L42.9378 317.532C42.6886 315.949 42.3634 313.882 41.9163 311.04C40.5023 312.529 39.429 313.659 37.8683 315.303L37.1472 311.731C43.4999 310.873 46.3401 301.736 54.7535 304.721C56.8911 305.48 60.3364 301.539 63.4189 300.893C67.8067 299.973 72.4366 300.281 76.9232 299.737C83.2145 298.974 89.486 298.009 95.7359 296.952C108.199 294.844 120.639 292.6 133.093 290.441C144.686 288.431 156.323 286.644 167.862 284.363C171.64 283.616 175.116 281.448 178.839 280.271C181.815 279.497 184.829 278.881 187.87 278.426C190.259 271.259 188.912 268.635 181.266 265.486C172.726 261.969 169.725 253.807 167.228 246.106C164.449 236.961 162.345 227.624 160.932 218.171C159.72 210.945 161.851 208.676 171.009 206.522C175.736 205.41 180.753 205.571 185.525 204.6C192.013 203.28 198.392 201.426 204.818 199.802L204.487 197.926C195.247 197.926 186.008 197.926 176.768 197.926C163.159 197.926 149.539 198.241 135.947 197.748C131.487 197.587 125.25 199.495 123.387 192.244C123.235 191.654 121.15 191.478 119.937 191.255C113.346 190.043 110.153 186.328 109.542 179.437C109.13 174.801 107.054 170.304 105.618 165.779C105.457 165.495 105.234 165.251 104.966 165.065C104.698 164.879 104.392 164.756 104.07 164.705C92.1163 163.11 88.4998 153.282 85.5355 144.196C82.2595 134.154 80.8005 123.473 79.196 112.972C78.9007 111.039 81.23 107.38 83.1343 106.691C88.2866 104.828 93.9122 102.992 99.2591 103.226C109.01 103.652 116.91 98.8242 125.482 95.9001C127.143 95.3337 128.319 93.3459 129.888 91.852C137.602 95.0639 144.166 94.1702 148.215 89.0674C145.586 84.7754 145.383 81.0632 149.333 77.0224C152.659 73.621 154.701 68.9994 157.816 65.3481C160.915 61.7144 169.853 63.5916 174.431 69.3349V62.831L210.289 65.977C213.458 65.2846 216.499 63.8043 219.272 64.1999C223.786 64.8439 228.057 67.0939 232.568 67.8994C234.683 68.2772 237.134 66.922 239.404 66.2531C241.631 65.5966 243.938 63.9711 246.004 64.2569C250.836 64.9252 254.976 66.0984 260.468 64.7703C268.786 62.7587 277.959 64.3835 286.764 64.2257C290.51 64.1585 294.261 63.0539 297.983 63.1873C305.574 63.4594 313.146 64.2512 320.854 64.8387C320.854 65.322 321.328 63.7902 320.781 62.853C315.104 53.1188 320.287 45.3741 325.27 37.6119C325.559 37.1454 325.938 36.742 326.387 36.4261C326.835 36.1102 327.343 35.8883 327.879 35.7738C336.723 35.3516 341.977 30.0094 348.124 24.1168C355.764 16.7926 367.253 16.3209 377.669 16.0658C395.952 15.6182 414.28 16.5532 432.541 15.777C453.137 14.9016 473.699 12.9965 494.24 11.1457C529.402 7.97741 564.48 3.59503 599.699 1.43809C629.036 -0.358602 658.523 0.012548 687.943 0.0707556C696.039 0.0868262 704.223 1.94619 710.816 7.81315C713.441 9.86474 716.28 11.6273 719.283 13.0701C729.431 18.7241 733.201 27.1822 730.744 38.505C730.182 40.7548 730.11 43.0994 730.535 45.3792C731.174 48.1037 733.297 50.542 733.655 53.2522C733.973 55.6544 732.751 58.2598 732.208 60.7756L734.269 62.3234Z" fill="#FADE4F"/>
</svg>
