<svg width="60" height="66" viewBox="0 0 60 66" fill="none" xmlns="http://www.w3.org/2000/svg">
<path d="M28.4477 44.3467C27.4577 45.0367 26.3978 45.6067 25.2778 46.0667C24.8978 46.2267 24.5377 46.3667 24.1877 46.4867C23.8377 45.2267 23.0277 44.1467 21.9177 43.4467C20.5977 42.6067 18.9777 42.4167 17.4977 42.9167C16.2777 43.3367 15.2877 44.2267 14.7277 45.3867C14.3277 46.2167 14.2177 47.1667 14.4377 48.0667C14.4377 48.1667 14.9177 48.2167 15.4577 48.1667C15.7577 48.1667 16.0576 48.1167 16.3376 48.0167C16.4876 47.5667 16.7376 47.1567 17.0676 46.8167C17.4376 46.4367 17.9277 46.1967 18.4477 46.1267C18.9677 46.0567 19.4977 46.1967 19.9177 46.5167C20.7177 47.1167 20.8878 48.2467 20.2978 49.0467C20.2378 49.1267 20.1676 49.2067 20.0876 49.2767C19.7176 49.6467 19.2277 49.8567 18.7077 49.8567C18.1877 49.8467 17.6778 49.6667 17.2678 49.3467C16.8978 49.0467 16.5876 48.6667 16.3876 48.2367C16.0576 48.1767 15.7176 48.1767 15.3876 48.2367C14.9276 48.2367 14.5678 48.3567 14.5478 48.4467C14.4478 49.3567 14.6577 50.2867 15.1677 51.0567C15.8677 52.1267 16.9677 52.8767 18.2177 53.1367C19.7277 53.4267 21.2777 53.0167 22.4577 52.0367C23.2977 51.3467 23.9077 50.4067 24.1977 49.3567C24.8377 49.4067 25.4776 49.3867 26.1076 49.2867C29.3976 48.7667 32.2676 46.7567 33.8776 43.8467C34.2876 43.1067 34.5677 42.3067 34.7277 41.4767C35.0877 41.4467 35.4478 41.4067 35.7978 41.3367C41.5478 40.2367 45.3177 34.6767 44.2177 28.9267C43.6377 25.9067 41.7776 23.2867 39.1176 21.7467C39.3276 19.6667 39.4477 16.9067 39.4477 13.7267C39.4577 9.65672 39.2476 5.58672 38.8176 1.53672C38.7276 0.736719 38.1276 0.0766729 37.3276 -0.0733271H37.2778C34.3178 -0.623327 31.2876 -0.643315 28.3276 -0.123315H28.2878C27.3078 0.0566851 26.6378 0.966702 26.7578 1.9567C27.3178 5.9867 27.6678 10.0067 28.0078 13.5067C28.3078 16.7367 28.5776 19.5267 28.8476 21.5967C26.4076 22.9267 24.6478 25.2367 24.0078 27.9367C23.8178 28.8067 23.7576 29.7067 23.8376 30.5967C23.8376 30.8067 24.2976 30.9667 24.8176 30.9567C25.3376 30.9467 25.6577 30.8167 25.6877 30.6667C25.7977 29.9867 25.9777 29.3267 26.2377 28.6967C26.5477 27.9667 26.9577 27.2767 27.4477 26.6567C28.6077 25.2067 30.2476 24.2267 32.0776 23.8867C33.0776 23.7167 34.0976 23.7367 35.0776 23.9767C36.0876 24.2367 37.0276 24.7067 37.8476 25.3567C40.9376 27.7667 41.4976 32.2367 39.0776 35.3267C38.7176 35.7867 38.3076 36.2067 37.8476 36.5567C37.0376 37.2067 36.0876 37.6867 35.0776 37.9367C34.0976 38.1667 33.0776 38.1967 32.0876 38.0267C30.2676 37.6967 28.6177 36.7067 27.4677 35.2567C26.9777 34.6367 26.5678 33.9567 26.2578 33.2267C26.0078 32.5967 25.8177 31.9367 25.7077 31.2667C25.7077 31.0967 25.2077 30.9667 24.6777 30.9667C24.1477 30.9767 23.8276 31.1367 23.8176 31.3367C23.7576 32.2067 23.8278 33.0667 24.0178 33.9167C24.9078 37.5467 27.7576 40.3767 31.3976 41.2267L31.7878 41.3067C31.5978 41.5267 31.3977 41.7567 31.1777 41.9967C30.3577 42.8767 29.4477 43.6667 28.4477 44.3467ZM35.7878 20.5067C34.3278 20.2367 32.8276 20.2867 31.3776 20.6367C31.2376 20.6667 31.1077 20.7267 30.9677 20.7567C31.1377 18.7767 31.2277 16.2567 31.1977 13.3967C31.1977 10.3567 31.0477 6.96672 30.6977 3.41672C32.2177 3.29672 33.7478 3.31667 35.2578 3.48667C35.6978 7.15667 35.9978 10.7367 36.2878 13.8567C36.5278 16.5167 36.7477 18.8767 36.9777 20.7667C36.6077 20.6567 36.1978 20.5667 35.7878 20.5067Z" fill="#7100D2"/>
<path d="M50.1578 10.8468C52.4778 13.6768 54.1379 16.9868 55.0379 20.5268C56.4879 26.3968 55.6579 32.6068 52.7379 37.8968C51.8279 39.5368 50.7279 41.0768 49.4779 42.4768L49.3978 42.5668C49.0178 42.9868 48.8977 43.5768 49.0677 44.1068C50.7577 49.4868 52.3379 54.0168 53.5179 56.9268C53.5979 57.1168 54.0677 57.1468 54.5677 56.9868C55.0677 56.8268 55.3279 56.5968 55.2979 56.4168C54.7979 53.4968 53.8179 49.1768 52.5279 44.1068C53.7979 42.7568 54.9178 41.2768 55.8678 39.6968C59.4778 33.6468 60.4577 26.3768 58.5777 19.5868C57.4477 15.5468 55.3378 11.8468 52.4178 8.82678C50.3178 6.61678 47.7979 4.84677 45.0079 3.62677C44.8079 3.53677 44.4479 3.85677 44.2079 4.31677C43.9679 4.77677 43.9477 5.15678 44.0977 5.26678C46.3677 6.83678 48.4078 8.7168 50.1578 10.8468Z" fill="#7100D2"/>
<path d="M2.53775 44.9367C2.77775 45.0667 3.02775 45.1767 3.28775 45.2667L3.71768 45.4067L5.87759 46.0967L5.93765 52.0767V54.3267C5.92765 54.5267 5.94769 54.7367 5.97769 54.9367C6.02769 55.3367 6.1177 55.7367 6.2377 56.1167C6.7477 57.6367 7.82771 58.8967 9.24771 59.6367C9.91771 59.9967 10.6376 60.2367 11.3876 60.3267C11.5676 60.3567 11.7576 60.3667 11.9376 60.3667H13.2177L16.2978 60.2767L20.9376 60.1067C21.6276 62.1867 22.2776 64.0367 22.8376 65.5467C22.9376 65.8267 23.4477 65.9167 23.9477 65.7567C24.4477 65.5867 24.7076 65.2967 24.6376 65.0667C24.2676 63.2367 23.7676 61.0167 23.1376 58.4167C23.0076 57.8667 22.5277 57.4767 21.9577 57.4567H21.8576L16.2777 57.2567L13.1977 57.1667H12.0775C11.9875 57.1767 11.9075 57.1767 11.8175 57.1667C10.7575 56.9967 9.89757 56.2267 9.60757 55.1967C9.55757 55.0267 9.52772 54.8567 9.50772 54.6767V52.2267L9.57754 44.8867C9.58754 44.0867 9.07753 43.3667 8.31753 43.1167L4.90762 41.9667L4.46768 41.6467H4.3876C4.2876 41.5867 4.23773 41.4767 4.26773 41.3667L7.03775 35.0467L8.54776 31.6667C9.06776 30.3867 9.38771 29.0367 9.49771 27.6667C9.59771 26.1967 9.4976 25.2667 9.6376 24.1567C10.0276 19.1967 11.9676 14.4867 15.1676 10.6867C17.0776 8.40669 19.3476 6.45673 21.8976 4.91673C22.1276 4.76673 22.1276 4.25669 21.8976 3.80669C21.6676 3.35669 21.3275 3.16672 21.0775 3.27672C18.0575 4.54672 15.3375 6.43669 13.0775 8.80669C9.99754 11.9867 7.80768 15.9167 6.71768 20.2167C6.41768 21.3967 6.20754 22.6067 6.07754 23.8167C5.92754 25.0067 5.95757 26.4367 5.85757 27.3167C5.74757 28.3267 5.49756 29.3167 5.09756 30.2467L3.62759 33.4967L2.1376 36.8067L1.39761 38.4967L1.02774 39.3367L0.83755 39.7467C0.72755 40.0067 0.637541 40.2767 0.577541 40.5567C0.207541 42.2867 0.997746 44.0567 2.53775 44.9367V44.9367Z" fill="#7100D2"/>
</svg>
