<svg width="60" height="67" viewBox="0 0 60 67" fill="none" xmlns="http://www.w3.org/2000/svg">
<path d="M28.4476 44.8467C27.4576 45.5367 26.3977 46.1067 25.2777 46.5667C24.8977 46.7267 24.5376 46.8667 24.1876 46.9867C23.8376 45.7267 23.0275 44.6467 21.9175 43.9467C20.5975 43.1067 18.9776 42.9167 17.4976 43.4167C16.2776 43.8367 15.2876 44.7267 14.7276 45.8867C14.3276 46.7167 14.2176 47.6667 14.4376 48.5667C14.4376 48.6667 14.9176 48.7167 15.4576 48.6667C15.7576 48.6667 16.0575 48.6167 16.3375 48.5167C16.4875 48.0667 16.7375 47.6567 17.0675 47.3167C17.4375 46.9367 17.9276 46.6967 18.4476 46.6267C18.9676 46.5567 19.4975 46.6967 19.9175 47.0167C20.7175 47.6167 20.8877 48.7467 20.2977 49.5467C20.2377 49.6267 20.1675 49.7067 20.0875 49.7767C19.7175 50.1467 19.2276 50.3567 18.7076 50.3567C18.1876 50.3467 17.6776 50.1667 17.2676 49.8467C16.8976 49.5467 16.5875 49.1667 16.3875 48.7367C16.0575 48.6767 15.7175 48.6767 15.3875 48.7367C14.9275 48.7367 14.5677 48.8567 14.5477 48.9467C14.4477 49.8567 14.6575 50.7867 15.1675 51.5567C15.8675 52.6267 16.9676 53.3767 18.2176 53.6367C19.7276 53.9267 21.2776 53.5167 22.4576 52.5367C23.2976 51.8467 23.9076 50.9067 24.1976 49.8567C24.8376 49.9067 25.4775 49.8867 26.1075 49.7867C29.3975 49.2667 32.2675 47.2567 33.8775 44.3467C34.2875 43.6067 34.5676 42.8067 34.7276 41.9767C35.0876 41.9467 35.4477 41.9067 35.7977 41.8367C41.5477 40.7367 45.3176 35.1767 44.2176 29.4267C43.6376 26.4067 41.7775 23.7867 39.1175 22.2467C39.3275 20.1667 39.4476 17.4067 39.4476 14.2267C39.4576 10.1567 39.2474 6.08672 38.8174 2.03672C38.7274 1.23672 38.1275 0.576673 37.3275 0.426673H37.2777C34.3177 -0.123327 31.2875 -0.143315 28.3275 0.376685H28.2877C27.3077 0.556685 26.6376 1.4667 26.7576 2.4567C27.3176 6.4867 27.6676 10.5067 28.0076 14.0067C28.3076 17.2367 28.5775 20.0267 28.8475 22.0967C26.4075 23.4267 24.6476 25.7367 24.0076 28.4367C23.8176 29.3067 23.7575 30.2067 23.8375 31.0967C23.8375 31.3067 24.2975 31.4667 24.8175 31.4567C25.3375 31.4467 25.6576 31.3167 25.6876 31.1667C25.7976 30.4867 25.9776 29.8267 26.2376 29.1967C26.5476 28.4667 26.9576 27.7767 27.4476 27.1567C28.6076 25.7067 30.2475 24.7267 32.0775 24.3867C33.0775 24.2167 34.0975 24.2367 35.0775 24.4767C36.0875 24.7367 37.0275 25.2067 37.8475 25.8567C40.9375 28.2667 41.4975 32.7367 39.0775 35.8267C38.7175 36.2867 38.3075 36.7067 37.8475 37.0567C37.0375 37.7067 36.0875 38.1867 35.0775 38.4367C34.0975 38.6667 33.0775 38.6967 32.0875 38.5267C30.2675 38.1967 28.6176 37.2067 27.4676 35.7567C26.9776 35.1367 26.5676 34.4567 26.2576 33.7267C26.0076 33.0967 25.8176 32.4367 25.7076 31.7667C25.7076 31.5967 25.2076 31.4667 24.6776 31.4667C24.1476 31.4767 23.8275 31.6367 23.8175 31.8367C23.7575 32.7067 23.8276 33.5667 24.0176 34.4167C24.9076 38.0467 27.7575 40.8767 31.3975 41.7267L31.7877 41.8067C31.5977 42.0267 31.3976 42.2567 31.1776 42.4967C30.3576 43.3767 29.4476 44.1667 28.4476 44.8467ZM35.7877 21.0067C34.3277 20.7367 32.8275 20.7867 31.3775 21.1367C31.2375 21.1667 31.1076 21.2267 30.9676 21.2567C31.1376 19.2767 31.2276 16.7567 31.1976 13.8967C31.1976 10.8567 31.0476 7.46672 30.6976 3.91672C32.2176 3.79672 33.7476 3.81667 35.2576 3.98667C35.6976 7.65667 35.9977 11.2367 36.2877 14.3567C36.5277 17.0167 36.7476 19.3767 36.9776 21.2667C36.6076 21.1567 36.1977 21.0667 35.7877 21.0067Z" fill="white"/>
<path d="M50.1577 11.3468C52.4777 14.1768 54.1378 17.4868 55.0378 21.0268C56.4878 26.8968 55.6578 33.1068 52.7378 38.3968C51.8278 40.0368 50.7277 41.5768 49.4777 42.9768L49.3977 43.0668C49.0177 43.4868 48.8976 44.0768 49.0676 44.6068C50.7576 49.9868 52.3378 54.5168 53.5178 57.4268C53.5978 57.6168 54.0676 57.6468 54.5676 57.4868C55.0676 57.3268 55.3278 57.0968 55.2978 56.9168C54.7978 53.9968 53.8178 49.6768 52.5278 44.6068C53.7978 43.2568 54.9176 41.7768 55.8676 40.1968C59.4776 34.1468 60.4576 26.8768 58.5776 20.0868C57.4476 16.0468 55.3377 12.3468 52.4177 9.32678C50.3177 7.11678 47.7978 5.34677 45.0078 4.12677C44.8078 4.03677 44.4477 4.35677 44.2077 4.81677C43.9677 5.27677 43.9476 5.65678 44.0976 5.76678C46.3676 7.33678 48.4077 9.2168 50.1577 11.3468Z" fill="white"/>
<path d="M2.53762 45.4367C2.77762 45.5667 3.02762 45.6767 3.28762 45.7667L3.71756 45.9067L5.87747 46.5967L5.93753 52.5767V54.8267C5.92753 55.0267 5.94756 55.2367 5.97756 55.4367C6.02757 55.8367 6.11757 56.2367 6.23757 56.6167C6.74757 58.1367 7.82758 59.3967 9.24758 60.1367C9.91758 60.4967 10.6375 60.7367 11.3875 60.8267C11.5675 60.8567 11.7575 60.8667 11.9375 60.8667H13.2176L16.2976 60.7767L20.9375 60.6067C21.6275 62.6867 22.2774 64.5367 22.8374 66.0467C22.9374 66.3267 23.4475 66.4167 23.9475 66.2567C24.4475 66.0867 24.7075 65.7967 24.6375 65.5667C24.2675 63.7367 23.7675 61.5167 23.1375 58.9167C23.0075 58.3667 22.5275 57.9767 21.9575 57.9567H21.8574L16.2776 57.7567L13.1975 57.6667H12.0774C11.9874 57.6767 11.9074 57.6767 11.8174 57.6667C10.7574 57.4967 9.89745 56.7267 9.60745 55.6967C9.55745 55.5267 9.52759 55.3567 9.50759 55.1767V52.7267L9.57742 45.3867C9.58742 44.5867 9.07741 43.8667 8.31741 43.6167L4.9075 42.4667L4.46756 42.1467H4.38748C4.28748 42.0867 4.2376 41.9767 4.2676 41.8667L7.03762 35.5467L8.54763 32.1667C9.06763 30.8867 9.38758 29.5367 9.49758 28.1667C9.59758 26.6967 9.49748 25.7667 9.63748 24.6567C10.0275 19.6967 11.9675 14.9867 15.1675 11.1867C17.0775 8.90669 19.3475 6.95673 21.8975 5.41673C22.1275 5.26673 22.1275 4.75669 21.8975 4.30669C21.6675 3.85669 21.3274 3.66672 21.0774 3.77672C18.0574 5.04672 15.3374 6.93669 13.0774 9.30669C9.99742 12.4867 7.80756 16.4167 6.71756 20.7167C6.41755 21.8967 6.20742 23.1067 6.07742 24.3167C5.92742 25.5067 5.95745 26.9367 5.85745 27.8167C5.74745 28.8267 5.49744 29.8167 5.09744 30.7467L3.62747 33.9967L2.13748 37.3067L1.39749 38.9967L1.02761 39.8367L0.837428 40.2467C0.727428 40.5067 0.637418 40.7767 0.577418 41.0567C0.207418 42.7867 0.997624 44.5567 2.53762 45.4367Z" fill="white"/>
</svg>
