<svg width="28" height="28" viewBox="0 0 28 28" fill="none" xmlns="http://www.w3.org/2000/svg">
<path d="M24 0H4C1.79086 0 0 1.79086 0 4V24C0 26.2091 1.79086 28 4 28H24C26.2091 28 28 26.2091 28 24V4C28 1.79086 26.2091 0 24 0Z" fill="#54819C"/>
<path d="M23.016 6.18061L3.66789 13.4771C3.04121 13.7135 3.07917 14.5838 3.72427 14.7681L6.59526 15.5886C7.87415 15.954 8.88773 16.9313 9.29958 18.196L10.4757 21.8075C10.6674 22.396 11.438 22.5745 11.8842 22.1336L12.0367 21.9829C13.4184 20.6176 15.5811 20.4423 17.1647 21.5671L19.4137 23.1648C20.0241 23.5984 20.8934 23.2762 21.0484 22.559L24.3517 7.27528C24.5135 6.52664 23.7524 5.9029 23.016 6.18061ZM20.5902 9.57245L11.6032 17.2634C11.5136 17.34 11.4566 17.4461 11.4432 17.5612L11.0972 20.5378C11.0859 20.6349 10.9456 20.6477 10.9156 20.5544L9.492 16.1152C9.4268 15.912 9.51181 15.6918 9.69866 15.5797L20.3115 9.20984C20.5555 9.06324 20.8054 9.38838 20.5902 9.57245Z" fill="white"/>
</svg>
