<svg width="29" height="28" viewBox="0 0 29 28" fill="none" xmlns="http://www.w3.org/2000/svg">
<path d="M25 0H4.06665C1.85751 0 0.0666504 1.79086 0.0666504 4V24C0.0666504 26.2091 1.85751 28 4.06665 28H25C27.2091 28 29 26.2091 29 24V4C29 1.79086 27.2091 0 25 0Z" fill="#54819C"/>
<path d="M22.849 6.18061L3.5009 13.4771C2.87421 13.7135 2.91218 14.5838 3.55728 14.7681L6.42827 15.5886C7.70716 15.954 8.72073 16.9313 9.13259 18.196L10.3087 21.8075C10.5004 22.396 11.271 22.5745 11.7172 22.1336L11.8698 21.9829C13.2514 20.6176 15.4141 20.4423 16.9977 21.5671L19.2468 23.1648C19.8571 23.5984 20.7264 23.2762 20.8814 22.559L24.1847 7.27528C24.3465 6.52664 23.5854 5.9029 22.849 6.18061ZM20.4232 9.57245L11.4362 17.2634C11.3466 17.34 11.2896 17.4461 11.2762 17.5612L10.9302 20.5378C10.9189 20.6349 10.7786 20.6477 10.7486 20.5544L9.32501 16.1152C9.25981 15.912 9.34482 15.6918 9.53167 15.5797L20.1445 9.20984C20.3885 9.06324 20.6384 9.38838 20.4232 9.57245Z" fill="white"/>
</svg>
