<svg width="72" height="62" viewBox="0 0 72 62" fill="none" xmlns="http://www.w3.org/2000/svg">
<path d="M11.1362 31.6741C5.79386 32.3844 1.60789 36.7697 1.60789 42.1421V49.8985V49.9832L1.62212 50.0666L1.6427 50.1873L1.7473 50.8009L2.34394 50.9779L2.90475 51.1444C7.22461 52.4302 11.0903 53.0236 14.4567 53.2092L15.3856 53.2604V57.6139V57.7005L15.4005 57.7859L15.4217 57.9074L15.5284 58.5183L16.123 58.6942L16.6827 58.8599C22.0677 60.4607 26.7598 61 30.6372 61C38.1951 61 42.6263 58.9521 43.0082 58.7667C43.0088 58.7664 43.0094 58.7661 43.01 58.7658L43.3258 58.6138H44.1532V57.6138V53.291L45.0621 53.2591C51.7565 53.0245 55.6538 51.2181 55.9954 51.0545L55.9993 51.0527L56.3177 50.8985H57.1441V49.8985V45.7693L58.0072 45.7391C64.7003 45.505 68.599 43.6991 68.9432 43.5332L68.9439 43.5328L69.2619 43.3792H70.0894V42.3792V34.6213C70.0894 34.6212 70.0894 34.6212 70.0894 34.6211C70.0901 29.2497 65.9038 24.8645 60.562 24.1541C62.959 22.6474 64.5572 20.054 64.5572 17.0707C64.5572 12.3443 60.5475 8.59738 55.7051 8.59733L11.1362 31.6741ZM11.1362 31.6741C8.73947 30.1673 7.14163 27.5738 7.14163 24.5899C7.14163 19.8634 11.151 16.1165 15.9938 16.1165C18.2587 16.1165 20.3421 16.9373 21.9178 18.2952L23.343 18.0131C23.6766 17.9471 24.0155 17.8942 24.3591 17.8554C21.6652 16.2556 19.8542 13.403 19.8542 10.1114C19.8542 5.03341 24.1645 1 29.3767 1C34.5882 1 38.899 5.0334 38.899 10.1114C38.899 13.4031 37.0876 16.2558 34.3937 17.8555C34.7403 17.8948 35.0824 17.9485 35.4197 18.0157L36.835 18.2979C38.4093 16.9386 40.4925 16.1165 42.7604 16.1164C44.233 16.1164 45.6287 16.463 46.858 17.0784L46.8602 16.941C46.935 12.2791 50.9061 8.59686 55.705 8.59733L11.1362 31.6741ZM68.5089 42.6324C68.2741 42.7456 64.882 44.3321 58.9722 44.6919V44.7397H57.9722L57.9373 43.7403C57.9489 43.7399 57.9606 43.7395 57.9722 43.7391V42.3499C57.9722 37.5927 54.8808 33.511 50.5107 31.826C50.3819 31.9565 50.2496 32.0837 50.114 32.2075L49.4398 31.4689L49.7121 30.5067C49.8843 30.5554 50.0551 30.6075 50.2244 30.6629C51.5512 29.1271 52.3655 27.1796 52.4261 25.0534L68.5089 42.6324ZM68.5089 42.6324L69.033 42.3792L68.5089 42.6324ZM20.9471 31.609C20.9454 31.6288 20.9438 31.6486 20.9423 31.6684L20.858 31.6624L20.9471 31.609ZM47.7168 31.6877C47.6835 31.683 47.6503 31.6784 47.617 31.674C47.764 31.5816 47.908 31.485 48.0489 31.3846L47.7168 31.6877Z" stroke="#17405C" stroke-width="2"/>
</svg>
