<svg width="62" height="62" viewBox="0 0 62 62" fill="none" xmlns="http://www.w3.org/2000/svg">
<path fill-rule="evenodd" clip-rule="evenodd" d="M43.0645 33.9191C46.6036 36.3216 49.0836 39.5766 49.0836 43.9166V51.6666H59.417V43.9166C59.417 38.285 50.1945 34.9525 43.0645 33.9191Z" fill="#7100D2"/>
<path d="M23.2503 31C28.9573 31 33.5837 26.3736 33.5837 20.6666C33.5837 14.9597 28.9573 10.3333 23.2503 10.3333C17.5434 10.3333 12.917 14.9597 12.917 20.6666C12.917 26.3736 17.5434 31 23.2503 31Z" fill="#7100D2"/>
<path fill-rule="evenodd" clip-rule="evenodd" d="M38.7503 31C44.4595 31 49.0836 26.3758 49.0836 20.6666C49.0836 14.9575 44.4595 10.3333 38.7503 10.3333C37.5361 10.3333 36.3995 10.5916 35.3145 10.9533C37.4586 13.6141 38.7503 16.9983 38.7503 20.6666C38.7503 24.335 37.4586 27.7191 35.3145 30.38C36.3995 30.7416 37.5361 31 38.7503 31Z" fill="#7100D2"/>
<path fill-rule="evenodd" clip-rule="evenodd" d="M23.2502 33.5833C16.3527 33.5833 2.5835 37.045 2.5835 43.9166V51.6666H43.9168V43.9166C43.9168 37.045 30.1477 33.5833 23.2502 33.5833Z" fill="#7100D2"/>
</svg>
