<svg width="95" height="103" viewBox="0 0 95 103" fill="none" xmlns="http://www.w3.org/2000/svg">
<path d="M27.5655 77.652H68.4351V72.5433H78.6525V57.2172C78.6525 49.7662 73.7188 43.448 66.9472 41.3534C70.1401 39.3087 72.2666 35.7377 72.2666 31.6737C72.2666 25.3364 67.1107 20.1792 60.772 20.1792C59.6801 20.1792 58.597 20.3427 57.5395 20.6556C55.1985 18.0208 51.7948 16.3477 48.0003 16.3477C44.2058 16.3477 40.8022 18.0208 38.4611 20.6556C37.4036 20.3427 36.3206 20.1792 35.2286 20.1792C28.89 20.1792 23.734 25.3364 23.734 31.6737C23.734 35.7377 25.8605 39.3087 29.0534 41.3534C22.2819 43.448 17.3481 49.7662 17.3481 57.2172V72.5433H27.5655V77.652ZM65.8807 75.0977H30.1199V72.5433V55.94C30.1199 55.5135 30.1467 55.092 30.1837 54.6744C30.1965 54.5377 30.2131 54.4023 30.2284 54.2657C30.2629 53.977 30.3076 53.6922 30.36 53.41C30.3868 53.2669 30.4085 53.1226 30.4392 52.9808C30.5184 52.6143 30.6116 52.2541 30.7176 51.8978C30.7712 51.7215 30.8351 51.5504 30.8951 51.3767C30.9641 51.1749 31.0369 50.9757 31.1148 50.7777C31.1902 50.5874 31.2693 50.3984 31.3524 50.2119C31.4341 50.0293 31.5235 49.8505 31.6129 49.6717C31.7432 49.4111 31.8811 49.1557 32.0267 48.9041C32.1544 48.6857 32.2821 48.4673 32.4201 48.2566C32.5274 48.0931 32.6423 47.9347 32.756 47.7751C32.876 47.6065 32.9999 47.4405 33.1276 47.2783C33.2451 47.1288 33.3626 46.9807 33.4865 46.8364C33.6474 46.6486 33.8147 46.4672 33.9846 46.2884C34.1417 46.1224 34.3026 45.9589 34.4674 45.8006C34.6705 45.6064 34.8761 45.4161 35.0906 45.2335C35.2311 45.1147 35.3767 45.0011 35.5223 44.8874C35.6896 44.7571 35.8582 44.6294 36.0319 44.5068C36.1928 44.3918 36.3538 44.2782 36.5211 44.1696C36.6897 44.0598 36.8634 43.9589 37.0358 43.8567C37.3615 43.6639 37.6961 43.4838 38.0396 43.3165C38.2121 43.2322 38.3819 43.144 38.5582 43.0661L38.7638 42.9742C40.4292 42.2781 42.2543 41.8911 44.1688 41.8911H51.8318C53.7463 41.8911 55.5714 42.2781 57.2356 42.9755L57.4412 43.0674C57.6174 43.144 57.7873 43.2334 57.9597 43.3177C58.3033 43.485 58.6379 43.6651 58.9636 43.858C59.1373 43.9602 59.311 44.0611 59.4783 44.1709C59.6443 44.2794 59.8065 44.3931 59.9674 44.5081C60.1398 44.6307 60.3097 44.7584 60.477 44.8887C60.6226 45.0023 60.7682 45.116 60.9087 45.2348C61.1233 45.4161 61.3289 45.6077 61.532 45.8018C61.698 45.9602 61.8576 46.1237 62.0147 46.2897C62.1846 46.4685 62.3532 46.6499 62.5128 46.8376C62.6354 46.9819 62.7542 47.1301 62.8717 47.2795C62.9994 47.4417 63.1233 47.6078 63.2434 47.7764C63.357 47.936 63.4733 48.0931 63.5793 48.2578C63.7172 48.4686 63.8462 48.687 63.9726 48.9054C64.1182 49.157 64.2562 49.4137 64.3865 49.673C64.4759 49.8518 64.5653 50.0306 64.647 50.2132C64.7313 50.3997 64.8092 50.5887 64.8845 50.779C64.9625 50.9757 65.034 51.1762 65.1042 51.378C65.1642 51.5517 65.2281 51.7241 65.2817 51.8991C65.389 52.2541 65.4823 52.6156 65.5602 52.9821C65.5908 53.1239 65.6138 53.2682 65.6394 53.4112C65.6904 53.6935 65.7364 53.9796 65.7709 54.2669C65.7875 54.4023 65.8041 54.539 65.8156 54.6756C65.8539 55.092 65.8807 55.5135 65.8807 55.94V72.5433V75.0977ZM76.0981 57.2172V69.989H68.4351V55.94C68.4351 55.3334 68.3981 54.7357 68.3342 54.1456C68.3189 54.0064 68.2895 53.871 68.2716 53.7331C68.2103 53.2771 68.1388 52.8237 68.0417 52.3806C68.0098 52.235 67.9664 52.0945 67.9306 51.9502C67.8233 51.5172 67.7045 51.0893 67.5641 50.6704C67.5168 50.5287 67.4619 50.3907 67.4108 50.2515C67.2601 49.839 67.0953 49.4328 66.914 49.0369C66.8501 48.8977 66.7824 48.7598 66.7135 48.6231C66.5232 48.2361 66.3188 47.8594 66.0991 47.4903C66.0187 47.3549 65.9382 47.2195 65.8526 47.0854C65.6228 46.724 65.3788 46.374 65.1234 46.0317C65.0301 45.9066 64.9407 45.7801 64.8437 45.6575C64.564 45.3037 64.2664 44.9653 63.9586 44.6358C63.8717 44.5425 63.7913 44.4442 63.7019 44.3535C63.2983 43.9397 62.8768 43.5438 62.4324 43.1747C70.0022 43.3778 76.0981 49.5989 76.0981 57.2172ZM59.1411 22.8881C59.6801 22.7859 60.2241 22.7335 60.772 22.7335C65.7007 22.7335 69.7123 26.7439 69.7123 31.6737C69.7123 36.6036 65.7007 40.614 60.772 40.614C59.0185 40.614 57.3313 40.1031 55.8856 39.1529C55.9047 39.1388 55.9201 39.1209 55.9379 39.1056C57.0376 38.2308 57.9853 37.1784 58.7465 35.9919C58.7707 35.9536 58.7924 35.9152 58.8167 35.8769C59.0376 35.5244 59.2407 35.1617 59.4272 34.7875C59.4578 34.7262 59.4859 34.6649 59.5153 34.6036C59.6852 34.2498 59.8372 33.8871 59.9738 33.5154C60.0019 33.4388 60.0313 33.3622 60.0581 33.2855C60.182 32.9292 60.288 32.5652 60.38 32.1948C60.4029 32.1029 60.4298 32.0122 60.4502 31.9202C60.5319 31.5588 60.5932 31.191 60.6431 30.818C60.6571 30.7197 60.6775 30.6226 60.6878 30.523C60.7414 30.0632 60.772 29.5945 60.772 29.1194C60.772 28.6136 60.735 28.1181 60.6775 27.6277C60.6597 27.4718 60.6303 27.3186 60.606 27.1628C60.5524 26.8205 60.4885 26.482 60.4093 26.1487C60.371 25.9865 60.3301 25.8256 60.2854 25.6659C60.182 25.2968 60.0607 24.9354 59.9253 24.5816C59.887 24.4833 59.8563 24.3824 59.8167 24.2853C59.6226 23.8127 59.4016 23.3555 59.1539 22.9123C59.1475 22.9034 59.1449 22.8957 59.1411 22.8881ZM55.8715 22.6122L55.9494 22.7131C56.012 22.791 56.0682 22.8727 56.1282 22.9519C56.7796 23.8089 57.2777 24.7425 57.6276 25.7272C57.6506 25.7911 57.6762 25.8537 57.6979 25.9188C57.8499 26.3773 57.9648 26.846 58.0504 27.3237C58.0683 27.4233 58.0823 27.5255 58.0964 27.6264C58.1679 28.1181 58.2177 28.6149 58.2177 29.1194C58.2177 29.5383 58.1858 29.9521 58.1347 30.3621C58.1232 30.4579 58.1053 30.5524 58.0913 30.6482C58.0389 30.9866 57.9738 31.3212 57.8882 31.6495C57.8703 31.7184 57.8537 31.7887 57.8345 31.8577C57.6034 32.6802 57.2739 33.4694 56.8498 34.2051C56.8422 34.2179 56.8345 34.2306 56.8269 34.2434C56.6212 34.5972 56.3913 34.9382 56.1436 35.2652C56.1206 35.2945 56.0989 35.3252 56.0759 35.3558C55.5561 36.0289 54.9507 36.6381 54.27 37.1694C54.2304 37.2001 54.1882 37.2294 54.1486 37.2601C53.8332 37.4989 53.5037 37.7212 53.1588 37.9242C53.0975 37.96 53.04 37.9996 52.9775 38.0341L52.8319 38.1184C51.3912 38.8949 49.7475 39.3368 48.0003 39.3368C46.2531 39.3368 44.6094 38.8949 43.17 38.1184L43.0244 38.0341C42.9631 37.9996 42.9044 37.96 42.8431 37.9242C42.4982 37.7212 42.1687 37.4989 41.8533 37.2601C41.8124 37.2294 41.7715 37.2001 41.7319 37.1694C41.0525 36.6381 40.4471 36.0289 39.926 35.3558C39.903 35.3265 39.8813 35.2958 39.8583 35.2652C39.6106 34.9382 39.3819 34.5972 39.175 34.2434C39.1674 34.2306 39.1597 34.2179 39.1521 34.2051C38.7268 33.4682 38.3972 32.6789 38.1661 31.8564C38.1469 31.7887 38.1303 31.7184 38.1124 31.6508C38.0269 31.3212 37.9617 30.9866 37.9094 30.6482C37.8953 30.5524 37.8774 30.4591 37.8659 30.3621C37.8149 29.9521 37.7829 29.5383 37.7829 29.1194C37.7829 28.6149 37.8327 28.1181 37.9043 27.6277C37.9196 27.5268 37.9324 27.4259 37.9502 27.325C38.0358 26.8486 38.1507 26.3786 38.3027 25.9201C38.3244 25.8549 38.35 25.7924 38.373 25.7285C38.7229 24.7438 39.221 23.8089 39.8724 22.9532C39.9324 22.874 39.9886 22.791 40.0512 22.7144L40.1291 22.6135C42.0053 20.3478 44.8368 18.902 48.0003 18.902C51.1639 18.902 53.9954 20.3478 55.8715 22.6122ZM26.2884 31.6737C26.2884 26.7439 30.3 22.7335 35.2286 22.7335C35.7765 22.7335 36.3206 22.7859 36.8595 22.8881C36.8557 22.8957 36.8519 22.9047 36.848 22.9123C36.6015 23.3542 36.3793 23.8115 36.1852 24.284C36.1443 24.3824 36.1137 24.4833 36.0753 24.5829C35.94 24.9367 35.8186 25.2981 35.7152 25.6659C35.6705 25.8256 35.6296 25.9865 35.5913 26.1487C35.5121 26.482 35.4482 26.8205 35.3946 27.1628C35.3703 27.3173 35.3422 27.4706 35.3231 27.6277C35.2656 28.1181 35.2286 28.6136 35.2286 29.1194C35.2286 29.5945 35.2592 30.0632 35.3103 30.5243C35.3218 30.6239 35.3422 30.7197 35.355 30.818C35.4048 31.191 35.4674 31.5601 35.5479 31.9215C35.5683 32.0135 35.5951 32.1029 35.6181 32.1936C35.7101 32.5639 35.8161 32.9292 35.94 33.2868C35.9668 33.3647 35.9962 33.4401 36.0243 33.518C36.1609 33.8884 36.3142 34.2511 36.4828 34.6049C36.5121 34.6662 36.5415 34.7287 36.5722 34.79C36.7586 35.1643 36.9617 35.527 37.1827 35.8795C37.2069 35.9178 37.2286 35.9561 37.2529 35.9944C38.0141 37.1809 38.963 38.232 40.0614 39.1082C40.0793 39.1235 40.0959 39.1401 40.1138 39.1554C38.6693 40.1031 36.9821 40.614 35.2286 40.614C30.3 40.614 26.2884 36.6036 26.2884 31.6737ZM19.9025 69.989V57.2172C19.9025 49.5989 25.9984 43.3778 33.5695 43.1734C33.1251 43.5425 32.7036 43.9397 32.3 44.3522C32.2106 44.4429 32.1302 44.5413 32.0433 44.6345C31.7355 44.964 31.4379 45.3025 31.1569 45.6575C31.0612 45.7789 30.9718 45.9053 30.8785 46.0305C30.6218 46.3727 30.3779 46.7227 30.148 47.0854C30.0637 47.2195 29.9832 47.3536 29.9015 47.4903C29.6818 47.8594 29.4775 48.2361 29.2872 48.6231C29.2195 48.7611 29.1518 48.8977 29.0866 49.0369C28.904 49.4328 28.7405 49.839 28.5898 50.2515C28.5387 50.392 28.4838 50.5287 28.4366 50.6704C28.2961 51.0906 28.1773 51.5185 28.0687 51.9527C28.033 52.0958 27.9908 52.2362 27.9589 52.3806C27.8618 52.825 27.7903 53.2784 27.729 53.7356C27.7099 53.8736 27.6818 54.0077 27.6664 54.1469C27.6026 54.7357 27.5655 55.3334 27.5655 55.94V69.989H19.9025Z" fill="#17405C"/>
</svg>
