<svg width="72" height="62" viewBox="0 0 72 62" fill="none" xmlns="http://www.w3.org/2000/svg">
<mask id="path-1-outside-1" maskUnits="userSpaceOnUse" x="0.608154" y="0" width="71" height="62" fill="black">
<rect fill="white" x="0.608154" width="71" height="62"/>
<path d="M20.8544 10.1114C20.8544 5.63169 24.6699 2 29.3769 2C34.0834 2 37.8992 5.63169 37.8992 10.1114C37.8992 14.5911 34.0834 18.2227 29.3769 18.2227C24.6699 18.2228 20.8544 14.5911 20.8544 10.1114ZM33.4725 23.749C33.5579 21.9827 34.1967 20.3479 35.2244 18.9964C34.5032 18.8527 33.7577 18.7763 32.9928 18.7763H25.7621C24.9994 18.7763 24.255 18.8521 23.5374 18.9941C24.6311 20.438 25.2853 22.2014 25.2959 24.1104C26.6254 23.4144 28.1508 23.0182 29.7711 23.0182C31.0854 23.0182 32.3366 23.2788 33.4725 23.749ZM34.915 24.477C37.3904 25.9546 39.1262 28.4537 39.4437 31.3558C40.4523 31.8045 41.5732 32.0634 42.7607 32.0634C47.0973 32.0634 50.6123 28.7174 50.6123 24.5898C50.6123 20.4617 47.0973 17.1164 42.7607 17.1164C38.4637 17.1165 34.9803 20.4025 34.915 24.477ZM29.7709 39.7796C34.1068 39.7796 37.622 36.4326 37.622 32.3062C37.622 28.1792 34.1068 24.8328 29.7709 24.8328C25.4347 24.8328 21.918 28.1791 21.918 32.3062C21.9181 36.4326 25.4347 39.7796 29.7709 39.7796ZM33.1015 40.2882H26.4397C20.8966 40.2882 16.3859 44.5813 16.3859 49.8582V57.6139L16.4071 57.7354L16.9679 57.9013C22.2582 59.474 26.8542 60 30.6375 60C38.0252 60 42.3091 57.9948 42.573 57.8665L43.0977 57.6138H43.1534V49.858C43.1535 44.5813 38.6454 40.2882 33.1015 40.2882ZM46.093 32.5735H39.4812C39.4094 35.0915 38.2803 37.3591 36.4947 38.9891C41.4222 40.3837 45.0273 44.7326 45.0273 49.87V52.2597C51.5542 52.031 55.3161 50.2712 55.5639 50.1526L56.0887 49.8985H56.1444V42.1414C56.1451 36.8659 51.6348 32.5735 46.093 32.5735ZM47.8603 16.957C50.3358 18.4348 52.0716 20.934 52.3883 23.8362C53.397 24.2849 54.5178 24.5433 55.7052 24.5433C60.0427 24.5433 63.5575 21.1977 63.5575 17.0707C63.5575 12.9425 60.0426 9.59733 55.7052 9.59733C51.4089 9.59685 47.9257 12.8835 47.8603 16.957ZM59.0368 25.0534H52.4264C52.3546 27.5715 51.2256 29.8391 49.4401 31.4689C54.3674 32.8631 57.9725 37.2126 57.9725 42.3499V44.7397C64.4987 44.5114 68.2614 42.7519 68.5092 42.6324L69.0333 42.3792H69.0897V34.6211C69.0904 29.3462 64.5801 25.0534 59.0368 25.0534ZM15.9941 32.0635C17.5302 32.0635 18.9585 31.6364 20.1697 30.9094C20.5549 28.5201 21.9008 26.4318 23.8225 25.0102C23.8306 24.87 23.8441 24.7315 23.8441 24.5899C23.8441 20.4618 20.3281 17.1165 15.9941 17.1165C11.6564 17.1165 8.14189 20.4617 8.14189 24.5899C8.14189 28.7182 11.6563 32.0635 15.9941 32.0635ZM23.0454 38.9891C21.2681 37.3669 20.1429 35.1117 20.0601 32.6083C19.8157 32.5909 19.573 32.5735 19.3231 32.5735H12.662C7.11813 32.5735 2.60815 36.8659 2.60815 42.1421V49.8985L2.62874 50.0193L3.19029 50.186C7.43338 51.4489 11.2217 52.0293 14.512 52.2107V49.8691C14.5126 44.7326 18.1169 40.383 23.0454 38.9891Z"/>
</mask>
<path d="M20.8544 10.1114C20.8544 5.63169 24.6699 2 29.3769 2C34.0834 2 37.8992 5.63169 37.8992 10.1114C37.8992 14.5911 34.0834 18.2227 29.3769 18.2227C24.6699 18.2228 20.8544 14.5911 20.8544 10.1114ZM33.4725 23.749C33.5579 21.9827 34.1967 20.3479 35.2244 18.9964C34.5032 18.8527 33.7577 18.7763 32.9928 18.7763H25.7621C24.9994 18.7763 24.255 18.8521 23.5374 18.9941C24.6311 20.438 25.2853 22.2014 25.2959 24.1104C26.6254 23.4144 28.1508 23.0182 29.7711 23.0182C31.0854 23.0182 32.3366 23.2788 33.4725 23.749ZM34.915 24.477C37.3904 25.9546 39.1262 28.4537 39.4437 31.3558C40.4523 31.8045 41.5732 32.0634 42.7607 32.0634C47.0973 32.0634 50.6123 28.7174 50.6123 24.5898C50.6123 20.4617 47.0973 17.1164 42.7607 17.1164C38.4637 17.1165 34.9803 20.4025 34.915 24.477ZM29.7709 39.7796C34.1068 39.7796 37.622 36.4326 37.622 32.3062C37.622 28.1792 34.1068 24.8328 29.7709 24.8328C25.4347 24.8328 21.918 28.1791 21.918 32.3062C21.9181 36.4326 25.4347 39.7796 29.7709 39.7796ZM33.1015 40.2882H26.4397C20.8966 40.2882 16.3859 44.5813 16.3859 49.8582V57.6139L16.4071 57.7354L16.9679 57.9013C22.2582 59.474 26.8542 60 30.6375 60C38.0252 60 42.3091 57.9948 42.573 57.8665L43.0977 57.6138H43.1534V49.858C43.1535 44.5813 38.6454 40.2882 33.1015 40.2882ZM46.093 32.5735H39.4812C39.4094 35.0915 38.2803 37.3591 36.4947 38.9891C41.4222 40.3837 45.0273 44.7326 45.0273 49.87V52.2597C51.5542 52.031 55.3161 50.2712 55.5639 50.1526L56.0887 49.8985H56.1444V42.1414C56.1451 36.8659 51.6348 32.5735 46.093 32.5735ZM47.8603 16.957C50.3358 18.4348 52.0716 20.934 52.3883 23.8362C53.397 24.2849 54.5178 24.5433 55.7052 24.5433C60.0427 24.5433 63.5575 21.1977 63.5575 17.0707C63.5575 12.9425 60.0426 9.59733 55.7052 9.59733C51.4089 9.59685 47.9257 12.8835 47.8603 16.957ZM59.0368 25.0534H52.4264C52.3546 27.5715 51.2256 29.8391 49.4401 31.4689C54.3674 32.8631 57.9725 37.2126 57.9725 42.3499V44.7397C64.4987 44.5114 68.2614 42.7519 68.5092 42.6324L69.0333 42.3792H69.0897V34.6211C69.0904 29.3462 64.5801 25.0534 59.0368 25.0534ZM15.9941 32.0635C17.5302 32.0635 18.9585 31.6364 20.1697 30.9094C20.5549 28.5201 21.9008 26.4318 23.8225 25.0102C23.8306 24.87 23.8441 24.7315 23.8441 24.5899C23.8441 20.4618 20.3281 17.1165 15.9941 17.1165C11.6564 17.1165 8.14189 20.4617 8.14189 24.5899C8.14189 28.7182 11.6563 32.0635 15.9941 32.0635ZM23.0454 38.9891C21.2681 37.3669 20.1429 35.1117 20.0601 32.6083C19.8157 32.5909 19.573 32.5735 19.3231 32.5735H12.662C7.11813 32.5735 2.60815 36.8659 2.60815 42.1421V49.8985L2.62874 50.0193L3.19029 50.186C7.43338 51.4489 11.2217 52.0293 14.512 52.2107V49.8691C14.5126 44.7326 18.1169 40.383 23.0454 38.9891Z" stroke="#17405C" stroke-width="4" mask="url(#path-1-outside-1)"/>
</svg>
