<svg width="666" height="299" viewBox="0 0 666 299" fill="none" xmlns="http://www.w3.org/2000/svg">
<g clip-path="url(#clip0_318_1284)">
<path fill-rule="evenodd" clip-rule="evenodd" d="M-0.999837 -1706.44L71.1112 -1712.34L69.7492 -1704.36L174.088 -1711.62L176.218 -1698.51C181.303 -1700.68 186.55 -1702.42 191.909 -1703.72C194.247 -1704.11 196.687 -1703.77 199.138 -1703.42C201.234 -1703.13 203.339 -1702.83 205.394 -1702.99C224.171 -1704.47 242.936 -1706.13 261.701 -1707.78C268.124 -1708.34 274.547 -1708.91 280.971 -1709.47L285.372 -1705.49L273.282 -1700.43L274.089 -1697.26L336.811 -1701.61C338.764 -1701.61 340.623 -1700.18 342.513 -1698.73C346.461 -1695.69 350.538 -1692.55 355.869 -1702.22C356.187 -1702.8 357.58 -1702.74 358.989 -1702.69C359.678 -1702.66 360.371 -1702.63 360.945 -1702.68C365.936 -1703.08 370.988 -1703.8 376.039 -1704.53C387.569 -1706.17 399.097 -1707.82 409.907 -1705.67C418.042 -1704.04 425.771 -1705.05 433.28 -1706.02C439.606 -1706.84 445.776 -1707.64 451.899 -1706.84C473.343 -1704.01 493.964 -1707.13 514.619 -1710.25C521.967 -1711.36 529.319 -1712.48 536.713 -1713.32C546.138 -1714.4 555.653 -1714.6 565.173 -1714.81C570.935 -1714.93 576.698 -1715.06 582.443 -1715.38C591.206 -1715.86 599.956 -1716.58 609.065 -1717.34C613.199 -1717.68 617.407 -1718.03 621.724 -1718.36L619.967 -1707.5L660.567 -1709.71L662.459 -1699.86L666 -1699.86L666 142.92C646.102 138.632 612.158 143.36 604.807 151.676C600.25 150.867 595.785 150.113 591.389 149.372C581.591 147.718 572.134 146.123 562.766 144.096C552.841 141.948 543.003 142.785 533.177 143.62C529.332 143.947 525.489 144.274 521.644 144.422C511.362 144.817 501.105 145.898 490.849 146.978C486.684 147.417 482.518 147.856 478.351 148.249C477.948 148.287 477.523 148.474 477.11 148.655C476.556 148.899 476.022 149.134 475.588 148.987C458.834 143.321 442.85 146.982 426.857 150.644C419.893 152.239 412.927 153.835 405.895 154.661C402.895 155.013 399.798 155.475 396.663 155.943C384.153 157.81 371.046 159.766 361.194 155.17C349.288 149.616 340.421 151.348 330.028 153.38C328.693 153.64 327.333 153.906 325.937 154.162C317.485 144.074 306.919 146.38 297.288 148.482C294.723 149.041 292.224 149.587 289.848 149.88C281.138 139.853 271.254 140.741 261.396 141.627C256.972 142.025 252.553 142.422 248.248 141.832C247.885 139.071 247.48 135.987 246.945 131.917L173.409 131.917L175.604 126.498L178.963 118.205L-0.999995 102.352L-0.999995 101.315C3.22089 94.8339 2.3415 90.6784 -0.999994 87.8536L-0.999837 -1706.44Z" fill="white"/>
</g>
<defs>
<clipPath id="clip0_318_1284">
<rect width="666" height="299" fill="white" transform="translate(666 299) rotate(-180)"/>
</clipPath>
</defs>
</svg>
