<svg width="2520" height="600" viewBox="0 0 2520 600" fill="none" xmlns="http://www.w3.org/2000/svg">
<g clip-path="url(#clip0_318_1270)">
<path fill-rule="evenodd" clip-rule="evenodd" d="M174.326 267.67C174.329 267.649 174.332 267.628 174.334 267.608C156.042 269.829 137.712 272.058 117.219 274.55C123.209 267.118 139.079 264.836 154.252 262.654C158.536 262.038 162.765 261.43 166.7 260.716C171.125 259.913 177.708 260.698 185.11 261.58C188.746 262.013 192.58 262.47 196.452 262.774C186.604 264.954 180.405 266.325 174.326 267.67ZM197.303 265.731C190.558 268.117 183.544 269.593 174.285 267.914C173.417 272.515 166.686 275.396 156.431 278.271C150.298 279.99 146.112 282.632 141.922 285.277C140.017 286.479 138.111 287.682 136.021 288.799C133.806 290.378 130.899 291.813 127.413 293.048C123.564 294.062 118.81 294.467 114.034 294.874C106.244 295.538 98.3982 296.207 94.3336 299.531C93.8318 299.941 88.4095 300.13 88.0974 299.903C83.8367 296.808 77.8305 297.163 71.0052 297.566C69.6669 297.645 68.2971 297.726 66.9027 297.783C57.8422 298.154 46.196 298.311 39.4646 296.588C20.5311 291.743 2.53052 286.41 -15.4644 281.078C-20.6546 279.541 -25.8443 278.003 -31.0558 276.477C-32.5527 275.812 -33.5887 275.025 -34.0758 274.183C-34.542 273.728 -34.8577 273.209 -35.1715 272.692C-35.7871 271.68 -36.3955 270.679 -38.1178 270.201C-41.2287 269.339 -44.9145 268.643 -48.5631 267.955C-54.5069 266.833 -60.352 265.73 -63.452 263.954C-65.4516 262.809 -68.0572 261.715 -70.6956 260.608C-78.8701 257.176 -87.3596 253.613 -79.1193 247.964C-73.4767 244.095 -80.4982 241.696 -89.0697 240.09C-94.9884 238.981 -101.168 238.058 -107.326 237.139C-110.02 236.737 -112.71 236.335 -115.372 235.919C-109.301 230.685 -120.913 220.885 -135.459 216.776L-122.958 210.156L-137.887 208.292L-47.3628 186.865C-34.5396 189.307 -25.8091 186.647 -16.5799 183.834C-11.3914 182.252 -6.04529 180.623 0.27418 179.825C-5.19996 177.921 -12.1659 176.689 -19.6502 176.302C-30.5843 176.049 -41.545 175.942 -52.5047 175.836C-64.7296 175.717 -76.9534 175.598 -89.1382 175.275C-95.3835 174.919 -101.028 173.712 -104.939 171.898C-115.581 166.845 -125.145 161.478 -134.615 156.112C-137.707 154.307 -139.977 152.331 -141.336 150.26C-142.568 148.443 -143.476 146.592 -144.383 144.742C-145.696 142.063 -147.008 139.387 -149.302 136.825C-167.299 116.724 -174.623 96.5347 -156.656 75.864C-149.067 67.1335 -140.655 64.3189 -115.407 63.8758C-82.0768 63.2908 -48.7007 62.8994 -15.3342 62.7772C-10.2218 62.7585 -5.10926 62.7431 0.000386924 62.7307L0.000398984 -75.2178C-12.7392 -76.6865 -25.0307 -78.8002 -36.7348 -82.0235C-39.4353 -82.7673 -42.1356 -83.493 -44.8156 -84.2132C-62.5511 -88.9794 -79.3966 -93.5064 -89.5353 -101.451C-90.8105 -102.45 -92.5289 -103.353 -94.2207 -104.243C-98.3985 -106.44 -102.414 -108.552 -99.1892 -111.804C-99.1182 -112.111 -99.2429 -112.42 -99.5536 -112.707C-99.8644 -112.993 -100.353 -113.25 -100.98 -113.456C-122.33 -120.104 -118.961 -128.229 -115.645 -136.228C-114.498 -138.994 -113.358 -141.744 -113.247 -144.414C-113.141 -146.973 -109.095 -149.457 -104.986 -151.98C-101.476 -154.135 -97.9202 -156.318 -96.7355 -158.599C-92.1369 -167.456 -76.4874 -167.61 -58.8022 -167.784C-57.5028 -167.797 -56.1924 -167.81 -54.8746 -167.826C-48.0742 -167.911 -37.221 -169.911 -35.6085 -171.854C-33.682 -174.767 -30 -177.485 -24.831 -179.811C-19.6621 -182.137 -13.1367 -184.013 -5.73067 -185.301C-4.13526 -185.65 -2.80231 -186.139 -1.8515 -186.723C-0.900699 -187.307 -0.361789 -187.968 -0.282993 -188.647C-0.927508 -189.706 -5.38944 -190.773 -8.79004 -191.204C-12.806 -191.496 -16.9103 -191.592 -20.9952 -191.488C-28.3555 -191.638 -35.7199 -191.772 -43.0842 -191.907C-64.1979 -192.292 -85.3118 -192.678 -106.333 -193.415C-113.4 -193.998 -119.634 -195.509 -123.852 -197.66C-132.825 -202.117 -141.103 -206.755 -148.645 -211.552C-152.681 -213.885 -155.843 -216.404 -158.047 -219.043C-160.07 -221.713 -161.6 -224.432 -163.13 -227.151C-164.384 -229.38 -165.638 -231.609 -167.164 -233.812C-180.069 -252.442 -188.139 -271.164 -172.057 -290.06C-160.669 -303.441 -155.583 -304.619 -116.962 -304.867C-86.4508 -305.067 -55.9381 -305.184 -25.4246 -305.218C-15.9495 -305.228 -9.06178 -306.519 -10.1709 -310.104C-12.0961 -312.881 -14.7684 -315.582 -18.1489 -318.166C-36.3187 -338.263 -41.4509 -358.509 -23.4156 -379.045C-17.5915 -385.677 -12.0935 -388.858 0.000457045 -390.286L0.000632936 -1355L2520 -1355L2520 -683L2520 -358.579C2525.95 -357.526 2529.9 -355.631 2533.58 -352.957C2542.55 -346.429 2552.17 -340.02 2561.94 -333.518C2565.97 -330.838 2570.02 -328.142 2574.05 -325.416C2574.18 -325.43 2574.43 -325.459 2574.77 -325.499C2576.19 -325.668 2579.26 -326.031 2582.39 -326.31C2587.06 -326.727 2592.13 -326.979 2597.19 -327.23C2608.13 -327.774 2619.06 -328.316 2626 -330.529C2642.72 -335.857 2659.54 -335.074 2674.13 -334.394C2679.31 -334.154 2684.2 -333.926 2688.71 -333.988C2690.92 -332.746 2692.73 -331.69 2694.33 -330.762C2697.28 -329.046 2699.47 -327.771 2701.96 -326.578C2710.26 -322.088 2719.59 -317.863 2729.84 -313.947C2732.96 -312.885 2734.59 -311.5 2736.23 -310.099C2739.06 -307.68 2741.95 -305.216 2752.73 -304.302C2779.3 -302.047 2796.16 -295.205 2802.53 -284.612C2803.21 -283.481 2803 -282.253 2802.78 -280.988C2802.22 -277.715 2801.61 -274.192 2816.31 -271.442C2834.02 -268.128 2831.84 -253.292 2818.1 -246.551C2810.38 -243.282 2801.34 -240.461 2791.3 -238.186C2786.5 -236.939 2781.77 -235.614 2777.03 -234.287C2763.67 -230.549 2750.24 -226.791 2735.14 -224.683C2701.17 -220.074 2666.22 -216.482 2630.66 -213.941C2593.84 -211.187 2556.94 -208.56 2520 -206.018L2520 167L2520 203L2018.79 203C2016.36 204.005 2014.41 205.19 2013.18 206.653C2012.86 206.596 2012.53 206.517 2012.2 206.439C2011.5 206.27 2010.79 206.101 2010.21 206.147C1994.12 207.424 1978.04 208.737 1960.33 210.184L1949.92 211.035L1958.07 203L1727.37 203L1736.36 207.682L1712.77 215.477L1719.93 217.446L1736.13 229.473C1703.8 229.592 1689.67 231.636 1688.71 235.45C1684.81 235.626 1680.92 235.769 1677.06 235.912C1668.39 236.233 1659.84 236.55 1651.5 237.211C1638.47 238.245 1626.1 240.004 1637.05 245.532L1420.19 252.33L1426.86 258.189L1338.57 258.189C1337.94 259.914 1337.45 261.224 1337.02 262.396L1337.01 262.425C1331.84 262.678 1326.53 262.508 1321.22 262.338C1309.39 261.959 1297.52 261.58 1287.06 265.864C1284.21 265.739 1281.21 265.506 1278.13 265.267C1266.57 264.369 1253.88 263.383 1243.74 267.694C1242.06 267.584 1240.43 267.471 1238.82 267.359C1226.35 266.492 1215.7 265.751 1201.41 268.124C1189.58 270.088 1173.84 269.252 1158.82 268.455C1155.06 268.255 1151.34 268.057 1147.74 267.907C1139.3 267.554 1130.93 266.872 1122.57 266.191C1103.37 264.626 1084.18 263.062 1064.07 265.483C1063.55 265.545 1062.91 265.445 1062.24 265.341C1061.74 265.263 1061.23 265.184 1060.75 265.167C1055.75 264.999 1050.75 264.812 1045.74 264.624C1033.43 264.163 1021.12 263.701 1008.77 263.532C1004.16 263.469 999.543 263.329 994.927 263.19C983.13 262.833 971.318 262.475 959.402 263.393C948.155 264.259 936.802 264.941 925.038 265.647C919.76 265.964 914.4 266.286 908.929 266.631C898.839 262.569 847.014 260.511 826.374 263.922L834.924 268.168L725.723 265.045C725.625 265.017 725.419 264.929 725.126 264.802C723.793 264.227 720.641 262.868 717.456 262.858C695.39 262.421 673.262 262.695 651.328 263.675C642.991 264.193 634.437 263.365 625.906 262.538C611.104 261.104 596.373 259.677 582.97 265.306C582.699 265.42 581.809 265.299 580.779 265.158C579.861 265.033 578.831 264.893 578.029 264.891C572.347 264.875 566.662 264.848 560.978 264.82C545.143 264.743 529.307 264.665 513.495 264.85C500.432 265.003 487.392 265.394 474.35 265.786C467.552 265.99 460.754 266.194 453.952 266.365C450.377 266.454 446.798 266.564 443.219 266.674C433.483 266.974 423.739 267.273 414.036 267.163C397.736 266.979 381.458 266.535 365.18 266.092C358.957 265.922 352.734 265.752 346.51 265.597C344.805 265.555 343.1 265.513 341.395 265.47C330.18 265.193 318.964 264.915 307.767 264.561C297.046 264.221 286.338 263.833 275.63 263.444C270.998 263.276 266.366 263.108 261.732 262.944L263.867 262.259L240.263 258.257L241.886 263.165C236.09 263.712 230.104 263.56 224.207 263.411C214.595 263.167 205.222 262.93 197.303 265.731ZM171.901 204.214C169.849 204.58 167.803 204.953 165.757 205.326C158.307 206.682 150.856 208.039 143.117 209.12C142.221 209.245 140.128 208.228 138.035 207.21C137.065 206.739 136.095 206.267 135.244 205.909L137.084 203.641L171.901 204.214ZM189.461 204.4C183.868 204.447 178.273 204.391 172.696 204.231C172.693 204.477 172.653 204.764 172.613 205.049C172.515 205.747 172.418 206.434 172.883 206.489C182.478 207.877 192.489 208.845 202.708 209.373C205.181 209.439 207.934 208.096 210.687 206.753C211.944 206.14 213.201 205.527 214.431 205.048L212.037 203.356C209.777 203.464 207.518 203.585 205.26 203.706C200.003 203.986 194.746 204.267 189.461 204.4ZM60.4827 210.443C63.598 212.495 66.2939 214.27 53.5215 214.874C54.387 215.071 55.4269 215.25 56.4669 215.428C58.7249 215.816 60.9827 216.204 61.4543 216.785C64.4464 220.639 66.8898 224.548 68.7748 228.495C68.9067 228.753 67.6163 229.108 65.8647 229.59C64.8901 229.858 63.7727 230.165 62.678 230.517C61.3016 229.631 60.0006 228.77 58.7333 227.931C55.6408 225.884 52.7496 223.971 49.4568 222.154C48.3083 221.521 46.2555 221.106 44.2027 220.691C43.266 220.501 42.3294 220.312 41.4786 220.102C40.9989 220.387 40.5172 220.671 40.0354 220.956C38.9798 221.579 37.9242 222.202 36.8904 222.83L36.8231 222.871C33.0982 225.134 29.3815 227.392 23.5384 228.066C22.3733 230.633 21.2081 233.2 20.056 235.737L18.0808 240.088C29.789 236.383 36.8666 239.065 44.3788 241.911C47.0824 242.935 49.8423 243.981 52.8946 244.758C54.2847 244.343 55.664 243.89 57.0485 243.436C64.9793 240.833 73.0796 238.175 84.3417 242.239C85.6541 242.713 86.1023 243.506 86.5526 244.303C86.7616 244.673 86.9711 245.044 87.2677 245.384C126.92 242.277 126.92 242.277 134.006 236.62C148.204 237.126 153.125 237.302 154.281 235.301C154.894 234.24 154.448 232.567 153.765 230.005L174.948 227.06C172.527 226.613 170.481 226.22 168.671 225.873C165.131 225.193 162.499 224.688 159.751 224.289C157.366 223.942 154.855 223.711 151.256 223.378C149.327 223.2 147.084 222.993 144.381 222.724C153.686 221.869 161.849 222.898 169.562 223.87C179.974 225.182 189.564 226.391 200.032 222.72L184.596 220.787L186.678 219.044L209.855 223.285L212.669 225.928L234.672 213.029C214.766 214.879 195.143 213.68 175.509 212.48C168.161 212.031 160.812 211.582 153.446 211.292C148.655 211.104 143.785 211.22 138.905 211.337C135.52 211.418 132.13 211.499 128.76 211.478C125.699 211.46 122.636 211.445 119.572 211.431C105.415 211.365 91.2417 211.299 77.191 210.803C73.0722 210.657 69.1494 209.772 64.6429 208.754C62.4 208.248 60.0125 207.709 57.3844 207.213C57.2013 208.282 58.8964 209.399 60.4827 210.443ZM241.633 212.257C241.918 212.252 242.402 212.453 242.887 212.654C243.129 212.754 243.37 212.854 243.587 212.928L241.633 212.257ZM88.5319 182.773L89.6233 180.562C85.4107 179.312 81.1979 178.062 76.9852 176.812L77.1568 177.988C74.1607 177.849 71.1071 177.619 68.0536 177.39C61.0939 176.868 54.1342 176.346 47.8536 176.883C37.9149 177.633 29.13 179.737 23.2818 182.766C17.1093 187.01 7.50021 188.733 -2.49111 190.524C-4.35842 190.859 -6.2391 191.196 -8.11318 191.552C-13.2604 192.771 -18.0559 194.177 -22.4261 195.749L-19.5796 197.409L29.5436 187.669C36.1593 189.298 42.8991 189.885 49.0089 184.983C56.8998 178.653 72.365 179.23 88.5319 182.773ZM297.874 223.633L304.055 219.001L323.264 221.955C323.775 219.708 324.282 217.477 324.922 214.657L344.144 216.736C341.531 213.738 328.819 211.836 319.808 213.036C318.616 213.195 317.376 213.464 316.155 213.729C314.037 214.189 311.98 214.635 310.345 214.468C284.395 211.809 263.232 215.959 241.956 220.862C250.669 223.231 258.853 223.58 267.376 220.429C280.222 215.681 284.741 216.081 289.61 221.913C290.07 222.464 292.429 222.803 294.787 223.141C295.879 223.298 296.971 223.455 297.874 223.633ZM34.5371 274.093C29.6659 275.258 24.4475 276.505 18.7645 277.899C20.78 278.114 22.7445 278.406 24.6212 278.685C28.4479 279.254 31.9094 279.769 34.6931 279.462C51.6241 277.598 68.1831 275.257 84.6111 272.847C85.8622 272.664 86.3153 271.754 86.7684 270.845C86.9785 270.423 87.1887 270.002 87.4784 269.653C83.5942 269.869 80.5427 268.955 77.4637 268.033C73.037 266.708 68.5534 265.366 61.4569 267.34C53.2797 269.614 44.6576 271.675 34.5371 274.093ZM237.234 207.996L241.165 209.458L265.662 205.763L265.083 207.013C270.687 207.959 276.714 208.526 282.872 208.687C284.46 208.629 285.671 207.19 287.049 205.552C287.729 204.744 288.45 203.888 289.277 203.124C276.11 202.85 262.906 202.924 249.768 203.347C246.521 203.532 243.775 204.892 241.03 206.251C239.781 206.87 238.531 207.488 237.234 207.996ZM317.656 206.723C312.539 204.221 306.783 201.407 297.319 206.269C314.792 210.982 331.186 208.887 347.397 206.815C354.087 205.96 360.745 205.109 367.436 204.742C357.14 203.041 347.677 204.25 338.043 205.481C331.687 206.293 325.256 207.114 318.463 207.116C318.196 206.987 317.927 206.855 317.656 206.723ZM112.946 261.807L114.29 258.925L88.0034 257.908C88.4242 258.152 88.2592 258.056 87.6234 257.687L84.6489 255.962C84.0344 256.571 83.3997 257.073 82.8733 257.489C81.9827 258.192 81.4021 258.651 81.7538 258.974C86.5169 263.35 93.9822 262.716 101.473 262.081C105.421 261.745 109.376 261.41 112.946 261.807Z" fill="white"/>
</g>
<defs>
<clipPath id="clip0_318_1270">
<rect width="2520" height="600" fill="white" transform="translate(2520 600) rotate(-180)"/>
</clipPath>
</defs>
</svg>
