<svg width="74" height="143" viewBox="0 0 74 143" fill="none" xmlns="http://www.w3.org/2000/svg">
<path d="M0.82019 30.001C4.07341 14.7248 20.5625 -5.47337 38.126 2.94419C38.3559 3.04349 38.5618 3.19105 38.7297 3.37684C38.8976 3.56263 39.0236 3.78235 39.0992 4.02109C51.1791 4.03394 63.2509 11.9616 69.1762 22.2002C73.7061 30.0277 74.0854 38.8322 73.8397 47.6674C73.639 54.8769 73.0186 63.0323 67.5309 68.3673C62.9528 72.8181 56.4821 73.8246 50.2716 73.9358C51.2929 76.7217 51.3406 79.7714 50.4068 82.5878C50.385 83.1054 50.3674 83.62 50.3719 84.1241C50.4005 87.3203 50.5449 90.5135 50.8544 93.6953C51.5303 100.371 52.8502 106.966 54.7957 113.387C54.9115 113.828 54.8721 114.295 54.6842 114.71C54.4963 115.125 54.1713 115.463 53.7638 115.666C50.8736 117.291 47.871 118.708 44.779 119.905C44.9519 122.667 44.7788 125.439 44.2637 128.158C43.7821 131.143 43.2742 134.716 41.3847 137.143C40.4663 138.323 37.9792 138.15 37.9957 136.326C38.0193 133.711 39.193 131.166 39.7081 128.597C40.1883 126.201 40.314 123.791 40.5586 121.385C38.1591 122.14 35.7178 122.755 33.247 123.227C29.8731 123.87 26.4555 124.256 23.0233 124.383C22.4836 124.402 21.9437 124.401 21.4039 124.407C22.0087 124.962 22.5202 125.61 22.9188 126.328C23.7258 127.796 24.4434 129.312 25.0679 130.867C26.2658 133.846 27.5059 137.41 27.3352 140.653C27.2268 142.712 24.1386 142.995 23.4707 141.118C22.466 138.294 22.1175 135.268 21.0795 132.422C20.4874 130.815 19.8016 129.244 19.0257 127.717C18.58 126.621 18.2025 125.498 17.8953 124.356C17.7664 124.35 17.6375 124.351 17.5088 124.345C15.9588 124.267 13.7243 123.696 12.0581 124.017C12.0552 124.101 12.0577 124.185 12.0544 124.268C11.9717 126.375 8.29809 126.981 7.86296 124.788C6.71447 118.998 6.71645 112.855 6.28807 106.971C5.81067 100.413 5.36663 93.8517 4.95596 87.2888C4.57222 80.9888 4.20815 74.6876 3.86372 68.3853C3.57691 63.1404 2.95339 57.7182 2.95863 52.4071C-0.0303116 45.3332 -0.776718 37.5126 0.82019 30.001ZM8.00091 66.0062C8.4339 72.5713 8.88815 79.135 9.36369 85.6972C9.82002 91.9959 10.2771 98.2944 10.7349 104.593C11.1001 109.574 11.8304 114.715 12.0331 119.773C13.6269 119.755 15.2203 119.836 16.8042 120.014C20.8299 120.261 24.87 120.123 28.8697 119.604C36.244 118.606 43.3929 116.353 50.0064 112.942C48.3193 106.888 47.1598 100.699 46.5408 94.4451C46.2018 91.0208 46.044 87.5809 46.0682 84.1399C46.0726 83.6634 46.0706 83.1851 46.0691 82.7068C44.2863 84.6907 42.7139 86.854 41.377 89.162C38.8224 93.9204 37.2518 99.1443 36.7589 104.523C36.4953 107.12 31.9895 107.141 32.2292 104.523C33.1399 94.5761 37.9872 81.5514 46.9998 75.9544C47.0227 75.2763 47.0811 74.6 47.1747 73.9281C46.8962 73.9227 46.6167 73.9182 46.3411 73.9109C37.6179 73.6835 28.5141 73.3244 20.3483 69.9363C19.5523 69.606 18.7858 69.2373 18.0333 68.851C20.1506 72.8876 21.7251 77.4634 23.2907 81.2935C26.2595 88.3116 28.7188 95.5344 30.6496 102.906C31.2717 105.411 27.2344 106.268 26.497 103.925C24.3543 97.1159 22.3131 90.3291 19.6983 83.6773C18.4408 80.4782 17.1013 77.3134 15.68 74.1828C14.229 70.9869 12.1862 67.8061 11.4711 64.3484C10.1102 63.1375 8.85372 61.8142 7.7149 60.3925C7.7985 62.2735 7.87836 64.1501 8.00091 66.0062ZM5.76468 47.1934C5.98918 47.2749 6.18741 47.4157 6.33837 47.6007C6.48933 47.7858 6.58737 48.0084 6.62208 48.2447C6.77302 49.0908 6.89571 49.9439 7.00556 50.8002C9.34785 56.6534 13.563 61.5659 18.9924 64.7702C25.645 68.6537 33.5896 69.4405 41.1261 69.8324C47.6393 70.171 55.2113 71.0109 61.2462 67.9986C68.0088 64.6229 69.1885 56.8067 69.4564 50.0065C69.7487 42.5827 69.902 34.6795 67.0397 27.6887C61.3528 13.7991 47.068 7.18135 32.7479 7.42668C32.5097 7.44336 32.2714 7.39472 32.0588 7.28604C31.8462 7.17737 31.6673 7.01276 31.5413 6.80993C31.4153 6.60709 31.347 6.3737 31.3438 6.13494C31.3406 5.89618 31.4026 5.6611 31.5232 5.45496C19.2916 4.52586 9.30058 16.8468 5.97335 27.9519C4.10034 34.2192 4.02803 40.8869 5.76468 47.1934Z" fill="#7100D2"/>
<path d="M21.5547 39.9658C21.5547 42.2419 19.3049 43.8919 16.5297 43.6511C13.7545 43.4103 11.5048 41.3698 11.5048 39.0936C11.5048 36.8174 14.1113 36.8014 16.5297 35.8947C18.8436 35.0272 21.5547 37.6896 21.5547 39.9658Z" fill="#7100D2"/>
<path d="M45.5556 33.584C45.8377 34.1622 46.2309 34.6792 46.7128 35.1054C47.1947 35.5316 47.7558 35.8588 48.3641 36.0681C48.9724 36.2775 49.616 36.365 50.2581 36.3257C50.9003 36.2863 51.5283 36.1209 52.1065 35.8388C52.6847 35.5567 53.2017 35.1635 53.6279 34.6817C54.0542 34.1998 54.3813 33.6387 54.5907 33.0304C54.8001 32.4221 54.8876 31.7784 54.8483 31.1363C54.8089 30.4942 54.6435 29.8661 54.3614 29.2879C53.1751 26.8562 51.2336 28.6725 48.5327 28.5135C45.9485 28.3613 44.3693 31.1523 45.5556 33.584Z" fill="#7100D2"/>
</svg>
