<svg width="200" height="127" viewBox="0 0 200 127" fill="none" xmlns="http://www.w3.org/2000/svg">
<path d="M191.179 26.2612C190.948 26.0466 190.674 25.884 190.375 25.7846C190.076 25.6852 189.759 25.6513 189.446 25.6851C183.314 11.772 168.066 1.87571 153.268 0.232574C141.954 -1.02361 131.617 2.99751 121.56 7.7546C113.354 11.6364 104.271 16.481 100.902 25.5061C98.0915 33.0351 100.208 41.001 103.225 48.2136C99.4976 48.4476 95.9593 49.9369 93.1867 52.439C92.6013 52.7265 92.0173 53.0071 91.4341 53.2572C87.7367 54.8428 83.984 56.2934 80.1608 57.5478C72.1261 60.1494 63.8586 61.9678 55.4738 62.9776C54.9075 63.0673 54.3893 63.3491 54.0062 63.7758C53.6232 64.2025 53.3987 64.748 53.3704 65.3207C52.8417 70.6493 52.8064 76.0154 53.2649 81.3506C53.0764 81.1457 52.8893 80.9451 52.6964 80.7312C50.4055 78.1279 47.8564 75.7636 45.0884 73.6747C41.8667 71.299 37.7886 68.668 35.3593 73.3418C31.9784 79.8465 30.8123 88.8207 29.6892 95.9781C28.8281 101.504 28.3027 107.077 28.1157 112.667C25.531 112.097 22.9059 111.728 20.2642 111.563C17.9308 111.453 15.5863 111.498 13.2571 111.308C12.0355 111.209 7.71293 110.877 6.21535 109.843C6.21154 109.539 6.14219 109.24 6.01205 108.965C5.8819 108.69 5.69402 108.447 5.46122 108.251C5.02479 107.841 4.48864 107.552 3.90607 107.414C3.3235 107.275 2.71477 107.291 2.14031 107.46C1.56066 107.587 1.03833 107.9 0.652551 108.351C0.266775 108.802 0.0386062 109.367 0.00261445 109.959C-0.162707 114.568 7.55539 116.014 10.9332 116.441C14.0314 116.833 17.1505 116.762 20.2642 116.898C22.8799 117.069 25.4763 117.462 28.0253 118.074C28.0275 118.966 28.0339 119.858 28.0521 120.751C28.1204 124.101 33.892 124.106 33.8236 120.751C33.8131 120.237 33.8226 119.724 33.8176 119.21C40.6595 120.179 47.589 120.371 54.474 119.782C57.4879 119.574 60.94 119.815 63.5685 118.763C62.7197 120.5 63.8983 123.32 66.1017 122.832C73.3556 121.223 80.4329 118.11 87.4298 115.624C95.2293 112.853 103.014 110.043 110.785 107.193C116.33 105.149 121.868 103.087 127.4 101.009C127.665 102.612 127.79 104.426 127.959 105.188C128.323 106.83 128.696 108.469 129.066 110.109C125.019 110.054 120.989 110.65 117.131 111.875C113.251 113.136 107.824 114.939 105.929 118.802C105.107 120.478 106.605 121.829 108.29 121.535C112.26 120.843 115.61 117.966 119.505 116.752C123.73 115.461 128.159 114.976 132.563 115.32C132.971 115.346 133.38 115.276 133.756 115.117C134.133 114.958 134.467 114.713 134.733 114.402C134.999 114.092 135.189 113.723 135.289 113.327C135.388 112.93 135.394 112.516 135.305 112.116C134.299 107.937 133.641 103.313 132.139 99.2446C132.466 99.1219 132.794 99.0022 133.12 98.8794C137.671 97.1697 142.423 95.6192 147.052 93.8478C150.819 100.537 155.048 106.956 159.709 113.057C155.96 113.656 152.267 114.566 148.667 115.775C142.909 117.467 136.251 118.604 130.998 121.528C130.516 121.792 130.14 122.213 129.933 122.721C129.725 123.23 129.699 123.794 129.859 124.319C130.019 124.845 130.355 125.299 130.81 125.606C131.266 125.912 131.813 126.053 132.36 126.004C143.448 125.103 153.78 117.57 165.059 118.194C166.936 118.298 168.916 116.038 167.574 114.294C161.993 107.043 157.167 99.3143 151.855 91.8889C151.9 91.8693 151.946 91.8512 151.991 91.8314C161.655 91.6936 171.045 88.5935 178.892 82.9498C194.848 71.4656 209.773 42.2374 191.179 26.2612ZM61.0353 114.315C58.2203 114.428 55.4111 114.654 52.5959 114.767C46.3388 115.175 40.0556 114.868 33.8682 113.851C34.1316 103.49 35.5954 93.1936 38.2302 83.1694C38.6499 81.5854 40.0245 78.9152 40.5165 76.8154C40.811 77.016 41.1178 77.1982 41.4019 77.4145C42.7301 78.3468 44.0042 79.354 45.2179 80.4311C48.3226 83.201 50.5384 86.4717 54.1628 88.3218C54.4206 89.8165 54.7045 91.308 55.0468 92.7909C56.0152 97.0039 57.3006 101.138 58.8921 105.157C59.7468 107.309 60.6923 109.421 61.7284 111.492C62.1558 112.346 62.8015 113.329 63.4058 114.354C62.5191 114.368 61.5214 114.295 61.0353 114.315ZM133.767 92.9075C125.983 95.7327 118.189 98.5329 110.387 101.308C102.898 103.971 95.4084 106.634 87.9187 109.296C81.9936 111.398 75.7006 113.159 69.7689 115.487C68.9828 113.641 68.0832 111.846 67.0753 110.111C64.7526 105.597 62.8653 100.872 61.4388 96.0001C58.854 86.9976 57.8305 77.6188 58.4126 68.2707C66.2428 67.1492 73.9612 65.3516 81.4812 62.898C85.5987 61.5547 89.6424 59.9947 93.5952 58.2244C96.7663 56.7961 100.125 55.6037 102.463 53.0536C103.265 52.6711 104.046 52.2454 104.802 51.7785C104.949 52.0965 105.096 52.4165 105.244 52.7304C109.923 62.667 114.947 72.9756 122.986 80.6693C127.865 85.3342 133.851 88.681 140.381 90.3944C138.171 91.2503 135.968 92.1086 133.767 92.9075ZM178.644 75.9742C172.37 81.306 164.724 84.7656 156.578 85.9579C156.37 85.7404 156.107 85.5833 155.818 85.5031C155.528 85.4229 155.222 85.4226 154.932 85.5023C153.88 85.7567 152.835 86.0474 151.793 86.3545C143.862 86.6193 136.067 84.2496 129.625 79.6158C121.782 73.9165 116.852 65.1602 112.584 56.6743C108.896 49.3405 104.094 41.0406 104.509 32.5614C104.975 23.0593 113.384 17.7421 121.084 13.9899C129.491 9.89398 138.52 5.71534 148.025 5.47365C166.91 4.99336 181.769 18.1029 188.737 34.7283C188.839 35.0113 189.016 35.2612 189.248 35.4511C189.481 35.6411 189.762 35.7639 190.059 35.8064C190.357 35.8488 190.66 35.8093 190.937 35.6921C191.214 35.5749 191.453 35.3844 191.63 35.1411C198.894 48.7653 189.756 66.5169 178.644 75.9742Z" fill="#1A1A1A"/>
<path d="M158.233 59.7777C160.594 58.1557 160.703 54.6458 158.475 51.9381C156.248 49.2305 152.528 48.3504 150.166 49.9724C147.805 51.5945 150.578 53.6694 151.361 56.8245C152.11 59.8434 155.871 61.3998 158.233 59.7777Z" fill="#1A1A1A"/>
<path d="M147.699 31.6869C150.06 30.0649 150.169 26.555 147.941 23.8473C145.714 21.1396 141.994 20.2596 139.632 21.8816C137.27 23.5037 140.044 25.5786 140.827 28.7337C141.576 31.7526 145.337 33.3089 147.699 31.6869Z" fill="#1A1A1A"/>
</svg>
