<svg width="113" height="92" viewBox="0 0 113 92" fill="none" xmlns="http://www.w3.org/2000/svg">
<path d="M109.402 17.3239C105.512 19.1486 102.26 22.8822 99.4725 26.0587C98.2369 27.467 96.9461 28.9045 95.6844 30.3764C96.4448 27.8052 96.7152 25.114 96.4815 22.4429C95.6978 13.6006 87.7859 1.07044 77.2976 4.61015C77.1611 4.65033 77.0348 4.71939 76.9273 4.81265C76.8198 4.90591 76.7336 5.0212 76.6745 5.15069C69.8587 4.32627 62.5024 7.96761 58.4547 13.336C57.3833 14.7723 56.5283 16.358 55.9169 18.0423C55.013 14.885 52.8521 11.9627 50.7415 9.61209C49.9699 8.75281 47.987 9.42615 48.6687 10.6824C50.0873 13.2963 51.3452 16.1057 53.1359 18.4883C53.2433 18.6061 53.3822 18.6906 53.5363 18.7316C53.6903 18.7726 53.8528 18.7685 54.0046 18.7198C54.3503 19.4676 54.6526 20.2348 54.9098 21.0175C54.9294 21.0737 54.9571 21.1266 54.9921 21.1747C54.5494 23.2216 54.2415 25.2953 54.0704 27.3825C53.6872 31.4637 53.4758 36.1073 56.2044 39.495C58.4808 42.3211 62.062 43.3344 65.5581 43.8247C64.7901 45.3261 64.5533 47.0433 64.8861 48.6966C64.8629 48.9901 64.8374 49.2816 64.8001 49.5657C64.5639 51.3669 64.2627 53.1584 63.8689 54.9322C63.028 58.6518 61.8294 62.2814 60.2897 65.7703C60.1941 66.0109 60.1841 66.2771 60.2616 66.5242C60.339 66.7712 60.4991 66.9841 60.715 67.1271C61.546 67.7382 62.3981 68.3158 63.2714 68.8598C61.7672 70.9401 61.6396 74.4048 61.4904 76.8173C61.3139 79.6705 61.2919 82.8647 62.2331 85.5858C62.5099 86.3861 64.1814 86.308 64.1619 85.37C64.1013 82.4508 63.5661 79.6369 63.7769 76.6859C63.8803 75.3025 64.0592 73.9257 64.3126 72.5618C64.5389 71.6453 64.7129 70.7166 64.8338 69.7804C67.0376 71.0202 69.3612 72.0336 71.7692 72.8051C73.6284 73.3998 75.5299 73.853 77.4575 74.161C77.8451 74.2226 78.2342 74.2715 78.6233 74.3206C77.6827 75.9761 77.4203 78.1714 77.0966 79.9766C76.598 82.386 76.3816 84.8452 76.4517 87.3046C76.5153 88.4235 78.4608 88.4044 78.6117 87.3159C78.9372 84.969 79.0264 82.6122 79.4493 80.2725C79.7862 78.4085 80.5989 76.4247 80.6115 74.5208C81.4903 74.5764 82.7641 74.4178 83.6689 74.7097C83.6647 74.7568 83.6575 74.8041 83.6537 74.8512C83.5552 76.046 85.586 76.6407 85.9824 75.4334C87.029 72.2458 87.4508 68.7801 88.0975 65.4902C88.8185 61.8228 89.5207 58.152 90.2042 54.4778C90.8544 50.95 91.4936 47.4202 92.1219 43.8883C92.5163 41.6708 93.0255 39.4095 93.4077 37.1457C96.2187 34.2389 98.5615 30.7661 101.203 27.7231C102.554 26.1678 103.95 24.6468 105.441 23.2243C107.103 21.6377 109.01 20.3458 110.667 18.7711C111.44 18.0375 110.193 16.9532 109.402 17.3239ZM89.9516 42.2613C89.2553 45.9353 88.5472 49.607 87.8271 53.2765C87.136 56.7985 86.4445 60.3204 85.7526 63.8422C85.2036 66.6275 84.4378 69.4772 83.9751 72.3171C83.0772 72.1971 82.1727 72.1328 81.2669 72.1245C78.9787 71.9865 76.7089 71.6308 74.4882 71.0623C70.3966 69.9919 66.5185 68.2285 63.0224 65.8486C64.3909 62.5493 65.4711 59.1378 66.2509 55.6522C66.6779 53.7436 67.0037 51.8138 67.227 49.8709C67.403 48.3104 67.7138 46.7311 67.2619 45.2359C67.2983 44.8362 67.3129 44.4349 67.3058 44.0336C67.4632 44.0497 67.6213 44.0664 67.7773 44.0813C72.7142 44.5535 77.875 44.9777 82.715 43.6284C85.6508 42.8084 88.3297 41.2548 90.4994 39.114C90.3227 40.1694 90.1485 41.2226 89.9516 42.2613ZM92.5084 31.8018C92.3761 31.8323 92.2546 31.8981 92.1567 31.9921C92.0588 32.0861 91.9882 32.2049 91.9523 32.3358C91.8088 32.8028 91.6809 33.2757 91.56 33.7512C89.8356 36.8921 87.1193 39.3733 83.8356 40.8073C79.8152 42.5402 75.279 42.4371 71.0002 42.1394C67.3024 41.882 62.9727 41.8346 59.7755 39.7196C56.1926 37.3496 56.0652 32.8588 56.3823 29.0039C56.7284 24.7956 57.1861 20.3263 59.2821 16.5795C63.4467 9.13495 71.9612 6.38493 80.0232 7.50923C80.1565 7.53504 80.2942 7.524 80.4216 7.47733C80.5491 7.43065 80.6614 7.35009 80.7464 7.24433C80.8315 7.13857 80.886 7.01162 80.9043 6.87714C80.9225 6.74266 80.9037 6.60575 80.8499 6.48116C87.8145 6.79911 92.6028 14.4379 93.7154 20.9321C94.3405 24.5968 93.9223 28.3635 92.5084 31.8018Z" fill="#1D1D1B"/>
<path d="M71.1003 16.8396C71.0073 17.5715 70.6276 18.2366 70.0446 18.6888C69.4615 19.141 68.7229 19.3433 67.9908 19.2512C67.2588 19.1591 66.5932 18.7803 66.1403 18.1978C65.6873 17.6153 65.4841 16.8769 65.5753 16.1447C65.7671 14.619 67.1448 15.2397 68.5684 14.6585C69.9306 14.1024 71.2922 15.3139 71.1003 16.8396Z" fill="#1D1D1B"/>
<path d="M80.7813 22.4785C80.6199 23.7621 81.7715 24.852 83.3536 24.913C84.9356 24.974 86.3489 23.983 86.5104 22.6994C86.6718 21.4159 85.1393 21.7291 83.8399 21.0463C82.5966 20.393 80.9427 21.195 80.7813 22.4785Z" fill="#1D1D1B"/>
<path d="M47.465 44.5139C49.2978 38.0219 47.0641 26.9842 38.6583 26.6642C38.5504 26.6559 38.4421 26.6708 38.3405 26.708C38.2389 26.7452 38.1466 26.8038 38.0696 26.8798C33.4514 24.4525 27.2426 25.051 22.917 27.7701C19.6102 29.8489 17.6924 33.1367 16.0074 36.5621C14.6325 39.3572 13.2275 42.5983 14.2502 45.7417C14.9871 48.007 16.7817 49.5738 18.7718 50.7921C17.497 50.9015 16.235 51.1282 15.0019 51.4693C14.4362 51.6286 13.8784 51.8138 13.3284 52.0251C12.9436 52.1727 12.3827 52.5477 11.8853 52.7648C10.2217 50.4123 7.66752 48.5401 7.15542 45.6026C6.9346 44.5395 5.09529 44.6769 5.26349 45.8221C5.33515 46.3004 5.45682 46.7698 5.62651 47.2227C5.96739 48.4004 6.43106 49.539 7.00988 50.6198C7.68015 51.8571 8.64253 53.667 9.88277 54.4147C10.2332 54.6287 10.6428 54.7253 11.0519 54.6905C11.1897 54.7708 11.3426 54.8216 11.5011 54.8396C11.6596 54.8577 11.82 54.8425 11.9723 54.7951C14.1643 54.1954 16.7024 53.7211 18.6262 52.4649C18.6804 52.4588 18.7343 52.4512 18.7887 52.4455C18.337 53.0947 18.043 53.8404 17.93 54.6232C17.8342 54.8254 17.7372 55.0255 17.634 55.2172C16.9796 56.4327 16.2815 57.6238 15.5225 58.7772C13.929 61.1786 12.108 63.421 10.0848 65.4735C9.37223 64.9463 8.70889 64.3557 8.10289 63.7089C7.2964 62.7652 6.73652 61.8692 5.54452 61.402C5.41551 61.3467 5.27595 61.3205 5.1357 61.3252C4.99545 61.3298 4.85792 61.3652 4.73285 61.4288C4.60778 61.4925 4.49821 61.5828 4.41189 61.6934C4.32557 61.8041 4.26461 61.9323 4.2333 62.0691C4.03132 62.9471 3.32784 63.6667 2.88881 64.4384C2.44064 65.2357 2.10008 66.0889 1.87604 66.9757C1.50348 68.4112 1.26677 70.1443 1.90917 71.5221C2.206 72.1588 3.27656 72.0643 3.39784 71.3555C3.70689 69.5496 3.40796 67.9431 4.15523 66.1664C4.55897 65.2064 5.20746 64.4077 5.67589 63.5129C6.49173 64.2296 7.16046 65.3577 7.91014 66.0045C8.73358 66.7149 9.57251 67.3207 10.6297 67.5412C12.2192 69.8257 14.1305 71.8685 16.3042 73.6064C17.464 74.5311 18.6921 75.3669 19.9779 76.1065C20.6671 76.5019 21.372 76.8671 22.0927 77.2023C22.2633 77.2815 22.4633 77.357 22.6739 77.4343C22.5993 77.5295 22.5578 77.6465 22.5559 77.7675C22.554 77.8885 22.5918 78.0067 22.6634 78.1042C23.9317 80.3475 25.8541 82.308 27.5616 84.2243C27.6846 84.3648 27.8434 84.4693 28.0211 84.5266C28.1988 84.5839 28.3888 84.5918 28.5707 84.5496C28.7526 84.5074 28.9196 84.4166 29.0539 84.2869C29.1882 84.1571 29.2848 83.9934 29.3333 83.8131C29.6293 82.6952 31.3669 81.5606 32.1554 80.809C32.6383 80.3485 33.1213 79.8881 33.6042 79.4277C33.8315 79.211 34.5069 78.3317 34.8713 78.1056C35.0877 78.1266 35.3042 78.0663 35.4787 77.9366C35.6532 77.8068 35.7732 77.6169 35.8154 77.4036L35.8383 77.2933C35.9466 76.7693 35.4087 76.3574 34.9581 76.2865C33.4955 76.0564 32.1664 78.1162 31.2521 78.9932C30.2793 79.9263 28.978 80.8642 28.1255 82.0104C27.3393 81.0809 26.5716 80.125 25.7731 79.2049C27.3361 77.2464 28.554 74.9463 29.8782 72.8231C31.3812 70.4131 32.8718 67.9957 34.3501 65.5707C34.4627 65.3854 34.5736 65.1991 34.6861 65.0137C37.5143 64.7112 40.3283 64.261 43.1492 63.8999C43.2829 63.892 43.4127 63.8521 43.5276 63.7835C43.6426 63.7149 43.7394 63.6197 43.8098 63.5058C43.8802 63.3919 43.9222 63.2628 43.9322 63.1293C43.9423 62.9958 43.92 62.8618 43.8674 62.7387C43.1901 61.1997 42.6311 59.6113 42.1953 57.9873C41.8764 56.7797 41.837 55.4587 41.1315 54.4236C41.4816 53.8363 41.8213 53.2444 42.1366 52.6446C44.7029 50.5435 46.5628 47.7056 47.465 44.5139ZM33.5177 63.2164C32.1824 63.2954 30.8579 62.9358 29.746 62.1924C28.7564 61.5216 27.558 62.7613 28.55 63.5946C29.6285 64.4849 30.9649 65.0048 32.3616 65.0775C31.1275 67.0583 29.8929 69.0388 28.6579 71.019C27.5154 72.8488 26.2014 74.666 25.1054 76.558C24.5001 76.2301 23.8751 75.94 23.2339 75.6894C21.646 74.9731 20.13 74.1071 18.7063 73.1032C16.0894 71.2373 13.8116 68.937 11.9715 66.3019C13.835 64.3284 15.5241 62.1972 17.0198 59.9322C17.8388 58.6921 18.5917 57.4095 19.2753 56.0898C19.8219 55.029 20.4694 53.9913 20.5525 52.8072C20.6863 52.5332 20.8052 52.252 20.9086 51.9651C21.0161 52.0191 21.1239 52.0736 21.2306 52.1264C24.6094 53.7958 28.1603 55.4917 31.9626 55.8412C34.2694 56.052 36.5919 55.6725 38.7115 54.7382C38.3007 55.4401 37.8924 56.1411 37.4719 56.8256C36.1607 58.9601 34.8427 61.0904 33.5177 63.2164ZM41.7044 62.3484C39.8558 62.5577 38.0058 62.7544 36.1582 62.974C36.0706 62.9844 35.9841 62.9949 35.8973 63.0054C36.7906 61.5269 37.6828 60.0476 38.5736 58.5676C38.9926 57.8681 39.4329 57.1683 39.8746 56.4648C40.038 57.2425 40.2405 58.0114 40.4813 58.7687C40.8236 59.9833 41.2319 61.1783 41.7044 62.3484ZM41.5749 50.3166C41.3468 50.6095 41.1282 50.9107 40.9138 51.2159C38.8403 52.9807 36.2406 54.0091 33.5208 54.1402C30.197 54.2846 27.003 52.9857 24.0444 51.618C21.4875 50.436 18.4252 49.2324 16.7258 46.8662C14.8215 44.2147 15.9445 40.9907 17.2113 38.3384C18.5944 35.443 20.1271 32.3923 22.6283 30.2975C27.5979 26.1353 34.3885 26.4828 39.8107 29.4598C39.8984 29.5142 39.9992 29.5436 40.1023 29.5448C40.2054 29.5461 40.307 29.5192 40.3959 29.4671C40.4849 29.415 40.558 29.3395 40.6073 29.249C40.6566 29.1584 40.6802 29.0561 40.6757 28.953C45.5365 31.0608 46.8732 37.7802 45.9086 42.6934C45.3624 45.4652 44.0475 48.0275 42.1142 50.0875C42.012 50.0735 41.9079 50.0873 41.8129 50.1277C41.718 50.168 41.6357 50.2333 41.5749 50.3166Z" fill="#1D1D1B"/>
<path d="M28.7788 36.8249C28.633 37.9843 27.797 37.0395 26.6376 36.8937C25.4782 36.7479 24.5802 36.2969 24.726 35.1374C24.8718 33.978 25.9187 34.4497 27.0005 34.008C28.0356 33.5854 28.9246 35.6655 28.7788 36.8249Z" fill="#1D1D1B"/>
<path d="M33.9674 39.462C33.8447 40.4374 34.984 40.5194 36.0833 40.0305C38.4006 38.9999 38.1984 40.6052 38.3211 39.6298C38.4437 38.6544 37.4602 37.4525 36.4728 36.9336C35.528 36.4371 34.0901 38.4866 33.9674 39.462Z" fill="#1D1D1B"/>
</svg>
