<svg width="155" height="124" viewBox="0 0 155 124" fill="none" xmlns="http://www.w3.org/2000/svg">
<path d="M150.18 23.571C144.84 26.0296 140.375 31.0603 136.549 35.3404C134.853 37.2379 133.081 39.1749 131.349 41.1581C132.393 37.6936 132.764 34.0675 132.444 30.4685C131.368 18.5542 120.507 1.67079 106.109 6.44025C105.922 6.49439 105.748 6.58744 105.601 6.71311C105.453 6.83877 105.335 6.9941 105.254 7.16858C95.8976 6.05775 85.7994 10.9642 80.243 18.1976C78.7723 20.1329 77.5986 22.2695 76.7593 24.539C75.5184 20.2847 72.5521 16.3472 69.6548 13.1799C68.5957 12.0221 65.8737 12.9294 66.8095 14.6221C68.7568 18.1441 70.4836 21.9296 72.9418 25.1399C73.0892 25.2986 73.2799 25.4124 73.4913 25.4677C73.7027 25.523 73.9259 25.5175 74.1342 25.4518C74.6088 26.4595 75.0237 27.4932 75.3769 28.5478C75.4037 28.6235 75.4417 28.6948 75.4898 28.7596C74.8821 31.5176 74.4594 34.3118 74.2245 37.1241C73.6985 42.6231 73.4083 48.8801 77.154 53.4447C80.2788 57.2527 85.1949 58.618 89.994 59.2786C88.9398 61.3016 88.6147 63.6155 89.0716 65.8431C89.0397 66.2386 89.0047 66.6314 88.9535 67.0141C88.6294 69.4411 88.2158 71.855 87.6753 74.245C86.521 79.257 84.8756 84.1476 82.762 88.8485C82.6307 89.1727 82.617 89.5314 82.7233 89.8643C82.8296 90.1972 83.0494 90.484 83.3458 90.6766C84.4865 91.5001 85.6563 92.2784 86.855 93.0114C84.7901 95.8144 84.6151 100.483 84.4102 103.733C84.1679 107.578 84.1377 111.882 85.4298 115.548C85.8097 116.627 88.1042 116.521 88.0774 115.258C87.9943 111.324 87.2596 107.533 87.549 103.556C87.6909 101.692 87.9364 99.8373 88.2844 97.9995C88.5949 96.7645 88.8338 95.5133 88.9998 94.2517C92.025 95.9223 95.2147 97.2878 98.5203 98.3273C101.072 99.1286 103.683 99.7393 106.329 100.154C106.861 100.237 107.395 100.303 107.929 100.369C106.638 102.6 106.278 105.558 105.833 107.99C105.149 111.237 104.852 114.55 104.948 117.864C105.035 119.372 107.706 119.346 107.913 117.879C108.36 114.717 108.482 111.542 109.063 108.389C109.525 105.877 110.641 103.204 110.658 100.639C111.865 100.714 113.613 100.5 114.855 100.894C114.85 100.957 114.84 101.021 114.834 101.084C114.699 102.694 117.487 103.496 118.031 101.869C119.468 97.5737 120.047 92.904 120.935 88.4711C121.924 83.5296 122.888 78.5835 123.827 73.6328C124.719 68.8794 125.597 64.1232 126.459 59.3643C127 56.3764 127.699 53.3294 128.224 50.2792C132.083 46.3625 135.299 41.6832 138.926 37.583C140.779 35.4874 142.696 33.4379 144.742 31.5213C147.025 29.3835 149.642 27.6427 151.917 25.5209C152.977 24.5325 151.265 23.0715 150.18 23.571ZM123.48 57.1721C122.524 62.1224 121.552 67.0698 120.563 72.0141C119.615 76.7597 118.665 81.5052 117.716 86.2506C116.962 90.0034 115.911 93.8432 115.276 97.6698C114.043 97.5081 112.801 97.4214 111.558 97.4103C108.417 97.2243 105.301 96.7451 102.253 95.979C96.636 94.5367 91.3125 92.1607 86.5132 88.954C88.3918 84.5085 89.8747 79.9117 90.9451 75.2151C91.5313 72.6435 91.9785 70.0433 92.285 67.4253C92.5266 65.3227 92.9532 63.1948 92.333 61.1801C92.3829 60.6416 92.403 60.1008 92.3932 59.5601C92.6093 59.5818 92.8263 59.6043 93.0404 59.6244C99.8175 60.2607 106.902 60.8322 113.546 59.0142C117.576 57.9092 121.253 55.8159 124.232 52.9313C123.989 54.3533 123.75 55.7725 123.48 57.1721ZM126.99 43.0787C126.808 43.1198 126.641 43.2085 126.507 43.3351C126.372 43.4618 126.275 43.6219 126.226 43.7983C126.029 44.4275 125.854 45.0647 125.688 45.7054C123.321 49.9375 119.592 53.2808 115.084 55.2129C109.565 57.5478 103.338 57.409 97.4646 57.0078C92.3885 56.661 86.445 56.597 82.0561 53.7473C77.1378 50.554 76.9628 44.503 77.3981 39.3088C77.8733 33.6385 78.5015 27.6165 81.3788 22.5679C87.0957 12.537 98.7838 8.83162 109.851 10.3465C110.034 10.3813 110.223 10.3664 110.398 10.3035C110.573 10.2406 110.727 10.1321 110.844 9.9896C110.96 9.84709 111.035 9.67603 111.06 9.49483C111.085 9.31363 111.059 9.12916 110.986 8.96129C120.546 9.3897 127.119 19.6824 128.646 28.4327C129.505 33.3706 128.93 38.4459 126.99 43.0787Z" fill="#F9DC1C"/>
<path d="M97.6021 22.918C97.4745 23.9042 96.9532 24.8003 96.1529 25.4096C95.3525 26.0189 94.3385 26.2914 93.3336 26.1673C92.3287 26.0433 91.415 25.5328 90.7933 24.748C90.1715 23.9632 89.8926 22.9683 90.0177 21.9818C90.2811 19.9261 92.1722 20.7623 94.1265 19.9792C95.9963 19.2299 97.8655 20.8623 97.6021 22.918Z" fill="#F9DC1C"/>
<path d="M110.891 30.5158C110.67 32.2454 112.251 33.7141 114.422 33.7963C116.594 33.8785 118.534 32.543 118.756 30.8135C118.977 29.084 116.874 29.506 115.09 28.586C113.383 27.7057 111.113 28.7863 110.891 30.5158Z" fill="#F9DC1C"/>
<path d="M65.1565 60.2073C67.6724 51.4598 64.6062 36.5876 53.0673 36.1564C52.9192 36.1451 52.7705 36.1652 52.631 36.2153C52.4916 36.2655 52.3648 36.3444 52.2592 36.4469C45.9196 33.1763 37.3966 33.9827 31.4588 37.6465C26.9194 40.4475 24.2868 44.8775 21.9738 49.4929C20.0863 53.2591 18.1577 57.6262 19.5615 61.8617C20.5732 64.914 23.0366 67.0251 25.7685 68.6667C24.0185 68.8141 22.2862 69.1195 20.5934 69.5792C19.8169 69.7938 19.0511 70.0433 18.2962 70.3279C17.7679 70.5269 16.998 71.0321 16.3151 71.3247C14.0315 68.1549 10.5253 65.6323 9.82235 61.6743C9.51922 60.2419 6.99435 60.4269 7.22524 61.97C7.32361 62.6145 7.49063 63.247 7.72357 63.8572C8.19151 65.444 8.828 66.9782 9.62257 68.4345C10.5427 70.1017 11.8638 72.5403 13.5663 73.5478C14.0473 73.8362 14.6096 73.9664 15.1712 73.9194C15.3603 74.0276 15.5703 74.0961 15.7878 74.1204C16.0053 74.1446 16.2256 74.1242 16.4346 74.0604C19.4437 73.2524 22.9278 72.6133 25.5686 70.9206C25.6431 70.9123 25.7171 70.9022 25.7917 70.8944C25.1716 71.7692 24.768 72.7739 24.6129 73.8287C24.4814 74.1012 24.3483 74.3708 24.2066 74.6291C23.3083 76.2669 22.35 77.8717 21.3081 79.4259C19.1206 82.6615 16.6209 85.683 13.8436 88.4486C12.8654 87.7383 11.9549 86.9425 11.123 86.071C10.0159 84.7994 9.24731 83.592 7.61102 82.9625C7.43393 82.8881 7.24235 82.8528 7.04982 82.859C6.85729 82.8653 6.66851 82.913 6.49682 82.9987C6.32513 83.0845 6.17472 83.2062 6.05623 83.3552C5.93773 83.5043 5.85405 83.6771 5.81108 83.8615C5.53381 85.0445 4.56812 86.0141 3.96545 87.0538C3.35023 88.1282 2.88273 89.2778 2.57519 90.4726C2.06376 92.4068 1.73882 94.742 2.62067 96.5986C3.02813 97.4564 4.49772 97.3292 4.66421 96.3741C5.08845 93.9408 4.6781 91.7761 5.7039 89.3822C6.25812 88.0887 7.14833 87.0125 7.79136 85.8068C8.91129 86.7725 9.82927 88.2926 10.8584 89.164C11.9887 90.1212 13.1404 90.9375 14.5916 91.2347C16.7736 94.3128 19.3972 97.0653 22.3812 99.407C23.9733 100.653 25.6591 101.779 27.4242 102.776C28.3702 103.308 29.3379 103.801 30.3273 104.252C30.5613 104.359 30.8359 104.461 31.125 104.565C31.0226 104.693 30.9657 104.851 30.9631 105.014C30.9605 105.177 31.0123 105.336 31.1106 105.467C32.8517 108.49 35.4905 111.132 37.8345 113.714C38.0033 113.903 38.2214 114.044 38.4653 114.121C38.7093 114.198 38.97 114.209 39.2197 114.152C39.4694 114.095 39.6987 113.973 39.883 113.798C40.0674 113.623 40.2 113.403 40.2666 113.16C40.6729 111.653 43.0582 110.125 44.1406 109.112C44.8035 108.491 45.4664 107.871 46.1294 107.251C46.4414 106.959 47.3685 105.774 47.8688 105.469C48.1659 105.497 48.463 105.416 48.7025 105.242C48.9421 105.067 49.1068 104.811 49.1648 104.523L49.1961 104.375C49.3449 103.669 48.6065 103.114 47.9879 103.018C45.9802 102.708 44.1557 105.484 42.9006 106.665C41.5652 107.922 39.7788 109.186 38.6086 110.731C37.5294 109.478 36.4756 108.19 35.3794 106.95C37.525 104.312 39.1968 101.212 41.0146 98.3515C43.0778 95.1043 45.1241 91.847 47.1534 88.5795C47.3079 88.3299 47.4601 88.0788 47.6145 87.829C51.4969 87.4215 55.3598 86.8148 59.2321 86.3283C59.4156 86.3177 59.5938 86.2639 59.7516 86.1715C59.9094 86.079 60.0423 85.9507 60.1389 85.7973C60.2356 85.6438 60.2932 85.4698 60.307 85.2899C60.3208 85.1101 60.2902 84.9296 60.218 84.7637C59.2883 82.69 58.521 80.5498 57.9226 78.3616C57.4848 76.7344 57.4308 74.9544 56.4623 73.5598C56.943 72.7685 57.4092 71.971 57.8421 71.1628C61.365 68.3317 63.918 64.5078 65.1565 60.2073ZM46.0107 85.4073C44.1777 85.5138 42.3595 85.0293 40.8331 84.0275C39.4747 83.1237 37.8297 84.7941 39.1913 85.9169C40.6719 87.1166 42.5063 87.8171 44.4236 87.915C42.7295 90.584 41.0348 93.2525 39.3395 95.9206C37.7711 98.3862 35.9673 100.835 34.4629 103.384C33.632 102.942 32.7739 102.551 31.8938 102.214C29.714 101.248 27.6329 100.082 25.6786 98.7289C22.0864 96.2148 18.9594 93.1153 16.4335 89.5648C18.9916 86.9056 21.3103 84.0341 23.3635 80.9822C24.4878 79.3112 25.5213 77.583 26.4597 75.8049C27.2101 74.3754 28.0989 72.9773 28.213 71.3818C28.3967 71.0126 28.5598 70.6338 28.7017 70.2472C28.8493 70.3199 28.9972 70.3934 29.1437 70.4645C33.782 72.7139 38.6564 74.9989 43.876 75.4698C47.0425 75.7539 50.2306 75.2425 53.1403 73.9837C52.5764 74.9294 52.0159 75.8739 51.4387 76.7963C49.6388 79.6724 47.8295 82.5427 46.0107 85.4073ZM57.2488 84.2378C54.7111 84.5198 52.1715 84.7848 49.6354 85.0807C49.5151 85.0948 49.3964 85.1089 49.2772 85.123C50.5035 83.1308 51.7281 81.1377 52.9511 79.1435C53.5262 78.2009 54.1307 77.258 54.7369 76.3101C54.9612 77.358 55.2392 78.394 55.5697 79.4144C56.0396 81.051 56.6001 82.6612 57.2488 84.2378ZM57.071 68.0259C56.7579 68.4206 56.4578 68.8265 56.1635 69.2376C53.3171 71.6156 49.7484 73.0012 46.0149 73.178C41.4523 73.3725 37.0677 71.6223 33.0064 69.7794C29.4965 68.1868 25.2927 66.565 22.9599 63.3769C20.3458 59.8042 21.8873 55.4601 23.6264 51.8864C25.5249 47.985 27.6289 43.8745 31.0624 41.0519C37.8843 35.4436 47.206 35.912 54.6493 39.9233C54.7696 39.9965 54.908 40.0361 55.0496 40.0378C55.1911 40.0395 55.3305 40.0033 55.4526 39.933C55.5748 39.8628 55.6751 39.7612 55.7427 39.6391C55.8104 39.517 55.8429 39.3792 55.8366 39.2403C62.5092 42.0804 64.3442 51.1342 63.02 57.7543C62.2702 61.4891 60.4652 64.9416 57.8112 67.7173C57.671 67.6984 57.5281 67.717 57.3978 67.7714C57.2674 67.8257 57.1545 67.9137 57.071 68.0259Z" fill="#F9DC1C"/>
<path d="M39.5058 49.8472C39.3056 51.4094 38.1581 50.1363 36.5665 49.9398C34.975 49.7434 33.7422 49.1357 33.9424 47.5734C34.1425 46.0111 35.5796 46.6467 37.0647 46.0515C38.4857 45.4821 39.706 48.2849 39.5058 49.8472Z" fill="#F9DC1C"/>
<path d="M46.6287 53.4003C46.4603 54.7145 48.0241 54.825 49.5332 54.1663C52.7143 52.7777 52.4366 54.9407 52.605 53.6265C52.7734 52.3122 51.4234 50.6927 50.0678 49.9936C48.7709 49.3247 46.797 52.086 46.6287 53.4003Z" fill="#F9DC1C"/>
</svg>
