<svg width="85" height="108" viewBox="0 0 85 108" fill="none" xmlns="http://www.w3.org/2000/svg">
<path d="M71.9918 49.7107C72.5094 48.8828 73.0111 48.048 73.4855 47.2036C77.9759 43.7308 81.2927 38.9638 82.9879 33.5462C86.4319 22.5262 83.1348 3.53626 68.7688 2.58937C68.5847 2.56996 68.3986 2.59035 68.223 2.64915C68.0475 2.70795 67.8867 2.8038 67.7514 2.93019C59.9656 -1.44198 49.3147 -0.71302 41.7851 3.73361C36.0288 7.13298 32.5916 12.6669 29.546 18.4472C27.0609 23.164 24.5032 28.6422 26.1035 34.0688C27.4385 38.5959 31.2416 41.5906 35.2017 43.9144C33.5337 45.3386 32.3971 47.2858 31.9772 49.4386C31.8036 49.78 31.6283 50.1178 31.4426 50.4409C30.2652 52.4893 29.0143 54.4939 27.6611 56.4312C24.8049 60.4863 21.5633 64.2556 17.9815 67.6867C17.7471 67.9284 17.6031 68.2436 17.5736 68.579C17.5442 68.9145 17.6311 69.2498 17.8197 69.5288C17.9105 69.6784 18.0082 69.8232 18.1003 69.9718C17.6268 69.9947 17.1638 70.1193 16.7427 70.337C15.0467 71.1526 13.3052 71.8701 11.5269 72.486C8.1629 73.5017 4.69296 74.1104 1.33528 75.1563C-0.205362 75.6362 -0.487908 77.3646 0.882884 78.2371C1.38041 78.6059 1.96814 78.8338 2.58424 78.8969C3.23439 79.0014 4.06819 78.6859 4.06708 77.9028C9.26537 76.4643 14.6754 75.63 19.1549 72.4168C19.2834 72.3196 19.3885 72.1949 19.4628 72.052C21.9547 75.6952 24.925 78.9871 28.2938 81.8391C30.2342 83.4763 32.2956 84.9645 34.4603 86.291C35.3882 86.8581 36.3395 87.3839 37.3037 87.8859C35.7041 89.5888 35.3965 93.1824 35.1744 95.1368C34.7515 98.858 34.2256 103.975 35.9175 107.396C36.3893 108.349 38.17 108.116 38.425 107.104C39.2816 103.704 38.2496 99.615 38.4882 96.0678C38.5841 94.1916 38.9392 92.3376 39.5433 90.5587C39.751 89.9777 39.9624 89.5434 40.0885 89.1335C40.651 89.3571 41.1788 89.6596 41.6562 90.0318C41.6278 90.0864 41.5958 90.1397 41.5678 90.1944C40.8567 91.5821 43.0033 93.3045 44.0789 92.0495C46.9184 88.7362 49.1447 84.7786 51.5542 81.1439C53.5285 78.1656 55.4908 75.1797 57.4409 72.1859C60.0819 73.1065 62.8751 73.3835 65.6577 73.7696C68.7276 74.1956 71.9187 74.9941 74.9702 74.1371C75.1865 74.0922 75.3917 74.0045 75.5736 73.8791C75.7554 73.7536 75.9104 73.5931 76.0292 73.4068C76.148 73.2206 76.2283 73.0124 76.2654 72.7946C76.3025 72.5768 76.2955 72.3538 76.245 72.1387C75.3584 68.5178 74.5437 64.8806 73.8282 61.2218C73.5062 59.5758 73.2074 57.9256 72.9157 56.274C72.6231 54.6171 71.5242 51.3594 71.9806 49.7685C71.9864 49.7483 71.9869 49.7305 71.9918 49.7107ZM30.2856 36.1103C27.1534 31.4835 29.2279 26.021 31.5213 21.5434C34.0251 16.6554 36.7923 11.509 41.171 8.04375C49.871 1.15888 61.4723 2.07617 70.6077 7.42707C70.7551 7.52419 70.9261 7.57926 71.1025 7.58635C71.2789 7.59345 71.4538 7.55229 71.6086 7.46731C71.7633 7.38234 71.8919 7.25677 71.9805 7.10413C72.0691 6.95148 72.1144 6.77756 72.1116 6.60107C80.3275 10.4381 82.2954 21.9976 80.4115 30.3575C79.3454 35.0738 76.9741 39.3951 73.5685 42.8277C73.3944 42.7988 73.2156 42.8175 73.0513 42.882C72.8869 42.9465 72.7431 43.0543 72.635 43.1939C72.231 43.6842 71.8425 44.1892 71.4613 44.701C67.83 47.622 63.3334 49.2578 58.674 49.353C52.9806 49.4422 47.5776 47.0681 42.5809 44.5876C38.2625 42.4438 33.0805 40.2391 30.2856 36.1103ZM49.5523 77.9993C47.5107 81.0756 45.1763 84.122 43.2113 87.3071C42.1912 86.7173 41.1357 86.1913 40.0506 85.7321C37.368 84.4311 34.8154 82.8775 32.4275 81.0923C28.039 77.7757 24.2511 73.7319 21.2281 69.1362C24.5102 65.8484 27.5012 62.2824 30.1678 58.4784C31.6279 56.3955 32.9769 54.237 34.2091 52.0117C35.1948 50.2227 36.3519 48.4781 36.5503 46.4562C36.7923 45.9937 37.009 45.5185 37.1995 45.0325C37.3808 45.1299 37.5626 45.2284 37.7427 45.3237C43.4441 48.3405 49.4386 51.4104 55.9272 52.1891C59.8638 52.6595 63.8552 52.1204 67.526 50.6227C66.7899 51.8039 66.058 52.9838 65.3061 54.135C62.6465 58.207 59.9737 62.2702 57.2877 66.3249C54.7097 70.2166 52.1312 74.108 49.5523 77.9993ZM72.3213 71.2596C70.1043 71.3697 67.7496 70.7067 65.6178 70.3846C63.5303 70.0691 61.3745 69.8843 59.355 69.2475C59.4195 69.1476 59.4852 69.0484 59.5498 68.9484C62.0815 65.0294 64.601 61.1026 67.1083 57.1678C67.7362 56.1824 68.3902 55.1973 69.0493 54.2088C69.2957 55.9165 69.5691 57.62 69.8693 59.3191C70.5766 63.3221 71.405 67.3002 72.3213 71.2596Z" fill="#FFDC17"/>
<path d="M66.3943 26.6658C66.3943 28.3484 68.0573 29.568 70.1088 29.39C72.1602 29.212 73.8233 27.7036 73.8233 26.0211C73.8233 24.3385 71.8964 24.3266 70.1088 23.6564C68.3983 23.0152 66.3943 24.9832 66.3943 26.6658Z" fill="#FFDC17"/>
<path d="M52.8937 16.9536C52.6855 17.3816 52.395 17.7644 52.0389 18.0801C51.6827 18.3957 51.2677 18.6381 50.8178 18.7932C50.3679 18.9484 49.8918 19.0134 49.4167 18.9844C48.9417 18.9554 48.477 18.8331 48.0492 18.6244C47.6215 18.4157 47.2391 18.1248 46.9238 17.7682C46.6086 17.4116 46.3668 16.9964 46.2122 16.5463C46.0576 16.0962 45.9932 15.62 46.0227 15.145C46.0523 14.6699 46.1752 14.2054 46.3844 13.7779C47.2613 11.9804 48.6965 13.323 50.693 13.2055C52.6033 13.093 53.7706 15.1561 52.8937 16.9536Z" fill="#FFDC17"/>
</svg>
