<svg width="65" height="66" viewBox="0 0 65 66" fill="none" xmlns="http://www.w3.org/2000/svg">
<path d="M0.363159 60.5036C0.833159 63.2336 3.11318 65.2936 5.88318 65.4936H12.6232C23.4732 65.4936 34.3331 65.4136 43.8231 65.2636L50.6632 65.1336H52.3932C54.4932 64.9236 56.2932 63.5636 57.0632 61.6036C57.2932 61.0136 57.4132 60.3836 57.4332 59.7536V58.3035L57.3331 55.6936C57.2731 54.2336 57.2132 52.8935 57.1432 51.6835H60.6532C62.0332 51.5635 63.2532 50.7536 63.8932 49.5236C64.0532 49.1836 64.1732 48.8135 64.2432 48.4335C64.2832 48.2435 64.3031 48.0536 64.3231 47.8636V43.7636L64.2432 39.0236V38.0336C64.2232 37.8636 64.2032 37.6936 64.1632 37.5236C64.0132 36.8536 63.6932 36.2436 63.2432 35.7336C62.7932 35.2436 62.2331 34.8736 61.6031 34.6636C61.0731 34.4936 60.5131 34.4336 59.9531 34.4736L57.1432 34.5535C57.2932 32.4835 57.4232 29.9236 57.5332 26.9736V26.3936C57.5532 26.1336 57.5532 25.8836 57.5332 25.6236C57.4732 25.0836 57.3432 24.5535 57.1232 24.0535C56.4032 22.4135 54.9431 21.2136 53.2031 20.8236C52.6531 20.7036 52.0932 20.6536 51.5332 20.6636H51.3331C51.3531 20.4836 51.3832 20.2936 51.4232 20.1136C51.4832 19.7236 51.5431 19.3036 51.5831 18.8536L51.6532 18.1636V17.8135C51.6632 17.6635 51.6632 17.5136 51.6532 17.3636C51.6432 15.8236 50.9432 14.3636 49.7332 13.4036C49.0932 12.8836 48.3332 12.5236 47.5332 12.3536C47.3232 12.3536 47.1232 12.2736 46.9132 12.2636C46.7032 12.2536 46.4531 12.2636 46.3431 12.2636H45.6031C42.2331 12.2036 38.8632 12.4436 35.5332 12.9936C33.3032 10.6036 30.8232 8.05363 28.3032 5.52363C27.5632 4.78363 26.3632 4.78363 25.6232 5.52363C23.0132 8.13363 20.4632 10.7736 18.1732 13.2136C16.1032 13.0636 13.5032 12.9235 10.5532 12.8035L8.16321 12.7136L6.92322 12.6735H6.2832C6.0032 12.6635 5.72312 12.6736 5.44312 12.7136C4.21312 12.8436 3.06321 13.3636 2.16321 14.2136C1.23321 15.1236 0.643154 16.3236 0.483154 17.6136C0.363154 18.7136 0.563223 19.8236 1.05322 20.8236C0.783223 26.0636 0.613145 33.1136 0.473145 41.1536C0.393145 45.8936 0.333203 50.9836 0.283203 56.2436V59.7936C0.313203 60.0036 0.333159 60.2536 0.363159 60.5036ZM45.6132 16.0036H46.8832C47.1332 16.0436 47.3631 16.1436 47.5731 16.2836C48.0131 16.5636 48.3232 17.0136 48.4232 17.5336C48.4432 17.6236 48.4631 17.7036 48.4631 17.7936V18.1436L48.5332 18.8336C48.5832 19.2736 48.6331 19.6936 48.7031 20.0936C48.7131 20.2536 48.7432 20.4136 48.7832 20.5736C46.6432 20.5236 44.4132 20.4936 42.1332 20.4536C41.0732 19.0736 39.6632 17.4736 37.9932 15.6236C40.5232 15.8936 43.0732 16.0236 45.6132 16.0036ZM26.9932 9.48359C31.2432 13.6936 35.5031 17.6736 38.7131 20.4136C33.9731 20.3536 29.0631 20.3336 24.1031 20.3336H15.3231C18.5331 17.6236 22.7532 13.6636 26.9932 9.48359ZM4.43323 16.4235C4.80323 16.0235 5.28323 15.7536 5.81323 15.6536C5.96323 15.6236 6.10317 15.6136 6.25317 15.6036H6.88318L8.13318 15.5635L10.5232 15.4736C12.6532 15.3936 14.5932 15.2936 16.2932 15.1936C14.4832 17.1836 12.9432 18.9636 11.7932 20.4136H11.3132L8.21313 20.4536H6.69312C6.33312 20.4836 5.97317 20.4736 5.62317 20.4136C5.07317 20.2936 4.58316 19.9736 4.24316 19.5136C3.91316 19.0536 3.7432 18.4935 3.7832 17.9235C3.8232 17.3635 4.05323 16.8335 4.43323 16.4235ZM4.81323 23.8135C5.44323 23.9535 6.08314 24.0236 6.72314 24.0036H8.24316L11.3431 24.0436C15.4831 24.0836 19.7931 24.1036 24.0931 24.1036C32.6831 24.1036 41.2732 24.0236 48.7832 23.8736L51.5432 23.8135C51.8732 23.7835 52.2132 23.7835 52.5432 23.8135C52.8132 23.8635 53.0732 23.9536 53.3132 24.0836C53.7932 24.3336 54.1832 24.7336 54.4332 25.2136C54.5532 25.4436 54.6431 25.7036 54.6931 25.9536C54.7131 26.0836 54.7332 26.2236 54.7432 26.3636V26.9436C54.8632 29.8936 54.9932 32.4635 55.1432 34.5635C51.3832 34.7035 48.1632 34.8936 45.7932 35.1236C45.5632 35.1236 45.3832 35.6036 45.3932 36.1336C45.4032 36.6636 45.5832 36.9936 45.7932 37.0136C49.1032 37.3336 54.0632 37.5736 59.8832 37.7036C60.3732 37.7036 60.2932 37.7036 60.4032 37.7636C60.5532 37.8336 60.6532 37.9736 60.6832 38.1436V38.9335L60.6031 43.6735V47.4836V47.5236C60.6031 47.5536 60.6031 47.5736 60.6031 47.6036C60.5731 47.6536 60.5231 47.6936 60.4731 47.7236C60.4431 47.7236 60.4232 47.7236 60.3932 47.7236H57.6532C54.3332 47.7236 51.0132 47.7236 47.7932 47.7836H45.4631C44.8731 47.7836 44.2932 47.6736 43.7332 47.4836C42.6732 47.1436 41.7332 46.4936 41.0432 45.6136C39.8532 43.8536 39.8231 41.5636 40.9631 39.7636C41.8831 38.3036 43.3931 37.3136 45.1031 37.0436C45.2931 37.0436 45.4531 36.5536 45.4431 36.0336C45.4431 35.5736 45.2432 35.2136 45.0032 35.2036C43.9232 35.1736 42.8632 35.3835 41.8732 35.8135C40.6632 36.3335 39.6032 37.1636 38.8032 38.2036C38.3432 38.7836 37.9731 39.4336 37.6931 40.1236C37.4031 40.8636 37.2132 41.6335 37.1432 42.4235C36.9832 44.1635 37.3932 45.9036 38.3032 47.3936C39.8332 49.8536 42.4732 51.4036 45.3732 51.5336H47.8531C50.2631 51.5336 52.7331 51.5836 55.2131 51.5836C55.1431 52.8036 55.0832 54.1436 55.0232 55.6036L54.9232 58.2136V59.5336C54.8732 59.8736 54.7631 60.2136 54.6031 60.5136C54.3231 61.1236 53.8331 61.6136 53.2231 61.8936C52.9131 62.0336 52.5732 62.1136 52.2332 62.1236H50.7332L43.8932 61.9936C34.4032 61.8336 23.5431 61.7636 12.6931 61.7636H6.17322C6.08322 61.7736 5.99319 61.7736 5.89319 61.7636C4.96319 61.5836 4.23321 60.8535 4.04321 59.9235C4.03321 59.8335 4.03321 59.7436 4.04321 59.6436V56.2836C4.00321 51.0336 3.94315 45.9436 3.85315 41.1936C3.73315 34.2936 3.57317 28.1936 3.37317 23.2636C3.82317 23.5136 4.31323 23.7035 4.81323 23.8135Z" fill="#7100D2"/>
<path d="M47.8035 42.9336C47.8035 44.0636 46.8834 44.9836 45.7434 44.9836C44.6134 44.9836 43.6934 44.0636 43.6934 42.9336C43.6934 41.7936 44.6134 40.8737 45.7434 40.8737C46.8734 40.8837 47.8035 41.8036 47.8035 42.9336Z" fill="#7100D2"/>
<path d="M55.8035 9.55359C57.6635 9.49359 60.5634 6.57363 60.6334 4.72363C60.4234 4.46363 60.1934 4.21365 59.9434 3.99365C59.7534 3.78365 59.5335 3.59358 59.3135 3.42358C57.4335 3.48358 54.5234 6.37366 54.4834 8.25366C54.6934 8.52366 54.9235 8.77365 55.1735 8.99365C55.3635 9.20365 55.5835 9.38359 55.8035 9.55359Z" fill="#7100D2"/>
<path d="M58.0231 16.6536C58.0131 16.9536 58.0232 17.2436 58.0632 17.5336C59.3832 18.8136 63.3632 18.7936 64.6732 17.5336C64.7132 17.2036 64.7231 16.8736 64.7131 16.5436C64.7231 16.2536 64.7132 15.9735 64.6732 15.6935C63.3532 14.4035 59.3732 14.3935 58.0632 15.6935C58.0332 16.0135 58.0131 16.3336 58.0231 16.6536Z" fill="#7100D2"/>
<path d="M47.683 6.19354C47.973 6.20354 48.2731 6.19363 48.5631 6.15363C49.8431 4.83363 49.8231 0.85364 48.5631 -0.45636C48.2331 -0.49636 47.9029 -0.506399 47.5729 -0.496399C47.2829 -0.506399 47.003 -0.49636 46.713 -0.45636C45.423 0.86364 45.413 4.84363 46.713 6.15363C47.033 6.19363 47.363 6.20354 47.683 6.19354Z" fill="#7100D2"/>
</svg>
