<?xml version="1.0" encoding="UTF-8"?>
<svg id="Livello_1" xmlns="http://www.w3.org/2000/svg" xmlns:xlink="http://www.w3.org/1999/xlink" width="24.25" height="27.07" viewBox="0 0 24.25 27.07">
    <defs>
        <style>.cls-1{fill:currentColor;}.cls-2{fill:#fff;}.cls-3{fill:none;stroke:currentColor;}</style>
    </defs>
    <g>
        <path class="cls-2" d="M10.62,.4c.93-.54,2.07-.54,3,0l9.12,5.27c.93,.54,1.5,1.53,1.5,2.6v10.54c0,1.07-.57,2.06-1.5,2.6l-9.12,5.27c-.93,.54-2.07,.54-3,0L1.5,21.4c-.93-.54-1.5-1.53-1.5-2.6V8.27c0-1.07,.57-2.06,1.5-2.6L10.62,.4Z" />
        <path class="cls-3" d="M13.37,.83l9.12,5.27c.77,.45,1.25,1.27,1.25,2.17v10.54c0,.89-.48,1.72-1.25,2.17l-9.12,5.27c-.77,.45-1.73,.45-2.5,0L1.75,20.97c-.77-.45-1.25-1.27-1.25-2.17V8.27c0-.89,.48-1.72,1.25-2.17L10.87,.83c.77-.45,1.73-.45,2.5,0Z" />
    </g>
    <path class="cls-1" d="M15.92,13.22c.12,.05,.23,.09,.35,.13,.02,0,.04,.02,.06,.03,0-.02,.02-.01,.07,0,.91,.31,1.86,.4,2.8,.24,0-.02,.02-.03,.04-.04,.1-.05,.21-.09,.32-.1h.1l.18-.05,.11,1.47c-.39-.03-.77-.06-1.15-.1-.1,.01-.21,.02-.32,.02-.39,.03-.78,.05-1.18,.07,.02,0,.04,.02,.04,.03,0,.03-.1,.05-.21,.04h-.16l.47,.03s.04,0,.06,0l.52,.02c.66,.01,1.3,.02,1.93,0l-.13-1.71c-.72,.24-1.47,.32-2.21,.24-.02,0-.05,0-.07-.02-.01,0,0-.02,.02-.02,.37,.02,.75-.02,1.12-.1,.38-.08,.75-.2,1.11-.34l.16,2.2h-.16c-1.21,.06-2.41,.11-3.65,.15-1.3-.04-2.5,0-3.82,.04-1.79,.05-3.47,.05-5.22,.08-.65,.03-1.25-.08-1.34-.24-.05-.1,.1-.2,.37-.27h-.16l-.25-.02c-.19,0-.39-.04-.57-.11l-.18-.07c-.24-.13-.62-.23-.82-.37l.04-.05h-.05c-.11-.02-.21-.07-.29-.15v-.06c.07-.1,.15-.17,.24-.21,0-.03,0-.05,.04-.08-.1-.06-.15-.13-.07-.21-.06-.02-.05-.05,.02-.06,.03,0,.06-.01,.09-.01h0s-.04-.02-.09-.04h-.1l-.31-.02c-.07,0-.13-.03-.2-.05q-.14-.11-.12-.16h.03l-.15-.03s-.04-.01-.05-.02t-.02-.04s0-.01,0-.02q.06-.03,.06-.04s.02-.01,.03-.02l.11-.02,.15,.06,.03-.02,.04,.03-.02-.03,.08,.02-.09-.02q.18,0,.26,0s.1,0,.15,0c0,0,0,0,0-.02h.39s.03,.03,.05,.03c.03-.01,.06-.01,.09-.01h.12l.08-.02h.02l.36-.07h.12s0-.04-.02-.04c-.42-.04-.88-.06-1.32-.08-.06,.01-.12,0-.17-.03-.01-.02,.05-.04,.13-.05,.98-.15,1.98-.17,2.97-.06l.74,.03h.18l-.15-.04h-.1c-.58-.03-1.1-.09-1.66-.13-.3-.02-.56-.06-.84-.09-.07,0-.12-.02-.12-.04,.05-.03,.1-.04,.15-.03,.93-.07,1.86-.03,2.78,.12,.16,0,.32,.01,.48,.04h0l-.11-.04c.13,0,.2,.04,.32,.05l-.04-.05c.64,.03,1.32,.02,1.91,.09h.07c.27-.04,.54-.06,.81-.07l-.3-.02c.22-.02,.43-.03,.67-.03,.56,0,1.13,.08,1.67,.25l3.68,.03s.09,0,.13,.03c0,.02-.04,.03-.1,.03-.88,.03-1.77,.03-2.66,.04,.74,.04,1.49,.09,2.25,.12h.29c.1,0,.19,.01,.29,.02,.97,.03,1.9,.08,2.89,.09h.02l.13,1.75c-.88,.26-1.79,.33-2.69,.2-1.27-.19-2.49-.74-3.54-1.61-.14-.11-.26-.25-.25-.29,0-.05,.12,0,.26,.12,.9,.7,1.9,1.2,2.95,1.48,1.07,.28,2.18,.27,3.25-.03l-.11-1.48c-.49-.02-.98-.04-1.48-.06l-.82-.04s0,.01,0,.02c0,.02-.03,.04-.07,.06,.31,.02,.61,.04,.92,.06,.47,0,.95,0,1.43,0l.1,1.41c-.43,.12-.87,.19-1.31,.19-.65,0-1.29-.12-1.91-.36-.77-.21-1.51-.56-2.21-1.02-.02-.01-.04-.03-.06-.05,0-.01,.01,0,.04,0,.5,.3,1.01,.55,1.54,.74-.08-.06-.12-.11-.1-.14,.02-.03,.09-.04,.19-.02-.12-.05-.24-.1-.35-.16-.07-.04-.12-.08-.11-.09,0-.02,.07,0,.14,.03,.47,.23,.96,.41,1.45,.52,.6,.11,1.21,.12,1.82,.04-.06,0-.13-.03-.18-.07-.09,0-.19,.02-.28,.02-.86,.08-1.73-.06-2.55-.4-.83-.35-1.61-.85-2.31-1.49-.03-.02-.05-.05-.04-.06,0,0,.03,0,.05,.03,.42,.38,.87,.72,1.34,1.01h0s-.02-.03,0-.02c.03,.01,.05,.03,.07,.05,.02,.02,.01,.03,0,.02,.88,.53,1.84,.82,2.81,.86-.89-.07-1.76-.35-2.56-.83-.09-.04-.18-.08-.27-.13-.02-.01-.04-.03-.06-.05,0-.01,.02,0,.04,0l.07,.04c-.15-.1-.25-.2-.23-.24,.03-.03,.17,.02,.32,.11,.41,.24,.84,.44,1.28,.59l.14,.04s.1,.02,.15,.03c-.68-.23-1.33-.57-1.93-1.01-.05-.04-.09-.08-.09-.09,0-.01,.05,0,.1,.04,1.08,.7,2.29,1.06,3.52,1.04,.4-.07,.79-.19,1.17-.35l-.15,.03c-.6,.14-1.22,.19-1.83,.16-.62-.04-1.23-.19-1.8-.46-.03-.01-.05-.03-.05-.04,0,0,.02,0,.05,0,.57,.25,1.16,.41,1.77,.45,.48,.04,.96,.01,1.44-.1-.93,.15-1.88,.06-2.78-.28-.04-.01-.07-.03-.1-.05,0,0-.01,0-.03,0-.12-.04-.24-.08-.37-.13-.02,0-.04-.02-.06-.04,0-.01,0-.01,.03,0Zm-9.34,.19h.06l.12,.07-.19-.07Zm-1.55,.26h0l-.07-.03,.07,.03Zm9.95-.52c-.54-.01-1.06-.04-1.59-.09h.39l1.21,.09Zm-9.44,.04c.12,.03,.24,.06,.36,.11,.09,0,.19-.01,.29-.01,.26,0,.52,0,.77,.02-.03-.02,.03-.02,.06-.02h.1l-.82-.05c-.25-.01-.52-.02-.75-.04Zm-1.88,.12h-.02l.05-.04-.03,.04Zm-.08,.06h.04s-.01,.01-.02,.01-.01,0-.02-.01Zm.35,.03s-.03-.01-.05-.02l.05,.02Zm.27,.97l.14-.17-.15,.16h.01Z" />
</svg>