<svg width="36" height="36" viewBox="0 0 36 36" xmlns="http://www.w3.org/2000/svg">
<g filter="url(#filter0_d_577_37849)">
<path d="M17.4231 0.5L31.2795 8.5V24.5L17.4231 32.5L3.56669 24.5V8.5L17.4231 0.5Z" />
<path d="M4.06669 8.78868L17.4231 1.07735L30.7795 8.78868V24.2113L17.4231 31.9227L4.06669 24.2113V8.78868Z" stroke="currentColor" fill="#F9F9F9"/>
</g>
<g filter="url(#filter1_d_577_37849)">
<path d="M22.1741 15.8346C22.307 15.8987 22.4429 15.9517 22.5809 15.9933C22.6037 16.0014 22.6256 16.0135 22.646 16.0293C22.6424 16.0093 22.6727 16.0106 22.7257 16.0263C23.7747 16.424 24.8751 16.5261 25.9558 16.3258C25.9664 16.3056 25.981 16.2895 25.998 16.2795C26.1153 16.2123 26.24 16.1703 26.3674 16.155L26.4837 16.1365L26.6857 16.0972L26.8094 17.952C26.3646 17.9111 25.9224 17.8704 25.4788 17.8295C25.3581 17.8451 25.2368 17.8517 25.1156 17.8494C24.6668 17.8811 24.2168 17.9112 23.7573 17.9322C23.7859 17.9446 23.8031 17.9591 23.8025 17.974C23.7928 18.0095 23.686 18.0321 23.5621 18.026L23.3746 18.0211L23.912 18.0695C23.9378 18.0712 23.9616 18.0743 23.9833 18.0783L24.5808 18.0996C25.3396 18.1173 26.0793 18.1194 26.8048 18.1096L26.6604 15.9432C25.8307 16.2444 24.9669 16.3458 24.1101 16.2426C24.0813 16.2422 24.0529 16.2346 24.0263 16.2202C24.0129 16.2087 24.0172 16.1976 24.045 16.199C24.4767 16.2198 24.9087 16.1761 25.3329 16.0687C25.7654 15.963 26.1922 15.8199 26.6105 15.6402L26.7958 18.4194L26.6104 18.4305C25.2118 18.5009 23.8324 18.563 22.4018 18.6075C20.9077 18.5591 19.5239 18.613 17.9998 18.6547C15.9412 18.7145 13.9976 18.7237 11.9845 18.7553C11.2306 18.7917 10.5383 18.6545 10.4382 18.4462C10.3801 18.3193 10.5496 18.1954 10.8596 18.1079L10.6752 18.1084L10.3829 18.0881C10.1586 18.0792 9.93606 18.0331 9.72043 17.951L9.51473 17.8669C9.24057 17.7051 8.79766 17.5731 8.57221 17.4029L8.62122 17.3354L8.56825 17.3175C8.44675 17.3038 8.33072 17.2447 8.23376 17.1469L8.2493 17.0662C8.31204 16.943 8.40308 16.8496 8.50901 16.7998C8.50365 16.7658 8.51995 16.7321 8.55592 16.6997C8.43529 16.6206 8.37746 16.5361 8.47063 16.4384C8.39838 16.4166 8.40978 16.3813 8.49517 16.3588C8.52863 16.3508 8.56248 16.3457 8.59646 16.3437L8.59557 16.3434C8.55582 16.3235 8.54395 16.3178 8.49037 16.2959L8.37736 16.2866L8.02209 16.2684C7.94415 16.2562 7.86707 16.2357 7.7916 16.2072C7.63231 16.0679 7.63227 16.0679 7.65553 16.0055L7.68569 15.9871L7.51687 15.963C7.49645 15.9574 7.47634 15.95 7.45667 15.9408C7.45067 15.9076 7.45067 15.9076 7.42889 15.8962C7.42472 15.8891 7.42268 15.8802 7.42317 15.8713C7.4928 15.8324 7.4928 15.8324 7.49449 15.8218C7.50723 15.8143 7.52034 15.8079 7.53372 15.8026L7.6622 15.7817L7.84049 15.8631L7.87839 15.8324L7.92013 15.8708L7.89627 15.8352L7.98585 15.8548L7.88347 15.8257C8.09463 15.8333 8.09463 15.8333 8.17911 15.8296C8.23646 15.8306 8.29382 15.8273 8.3509 15.8199C8.34685 15.8147 8.34404 15.808 8.34284 15.8007L8.78877 15.8189C8.80928 15.8264 8.82549 15.8341 8.8407 15.8416C8.8753 15.8288 8.91127 15.8237 8.94715 15.8265L9.06263 15.8303L9.08729 15.8247L9.08696 15.8219L9.18416 15.8028L9.20424 15.7982L9.20539 15.7986L9.62603 15.7156L9.81813 15.7285L9.76201 15.7134C9.72596 15.7025 9.75836 15.6701 9.73878 15.6675C9.25598 15.6111 8.7303 15.5926 8.212 15.5718C8.14597 15.5849 8.07851 15.5725 8.01768 15.5361C8.00519 15.5101 8.07111 15.4846 8.16626 15.4787C9.29995 15.2899 10.4458 15.2636 11.5837 15.4003L12.4399 15.4353L12.3988 15.4195L12.6211 15.4424L12.6452 15.4434L12.4767 15.3864L12.36 15.3702C11.6957 15.3538 11.0924 15.2693 10.45 15.2239C10.1048 15.1985 9.8078 15.1476 9.4811 15.1142C9.39701 15.1129 9.33859 15.0934 9.34823 15.0693C9.40068 15.0345 9.45966 15.0207 9.51797 15.0294C10.5872 14.9455 11.66 14.9955 12.7221 15.1787C12.9058 15.176 13.0894 15.1925 13.2712 15.2281L13.2801 15.2287L13.1576 15.181C13.3062 15.1921 13.3855 15.2314 13.5211 15.2477L13.4708 15.1816C14.2039 15.2205 14.9965 15.2009 15.6747 15.3L15.753 15.3062C16.0629 15.2525 16.3749 15.2222 16.6875 15.2156L16.3383 15.1915C16.59 15.1651 16.8397 15.1478 17.109 15.153C17.759 15.1445 18.4071 15.2488 19.0366 15.4631L23.2728 15.4972C23.3245 15.491 23.3766 15.5036 23.4232 15.5337C23.4303 15.5534 23.3819 15.5705 23.3091 15.5706C22.2974 15.6039 21.272 15.6077 20.2447 15.6158C21.1025 15.6692 21.9642 15.7267 22.8433 15.7637L23.181 15.7663C23.2928 15.7672 23.4033 15.7771 23.5135 15.7892C24.6367 15.8309 25.7019 15.8904 26.8487 15.8974L26.869 15.8974L27.0163 18.1064C26.004 18.4383 24.9544 18.5242 23.9187 18.3598C22.4533 18.1216 21.0525 17.4224 19.8338 16.3208C19.6681 16.1818 19.5395 16.0094 19.5424 15.9523C19.5455 15.8938 19.6803 15.9642 19.8407 16.1074C20.8836 16.987 22.0344 17.6199 23.2416 17.9777C24.4776 18.3287 25.757 18.3151 26.9886 17.9381L26.864 16.0695C26.3027 16.0459 25.7365 16.0221 25.1623 15.9979L24.2209 15.9493C24.2249 15.955 24.2274 15.9623 24.2282 15.97C24.2275 15.9974 24.1974 16.0215 24.1472 16.0408C24.5002 16.0602 24.8558 16.0882 25.2126 16.1177C25.7585 16.1083 26.3047 16.1058 26.8627 16.1147L26.9813 17.8939C26.4861 18.048 25.9796 18.1304 25.4708 18.1397C24.7253 18.137 23.9846 17.9824 23.2747 17.6815C22.3851 17.4127 21.529 16.9777 20.7323 16.3895C20.7052 16.3738 20.681 16.3505 20.6614 16.3213C20.6539 16.3041 20.6746 16.3088 20.7075 16.3305C21.2801 16.7075 21.8749 17.0221 22.4863 17.2711C22.3976 17.1973 22.3514 17.1331 22.371 17.0949C22.3909 17.0551 22.4756 17.0505 22.595 17.0743C22.4582 17.0138 22.3239 16.9458 22.192 16.8701C22.1101 16.8245 22.0506 16.7732 22.0597 16.7535C22.0689 16.7315 22.1392 16.7501 22.2168 16.7923C22.7568 17.0858 23.3183 17.3054 23.8923 17.4475C24.5857 17.5859 25.2898 17.6035 25.9867 17.4998C25.913 17.491 25.8419 17.4597 25.7789 17.4083L25.7787 17.4076C25.6717 17.4159 25.5654 17.4346 25.4588 17.4331C24.4626 17.5284 23.4621 17.3564 22.5176 16.9273C21.5612 16.4883 20.6636 15.8513 19.8584 15.04C19.826 15.0099 19.8032 14.978 19.8076 14.9687C19.8118 14.9596 19.8407 14.976 19.8693 15.004C20.355 15.4904 20.8735 15.917 21.4182 16.2784L21.4162 16.2764C21.3967 16.2556 21.3968 16.2422 21.4232 16.252C21.4535 16.2655 21.482 16.285 21.5077 16.31C21.5301 16.3339 21.5238 16.3428 21.5013 16.3347C22.5112 16.9999 23.6175 17.3706 24.7453 17.4215C23.7179 17.3341 22.7137 16.9781 21.7912 16.3741C21.6861 16.3233 21.5796 16.2763 21.476 16.215C21.4498 16.2003 21.4262 16.1787 21.4067 16.1514C21.4021 16.1384 21.4259 16.1427 21.4547 16.16L21.541 16.2089C21.3713 16.086 21.2557 15.9554 21.2785 15.9094C21.3085 15.8667 21.4688 15.9294 21.6428 16.0529C22.1188 16.3544 22.6125 16.6046 23.119 16.801L23.2852 16.8537C23.3421 16.8666 23.3983 16.8793 23.4558 16.8857C22.6725 16.5984 21.9229 16.1693 21.2285 15.6106C21.1687 15.5646 21.1238 15.5114 21.13 15.4936C21.136 15.4757 21.1904 15.4987 21.2501 15.5446C22.4973 16.4311 23.8946 16.8844 25.3107 16.8619C25.7689 16.7749 26.2192 16.6271 26.655 16.4205L26.4829 16.4604C25.788 16.6356 25.0798 16.7026 24.373 16.66C23.6614 16.6142 22.96 16.4173 22.2958 16.0766C22.2604 16.0604 22.2341 16.0372 22.2326 16.0258C22.2318 16.0148 22.2582 16.0183 22.2932 16.0369C22.9468 16.3574 23.6324 16.55 24.3282 16.6086C24.8823 16.6641 25.4397 16.6215 25.9853 16.4817C24.9108 16.6755 23.8171 16.5529 22.7827 16.1227C22.7412 16.1088 22.7015 16.0869 22.6649 16.0578C22.6609 16.0621 22.6505 16.0617 22.6359 16.0573C22.5007 16.0128 22.354 15.9578 22.2063 15.8924C22.1793 15.8814 22.1547 15.8623 22.1343 15.8365C22.1229 15.8202 22.1423 15.8214 22.1741 15.8346ZM11.4061 16.0715L11.3769 16.0602L11.4796 16.0789L11.6232 16.1567L11.4061 16.0715ZM9.61468 16.3942L9.61569 16.3941L9.53279 16.3513L9.61468 16.3942ZM21.0791 15.7362C20.4622 15.7182 19.8519 15.6852 19.243 15.624L19.6893 15.6195L21.0791 15.7362ZM10.1992 15.7898C10.338 15.8233 10.4749 15.8695 10.6089 15.9279C10.7155 15.9167 10.827 15.9112 10.9399 15.9115C11.2434 15.9122 11.5392 15.9202 11.8304 15.9311C11.7924 15.9035 11.8622 15.906 11.8978 15.9022L12.0073 15.8942L11.0679 15.8398C10.7821 15.8236 10.4714 15.8166 10.1992 15.7898ZM8.03184 15.9466L8.00511 15.9371L8.06252 15.8937L8.03184 15.9466ZM7.94146 16.02L7.98594 16.0246C7.97949 16.0316 7.97128 16.0349 7.96299 16.0341C7.95471 16.0332 7.947 16.0281 7.94146 16.02ZM8.35018 16.0618C8.3313 16.0527 8.31187 16.0456 8.2921 16.0408L8.35018 16.0618ZM8.6572 17.2861L8.81283 17.0731L8.64278 17.2782L8.6572 17.2861Z" fill="currentColor"/>
</g>
<defs>
<filter id="filter0_d_577_37849" x="-0.433289" y="0.5" width="35.7128" height="40" filterUnits="userSpaceOnUse" color-interpolation-filters="sRGB">
<feFlood flood-opacity="0" result="BackgroundImageFix"/>
<feColorMatrix in="SourceAlpha" type="matrix" values="0 0 0 0 0 0 0 0 0 0 0 0 0 0 0 0 0 0 127 0" result="hardAlpha"/>
<feOffset dy="4"/>
<feGaussianBlur stdDeviation="2"/>
<feComposite in2="hardAlpha" operator="out"/>
<feColorMatrix type="matrix" values="0 0 0 0 0 0 0 0 0 0 0 0 0 0 0 0 0 0 0.12 0"/>
<feBlend mode="normal" in2="BackgroundImageFix" result="effect1_dropShadow_577_37849"/>
<feBlend mode="normal" in="SourceGraphic" in2="effect1_dropShadow_577_37849" result="shape"/>
</filter>
<filter id="filter1_d_577_37849" x="3.4231" y="14.9662" width="27.5932" height="11.795" filterUnits="userSpaceOnUse" color-interpolation-filters="sRGB">
<feFlood flood-opacity="0" result="BackgroundImageFix"/>
<feColorMatrix in="SourceAlpha" type="matrix" values="0 0 0 0 0 0 0 0 0 0 0 0 0 0 0 0 0 0 127 0" result="hardAlpha"/>
<feOffset dy="4"/>
<feGaussianBlur stdDeviation="2"/>
<feComposite in2="hardAlpha" operator="out"/>
<feColorMatrix type="matrix" values="0 0 0 0 0 0 0 0 0 0 0 0 0 0 0 0 0 0 0 0"/>
<feBlend mode="normal" in2="BackgroundImageFix" result="effect1_dropShadow_577_37849"/>
<feBlend mode="normal" in="SourceGraphic" in2="effect1_dropShadow_577_37849" result="shape"/>
</filter>
</defs>
</svg>
