<?xml version="1.0" encoding="UTF-8"?>
<svg id="Livello_1" xmlns="http://www.w3.org/2000/svg" xmlns:xlink="http://www.w3.org/1999/xlink" width="24.25" height="27.07" viewBox="0 0 24.25 27.07">
    <defs>
        <style>.cls-11{fill:#fff;}.cls-22{fill:currentColor;}.cls-33{fill:currentColor;stroke:currentColor;}.cls-44{fill:none;stroke:currentColor;}</style>
    </defs>
    <g>
        <path class="cls-11" d="M10.62,.4c.93-.54,2.07-.54,3,0l9.12,5.27c.93,.54,1.5,1.53,1.5,2.6v10.54c0,1.07-.57,2.06-1.5,2.6l-9.12,5.27c-.93,.54-2.07,.54-3,0L1.5,21.4c-.93-.54-1.5-1.53-1.5-2.6V8.27c0-1.07,.57-2.06,1.5-2.6L10.62,.4Z" />
        <path class="cls-44" d="M13.37,.83l9.12,5.27c.77,.45,1.25,1.27,1.25,2.17v10.54c0,.89-.48,1.72-1.25,2.17l-9.12,5.27c-.77,.45-1.73,.45-2.5,0L1.75,20.97c-.77-.45-1.25-1.27-1.25-2.17V8.27c0-.89,.48-1.72,1.25-2.17L10.87,.83c.77-.45,1.73-.45,2.5,0Z" />
    </g>
    <path class="cls-22" d="M15.32,18.77h.19c-.61,.02-1.26,.03-1.9,.03,1.36,.16,2.75,.11,4.1-.16,.25,.1,.51,.15,.78,.14,.27,.02,.53,.02,.8,0l1.51-.12-1.03,.07,1.03-.07h.12c-.43-.64-.81-1.21-1.19-1.77l-.75-1.16c-.5-.79-.99-1.62-1.5-2.46l-2.72-4.46-.25-.42,.27,.48c-.41-.57-.79-1.09-1.13-1.56,.04,.12,.08,.24,.14,.36l-.15-.27c-.21-.2-.55-.75-.74-.99,.03,.02,.02-.02-.02-.09l-.07-.13-.13-.22,.05,.13-.77-1.21-.96,1.85c-.03,.07-.08,.13-.12,.18l-.3,.62c-.02-.07-.3,.49-.17,.18-.19,.48-.47,.93-.65,1.38-.81,1.55-1.65,3.22-2.43,4.85l.04-.03c-.27,.57-.45,1.11-.84,1.78-.22,.47-.41,.96-.56,1.46-.29,.57-.36,.81-.63,1.37,.12-.12-.23,.56-.06,.31,.25-.34,.21-.38,.42-.67h-.02c.83-1.41,1.63-2.84,2.43-4.3,.48-1,1.07-2.04,1.6-3.07,.56-1.1,1.16-2.3,1.63-3.26,.1-.19,.22-.38,.35-.56l.34-.67,.65,.99-.03-.05c.32,.49,.52,.89,.83,1.37,0,0,.06,.07,.09,.1,0,.12,1.93,2.78,2.01,2.97l.11,.15c.63,1.03,1.2,2.15,1.76,3.02,.15,.18,.31,.38,.44,.52,.08,.17,.14,.17,.25,.36,.2,.54,.42,.79,.3,.52,.26,.38,.5,.78,.73,1.12l.15,.21,.09,.11c.05,.07,.06,.1,.03,.11,.03,.03,.05,.07,.07,.11-.05,0-.1-.02-.2-.02-.05-.02-.09,0-.24,.02-.28,.03-.57,.06-.63,.06h.07c-.52,0-.86-.07-1.37-.06-1.41,.01-2.94,.09-4.25,.12-.01,.05,.29-.02,.3,.04h-2.32c-.13,0-.25-.02-.38-.04-.25,0-.15,.03-.33,.03l-.03-.04c-.26,.04-.39-.03-.64,0-.06,.02-.13,.03-.19,.02,0-.04-.27,.01-.26-.03h0c-.05,0-.1,0-.16,0l-1.15,.19h-.05c-.14,0-.2,.03-.12,.04h-.33s-.07-.02-.02-.04c-.1,.02-.2,.03-.31,.02,.28,.02,.62,.04,.91,.08-.12,.02-.33,0-.46,.01-.15-.02-.47-.04-.72-.05-.05,0-.09,.05-.21,.04-.06-.03-.14,0-.24-.02,.12-.02,.23-.02,.35-.02-.02-.04-.29-.02-.38-.03-.04,.01-.27,0-.41,.02,.06-.04-.12-.02-.2-.04-.1,0-.16,.02-.12,.03-.03,.04,.39,.01,.25,.06-.11-.01-.22-.01-.33,0,0,.02,.07,.01,0,.04-.1,.01-.2,.01-.3,0,.03,0,.07,0,.1,0-.15,0,.8-.17,.6-.15,.05,.02-.84,.16-.74,.16,.09,0-.06,.04,.03,.05l.1-.03c.13,0,.18,.04,.14,.06-.21,0,.6-.17,.42-.14h.07c-.12,.03-.24,.04-.36,.02,0,.02-.1,.03-.19,.04h-.03c-.09,.01-.21,0-.15,.04,.52-.02-.34,.23,.17,.23-.21-.04,.07-.05,.29-.06,.09,.03,.19,.05,.28,.04,.14,0,.08-.02,.11-.03,.08,0,.22,.01,.21,.04,.11-.03,.17,.01,.3,0,.11-.02,0-.01,.07-.03h.55c.05,.02,.22,.06,.1,.1-.26,0,.1-.06-.17-.05,.12,.05-.24,.02-.29,.07,.14,.02,.27,.02,.41,0h-.03c.18-.03,.35-.03,.53-.01-.03,.02,.03,.03-.07,.04h.18s.05-.02,0-.02c.08-.01,.16-.01,.23,0,.02,.02,.94-.11,.91-.1,.09,.01,.19,.01,.28,0,.01-.02-1.22,.11-1.05,.1,.11,.02,1.45-.15,1.53-.11,.09,0,.21-.01,.19-.03,.16,0-.05,.04,.07,.06,0,0,0-.01,.03-.01l.11,.02c.25-.04,.61,0,.87-.06-.1,.04-.21,.07-.33,.09h-.03s-.16,0-.16,.03c.15,0,.31,0,.46-.02h.09c.06,.02,.05,.02,.03,.03h-.01c.1,.06,.62-.05,.92-.03,.09-.01,0-.01,.11-.03,.3,.01,.5,.03,.81,.03,.1-.03,.11-.04-.01-.06h.23c-.21,.08,.44,.05,.21,.13,.11,.01,.23,.01,.34,0,.01-.02,.03-.05,.2-.05l.37,.03s-.02,.03-.02,.05c.29-.04,.26,.04,.54,.03,.18,0,.35-.02,.52-.06,.23,0,.23,.02,.21,.06Z" />
    <path class="cls-22" d="M15.06,17.07h.12c-.4,0-.82-.01-1.23-.03,.87,.21,1.78,.2,2.65-.01,.59,.16,1.2,.23,1.81,.2l.27-.02-.46-.61-.84-1.15c-.17-.24-.34-.49-.51-.75-.33-.52-.66-1.06-.99-1.61-.37-.61-1.41-2.24-1.77-2.88l-.16-.27,.17,.31-.78-.98c.01,.08,.04,.17,.07,.24l-.1-.17c-.19-.2-.37-.42-.53-.64,.06,.03-.06-.17-.18-.36l.03,.09-.74-1.11-.42,1.04c-.03,.07-.06,.13-.1,.18l-.2,.55s-.18,.33-.12,.12c-.08,.33-.24,.63-.3,.94-.43,1.05-.85,2.17-1.23,3.28l.03-.02c-.1,.41-.23,.81-.4,1.2-.11,.32-.17,.66-.21,.99-.14,.38-.16,.55-.29,.93,.08-.08-.1,.38,.01,.21,.16-.22,.12-.26,.25-.45h-.02c.47-.95,.91-1.91,1.34-2.89,.24-.67,.56-1.38,.83-2.07,.29-.74,.6-1.57,.81-2.19,0-.02,.02-.04,.03-.06,.02-.02,.04-.03,.06-.03,.02-.06,.04-.13,.07-.21l.41,.59-.02-.03c.22,.31,.33,.58,.54,.88,.01,0,.04,.04,.06,.06-.02,.09,1.31,1.75,1.36,1.88l.07,.1c.41,.67,.75,1.41,1.13,1.96,.11,.11,.22,.23,.31,.31,.04,.11,.1,.1,.17,.23,.09,.37,.26,.52,.19,.34,.18,.24,.34,.5,.49,.72,.03,.04,.09,.11,.1,.13l.06,.06s.03,.07,0,.08c.08,.1,.03,.06,.06,.14-.02,0,0,.01,.02,.04-.04,.01-.14,.07-.18,.06h.02c-.07-.01-.14-.03-.2-.06-.14-.03-.28-.05-.42-.05-.91-.04-1.9-.01-2.75-.03,0,.04,.19,0,.2,.05-.5-.01-1-.07-1.5-.08-.08-.01-.16-.03-.24-.05-.16-.02-.09,.02-.21,.01l-.02-.04c-.17,.03-.25-.05-.41-.03,0,.02-.07,.02-.12,.02,0-.04-.18,0-.17-.04h0s-.07,0-.1,0l-.75,.15h-.03c-.09,0-.13,.02-.08,.03h-.21s-.04-.03-.01-.05c-.07,.02-.13,.02-.2,.01,.18,.03,.4,.07,.58,.11-.1,0-.2,0-.3,0-.15-.03-.31-.06-.46-.08-.03,0-.06,.05-.14,.03-.04-.03-.09,0-.15-.02,.07-.01,.15-.01,.23,0-.01-.04-.19-.03-.25-.04-.03,.01-.18,0-.27,0,.04-.04-.07-.02-.13-.04-.06,0-.1,0-.08,.02-.02,.04,.25,.03,.16,.07-.07-.02-.14-.02-.21-.01,0,.02,.04,.02,0,.04-.07,0-.15,.02-.19,0,.02,0,.04,0,.07,0-.1,0,.52-.14,.39-.13,.03,.02-.54,.13-.48,.13,.06,.01-.04,.04,.02,.05l.07-.03c.08,0,.12,.05,.09,.06-.14,0,.39-.15,.27-.13h.05c-.08,.03-.16,.03-.24,.01,0,.02-.07,.03-.12,.04h-.02c-.06,0-.14,0-.1,.03,.34,0-.22,.22,.1,.24-.14-.05,.05-.05,.19-.05,.05,.03,.12,.05,.18,.05,.09,0,.05-.02,.07-.03,.05,.01,.14,.02,.13,.05,.07-.03,.11,.02,.2,.01,.07-.01,0-.01,.05-.03l.36,.02s.14,.07,.06,.1c-.17,0,.06-.06-.11-.05,.07,.06-.16,.01-.19,.05,.09,.02,.18,.03,.26,.02h-.02c.11-.02,.23-.02,.34,0-.02,.02,.02,.03-.04,.04h.11s.03,0,0-.01c.05-.01,.1,0,.15,0,.01,.02,.61-.08,.59-.07,.08,0,.1,.03,.18,.01,0-.02-.79,.06-.68,.06,.07,.02,.94-.09,.99-.06,.06,0,.14,0,.12-.03,.1,.01-.03,.04,.04,.06,0,0,0-.01,.02,0l.07,.03c.16-.03,.4,.01,.57-.03-.07,.04-.14,.06-.21,.08h-.02s-.1,0-.1,.02c.1,.01,.2,.01,.3,0l.06,.02h0s.03,0,.02,.02h0c.06,.07,.4-.03,.59,0,.06,0,0-.01,.07-.02,.19,.03,.32,.04,.53,.06,.06-.03,.07-.04,0-.06h.15c-.14,.08,.28,.08,.13,.15,.07,.02,.15,.02,.22,0,0-.02,.02-.05,.13-.04l.24,.04s-.02,.03-.01,.05c.19-.03,.17,.05,.34,.05,.11,0,.33,0,.34-.05,.15,0,.15,.03,.14,.06Z" />
    <path class="cls-22" d="M12.39,7.43h0s0,.06-.03,.09c.14-.07,.26-.16-.03-.22,.16,0,.23-.08,.19-.08-.03-.01-.05-.03-.07-.05,.01,.01,.03,.02,.04,.03-.01,0-.03-.02-.04-.03-.12-.1-.07-.2,0-.31,.03-.1,.07-.2,.11-.29l.02-.03-.03,.03s-.08-.07-.11-.11c-.03,0-.05,.01-.08,.02v-.02c-.05-.02-.05-.05-.08-.07,.03,0,.04,0,.05-.02h-.02s-.01-.09,0-.13c0,0,.01,0,.02-.01l-.03-.04s.04-.03,.07-.01c-.05-.03-.02-.06-.08-.08,0-.11-.05-.21-.12-.3h-.02s-.12-.06-.09-.11c-.06-.04-.12-.07-.19-.09-.01-.04-.06-.05-.09-.08-.05,0-.06-.03-.09-.02-.07,.02,0,.02-.06,.04h.02c-.06,.08-.11,.17-.13,.27,.04,.06,0,.13,.02,.19,.02,.07,.05,.14,.09,.2,.01,.01-.03,.02-.05,.04,.02,.05,0,.12,.03,.18h0s-.04,.05-.03,.09c.01,0,.01,0,.02,0-.06,0,.13,.19,.09,.2h0c-.03,.08-.15,.15-.14,.2,.03,.01,.06,.03,.09,.04-.03,.01,.03,.01,.02,.02-.13,.03-.07,.05-.03,.03,.02,.03,0,.05,.01,.07,0,.01,.02,.02,.03,.03,.01,0,0,.01-.04,.02,.02,.02-.01,.02-.03,.04-.04,0,.07,.06,.06,.07h0s-.09,.04-.1,.07c-.03,.08,0,.16-.02,.23,.05,0-.01-.02,.05-.02,0,.04-.07,.08-.07,.13-.02,0-.03,.02-.05,.02-.02,.01,.02,0,.02,.02h-.04s-.05,.02-.03,.04c.02,0,.02,0,.02,.01-.04,0,0,.01-.04,.01h0s0,0,0,0c.02,0,.14,.06,.16,.06h0s.03,.01,.04,0h0v.02s-.03,0-.05,0c.02,0,.02,.01,.02,.02,.04-.02,.07-.04,.11-.05,.02,0,0,.02,0,.02-.03,0-.05,.02-.07,.04,0,0,.05,0,.03,.01-.03,0,0,0-.02,.01-.02,0,0-.01,0-.02-.04,0-.03,.02-.04,.02,.01,0,0,.01,.01,.02-.04,0-.02,0-.05,.01,0,0,.01,0,.02,0,.04,0,.03-.02,.07-.01-.02,0-.01,.01-.01,.02,.02,0,.02,0,.04,0,0,0,.02,.01,0,.02,0,0,0,0,0,0,0,0-.15-.04-.14-.03,.02,0,.14,.05,.14,.04,.01,0,.04,0,.05,0h-.03s.04-.02,.06-.01c0,.01-.16-.03-.13-.02h.01s.03,.01,0,.02c.01,0,.03,0,.04,.01h0s0,.01,.04,.01c0-.03,.23,.02,.24,0-.05,.01-.05,0-.06-.02,.02,0,.04,0,.05-.02,0,0-.02,0-.03,0,.01,0,.03-.01,.05-.01-.03,0,.02,0,0-.02-.01,0-.01,0-.03,0,0-.01,0-.02,.01-.03,.04,0,.07,0,.11,0,0,.01-.06,0-.05,0,.06,0,.02,.01,.06,.02,.03,0,.03-.01,.02-.02h0s-.02-.02,.01-.03c.02,0,.03,0,.04,0h0s-.01-.01-.02,0c-.02,0,0,0,0-.01,.02,0-.09-.05-.07-.05,0,0,.03,0,0-.02-.02,0,.07,.07,.06,.06,.02,0-.1-.08-.06-.08,0,0,0-.01-.03-.01,.01,0,.04,0,.06,0h.02s0-.04-.03-.05c.03,0,.06,0,.08,.02h-.01s.02,0,.04,.01c.01,0,.01-.02-.01-.03h0s.02,0,.02,0h0c.06,0-.04-.03,0-.05,0,0-.01,0-.02,0,.02-.01,.04-.03,.06-.04-.02,0-.04,0-.07,0h0c.07,0,.07-.04,.14-.02,.02,0,.02-.01,0-.02-.02,0-.05,0-.05-.01,.01-.01,.03-.02,.04-.02,.02,0,.03,0,.05,0-.03-.02,.05-.01,.05-.03,0,0,0-.03-.05-.03,0-.01,.03-.01,.07-.01Z" />
    <path class="cls-22" d="M19.8,17.56h0s.06,.04,.08,.08c0-.16-.01-.31-.23-.11,.08-.13,.05-.23,.03-.2-.03,.01-.05,.02-.08,.03-.16,.04-.23-.07-.3-.19-.08-.08-.15-.17-.21-.27l-.02-.03v.04s-.09,.02-.15,.02c-.01,.02-.02,.05-.02,.07v-.02c-.06,.04-.09,.02-.12,.03,.02-.03,.01-.04,0-.05v.02s-.11-.05-.14-.08c0,0,0-.02,0-.03h-.05s0-.05,.03-.07c-.06,.03-.07-.02-.12,0-.11-.06-.23-.09-.35-.09v.02c-.06,0-.14,.06-.16,0-.06,.03-.12,.03-.19,.1-.04-.01-.08,.02-.13,.02-.02,.04-.06,.03-.07,.07-.01,.07,.02,.02,0,.08h0c.04,.09,.11,.18,.19,.26,.08,0,.13,.07,.19,.1,.08,.03,.16,.05,.24,.05,.02,0,0,.04,0,.06,.06,.02,.12,.07,.19,.09h0s.03,.06,.07,.08c0-.01,.01,0,.02-.01-.03,.05,.25,.01,.24,.05,0,0,0,0,.01,0,.05,.06,.05,.21,.11,.23,.03-.01,.06-.03,.08-.05,0,.03,.03-.01,.03,0-.04,.12,0,.09,.02,.04,.03,0,.05,.03,.08,.04,.02,0,.03,0,.05,0,.01,0,0,.02,0,.04,.03,0,0,.02,.02,.05-.02,.04,.1-.02,.1,0h0s0,.11,.02,.13c.05,.07,.15,.1,.21,.15,.03-.04-.02,0,.01-.05,.04,.03,.04,.1,.08,.14,0,.02,0,.04,0,.05,0,.02,.02-.01,.03,0l-.02,.03s0,.05,.02,.04c0-.01,.02-.01,.02,0-.02,.04,.02,0,0,.04h0s0,0,0,0c.01,0,.13-.07,.15-.09h0s.03-.01,.03-.02h0v.02s0,.03-.02,.04c.01,0,.02-.01,.02,0,0-.04,0-.08,.01-.12,.01,0,.01,.02,.02,.02,0,.03,0,.06,0,.08,0,0,.03-.04,.03-.02-.02,.03,0,0,0,.03-.02,.01-.02,0-.02,0-.02,.03,0,.03,0,.04,0,0,.01,0,.03,0-.02,.03,0,.02-.01,.04,0,0,.01,0,.02-.02,.02-.03,0-.03,.03-.06,0,.02,0,.02,.01,.02,.01-.02,0-.02,.02-.03,0,0,.02-.01,.01,.01,0,0,0,0,0,0,0,0-.12,.09-.11,.09,0-.02,.12-.08,.11-.09,0-.01,.03-.03,.03-.04l-.02,.02s.01-.04,.03-.06c0,.01-.12,.11-.1,.09h0s.03-.02,.02,0c0-.01,.02-.02,.03-.02h0s.01,0,.03-.02c-.03-.01,.15-.17,.13-.2-.02,.05-.03,.04-.05,.04,0-.02,.02-.03,.02-.05,0,0-.01,.01-.02,.02,0-.02,0-.03,.02-.04-.02,.02,0-.02-.01-.02-.01,0,0,.01-.02,.02,0,0-.02-.02-.02-.03,.01-.03,.03-.06,.05-.09,.01,.01-.04,.05-.02,.05,.03-.05,.02,0,.05-.04,0-.02,0-.03-.01-.03h0s-.03,0-.02-.02c.01-.01,.02-.03,.03-.03h0s0,0,0,0c-.01,0-.01,0,0-.01,.01-.02-.1,.04-.09,.03,0,0,0-.03,0-.02-.01,.01,.1-.02,.09-.02,0-.02-.13,.04-.11,0,0,0-.01,0-.02,.02,0-.01,.03-.03,.03-.05h0v-.02s-.02-.03-.05,0c.02-.02,.04-.04,.06-.06h0s.02,0,.03-.01c0-.02,0-.02-.03,0v-.02h0s0,0,.01-.01h0c.03-.06-.05,0-.05-.03,0,0,0,0-.02,.01,0-.02,0-.05,0-.07-.02,.01-.03,.03-.04,.05h0c.05-.07,.02-.08,.07-.13,0-.02,0-.02-.01-.02-.01,.01-.03,.04-.04,.03,0-.01,0-.03,0-.04,0-.01,.02-.03,.03-.04-.03,.01,.01-.05,0-.06-.01,0-.02,0-.03,0-.01,0-.02,.01-.02,.02-.01,0,0-.03,.03-.06Z" />
    <path class="cls-22" d="M5.99,18.56h.02s-.1,.05-.16,.06c.18,.05,.36,.08,.29-.21,.09,.12,.23,.12,.21,.09,0-.03,.01-.07,.02-.1,0,.02-.02,.04-.02,.06,0-.02,.01-.04,.02-.06,.07-.18,.24-.23,.43-.27,.1-.03,.35-.14,.46-.15,.02,0,.03,0,.05,0h-.06c.03-.06,.05-.12,.09-.18-.02-.02-.04-.03-.07-.04h.03c-.01-.07,.04-.1,.05-.13,.01,.03,.03,.03,.05,.02h-.02c.06-.05,.12-.09,.18-.14,0,0,.02,0,.03,.01l.04-.05s.06,0,.06,.05c.01-.07,.07-.06,.08-.13,.14-.09,.26-.21,.35-.35h-.01c.03-.07,.03-.17,.1-.18,0-.08,.05-.14,.02-.23,.04-.04,.04-.09,.07-.14-.04-.03,.02-.07-.03-.09-.07-.04-.04,.01-.09-.02h0c-.15,.03-.3,.07-.45,.13-.06,.08-.17,.11-.25,.18-.09,.07-.16,.15-.23,.24-.01,.02-.05,0-.08,0-.06,.06-.17,.11-.24,.18h0s-.1,.01-.14,.05c0,.01,0,.02,0,.02-.04-.05-.19,.26-.22,.24h-.01c-.11,.05-.27,0-.34,.06,0,.03,0,.07,0,.1-.03-.01,0,.03-.02,.03-.11-.08-.11-.02-.06,0-.03,.04-.07,.05-.1,.07,0,.02-.02,.03-.03,.05,0,.02-.02,0-.05-.02-.02,.03-.03,0-.07,.01-.03-.03-.05,.11-.06,.1h0s-.11-.05-.15-.03c-.11,.05-.22,.11-.32,.18,.02,.04,.02-.02,.05,.03-.06,.03-.15,.02-.21,.04-.02,0-.04-.01-.05-.02-.03,0,0,.02-.02,.03l-.02-.03s-.05-.02-.06,0c0,.01,0,.02,0,.02-.02-.04-.02,.01-.04-.02h0s0,0-.01,0c0,.02,0,.16,0,.18h0s0,.03,.01,.04h-.03s-.02-.01-.02-.03c0,.02,0,.03-.01,.03,.04,.01,.09,.03,.13,.05,0,.02-.03,0-.04,.02-.03-.02-.06-.02-.09-.03,0,0,.02,.05,0,.03-.02-.03,0,0-.03,0,0-.02,.01-.02,.02-.02-.02-.03-.04,0-.05-.01,0,.01-.02,.01-.03,.03-.02-.03-.02-.02-.04-.03,0,0,0,.02,0,.03,.02,.04,.04,0,.06,.05-.01-.02-.02,0-.03,0,.01,.02,.01,.01,.02,.03-.01,0,0,.03-.02,.01,0,0,0,0,0,0-.01,0-.02-.16-.03-.14,.01,.01,0,.15,.02,.15,.01,0,.02,.04,.03,.04v-.03s.03,.03,.04,.05c-.02,0-.04-.16-.04-.13h.01s0,.04-.02,.02c0,0,0,.01,0,.02,0,0,0,.01,0,.02h0s-.01,.01,0,.03c.04-.03,.1,.2,.14,.19-.04-.03-.02-.05,0-.06,.01,.02,.03,.03,.05,.03,0,0,0-.02,0-.03,0,0,.02,0,.02,.01,0,0,.01,.01,.02,.02,0-.03,.02,0,.03,0,0-.02,0-.01,0-.03,.01,0,.03-.01,.04-.01,.01,0,.03,0,.04,.01,.01,0,.02,.02,.03,.03,0,.01,0,.03,0,.04-.02,0-.03-.06-.04-.04,.04,.04,0,.02,0,.06,.02,.02,.03,0,.04,0h0s.02-.04,.04-.02c0,.02,.02,.03,.02,.04h.02s0-.02,0-.02c0-.02,0-.01,.02,0,.01,.02,.02-.11,.03-.1,0,0,.03,.02,.03,0,0-.01-.05,.11-.04,.1,.02,.01,.05-.15,.08-.12,0,0,.01-.01,0-.03,.02,0,.02,.04,.04,.05h.02s.05-.01,.05-.06c.01,.03,.02,.06,.02,.08h0s0,.02,0,.03c.02,0,.03,0,.03-.03h.01s.01,.01,.01,.02h0c.04,.05,.03-.06,.06-.04,0-.01,0,0,0-.02,.03,0,.06,.01,.09,.01,0-.01,0-.02-.01-.03,0,0-.01-.02-.02-.02h.02c.02,.06,.07,.03,.09,.1,.01,.01,.03,0,.03,0,0-.02-.02-.04-.01-.05,.02,0,.03,0,.05,.01,.01,.01,.02,.03,.03,.04,0-.04,.05,.03,.06,.01,0-.01,.03-.03,.01-.07,.02,0,.03,.02,.05,.04Z" />
    <path class="cls-33" d="M16.79,16H8.79s2.84-7.27,3.2-6.63c.36,.65,4.8,6.63,4.8,6.63Z" />
</svg>