<svg width="36" height="36" viewBox="0 0 36 36" xmlns="http://www.w3.org/2000/svg">
<g filter="url(#filter0_d_577_37837)">
<path d="M4.06669 8.78868L17.4231 1.07735L30.7795 8.78868V24.2113L17.4231 31.9227L4.06669 24.2113V8.78868Z" fill="#F9F9F9" stroke="currentColor"/>
</g>
<g filter="url(#filter1_d_577_37837)">
<path d="M21.0736 22.4808L21.2911 22.4793C20.5881 22.5042 19.8485 22.5108 19.1194 22.5147C20.6795 22.6978 22.2598 22.6368 23.7998 22.3339C24.0827 22.4497 24.3882 22.5044 24.6951 22.4943C24.9995 22.52 25.3057 22.5189 25.6099 22.491L27.3385 22.3585L26.1597 22.4376L27.3385 22.3585L27.4739 22.3492C26.9879 21.6314 26.5463 20.9789 26.112 20.3374L25.2504 19.0078C24.6796 18.1004 24.1138 17.1545 23.5398 16.192L20.4332 11.0921L20.1457 10.6089L20.4552 11.1535C19.9861 10.5029 19.5548 9.90471 19.1689 9.36965C19.21 9.50968 19.2631 9.64613 19.3277 9.77753L19.1527 9.47166C18.9163 9.23892 18.5206 8.61285 18.3065 8.33544C18.3433 8.357 18.3264 8.30899 18.2847 8.2297L18.2014 8.08305L18.0507 7.83733L18.1126 7.98204L17.2306 6.59525L16.1279 8.70843C16.0893 8.78376 16.0414 8.85425 15.9853 8.91835L15.645 9.62598C15.6266 9.54942 15.2994 10.1814 15.4454 9.83562C15.2257 10.3826 14.9131 10.893 14.7082 11.4168C13.7786 13.1908 12.8178 15.0921 11.9277 16.9611L11.9687 16.9249C11.6606 17.5812 11.4539 18.1914 11.0114 18.9554C10.7584 19.4947 10.5454 20.0508 10.374 20.6194C10.0478 21.2678 9.96132 21.5481 9.65358 22.19C9.78757 22.0516 9.38842 22.8303 9.58951 22.5391C9.87774 22.1549 9.83252 22.1036 10.0744 21.7761L10.0526 21.7786C10.9997 20.1608 11.9169 18.5254 12.826 16.8602C13.3768 15.7214 14.0519 14.5248 14.6547 13.3557C15.2995 12.0951 15.9846 10.725 16.5127 9.63101C16.6263 9.40857 16.7594 9.196 16.9106 8.99563L17.2984 8.23038L18.045 9.3627L18.0133 9.30963C18.3821 9.87078 18.6052 10.3228 18.9656 10.8705C18.977 10.86 19.0325 10.945 19.0659 10.9826C19.0661 11.115 21.2687 14.1588 21.358 14.3747L21.4784 14.548C22.1953 15.7306 22.846 17.0078 23.4954 18.0021C23.6629 18.2023 23.8442 18.4318 23.9935 18.5954C24.0802 18.788 24.1527 18.7917 24.2819 19.0093C24.5049 19.6241 24.7587 19.9106 24.6236 19.6051C24.9245 20.0408 25.199 20.4944 25.4559 20.8877L25.6253 21.1232L25.7236 21.2445C25.7855 21.3194 25.7867 21.3606 25.7561 21.3754C25.7887 21.4127 25.816 21.4541 25.8375 21.4983C25.7789 21.4931 25.7235 21.479 25.6045 21.4741C25.5447 21.4516 25.5031 21.4722 25.3274 21.5012C25.0046 21.5348 24.6792 21.5726 24.6066 21.5674L24.6901 21.5576C24.0979 21.5672 23.7015 21.485 23.1228 21.4985C21.5141 21.5121 19.7594 21.602 18.2695 21.6308C18.2564 21.6823 18.5976 21.6094 18.6171 21.6765L15.964 21.6769C15.8199 21.6697 15.6764 21.6555 15.5338 21.6344C15.25 21.624 15.3674 21.6638 15.1598 21.6636L15.1303 21.6184C14.8285 21.6654 14.6856 21.5808 14.4008 21.6087C14.3302 21.6322 14.2553 21.6411 14.1808 21.6349C14.1741 21.5862 13.8687 21.6479 13.882 21.6028L13.8791 21.6066C13.8193 21.61 13.7594 21.6098 13.6996 21.606L12.3831 21.8184L12.3279 21.8121C12.1652 21.8185 12.0968 21.8569 12.1921 21.8628L11.9913 21.8662L12.0144 21.8621L11.8147 21.8655C11.7778 21.8623 11.7354 21.8409 11.7914 21.8176C11.6753 21.8399 11.557 21.8494 11.4388 21.846C11.7543 21.8665 12.1464 21.8972 12.4769 21.9365C12.3423 21.9575 12.0973 21.9389 11.9508 21.9488C11.7749 21.9218 11.4142 21.9054 11.1336 21.8917C11.0721 21.8964 11.0316 21.9522 10.8912 21.9324C10.8219 21.8968 10.7336 21.9387 10.6167 21.915C10.7487 21.8969 10.882 21.8898 11.0153 21.8937C10.9907 21.85 10.6854 21.8736 10.5782 21.8643C10.5286 21.8798 10.2674 21.8734 10.1039 21.8907C10.1739 21.8459 9.97079 21.8675 9.87282 21.8475C9.76214 21.8458 9.69205 21.8651 9.73741 21.8787C9.70325 21.9263 10.178 21.893 10.0257 21.9465C9.90153 21.9322 9.7761 21.9318 9.65185 21.9453C9.65124 21.9707 9.73205 21.9621 9.65734 21.9886C9.5441 22.0022 9.42977 22.0053 9.31593 21.9977C9.35415 21.992 9.39288 21.9901 9.4315 21.9922C9.26268 21.9948 10.3405 21.7989 10.1226 21.8203C10.18 21.8411 9.16666 22 9.27903 21.9981C9.38223 22.0075 9.20689 22.0461 9.31361 22.0517L9.4308 22.0175C9.5766 22.0225 9.63773 22.065 9.58707 22.0839C9.34316 22.0874 10.2738 21.8898 10.0662 21.9218L10.1513 21.9312C10.0147 21.9584 9.87443 21.9641 9.73596 21.9481C9.7361 21.9731 9.61746 21.9856 9.51902 21.9977L9.48387 21.9945C9.38231 22.0103 9.23962 22.0087 9.30695 22.0398C9.90494 22.0174 8.92192 22.3063 9.50174 22.3031C9.25684 22.2552 9.58165 22.2439 9.8363 22.2296C9.94001 22.2655 10.0496 22.2828 10.1597 22.2806C10.3183 22.2714 10.2526 22.2574 10.2824 22.2425C10.3708 22.2523 10.5394 22.2575 10.5183 22.2873C10.6409 22.2488 10.7167 22.3034 10.8648 22.2869C10.9951 22.2669 10.8555 22.2721 10.9477 22.2525L11.5758 22.2486C11.6371 22.274 11.8228 22.3168 11.6902 22.3632C11.3924 22.3665 11.8013 22.2908 11.4919 22.3094C11.6273 22.3677 11.2184 22.3348 11.1636 22.3838C11.3182 22.4056 11.4751 22.4077 11.6302 22.3901L11.5964 22.3829C11.7963 22.3601 11.9982 22.358 12.1986 22.3766C12.1617 22.3996 12.2319 22.414 12.1237 22.4227L12.3268 22.4206C12.3524 22.4129 12.3786 22.405 12.32 22.4017C12.4075 22.3856 12.4974 22.3847 12.5852 22.3991C12.6081 22.4215 13.6615 22.2686 13.6292 22.2842C13.737 22.2957 13.8458 22.2959 13.9537 22.2848C13.9682 22.2655 12.5587 22.4069 12.7517 22.3935C12.8775 22.415 14.4049 22.2269 14.4973 22.268C14.6055 22.263 14.7361 22.2541 14.7099 22.2313C14.8933 22.2372 14.6565 22.2779 14.7876 22.2959C14.7904 22.2921 14.7765 22.2845 14.8181 22.284L14.9444 22.3099C15.2275 22.2647 15.6459 22.2994 15.9419 22.2421C15.8221 22.2906 15.697 22.3257 15.5689 22.3467L15.535 22.3354C15.508 22.3434 15.3506 22.3564 15.3558 22.3797C15.5326 22.3897 15.71 22.3803 15.8846 22.3518L15.9895 22.3678L15.9863 22.3587C16.0493 22.3713 16.0428 22.3739 16.0202 22.3838L16.0072 22.3895C16.1235 22.4548 16.7201 22.3241 17.0535 22.3495C17.1511 22.3368 17.0624 22.3376 17.1838 22.3207C17.5243 22.3375 17.7592 22.3514 18.1147 22.3564C18.2272 22.3233 18.2356 22.3113 18.0976 22.2845L18.3661 22.2859C18.1248 22.3723 18.8693 22.3459 18.6031 22.4329C18.7325 22.4485 18.8635 22.4475 18.9927 22.43C19.0071 22.4097 19.0296 22.3771 19.2186 22.3714L19.638 22.4007C19.6903 22.4249 19.6108 22.4376 19.6207 22.4579C19.9554 22.4145 19.9156 22.5051 20.2322 22.4905C20.4343 22.4946 20.6359 22.4696 20.8303 22.4161C21.0979 22.41 21.0989 22.4432 21.0736 22.4808Z" fill="currentColor"/>
<path d="M20.7831 20.5442L20.9236 20.5503C20.4689 20.5505 19.991 20.5311 19.5201 20.5093C20.5151 20.7472 21.5556 20.7417 22.5479 20.4934C23.2196 20.6752 23.9169 20.7519 24.6136 20.7205L24.9239 20.6953L24.3995 19.9989L23.4446 18.6803C23.2464 18.4036 23.0528 18.1167 22.862 17.8222C22.4804 17.2333 22.1096 16.6138 21.7339 15.983C21.3137 15.2852 20.1262 13.4184 19.7095 12.6946L19.5239 12.3819L19.7201 12.7367L18.8324 11.6198C18.8476 11.7154 18.8749 11.8087 18.9137 11.8978L18.8024 11.6987C18.5804 11.4696 18.3772 11.224 18.1946 10.9643C18.2675 11.0042 18.1208 10.7683 17.9864 10.5545L18.025 10.6593L17.1821 9.38815L16.7027 10.5715C16.6738 10.6458 16.6347 10.7159 16.5863 10.7801L16.3587 11.4103C16.3248 11.3554 16.1555 11.7819 16.2173 11.5467C16.1301 11.9194 15.948 12.2613 15.8697 12.6184C15.3838 13.8152 14.8963 15.0997 14.4679 16.3654L14.4985 16.3422C14.3829 16.8113 14.2303 17.2712 14.0422 17.7178C13.9215 18.087 13.8423 18.4676 13.8059 18.8532C13.6411 19.2914 13.6208 19.4838 13.4718 19.9184C13.5672 19.8284 13.3622 20.3542 13.4874 20.1605C13.674 19.9061 13.6205 19.8675 13.7759 19.6504L13.7561 19.651C14.2922 18.5651 14.7965 17.4652 15.2867 16.3439C15.5556 15.5732 15.9283 14.7686 16.2393 13.9794C16.5673 13.1344 16.9201 12.1881 17.166 11.4756C17.1711 11.4499 17.1835 11.4261 17.2019 11.4069C17.2204 11.3877 17.244 11.3738 17.2701 11.367C17.2914 11.2945 17.3209 11.2144 17.3528 11.132L17.8224 11.8024L17.8018 11.7681C18.0488 12.1254 18.1813 12.4256 18.4228 12.7743C18.4346 12.7645 18.4716 12.8188 18.496 12.8412C18.4762 12.94 19.9979 14.8445 20.0456 14.9908L20.1278 15.1001C20.5941 15.8631 20.9865 16.708 21.4205 17.3418C21.541 17.4633 21.6694 17.6043 21.7789 17.7016C21.8279 17.8309 21.8926 17.8215 21.9759 17.9624C22.0837 18.3842 22.2687 18.5556 22.1932 18.3502C22.3982 18.6252 22.5766 18.9179 22.7482 19.1687C22.786 19.2164 22.847 19.2989 22.866 19.3176L22.9361 19.3917C22.9804 19.4372 22.9754 19.4679 22.9456 19.4842C23.0418 19.593 22.9762 19.5575 23.0152 19.6427C22.9974 19.6389 23.0067 19.6549 23.0326 19.6845C22.9917 19.6993 22.8768 19.7654 22.8259 19.754L22.8445 19.7469C22.7657 19.7419 22.6885 19.7226 22.6169 19.6902C22.4583 19.6571 22.2969 19.6386 22.1347 19.6349C21.0954 19.5917 19.9596 19.6198 18.9966 19.5962C18.9866 19.6472 19.2091 19.5864 19.2198 19.6541C18.6518 19.6412 18.0795 19.5737 17.5063 19.5611C17.4128 19.5486 17.3203 19.5294 17.2297 19.5034C17.0467 19.4831 17.1214 19.5271 16.9874 19.5195L16.9696 19.4733C16.7734 19.5096 16.6835 19.4201 16.4988 19.4379C16.4889 19.4564 16.4215 19.4583 16.356 19.4564C16.353 19.4075 16.154 19.4584 16.1639 19.4138L16.1619 19.4175C16.1232 19.4188 16.0843 19.4165 16.046 19.4106L15.1897 19.5765L15.1543 19.5682C15.049 19.5689 15.0037 19.6049 15.0651 19.6141L14.9353 19.6104L14.9503 19.6072L14.8213 19.6035C14.7975 19.599 14.7708 19.5761 14.8076 19.5549C14.733 19.573 14.6556 19.5783 14.5791 19.5708C14.7822 19.6024 15.0346 19.6469 15.2469 19.6978C15.1335 19.7014 15.02 19.6993 14.9068 19.6915C14.7333 19.6528 14.5576 19.6242 14.3807 19.6057C14.3408 19.6082 14.3131 19.6626 14.223 19.6379C14.1792 19.5999 14.121 19.6386 14.0462 19.6108C14.1315 19.5974 14.2182 19.595 14.3042 19.6035C14.2896 19.559 14.0918 19.5719 14.0228 19.5588C13.9903 19.5726 13.8218 19.5569 13.7157 19.5685C13.7622 19.5261 13.6304 19.5406 13.5677 19.5172C13.4963 19.5116 13.4504 19.5284 13.4794 19.5437C13.4559 19.59 13.7635 19.5735 13.6636 19.6215C13.5846 19.603 13.5029 19.5981 13.4222 19.6071C13.4211 19.6325 13.4735 19.6268 13.4245 19.6506C13.3407 19.6445 13.2516 19.6743 13.2037 19.6477C13.2284 19.6433 13.2537 19.6428 13.2785 19.6463C13.1694 19.643 13.8712 19.4851 13.7298 19.4988C13.7663 19.5216 13.1073 19.6448 13.1799 19.6468C13.2463 19.6598 13.132 19.6923 13.2007 19.7016L13.2774 19.6715C13.3714 19.6816 13.4097 19.7262 13.3764 19.7434C13.2188 19.7383 13.8255 19.5736 13.6904 19.5982L13.7451 19.6107C13.6571 19.633 13.5648 19.6338 13.4764 19.6129C13.4758 19.6379 13.3988 19.6462 13.3349 19.6548L13.3123 19.6504C13.2463 19.6626 13.1541 19.656 13.1967 19.6894C13.5836 19.6881 12.9405 19.9422 13.315 19.9594C13.1582 19.9029 13.3683 19.9031 13.5332 19.8978C13.5954 19.9359 13.667 19.9574 13.7406 19.9601C13.8433 19.9565 13.8012 19.9402 13.8209 19.9263C13.8777 19.9392 13.9864 19.9504 13.9719 19.9794C14.0522 19.9453 14.0997 20.0025 14.1957 19.9912C14.2804 19.9758 14.1901 19.9761 14.2503 19.9598L14.656 19.978C14.6949 20.0056 14.8136 20.0548 14.7266 20.0965C14.5341 20.0893 14.8005 20.028 14.6001 20.0358C14.6858 20.0988 14.4227 20.0516 14.3859 20.0986C14.4837 20.1257 14.5861 20.1334 14.6871 20.1213L14.6655 20.1129C14.7951 20.0972 14.9266 20.1022 15.0545 20.1278C15.0301 20.1495 15.075 20.1663 15.0049 20.1712L15.1361 20.1763C15.1528 20.1695 15.17 20.1625 15.1322 20.1572C15.1889 20.1442 15.2482 20.1465 15.3036 20.1639C15.3177 20.1871 16.0024 20.0714 15.9811 20.0858C16.0757 20.0858 16.0983 20.1207 16.1906 20.0979C16.2005 20.0791 15.2862 20.1707 15.4112 20.1641C15.4918 20.1901 16.4836 20.0559 16.5421 20.1002C16.6122 20.099 16.6967 20.0947 16.6805 20.0711C16.7988 20.0834 16.6447 20.1157 16.7288 20.1383C16.7307 20.1346 16.722 20.1265 16.7489 20.1275L16.8297 20.1578C17.0138 20.1226 17.283 20.172 17.4759 20.1252C17.4002 20.1682 17.3178 20.1991 17.232 20.2166L17.2104 20.2041C17.1927 20.2112 17.0907 20.2186 17.0934 20.2421C17.2072 20.2582 17.323 20.2551 17.4357 20.2328L17.503 20.2524L17.5012 20.2432C17.5415 20.2581 17.5372 20.2605 17.5224 20.2695L17.5138 20.2748C17.5871 20.3441 17.9761 20.2345 18.1907 20.2716C18.2541 20.2623 18.1967 20.26 18.2757 20.2474C18.495 20.2762 18.6463 20.2983 18.8758 20.3158C18.9494 20.2867 18.9552 20.2749 18.8668 20.2434L19.0402 20.2543C18.8819 20.3321 19.3635 20.3319 19.189 20.4095C19.2713 20.4295 19.3569 20.4332 19.4407 20.4203C19.4506 20.4004 19.4661 20.3687 19.5883 20.3696L19.8583 20.4137C19.8913 20.4397 19.8396 20.4496 19.8454 20.4703C20.0629 20.4387 20.0346 20.5278 20.2395 20.5243C20.3678 20.5176 20.6213 20.5163 20.6279 20.4711C20.8008 20.4743 20.8006 20.5075 20.7831 20.5442Z" fill="currentColor"/>
<path d="M17.7228 9.52308L17.7281 9.51131C17.728 9.55248 17.7169 9.59293 17.696 9.62876C17.8552 9.54317 17.996 9.44201 17.6576 9.3753C17.8376 9.3683 17.9213 9.28513 17.877 9.28339C17.848 9.26846 17.8205 9.25086 17.795 9.23083C17.8089 9.24393 17.8237 9.25609 17.8393 9.26721C17.8237 9.25609 17.8089 9.24393 17.795 9.23083C17.6555 9.11876 17.7167 8.99729 17.7865 8.87162C17.8212 8.75889 17.8635 8.64845 17.9129 8.54102C17.9194 8.53095 17.9254 8.52057 17.9307 8.5099L17.8984 8.54455C17.8537 8.50691 17.8117 8.46628 17.7728 8.42299C17.7432 8.42784 17.7142 8.43584 17.6864 8.44681L17.7036 8.42732C17.6289 8.40945 17.6322 8.36845 17.6007 8.34913C17.6399 8.35332 17.6477 8.33814 17.6536 8.32475L17.6277 8.33002C17.644 8.27918 17.6123 8.22012 17.6172 8.17467C17.6171 8.16833 17.6318 8.16359 17.6453 8.16075L17.615 8.11712C17.6675 8.12053 17.6612 8.08104 17.694 8.10187C17.6321 8.06918 17.6701 8.03617 17.6059 8.00496C17.5963 7.87993 17.5494 7.76029 17.471 7.66052L17.4515 7.66332C17.4168 7.62307 17.3136 7.58749 17.3479 7.53862C17.2847 7.49012 17.2108 7.45634 17.1319 7.43991C17.117 7.3996 17.0621 7.38347 17.0338 7.34393C16.9798 7.35406 16.9685 7.30547 16.9265 7.32487C16.8508 7.351 16.9152 7.35251 16.8541 7.37469L16.8723 7.37405C16.7985 7.46641 16.7462 7.57311 16.719 7.68685C16.7648 7.75712 16.7271 7.83323 16.7409 7.90626C16.7609 7.988 16.7945 8.06605 16.8403 8.1374C16.8558 8.15352 16.8106 8.16506 16.7852 8.17875C16.8095 8.24078 16.791 8.31965 16.8205 8.38964L16.8224 8.3862C16.8313 8.42337 16.7757 8.45115 16.7849 8.48744C16.8003 8.48728 16.8013 8.4929 16.8093 8.49565C16.7376 8.50187 16.9585 8.70944 16.9172 8.72219L16.9256 8.73386C16.8934 8.81042 16.7534 8.88947 16.7659 8.95522C16.7989 8.97108 16.8328 8.98526 16.8674 8.99769C16.8366 9.00929 16.8963 9.01158 16.888 9.02561C16.7439 9.06102 16.8042 9.08192 16.8551 9.06361C16.8745 9.0929 16.8617 9.12225 16.8667 9.14825C16.8772 9.16033 16.8882 9.17232 16.9006 9.1845C16.9126 9.19484 16.8913 9.20058 16.8572 9.20574C16.8775 9.2322 16.842 9.22436 16.8274 9.25206C16.777 9.2587 16.9074 9.32165 16.8921 9.32947L16.8846 9.32493C16.8758 9.35696 16.7784 9.37812 16.774 9.40945C16.737 9.49643 16.7742 9.59153 16.7568 9.67213C16.8095 9.67295 16.7451 9.65433 16.815 9.65348C16.8057 9.70101 16.7402 9.74889 16.7313 9.79686C16.7133 9.80699 16.694 9.81477 16.6738 9.81998C16.6541 9.8353 16.699 9.82907 16.6922 9.84028L16.6446 9.84174C16.6836 9.85816 16.5917 9.86566 16.6114 9.88116C16.6306 9.88198 16.6331 9.88764 16.6316 9.89313C16.5811 9.89335 16.6351 9.91003 16.589 9.90917L16.5928 9.90934C16.592 9.91262 16.5952 9.915 16.5865 9.91904C16.6043 9.92534 16.7426 9.9844 16.7641 9.99081L16.7557 9.99377C16.7573 10.0026 16.7948 10.0064 16.8038 10.0013L16.8009 10.0121L16.7975 10.0109L16.7947 10.0217C16.7782 10.025 16.7612 10.0254 16.7445 10.0228C16.7621 10.0289 16.7717 10.0358 16.7626 10.0419C16.8031 10.02 16.8454 10.0013 16.889 9.9861C16.9064 9.99344 16.8794 10.0066 16.8849 10.0146C16.8544 10.0248 16.8258 10.0397 16.8001 10.0586C16.803 10.0619 16.8593 10.0642 16.8345 10.0718C16.7956 10.0754 16.8359 10.0803 16.8078 10.0866C16.7871 10.0793 16.7964 10.0723 16.7984 10.0649C16.7526 10.0662 16.7673 10.0827 16.7543 10.0885C16.7687 10.0912 16.7538 10.1053 16.7665 10.1142C16.7224 10.1103 16.7383 10.1213 16.7146 10.1265C16.7093 10.1325 16.727 10.1364 16.7426 10.1339C16.7907 10.1359 16.7713 10.1101 16.8217 10.1185C16.7985 10.1207 16.8065 10.1324 16.8086 10.1387C16.8348 10.1388 16.8285 10.1345 16.8535 10.1386C16.8477 10.1456 16.8792 10.153 16.852 10.157C16.8449 10.1557 16.8494 10.1528 16.85 10.1508C16.8474 10.1599 16.6793 10.1011 16.6945 10.1129C16.7178 10.1099 16.8497 10.1651 16.8513 10.159C16.8643 10.1535 16.8986 10.1631 16.9077 10.1573L16.8761 10.1509C16.8995 10.1425 16.9248 10.1396 16.9496 10.1427C16.9455 10.1559 16.771 10.105 16.7975 10.1163L16.8099 10.1117C16.8269 10.1165 16.8417 10.1293 16.8141 10.1342C16.8299 10.1333 16.8454 10.1375 16.8584 10.1461L16.8541 10.148C16.8672 10.1535 16.861 10.1612 16.8952 10.1577C16.8911 10.1253 17.1581 10.1793 17.1731 10.1479C17.1159 10.1611 17.1146 10.1434 17.1079 10.1296C17.1299 10.1285 17.1514 10.1226 17.1707 10.1123C17.1662 10.1037 17.1498 10.1072 17.1353 10.1056C17.1516 10.0965 17.1702 10.0921 17.189 10.0929C17.1532 10.0862 17.2119 10.0823 17.1995 10.0742C17.183 10.0671 17.184 10.0747 17.1667 10.0696C17.1702 10.0576 17.1756 10.0462 17.1826 10.0357C17.2227 10.0281 17.2637 10.0261 17.3044 10.0298C17.2984 10.0459 17.2332 10.0236 17.2426 10.0404C17.307 10.0332 17.2602 10.0552 17.309 10.0583C17.338 10.053 17.3384 10.0422 17.3303 10.0332L17.3218 10.035C17.3133 10.027 17.2999 10.011 17.3344 10.0024C17.357 10.0045 17.374 10.0007 17.3795 10.0066L17.3838 9.9956C17.3774 9.99339 17.3705 9.9935 17.3642 9.99591C17.3466 9.99071 17.3564 9.98553 17.3698 9.98156C17.3937 9.98039 17.2692 9.92302 17.2843 9.92483C17.2835 9.9169 17.3195 9.91502 17.2952 9.90728C17.2757 9.90646 17.377 9.98304 17.3693 9.97256C17.3956 9.96583 17.2497 9.88272 17.2951 9.87785C17.2933 9.87199 17.2883 9.86491 17.264 9.86625C17.2758 9.85639 17.3103 9.86927 17.333 9.86224L17.3218 9.8606L17.3524 9.85384C17.3148 9.83842 17.3638 9.8159 17.3141 9.79974C17.3467 9.80357 17.3789 9.81042 17.4102 9.82021L17.3975 9.822C17.4099 9.82822 17.4236 9.8316 17.4376 9.83186C17.4537 9.82201 17.4493 9.81359 17.4255 9.80319L17.4453 9.79757C17.4421 9.79757 17.4394 9.79777 17.4358 9.79774C17.4445 9.79498 17.4538 9.79438 17.4628 9.79597L17.4683 9.79668C17.5393 9.79058 17.4233 9.75796 17.4601 9.74001C17.4501 9.7347 17.4481 9.73949 17.4345 9.73288C17.4589 9.71927 17.4813 9.70239 17.5008 9.6827C17.4763 9.67616 17.4504 9.67639 17.4261 9.68339L17.4361 9.6689C17.5176 9.6822 17.5139 9.64187 17.5953 9.65651C17.6139 9.65229 17.6177 9.64361 17.6046 9.63547C17.584 9.63465 17.5511 9.6333 17.5512 9.62307C17.5649 9.61132 17.5815 9.60317 17.5994 9.59941C17.6172 9.59565 17.6358 9.59641 17.6533 9.60161C17.6191 9.58338 17.7113 9.5858 17.7062 9.56865C17.6984 9.5579 17.6952 9.53667 17.6485 9.5361C17.6506 9.52155 17.6848 9.5216 17.7228 9.52308Z" fill="currentColor"/>
<path d="M26.1909 21.0966L26.1826 21.0851C26.2215 21.1103 26.2537 21.1439 26.2767 21.1833C26.2834 21.0023 26.2651 20.8266 26.0139 21.0582C26.107 20.9088 26.0742 20.7902 26.048 20.8248C26.0174 20.8391 25.9853 20.8504 25.9524 20.8586C25.7682 20.902 25.6864 20.7779 25.6053 20.6443C25.5174 20.5474 25.4356 20.4454 25.3603 20.339C25.3543 20.3275 25.3477 20.3163 25.3405 20.3055L25.3556 20.3529C25.2945 20.3658 25.2325 20.3746 25.1702 20.3793C25.1583 20.4063 25.1498 20.4346 25.1449 20.4636L25.1359 20.4377C25.0774 20.4869 25.0402 20.459 25.0043 20.4725C25.03 20.4435 25.0199 20.4279 25.0104 20.4149L25.0011 20.439C24.9617 20.3945 24.8877 20.3838 24.8471 20.3518C24.8411 20.348 24.8447 20.3333 24.8495 20.3206L24.7911 20.3182C24.8235 20.278 24.7823 20.2587 24.8204 20.2451C24.7549 20.2749 24.7445 20.224 24.6792 20.2565C24.5567 20.1878 24.4176 20.1522 24.2761 20.1532L24.2679 20.1706C24.2103 20.1738 24.1192 20.2351 24.0916 20.1774C24.0195 20.2121 23.9517 20.2112 23.8778 20.2906C23.8311 20.2779 23.7852 20.3122 23.7319 20.3106C23.7116 20.3604 23.659 20.3396 23.6542 20.3853C23.6372 20.4624 23.6743 20.4115 23.6616 20.4744L23.671 20.4593C23.7194 20.5775 23.7919 20.685 23.8841 20.7754C23.9765 20.7818 24.0282 20.859 24.1054 20.8928C24.1935 20.9267 24.2863 20.9477 24.3809 20.9549C24.4048 20.9524 24.3907 20.9959 24.3897 21.0247C24.4623 21.0434 24.5272 21.1069 24.6103 21.1261L24.608 21.1225C24.6484 21.1381 24.644 21.2 24.6838 21.215C24.6921 21.2025 24.698 21.2051 24.7051 21.2003C24.6713 21.2619 24.9916 21.2117 24.9809 21.2528C24.9861 21.2523 24.9914 21.2524 24.9966 21.2532C25.0517 21.3263 25.0494 21.4878 25.119 21.5182C25.1523 21.5014 25.1846 21.4828 25.2158 21.4625C25.2098 21.4945 25.2451 21.4478 25.2538 21.4631C25.2076 21.601 25.261 21.5653 25.2718 21.513C25.3105 21.5154 25.3314 21.5437 25.3589 21.5558C25.3762 21.5547 25.3938 21.5532 25.4123 21.5507C25.4288 21.5474 25.4224 21.5681 25.4084 21.5988C25.4449 21.5987 25.4177 21.6225 25.436 21.6513C25.4144 21.696 25.5467 21.6297 25.5457 21.6468L25.5372 21.65C25.5628 21.6769 25.529 21.7684 25.5564 21.7912C25.6188 21.8746 25.73 21.9031 25.7973 21.9668C25.8273 21.9248 25.7738 21.9652 25.8117 21.9084C25.8519 21.9451 25.8612 22.0274 25.902 22.0641C25.9017 22.0846 25.8984 22.105 25.8922 22.1246C25.8958 22.1499 25.9148 22.1099 25.9217 22.1223L25.8967 22.1616C25.934 22.1403 25.8902 22.2189 25.9158 22.2125C25.9273 22.1976 25.9341 22.199 25.9384 22.2036C25.9107 22.2444 25.9565 22.2112 25.9301 22.2479L25.9324 22.2449C25.9351 22.2476 25.9392 22.2464 25.9382 22.2559C25.954 22.2455 26.087 22.1704 26.105 22.157L26.1032 22.1656C26.1124 22.1698 26.1369 22.1419 26.137 22.1314L26.1458 22.1405L26.1427 22.1425L26.1514 22.1514C26.1454 22.1667 26.1363 22.1807 26.1246 22.1925C26.1402 22.1821 26.1521 22.1787 26.1529 22.1897C26.1544 22.1439 26.16 22.0984 26.1698 22.0535C26.1864 22.0441 26.184 22.0739 26.1946 22.0743C26.1875 22.1056 26.1858 22.1379 26.1895 22.1697C26.1943 22.1694 26.2278 22.1255 26.2212 22.1502C26.2031 22.1838 26.2301 22.1543 26.2205 22.1808C26.2021 22.193 26.2006 22.1812 26.1947 22.1751C26.1704 22.2128 26.1944 22.2111 26.1927 22.2251C26.2033 22.2151 26.2084 22.2359 26.2239 22.2311C26.1958 22.2642 26.2151 22.2582 26.207 22.2805C26.2097 22.2885 26.2232 22.2766 26.2295 22.2625C26.258 22.2251 26.2228 22.2248 26.2587 22.1894C26.2479 22.2094 26.2635 22.2102 26.2707 22.2124C26.2853 22.1913 26.2776 22.1937 26.2954 22.1761C26.2989 22.185 26.3235 22.1643 26.3122 22.1886C26.307 22.1935 26.3068 22.1881 26.3052 22.1864C26.3124 22.1941 26.1631 22.2934 26.1828 22.2884C26.1928 22.2678 26.3186 22.1955 26.3137 22.1904C26.3156 22.1766 26.3438 22.1548 26.3434 22.1439L26.3197 22.1655C26.3246 22.1416 26.336 22.1193 26.3527 22.1011C26.3629 22.1126 26.2177 22.2218 26.2432 22.2075L26.2457 22.1947C26.2597 22.1839 26.2801 22.1799 26.2695 22.2051C26.2775 22.1918 26.2903 22.1817 26.3054 22.1767L26.3047 22.1814C26.3173 22.1742 26.3212 22.184 26.3368 22.1542C26.3036 22.1376 26.5032 21.9556 26.4816 21.9242C26.4624 21.9784 26.4449 21.9687 26.428 21.9655C26.4392 21.9469 26.4455 21.9258 26.4463 21.9043C26.4357 21.9026 26.4299 21.918 26.4203 21.9286C26.4206 21.9103 26.4268 21.8924 26.4381 21.8776C26.4118 21.9023 26.4406 21.8526 26.426 21.8576C26.4101 21.8665 26.4179 21.8704 26.4035 21.8812C26.3941 21.8711 26.3861 21.8597 26.3799 21.8475C26.3948 21.8106 26.4158 21.7762 26.4419 21.7457C26.4539 21.7605 26.3965 21.7993 26.4177 21.802C26.4466 21.7457 26.4416 21.797 26.4716 21.7596C26.4827 21.7329 26.4726 21.726 26.4594 21.7269L26.4564 21.7349C26.4441 21.7368 26.4214 21.7378 26.4324 21.7047C26.4469 21.6877 26.4527 21.6717 26.4614 21.6709L26.4533 21.6607C26.448 21.6656 26.4426 21.6706 26.4427 21.6767C26.428 21.6876 26.4285 21.6765 26.4322 21.6633C26.4443 21.6433 26.3206 21.7083 26.3306 21.6973C26.3227 21.693 26.3408 21.6629 26.32 21.6777C26.3084 21.6929 26.4376 21.6584 26.4233 21.6582C26.4314 21.6329 26.2714 21.6993 26.2919 21.6597C26.2853 21.6575 26.2758 21.6572 26.2636 21.6776C26.2607 21.662 26.2922 21.6421 26.2981 21.6195L26.2902 21.6275L26.3008 21.5987C26.2652 21.6195 26.2709 21.5661 26.2279 21.5963C26.2498 21.5723 26.2742 21.5505 26.3008 21.5314L26.2954 21.5428C26.308 21.5367 26.3189 21.5277 26.327 21.5165C26.3266 21.4975 26.3161 21.4958 26.293 21.5086L26.2986 21.4892L26.2935 21.497C26.2957 21.4883 26.3003 21.4804 26.3068 21.4741L26.3105 21.4701C26.3441 21.4091 26.2487 21.4825 26.252 21.4418C26.2414 21.4466 26.2448 21.4512 26.231 21.4581C26.2316 21.4296 26.2278 21.4012 26.22 21.3737C26.2002 21.3894 26.186 21.4106 26.1792 21.4344L26.1709 21.4174C26.2288 21.3599 26.1883 21.3381 26.2474 21.2815C26.2537 21.2639 26.2476 21.2555 26.2325 21.2611C26.2203 21.2771 26.2008 21.3028 26.1911 21.2965C26.191 21.2801 26.1919 21.2638 26.1937 21.2475C26.2037 21.2312 26.2149 21.2157 26.2272 21.201C26.1909 21.2173 26.2444 21.1445 26.2252 21.138C26.2131 21.1346 26.2002 21.1353 26.1887 21.1402C26.1772 21.145 26.1678 21.1537 26.1621 21.1646C26.1494 21.1539 26.1684 21.1263 26.1909 21.0966Z" fill="currentColor"/>
<path d="M10.4113 22.2446L10.4302 22.2392C10.3754 22.2725 10.3152 22.2966 10.2521 22.3104C10.454 22.3699 10.6675 22.4013 10.579 22.0684C10.6843 22.2102 10.8428 22.2098 10.8216 22.172C10.827 22.1342 10.8366 22.097 10.85 22.061C10.8397 22.0827 10.8309 22.1049 10.8237 22.1277C10.8309 22.1049 10.8397 22.0827 10.85 22.061C10.9294 21.8536 11.1283 21.8029 11.3376 21.7557C11.4516 21.7263 11.7322 21.6014 11.8578 21.5849C11.8755 21.5817 11.8928 21.5781 11.9099 21.5736L11.8452 21.5759C11.874 21.5059 11.9073 21.4378 11.9449 21.3719C11.9217 21.3511 11.8952 21.3338 11.8664 21.3208L11.9022 21.3187C11.887 21.2426 11.945 21.2113 11.9547 21.1694C11.9698 21.205 11.9947 21.1988 12.0162 21.1925L11.9952 21.1757C12.0675 21.1345 12.1368 21.0885 12.2025 21.038C12.2111 21.0327 12.2254 21.0408 12.2365 21.0495L12.2802 20.9885C12.3034 21.0343 12.3541 20.9964 12.3431 21.0406C12.3549 20.9626 12.4204 20.9663 12.429 20.8878C12.5883 20.7827 12.7244 20.6478 12.8292 20.4911L12.815 20.4774C12.8517 20.4155 12.8455 20.3012 12.9308 20.2888C12.9415 20.2024 12.9901 20.1309 12.9512 20.0297C12.9985 19.984 12.9914 19.9255 13.0306 19.8695C12.9879 19.8335 13.0485 19.7839 12.9997 19.7656C12.9236 19.7253 12.9558 19.7793 12.8929 19.7476L12.9035 19.762C12.7273 19.781 12.5553 19.8262 12.3934 19.896C12.3214 19.9919 12.1972 20.0243 12.1045 20.0962C12.0061 20.1775 11.9176 20.2692 11.8406 20.3698C11.8268 20.3959 11.7869 20.3684 11.7547 20.359C11.6826 20.4304 11.5647 20.4807 11.4845 20.5631L11.4902 20.5617C11.444 20.6 11.3764 20.5774 11.3316 20.6151C11.34 20.6276 11.3329 20.6331 11.3334 20.642C11.2867 20.5883 11.1198 20.9419 11.0804 20.9187C11.0771 20.9246 11.0733 20.9301 11.0688 20.9352C10.9468 20.9723 10.7641 20.9232 10.6806 20.988C10.6765 21.0274 10.6751 21.067 10.6764 21.1066C10.6442 21.0909 10.6727 21.1418 10.6491 21.1467C10.524 21.0579 10.5274 21.1247 10.5796 21.1512C10.5498 21.1915 10.5028 21.2054 10.4698 21.231C10.4588 21.2497 10.4482 21.2687 10.4382 21.289C10.4304 21.3075 10.4112 21.2947 10.386 21.271C10.3605 21.3097 10.3524 21.274 10.3067 21.2851C10.2708 21.2493 10.2538 21.4085 10.235 21.4024L10.2373 21.3925C10.1887 21.4119 10.1079 21.3496 10.0627 21.372C9.93504 21.4319 9.81176 21.5 9.69365 21.576C9.72048 21.62 9.71181 21.5517 9.75011 21.6083C9.68009 21.6402 9.57964 21.6262 9.50925 21.6588C9.48702 21.653 9.46596 21.6435 9.44701 21.6308C9.41557 21.6274 9.44794 21.659 9.42896 21.6627L9.40165 21.6249C9.39982 21.6705 9.34079 21.6014 9.33006 21.6304C9.33911 21.6469 9.33271 21.6536 9.32439 21.6569C9.29726 21.6157 9.30309 21.6738 9.27974 21.6353L9.28153 21.6386C9.27657 21.6407 9.27508 21.6453 9.26492 21.6415C9.26577 21.6613 9.25832 21.8238 9.26095 21.8467L9.25247 21.8424C9.2412 21.8509 9.25585 21.8848 9.26773 21.888L9.25132 21.8947L9.25121 21.8908L9.2349 21.8974C9.22175 21.8869 9.21197 21.8729 9.2067 21.8572C9.20765 21.8767 9.2033 21.8903 9.19011 21.888C9.23989 21.9022 9.28803 21.9214 9.33378 21.9452C9.33293 21.9655 9.30058 21.9544 9.29261 21.9655C9.25991 21.9483 9.22418 21.9371 9.18726 21.9325C9.18423 21.9377 9.21094 21.9858 9.18743 21.9717C9.16174 21.9428 9.17648 21.98 9.15296 21.962C9.15187 21.939 9.16653 21.9409 9.17756 21.9365C9.15153 21.8998 9.13665 21.9257 9.12186 21.9198C9.1258 21.9339 9.09851 21.9333 9.09312 21.9512C9.07506 21.9117 9.06837 21.934 9.04861 21.9189C9.03759 21.9195 9.04175 21.9372 9.05331 21.948C9.07613 21.989 9.10115 21.9518 9.11641 22C9.10115 21.9828 9.08927 21.9991 9.08177 22.0061C9.09554 22.0276 9.0982 22.0188 9.10586 22.0427C9.09319 22.0438 9.09968 22.0758 9.07979 22.0569C9.07781 22.05 9.08414 22.0512 9.08731 22.0501C9.07338 22.0555 9.06463 21.8687 9.05651 21.8911C9.07302 21.9076 9.06748 22.0617 9.07668 22.058C9.09115 22.064 9.09625 22.1001 9.109 22.1028L9.10099 22.0715C9.11696 22.073 9.14566 22.1079 9.15138 22.125C9.1311 22.1325 9.10808 21.9472 9.10663 21.9783L9.1195 21.9847C9.12196 22.0026 9.11228 22.0254 9.09094 22.0069C9.0957 22.0135 9.09882 22.0211 9.10008 22.0291C9.10134 22.0371 9.1007 22.0453 9.09822 22.0531L9.09331 22.0511C9.09268 22.0664 9.07885 22.0677 9.10189 22.0928C9.14407 22.0626 9.21206 22.3264 9.26296 22.3127C9.21462 22.2767 9.238 22.2609 9.25339 22.244C9.26789 22.2619 9.28789 22.2749 9.31051 22.2811C9.31991 22.2703 9.30636 22.2598 9.30092 22.2465C9.3105 22.2488 9.31948 22.253 9.32736 22.2588C9.33523 22.2646 9.34184 22.2718 9.34677 22.2801C9.33697 22.2451 9.37356 22.29 9.37803 22.2732C9.37895 22.2537 9.36914 22.2608 9.36685 22.2425C9.38013 22.2329 9.39609 22.2275 9.4126 22.227C9.42911 22.2265 9.44539 22.2309 9.45926 22.2396C9.47314 22.2483 9.48395 22.2608 9.49026 22.2756C9.49656 22.2904 9.49807 22.3067 9.49457 22.3223C9.46933 22.3308 9.46524 22.2588 9.44725 22.2804C9.4913 22.3274 9.43628 22.3073 9.45794 22.3499C9.48065 22.3693 9.49566 22.3605 9.5038 22.3464L9.49679 22.3409C9.50322 22.3273 9.518 22.303 9.54809 22.3242C9.55729 22.3444 9.57147 22.3553 9.56637 22.3647L9.5837 22.3591C9.58181 22.3521 9.57989 22.3448 9.5728 22.3432C9.57063 22.3245 9.58291 22.3283 9.59546 22.3359C9.60976 22.3546 9.62223 22.2048 9.62776 22.2186C9.63822 22.2115 9.65989 22.2394 9.65758 22.213C9.64839 22.1964 9.59728 22.3431 9.60754 22.328C9.63072 22.344 9.66705 22.1553 9.69786 22.1885C9.70496 22.1822 9.71197 22.1722 9.6972 22.1533C9.71704 22.1548 9.71771 22.1939 9.73942 22.2067C9.73762 22.2034 9.7322 22.1972 9.73574 22.196L9.76127 22.2155C9.76243 22.1719 9.81932 22.1934 9.81502 22.1392C9.82732 22.1699 9.83508 22.2022 9.83809 22.2351L9.82885 22.2261C9.82682 22.2402 9.82958 22.2546 9.83671 22.2672C9.85876 22.2722 9.86799 22.2616 9.86955 22.2334L9.88777 22.245L9.88253 22.2373C9.89516 22.2469 9.89596 22.2492 9.89929 22.258L9.90123 22.2631C9.94733 22.3163 9.93038 22.1941 9.97452 22.2094C9.97648 22.1967 9.96882 22.199 9.97068 22.1824C10.0046 22.1914 10.0396 22.1957 10.0747 22.1952C10.0729 22.1828 10.0683 22.1709 10.0613 22.1604C10.0542 22.1499 10.0449 22.1411 10.034 22.1344L10.0592 22.1305C10.0843 22.2085 10.1376 22.1719 10.1608 22.2508C10.1765 22.2626 10.1904 22.2585 10.1946 22.241C10.1848 22.2234 10.1691 22.1953 10.1832 22.1869C10.2015 22.1915 10.2196 22.1971 10.2372 22.2039C10.2487 22.2192 10.2587 22.2356 10.2668 22.2528C10.2736 22.2096 10.3193 22.2873 10.3401 22.2689C10.3507 22.2535 10.3781 22.2333 10.354 22.1945C10.375 22.1841 10.3931 22.2122 10.4113 22.2446Z" fill="currentColor"/>
</g>
<path d="M22.7564 19.311H13.6136C13.6136 19.311 16.8644 10.9997 17.2707 11.7384C17.6771 12.4772 22.7564 19.311 22.7564 19.311Z" fill="currentColor" stroke="currentColor"/>
<defs>
<filter id="filter0_d_577_37837" x="-0.433289" y="0.5" width="35.7128" height="40" filterUnits="userSpaceOnUse" color-interpolation-filters="sRGB">
<feFlood flood-opacity="0" result="BackgroundImageFix"/>
<feColorMatrix in="SourceAlpha" type="matrix" values="0 0 0 0 0 0 0 0 0 0 0 0 0 0 0 0 0 0 127 0" result="hardAlpha"/>
<feOffset dy="4"/>
<feGaussianBlur stdDeviation="2"/>
<feComposite in2="hardAlpha" operator="out"/>
<feColorMatrix type="matrix" values="0 0 0 0 0 0 0 0 0 0 0 0 0 0 0 0 0 0 0.12 0"/>
<feBlend mode="normal" in2="BackgroundImageFix" result="effect1_dropShadow_577_37837"/>
<feBlend mode="normal" in="SourceGraphic" in2="effect1_dropShadow_577_37837" result="shape"/>
</filter>
<filter id="filter1_d_577_37837" x="5.04218" y="6.59525" width="26.4317" height="24.0226" filterUnits="userSpaceOnUse" color-interpolation-filters="sRGB">
<feFlood flood-opacity="0" result="BackgroundImageFix"/>
<feColorMatrix in="SourceAlpha" type="matrix" values="0 0 0 0 0 0 0 0 0 0 0 0 0 0 0 0 0 0 127 0" result="hardAlpha"/>
<feOffset dy="4"/>
<feGaussianBlur stdDeviation="2"/>
<feComposite in2="hardAlpha" operator="out"/>
<feColorMatrix type="matrix" values="0 0 0 0 0.764706 0 0 0 0 0.560784 0 0 0 0 0 0 0 0 0.13 0"/>
<feBlend mode="normal" in2="BackgroundImageFix" result="effect1_dropShadow_577_37837"/>
<feBlend mode="normal" in="SourceGraphic" in2="effect1_dropShadow_577_37837" result="shape"/>
</filter>
</defs>
</svg>
