<svg width="36" height="41" viewBox="0 0 36 41" xmlns="http://www.w3.org/2000/svg">
<g filter="url(#filter0_d_577_37953)">
<path d="M4.06669 8.78868L17.4231 1.07735L30.7795 8.78868V24.2113L17.4231 31.9227L4.06669 24.2113V8.78868Z" fill="#F9F9F9" stroke="currentColor"/>
</g>
<path d="M9.96745 11.9189L9.95013 11.9342L9.8965 11.9936C9.81211 12.1463 9.70195 12.2843 9.57056 12.4019C9.57988 12.4094 9.60317 12.4007 9.55192 12.47C9.43389 12.5781 9.33602 12.7051 9.26262 12.8454C9.31096 12.7828 9.36489 12.7243 9.42379 12.6708L9.08337 13.0877C9.14944 13.0457 9.20903 13.0155 9.16503 13.0958C9.23684 13.0834 9.16531 13.2534 9.15998 13.3351C9.22738 13.2654 9.28235 13.2112 9.31054 13.1877C9.31779 13.2099 9.26492 13.2853 9.19395 13.3736C9.20615 13.3694 9.21766 13.3635 9.22814 13.3561C9.21766 13.3635 9.20615 13.3694 9.19395 13.3736L9.04218 13.5525C9.07489 13.5234 9.10771 13.4944 9.10083 13.5163L9.31108 13.2702C9.3214 13.2651 9.31756 13.2754 9.30749 13.2923L9.35274 13.2215L9.30164 13.2627C9.28017 13.274 9.30365 13.2372 9.32692 13.2008C9.35779 13.1608 9.39387 13.1248 9.43424 13.0937L9.53005 12.9492C9.54384 12.8774 9.21934 13.2804 9.37556 13.0467L9.43869 12.9866C9.52184 12.8868 9.59746 12.7813 9.66495 12.671C9.78183 12.5989 9.87712 12.3718 9.93594 12.391C10.2792 12.0308 10.6643 11.5107 11.0335 11.1715C11.0589 11.0815 11.0002 11.0345 11.1025 10.8406C11.1352 10.8117 11.1823 10.7659 11.175 10.7883L11.2566 10.6603C11.2088 10.7235 11.154 10.7815 11.0932 10.8331C11.2332 10.6415 10.9975 10.8942 10.9947 10.8649L11.1885 10.6057L11.1572 10.6294L9.97547 11.9063L9.96745 11.9189Z" fill="currentColor"/>
<path d="M19.3963 10.4563L19.3899 10.4121L21.7579 10.3797C22.4606 11.397 23.2047 12.4743 23.979 13.5955C22.9679 14.9976 21.9106 16.4638 20.8489 17.936C19.7649 19.4588 18.6788 20.9844 17.62 22.4717L17.565 22.2571L17.027 23.1206L16.959 23.2288L16.9349 23.2747L16.8816 23.3734L16.7557 23.5974L16.525 23.3438L16.4506 23.2576L16.3319 23.1105L16.096 22.8191L15.1814 21.7146L15.5037 22.2108C14.8724 21.5238 14.2912 20.795 13.7642 20.0299L13.8498 20.0737C14.5563 21.009 13.8152 20.0014 14.1928 20.318L14.3303 20.4704L14.2784 20.3618L14.1406 20.2092C14.175 20.2136 14.1916 20.1811 14.3121 20.3314L14.157 20.1088C13.9141 19.5683 13.9988 19.5095 14.1525 19.4935C14.0491 19.3788 14.0335 19.582 13.6881 19.0298L13.7741 19.0742L13.2921 18.5405L13.1534 18.2511C12.9922 18.0895 12.848 17.9128 12.723 17.7236L12.6031 17.7094C11.9477 16.7462 11.0008 15.6125 10.3622 14.617C10.139 14.4546 9.86172 13.8764 9.41449 13.3809L9.50213 13.6646C9.81392 14.3151 10.8476 15.6296 11.486 16.591L11.4175 16.5829C11.2516 16.408 11.1018 16.2195 10.9699 16.0194L10.8504 16.0056C10.8889 16.5911 12.1252 17.6551 12.3328 18.0206C12.782 18.7897 11.8352 17.656 12.0938 17.9934C11.4228 17.2671 12.3897 18.7789 12.5462 19.1726C13.4417 20.6545 14.4326 22.0805 15.5128 23.442L15.721 23.6871L15.8631 23.8651L16.0456 24.1007C16.292 24.424 16.5289 24.735 16.764 25.0436C17.2405 24.3572 17.7041 23.6891 18.1814 23.0013C18.5349 22.518 18.8968 22.0232 19.2568 21.531C19.975 20.564 20.6756 19.6376 21.2386 18.8365C21.9096 17.9309 22.6738 16.2648 23.3206 15.8285L24.6755 14.0052L24.6739 14.0956L25.0259 13.5992C24.7496 13.2057 24.4702 12.8078 24.1846 12.4009L23.5686 11.5529C23.1016 10.9182 22.6245 10.2698 22.1631 9.64282C21.4245 9.65981 20.7139 9.67618 20.0541 9.69134C19.1984 9.70229 18.9394 9.83051 18.5507 9.6915C16.8509 9.60017 14.8466 9.78764 13.1882 9.80429C13.1943 9.84858 12.9635 9.89528 13.27 9.9192C13.8947 9.83738 14.5305 9.89766 15.1269 10.0953L14.8092 10.0835L15.3764 10.1814L15.7404 10.1432C15.8335 10.1729 15.8752 10.1961 15.8816 10.2151C16.5058 10.2578 17.0486 10.3642 17.6955 10.4367C18.2621 10.3982 18.8309 10.4048 19.3963 10.4563V10.4563Z" fill="currentColor"/>
<path d="M16.1494 23.7434L16.1487 23.7515L16.1552 23.7774C16.203 23.7943 16.2125 23.8563 16.2278 23.9369C16.2392 23.9332 16.2486 23.9228 16.2636 23.9481C16.2818 24.0777 16.2843 24.0093 16.3373 24.0903C16.3281 24.063 16.3137 24.0299 16.3208 24.0127L16.3898 24.1788C16.404 24.1484 16.4222 24.1214 16.4498 24.1441C16.4888 24.1127 16.5618 24.1515 16.6162 24.1577C16.6119 24.134 16.6104 24.1099 16.6118 24.0859C16.6324 24.0839 16.6507 24.1102 16.6661 24.1449C16.6705 24.1404 16.674 24.1351 16.6764 24.1294C16.674 24.1351 16.6705 24.1404 16.6661 24.1449C16.6763 24.1689 16.6849 24.1936 16.6919 24.2186C16.6931 24.2032 16.6943 24.1877 16.7052 24.1917L16.6707 24.0897C16.6739 24.085 16.6787 24.0871 16.684 24.0923L16.6639 24.0695L16.6591 24.0934C16.6528 24.1032 16.6423 24.0913 16.632 24.0796C16.6242 24.0636 16.6226 24.0454 16.6275 24.0284L16.5887 23.9803C16.5471 23.971 16.6168 24.1296 16.5551 24.0513L16.5545 24.0214C16.5321 23.9834 16.5137 23.929 16.4813 23.9091C16.508 23.8555 16.4103 23.8037 16.463 23.7794C16.402 23.6071 16.3571 23.4299 16.3288 23.2498C16.2819 23.2346 16.2095 23.2576 16.1401 23.2044C16.1414 23.189 16.1403 23.1666 16.1512 23.1708L16.1148 23.1296C16.124 23.1569 16.1385 23.1899 16.1286 23.2081C16.0859 23.1388 16.1083 23.2521 16.0857 23.2519L16.0309 23.1563L16.0269 23.1709C16.0769 23.3571 16.1032 23.5507 16.1458 23.7393L16.1494 23.7434Z" fill="currentColor"/>
<path d="M15.7775 20.4111L15.7348 20.4269C15.098 18.9042 14.5731 16.7489 13.8996 14.8317L14.0776 14.8272C13.8053 14.3441 13.5479 13.7774 13.2689 13.3317L13.3039 13.5278C13.1053 13.2787 12.9608 12.9932 12.8793 12.6885L12.9303 12.7019C13.0793 13.0646 12.9356 12.6725 13.1021 12.7856L13.1452 12.8431L13.1531 12.7989L13.1099 12.7413C13.1367 12.7408 13.1661 12.7254 13.1958 12.7832L13.1713 12.696C13.2238 12.4749 13.3228 12.4431 13.4593 12.4253C13.4269 12.382 13.3175 12.4726 13.2897 12.2535L13.3407 12.267L13.1896 12.0656L13.2105 11.9478C13.1543 11.8921 13.1158 11.8218 13.0997 11.7455L13.0059 11.7476C12.9131 11.3691 12.6566 10.9359 12.5931 10.5419C12.4828 10.486 12.5245 10.2507 12.3844 10.0637L12.3235 10.1824C12.3678 10.5752 12.4604 10.9615 12.5995 11.3329L12.5459 11.3341C12.5054 11.2621 12.4464 11.2195 12.4377 11.1172L12.344 11.1194C12.0988 11.3746 12.631 11.757 12.6318 11.9034C12.6438 12.2108 12.3873 11.7776 12.4442 11.9081C12.2259 11.635 12.3199 12.2334 12.2645 12.3959C12.3103 12.9767 12.4674 13.5442 12.7279 14.0693C13.211 14.8046 13.3559 15.9437 13.6112 16.6847C13.7067 17.0486 14.2233 17.5191 14.0345 17.8315L14.2067 18.5159L14.1531 18.5172C14.3573 19.1715 14.7167 19.8511 14.9581 20.4458C15.0584 20.7071 15.2113 20.7473 15.1156 20.9109C15.2871 21.4713 15.5122 22.015 15.7878 22.535C15.8307 22.5193 15.9007 22.5762 15.892 22.4739C15.7489 22.2283 15.7552 21.8913 15.8703 21.8446L15.8921 21.9465L15.9287 21.7405L15.8531 21.6398C15.8637 21.6124 15.8833 21.5892 15.9089 21.5737C15.905 21.3633 15.9142 21.1528 15.9364 20.9435C15.8396 20.7811 15.7851 20.5984 15.7775 20.4111Z" fill="currentColor"/>
<path d="M16.5633 23.4727L16.5576 23.4789L16.5463 23.5033C16.5736 23.5452 16.5419 23.6004 16.503 23.6739C16.5144 23.6778 16.5284 23.675 16.5242 23.7041C16.4567 23.8185 16.502 23.7653 16.4927 23.8614C16.5026 23.8342 16.5122 23.7992 16.5286 23.7896L16.4783 23.9633C16.5087 23.9475 16.5403 23.9366 16.5477 23.9712C16.5985 23.9692 16.6317 24.0435 16.6708 24.0806C16.6824 24.0591 16.6964 24.039 16.7127 24.0207C16.7303 24.0312 16.7282 24.0631 16.7184 24.1C16.7248 24.099 16.7309 24.0969 16.7364 24.0937C16.7309 24.0969 16.7248 24.099 16.7184 24.1C16.7113 24.1252 16.7025 24.15 16.6923 24.1742C16.7029 24.1626 16.7137 24.1509 16.7198 24.1606L16.757 24.0586C16.7625 24.0567 16.7649 24.0613 16.7659 24.0685L16.7644 24.0384L16.7454 24.0546C16.7343 24.0588 16.7335 24.0431 16.7327 24.0276C16.7367 24.0102 16.7469 23.9947 16.7616 23.984L16.7613 23.9226C16.7342 23.8904 16.6891 24.0585 16.6897 23.9594L16.7082 23.9351C16.7217 23.892 16.7262 23.8468 16.7213 23.802C16.7763 23.7749 16.7317 23.6757 16.7889 23.6875C16.8495 23.5136 16.926 23.3453 17.0175 23.1846C16.9899 23.1446 16.9181 23.1201 16.8968 23.0364C16.9075 23.0248 16.9208 23.0062 16.9269 23.0161L16.924 22.9616C16.9141 22.9889 16.9047 23.0239 16.8854 23.0325C16.8954 22.9518 16.8414 23.0556 16.8237 23.0421L16.8408 22.9332L16.8284 22.9424C16.7502 23.121 16.6486 23.2913 16.5631 23.4674L16.5633 23.4727Z" fill="currentColor"/>
<path d="M18.3764 20.5886L18.3326 20.5759C18.7913 18.9811 19.7387 16.9471 20.4179 15.0152L20.5616 15.1172C20.6516 14.5696 20.8062 13.964 20.8671 13.4423L20.7708 13.6198C20.7711 13.3028 20.8373 12.989 20.9654 12.6972L20.9973 12.7381C20.8859 13.1163 21.0201 12.7177 21.0804 12.9069L21.0781 12.9784L21.1123 12.9478L21.1146 12.8762C21.1361 12.8917 21.1691 12.8967 21.1561 12.9605L21.1918 12.8763C21.2395 12.8203 21.3076 12.7843 21.3819 12.7758C21.4563 12.7673 21.5312 12.787 21.591 12.8307C21.5927 12.7769 21.4489 12.7844 21.5654 12.5928L21.5972 12.6339L21.605 12.3833L21.6959 12.3015C21.6867 12.2235 21.7007 12.1446 21.7362 12.0741L21.6606 12.0202C21.8264 11.6625 21.8973 11.1641 22.0962 10.8116C22.0443 10.7015 22.2261 10.5382 22.2334 10.3056L22.1101 10.3644C21.8967 10.7047 21.7259 11.0684 21.601 11.4477L21.5579 11.4169C21.5541 11.3348 21.5718 11.253 21.6095 11.1793L21.5339 11.1256C21.1784 11.1841 21.3579 11.8054 21.2659 11.9229C21.081 12.1758 21.152 11.6774 21.1145 11.8154C21.1143 11.4677 20.8103 12.0018 20.6637 12.0988C20.3326 12.5904 20.0983 13.137 19.9724 13.7111C19.8899 14.5854 19.2842 15.5818 19.0178 16.3255C18.8633 16.6731 18.9747 17.3554 18.6277 17.4933L18.3313 18.1424L18.2881 18.1116C18.0359 18.7558 17.8908 19.5121 17.7058 20.1305C17.6199 20.3989 17.7156 20.5217 17.5364 20.5958C17.3178 21.1454 17.1521 21.7134 17.0415 22.2926C17.0853 22.3054 17.1047 22.3924 17.1626 22.3055C17.2046 22.0243 17.4228 21.7587 17.5434 21.7895L17.4962 21.8839L17.6554 21.741L17.6593 21.6156C17.6849 21.6 17.7151 21.5931 17.7452 21.5959C17.8751 21.4254 18.0155 21.2626 18.1655 21.1084C18.1916 20.9212 18.2639 20.7429 18.3764 20.5886V20.5886Z" fill="currentColor"/>
<path d="M23.6078 14.0165L23.6156 14.0197L23.6428 14.0218C23.674 13.9831 23.7375 13.9936 23.8208 14.0047C23.8208 13.993 23.8135 13.9812 23.8429 13.9752C23.975 13.9988 23.9089 13.9752 24.0044 13.9516C23.9749 13.9516 23.9382 13.9545 23.9236 13.9427L24.107 13.9309C24.0818 13.9084 24.061 13.8832 24.0918 13.8648C24.0731 13.8192 24.1336 13.7641 24.1565 13.716C24.1321 13.7126 24.1081 13.7065 24.0852 13.6977C24.0896 13.6782 24.1209 13.6695 24.1595 13.6661C24.1565 13.6606 24.1524 13.6558 24.1475 13.6518C24.1524 13.6558 24.1565 13.6606 24.1595 13.6661C24.1861 13.6642 24.2128 13.6639 24.2394 13.6653C24.2247 13.6594 24.21 13.6534 24.2172 13.6446H24.107C24.1035 13.6402 24.107 13.6365 24.1136 13.6332L24.0851 13.6446L24.107 13.6565C24.1146 13.6653 24.0998 13.6713 24.0851 13.6771C24.0671 13.6793 24.0489 13.6751 24.0338 13.6653L23.9749 13.686C23.9529 13.7214 24.1293 13.7067 24.0338 13.7391L24.0044 13.7303C23.9585 13.7323 23.9136 13.7433 23.8723 13.7627C23.8282 13.7214 23.7475 13.7952 23.74 13.7391C23.5531 13.7416 23.3662 13.7277 23.1818 13.6977C23.1525 13.7361 23.1525 13.8099 23.0791 13.8572C23.0645 13.8512 23.0423 13.8453 23.0498 13.8365L22.9984 13.8572C23.0278 13.8572 23.0645 13.8542 23.0791 13.8689C22.9984 13.8866 23.1158 13.9013 23.1086 13.9221L22.9984 13.9427L23.0113 13.951C23.2085 13.9629 23.4055 13.999 23.6027 14.0185L23.6078 14.0165Z" fill="currentColor"/>
<path d="M20.2416 13.3206L20.2437 13.3649C18.5611 13.4767 16.296 13.2885 14.2172 13.3112L14.268 13.146C13.7123 13.2461 13.0798 13.3065 12.5587 13.4244L12.7608 13.4533C12.4564 13.5585 12.1331 13.6026 11.8106 13.5827L11.8394 13.54C12.2393 13.5158 11.8123 13.5259 11.9742 13.4079L12.0437 13.3862L12.003 13.3651L11.9335 13.3869C11.9413 13.3621 11.9353 13.3303 12.0009 13.3209L11.9082 13.3163C11.7088 13.1991 11.7084 13.0982 11.7334 12.967C11.6812 12.9833 11.7356 13.1122 11.5132 13.0695L11.5423 13.0268L11.2989 13.1032L11.1906 13.0473C11.1188 13.0817 11.0384 13.0952 10.9589 13.0862L10.9319 13.1732C10.5339 13.1408 10.0318 13.2419 9.62788 13.1777C9.53919 13.2617 9.32253 13.15 9.09668 13.2207L9.1937 13.3138C9.59052 13.3954 9.99606 13.4304 10.4015 13.4181L10.386 13.4677C10.3085 13.4986 10.2241 13.5096 10.1409 13.4998L10.1141 13.5867C10.2871 13.8918 10.8249 13.5211 10.968 13.566C11.2716 13.6507 10.7696 13.7518 10.9145 13.7401C10.5805 13.856 11.1934 13.9558 11.3347 14.0574C11.9154 14.1961 12.5177 14.2283 13.1106 14.1521C13.9775 13.9365 15.1337 14.158 15.9356 14.1537C16.3202 14.1792 16.9391 13.8504 17.1854 14.1213L17.9064 14.176L17.891 14.2257C18.5926 14.2417 19.3668 14.1225 20.0217 14.0856C20.3077 14.0747 20.3943 13.9464 20.5242 14.0854C21.1241 14.1021 21.7242 14.0644 22.3168 13.9726C22.3147 13.9283 22.3919 13.8816 22.2894 13.8577C22.0055 13.913 21.6787 13.8021 21.6687 13.6817L21.7749 13.6934L21.5853 13.5956L21.4636 13.6338C21.4402 13.6155 21.4236 13.5902 21.4165 13.5619C21.2099 13.4999 21.0074 13.4259 20.8101 13.3403C20.6218 13.3788 20.4266 13.372 20.2416 13.3206V13.3206Z" fill="currentColor"/>
<path d="M19.7065 13.6539L19.7078 13.6594L19.7188 13.6719C19.7599 13.6557 19.7816 13.689 19.812 13.7306C19.8201 13.722 19.825 13.7103 19.8425 13.7177C19.8865 13.7882 19.8727 13.7442 19.9327 13.7651C19.9192 13.7532 19.9004 13.7406 19.9019 13.726L19.9939 13.7909C19.998 13.7641 20.006 13.7371 20.0328 13.7359C20.056 13.6946 20.1218 13.6781 20.1656 13.6516C20.1566 13.6387 20.1499 13.6245 20.1458 13.6094C20.1613 13.5967 20.1817 13.6029 20.2016 13.6159L20.2061 13.6005L20.2016 13.6159C20.215 13.6251 20.2274 13.6357 20.2387 13.6473C20.236 13.6371 20.2334 13.6268 20.2429 13.6232L20.1925 13.5789C20.194 13.5742 20.1982 13.5729 20.2035 13.5731L20.1826 13.5702L20.1843 13.5877C20.1817 13.5972 20.1708 13.5957 20.16 13.5942C20.1446 13.5846 20.1472 13.5751 20.1448 13.5648L20.1035 13.5566C20.0689 13.574 20.1596 13.6338 20.0936 13.6195L20.0862 13.6011C20.06 13.59 20.0332 13.5664 20.0034 13.5721C20.0119 13.5239 19.9238 13.546 19.9594 13.5015C19.9006 13.4141 19.7692 13.3584 19.7331 13.2468C19.6931 13.2635 19.6419 13.3182 19.5756 13.3237C19.573 13.3134 19.567 13.3001 19.5765 13.2966L19.5387 13.2912C19.5521 13.303 19.5709 13.3156 19.5674 13.3324C19.5182 13.313 19.5616 13.3711 19.544 13.3836L19.4793 13.3546L19.4795 13.3659C19.5613 13.4539 19.6262 13.5597 19.7027 13.6533L19.7065 13.6539Z" fill="currentColor"/>
<path d="M18.6519 11.7875L18.6222 11.8211C18.3164 11.5997 18.0264 11.3586 17.7541 11.0995C17.4257 10.7881 17.041 10.4232 16.6654 10.067L15.9945 10.6406C15.8324 10.7798 15.6734 10.9208 15.5209 11.0641L15.4273 10.9227C15.2475 11.2224 15.005 11.5245 14.8534 11.8232L14.9648 11.7619C14.9084 11.9532 14.7903 12.1221 14.6279 12.2439L14.6107 12.2009C14.7739 12.0202 14.5886 12.2017 14.5784 12.0495L14.5943 12.0053L14.5612 12.0065L14.5452 12.0508C14.5312 12.0294 14.5061 12.0086 14.5291 11.975L14.4841 12.0095C14.4179 12.0097 14.3528 11.9928 14.2956 11.9605C14.2384 11.9282 14.1913 11.8816 14.159 11.8256C14.1469 11.8588 14.2623 11.9307 14.1321 11.9902L14.1151 11.9472L14.0592 12.1022L13.971 12.1056C13.9511 12.1608 13.9461 12.2047 13.894 12.2285L13.9432 12.3031C13.741 12.4417 13.5861 12.7204 13.3587 12.8382C13.378 12.9357 13.2016 12.9425 13.1497 13.0863L13.2591 13.1147C13.4575 13.1072 13.6676 12.8263 13.8769 12.6983L13.9049 12.7409C13.8781 12.7855 13.88 12.8399 13.817 12.8643L13.8662 12.9387C14.1593 13.0911 14.1403 12.6009 14.2365 12.5753C14.433 12.5134 14.278 12.792 14.3351 12.7243C14.2663 12.9452 14.6128 12.7682 14.7482 12.7848C15.068 12.7725 15.385 12.3458 15.6152 12.1297C15.7562 11.8722 15.9594 11.6515 16.2073 11.4863C16.3179 11.4075 16.4539 11.3105 16.5726 11.2259C16.6543 11.175 16.6328 11.2123 16.6542 11.1915C16.6617 11.1949 16.6618 11.1638 16.6733 11.1134C16.6865 11.0293 16.8385 11.0154 16.7393 11.1875C16.7203 11.1832 16.809 11.2734 16.8462 11.3185L16.9919 11.4834L16.9504 11.5141C17.29 11.7868 17.6475 12.0378 18.0208 12.2656C18.159 12.3723 18.2875 12.3121 18.2504 12.4672C18.4465 12.7629 18.8826 12.893 19.1474 13.1032C19.1772 13.0696 19.2448 13.066 19.2147 13.0072C19.0466 12.9341 18.9743 12.7208 19.0533 12.6276L19.0937 12.679L19.075 12.5304L18.9929 12.5098C18.9962 12.4839 19.0059 12.4592 19.0213 12.4377C18.9689 12.3053 18.9277 12.169 18.8981 12.0302C18.7861 11.984 18.6976 11.8967 18.6519 11.7875V11.7875Z" fill="currentColor"/>
<path d="M17.0544 24.1867L13.6136 13.752V13.5201H21.2326L17.0544 24.1867Z" fill="currentColor" stroke="currentColor" stroke-width="0.5"/>
<defs>
<filter id="filter0_d_577_37953" x="-0.433289" y="0.5" width="35.7128" height="40" filterUnits="userSpaceOnUse" color-interpolation-filters="sRGB">
<feFlood flood-opacity="0" result="BackgroundImageFix"/>
<feColorMatrix in="SourceAlpha" type="matrix" values="0 0 0 0 0 0 0 0 0 0 0 0 0 0 0 0 0 0 127 0" result="hardAlpha"/>
<feOffset dy="4"/>
<feGaussianBlur stdDeviation="2"/>
<feComposite in2="hardAlpha" operator="out"/>
<feColorMatrix type="matrix" values="0 0 0 0 0 0 0 0 0 0 0 0 0 0 0 0 0 0 0.12 0"/>
<feBlend mode="normal" in2="BackgroundImageFix" result="effect1_dropShadow_577_37953"/>
<feBlend mode="normal" in="SourceGraphic" in2="effect1_dropShadow_577_37953" result="shape"/>
</filter>
</defs>
</svg>
