<?xml version="1.0" encoding="UTF-8"?>
<svg id="Livello_1" xmlns="http://www.w3.org/2000/svg" xmlns:xlink="http://www.w3.org/1999/xlink" width="24.25" height="27.07" viewBox="0 0 24.25 27.07">
    <defs>
        <style>.cls-111111{fill:currentColor;}.cls-222222{fill:currentColor;stroke-width:.5px;}.cls-222222,.cls-333333{stroke:currentColor;}.cls-333333{fill:#fff;}</style>
    </defs>
    <path class="cls-333333" d="M13.37,.83l9.12,5.27c.77,.45,1.25,1.27,1.25,2.17v10.54c0,.89-.48,1.72-1.25,2.17l-9.12,5.27c-.77,.45-1.73,.45-2.5,0L1.75,20.97c-.77-.45-1.25-1.27-1.25-2.17V8.27c0-.89,.48-1.72,1.25-2.17L10.87,.83c.77-.45,1.73-.45,2.5,0Z" />
    <path class="cls-111111" d="M5.6,9.53h-.02l-.05,.07c-.07,.13-.17,.25-.29,.36,0,0,.03,0-.02,.06-.1,.09-.19,.21-.25,.33,.04-.05,.09-.11,.14-.15l-.3,.36c.06-.04,.11-.06,.07,0,.06-.01,0,.14,0,.21,.06-.06,.11-.11,.13-.13,0,.02-.04,.09-.1,.16,.01,0,.02,0,.03-.02,0,0-.02,.01-.03,.02l-.13,.16s.06-.05,.05-.03l.18-.22s0,0,0,.02l.04-.06-.04,.04s0-.02,.02-.05c.03-.03,.06-.07,.09-.09l.08-.13c.01-.06-.27,.29-.14,.09l.06-.05c.07-.09,.14-.18,.2-.28,.1-.06,.19-.26,.24-.25,.3-.32,.64-.77,.96-1.07,.02-.08-.03-.12,.06-.29,.03-.03,.07-.07,.06-.05l.07-.11c-.04,.06-.09,.11-.14,.15,.12-.17-.08,.05-.09,.03l.17-.23-.03,.02-1.03,1.12h0Z" />
    <path class="cls-111111" d="M13.85,8.25v-.04l2.07-.03c.61,.89,1.27,1.83,1.94,2.81-.88,1.23-1.81,2.51-2.74,3.8-.95,1.33-1.9,2.67-2.83,3.97l-.05-.19-.47,.76-.06,.09-.02,.04-.05,.09-.11,.2-.2-.22-.07-.08-.1-.13-.21-.25-.8-.97,.28,.43c-.55-.6-1.06-1.24-1.52-1.91l.07,.04c.62,.82-.03-.06,.3,.21l.12,.13-.05-.09-.12-.13s.04-.02,.15,.11l-.14-.19c-.21-.47-.14-.52,0-.54-.09-.1-.1,.08-.41-.41l.08,.04-.42-.47-.12-.25c-.14-.14-.27-.3-.38-.46h-.1c-.57-.86-1.4-1.85-1.96-2.72-.2-.14-.44-.65-.83-1.08l.08,.25c.27,.57,1.18,1.72,1.74,2.56h-.06c-.15-.16-.28-.33-.39-.5h-.1c.03,.5,1.12,1.43,1.3,1.75,.39,.67-.44-.32-.21-.02-.59-.64,.26,.69,.4,1.03,.78,1.3,1.65,2.54,2.6,3.74l.18,.21,.12,.16,.16,.21,.63,.83c.42-.6,.82-1.19,1.24-1.79,.31-.42,.63-.86,.94-1.29,.63-.85,1.24-1.66,1.73-2.36,.59-.79,1.26-2.25,1.82-2.63l1.19-1.6v.08l.31-.43c-.24-.34-.49-.69-.74-1.05l-.54-.74c-.41-.56-.83-1.12-1.23-1.67-.65,.01-1.27,.03-1.85,.04-.75,0-.98,.12-1.32,0-1.49-.08-3.24,.08-4.69,.1,0,.04-.2,.08,.07,.1,.55-.07,1.1-.02,1.62,.15h-.28l.5,.08,.32-.03c.08,.03,.12,.05,.12,.06,.55,.04,1.02,.13,1.59,.19,.5-.03,.99-.03,1.49,.02h0Z" />
    <path class="cls-111111" d="M11.01,19.87h0v.03s.06,.07,.07,.14c.01,0,.02-.01,.03,0,.02,.11,.02,.05,.06,.12,0-.02-.02-.05-.01-.07l.06,.15s.03-.05,.05-.03c.03-.03,.1,0,.15,.01,0-.02,0-.04,0-.06,.02,0,.03,.02,.05,.05h0s.02,.04,.02,.06c0-.01,0-.03,.01-.02l-.03-.09s0,0,.01,0l-.02-.02v.02s-.02,0-.03-.01c0-.01,0-.03,0-.04l-.03-.04s.02,.13-.03,.06v-.03s-.04-.08-.06-.1c.02-.05-.06-.09-.02-.11-.05-.15-.09-.31-.12-.46-.04-.01-.1,0-.17-.04,0-.01,0-.03,0-.03l-.03-.04s.02,.05,.01,.07c-.04-.06-.02,.04-.04,.04l-.05-.08h0c.04,.18,.07,.35,.1,.51h0Z" />
    <path class="cls-111111" d="M10.68,16.96h-.04c-.56-1.32-1.02-3.2-1.61-4.88h.16c-.24-.43-.46-.92-.71-1.31l.03,.17c-.17-.22-.3-.47-.37-.73h.04c.13,.33,0-.01,.15,.08l.04,.05v-.04l-.03-.05s.05-.01,.08,.04l-.02-.08c.05-.19,.13-.22,.25-.24-.03-.04-.12,.04-.15-.15h.04l-.13-.16,.02-.1s-.08-.11-.1-.18h-.08c-.08-.33-.31-.71-.36-1.05-.1-.05-.06-.25-.18-.42l-.05,.1c.04,.34,.12,.68,.24,1.01h-.05c-.04-.06-.09-.1-.09-.19h-.08c-.21,.23,.25,.56,.25,.69,.01,.27-.21-.11-.16,0-.19-.24-.11,.28-.16,.43,.04,.51,.18,1,.41,1.46,.42,.64,.55,1.64,.77,2.29,.08,.32,.54,.73,.37,1l.15,.6h-.05c.18,.57,.49,1.17,.7,1.69,.09,.23,.22,.26,.14,.41,.15,.49,.35,.97,.59,1.42,.04-.01,.1,.04,.09-.05-.13-.21-.12-.51-.02-.55l.02,.09,.03-.18-.07-.09s.03-.04,.05-.06c0-.18,0-.37,.02-.55-.08-.14-.13-.3-.14-.47Z" />
    <path class="cls-111111" d="M11.37,19.64h0v.03s-.01,.09-.05,.15c0,0,.02,0,.02,.03-.06,.1-.02,.05-.03,.14,0-.02,.02-.05,.03-.06l-.04,.15s.05-.02,.06,0c.04,0,.07,.06,.11,.1,.01-.02,.02-.04,.04-.05,.02,0,.01,.04,0,.07h0s-.01,.04-.02,.07c0-.01,.02-.02,.02-.01l.03-.09s0,0,0,0v-.03h-.02s-.01,0-.01,0c0-.02,.01-.03,.03-.04v-.05s-.06,.12-.06,.03l.02-.02s.02-.08,.01-.12c.05-.02,0-.11,.06-.1,.05-.15,.12-.3,.2-.44-.02-.04-.09-.06-.11-.13,0-.01,.02-.03,.03-.02v-.05s-.02,.05-.04,.06c0-.07-.04,.02-.05,0v-.1h0c-.07,.16-.16,.31-.23,.47h0Z" />
    <path class="cls-111111" d="M12.96,17.11h-.04c.4-1.41,1.23-3.19,1.82-4.88l.13,.09c.08-.48,.21-1.01,.27-1.47l-.08,.16c0-.28,.06-.55,.17-.81l.03,.04c-.1,.33,.02-.02,.07,.15v.06l.03-.03v-.06s.05,.02,.04,.07l.03-.07s.1-.08,.17-.09c.07,0,.13,0,.18,.05,0-.05-.12-.04-.02-.21l.03,.04v-.22l.09-.07c0-.07,0-.14,.04-.2l-.07-.05c.15-.31,.21-.75,.38-1.06-.05-.1,.11-.24,.12-.44l-.11,.05c-.19,.3-.34,.62-.45,.95l-.04-.03c0-.07,.01-.14,.05-.21l-.07-.05c-.31,.05-.15,.59-.23,.7-.16,.22-.1-.21-.13-.09,0-.3-.27,.16-.39,.25-.29,.43-.49,.91-.6,1.41-.07,.76-.6,1.64-.84,2.29-.14,.3-.04,.9-.34,1.02l-.26,.57-.04-.03c-.22,.56-.35,1.23-.51,1.77-.08,.23,0,.34-.15,.41-.19,.48-.34,.98-.43,1.48,.04,.01,.06,.09,.11,.01,.04-.25,.23-.48,.33-.45l-.04,.08,.14-.13v-.11s.05-.02,.08-.02c.11-.15,.24-.29,.37-.43,.02-.16,.09-.32,.18-.45h0Z" />
    <path class="cls-111111" d="M17.54,11.36h.03s.08-.02,.16-.01c0-.01,0-.02,.02-.03,.12,.02,.06,0,.14-.02-.03,0-.06,0-.07,0h.16s-.04-.05-.01-.07c-.02-.04,.04-.09,.06-.13-.02,0-.04,0-.06-.02,0-.02,.03-.02,.07-.03h0s.05,0,.07,0c-.01,0-.03-.01-.02-.02h-.1s0,0,0-.01h-.02l.02,.02s0,.01-.02,.02c-.02,0-.03,0-.04-.01l-.05,.02s.14,.02,.05,.05h-.03s-.08,0-.12,.02c-.04-.04-.11,.03-.12-.02-.16,0-.33-.01-.49-.04-.03,.03-.03,.1-.09,.14-.01,0-.03-.01-.03-.02l-.05,.02s.06,0,.07,.01c-.07,.02,.03,.03,.03,.05l-.1,.02h.01c.17,.02,.34,.05,.52,.07h0Z" />
    <path class="cls-111111" d="M14.59,10.75v.04c-1.47,.1-3.45-.07-5.27-.05l.04-.14c-.49,.09-1.04,.14-1.5,.24l.18,.03c-.27,.09-.55,.13-.83,.11l.03-.04c.35-.02-.02-.01,.12-.12l.06-.02-.04-.02-.06,.02s0-.05,.06-.06h-.08c-.17-.11-.17-.19-.15-.31-.05,.01,0,.13-.19,.09l.03-.04-.21,.07-.09-.05c-.06,.03-.13,.04-.2,.03l-.02,.08c-.35-.03-.79,.06-1.14,0-.08,.07-.27-.02-.46,.04l.08,.08c.35,.07,.7,.1,1.06,.09v.04c-.08,.03-.16,.04-.23,.03l-.02,.08c.15,.27,.62-.06,.75-.02,.27,.07-.17,.16-.05,.15-.29,.1,.24,.19,.37,.28,.51,.12,1.04,.15,1.55,.08,.76-.19,1.77,0,2.47,0,.34,.02,.88-.27,1.09-.03l.63,.05v.04c.6,.01,1.28-.09,1.85-.12,.25,0,.33-.12,.44,0,.52,.01,1.05-.02,1.57-.1,0-.04,.07-.08-.02-.1-.25,.05-.53-.05-.54-.15h.09l-.17-.08-.11,.03s-.03-.04-.04-.06c-.18-.05-.36-.12-.53-.19-.16,.03-.34,.03-.5-.02h0Z" />
    <path class="cls-111111" d="M14.12,11.05h0v.02s.06,.01,.09,.05c0,0,.01-.02,.03-.01,.04,.06,.03,.02,.08,.04-.01-.01-.03-.02-.03-.03l.08,.06s.01-.05,.03-.05c.02-.04,.08-.05,.12-.07,0-.01-.01-.02-.02-.04,.01-.01,.03,0,.05,0h0s.02,.02,.03,.03c0,0,0-.02,0-.02l-.04-.04s0,0,0,0h-.02s-.01,.02-.02,.02c-.01,0-.01-.02-.01-.03h-.04s.05,.06,0,.05v-.02s-.05-.03-.08-.03c0-.04-.07-.02-.04-.06-.05-.08-.17-.13-.2-.22-.03,.01-.08,.06-.14,.07,0,0,0-.02,0-.02h-.03s.03,.02,.03,.03c-.04-.02,0,.03-.02,.04l-.06-.03h0c.07,.09,.13,.18,.2,.26h0Z" />
    <path class="cls-111111" d="M13.2,9.41l-.03,.03c-.27-.19-.52-.4-.76-.63-.29-.27-.62-.59-.95-.9l-.59,.5c-.14,.12-.28,.25-.41,.37l-.08-.12c-.16,.26-.37,.53-.5,.79l.1-.05c-.05,.17-.15,.32-.29,.42l-.02-.04c.14-.16-.02,0-.03-.13v-.04h-.02v.04s-.05-.04-.03-.07l-.04,.03c-.06,0-.11-.01-.16-.04-.05-.03-.09-.07-.12-.12-.01,.03,.09,.09-.02,.14v-.04l-.06,.14h-.08c-.02,.05-.02,.09-.07,.11l.04,.07c-.18,.12-.31,.37-.51,.47,.02,.09-.14,.09-.18,.22l.1,.02c.17,0,.36-.25,.54-.36l.02,.04s-.02,.09-.08,.11l.04,.07c.26,.13,.24-.3,.32-.32,.17-.05,.04,.19,.09,.13-.06,.19,.24,.04,.36,.05,.28-.01,.56-.38,.76-.57,.12-.23,.3-.42,.52-.56l.32-.23c.07-.04,.05-.01,.07-.03,0,0,0-.02,.02-.07,.01-.07,.14-.09,.06,.06-.02,0,.06,.08,.09,.11l.13,.14-.04,.03c.3,.24,.61,.46,.94,.66,.12,.09,.23,.04,.2,.18,.17,.26,.55,.37,.78,.56,.03-.03,.09-.03,.06-.08-.15-.06-.21-.25-.14-.33l.04,.04-.02-.13-.07-.02s.01-.04,.02-.06c-.05-.12-.08-.24-.11-.36-.1-.04-.18-.12-.22-.21h0Z" />
    <path class="cls-222222" d="M11.8,20.26l-3.01-9.13v-.2h6.67l-3.66,9.33Z" />
</svg>