<?xml version="1.0" encoding="UTF-8"?>
<svg id="Livello_1" xmlns="http://www.w3.org/2000/svg" xmlns:xlink="http://www.w3.org/1999/xlink" width="24.25" height="27.07" viewBox="0 0 24.25 27.07">
    <defs>
        <style>.cls-1111{fill:currentColor;}.cls-2222{fill:currentColor;}.cls-2222,.cls-3333{stroke:currentColor;}.cls-3333{fill:#fff;}</style>
    </defs>
    <path class="cls-3333" d="M13.37,.83l9.12,5.27c.77,.45,1.25,1.27,1.25,2.17v10.54c0,.89-.48,1.72-1.25,2.17l-9.12,5.27c-.77,.45-1.73,.45-2.5,0L1.75,20.97c-.77-.45-1.25-1.27-1.25-2.17V8.27c0-.89,.48-1.72,1.25-2.17L10.87,.83c.77-.45,1.73-.45,2.5,0Z" />
    <path class="cls-2222" d="M8.18,15.5l-.49-2.64c-.23-1.22,.32-2.46,1.38-3.11l2.21-1.36c1.09-.67,2.48-.58,3.46,.23l1.83,1.49c.86,.7,1.27,1.82,1.05,2.91l-.5,2.51c-.28,1.4-1.51,2.41-2.94,2.41h-3.05c-1.44,0-2.68-1.03-2.95-2.45Z" />
    <path class="cls-1111" d="M6.79,20.43s.09,.05,.12,.05h.23c-.26,0-.49-.17-.54-.43-.16-.81-.21-1.15-.31-1.7l.09,.88,.03,.22,.05,.33h0c.08,.48,.5,.82,.99,.8l.41-.02c.24-.01,.48-.03,.71-.06,.13-.01,.26-.03,.39-.05,.56-.1,1.14-.11,1.71-.08,.27,.02,.53,0,.8-.02l.93-.14-.65,.08,.65-.08c.81-.11,1.65-.18,2.51-.24l1.31-.08h.14c.93-.05,1.74-.66,2.04-1.55h0c.39-1.15,1.4-4.29,1.81-5.46l.18-.51-.21,.57,.23-.97,.11-.46,.2-.72s0-.02,0-.03l-.02-.02s-.06,.01-.04,.04h0s0,.02,0,.03l-.15,.35,.07-.2c.03-.09,0-.2-.06-.27h0s-.02-.02-.03-.03c-.11-.08-.24-.19-.37-.29l-.29-.25c-.14-.12-.28-.24-.39-.34-.03-.03-.18-.21-.21-.24-.05-.05-.11-.11-.17-.17,0,0-.01,0,0,0h0s0,.01,0,0c-.63-.62-1.39-1.31-1.95-1.86-.05-.05-.1-.1-.14-.16-.01-.02-.03-.04-.05-.05l-.17-.15c-.12-.11-.65-.68-.52-.58h0c-.46-.36-.85-.79-1.29-1.12-.17-.16-.35-.33-.52-.49-.87-.82-2.2-.92-3.18-.23h0c-.47,.34-.95,.68-1.43,1.03,0,0,0,.01,0,.01h0s0,0,0,.01c-.56,.46-1.15,.89-1.76,1.29-.47,.34-.9,.72-1.31,1.12-.01,.01-.02,.02-.04,.03-.39,.27-.61,.45-.88,.67-.08,.06-.77,.66-.67,.61h0c.43-.19,.41-.26,.77-.43,0,0,0,0,0,0h0c1.58-.96,3.13-1.94,4.7-2.96,.4-.29,.83-.58,1.26-.87l.65-.43c.17-.12,.4-.1,.56,.05h0c1.01,.95,2.12,1.96,3.01,2.75,.11,.11,.22,.22,.32,.34,.11,.13,.23,.26,.35,.38,.77,.73,1.67,1.57,2.52,2.37l-.04-.04,.3,.29h0c.05,.06,.06,.14,.03,.22,0,.02-.02,.04-.02,.06l-.11,.36c-.02,.05-.03,.15-.04,.21h0s-.01,.05-.02,.07c-.14,.3-.76,2.84-.97,3.57-.04,.13-.08,.26-.12,.39h0c-.2,.59-.42,1.17-.63,1.75l-.46,1.27s-.04,.05-.07,.05h0s-.02,0-.03,0h-.01s-.03,.02-.04,.02l-.17,.03-.2,.04c-.11,.02-.22,.03-.33,.04-.11,0-.21,.02-.32,.04,0,0-.03,0-.04,0h0c-.1-.02-1.48,.08-1.58,.09-.2,.01-.4,.02-.58,.04l-.64,.07h0c-.25,.04-.51,0-.77,0-.14,0-.28,0-.42,0-.01,0-.03,0-.04,0-.17-.02-1,.12-1.28,.15,0,0,0,0,0,0h0c-.57,.03-.96-.04-1.52-.01l-.5,.03c-.65,.03-1.22-.41-1.34-1.05l-.17-.85c-.01-.07-.05-.11-.03-.03h0c.02,.11,0,.13-.02,.02-.12-.72-.25-1.53-.37-2.24-.01-.13-.02-.27-.02-.41-.03-.25-.05-.16-.08-.32,0-.02,0-.03,.01-.04h0s.02-.03,.01-.05c-.08-.25-.03-.39-.08-.62,0-.02-.01-.03-.02-.05-.02-.04-.04-.09-.04-.14,0-.02,0-.05,0-.07,0-.07-.06-.24-.03-.25h0s-.02-.09-.02-.13c0-.02,0-.04-.01-.07l-.4-1.12s-.01-.04-.01-.06h0s0-.02,0-.04c-.03-.14-.08-.19-.07-.1l-.03-.17h0l-.03-.17h0s.02-.11,.01-.12c-.02-.08-.04-.15-.05-.23,.01,.15,.03,.32,.04,.49,0,.08-.05,.09-.07,0h0v-.02c0-.17-.04-.5-.07-.76-.01-.05-.07-.08-.08-.21,0,0,0-.01,0-.02h0c.01-.05,.03-.06,.04,0v.03s.03,.04,.03,0c0-.09-.04-.22-.05-.3,0-.02,0-.03-.01-.04-.01-.03-.02-.1-.04-.17-.01-.06-.05-.39-.05-.46h0s0,0,0-.01h0c-.01-.08-.07-.05-.06,.03,0,.06,.01,.11,.01,.14,0,.04-.03-.02-.03-.06,0-.07-.02-.15-.03-.22,0-.04-.03-.01-.06-.05h0c-.02-.08-.04-.15-.05-.22,0-.02,0-.02,0,0h0c-.04-.2,.07,.1,0-.09-.02-.05-.03-.07-.03-.05,0,.05-.01,.03-.03,.02-.03-.03-.01,.04,0,.08h0s.03,.07,.03,.11c0,.08-.02,.12-.04,.11,0,0-.01-.02-.01-.03-.02-.13,.2,.37,.24,.45,0,0,0,.02,0,.03h0s0,0-.01,0c-.03-.09-.05-.19-.06-.28,0-.03-.03-.08-.04-.11-.01-.03-.03-.08-.04-.13,0,0,0-.02,0-.03h0s0-.02,0-.03c-.02-.08-.04-.17-.06-.16,0,0,0,.02,0,.04,.02,.11,.02,.16,0,.17-.05,.04-.14,.25-.12,.32h0s0,.02,0,.03c-.02,.1-.02,.2,0,.3,.02,.08,.03,.1,.04,.1,.01,0,.02,.02,.02,.03h0c0,.07,.02,.34,.02,.41,0,.03,0,.07,.02,.11h0c.02,.07,.05,.11,.07,.18l.06,.35c.01,.08,.02,.18,0,.26-.01,.04-.03,.05-.06,0,0,0,0-.02,0-.02v-.02c-.01-.07-.03-.26-.05-.33h0c-.01-.06-.04-.05-.04,0,0,.1,.03,.2,.05,.3h.01c.04,.14,.07,.29,.09,.44,0,.03-.04,.07-.05,.04h0l.03,.19h0s.03,.04,.04,.05c.02,.06,.02,.12,.02,.17,0,0,0,.01,0,.02,0,.07,.12,.43,.2,.68,.02,.08,.09,.44,.11,.52h0s.01,.02,0,0c-.03-.13-.15-.56-.22-.84-.05-.17-.05-.13,0,.04,.11,.41,.33,1.18,.34,1.32,0,.01,0,.03,0,.04v.06s.03,.12,.01,.16h0s0,.03,.01,.04h0v.12s0,.03,0,.04c.05,.16,.08,.36,.12,.55,0,.04-.05,.07-.07,.03h0s0-.01,0-.02h0s0-.03,0-.04v-.03c-.03-.07-.06-.06-.05,.02,.02,.12,.05,.24,.09,.35,0,0,0,.01,0,.02v.09h0c0,.06,0,.05-.02,.04h0s-.01,0-.01,0c-.03,.13,.16,.59,.2,.89,0,.04,0,.08,.03,.11h0s.02,.08,.03,.12c.03,.29,.05,.5,.1,.8h0v.03s.09,.09,.1,.11h0s-.04,.05-.04,.07c0,.04,0,.11,0,.17,0,.05-.05,.24-.04,.29,0,.04,.02,.08,.03,.12,0,.02,.02,.04,.04,.06,.02,.02,.04,.07,.06,.18l.03,.38s0,.03-.01,.04h0s-.04,0-.03,.04c.06,.24-.02,.24,.04,.51l.11,.46c.01,.06,.03,.11,.04,.16,.02,.08,.08,.24,.1,.32,0,.03,0,.06,.01,.08,0,.01,.04,.03,.05,.03h0Z" />
    <path class="cls-1111" d="M7.8,10.38s.04,.02,.06,0h.01c-.06,.03-.09,.1-.08,.16v.07l.1,.5-.04-.5s0-.07,0-.08c0-.03,.05-.05,.08-.05h.03l.06-.04c.16-.09,.31-.18,.45-.28,.06-.04,.12-.09,.18-.13,.32-.25,.91-.54,1.28-.72h0c.25-.12,.42-.28,.64-.44,.05-.04,.1-.08,.16-.12,.37-.27,.76-.53,1.16-.78l.62-.37,.23-.13h0c.06-.03,.13-.01,.17,.04h0l.04,.05,.12,.13,.5,.52c.58,.6,2.19,2.18,2.77,2.8l.26,.27h0s.01-.08,.05-.05h0s.02,.01,.02,.01c.03,.01,.06,.03,.07,.07h0c0,.07,.07,.1,.1,.04h0l-.06,.17s-.01,.05-.01,.08c-.01,.26-.04,.51-.09,.77,0,.04-.07,.14-.08,.18-.02,.05-.03,.11-.05,.17,0,0,0,.01,.01,0h0s.01,0,.01,0c-.15,.57-.28,1.24-.4,1.74,0,.04-.02,.08-.04,.11-.01,.03-.03,.06-.03,.09l-.02,.12c-.02,.14-.19,.64-.18,.5h0c-.02,.3-.1,.59-.15,.88-.03,.16-.05,.33-.08,.49l-.08,.33h0c-.04,.19-.2,.32-.4,.32h-2.31s0,0,0,0h0s0,.01,0,.01c-.5,.05-1,.05-1.49,.03-.39,0-.79,.06-1.17,.15-.02,0-.04,0-.07,0-.31,0-.5,.01-.73,.03-.1,0-.73,.09-.63,.11h0c.31,.09,.33,.03,.59,.1,0,0,0,0,0,0h0s0,0,0,0c1.25,.14,2.5,.24,3.77,.33,.42,0,.85,.02,1.29,.04l1.67,.08s.09-.03,.1-.07h0l.23-1.07,.14-.69,.24-1.28s.01-.06,.02-.09c.07-.25,.17-.5,.23-.75,.14-.64,.3-1.33,.45-2.03v.04c.07-.38,.15-.55,.31-1.18,.01-.06,0-.12-.05-.16h0c-.06-.05-.15-.12-.21-.17h0s-.03-.03-.04-.05c-.04-.05-.08-.1-.13-.14l-.23-.21-.68-.58c-.38-.32-.77-.64-.95-.81-.07-.06-.13-.13-.2-.19h0c-.32-.33-.63-.68-.92-1.01l-.44-.49-.22-.23-.27-.26c-.15-.12-.31-.24-.44-.33-.06-.04-.14-.04-.2,0h0s-.03,.02-.04,.02c-.11,.05-.17,.1-.25,.17-.11,.08-.24,.14-.37,.18l-.14,.05c-.06,.02-.12,.05-.17,.08h0s-.07,.12-.1,.13c-.25,.16-.5,.3-.73,.44l-.36,.25h0c-.13,.11-.32,.15-.47,.23-.05,.03-.1,.05-.15,.07-.08,.04-.15,.07-.22,.12-.23,.14-.44,.3-.66,.46h0s0-.01,0,0c-.31,.17-.57,.22-.88,.4l-.68,.39-.23,.14c-.45,.27-.68,.8-.57,1.31,.07,.3,.13,.6,.2,.88,.01,.06,.04,.08,.03,.02h0c-.02-.07,.02-.08,.03,0,.1,.5,.15,1.02,.26,1.52,0,.08,0,.17,0,.25,0,.02,0,.04,0,.06,.02,.13,.04,.09,.06,.18,0,.01,0,.03-.01,.03h0s-.02,.03-.01,.04c.06,.15,.01,.24,.04,.38,0,.03,.03,.06,.04,.1,0,.02,.01,.04,.02,.07,0,.01,0,.03,0,.04,0,.05,.05,.17,.02,.18h0s.01,.06,.02,.09c0,.02,0,.04,.01,.05l.34,.74s0,.03,0,.04h0s0,.02,0,.03c.02,.09,.07,.12,.06,.06l.02,.12h0l.02,.12h0s-.02,.08-.02,.09c.02,.05,.03,.1,.04,.15,0-.1-.01-.22-.02-.34,0-.05,.06-.06,.07,0h0c0,.17,0,.32,.02,.48,0,.03,.01,.06,.03,.08,.02,.02,.04,.05,.04,.1,0,0,0,.01,0,.02h0s-.02,.05-.03,0h0s-.03-.05-.03-.01c0,.06,.02,.13,.03,.18,0,.02,0,.04,.01,.06,0,.02,.02,.06,.02,.1,.01,.05,.03,.26,.03,.31h0s0,.01,0,.02h0c.01,.06,.06,.04,.06-.02,0-.03,0-.06,0-.08,0-.05,.03,0,.03,.05,0,.04,.01,.08,.02,.12,0,.03,.01,.01,.04,.02h0s.02,.02,.02,.03c0,.04,.03,.09,.04,.12,0,.02-.01,.03-.01,0h0c.03,.18-.08-.09,0,.06l.02,.03s0,0,0-.01c0-.01,.02,0,.03,0,.02,.01,.01-.03,0-.05h0s-.03-.05-.02-.07c0-.04,.02-.07,.03-.08,.01,0,.03,.02,.02,.03-.02,.03-.18-.25-.22-.3,0,0,0-.01,0-.02h0s0,0,.01,0c.03,.05,.04,.11,.05,.17,0,.03,.03,.08,.04,.11,.01,.02,.02,.05,.03,.07,0,0,0,.01,0,.02h0s0,.02,0,.02c.02,.04,.03,.09,.04,.1,.01,.01,.02-.02,.01-.04-.02-.11,.01-.12,.07-.09,.05,.03,.1-.17,.08-.22h0s0-.03,0-.04c.02-.06,.02-.13,.01-.2-.01-.05-.02-.06-.03-.07-.01,0-.02-.02-.02-.03h0s0-.22,0-.27c0-.02,0-.05-.01-.08h0s-.05-.07-.06-.12l-.04-.22c-.01-.06-.02-.14,.02-.19,.01-.02,.03-.03,.05-.01,0,0,.01,.02,.02,.03h0c0,.07,.01,.17,.03,.23h0s.04,.04,.04,0c0-.07-.02-.14-.04-.2h-.01c-.03-.09-.05-.19-.06-.28,0-.03,.04-.07,.05-.04h0l-.02-.12h0s-.03-.03-.03-.04c-.01-.04-.02-.07-.01-.11,0,0,0-.02,0-.02,0-.05-.1-.29-.17-.45-.02-.05-.06-.29-.08-.34h0s-.01-.02-.01,0c.02,.08,.1,.32,.16,.5,.05,.15,.06,.12,.01-.03-.09-.28-.25-.7-.25-.81,0-.01,0-.03,0-.04v-.04s-.05-.1-.01-.1c0,0,0,0,.01,0,0-.01,0-.02,0-.03h0v-.07s0-.03,0-.05c-.04-.1-.06-.23-.09-.35,0-.04,.05-.07,.06-.03h0s0,.02,0,.02h0s0,.02,0,.03v.03s.06,.03,.05-.02c-.01-.08-.04-.16-.07-.24,0,0,0-.01,0-.02v-.05h0s0-.04,.02-.03h0s0,0,.01,0c.03-.09-.12-.39-.15-.59,0-.03,0-.06-.02-.08h0s-.02-.06-.03-.09c-.02-.19-.03-.34-.06-.54h0l-.02-.03s-.07-.04-.07-.06h0s.03-.03,.04-.04c.01-.02,.01-.08,.01-.13,0-.05,.06-.16,.05-.21,0-.02-.01-.04-.02-.06,0-.02-.03-.04-.05-.05-.01-.01-.03-.04-.04-.09,0-.01,0-.03,0-.04v-.23s-.01-.03,0-.03h0s.04,0,.03-.04c-.04-.15,.02-.19,0-.24-.01-.04-.03-.07-.05-.1,0,0,0-.01,0-.02h0v-.02h0s.07-.03,.09-.01Z" />
    <path class="cls-1111" d="M7.73,19.23h0s-.03,.03-.05,.04c-.01,0-.01,.03,0,.03,.06,.01,.12,.02,.16,0,.03-.02,.18-.12,.16-.15h0s-.02-.06-.03-.09c0,.02,0,.04,.01,.06,0-.02,0-.04-.01-.06,0-.04,0-.07,0-.09,.04-.2,.32-.24,.5-.32l.05-.02h0s0,0,0,0h-.01c0-.06-.01-.11-.01-.16,0,0,0-.01,0-.02-.02,0-.04-.02-.05-.03,0,0,0,0,0,0h0s-.02-.06-.02-.08c0-.01,.03-.02,.04-.02h0s0,0,0-.01h0s0,0,0-.01c.04-.03,.05-.09,.08-.12,0,0,0,0,.01,0,.01,0,.02,0,.02-.01h0s.02-.02,.03-.01c.02,0,.04,0,.05,.02h0c-.03-.08,.03-.17,.06-.24,.03-.07,.05-.14,.06-.22,0,0,0-.01,0-.02h0s0,0,0-.01c0-.02,0-.03-.01-.05-.02-.06,0-.14-.02-.2,0-.02-.02-.04-.03-.05-.02-.03-.03-.07-.04-.11h0s-.03-.09-.05-.13c0-.01-.01-.02-.03-.02-.07-.03-.03,0-.08,0h0c-.1,.03-.19,.06-.27,.11-.03,.02-.05,.05-.07,.09-.03,.05-.08,.08-.11,.12-.04,.07-.06,.15-.07,.23,0,0,0,.01,0,.02h0s-.07,.01-.09,.04c-.03,.04-.06,.08-.08,.12h0s-.07,.02-.09,.05h0v.03s-.03,.21-.05,.23c0,0,0,0-.01,.01h0c-.07,.04-.21,.02-.25,.05,0,0,0,.02,0,.03l.02,.04s.02,.05,.02,.07h0s0,0,0,0c-.05-.02-.08-.03-.08-.03-.04,0,.03,.07,0,.09h0s-.01,.02-.01,.04v.03h0s-.06,0-.08,0h0s-.03,0-.03,0c-.01,.01,.02,.09,.01,.1h-.01s-.09-.02-.12-.02c0,0-.02,0-.02,.01-.07,.04-.1,.11-.15,.16-.01,.01-.01,.05,0,.03h0s.02,.02,0,.03c-.03,0-.06,.01-.09,.02-.03,0-.05,.02-.08,0h0s-.02-.01-.02,0c0,0,.01,.01,.01,.02h0s-.05-.02-.06-.02c-.01,0-.02,0-.02,0h0s0,.02-.01,.02c-.01,0,0,.02-.03,0h0s.06,.14,.08,.17h0s.01,.03,.03,.04h-.05s.09,.03,.13,.04c0,0,.01,0,0,.01h0s-.03,0-.05,0h-.03s0,.02-.02,.02h0s0,0-.02,0h0s0-.03,0-.03c-.01,0-.02,0-.02,0,0,0-.01,.01-.01,.01h-.02s-.02,0-.03,0h0s0,.01,.02,.02h0s.03,.01,.05,.02c0,0,0,.02,0,.02h.01s.02,.05,.01,.05h0s-.03-.04-.05-.08c-.03-.04-.02-.04,0,0,.02,.03,.03,.05,.04,.06,0,0,0,0,.01,.01,0,0,.02,.02,.03,.02h0s0-.01,0-.01c.01,0,.02,.01,.03,.02,0,0,0,0,0,0-.02-.03-.07-.09-.08-.11h.01s0,.04-.01,.02c.01,0,.02,.02,.03,.03h0s0,.02,.01,.03c0,0,.02,0,.02,0,.03,.01,.12,.11,.17,.15,.01,.01,0,0,0-.02h0s.02,0,.03,0c0,0,.02,0,.02,0,0,0,0,0,0,0h-.01v-.02h0l.06,.02h0s0-.03,0-.04h0s.01,0,.02,0c.02,.01,.04,.02,.05,.04,.02,.01,0,.02,0,0h0s0,0,0,.01c.02,.02,0,.01,.01,.04h.01s.02,.01,.03,0h0s0-.04,.03-.03h0s.02,.02,.03,.03h0v-.02s0,0,0,0c0,0,0,0,0,0,0,0-.01-.04-.02-.07,0-.01,.02-.01,.01-.03h0s0,0,0,.02c0,.04,.02,.04,.01,0,0-.02,0-.05,0-.05,0,0,.01,0,.01,0h0s0-.02,0-.01c0,0,.02,.02,.03,.03h.02s.04-.02,.05-.01l.02,.03h0s.01,.02,.02,.03h0s.02,0,0-.02h.01s.01,0,.02,.01h0s0-.03,.01-.04c0,0,0,0,0-.01h0s0-.01,0,0c.01,0,.03,0,.04,0,.01,0,.02-.01,0-.02,0,0-.02-.01-.03-.02,0,0,0,0,0-.01h0c.05,.06,.07,.03,.12,.08,0,0,.01,.02,.02,.02h0s0-.02,0-.03h0s0-.03,.02-.02h.01s.07,.04,.08,.05c0,0,.02,0,.02,0h0v-.02s0-.04,.02-.02l.02,.02Z" />
    <path class="cls-1111" d="M6.91,9.58h0s.03,.01,.04,.02c.01,0,.03,0,.03-.01,0-.06-.01-.12-.03-.14-.02-.02-.15-.12-.17-.09h0s-.05,.04-.07,.06c.02,0,.03-.02,.05-.03-.02,0-.03,.02-.05,.03-.07,.04-.12,.04-.17,.02-.11-.06-.18-.18-.26-.27-.03-.03-.06-.06-.08-.1h0s0,0,0,0h0s-.09,.06-.14,.08c0,0,0,0-.01,.01,0,.02,0,.04-.01,.06,0,0,0,0,0,0h0s-.04,.04-.06,.04c0,0-.03-.02-.03-.03h0s0,0-.01,0h0s0,0-.01,0c-.04-.02-.09-.02-.12-.04,0,0,0,0,0,0,0,0,0-.02-.02-.02h0s-.02,0-.02-.02c0-.02-.01-.03,.01-.05h0c-.06,.05-.16,.03-.24,.02-.07,0-.14,0-.2,.02,0,0-.01,0-.01,.01h0s0,.01-.01,.01c-.01,0-.02,.01-.03,.02-.05,.03-.15,.06-.2,.1-.01,0-.02,.02-.03,.03-.03,.03-.06,.05-.1,.07h0s-.07,.06-.1,.08c-.01,0-.02,.02-.02,.04,0,.07,.01,.03,.01,.07h0c.04,.08,.09,.15,.15,.21,.02,.02,.06,.03,.09,.04,.05,.01,.09,.05,.13,.06,.07,.01,.15,0,.22,0,0,0,0,0,.01,0h0s.03,.07,.07,.08c.04,.01,.08,.03,.12,.03h0s.03,.06,.06,.07h0s.02,0,.02,0c.04,.01,.19-.05,.22-.04,0,0,0,0,.01,0h0c.04,.05,.05,.18,.1,.21,0,0,.02,0,.02,0l.04-.03s.04-.04,.06-.04h0c-.01,.08-.01,.1,0,.1,.03-.01,.05-.05,.08-.04h0s.03,0,.04,0h.03s0,.04,.01,.06h0s0,.02,0,.03c.01,0,.08-.05,.09-.04h0s0,.1,.01,.12c0,0,.01,.02,.02,.02,.05,.05,.12,.05,.17,.08,.02,0,.05,0,.03,0h0s.02-.02,.03-.01c.01,.02,.02,.05,.03,.07,.01,.02,.03,.05,.02,.08h0s0,.03,0,.02c0,0,.01-.01,.01-.02h0s0,.06,0,.07c0,.01,0,.02,0,.02h0s0,0,0,0c0,.01,.02,0,0,.03h.01s.1-.1,.12-.12h0s.02-.02,.02-.03h.01v.04h0s0-.08,0-.13h0s.01,.02,.01,.03c0,0,0,.02,0,.02,0,.02,0,0,.03,0h0s0,.01,0,.03h-.01s-.01,.01-.02,.02c0,.01,0,.02,0,.02h.02v.02s0,.02,0,.03h0s.01,0,.01-.02h0s0-.04,0-.05h.02v-.02s.04-.03,.03-.02h0s-.03,.04-.05,.08c-.03,.03-.03,.03,0,0,.02-.02,.05-.05,.06-.06,0,0,0-.01,0-.02,0,0,.01-.02,.02-.03h0s0,0,0,0c0-.01,0-.02,.01-.03,0,0,0,0,0,0-.02,.03-.07,.09-.08,.11h0v-.02s.03-.01,.02,0c0-.01,.01-.03,.03-.03h0s.01,0,.02-.02c0,0,0-.02,0-.02,0-.03,.08-.14,.1-.2,0-.02,0,0-.01,0h0s-.01-.01,0-.03v-.02s0,0,0,0h0s-.01,0-.01,0c0,0,0-.02,0-.02-.02,.03,0-.02,0-.02h0s-.02,.02-.03,.01h0s0-.01,0-.02c0-.02,.01-.04,.02-.06,0-.02,.01-.01,0,0h0s0,0,0,0c.01-.03,.01,0,.03-.03h0s0-.04,0-.04h-.01s-.02,.02-.02,0h0s.01-.03,.02-.04h-.01s0,.01,0,0c0,0,0-.01,0,0-.01,0-.04,.03-.06,.04-.01,0-.02-.01-.03,0h0s.01,0,.02,0c.03-.02,.03-.03,0-.01-.02,.01-.04,.02-.04,.02,0,0,0-.01,0,0h0s-.01,0,0,0c0-.01,.01-.02,.02-.03h0v-.02h-.01s-.02-.03-.02-.04l.02-.03h0s.01-.01,.02-.02h0s0-.02-.02,0h0s0-.03,0-.03h0c.02-.06-.03,0-.04,0,0,0-.01,0-.01,0h0s0,0,0,0c0-.01,0-.02,0-.04,0-.01-.02-.01-.02,0,0,0,0,.02-.01,.03,0,0,0,0,0,0h0c.04-.07,.01-.08,.05-.14,0,0,.01-.02,0-.03h0s-.02,0-.02,.01h0s-.02,.02-.02,0h0s.02-.09,.02-.1c0,0,0-.02,0-.02h-.02s-.03,.02-.02,0v-.02Z" />
    <path class="cls-1111" d="M13.37,6.19h0s0,.04,0,.06c0,.01,.01,.03,.03,.02,.06-.04,.11-.07,.12-.11,.01-.04,.05-.22,.01-.22h0s-.05-.03-.08-.05c.01,.01,.03,.03,.05,.04-.02-.01-.03-.02-.05-.04-.03-.03-.05-.05-.07-.08-.1-.18,.07-.39,.15-.58l.02-.05h0s0,0,0,0h-.01s-.08-.07-.12-.11c0,0-.01,0-.02,0-.02,0-.04,0-.06,.02,0,0,0,0,0,0h0s-.06-.03-.07-.05c0,0,0-.03,.01-.04h0s0-.01,0-.01h0s-.01,0,0,0c0-.05-.02-.1-.02-.15h0s.01-.02,0-.03h0s0-.03,.01-.03c.02,0,.02-.03,.05-.01h0c-.08-.04-.09-.15-.12-.23-.02-.07-.06-.15-.11-.21,0,0-.01,0-.02,0h0s-.01,0-.02,0c-.01-.01-.03-.02-.05-.03-.05-.04-.09-.12-.15-.14-.02,0-.04-.02-.06-.02-.04-.01-.07-.04-.1-.06h0s-.09-.05-.13-.07c-.01,0-.02,0-.04,0-.07,.03-.02,.03-.06,.05h0c-.06,.09-.1,.18-.13,.27-.01,.04,0,.07,0,.11,.01,.06,0,.11,0,.17,.02,.08,.06,.16,.1,.23,0,0,0,0,0,.01h0s-.05,.06-.04,.1c0,.05,0,.1,.03,.15h0s-.04,.06-.04,.1h0s0,.02,0,.03c0,.04,.13,.17,.13,.21,0,0,0,.01,0,.02h0c-.03,.08-.15,.15-.15,.22,0,.01,0,.02,.02,.02l.05,.02s.05,.03,.06,.04h0s0,0,0,0c-.05,.01-.07,.03-.08,.03-.03,.03,.07,.03,.07,.07h0s0,.03,.02,.04l.02,.02h0s-.04,.04-.06,.06h0s-.03,.01-.02,.02c0,.02,.08,.06,.08,.07h-.01s-.08,.05-.1,.08c0,0,0,.02,0,.02-.02,.07,0,.15,0,.22,0,.02,.02,.04,.02,.03h0s.03,0,.02,.02c-.01,.03-.04,.05-.05,.08-.01,.02-.03,.05-.06,.06h0s-.02,0-.01,.01c0,0,.02,0,.02,0h0s-.05,.03-.06,.03c-.01,0-.02,0-.02,.01h.01s0,.01,0,.02c-.01,0,.01,.02-.02,.02h0s.13,.07,.17,.08h0s.03,.02,.04,.01h0v.02h-.02v.02h-.01s.08-.04,.12-.06c0,0,.01,0,.01,0h0s-.02,.03-.03,.03h-.02s.02,.03,0,.05h-.01s0,.01-.02,.02h-.02s0-.02-.01-.02c-.01,0-.02,0-.02,.01,0,0,0,.02,0,.02h0s0,.02-.01,.02c-.02,0-.02,0-.03,.01h0s.02,.01,.03,0h0s.03-.01,.05-.02c0,0,.01,.01,.02,.02h.02s.05,.01,.03,.02h0s-.04-.01-.09-.02c-.05-.01-.04-.01,0,0,.03,0,.06,.02,.08,.02,0,0,.01,0,.02,0,.01,0,.02,0,.03,0,0,0,0,0,0,0h0s0,0,0,0c.01,0,.02,0,.04,0,0,0,.01,0,0,0-.04,0-.12-.02-.13-.03,0,0,0,0,0,0h.01s.02,.02,0,.02c.02,0,.03,0,.04,.01h0s0,.01,.03,.01c0,0,.02,0,.02,0,.03-.01,.16,0,.23,0,.02,0,0,0-.01-.01h0s0-.02,.02-.02h.02s0-.02,0-.02-.01,0-.02,0h0l.05-.03h0s-.02-.02-.02-.03h0s0-.01,.02-.01c.02,0,.04,0,.07,0,.02,0,.02,0,0,0h0s0,0,.01,0c.03,0,0,.01,.04,.02,0,0,.01,0,.02,0,.02,0,.02-.01,.02-.02h-.01s-.01-.03,.01-.03h0s.03,0,.03,0h-.01s0-.02,0-.02h0s-.04-.03-.06-.04c-.01,0,0-.02,0-.03h0s0,.01,.02,.02c.03,.02,.04,.02,.01,0-.02-.02-.04-.03-.03-.04,0,0,0,0,0-.01h0s-.01-.01,0-.01c.01,0,.03,0,.04,0h.01v-.02h0s.02-.04,.03-.04h.03s.02,.02,.03,.02h0s0-.02-.01-.03h0s.02-.01,.02-.01h.01s-.02-.03-.02-.05c0,0,0-.01,0-.01h0s0,0,0-.01c.01,0,.02-.02,.03-.03,0,0,0-.02,0-.02-.01,0-.02,0-.03,0,0,0,0,0,0,0h0c.07,0,.08-.03,.14-.02,.01,0,.02,0,.03,0h0s-.01-.02-.02-.02h0s-.02-.02,0-.03h.01s.08-.02,.09-.03c.01,0,.02,0,.02-.01,0-.01-.01-.02-.02-.03h0s-.02-.02,0-.02c.01,0,.03,0,.04,0Z" />
    <path class="cls-1111" d="M18.01,11.49h0s-.04,0-.06,0c-.01,0-.03,.01-.02,.03,.04,.05,.07,.1,.11,.11,.03,.01,.21,.04,.21,0h0s.03-.06,.04-.09c-.01,.01-.02,.03-.03,.05,0-.02,.02-.03,.03-.05,.05-.07,.1-.09,.16-.09,.14,0,.26,.07,.39,.12,.04,.01,.09,.03,.13,.05h0s0,0,0,0h0c.03-.05,.06-.09,.1-.13,0,0,0-.01,0-.02,0-.02-.01-.04-.02-.06,0,0,0,0,0,0h0s.02-.06,.04-.07c0,0,.03,0,.04,0h0s.01,0,0,0h0s0-.01,0,0c.05,0,.1-.02,.14-.02h0s.02,.02,.02,.01h0s.02,0,.03,.01c.01,.02,.03,.02,.01,.05h0c.03-.07,.14-.1,.22-.12,.07-.03,.14-.06,.19-.11,0,0,0-.01,0-.02h0s0-.01,0-.02c.01-.01,.02-.03,.03-.04,.03-.05,.11-.1,.13-.15,0-.02,.01-.04,.02-.06,.01-.04,.03-.07,.05-.1h0s.04-.09,.06-.13c0-.01,0-.02,0-.04-.03-.07-.03-.02-.05-.06h0c-.08-.05-.16-.09-.26-.11-.04,0-.07,0-.11,.01-.05,.01-.11,0-.16,.01-.08,.02-.15,.06-.21,.11,0,0,0,0-.01,0h0s-.06-.04-.09-.04c-.05,0-.1,0-.14,.03h0s-.06-.04-.1-.03h0s-.02,.01-.02,.01c-.04,0-.16,.13-.19,.14h-.02c-.07-.02-.15-.13-.21-.14-.01,0-.02,0-.02,.02l-.02,.04s-.02,.05-.03,.06h0c-.02-.06-.03-.08-.04-.08-.03-.02-.03,.07-.06,.07h0s-.03,0-.04,.02l-.02,.02h0s-.04-.04-.05-.06h0s-.01-.02-.02-.02c-.02,0-.05,.08-.06,.08h0s-.05-.09-.07-.11c0,0-.02,0-.02,0-.07-.02-.14,0-.21,0-.02,0-.04,.02-.02,.02h0s0,.03-.02,.02c-.02-.01-.05-.03-.07-.05-.02-.01-.05-.03-.06-.05h0s0-.03-.01-.02c0,0,0,.02,0,.02h0s-.02-.05-.03-.06c0-.01,0-.02-.01-.02h0s0,.02-.01,0c0-.01-.01,.01-.02-.02h-.01s-.05,.14-.05,.17h0s0,.03,0,.04h-.02v-.02h-.02s.04,.06,.06,.1c0,0,0,.01,0,.01h0s-.03-.02-.03-.03v-.02s-.03,.02-.04,0h0s0,0-.01-.03h0v-.02s.02,0,.02-.01c0-.01,0-.02-.01-.02h-.02s-.02,0-.02-.01c0-.02,0-.02-.01-.03h0s0,.01,0,.02h0s.01,.03,.02,.05c0,0-.01,.01-.02,.02h0v.02s-.01,.04-.01,.03h0s0-.05,.01-.09c.01-.05,.01-.04,0,0,0,.03-.02,.06-.02,.07,0,0,0,.01,0,.02,0,0,0,.02,0,.03,0,0,0,0,0,0h0s0,0,0,0c0,.01,0,.02,0,.04,0,0,0,.01,0,0,0-.04,.02-.11,.02-.13,0,0,0,0,0,0h0s-.01,.03-.02,.01c0,.01,0,.03,0,.04h0s0,0,0,.03c0,0,0,.01,.01,.02,.01,.03,0,.16,0,.22,0,.02,0,0,.01-.01h0s.02,0,.02,.02v.02s.02,0,.02,0c0,0,0-.01,0-.02h0l.03,.05h0s.01-.03,.02-.02h0s.01,0,.01,.02c0,.02,0,.04,0,.06,0,.02,0,.02,0,0h0s0,0,0,.01c0,.03-.01,0-.02,.04,0,0,0,0,0,.01,0,.02,.01,.02,.02,.02h0s.02-.03,.03,0h0s0,.03,0,.04h0s0-.02,.01-.01h0s.02-.03,.03-.06c0-.01,.02,0,.03,0h0s0,0-.02,0c-.02,.03-.01,.04,0,.01,.01-.02,.03-.04,.04-.04,0,0,0,0,.01,0h0s0,0,0,0c0,.01,0,.02,0,.03h0s.01,.02,.02,.01h0s.03,.02,.03,.03v.03h-.01s0,.02,0,.03h0s.02,.01,.02,0h0s0,.02,0,.03h0c0,.06,.03,0,.04-.01,0,0,.01,0,.01,0h0s0,0,.01,0c0,.01,.02,.02,.03,.03,0,0,.02,0,.02,0,0-.01,0-.02,0-.03,0,0,0,0,0,0h0c0,.08,.03,.08,.02,.14,0,0,0,.02,0,.03h0s.01-.01,.01-.02h0s.02-.02,.03,0h0s.02,.09,.03,.1c0,0,0,.02,.01,.02h.02s.03-.04,.03-.02v.03Z" />
    <path class="cls-1111" d="M15.56,17.87h0s-.03-.03-.04-.05c0-.01-.03-.01-.03,0-.02,.07-.03,.13,0,.17,.02,.03,.11,.2,.14,.18h.01s.06-.01,.09-.01c-.02,0-.04,0-.06,0,.02,0,.04,0,.06,0,.05,0,.1,.01,.13,.03,.17,.1,.19,.34,.26,.53,0,.03,.02,.05,.03,.08h0s0,0,0,0h0c.06,0,.11,0,.17,0,0,0,.01,0,.02,0,.01-.02,.02-.03,.03-.05,0,0,0,0,0,0h0s.06,0,.08,0c.01,0,.02,.03,.02,.04h0s0,.01,.01,0h0s.01,0,.01,0c.03,.04,.09,.07,.12,.11h0s0,.03,.01,.04h0s.02,.02,.01,.03c0,.02,0,.03-.03,.04h0c.09-.02,.18,.06,.25,.11,.07,.05,.15,.08,.23,.1,0,0,.01,0,.02,0h0s0,0,.02,0c.02,0,.04,0,.07,0,.06,0,.14,.04,.21,.02,.02,0,.04-.01,.06-.02,.04-.01,.08-.01,.12-.02h0s.11-.01,.16-.03c0,0,.02,0,.02-.02,.03-.06,0-.04,.01-.07h0c-.01-.11-.04-.21-.09-.3-.02-.03-.05-.06-.08-.08-.05-.04-.08-.1-.13-.13-.07-.05-.15-.09-.24-.12h-.02s0-.08-.03-.11c-.04-.04-.08-.08-.13-.11h0s-.01-.08-.04-.1h0s-.01,0-.02-.01c-.03-.03-.22-.06-.25-.08,0,0,0-.01-.01-.01h0c-.03-.08,0-.21-.03-.27,0,0-.02-.01-.03,0-.02,0-.03,0-.05,.01-.02,0-.06,.01-.07,0h0s0,0,0-.01c.02-.03,.03-.06,.04-.07,0-.04-.07,0-.1-.02h0s-.02-.02-.04-.02h-.04s0-.06,.01-.08h0s0-.03,0-.04c-.02-.01-.1,0-.11,0h0s.03-.1,.03-.13c0,0,0-.01,0-.02-.03-.08-.11-.12-.16-.18-.01-.01-.04-.02-.03,0h0s-.03,.02-.03,0c0-.03,0-.07-.02-.1,0-.03-.01-.05,0-.08h0s.01-.03,0-.03c0,0-.02,0-.02,0h0s.02-.05,.02-.06c0-.01,.01-.02,0-.03h-.01s0,0,0-.01c0-.01-.02,0,0-.03h-.01s-.14,.03-.17,.05h0s-.03,0-.04,.01h-.01v-.02h0v-.03h0s-.03,.08-.05,.12c0,0,0,.01-.01,0h0s0-.04,0-.05v-.02s0-.01-.02-.02h0s0-.02,0-.03h.02s.02,0,.02,0c0,0,0-.02,0-.02,0,0-.01-.01-.01-.02h0s0-.02,0-.02c.01-.01,0-.02,.01-.03h0s-.02,0-.02,0h0s-.02,.03-.02,.05c0,0-.02,0-.03,0h-.01s-.05,.03-.04,.02h.01s.04-.02,.08-.04c.05-.02,.04-.02,0,0-.03,.01-.06,.02-.07,.03,0,0-.01,0-.01,.01,0,0-.02,.01-.03,.02,0,0,0,0,0,0h0s.01,0,0,0c0,0-.01,.02-.02,.03,0,0-.01,0,0,0,.03-.02,.1-.05,.12-.06,0,0,0,0,0,0h0s-.03,0-.01-.01c-.01,.01-.02,.02-.04,.02h0s-.01,0-.03,0c0,0,0,.02-.01,.02-.02,.03-.13,.1-.18,.14-.01,.01,0,0,.02,0h0s0,.02,0,.03v.02s0,.01,0,0h.02s-.03,.05-.02,.05h0s.03,0,.03,0h0s0,.02,0,.02c-.01,.02-.03,.03-.04,.05-.02,.02-.02,0,0,0h0s0,0-.01,0c-.02,.01-.01,0-.04,0h-.01s0,.03,0,.04h.01s.03,0,.01,.02h0s-.02,.02-.03,.03h.02s0,0,0,.01c0,0,0,0,0,0,.01,0,.05,0,.08-.01,.02,0,.01,.02,.03,.02h0s-.01,0-.03,0c-.04,0-.04,.01,0,.01,.03,0,.05,0,.06,0,0,0,0,.01,0,.01h0s.02,0,0,0c-.01,0-.02,.02-.03,.02h0v.02h.01s0,.05,0,.05h-.03s-.02,.01-.03,.02h0s0,.02,.03,.02h0s-.01,.02-.02,.03h0s.03,.02,.05,.03c0,0,0,.01,.01,0h0s.01,0,0,0c0,.01,0,.03,0,.04,0,.01,.01,.02,.02,.01,0,0,.02-.01,.02-.02,0,0,.01,0,.01,0h0c-.06,.04-.04,.07-.09,.11,0,0-.02,.01-.02,.02h0s.02,0,.03,0h0s.03,0,.02,.02h0s-.05,.08-.05,.09c0,.01-.01,.02,0,.02,.01,0,.02,0,.04,0h0s.03,0,.02,.01c0,0-.02,.02-.03,.03Z" />
</svg>