<svg width="36" height="41" viewBox="0 0 36 41" xmlns="http://www.w3.org/2000/svg">
<g filter="url(#filter0_d_577_37901)">
<path d="M4.06669 8.78868L17.4231 1.07735L30.7795 8.78868V24.2113L17.4231 31.9227L4.06669 24.2113V8.78868Z" fill="transparent" stroke="currentColor"/>
<path d="M13.4431 21.5406L11.9193 13.4136L18.5224 9.3501L24.1097 13.8916L22.5859 21.5406H13.4431Z" fill="currentColor" stroke="currentColor"/>
<path d="M11.3281 24.4375L11.7321 24.4177L11.2108 24.4513C10.9509 23.1357 10.8862 22.7231 10.761 21.9946L10.8592 22.9979L10.8882 23.2537L10.943 23.6292L11.1016 24.5882L12.5422 24.5193C12.8193 24.5028 13.0903 24.4796 13.3513 24.4481C13.8324 24.3972 14.3065 24.2959 14.7651 24.1459C15.384 24.3039 16.0284 24.3461 16.6637 24.2704L17.7297 24.1108L16.9911 24.2074L17.7297 24.1108C18.655 23.9886 19.6153 23.9012 20.6024 23.8347L22.1021 23.7489L24.028 23.6593L24.5893 21.9786C25.0353 20.6644 26.1864 17.077 26.6618 15.7354L26.8634 15.1495L26.625 15.7982L26.8888 14.6938L27.0157 14.1701L27.2451 13.3268L26.9552 13.0628L27.171 13.3452L26.9963 13.7634L27.1361 13.3538L26.9874 13.2024C26.8615 13.1108 26.6984 12.9761 26.5498 12.8504L26.2175 12.57C25.9909 12.3723 25.766 12.1676 25.6131 12.0457C25.7051 12.0724 25.4905 11.8544 25.3004 11.6628L25.3565 11.7573C24.63 11.035 23.7457 10.2367 23.0886 9.59884C23.0193 9.53419 22.9588 9.46131 22.9084 9.38192L22.25 8.79795C22.3413 8.80314 21.7618 8.25723 22.0909 8.52129C21.5663 8.11538 21.1157 7.62367 20.6114 7.24068C19.863 6.53689 19.094 5.81382 18.3046 5.07147C17.6729 5.51096 17.0308 5.95771 16.3783 6.41173C15.8334 6.80324 15.2797 7.20106 14.7172 7.6052L14.7773 7.59151C14.1264 8.12319 13.4475 8.62197 12.7435 9.08585C12.2043 9.48372 11.6962 9.91963 11.2234 10.39C10.5536 10.8562 10.3183 11.0872 9.67024 11.5569C9.87735 11.4922 9.06551 12.0479 9.42076 11.8682C9.91233 11.6433 9.8945 11.568 10.3097 11.3743L10.2867 11.365C12.0909 10.2741 13.8746 9.14953 15.6661 7.99106C16.1268 7.6596 16.6122 7.32973 17.1068 7.00001L18.1926 6.28347L18.4891 6.56277C19.6478 7.64359 20.913 8.80175 21.93 9.70671C22.1346 9.89731 22.3212 10.1052 22.4877 10.328C23.4146 11.2003 24.5333 12.2532 25.5829 13.241L25.5346 13.1917L25.8817 13.5284L25.9772 13.6408C25.9444 13.7086 25.9159 13.7784 25.8919 13.8497L25.7227 14.3831C25.7407 14.3846 25.709 14.4917 25.7018 14.5462C25.5859 14.643 24.618 18.652 24.4977 18.882L24.4388 19.1063C24.215 19.7754 23.9624 20.448 23.719 21.1013L23.1673 22.6144L23.0869 22.6199L23.0298 22.6512L22.8115 22.6924L22.4001 22.7771C22.2098 22.7852 22.0201 22.805 21.8323 22.8362C21.095 22.7222 20.6741 22.8163 21.053 22.8491C20.4566 22.9087 19.8559 22.9327 19.3252 22.972L18.5883 23.0568C18.4425 23.0822 18.2926 23.0751 18.1501 23.0361C17.8347 23.0642 17.5177 23.0732 17.2011 23.0632C17.0605 23.0159 15.7876 23.2425 15.6264 23.2357L15.7183 23.2215C15.0633 23.2533 14.621 23.1726 13.9809 23.2084L12.1225 23.308C11.9593 22.4855 11.7987 21.676 11.6512 20.9326C11.5885 20.9281 11.7331 21.2762 11.6578 21.3092C11.5124 20.4212 11.3442 19.3942 11.1975 18.4985C11.181 18.3445 11.1728 18.1898 11.1729 18.035C11.1359 17.7324 11.1094 17.8641 11.0737 17.6442L11.1217 17.6047C11.0142 17.2936 11.0887 17.1267 11.0067 16.8301C10.9669 16.7597 10.9434 16.6819 10.9377 16.6018C10.9937 16.5858 10.8684 16.2735 10.9236 16.2793L10.9187 16.277C10.9044 16.2143 10.8942 16.1507 10.8883 16.0867L10.4108 14.7309L10.4087 14.6713C10.373 14.5001 10.316 14.4346 10.3257 14.5367L10.2869 14.3246L10.2956 14.3482L10.2571 14.1373C10.2544 14.0976 10.2723 14.0488 10.3092 14.1039C10.263 13.9851 10.2313 13.8614 10.2148 13.7355C10.2454 14.0735 10.2773 14.4946 10.2885 14.8518C10.2405 14.7131 10.2199 14.4501 10.1829 14.2968C10.1841 14.1054 10.1409 13.7203 10.1083 13.4205C10.0921 13.3563 10.0196 13.3235 10.0185 13.1712C10.0482 13.0912 9.98388 13.0054 9.99145 12.8772C10.0355 13.0137 10.067 13.1537 10.0855 13.2955C10.1325 13.2615 10.0519 12.9424 10.0442 12.8271C10.0174 12.7774 9.97974 12.4995 9.93105 12.3295C9.9958 12.3955 9.93522 12.1842 9.94166 12.0768C9.92453 11.9592 9.88971 11.8885 9.88155 11.939C9.81978 11.9115 9.94111 12.4085 9.85196 12.2568C9.8472 12.1228 9.82594 11.9898 9.7886 11.8606C9.75872 11.8646 9.78274 11.9486 9.73872 11.8743C9.70309 11.7569 9.67969 11.6363 9.66887 11.5143C9.6822 11.5537 9.69108 11.5944 9.69533 11.6357C9.663 11.4574 10.0798 12.5634 10.0169 12.3365C10.0024 12.4011 9.64029 11.3566 9.66196 11.4753C9.66887 11.5864 9.59312 11.4077 9.60507 11.5218L9.66562 11.6397C9.68502 11.795 9.64572 11.8676 9.61469 11.8174C9.56836 11.5596 9.96157 12.5094 9.88802 12.2953L9.89168 12.3871C9.83616 12.2475 9.80512 12.0998 9.79987 11.9502C9.77057 11.955 9.73535 11.8316 9.70412 11.7295L9.70171 11.6916C9.66558 11.5869 9.6427 11.4354 9.61788 11.5125C9.74775 12.1419 9.23829 11.1534 9.34262 11.767C9.35639 11.4988 9.42592 11.8408 9.48676 12.108C9.46266 12.224 9.46143 12.3435 9.4831 12.46C9.52136 12.6263 9.52628 12.5541 9.54898 12.5829C9.55283 12.6785 9.57593 12.858 9.53727 12.841C9.60367 12.9639 9.55281 13.0543 9.59783 13.2081C9.64393 13.3424 9.61353 13.1955 9.65251 13.2896L9.76596 13.9543C9.74677 14.0239 9.72877 14.2284 9.65132 14.0964C9.5958 13.7815 9.75559 14.201 9.6801 13.8765C9.63514 14.0306 9.60283 13.5915 9.53587 13.5424C9.53706 13.71 9.56176 13.8766 9.6093 14.0378L9.61192 14.0007C9.67328 14.2083 9.71076 14.4219 9.72367 14.6375C9.69024 14.6026 9.68559 14.6796 9.65662 14.5666L9.69426 14.7814C9.70775 14.8071 9.7216 14.8334 9.71521 14.7707C9.74929 14.8605 9.76593 14.9556 9.76429 15.0512C9.74191 15.0795 10.1039 16.1676 10.0801 16.1362C10.0852 16.2524 10.1038 16.3678 10.1356 16.48C10.1607 16.4918 9.75052 15.0245 9.79972 15.2265C9.7962 15.3637 10.2817 16.9474 10.2495 17.0528C10.2741 17.1665 10.3072 17.3032 10.3294 17.2713C10.3543 17.4667 10.2655 17.2233 10.2671 17.3654C10.272 17.3677 10.2785 17.3517 10.2863 17.3957L10.2778 17.5342C10.3799 17.8258 10.4117 18.2754 10.5303 18.5786C10.4526 18.4608 10.3897 18.3346 10.3428 18.2025L10.3502 18.1645C10.3361 18.1374 10.2935 17.9731 10.2671 17.9829C10.2861 18.172 10.3278 18.3583 10.3916 18.538L10.391 18.652L10.4011 18.6469C10.3971 18.716 10.393 18.7095 10.3775 18.6875L10.3685 18.6747C10.3121 18.8099 10.5689 19.4181 10.5968 19.7759C10.6286 19.877 10.6124 19.7831 10.6532 19.9087C10.6924 20.2724 10.7169 20.5238 10.7726 20.9014C10.8309 21.0145 10.8466 21.0212 10.8541 20.8702L10.8989 21.1548C10.7557 20.915 10.9158 21.6989 10.7675 21.4328C10.7716 21.5727 10.7955 21.7114 10.8384 21.845C10.8648 21.8566 10.907 21.8745 10.9464 22.0736L10.9847 22.5233C10.9653 22.5832 10.9367 22.5012 10.9145 22.5154C11.0234 22.8621 10.9102 22.8365 10.9823 23.1693L11.1038 23.6969C11.1548 23.9085 11.2013 24.0693 11.226 24.0556C11.2538 24.1996 11.2693 24.3011 11.2755 24.3702C11.4107 24.3766 11.3837 24.4052 11.3281 24.4375Z" fill="currentColor"/>
<path d="M12.5112 12.9176L12.5578 12.8967L12.4472 12.9611L12.4789 13.165L12.5853 13.7395L12.543 13.1626C12.5394 13.0261 12.5698 13.0546 12.58 13.016L12.6393 13.0085L12.6602 13.0057C12.6643 13.0057 12.6683 13.0046 12.6718 13.0025L12.7396 12.965C12.9195 12.8647 13.0921 12.7595 13.253 12.6492C13.557 12.4507 13.825 12.2047 14.046 11.9214C14.2392 12.0421 15.2714 11.5391 15.2648 11.4851C15.4488 11.3328 15.6387 11.1843 15.8345 11.0396L15.4327 11.3361L15.8345 11.0396C16.2528 10.7296 16.698 10.4337 17.1632 10.1463L17.8751 9.72078L18.1385 9.5721L18.2522 9.51714L18.3333 9.61304L18.3773 9.66546L18.5196 9.81224L19.0914 10.4065C19.7517 11.0888 21.59 12.8988 22.2535 13.6113L22.5464 13.9177L22.2301 13.5664L22.5996 13.8581C22.6481 13.8848 22.6554 13.8729 22.6927 13.8905C22.7016 13.9102 22.7078 13.931 22.7109 13.9523C22.7113 13.9939 22.6793 14.169 22.6641 14.2687C22.7311 14.1807 22.7878 14.0856 22.8332 13.9854L22.7553 14.2287C22.7391 14.5795 22.6971 14.9287 22.6295 15.2737C22.5983 15.2098 22.5427 15.4062 22.4947 15.5797L22.5401 15.5169C22.3646 16.1768 22.2179 16.9555 22.0719 17.5478C22.0584 17.6102 22.0331 17.6696 21.9973 17.7231L21.8965 18.2996C21.848 18.2428 21.733 18.76 21.7605 18.4803C21.7292 18.9217 21.5843 19.3443 21.5602 19.7664L21.4109 20.4253L21.3354 20.7959L19.9759 20.7802L18.2927 20.7838L18.3305 20.8073C17.7565 20.8609 17.1792 20.8721 16.6034 20.8407C16.1407 20.8516 15.6806 20.9105 15.2309 21.0164C14.6734 21.0065 14.4482 21.0571 13.9008 21.0626C14.0385 21.1295 13.3668 21.1101 13.633 21.1696C13.9909 21.2711 14.0144 21.2004 14.3183 21.2831L14.3102 21.2624C15.7398 21.4214 17.1733 21.5417 18.6255 21.6392C19.1034 21.6369 19.6001 21.6579 20.1012 21.6838L22.106 21.7814L22.1263 21.6924L22.3942 20.4732L22.5539 19.6849L22.8314 18.2165C22.8706 18.0335 22.9344 17.8564 23.0211 17.6895C23.2081 16.8455 23.4204 15.8874 23.633 14.9277L23.6204 14.972C23.7192 14.5142 23.8158 14.3232 24.0099 13.5174L23.8188 13.3371C23.8046 13.3477 23.71 13.2593 23.6571 13.2215C23.6085 13.1537 23.5514 13.0919 23.4872 13.0376L23.2276 12.8011L22.4515 12.1414C21.8833 11.6653 21.3039 11.1845 21.2574 11.1081L21.1356 11.0052C20.7706 10.6329 20.421 10.2331 20.0802 9.85045L19.5749 9.29498L19.3257 9.03741L19.0193 8.74299C18.7966 8.57512 18.5697 8.39877 18.3974 8.28119L18.2668 8.38296C18.046 8.47369 18.0108 8.57264 17.7555 8.71333L17.3758 8.84306C17.3077 8.86813 17.2423 8.89971 17.1806 8.93736C17.0959 8.99212 17.1053 9.02287 17.2289 8.98283C16.8954 9.20614 16.5415 9.39951 16.2377 9.58616L15.8312 9.87183C15.7535 9.93632 15.6561 9.97419 15.5539 9.97955C15.3755 10.0948 15.1865 10.1939 14.9894 10.2757C14.6872 10.461 14.3957 10.6622 14.1162 10.8785L14.1651 10.8397C13.782 11.0555 13.4722 11.112 13.1002 11.327L12.3195 11.7697L11.1887 12.4404C11.3516 13.1687 11.51 13.8769 11.659 14.5427C11.7206 14.5407 11.5936 14.3127 11.6694 14.2839C11.7987 14.9085 11.8658 15.5516 11.9967 16.1819C12.0061 16.2874 12.0072 16.3934 12.0001 16.499C12.023 16.7044 12.055 16.6115 12.0803 16.7601L12.0312 16.7912C12.1232 16.9967 12.0421 17.1176 12.1097 17.3152C12.1336 17.3214 12.1531 17.3946 12.1675 17.4668C12.1115 17.4823 12.221 17.6872 12.1668 17.6877L12.1716 17.6889C12.1829 17.731 12.1901 17.7741 12.1931 17.8175L12.603 18.7124L12.6023 18.7532C12.6299 18.8682 12.6832 18.9087 12.6783 18.8392L12.7069 18.9821L12.6994 18.9665L12.7279 19.1086C12.7287 19.1357 12.7089 19.1708 12.6749 19.1358C12.7149 19.213 12.7408 19.2962 12.7515 19.3818C12.7366 19.1516 12.724 18.8642 12.7292 18.6192C12.7622 18.7423 12.7886 18.867 12.8083 18.9928C12.8074 19.1924 12.8188 19.3918 12.8424 19.5901C12.8554 19.633 12.9255 19.6496 12.9198 19.7545C12.8868 19.8119 12.9464 19.8658 12.9332 19.9547C12.896 19.8647 12.8711 19.7705 12.8593 19.6743C12.8113 19.7015 12.8765 19.9147 12.8789 19.9934C12.9031 20.0255 12.9277 20.2138 12.968 20.3269C12.9071 20.2867 12.9574 20.4273 12.9462 20.5018C12.9578 20.5813 12.989 20.6272 12.9993 20.5918C13.059 20.6057 12.9617 20.2734 13.0428 20.3705C13.0413 20.4616 13.0565 20.5522 13.0874 20.6382C13.1171 20.6331 13.0972 20.5772 13.1373 20.6247C13.1514 20.718 13.2087 20.8079 13.19 20.867C13.1786 20.8411 13.1716 20.8136 13.1693 20.7855C13.1931 20.9057 12.8318 20.1779 12.8837 20.3291C12.9008 20.2834 13.211 20.9732 13.1951 20.8933C13.1932 20.8174 13.2599 20.9343 13.2533 20.8567L13.1988 20.7804C13.1867 20.675 13.2288 20.6219 13.2572 20.6539C13.2912 20.8277 12.9461 20.2056 13.009 20.347L13.0095 20.2841C13.0577 20.3747 13.0821 20.4755 13.0803 20.5775C13.1095 20.5718 13.1386 20.6539 13.1649 20.7217L13.1655 20.7475C13.1965 20.8167 13.2122 20.9192 13.2401 20.8641C13.1404 20.4412 13.5985 21.0806 13.5233 20.6665C13.4976 20.8523 13.4444 20.6224 13.3964 20.4434C13.4248 20.3656 13.4315 20.2819 13.416 20.2008C13.3857 20.0893 13.3775 20.1394 13.3564 20.1215C13.357 20.056 13.3423 19.9342 13.3797 19.9428C13.3197 19.8636 13.374 19.7972 13.3365 19.695C13.2971 19.6063 13.3204 19.705 13.2862 19.6433L13.2043 19.1948C13.2264 19.1453 13.2533 19.003 13.3238 19.0877C13.3644 19.3 13.2256 19.0242 13.2855 19.2414C13.3368 19.1317 13.3489 19.4314 13.4127 19.4598C13.4193 19.346 13.4023 19.232 13.3626 19.1246L13.3584 19.1504C13.3072 19.0125 13.2797 18.8675 13.2769 18.721C13.3083 18.7423 13.3163 18.6889 13.3398 18.7644L13.3123 18.6195C13.3002 18.6029 13.2877 18.5859 13.2912 18.6286C13.2617 18.5699 13.2493 18.5044 13.2554 18.4394C13.2788 18.4181 12.9706 17.6983 12.9927 17.718C12.9687 17.6145 13.0035 17.5809 12.9535 17.4857C12.9292 17.4797 13.2678 18.4567 13.2283 18.3216C13.238 18.2269 12.8304 17.1758 12.867 17.1006C12.8478 17.0242 12.8213 16.9328 12.798 16.9566C12.7822 16.8241 12.8589 16.9845 12.8638 16.8867C12.859 16.8855 12.8518 16.8971 12.8462 16.8675L12.8608 16.7714C12.7732 16.5789 12.7621 16.2719 12.6588 16.0728C12.728 16.1447 12.7847 16.227 12.8268 16.3165L12.8178 16.3433C12.8305 16.3608 12.865 16.4705 12.8916 16.4616C12.8814 16.333 12.8484 16.2071 12.7939 16.0895L12.7995 16.011L12.7893 16.0153C12.7963 15.9673 12.8002 15.9715 12.8145 15.9854L12.8227 15.9935C12.8845 15.8958 12.6586 15.4979 12.6472 15.2537C12.6203 15.1867 12.6322 15.2501 12.5975 15.1669C12.5752 14.9196 12.5624 14.7485 12.5245 14.4931C12.472 14.4199 12.4569 14.4166 12.4427 14.5212L12.4113 14.3288C12.5418 14.4823 12.4193 13.9555 12.5536 14.1268C12.5559 14.0317 12.5384 13.9371 12.5021 13.8487C12.4766 13.8429 12.4358 13.834 12.4059 13.7001L12.3884 13.3936C12.4102 13.3507 12.4348 13.4048 12.4573 13.3933C12.3683 13.1757 12.4647 13.1211 12.446 13.0647C12.4312 13.0203 12.4119 12.9775 12.3885 12.9367C12.3902 12.9335 12.3912 12.9301 12.3915 12.9265C12.3917 12.923 12.3912 12.9194 12.39 12.916C12.3887 12.9127 12.3868 12.9096 12.3842 12.907C12.3817 12.9044 12.3786 12.9023 12.3753 12.9009C12.4508 12.8588 12.4799 12.8864 12.5112 12.9176Z" fill="currentColor"/>
<path d="M12.4018 23.0044L12.4152 22.9982C12.384 23.0332 12.3438 23.0597 12.2987 23.0749C12.5024 23.1175 12.7017 23.1334 12.4559 22.8312C12.6186 22.9558 12.7545 22.9456 12.717 22.912C12.7029 22.8783 12.6921 22.8434 12.6848 22.8077C12.6871 22.829 12.691 22.8501 12.6963 22.8709C12.691 22.8501 12.6871 22.829 12.6848 22.8077C12.6472 22.6112 12.7921 22.552 12.9478 22.4955C13.0631 22.4246 13.1832 22.3611 13.3072 22.3056C13.3205 22.3017 13.3335 22.2972 13.3462 22.292L13.2919 22.298C13.2811 22.2337 13.2749 22.1687 13.2735 22.1035C13.244 22.0862 13.2126 22.072 13.18 22.0611L13.2097 22.057C13.1578 21.9876 13.1916 21.9551 13.1785 21.9158C13.2097 21.9478 13.2279 21.9405 13.2431 21.9334L13.2165 21.9191C13.2691 21.8876 13.2857 21.8143 13.3242 21.7791C13.329 21.7737 13.3453 21.7803 13.3593 21.7876L13.3657 21.7286C13.409 21.7695 13.4333 21.7313 13.4463 21.7728C13.4167 21.7001 13.4748 21.6995 13.4422 21.6264C13.5281 21.5124 13.5772 21.3762 13.5834 21.2352L13.5643 21.2235C13.5643 21.164 13.5007 21.0588 13.5675 21.0421C13.5485 20.9545 13.5093 20.8722 13.4529 20.8014C13.4701 20.7563 13.4342 20.7027 13.4393 20.6485C13.3844 20.6179 13.4111 20.5684 13.3598 20.5545C13.2739 20.5219 13.3291 20.5698 13.2589 20.5444L13.2753 20.5571C13.1419 20.582 13.0157 20.635 12.9057 20.7124C12.8929 20.8054 12.8027 20.843 12.7597 20.9152C12.7157 20.9996 12.6863 21.0905 12.6728 21.1842C12.6742 21.2091 12.6259 21.1862 12.5934 21.1795C12.568 21.2499 12.4924 21.3036 12.4656 21.3847L12.4698 21.3831C12.4497 21.4213 12.3801 21.4046 12.3608 21.4422C12.3745 21.4532 12.3711 21.4587 12.376 21.4669C12.3086 21.4202 12.3456 21.7572 12.2999 21.7381C12.3002 21.7435 12.2997 21.7489 12.2984 21.7541C12.2126 21.7959 12.0306 21.7618 11.9921 21.8269C12.0091 21.8644 12.028 21.9011 12.0489 21.9367C12.0132 21.9242 12.0637 21.9694 12.046 21.9754C11.8933 21.9011 11.9303 21.9626 11.9886 21.9839C11.9836 22.0229 11.9503 22.0386 11.935 22.0644C11.9351 22.0823 11.9358 22.1005 11.9374 22.1199C11.9402 22.1374 11.9172 22.1268 11.8835 22.1064C11.8814 22.1438 11.8562 22.1113 11.8225 22.1243C11.7735 22.0935 11.8401 22.2416 11.8208 22.2372L11.8178 22.2279C11.7859 22.2487 11.6848 22.1962 11.6573 22.2197C11.5595 22.267 11.5205 22.3749 11.4446 22.431C11.49 22.4699 11.4478 22.4073 11.5095 22.4572C11.4657 22.4911 11.3723 22.4843 11.3284 22.5188C11.305 22.5143 11.2822 22.5069 11.2607 22.4968C11.232 22.4956 11.2759 22.5228 11.2615 22.5274L11.2187 22.4941C11.2405 22.5364 11.1545 22.4762 11.1601 22.5036C11.1762 22.5182 11.1742 22.5249 11.1687 22.5285C11.1244 22.4921 11.1591 22.5454 11.1194 22.5113L11.1226 22.5142C11.1194 22.5164 11.1204 22.5208 11.1098 22.5179C11.1206 22.5361 11.1972 22.6867 11.2111 22.7077L11.2015 22.7042C11.1962 22.7128 11.2262 22.7432 11.238 22.7454L11.2273 22.7526L11.2252 22.7491L11.2146 22.7562C11.1976 22.747 11.1825 22.735 11.1699 22.7207C11.1806 22.7387 11.1838 22.7516 11.1713 22.7502C11.2233 22.7609 11.2743 22.7756 11.3239 22.7942C11.3335 22.8131 11.3 22.8048 11.2989 22.8155C11.2646 22.8022 11.2284 22.7941 11.1916 22.7915C11.1916 22.7965 11.2391 22.8393 11.2117 22.8277C11.1749 22.8026 11.2065 22.836 11.1772 22.8209C11.1645 22.7998 11.178 22.8005 11.1853 22.7958C11.1443 22.7635 11.1447 22.7883 11.129 22.7838C11.1396 22.7966 11.1158 22.7978 11.1203 22.8146C11.0847 22.7793 11.0903 22.8002 11.0656 22.7875C11.0565 22.7887 11.0691 22.8049 11.0845 22.8141C11.125 22.8506 11.1275 22.8146 11.1652 22.8583C11.1433 22.8433 11.1414 22.8591 11.1386 22.866C11.1614 22.885 11.1592 22.8768 11.1779 22.8984C11.1676 22.9002 11.1895 22.9293 11.1628 22.9131C11.1575 22.9068 11.1636 22.9076 11.1658 22.9063C11.1565 22.9122 11.0538 22.7402 11.0582 22.7613C11.0808 22.7756 11.1547 22.9183 11.1607 22.9143C11.1762 22.9189 11.199 22.952 11.2114 22.9537L11.1885 22.9253C11.2154 22.9351 11.2396 22.951 11.259 22.9716C11.2455 22.9798 11.1311 22.81 11.1458 22.8388L11.1601 22.8439C11.1713 22.8604 11.1746 22.882 11.1468 22.8662C11.1612 22.8768 11.1717 22.8916 11.1767 22.9084L11.1714 22.9069C11.1787 22.9211 11.1675 22.9231 11.2001 22.9449C11.2209 22.9144 11.4138 23.1539 11.4506 23.1381C11.3907 23.1078 11.4027 23.0918 11.4073 23.0753C11.4273 23.0902 11.4505 23.1007 11.4753 23.106C11.4778 23.0955 11.4608 23.0865 11.4494 23.0746C11.4705 23.0787 11.4901 23.0885 11.5059 23.1028C11.4796 23.0711 11.5339 23.1103 11.5292 23.0945C11.52 23.0765 11.5153 23.0836 11.5039 23.0668C11.5161 23.0591 11.5294 23.0532 11.5434 23.0494C11.5842 23.072 11.6215 23.1 11.6543 23.1327C11.637 23.1421 11.5967 23.0758 11.5923 23.0969C11.6541 23.1376 11.5965 23.1223 11.6369 23.1604C11.6663 23.1769 11.6747 23.1679 11.6745 23.1544L11.6657 23.1497C11.6643 23.1368 11.6646 23.1134 11.7012 23.1311C11.7194 23.1492 11.7372 23.1584 11.7376 23.1674L11.7496 23.1611C11.7444 23.1548 11.7391 23.1482 11.7322 23.1472C11.7207 23.13 11.7332 23.1327 11.7479 23.139C11.7697 23.1554 11.704 23.0162 11.7158 23.0287C11.7211 23.0214 11.754 23.0459 11.7385 23.0216C11.7221 23.0068 11.7531 23.1455 11.7542 23.131C11.7823 23.1443 11.7172 22.9678 11.7606 22.9965C11.7635 22.9902 11.7644 22.9805 11.7421 22.9641C11.7599 22.9642 11.7804 23.0002 11.8056 23.0107L11.797 23.0011L11.8289 23.0176C11.8076 22.9772 11.8674 22.9936 11.836 22.9437C11.8617 22.9706 11.8847 22.9998 11.9048 23.0309L11.8922 23.0232C11.8985 23.0375 11.9079 23.0503 11.9199 23.0606C11.9415 23.0639 11.944 23.0535 11.9309 23.0274L11.9525 23.0369L11.9441 23.0302C11.9538 23.0342 11.9623 23.0404 11.969 23.0483L11.9733 23.0529C12.04 23.0992 11.9631 22.9873 12.0088 22.9987C12.004 22.9869 11.9986 22.9895 11.9917 22.974C12.0233 22.9802 12.0555 22.9819 12.0876 22.9794C12.071 22.956 12.0482 22.9375 12.0216 22.9257L12.0413 22.9207C12.1026 22.9911 12.1297 22.954 12.1899 23.0255C12.2094 23.0354 12.2192 23.0308 12.2138 23.0143C12.1965 22.9987 12.1687 22.9737 12.1765 22.9651C12.195 22.9683 12.2134 22.9724 12.2315 22.9774C12.2492 22.9908 12.2661 23.0053 12.2819 23.0208C12.2657 22.9805 12.3446 23.0494 12.3531 23.0311C12.3543 23.0163 12.3675 22.9959 12.327 22.9615C12.3397 22.9507 12.3696 22.9756 12.4018 23.0044Z" fill="currentColor"/>
<path d="M11.4654 11.9787L11.4569 11.9686C11.4957 11.9858 11.5285 12.0137 11.5511 12.0488C11.5465 11.8522 11.5187 11.6681 11.2972 11.9854C11.3755 11.7994 11.3376 11.6806 11.3151 11.725C11.2879 11.7483 11.2586 11.7691 11.2275 11.7873C11.2464 11.7783 11.2647 11.7681 11.2823 11.7568C11.2647 11.7681 11.2464 11.7783 11.2275 11.7873C11.0575 11.8839 10.9733 11.7726 10.8892 11.6508C10.8001 11.5694 10.7172 11.4817 10.6412 11.3886C10.635 11.378 10.6281 11.3678 10.6206 11.358L10.6376 11.4049C10.5822 11.4349 10.5246 11.4612 10.4654 11.4835C10.456 11.5154 10.4498 11.5481 10.4468 11.5811L10.4368 11.5557C10.385 11.6245 10.3484 11.6045 10.3156 11.6288C10.3379 11.5906 10.3275 11.5766 10.3178 11.5651L10.3105 11.5936C10.2709 11.5565 10.201 11.5649 10.161 11.5416C10.155 11.5391 10.1576 11.5223 10.1613 11.5074L10.1064 11.5205C10.1343 11.4685 10.0946 11.459 10.1295 11.434C10.0699 11.4838 10.057 11.4318 9.99777 11.4844C9.87332 11.4436 9.73856 11.443 9.61368 11.4826L9.6071 11.5035C9.55328 11.5225 9.47151 11.6132 9.44221 11.5586C9.37671 11.6155 9.31313 11.6329 9.24857 11.7384C9.20403 11.7373 9.16314 11.7866 9.11301 11.7994C9.09695 11.8585 9.04643 11.8504 9.04465 11.9009C9.03331 11.9884 9.06507 11.9236 9.0569 11.9947L9.06486 11.9759C9.11375 12.0854 9.1887 12.1822 9.28359 12.2583C9.3705 12.2401 9.42365 12.3091 9.49809 12.3246C9.58519 12.3372 9.67392 12.3345 9.76006 12.3168C9.78235 12.3075 9.7718 12.3582 9.77257 12.3895C9.84174 12.3899 9.90634 12.4406 9.98543 12.4388L9.98311 12.4355C10.0219 12.4414 10.0216 12.5092 10.0596 12.5145C10.0668 12.4988 10.0724 12.5001 10.0788 12.493C10.0508 12.5685 10.348 12.4276 10.3405 12.4747L10.3553 12.4709C10.4113 12.5347 10.4189 12.709 10.486 12.7228C10.5152 12.6942 10.5442 12.6706 10.5733 12.6367C10.5696 12.6727 10.5999 12.6129 10.609 12.627C10.574 12.7879 10.6219 12.735 10.6289 12.6758C10.6653 12.6679 10.6866 12.6927 10.7131 12.6982C10.7293 12.6924 10.7456 12.686 10.7628 12.6784C10.7781 12.6703 10.7734 12.6944 10.7621 12.7312C10.7963 12.7211 10.7723 12.7541 10.7912 12.7801C10.7736 12.834 10.8936 12.7269 10.8937 12.7456L10.886 12.7514C10.9116 12.7733 10.8854 12.8809 10.9125 12.898C10.9759 12.9709 11.082 12.9714 11.1488 13.0217C11.1744 12.9684 11.1267 13.0264 11.1588 12.9549C11.1987 12.9835 11.2124 13.0695 11.2528 13.0979C11.2537 13.1207 11.2518 13.1435 11.2472 13.1658C11.2522 13.192 11.2676 13.1439 11.2748 13.1553L11.2537 13.2043C11.2874 13.1713 11.2511 13.2678 11.2748 13.254C11.2845 13.2348 11.291 13.2345 11.2954 13.2383C11.2718 13.2897 11.3128 13.2415 11.2902 13.2881L11.2922 13.2843C11.2949 13.2865 11.2986 13.2841 11.2983 13.2946C11.3125 13.2791 11.4327 13.1622 11.4487 13.143L11.4476 13.1527C11.4565 13.1547 11.4777 13.1181 11.4772 13.1068L11.486 13.1141L11.4832 13.1171L11.4919 13.1244C11.4871 13.1426 11.4795 13.1599 11.4693 13.1759C11.4833 13.1604 11.4942 13.1535 11.4957 13.1651C11.4943 13.1147 11.4969 13.0642 11.5033 13.0141C11.5183 12.9994 11.5178 13.032 11.5278 13.0297C11.523 13.0642 11.5233 13.0993 11.5288 13.1337C11.5332 13.1321 11.562 13.0758 11.5573 13.1041C11.5423 13.1452 11.5659 13.1061 11.5584 13.1373C11.5419 13.1554 11.5398 13.1431 11.5339 13.1381C11.5134 13.1852 11.5358 13.1769 11.5351 13.1925C11.5444 13.1789 11.5504 13.1998 11.5647 13.1905C11.5403 13.2337 11.5581 13.222 11.5518 13.2482C11.5548 13.256 11.5668 13.2395 11.5719 13.2228C11.5963 13.1747 11.5633 13.1839 11.5948 13.1361C11.5858 13.1606 11.6005 13.1572 11.6074 13.1576C11.6125 13.1416 11.6195 13.1263 11.6284 13.1119C11.6322 13.1206 11.654 13.0916 11.6449 13.1208C11.6403 13.1275 11.6398 13.1217 11.6382 13.1203C11.6454 13.1267 11.5114 13.2739 11.5296 13.2632C11.5377 13.2383 11.6513 13.1264 11.6464 13.1223C11.6474 13.1069 11.6725 13.0759 11.6714 13.0643L11.6505 13.0939C11.6538 13.0663 11.663 13.0397 11.6775 13.0157C11.6878 13.0253 11.5583 13.1822 11.5812 13.1598L11.5829 13.1454C11.5954 13.13 11.6142 13.1201 11.6058 13.1501C11.6122 13.1339 11.6232 13.12 11.6377 13.1098L11.6374 13.115C11.6488 13.104 11.653 13.1133 11.6658 13.0771C11.6337 13.0682 11.8099 12.8183 11.7878 12.7904C11.773 12.8539 11.756 12.8482 11.74 12.8494C11.7493 12.8268 11.7538 12.8027 11.7535 12.7785C11.7434 12.7795 11.7389 12.7977 11.7305 12.8117C11.7298 12.791 11.7345 12.7705 11.7441 12.752C11.7209 12.7857 11.7449 12.7244 11.7316 12.7337C11.7172 12.7477 11.7248 12.7497 11.7119 12.7653C11.7022 12.7566 11.6941 12.7465 11.6878 12.7354C11.6996 12.6914 11.7171 12.6489 11.7397 12.6091C11.7519 12.6217 11.7004 12.6791 11.7205 12.6762C11.7442 12.6078 11.7426 12.6643 11.7684 12.6159C11.7772 12.5843 11.7673 12.5795 11.7551 12.5841L11.7527 12.5935C11.7413 12.5989 11.7201 12.6061 11.7284 12.5676C11.7409 12.5454 11.7455 12.5266 11.7535 12.5233L11.7453 12.5145C11.7402 12.5202 11.7371 12.5272 11.7363 12.5347C11.7233 12.5504 11.7231 12.5383 11.7257 12.5231C11.7358 12.4983 11.6238 12.6018 11.6326 12.5872C11.6248 12.5847 11.6401 12.5474 11.6214 12.569C11.6115 12.5885 11.7304 12.5164 11.7171 12.52C11.7232 12.4906 11.5772 12.6054 11.5941 12.5572C11.5877 12.5566 11.5788 12.5589 11.5686 12.5842C11.5649 12.5682 11.5932 12.5383 11.5974 12.5123L11.5906 12.5231L11.5988 12.4892C11.5667 12.5212 11.5688 12.4623 11.5303 12.5064C11.5492 12.4748 11.5707 12.4449 11.5947 12.4168L11.5904 12.4305C11.6021 12.4202 11.6117 12.4077 11.6184 12.3937C11.6169 12.3733 11.6069 12.3744 11.586 12.3944L11.5901 12.372L11.5858 12.3817C11.5874 12.3717 11.5912 12.3621 11.5969 12.3535L11.6001 12.3482C11.6279 12.2735 11.5429 12.3783 11.5435 12.3336C11.5338 12.3417 11.5373 12.3457 11.5248 12.3568C11.5238 12.327 11.5186 12.2975 11.5094 12.2691C11.4917 12.2915 11.4798 12.3176 11.4748 12.3454L11.466 12.3293C11.5168 12.2518 11.4775 12.2393 11.5295 12.1624C11.5344 12.1417 11.5281 12.1343 11.5143 12.1444C11.5038 12.165 11.4871 12.1979 11.4776 12.1937C11.4772 12.1603 11.4757 12.1717 11.4771 12.1403C11.4855 12.1201 11.4951 12.1004 11.5057 12.0812C11.4727 12.1086 11.5184 12.0158 11.5 12.014C11.4864 12.0177 11.4651 12.0123 11.4425 12.0596C11.4299 12.0516 11.4461 12.0168 11.4654 11.9787Z" fill="currentColor"/>
<path d="M18.8493 8.09966L18.8551 8.08573C18.856 8.13399 18.8442 8.18169 18.821 8.22439C19.0021 8.1202 19.1617 7.99817 18.7705 7.9277C18.9775 7.91531 19.0718 7.81574 19.0208 7.81472C18.9869 7.79782 18.9549 7.77779 18.925 7.75489C18.9413 7.76993 18.9587 7.78386 18.977 7.79657C18.9587 7.78386 18.9413 7.76993 18.925 7.75489C18.7617 7.62655 18.829 7.48254 18.9061 7.33335C18.9432 7.2003 18.9891 7.06968 19.0434 6.94229C19.0506 6.93032 19.0572 6.91798 19.0631 6.90534L19.0268 6.94676C18.9743 6.90357 18.9249 6.85688 18.8791 6.80703C18.8451 6.81341 18.812 6.82346 18.7803 6.83697L18.7995 6.81368C18.7131 6.79443 18.7159 6.74622 18.6792 6.72428C18.7244 6.72828 18.733 6.71028 18.7394 6.69442L18.7097 6.70122C18.7273 6.64115 18.6892 6.57253 18.6937 6.51907C18.6935 6.51162 18.7102 6.50575 18.7257 6.50206L18.6898 6.45154C18.7503 6.45438 18.7421 6.4081 18.7804 6.4318C18.7082 6.39486 18.7511 6.35521 18.6765 6.32007C18.6624 6.17393 18.6056 6.03471 18.5126 5.91882L18.4902 5.9226C18.4493 5.87613 18.3295 5.83676 18.3678 5.77859C18.2941 5.72326 18.2081 5.6853 18.1167 5.66771C18.0985 5.62073 18.0349 5.60307 18.0014 5.5573C17.9394 5.57044 17.9251 5.51367 17.8773 5.53744C17.7909 5.56986 17.865 5.57012 17.7952 5.59759L17.8162 5.59642C17.7334 5.707 17.6759 5.83341 17.6475 5.96721C17.7019 6.04865 17.6605 6.13888 17.6782 6.22429C17.7033 6.31961 17.7439 6.41046 17.7985 6.49339C17.8168 6.51192 17.765 6.52653 17.7362 6.54318C17.7657 6.61544 17.7463 6.70849 17.7821 6.78994L17.7842 6.78589C17.7954 6.82932 17.7321 6.86321 17.7436 6.90561C17.7613 6.90506 17.7626 6.91164 17.7719 6.91467C17.6895 6.92363 17.9491 7.1622 17.9019 7.17813L17.9118 7.19163C17.8765 7.28227 17.7174 7.37833 17.7335 7.45523C17.7719 7.47307 17.8112 7.48893 17.8514 7.50274C17.8162 7.51705 17.885 7.51837 17.8758 7.535C17.7109 7.57991 17.7808 7.60309 17.8389 7.5804C17.862 7.61434 17.848 7.64908 17.8544 7.6795C17.8668 7.69344 17.8798 7.70726 17.8944 7.72126C17.9085 7.73312 17.8841 7.74034 17.8449 7.74722C17.8691 7.77779 17.828 7.76943 17.8118 7.80228C17.754 7.81124 17.9056 7.88211 17.8882 7.89166L17.8795 7.8865C17.8701 7.92433 17.7586 7.95144 17.7543 7.98831C17.7139 8.09128 17.7591 8.20202 17.7411 8.2971C17.8018 8.29688 17.7272 8.27648 17.8076 8.27384C17.7982 8.32987 17.724 8.38759 17.7149 8.44412C17.6945 8.45641 17.6724 8.46599 17.6493 8.4726C17.627 8.49104 17.6785 8.48268 17.671 8.49601L17.6162 8.49884C17.6615 8.51725 17.556 8.52817 17.579 8.54588C17.6011 8.54641 17.6042 8.55296 17.6026 8.55944C17.5445 8.56087 17.607 8.57921 17.5539 8.5793L17.5583 8.5794C17.5574 8.58331 17.5612 8.58602 17.5513 8.59093C17.5719 8.59792 17.7327 8.66407 17.7575 8.6711L17.748 8.67475C17.7499 8.68507 17.7932 8.68869 17.8035 8.68244L17.8005 8.69525L17.7965 8.69385L17.7935 8.70661C17.7745 8.71088 17.755 8.71171 17.7358 8.70908C17.7562 8.71588 17.7674 8.72375 17.7571 8.73114C17.8031 8.70448 17.8512 8.68158 17.9011 8.66266C17.9213 8.67087 17.8906 8.68697 17.8972 8.69618C17.8622 8.70896 17.8297 8.72706 17.8007 8.7498C17.8041 8.75364 17.869 8.75508 17.8406 8.7645C17.7958 8.76968 17.8424 8.7745 17.8101 8.78248C17.7862 8.77446 17.7968 8.76595 17.7989 8.75733C17.7461 8.75981 17.7634 8.77892 17.7487 8.78599C17.7654 8.78882 17.7484 8.80576 17.7633 8.81588C17.7125 8.8123 17.7311 8.8249 17.7039 8.8316C17.698 8.83875 17.7184 8.84284 17.7363 8.83965C17.7916 8.84088 17.7688 8.81109 17.8269 8.81979C17.8002 8.82287 17.8098 8.83647 17.8123 8.84381C17.8424 8.84333 17.8351 8.83832 17.864 8.84256C17.8575 8.85093 17.8939 8.85899 17.8628 8.86431C17.8545 8.86293 17.8596 8.85943 17.8603 8.85701C17.8575 8.86779 17.6625 8.80262 17.6804 8.81617C17.707 8.81206 17.8603 8.87386 17.862 8.86668C17.8767 8.85986 17.9165 8.87032 17.9269 8.86336L17.8902 8.85653C17.917 8.84608 17.946 8.84219 17.9747 8.84519C17.9703 8.86078 17.7682 8.80508 17.7989 8.81776L17.8131 8.81209C17.8328 8.81733 17.8501 8.83201 17.8185 8.83839C17.8367 8.83697 17.8547 8.84153 17.8698 8.85131L17.8649 8.85363C17.88 8.85982 17.8731 8.86901 17.9124 8.86404C17.9069 8.82612 18.2157 8.88329 18.2321 8.84613C18.1666 8.86284 18.1646 8.84223 18.1566 8.82617C18.1819 8.82432 18.2065 8.81688 18.2284 8.80443C18.2231 8.79442 18.2042 8.79893 18.1875 8.79733C18.206 8.78633 18.2274 8.78073 18.249 8.78124C18.2076 8.77415 18.2751 8.76817 18.2607 8.759C18.2415 8.75105 18.2429 8.75995 18.2228 8.75439C18.2266 8.74024 18.2325 8.72669 18.2402 8.71416C18.2862 8.70428 18.3334 8.70102 18.3804 8.70447C18.3739 8.72352 18.2982 8.6988 18.3095 8.7183C18.3835 8.70841 18.3301 8.73532 18.3864 8.73785C18.4196 8.73094 18.4198 8.71822 18.4103 8.70776L18.4005 8.71009C18.3906 8.70091 18.3747 8.68245 18.4142 8.67157C18.4403 8.67347 18.4598 8.66867 18.4663 8.67543L18.4709 8.66244C18.4635 8.65999 18.4555 8.66028 18.4483 8.66326C18.428 8.65759 18.4392 8.65125 18.4545 8.64629C18.4819 8.6444 18.3372 8.57989 18.3546 8.58163C18.3535 8.57236 18.3948 8.56934 18.3667 8.56083C18.3442 8.56029 18.4628 8.64783 18.4536 8.63575C18.4836 8.62723 18.3137 8.53306 18.3658 8.52628C18.3636 8.51944 18.3577 8.51125 18.3297 8.5134C18.343 8.50149 18.3831 8.51586 18.4091 8.50708L18.3961 8.50536L18.4313 8.49673C18.3876 8.47948 18.4434 8.45193 18.3857 8.43409C18.4234 8.43783 18.4607 8.44511 18.497 8.45584L18.4823 8.45826C18.4967 8.46523 18.5126 8.46886 18.5287 8.46885C18.5471 8.45694 18.5418 8.4471 18.5141 8.43548L18.5367 8.42842L18.5258 8.42883C18.5358 8.42539 18.5464 8.42446 18.5569 8.42613L18.5632 8.42683C18.6448 8.41802 18.5105 8.38239 18.5524 8.36049C18.5407 8.35449 18.5385 8.36018 18.5227 8.35274C18.5506 8.33611 18.5759 8.31574 18.5978 8.29222C18.5695 8.28512 18.5396 8.28601 18.5117 8.29479L18.5229 8.27753C18.6171 8.29125 18.6118 8.24401 18.7058 8.25931C18.7272 8.25392 18.7314 8.24363 18.716 8.23437C18.6924 8.23385 18.6544 8.23308 18.6543 8.22107C18.6703 8.21105 18.6868 8.20186 18.7038 8.19355C18.7263 8.19213 18.7488 8.19211 18.7712 8.19349C18.7314 8.17289 18.8376 8.17363 18.8314 8.15357C18.8263 8.14086 18.8168 8.13026 18.8045 8.12354C18.7922 8.11682 18.778 8.1144 18.7641 8.11669C18.7661 8.09956 18.8055 8.09881 18.8493 8.09966Z" fill="currentColor"/>
<path d="M24.1511 14.1616L24.1646 14.1667C24.1184 14.1693 24.0723 14.1598 24.0313 14.1391C24.1384 14.3102 24.2615 14.4599 24.3109 14.0788C24.332 14.2786 24.4308 14.366 24.4295 14.3166C24.4439 14.2834 24.4615 14.2516 24.482 14.2216C24.4684 14.238 24.4559 14.2554 24.4448 14.2735C24.4559 14.2554 24.4684 14.238 24.482 14.2216C24.5966 14.0587 24.7365 14.1183 24.8817 14.1872C25.0102 14.2181 25.1364 14.2574 25.2594 14.3049C25.2711 14.3114 25.2831 14.3173 25.2954 14.3225L25.2544 14.289C25.2928 14.2368 25.335 14.1873 25.3805 14.1408C25.373 14.1083 25.3619 14.0766 25.3476 14.0463L25.3706 14.064C25.385 13.9797 25.4309 13.9806 25.4501 13.9441C25.4483 13.9881 25.4658 13.9957 25.4812 14.0013L25.4734 13.9728C25.5313 13.9875 25.5947 13.948 25.6457 13.9503C25.6528 13.9498 25.6591 13.9658 25.6633 13.9806L25.7097 13.9439C25.7098 14.0026 25.7533 13.9928 25.7325 14.0308C25.7644 13.9596 25.804 13.9995 25.834 13.926C25.974 13.906 26.1043 13.8453 26.2079 13.752L26.2033 13.7305C26.2456 13.6891 26.2776 13.5717 26.3346 13.6065C26.3844 13.5318 26.4165 13.4474 26.4287 13.3594C26.4725 13.3399 26.4864 13.2777 26.5284 13.2435C26.5131 13.184 26.5664 13.1681 26.5417 13.1228C26.507 13.0404 26.5101 13.1121 26.4808 13.0457L26.4829 13.0658C26.376 12.9907 26.253 12.9398 26.123 12.9169C26.0481 12.9727 25.9605 12.9362 25.8802 12.9566C25.79 12.9849 25.7054 13.0277 25.6299 13.0833C25.6131 13.1017 25.5969 13.0521 25.5798 13.0249C25.5125 13.0562 25.4232 13.0411 25.3474 13.0788L25.3513 13.0806C25.3106 13.0932 25.2755 13.0332 25.2358 13.046C25.2371 13.0631 25.2309 13.0646 25.2284 13.0738C25.2162 12.9943 25.0012 13.2546 24.984 13.2096L24.9716 13.2197C24.8839 13.1891 24.7855 13.0388 24.7131 13.0573C24.6978 13.0953 24.6846 13.134 24.6733 13.1732C24.6581 13.1397 24.6599 13.2063 24.6437 13.1981C24.5936 13.0402 24.5748 13.1088 24.5989 13.1642C24.5677 13.1878 24.5341 13.1756 24.5055 13.1829C24.4928 13.1954 24.4803 13.2086 24.4676 13.2232C24.457 13.2373 24.449 13.2139 24.4407 13.1763C24.4128 13.2008 24.4189 13.1608 24.3869 13.1464C24.3758 13.0908 24.3153 13.2403 24.3054 13.2238L24.3099 13.2152C24.2736 13.2075 24.2428 13.1007 24.2076 13.0979C24.1079 13.0628 24.0047 13.1108 23.9136 13.097C23.9165 13.1557 23.9326 13.0828 23.9387 13.1604C23.885 13.1534 23.8269 13.0839 23.7727 13.0773C23.76 13.0578 23.75 13.0368 23.7427 13.0149C23.7242 12.9941 23.7345 13.0435 23.7215 13.0368L23.7163 12.9839C23.7009 13.0284 23.6858 12.9267 23.67 12.9497C23.6704 12.9711 23.6643 12.9743 23.6581 12.973C23.6541 12.9169 23.6395 12.9781 23.6371 12.9267L23.6372 12.9309C23.6334 12.9302 23.631 12.934 23.6259 12.9246C23.6202 12.9448 23.5646 13.1029 23.559 13.1272L23.5551 13.1181C23.5454 13.1204 23.5439 13.1624 23.5503 13.1721L23.538 13.1697L23.5391 13.1658L23.5269 13.1633C23.522 13.1451 23.5203 13.1263 23.522 13.1076C23.5164 13.1276 23.5094 13.1387 23.502 13.1291C23.5295 13.1727 23.5534 13.2185 23.5735 13.2658C23.5667 13.2856 23.5499 13.2566 23.5415 13.2632C23.5279 13.2303 23.5093 13.1995 23.4862 13.172C23.4827 13.1754 23.4842 13.2382 23.474 13.2111C23.4671 13.168 23.4646 13.2133 23.4556 13.1824C23.4621 13.1589 23.4706 13.1688 23.479 13.1705C23.4742 13.1195 23.4569 13.1371 23.4495 13.123C23.4476 13.1393 23.4307 13.1236 23.4217 13.1384C23.4229 13.0891 23.4117 13.1075 23.4042 13.0815C23.3971 13.0761 23.3941 13.096 23.398 13.1131C23.3993 13.1667 23.4266 13.1434 23.4209 13.2001C23.4168 13.1744 23.4043 13.1841 23.3975 13.1869C23.4009 13.2033 23.4021 13.2201 23.401 13.2368C23.3928 13.2309 23.3868 13.2664 23.3803 13.2365C23.3813 13.2285 23.3848 13.2333 23.3872 13.2339C23.3768 13.2315 23.43 13.0404 23.4179 13.0582C23.423 13.0838 23.3712 13.2345 23.3781 13.2359C23.3852 13.2498 23.3771 13.2887 23.3841 13.2985L23.389 13.2628C23.4002 13.2885 23.4051 13.3163 23.4036 13.3441C23.3886 13.3404 23.4324 13.1427 23.4217 13.1729L23.4278 13.1864C23.4237 13.2057 23.4105 13.223 23.403 13.1927C23.4052 13.21 23.4018 13.2276 23.3931 13.2428L23.3906 13.2381C23.3854 13.2531 23.3764 13.2467 23.3828 13.2845C23.4186 13.2777 23.3782 13.5786 23.4142 13.5931C23.3954 13.5304 23.4149 13.5276 23.4298 13.5193C23.4327 13.5436 23.4408 13.567 23.4537 13.588C23.463 13.5824 23.4579 13.5643 23.4586 13.5481C23.47 13.5658 23.4762 13.5862 23.4767 13.607C23.4815 13.5667 23.4903 13.6317 23.4983 13.6174C23.505 13.5985 23.4966 13.6002 23.501 13.5805C23.5147 13.5837 23.5279 13.5888 23.54 13.5958C23.5514 13.64 23.5566 13.6855 23.5555 13.731C23.5371 13.7255 23.5572 13.6513 23.5391 13.6629C23.5518 13.7342 23.5239 13.6836 23.524 13.7381C23.5321 13.77 23.5442 13.7697 23.5537 13.7601L23.5511 13.7507C23.5593 13.7407 23.5762 13.7247 23.5883 13.7624C23.5876 13.7877 23.5931 13.8064 23.5869 13.813L23.5995 13.817C23.6015 13.8097 23.6009 13.802 23.5977 13.7951C23.6022 13.7753 23.6087 13.7858 23.6141 13.8004C23.6172 13.8269 23.6719 13.6844 23.671 13.7013C23.6798 13.6999 23.6845 13.7398 23.6914 13.7122C23.6909 13.6905 23.613 13.8085 23.6241 13.7992C23.6335 13.828 23.7154 13.6599 23.7241 13.7101C23.7305 13.7077 23.7381 13.7016 23.7348 13.6746C23.7467 13.6871 23.7348 13.7264 23.7443 13.7512C23.7443 13.747 23.7428 13.7378 23.7454 13.7386L23.7552 13.7722C23.7696 13.7293 23.7983 13.7823 23.8126 13.7258C23.8108 13.7623 23.8055 13.7986 23.7969 13.8342L23.794 13.8202C23.7879 13.8345 23.7852 13.8499 23.786 13.8654C23.7981 13.8827 23.8072 13.8772 23.817 13.85L23.8247 13.8716L23.8239 13.8611C23.8276 13.8706 23.8289 13.8809 23.8278 13.891L23.8274 13.8972C23.8395 13.9758 23.8673 13.8444 23.89 13.8841C23.8952 13.8726 23.8897 13.8707 23.896 13.8551C23.9128 13.8812 23.9333 13.9049 23.9569 13.9255C23.9624 13.8977 23.9602 13.869 23.9506 13.8423L23.9675 13.8524C23.9587 13.944 24.0033 13.9371 23.993 14.0287C23.9991 14.0491 24.009 14.0528 24.0172 14.0376C24.0166 14.0146 24.0156 13.9779 24.027 13.9773C24.0373 13.9925 24.0467 14.0081 24.0553 14.0242C24.0577 14.0458 24.0587 14.0676 24.0584 14.0894C24.0762 14.0501 24.0803 14.1529 24.0991 14.1461C24.1105 14.1366 24.1339 14.1316 24.1311 14.0795C24.1474 14.0811 24.1499 14.1192 24.1511 14.1616Z" fill="currentColor"/>
<path d="M21.345 21.4521L21.3504 21.4669C21.3159 21.429 21.2914 21.3837 21.2789 21.3347C21.2141 21.5314 21.1782 21.7289 21.526 21.5402C21.3768 21.6798 21.3749 21.8185 21.4145 21.7873C21.4524 21.7796 21.491 21.7755 21.5296 21.7751C21.5067 21.7733 21.4837 21.7731 21.4607 21.7744C21.4837 21.7731 21.5067 21.7733 21.5296 21.7751C21.7444 21.7754 21.7943 21.9327 21.8403 22.1003C21.9054 22.2296 21.9623 22.3627 22.0106 22.4989C22.0134 22.513 22.0171 22.527 22.0215 22.5407L22.0201 22.4848C22.0907 22.4865 22.1612 22.4929 22.2309 22.5041C22.2524 22.4776 22.2706 22.4488 22.2852 22.4182L22.2869 22.4489C22.3663 22.4101 22.3981 22.4504 22.4416 22.4449C22.4042 22.4701 22.4104 22.4898 22.4166 22.5066L22.4344 22.4825C22.4633 22.5415 22.5406 22.5725 22.5747 22.6181C22.5801 22.6239 22.5715 22.6391 22.5622 22.6517L22.6251 22.6696C22.577 22.7053 22.6158 22.7371 22.57 22.7421C22.6509 22.7265 22.6461 22.7851 22.7277 22.7664C22.8401 22.8738 22.981 22.9493 23.1348 22.9844L23.1492 22.9674C23.2131 22.9789 23.3321 22.9353 23.3438 23.0057C23.438 23.0041 23.5303 22.9805 23.6132 22.9371C23.6601 22.9633 23.721 22.9375 23.7788 22.9531C23.8168 22.9038 23.8676 22.9402 23.8873 22.8913C23.9304 22.8112 23.8737 22.8575 23.9076 22.7918L23.8925 22.8058C23.8775 22.6644 23.8326 22.5276 23.7605 22.4038C23.6617 22.3728 23.6299 22.2747 23.5563 22.2175C23.4707 22.1573 23.3759 22.1101 23.2754 22.0778C23.2485 22.0744 23.2777 22.0303 23.288 21.9989C23.2147 21.9596 23.164 21.8731 23.0795 21.8305L23.0808 21.835C23.0417 21.8073 23.0661 21.7406 23.0276 21.7139C23.0144 21.7254 23.0088 21.721 22.9996 21.7244C23.0561 21.6656 22.6905 21.6375 22.7153 21.5952L22.6982 21.5906C22.6614 21.4961 22.7153 21.3196 22.649 21.2682C22.6072 21.278 22.566 21.29 22.5256 21.3041C22.5424 21.2706 22.489 21.3126 22.4843 21.2936C22.5786 21.1544 22.509 21.1797 22.4806 21.2342C22.4391 21.2216 22.4253 21.185 22.3991 21.1647C22.3799 21.1613 22.3602 21.1584 22.3393 21.1564C22.3202 21.1557 22.3337 21.1346 22.3588 21.1046C22.3189 21.0953 22.3561 21.0762 22.3453 21.0399C22.3831 20.9965 22.2177 21.0348 22.2243 21.0163L22.2345 21.0149C22.2151 20.9788 22.2811 20.8873 22.2584 20.8551C22.2169 20.7475 22.1045 20.6873 22.0514 20.6C22.0053 20.6382 22.0765 20.6078 22.0171 20.6603C21.9849 20.6096 22.0009 20.5169 21.968 20.4661C21.9749 20.4436 21.9851 20.4221 21.9981 20.4022C22.0021 20.3735 21.9687 20.4125 21.9651 20.3971L22.0049 20.3605C21.9574 20.3742 22.0302 20.2994 22.0002 20.2997C21.9829 20.3131 21.976 20.3097 21.9727 20.3036C22.016 20.266 21.9554 20.2905 21.9958 20.2572L21.9924 20.2599C21.9904 20.2562 21.9856 20.2565 21.9896 20.2463C21.969 20.2536 21.7999 20.3014 21.7761 20.3114L21.7807 20.3025C21.772 20.2955 21.7365 20.3197 21.733 20.3311L21.7263 20.319L21.7304 20.3176L21.7236 20.3055C21.7351 20.2903 21.7494 20.2773 21.7659 20.2674C21.7456 20.2747 21.7315 20.2755 21.7342 20.2631C21.7179 20.3131 21.6973 20.3616 21.6724 20.4081C21.6513 20.4142 21.6634 20.3821 21.6519 20.3788C21.6697 20.3465 21.6818 20.3116 21.6879 20.2755C21.6826 20.2746 21.632 20.3141 21.6471 20.2888C21.6775 20.2566 21.6386 20.282 21.6576 20.2553C21.6816 20.2467 21.6795 20.2601 21.6839 20.2684C21.7224 20.2333 21.6958 20.2289 21.702 20.214C21.6873 20.2222 21.6884 20.1981 21.6698 20.1993C21.7111 20.1703 21.6881 20.1719 21.7041 20.1495C21.7036 20.1401 21.6851 20.1497 21.6737 20.1634C21.6307 20.1971 21.6691 20.2066 21.6186 20.2361C21.6368 20.2169 21.62 20.212 21.6129 20.2077C21.5902 20.2269 21.5993 20.2263 21.5743 20.241C21.5733 20.2303 21.54 20.2467 21.56 20.2229C21.5672 20.2189 21.5658 20.2248 21.567 20.2272C21.5615 20.2168 21.756 20.1468 21.733 20.1471C21.7155 20.1671 21.5552 20.2137 21.5589 20.2206C21.5525 20.2352 21.5148 20.2518 21.5118 20.2639L21.5445 20.2464C21.5315 20.2714 21.5121 20.2928 21.4881 20.3084C21.4805 20.2931 21.6738 20.2111 21.6414 20.2202L21.6346 20.2336C21.6159 20.2417 21.5923 20.2409 21.6119 20.216C21.599 20.2285 21.5819 20.2362 21.5637 20.2378L21.5659 20.2328C21.5499 20.2374 21.5488 20.2257 21.5223 20.2543C21.5532 20.2811 21.2775 20.4289 21.2911 20.4689C21.3293 20.4145 21.3453 20.4297 21.3627 20.4375C21.3446 20.455 21.3311 20.4764 21.3232 20.4999C21.3343 20.5046 21.3455 20.4891 21.3594 20.48C21.3532 20.5002 21.3407 20.5181 21.3238 20.5313C21.3603 20.5111 21.3131 20.5581 21.3305 20.5564C21.3508 20.5507 21.3435 20.5445 21.3627 20.5364C21.3697 20.55 21.3748 20.5645 21.3777 20.5794C21.3496 20.6161 21.3159 20.6483 21.2777 20.6749C21.2692 20.6556 21.3443 20.628 21.322 20.6195C21.2725 20.6737 21.2943 20.6188 21.2496 20.652C21.2291 20.6784 21.2379 20.6886 21.2526 20.691L21.2584 20.6831C21.2724 20.6841 21.2975 20.689 21.2751 20.7224C21.2539 20.7372 21.2424 20.7533 21.2326 20.752L21.2382 20.7653C21.2456 20.7613 21.2531 20.7572 21.2549 20.7504C21.2744 20.7423 21.2703 20.7543 21.2621 20.7679C21.2425 20.7866 21.3982 20.7475 21.3837 20.7569C21.3911 20.7637 21.3617 20.792 21.3891 20.7812C21.4066 20.7676 21.2547 20.7718 21.2702 20.7758C21.2533 20.8014 21.4491 20.7702 21.4141 20.8083C21.4205 20.8124 21.4309 20.8152 21.4507 20.7959C21.4489 20.8138 21.4082 20.8275 21.3945 20.8508L21.4057 20.844L21.385 20.8729C21.4304 20.8593 21.4072 20.9164 21.4637 20.8945C21.4322 20.9151 21.3987 20.9326 21.3636 20.9467L21.3731 20.9356C21.3573 20.939 21.3426 20.9461 21.3302 20.9562C21.3246 20.9772 21.3355 20.9818 21.3649 20.9737L21.3525 20.9936L21.3606 20.9864C21.3555 20.9954 21.3479 21.0028 21.3388 21.008L21.3334 21.0114C21.2774 21.0696 21.4049 21.0139 21.3883 21.0577C21.4015 21.0552 21.3992 21.0492 21.4164 21.0453C21.4068 21.0762 21.4018 21.1084 21.4017 21.1407C21.4282 21.1287 21.4505 21.1092 21.4655 21.0847L21.4691 21.1055C21.3877 21.1536 21.4249 21.188 21.3424 21.2347C21.3299 21.2524 21.334 21.2632 21.3522 21.261C21.3706 21.2466 21.4 21.2235 21.4086 21.233C21.4035 21.251 21.3973 21.2687 21.3902 21.286C21.3741 21.3012 21.3569 21.3153 21.3388 21.3283C21.3837 21.3198 21.3022 21.3858 21.321 21.3979C21.3334 21.4048 21.3479 21.4073 21.362 21.405C21.3761 21.4027 21.389 21.3957 21.3983 21.3852C21.4086 21.4001 21.379 21.4254 21.345 21.4521Z" fill="currentColor"/>
</g>
<defs>
<filter id="filter0_d_577_37901" x="-0.433289" y="0.5" width="35.7128" height="40" filterUnits="userSpaceOnUse" color-interpolation-filters="sRGB">
<feFlood flood-opacity="0" result="BackgroundImageFix"/>
<feColorMatrix in="SourceAlpha" type="matrix" values="0 0 0 0 0 0 0 0 0 0 0 0 0 0 0 0 0 0 127 0" result="hardAlpha"/>
<feOffset dy="4"/>
<feGaussianBlur stdDeviation="2"/>
<feComposite in2="hardAlpha" operator="out"/>
<feColorMatrix type="matrix" values="0 0 0 0 0 0 0 0 0 0 0 0 0 0 0 0 0 0 0.12 0"/>
<feBlend mode="normal" in2="BackgroundImageFix" result="effect1_dropShadow_577_37901"/>
<feBlend mode="normal" in="SourceGraphic" in2="effect1_dropShadow_577_37901" result="shape"/>
</filter>
</defs>
</svg>
