<svg width="26" height="26" viewBox="0 0 26 26" fill="none" xmlns="http://www.w3.org/2000/svg">
<path d="M16.5322 15.2205C18.4266 12.9423 21.486 13.104 23.4496 15.2242C25.3751 17.2305 25.5341 20.7471 23.7745 22.9224C20.9709 26.5382 15.4329 25.2116 14.3612 20.6662C14.1814 19.2625 14.534 17.8442 15.2842 16.8263C14.9039 18.0536 14.9454 19.3324 15.3637 20.398C15.865 22.6505 18.0809 24.2489 20.2346 23.8557C23.7572 23.3303 25.2092 18.6673 22.7098 15.9995C21.206 14.3827 18.4439 14.0961 16.5322 15.2205Z" fill="#595959" stroke="#595959" stroke-width="0.4" stroke-miterlimit="10"/>
<path d="M17.0093 18.9502C17.279 19.0678 17.5383 19.1964 17.7768 19.3434C18.0637 19.4499 18.1501 19.7108 18.3057 19.9166L19.1803 21.2027L18.361 21.1733L19.9754 19.1229L20.7809 18.0977C20.8604 18.0242 20.8777 17.8956 21.0056 17.8625C21.3167 17.7045 21.6521 17.5465 21.9874 17.4289C21.9355 17.8001 21.8491 18.1785 21.7592 18.5313C21.7523 18.6672 21.6348 18.7113 21.5795 18.8069L20.774 19.8321L19.1596 21.8825C18.9487 22.1581 18.5339 22.1397 18.3403 21.8531L17.4657 20.567C17.3308 20.3428 17.1234 20.1738 17.12 19.8541C17.0647 19.5602 17.0335 19.2589 17.0093 18.9502Z" fill="#595959" stroke="#595959" stroke-width="0.4" stroke-miterlimit="10"/>
<path d="M3.35063 18.7407C3.13975 17.7854 2.80097 16.8373 2.83208 15.8599V14.9008V11.0609C2.83208 10.7559 3.0637 10.5097 3.35063 10.5097H6.69007C6.977 10.5097 7.20862 10.7559 7.20862 11.0609C7.20862 12.1192 7.20517 15.3418 7.21554 16.3413C7.05997 17.1423 6.89749 17.947 6.69007 18.7407C6.48611 17.947 6.32017 17.1423 6.1646 16.3413C6.17498 15.3602 6.16807 12.0971 6.17153 11.0609L6.69007 11.6121H3.35063L3.86917 11.0609C3.86917 11.7775 3.86917 15.2242 3.86917 15.8599C3.90028 16.8373 3.5615 17.7817 3.35063 18.7407Z" fill="#595959" stroke="#595959" stroke-width="0.4" stroke-miterlimit="10"/>
<path d="M9.49039 18.7407C9.24841 17.1864 8.90962 15.6357 8.97185 14.0704C8.97185 13.0709 8.97185 7.4121 8.97185 6.28769C8.97185 5.9827 9.20347 5.7365 9.49039 5.7365H12.8229C13.1098 5.7365 13.3415 5.9827 13.3415 6.28769V12.5161V14.0741C13.4002 15.6394 13.0511 17.1901 12.8229 18.7444C12.5948 17.1901 12.2456 15.6394 12.3044 14.0741V12.5161V6.28769L12.8229 6.83887H9.49039L10.0089 6.28769C10.0089 7.44884 10.0089 13.0415 10.0089 14.0704C10.0712 15.6357 9.73238 17.1864 9.49039 18.7407Z" fill="#595959" stroke="#595959" stroke-width="0.4" stroke-miterlimit="10"/>
<path d="M15.6265 13.8132C15.426 12.5381 15.1114 11.2667 15.1045 9.9806C15.1079 8.41157 15.1045 3.20106 15.108 1.55118C15.108 1.24619 15.3396 1 15.6265 1H18.959C19.246 1 19.4776 1.24619 19.4776 1.55118V6.97115C19.4637 7.44516 19.4879 8.54753 19.4845 9.00317C19.3289 10.1276 19.1664 11.2704 18.959 12.3911C18.7551 11.2704 18.5891 10.1276 18.4336 9.00317C18.4405 8.5512 18.4405 7.43781 18.4405 6.97115V1.55118L18.959 2.10237H15.6265L16.145 1.55118V7.68401C16.145 8.18742 16.145 9.49556 16.1485 9.98428C16.1416 11.2667 15.827 12.5344 15.6265 13.8132Z" fill="#595959" stroke="#595959" stroke-width="0.4" stroke-miterlimit="10"/>
<path d="M13.2999 20.409C12.7883 20.6405 12.2766 20.8021 11.7616 20.9638C11.2499 20.9528 10.7383 20.9601 10.2232 20.9601H7.14997H4.07671H2.53836C2.02672 20.7911 1.51509 20.6294 1 20.409C1.51163 20.1885 2.02327 20.0268 2.53836 19.8578H4.07671H7.14997H10.2232C10.7348 19.8541 11.2465 19.8614 11.7616 19.8504C12.2732 20.0158 12.7883 20.1811 13.2999 20.409C13.2999 20.409 12.7883 20.1811 13.2999 20.409Z" fill="#595959"/>
<path d="M13.2999 20.409C12.7883 20.6405 12.2766 20.8021 11.7616 20.9638C11.2499 20.9528 10.7383 20.9601 10.2232 20.9601H7.14997H4.07671H2.53836C2.02672 20.7911 1.51509 20.6294 1 20.409C1.51163 20.1885 2.02327 20.0268 2.53836 19.8578H4.07671H7.14997H10.2232C10.7348 19.8541 11.2465 19.8614 11.7616 19.8504C12.2732 20.0158 12.7883 20.1811 13.2999 20.409ZM13.2999 20.409C13.2999 20.409 12.7883 20.1811 13.2999 20.409Z" stroke="#595959" stroke-width="0.4" stroke-miterlimit="10"/>
</svg>
