<?xml version="1.0" encoding="UTF-8"?>
<svg id="Livello_1" xmlns="http://www.w3.org/2000/svg" xmlns:xlink="http://www.w3.org/1999/xlink" width="36.37" height="41.07" viewBox="0 0 36.37 41.07">
    <defs>
        <style>.cls-1111111{fill:currentColor;stroke:currentColor;}.cls-2222222{fill:currentColor;}.cls-3333333{fill:#fff;stroke:currentColor;}</style>
    </defs>
    <path class="cls-3333333" d="M19.44,.83l15.19,8.77c.77,.45,1.25,1.27,1.25,2.17V29.3c0,.89-.48,1.72-1.25,2.17l-15.19,8.77c-.77,.45-1.73,.45-2.5,0L1.75,31.47c-.77-.45-1.25-1.27-1.25-2.17V11.77c0-.89,.48-1.72,1.25-2.16L16.94,.83c.77-.45,1.73-.45,2.5,0Z" />
    <path class="cls-2222222" d="M28.41,23.05c.04-.08,.22-.34,.26-.42h0c-.39,.77-.8,1.57-1.21,2.37,.3-.54,.61-1.1,.91-1.64,.15-.29,.3-.57,.44-.84l.17-.34c.19-.37,.28-.78,.27-1.2h0l-.02-.52c-.02-.28-.04-.55-.07-.8-.01-.09,.01-.18,.02-.27h0c.04-.21,0-.43-.09-.63l-.1-.24-.21-.51c-.08-.2-.17-.39-.27-.58-.19-.36-.37-.71-.55-1.06,.12,.24,.25,.49,.37,.73-.13-.25-.25-.49-.37-.73-.27-.53-.53-1.06-.79-1.59-.17-.35-.34-.71-.51-1.07-.2-.43-.51-.81-.89-1.1l-1.87-1.43c-.39-.3-.85-.5-1.34-.58l-.17-.03-5.63-.9c-.66-.11-1.34,.02-1.92,.36h0l-.61,.35,.68-.39c-.64,.41-1.23,.79-1.79,1.15-.18,.11-.34,.24-.49,.39l-.05,.05c.05-.04,.08-.06,.12-.09,.12-.09,.24-.17,.38-.24h0c-.13,.07-.25,.16-.36,.26l-.04,.04c-.17,.2-.52,.54-.82,.85-.05,.05-.79,.72-.84,.77h0l.1-.07-1.14,1.08c-.28,.26-.5,.57-.66,.92l-.37,.8c-.04,.1-.09,.19-.15,.28l-.36,.81s-.09,.15-.1,.17h0l-.06,.12c-.05,.09-.07,.19-.07,.29h0v.05s0,0,0-.02v.44l.02,.55c0,.37,0,.73,.03,1.08,0,.99,.01,2.01,.02,3.05,0,.69,.25,1.35,.68,1.89,.29,.35,.58,.7,.86,1.05,0,0,.02,.02,.03,.02l1.11,.81h0c.73,.52,1.4,.95,2.26,1.63l1.05,.72c.19,.13,.39,.24,.6,.31,.08,.03,.16,.05,.25,.07h.02c.57,.25,.92,.38,1.34,.55,.07,.03,1.14,.41,1.08,.38h0c-.52-.28-.57-.26-1.01-.49h0c-.6-.27-1.2-.55-1.8-.82-.04-.02-.09-.05-.13-.08-1.29-1-2.57-2-3.86-3l-.29-.21c-.21-.15-.4-.33-.56-.54-.16-.2-.32-.39-.48-.59-.43-.53-.66-1.19-.66-1.88v-.66l-.04-3.71c0-.43,.08-.86,.26-1.26l.04-.08c.15-.33,.28-.56,.43-.84,.09-.2,.18-.4,.28-.61,.16-.35,.38-.66,.66-.92,.68-.65,1.39-1.33,2.06-1.96l-.06,.05c.2-.19,.4-.38,.59-.55,.16-.15,.34-.27,.52-.38,.19-.11,.41-.24,.62-.36,.04-.02,.07-.05,.11-.07h0c.06-.05,.14-.08,.21-.12,.09-.05,.23-.14,.41-.25l.11-.07c.59-.37,1.28-.52,1.97-.43l.9,.12c.61,.08,1.07,.14,1.15,.16l.26,.03,3.09,.54c.47,.08,.92,.28,1.3,.57l.21,.16,.81,.53c.18,.16,.25,.17,.44,.32,.05,.03,.09,.07,.13,.11,.2,.2,.43,.38,.67,.54h0s.02,0-.05-.07h0s.09,.08,.11,.13l.69,1.46,.37,.73c.03,.06,.06,.12,.09,.18,.07,.17,.14,.35,.22,.52,.09,.19,.1,.23,.19,.44,.07,.17,.15,.35,.23,.52,.2,.42,.61,1.19,.67,1.31l-.05-.09,.16,.35,.07,.16,.03,.08h0s0,.04,0,.06c0,.05,0,.13-.01,.19v.28c-.02,.19-.03,.39-.03,.62v.44c0,.46-.12,.91-.32,1.32-.59,1.19-1.19,2.38-1.73,3.45-.03,.06-.05,.12-.01,.05h0c.07-.13,.1-.16,.03-.03-.25,.47-.49,.95-.74,1.42-.08,.16-.2,.29-.34,.4l-.52,.39c-.16,.11-.36,.25-.44,.29-.27,.2-.16,.14-.34,.28-.01,0-.02,.01-.04,.01h0s-.03,0-.04,.01c-.27,.23-.44,.29-.7,.51h-.01v.02s-.02,0-.01,.02h0s-.07,0-.09,0c-.09,0-.31,.06-.32,.05h0c-.07,.01-.13,.02-.22,.03l-1.51,.38s-.09,.02-.13,.02h0c-.2,.04-.28,.07-.16,.06l-.24,.04h.03l-.24,.03s-.1,0-.03-.03c-.14,.04-.28,.07-.42,.09,.19-.02,.4-.05,.62-.08,.06,0,.06,.03,0,.04h0c-.18,.02-.53,.06-.84,.11-.1,.01-.2,.04-.3,.07-.05,.01-.09,.02-.14,.03h0s-.04-.02,0-.02c.05,0,.1-.02,.15-.03-.18,0-.36,.03-.53,.07-.03,.01-.13,.03-.25,.05-.05,0-.55,.08-.6,.08h0c-.07,.01-.04,.04,.03,.03,.12-.02,.24-.03,.18,0-.01,0-.03,0-.04,0-.12,.01-.24,.03-.35,.05-.05,0-.02,.02-.06,.04h-.01c-.09,.02-.19,.04-.27,.06-.02,0-.02,0,0,0h0c-.14,.02,.02-.03-.11,.01-.07,.02-.1,.03-.07,.02,.06,0,.04,0,.03,.01-.04,.02,.04,0,.09,0h0s.09-.03,.14-.03h.04c.08,0,.02,.02,.1,0,.2-.07,.73-.22,.55-.17h0s.01,.01,0,.01c-.13,.03-.26,.05-.39,.07h-.01c-.08,.04-.17,.06-.25,.08h-.04c-.17,.05,.15-.07,.03,.06-.06,.06-.47,.22,.02,.14-.2,.01-.09-.02,.09-.05,.2-.04,.41-.05,.62-.08,.03,0,.06,0,.08-.01,.16-.03,.13-.03,.14-.04,0,0,.01,0,.02,0h0c.07,0,.49-.06,.56-.06,.04,0,.09-.01,.14-.02,.16-.04-.01,0,.1-.04l.61-.1c.1-.02,.2-.03,.3-.02,.05,0,.08,.02,0,.04h-.04s-.4,.07-.45,.08h-.02s-.03,.03,0,.03c.14-.02,.27-.04,.4-.07h0c.2-.05,.4-.09,.6-.11,.02,0,.04,.03,.02,.03h0l.17-.03c.05,0,.12-.03,.07-.02h0c.09-.02,.19-.04,.28-.05,.02,0,.05,0,.08,0,.13-.02,.53-.12,.84-.19,.06-.02,.68-.13,.75-.15h0s.01,0,0,0c-.03,0-.12,.02-.24,.05l-.55,.12c-.39,.09-.76,.17-.64,.14,.11,0,1.1-.23,1.69-.35,.14-.03,.27-.09,.39-.17h0l.07-.06s.16-.11,.2-.13h0s.02-.02,.03-.02l.02-.02h0c.09-.05,.17-.11,.25-.18,.26-.21,.61-.45,.84-.67-.1,.11-.2,.22-.32,.32,0,0-.02,.01-.03,.02h0s-.03,.02-.04,.03h-.02c-.08,.09-.07,.1,.02,.03,.12-.09,.24-.19,.36-.29h0l.1-.07h0c.06-.04,.06-.04,.04-.02h0c.26-.18,.51-.37,.75-.58,.01-.01,.02-.02,.03-.04,.07-.14,.1-.2,.15-.29,.05-.11,0-.01,.06-.15,.16-.3,.29-.52,.43-.79,.08-.14,.15-.35,.06-.21h0s.27-.42,.28-.45h0s.19-.25,.2-.28c.03-.06,.06-.12,.09-.19,0,0,0-.02,0-.03,0-.03,.01-.08,.1-.25l.25-.43s.01-.02,.02-.03h0s.02,.03,.03,0c.14-.31,.18-.26,.34-.59,.12-.22,.22-.44,.3-.67l.03-.06Z" />
    <path class="cls-2222222" d="M12.6,19.62c0-.07,.05-.25,.05-.32h0c0,.58,0,1.18-.02,1.78,.05-.61,.09-1.28,.1-1.91,0-.32,0-.63-.01-.92,0-.15-.02-.29-.03-.43l-.02-.19s0-.02,0-.03v-.02s-.02-.04-.01-.07h0s.02-.04,.04-.05c.4-.23,.76-.51,1.08-.84l.54-.58-.38,.4,.38-.4,.67-.68h0c.4-.39,.94-.61,1.5-.61h.73l1.77,.04,3.82,.06s.02,0,.02,.02h0l.09,.23,.15,.37,.18,.44-.19-.49,.65,1.32s.08,.03,.06-.02h0l.1,.26s.01,.02,.02,.03c.13,.2,.32,.63,.46,.91,.01,.02,.08,.23,.09,.25,.02,.06,.05,.12,.08,.19,0,0,0,0,0,0h0s0,0,0,0l.94,2.12c.03,.06,.05,.12,.07,.18,0,.01,0,.02,.01,.03h0s.02,.09,0,.13l-.02,.04h0c-.03,.06-.2,.33-.23,.38-.05,.09-.09,.15-.03,0-.2,.45-.46,.89-.64,1.32l-.95,1.82c-.29,.57-.58,1.14-.88,1.72-.02,.04-.06,.07-.11,.08l-.89,.13h0c-.59,.11-1.12,.23-1.84,.3-.49,.08-.98,.18-1.47,.31-.42,.06-.66,.1-.96,.16-.07,.01-.82,.18-.75,.18h0c.4,0,.42-.04,.75-.05h0c1.57-.15,3.13-.31,4.71-.49h0c.52-.07,.97-.39,1.22-.85,.31-.59,.63-1.18,.94-1.76,.54-1.06,1.13-2.22,1.61-3.16h0c.06-.12,.07-.27,.02-.39-.02-.06-.05-.12-.06-.15l-.08-.23c-.39-.87-.87-1.94-1.31-2.91l.02,.05c-.22-.48-.35-.85-.55-1.31-.02-.05-.08-.15-.11-.21h0v-.02c-.06-.16-.13-.31-.21-.46h0c-.32-.68-1.01-1.11-1.76-1.09h-.13c-.19,0-.35,.01-.47,.01-.12,0-.24,0-.35,0h0c-1.16-.02-2.36-.11-3.36-.1-.09,0-.19,.02-.29,.03-.24,.02-.47,.05-.71,.05-.02,0-.04,0-.07,0-.54-.09-.85-.05-.58-.02h0c-.43,0-.84,.17-1.15,.46l-.1,.1-.39,.39h0c-.14,.16-.32,.29-.49,.42-.06,.05-.12,.09-.28,.24h-.02c-.11,.09-.59,.62-.77,.79,0,0,0,0,0,0h0c-.13,.12-.25,.22-.37,.32l-.17,.14h0c-.17,.15-.27,.35-.27,.58v.12c-.03,1.28,0,2.68-.01,3.88,0,.06,.01,.09,.01,.03h0c0-.1,.02-.12,.02-.02l-.03,1.38c0,.28,.11,.55,.33,.74h0c.1,.09,.21,.21,.25,.25,.16,.15,.12,.08,.23,.18,0,0,.01,.02,.01,.03h0s0,.02,.02,.03c.19,.13,.24,.24,.41,.38,0,0,.02,.01,.03,.02,.04,.02,.07,.05,.11,.07,.02,.01,.03,.04,.04,.05,.04,.05,.16,.13,.16,.15h0s.06,.05,.09,.08c.01,.01,.03,.02,.04,.03l.84,.57s.05,.04,.07,.06h0c.1,.08,.16,.1,.11,.05l.13,.11h-.02l.12,.1h0s.05,.07,.06,.08c.06,.04,.11,.09,.17,.14-.09-.09-.2-.19-.3-.3-.04-.04-.01-.06,.03-.03h0c.1,.11,.31,.31,.48,.47,.04,.03,.09,.03,.16,.11h0s.01,.05-.02,.02l-.03-.02s-.03-.01-.01,0c.06,.06,.16,.14,.21,.19h.02s.07,.07,.13,.12c.03,.03,.26,.24,.29,.28h0s.05,0,.01-.04c-.05-.05-.1-.09-.09-.1,.01-.01,.03,.01,.05,.03,.05,.05,.11,.1,.16,.15,.03,.02,.03,0,.06,0h0s.1,.08,.14,.12c0,0,0,.01,0,0h0c.1,.08-.06-.01,.05,.06,.04,.03,.06,.04,.04,.02-.03-.03-.01-.03,0-.02,.03,0-.01-.03-.04-.05h0s-.05-.03-.08-.06c-.05-.06-.07-.09-.04-.08h.01c.1,.1-.31-.15-.38-.19,0,0-.01-.01-.02-.02h0c.07,.04,.14,.1,.21,.16,.02,.01,.05,.03,.06,.04,.03,.02,.07,.05,.11,.07l.02,.02h0s.02,.01,.02,.02c.06,.04,.13,.11,.12,.07,0,0,0,0-.01-.01-.04-.03-.07-.06-.09-.08-.03-.03-.12-.26-.15-.29h0c-.05-.08-.11-.15-.17-.2-.07-.05-.08-.05-.08-.05,0,0-.02,0-.02,0h0s-.22-.22-.26-.26c-.02-.02-.04-.04-.07-.06h0s-.09-.05-.13-.09l-.24-.21c-.05-.05-.1-.1-.14-.16-.02-.03-.02-.05,.03-.03h0l.02,.02s.19,.17,.22,.2h0s.04,.01,.02-.01c-.06-.06-.13-.12-.21-.18h0c-.11-.07-.21-.16-.31-.25-.02-.01,0-.05,0-.04h0l-.13-.11h0s-.04-.02-.05-.02c-.04-.03-.08-.07-.12-.11h0s-.28-.22-.48-.36c-.05-.04-.36-.29-.41-.33h0s.09,.07,.13,.11l.3,.23,.15,.11c.15,.11,.13,.09-.02-.03-.31-.24-.84-.62-.91-.7h-.01l-.04-.05s-.08-.08-.1-.11h0s-.02-.02-.03-.02h-.01l-.06-.08h-.01c-.12-.09-.26-.21-.39-.33-.02-.02,0-.05,.02-.04h.01s.01,.03,.02,.03h.02c.06,.05,.06,.03,.01,0-.08-.07-.16-.13-.25-.19h0l-.05-.07h0s-.03-.03,0-.03h0s-.04-.05-.06-.07h0c-.06-.05-.1-.11-.1-.19,0-.13-.01-.26,0-.4,0-.08,0,0-.02-.11l.04-.76h0v-.02s-.04-.1-.04-.11h0s.03-.05,.03-.06c0-.03,.01-.09,.02-.14,0-.03,.06-.21,.06-.24,0-.04,0-.08,0-.13,0-.01,0-.02-.01-.03-.01-.02-.02-.06-.02-.17l.03-.33s0-.02,.01-.03h0s.03,.01,.03-.02c0-.15,.01-.3,.03-.45,0-.16,0-.32-.03-.48,0,0,0-.01,0-.02v-.05Z" />
    <path class="cls-2222222" d="M10.67,25.3h0s-.04,.04-.07,.05c0,0,0,.02,0,.02,.06,0,.13-.01,.16-.05,.03-.03,.17-.1,.17-.14h0s0-.01,0-.02c0-.02,0-.04,0-.06,0,.02,0,.03-.01,.05,0-.02,0-.03,.01-.05,.04-.15,.17-.22,.3-.29,.07-.04,.25-.17,.34-.2h0s0,0,0,0h0c.01-.05,.03-.1,.05-.14,0,0,0-.01,0-.01,0,0-.02,0-.03-.01,0,0,0,0,0-.01h0s0-.06,.01-.08c0,0,.03-.01,.04-.02h0v-.02s.08-.08,.12-.12h0s.02,0,.03-.02h0s.03-.02,.05-.02c.01,0,.02,0,.02,.01h0c0-.08,.08-.15,.13-.21,.06-.07,.11-.15,.15-.23h0v-.02s0-.06,.01-.08c.01-.04,.05-.08,.05-.13,0-.02,0-.04,0-.06,0-.03,0-.06,0-.09h0s.04-.13,0-.14h0c-.05-.01-.03,.01-.07,0h0c-.1,.05-.2,.1-.29,.16-.03,.02-.05,.04-.07,.07-.04,.05-.11,.09-.15,.14-.06,.07-.11,.14-.15,.22h0s-.01,.02-.03,.02c-.02,0-.04,0-.05,.02-.04,.05-.11,.1-.15,.16h0s-.07,.03-.1,.06h0s0,.02-.01,.02c-.04,.02-.09,.19-.13,.22,0,0-.01,0-.01,.02h0c-.07,.05-.19,.05-.24,.09,0,0-.01,.02-.01,.03v.03s0,.04,0,.06h0s0,0-.02,0h-.02s-.04,.06-.08,.08h0s-.01,.01-.02,.02v.03h-.01s-.04,.01-.06,.01h0s-.03,0-.04,.01c-.01,.02-.01,.07-.02,.08h0s-.09-.01-.12,.01c-.07,.06-.15,.12-.22,.18,0,0,0,.03,0,.02h0s.01,.01,0,.02c-.04,.02-.08,.03-.11,.05-.01,0-.03,.01-.05,.01h-.01s-.01,0-.02,0c0,0,0,.01,0,.02h0s-.02,0-.03,0c0,0-.02,0-.03,0,0,0,0,0,0,.01h0s0,0-.02,0c0,0,0,.02-.02,0h0s0,.12,.01,.14h0s0,.02,0,.03h-.02s-.02,.02-.03,.02h0s.06,0,.08,0c0,0,.02,.01,0,.02h0s-.02,0-.03,0c0,0-.02,0-.03,0-.02,0-.02,0-.02,.03h0s0,0-.01,0c0,0,0,0,0,0,0,0,0,0,0,0h0s0-.02,0-.02c0,0,0,0-.01,0,0,0-.01,.01-.02,.01h0s-.02,0-.03,0c0,0,0,0-.01,0h0s0,.01,0,.02h0s.02,.01,.03,.01c0,0,0,.02,0,.02h0s0,.03,0,.04h0s0-.02-.01-.04c-.01-.04,0-.04,0,0v.03s.01,0,.02,.01h.01s0,.01,0,0h0s0,0,0,0h.02s0,.02,0,.01c-.01-.02-.02-.07-.03-.08h0s0,.02,0,.02h0s0,.02,0,.03h0s0,.01,0,.02c0,0,.01,0,.02,0,.02,0,.05,.07,.08,.1,.01,.01,0,0,0-.01h0s.02,0,.03,0h.02v-.02h0s.04,0,.04,0h0s0-.03,0-.03h0s.02,0,.03,0c0,0,.02,.01,.03,.02,0,.01,0,.02,0,0h0s0,0,0,.01c0,0,0,.01,0,.02,0,0,0,0,0,0h.02v-.02s0-.02,.03-.02h0v.02h.02s0-.02,.01-.02h0s0-.04,0-.06c0-.01,.02-.01,.02-.03h0s0,0,0,.02c0,.03,0,.04,.01,0,0-.02,.01-.05,.02-.05,0,0,.01,0,.01,0h0s0-.01,0,0c0,0,0,.01,.01,.02h0s.01,0,.02,0h0s.04-.01,.04,0h0v.02h0s0,.01,0,.02h0s.02,0,.02-.02h.01s0,0,.01,0h0s.02-.03,.03-.04c0,0,0,0,0,0h0s0,0,0,0c.01,0,.03,0,.04,0,.01,0,.02-.02,.01-.03h0s0-.02,0-.02h0s.05,.02,.07,.05c0,0,0,0,.01,0h.01s0-.02,0-.02h0s0-.03,.02-.03h.02s.03,.02,.04,.02c0,0,.02,0,.02,0h0s0-.02,.01-.03c0-.02,0-.03,.02-.02l.02,.02Z" />
    <path class="cls-2222222" d="M9.36,23.95h0s-.07,0-.1,0c-.01,0-.02,.02,0,.02,.06,.04,.13,.07,.19,.05,.05-.01,.21,.02,.26-.01h0s0-.01,.02-.02c.02-.02,.03-.03,.05-.04-.02,.01-.03,.02-.05,.03,.02-.01,.03-.02,.05-.03,.08-.04,.17-.07,.26-.08,.16-.01,.31,.03,.47,.03,.09,0,.18,0,.23,.02h0s0,0,0,0h0s.09-.07,.14-.09c0,0,0-.01,0-.02,0,0-.01-.02-.02-.02,0,0,0-.01,0-.01h0s.05-.05,.07-.06c.01,0,.03,0,.04,0h.01s0,0,0,0h0c.07-.01,.14-.02,.2-.04h0s.02,.01,.04,0h0s.05,0,.06,.01c0,0,.01,0,0,.02h0c.07-.06,.17-.07,.25-.09,.11-.02,.22-.06,.33-.11h0v-.02s.06-.05,.09-.07c.04-.02,.09-.03,.12-.06,.02-.02,.04-.03,.05-.05,.02-.03,.04-.05,.07-.07h.01s.12-.09,.09-.12h0s-.04-.01-.07-.04h0c-.13-.03-.27-.04-.4-.04-.02,0-.04,0-.06,0-.05,.01-.1,.02-.15,.03-.08,.01-.16,.02-.24,.04-.07,.02-.13,.04-.19,.07-.01,0-.03,0-.04-.01-.01-.01-.03-.01-.05,0-.08,.02-.18,.02-.26,.05h0s-.09-.02-.13,0h0s-.01,.01-.02,.01c-.05,0-.23,.1-.28,.11,0,0-.02,0-.03,0h0c-.1,0-.21-.07-.29-.07-.01,0-.02,0-.03,.02l-.02,.03s-.03,.03-.05,.04h0s-.01,0-.02,0h0s-.09,0-.14,.01h0s-.02,0-.02,0l-.04,.02h0s-.05-.01-.07-.03h0s-.04-.02-.05-.01c-.03,.01-.06,.05-.08,.05h0s-.08-.06-.12-.06c-.11,0-.23,.02-.34,.03-.01,0-.03,.02-.01,.01h0s0,.02-.01,.02c-.05,0-.1-.02-.15-.03-.02,0-.03,0-.05-.02h0s0-.02-.02-.02c0,0,0,.01-.01,.01,0,0,0,0,0,0h0s-.02-.01-.02-.02c0,0-.02-.02-.03-.02,0,0,0,0-.01,.01h0s-.01,0-.02,0c0,0-.02,0-.02-.01h0s0,0-.01,0c-.02,.02-.07,.09-.08,.11h0s-.01,.01,0,.02h-.03s-.02,0-.03,0h0s.05,.03,.07,.05c0,0,0,.02,0,.02h0s-.02,0-.03-.01c0,0-.02-.02-.03-.02-.01,0-.02,0-.03,.01h0s0,0,0,0c0,0,0,0-.01,0,0,0,0-.01,0-.01h0s.02-.01,.01-.02h-.01s-.02,0-.02,0h0s-.02-.01-.03-.01h-.02s0,0,0,0h0s.01,.02,.02,.03c0,0,0,.01-.02,.02h0s0,.03-.01,.04h0s0,0,0,0h0s0-.01,0-.03c.02-.04,.02-.04,0,0v.02s-.01,0-.01,.01c0,0,0,.01,0,.02,0,0,0,0,0,0h0s0,0,.01,0v.02s0,.01,0,0c0-.02,.03-.07,.03-.08h0s0,.02-.02,.02h-.02v.02h-.01s0,0-.01,.01c0,0,0,.01,.01,.02,.01,.02,0,.09,0,.13,0,.02,0,0,.02,0h0s.02,0,.03,.01c0,0,0,.01,.01,.01h0s0,0,0-.01h0s.03,.02,.04,.03h0s0-.02,.02-.02h0s.02,.01,.03,.02c0,0,0,.02,0,.03,0,.01-.01,.02,0,0h0s0,0-.01,0c0,0-.01,0-.02,0,0,0,0,.01,0,.02h.03s.03-.02,.04,0h0s0,.02,0,.02h.03s.03-.03,.05-.04c0,0,.03,0,.04,0h0s-.02,0-.03,0c-.03,.02-.03,.03,0,0,.02-.02,.05-.03,.06-.03,0,0,.01,0,.02,0h0s.01,0,.01,0c0,0,0,.01,0,.02h0s.01,.01,.02,0c0,0,.01,0,.02,0,0,0,.03,.02,.03,.03h-.01s0,.02,0,.03h0s.02,0,.03,0h.01s0,.01,0,.02h0s.04-.01,.07-.01c0,0,.01,0,.01,0h0s0,0,.01,0c.01,0,.03,.01,.04,.02,.01,0,.03,0,.03-.02h0s0-.02,0-.02h0s.04,.05,.03,.09c0,0,0,.01,0,.01h.02s0,0,0-.01h0s.02-.02,.03-.02h.01v.02h0s.02,.03,.03,.04c0,0,.01,.02,.02,.02h0s.02,0,.03-.01c.01-.01,.03-.02,.03,0,0,0,0,.02,0,.02Z" />
    <path class="cls-2222222" d="M9.48,17.37h0s-.06,0-.09-.02c-.01,0-.02,.01-.01,.02,.05,.05,.1,.09,.16,.09,.05,0,.2,.07,.24,.04h0s0,0,.02-.02c.02-.01,.04-.02,.06-.03-.02,0-.03,.01-.05,.02,.02,0,.03-.02,.05-.02,.08-.02,.16-.03,.24-.02h0c.16,.02,.3,.1,.46,.14,.07,.02,.15,.04,.19,.06h0s0,0,0,0h0s.1-.04,.15-.06c0,0,0,0,0-.01,0,0,0-.02-.01-.03,0,0,0-.01,0,0h0s.05-.03,.08-.04c.01,0,.03,.01,.04,.02h.02c.06,0,.13,0,.19,0h0s.02,.02,.03,.02h0s.04,.01,.05,.02c0,0,.01,.01,0,.02h0c.07-.05,.17-.03,.26-.03,.11,0,.21-.01,.31-.03h0v-.02s.07-.03,.1-.04c.04-.01,.09-.01,.13-.04,.02-.01,.04-.02,.05-.04,.02-.02,.05-.04,.08-.06h.01s.12-.06,.11-.09h0c-.03-.05-.03-.02-.05-.05h0c-.11-.05-.23-.1-.36-.13-.02,0-.04,0-.06,0-.05,0-.09,0-.14,0-.07,0-.15-.02-.23-.01-.06,0-.13,.01-.19,.02-.01,0-.02,0-.03-.02-.01-.01-.03-.02-.04-.02-.08,0-.16-.02-.25-.01h0s-.08-.03-.12-.04h0s-.01,0-.02,0c-.04-.01-.23,.05-.28,.05,0,0-.02,0-.02,0h0c-.09-.03-.17-.12-.25-.13-.01,0-.02,0-.03,0l-.02,.02s-.04,.02-.05,.03h0s-.01,0-.02,0h0c-.02-.05-.09-.01-.13-.02h0s-.02,0-.03,0h-.04s-.04-.01-.06-.03h0s-.03-.03-.04-.02c-.03,0-.07,.04-.08,.04h0s-.06-.08-.1-.09c-.1-.02-.21-.04-.31-.05-.01,0-.03,.01-.02,.01h0s0,.02-.02,.02c-.04-.02-.08-.04-.13-.06-.02,0-.03-.01-.04-.03h0s0-.02-.01-.02c0,0,0,0-.01,.01,0,0,0,0,0,0h0s-.01-.02-.02-.02c0,0-.01-.03-.02-.03h-.02s-.02,0-.02-.02h-.02s-.08,.07-.1,.09h0s-.01,0-.01,.02h-.02s-.02-.02-.02-.02h0s.04,.04,.05,.07c0,.01,0,.02,0,.02h0s-.02-.01-.03-.02c0,0-.01-.02-.02-.03-.01-.01-.02,0-.03,0h0s0,0,0-.01c0,0,0,0,0,0,0,0,0-.01,0-.01h0s.02,0,.01-.02h-.01s-.02,0-.02,0h0s-.02-.01-.02-.02h-.02s0,0,0,0h0s0,.02,.01,.03c0,0-.01,.01-.02,.01h0s0,.03-.02,.03h0s0-.01,0,0h0s0-.01,.02-.03c.03-.04,.03-.03,0,0l-.02,.02s0,0,0,.01v.02s0,0,0,0h0s0,0,.01,0h0s0,.03,0,.01c.01-.02,.04-.06,.04-.07h0s-.01,.02-.02,.02h-.03s-.01,.02-.01,.02c0,0,0,.01,0,.02,0,.02-.02,.09-.03,.13,0,.02,0,0,.02,0h0s.02,0,.02,.02c0,0,0,.01,.01,.02h.02s.02,.02,.03,.03h0s.01-.02,.02-.01h0s.02,.02,.02,.03c0,.01,0,.02,0,.03,0,.01-.01,.01,0,0h0s0,0-.01,0c0,0-.01,0-.02,0,0,0,0,.01,0,.02h.03s.03,0,.04,.01h0v.02h.01s0,0,.01,0h0s.04-.01,.06-.03c.01,0,.03,0,.04,0h0s-.01,0-.02,0c-.04,.02-.03,.03,0,0,.02-.01,.05-.02,.06-.02,0,0,0,0,.01,0h.01s0,0,0,.02h0s.01,.01,.02,.01c0,0,0,0,.01,0,0,0,.03,.03,.02,.03h-.02s0,.02-.01,.02h0s.02,.01,.03,0h0s0,.02,0,.02h0s.04,0,.07,0c0,0,.01,0,.01,0h0s0,0,.01,0c.01,.01,.02,.02,.03,.03,.01,0,.03,0,.03,0h0s0-.02,0-.02h0s.03,.06,0,.09c0,0,0,.01,0,.01h.02s0,0,0,0h0s.02-.02,.03,0h.01v.02h0s.01,.03,.02,.04c0,.01,0,.02,.01,.02h0s.02,0,.03,0c.01,0,.03-.02,.03,0v.02Z" />
    <path class="cls-2222222" d="M10.12,15.54h0s-.04-.04-.06-.07c0,0-.02,0-.02,0,0,.07,.02,.14,.07,.17,.04,.03,.11,.18,.16,.19h0s.01,0,.02,0c.02,0,.04,0,.07,.01-.02,0-.04-.01-.05-.02,.02,0,.04,0,.05,.02,.17,.05,.25,.19,.33,.34,.05,.08,.21,.28,.25,.37h0s0,0,0,0h0c.05,.01,.1,.03,.15,.05,0,0,.01,0,.02,0,0,0,0-.02,0-.03,0,0,0,0,.01,0h0s.06,.01,.08,.02c0,0,.02,.03,.02,.04h.02c.05,.06,.09,.1,.14,.15h0s0,.03,.02,.04h0s.02,.04,.03,.05c0,0,0,.02-.01,.01h0c.09,.01,.15,.09,.22,.14,.08,.07,.17,.13,.27,.18h.02s.07,0,.1,.02c.04,.02,.08,.05,.12,.06,.02,0,.04,0,.07,0,.03,0,.07,0,.1,0h.01s.13,.04,.14,0h0c0-.06-.02-.04-.01-.08h0c-.05-.12-.12-.23-.2-.34-.01-.02-.03-.03-.05-.05-.04-.03-.07-.06-.11-.09-.05-.05-.11-.11-.17-.15-.05-.04-.11-.07-.17-.11-.01,0-.01-.02-.01-.04,0-.02,0-.03-.02-.04-.06-.05-.12-.12-.19-.17h0s-.04-.08-.07-.11h0s-.01,0-.01-.01c-.03-.04-.21-.11-.25-.14,0,0-.01-.01-.02-.02h0c-.05-.09-.06-.21-.12-.27,0,0-.02-.01-.03-.01h-.03s-.04,0-.06,0h0s0-.01,0-.02h0c0-.05-.07-.07-.1-.1h0s-.01-.01-.02-.02h-.04v-.02s-.02-.04-.02-.07h0s0-.04-.02-.05c-.03-.01-.08-.02-.09-.03h0s0-.1-.03-.13c-.07-.08-.14-.16-.22-.24,0,0-.03,0-.02,0h0s-.01,.02-.02,0c-.02-.04-.04-.09-.06-.13,0-.01-.02-.03-.01-.05h0s0-.03,0-.03c0,0-.01,0-.02,0,0,0,0,0,0,0h0s0-.02,0-.03c0-.01,0-.03,0-.04h-.02s-.02-.02,0-.04h-.02s-.11,0-.13,0h0s-.02,0-.02,0h-.02v-.02h0s0-.02,0-.03h0s0,.06,0,.08c0,.01-.01,.02-.02,0h0s0-.02,0-.03c0-.01,0-.02,0-.03,0-.02-.01-.02-.03-.02h0s0,0,0-.01c0,0,0,0,0,0,0,0,0-.01,.01,0h0s.02,0,.02,0h0s-.01-.02-.02-.03h0s0-.02,0-.03c0,0,0,0,0-.01h0s0,0-.01,0h0s0,.02,0,.03c0,0-.02,0-.02,0h-.01s-.02,.01-.03,0h0s0-.01,0,0h0s.01,0,.03-.01c.05-.01,.04,0,0,0h-.03s0,.01-.01,.01h-.01s0,.02,0,.01h0s.01,0,0,0v.02s-.02,0-.01,0c.02-.01,.07-.02,.08-.03h0s-.01,0-.02,0h-.02s0,0-.01,0h0s-.01,0-.02,0c0,0,0,.02,0,.02,0,.02-.07,.05-.1,.08-.01,.01,0,0,.01,.01h0s.01,.02,0,.03c0,0,0,.01,0,.02h0s0,0,.01,0h0s0,.04,0,.05h0s.02,0,.03,0h0s0,.03,0,.04c0,0-.01,.02-.02,.03,0,0-.02,0,0,0h0s0,0-.01,0c0,0,0,0-.02,0,0,0-.01,0-.01,.01h0v.02h.02s.03,.01,.02,.03h-.01v.03h.01s0,0,0,0h0s.04,.02,.06,.02c.01,0,.02,.02,.03,.03h-.02s-.04-.01,0,0c.03,0,.05,.02,.05,.02h.02s-.02,.02-.02,.03h0s0,.02,0,.03h.01s0,.05,0,.05h-.02s-.01,0-.02,0h0s.01,.02,.03,.02h0s0,.02,0,.02h0s.04,.02,.06,.04c0,0,0,.01,.01,0h0s.01,0,.01,0c0,.01,0,.03,0,.04,0,.01,.02,.02,.03,.01h0s.01-.01,.01,0h0s-.01,.06-.05,.08c0,0,0,0,0,.01h0s.01,.01,.01,.01h.01s.02,0,.02,.01v.02h0s-.01,.04-.02,.05c0,.01,0,.02,0,.03h0s.02,.01,.03,.02c.02,0,.04,0,.03,.02,0,0-.01,.01-.02,.02Z" />
    <path class="cls-2222222" d="M13.78,12.14h0s-.03-.05-.04-.08c0-.01-.02-.01-.02,0,0,.07,0,.14,.02,.18,.03,.04,.07,.2,.11,.22h0s.01,0,.02,0c.02,0,.04,.02,.06,.03-.02,0-.03-.02-.05-.03,.02,0,.03,.02,.05,.03,.07,.05,.12,.11,.16,.17h0c.08,.14,.11,.3,.17,.45,.03,.07,.06,.14,.07,.19h0s0,0,0,0h0s.09,.05,.13,.08c0,0,.01,0,.02,0,0,0,.01-.02,.01-.02,0,0,.01,0,.01,0h0s.06,.03,.08,.04c0,0,0,.03,0,.04h.02c.03,.07,.07,.12,.11,.18h0s0,.03,0,.04h0s.01,.04,.01,.06c0,0,0,.02-.02,.01h0c.08,.03,.13,.12,.18,.19,.07,.08,.14,.16,.22,.23h.02s.06,.03,.09,.05c.04,.02,.07,.06,.11,.08,.02,0,.04,.02,.06,.02,.03,0,.07,.01,.09,.03h.01s.12,.07,.13,.04h0c.02-.05,0-.04,0-.08h0c-.02-.13-.06-.25-.12-.37,0-.02-.02-.04-.03-.05-.03-.04-.06-.08-.08-.12-.04-.06-.08-.13-.13-.19-.04-.05-.09-.1-.14-.14-.01,0-.01-.02,0-.04,0-.02,0-.03-.01-.05-.05-.06-.09-.14-.14-.2h0s-.02-.08-.04-.12h0s0-.01-.01-.02c-.02-.04-.18-.15-.21-.19,0,0,0-.01-.01-.02h0c-.03-.09-.02-.21-.05-.29,0-.01-.02-.02-.03-.02h-.03s-.04-.02-.06-.03h0s0-.01,0-.02h0c.02-.05-.05-.08-.08-.12h0s-.01-.02-.02-.02l-.03-.02h0s0-.05,0-.07h0s0-.04,0-.05c-.02-.02-.07-.03-.08-.04h0s.02-.09,0-.13c-.05-.1-.1-.19-.16-.28,0-.01-.03-.02-.02,0h0s-.02,.01-.02,0c-.01-.04-.02-.09-.03-.14,0-.02,0-.03,0-.05h0s0-.02,0-.03c0,0-.01,0-.02,0h0s0-.03,0-.04c0-.01,.01-.03,0-.03h-.02s-.02-.03,0-.04h-.01s-.11-.03-.13-.04h0s-.02-.01-.02,0h0v-.02h0s0-.03,0-.03h0s-.01,.05-.02,.08c0,.01-.02,.02-.02,0h0s0-.02,0-.03c0-.01,0-.02,0-.03,0-.02,0-.02-.02-.02h0s0-.02,0-.02c0,0,0-.01,.01,0h0s.02,.01,.02,0c0,0,0,0,0-.01,0,0,0-.01-.01-.02h0s0-.02,0-.03c0,0,0,0,0-.01h0s-.01-.01-.02,0h0s-.01,.02-.01,.03c0,0-.02,0-.02,0h-.01s-.02,0-.03,0h0s0-.01,0,0h0s.01,0,.03,0c.05,0,.04,0,0,0h-.03s0,0-.01,0h-.02s0,.01,0,.01h0s0,0,0,0h-.01s-.01,.02,0,.01c.03,0,.07,0,.08,0h0s-.01,0-.02,0h-.01s0-.01-.01-.01h0s0-.01-.01,0c0,0,0,.01-.01,.02-.01,.02-.08,.04-.12,.06-.01,0,0,0,.01,.02h0s0,.02,0,.03c0,0,0,.01,0,.02h.02s-.01,.05-.01,.05h0s.02,0,.02,.02h0s0,.03,0,.04c0,0-.02,.01-.03,.02-.01,0-.02,0,0,0h0s0,0-.01,0c0,0,0-.01-.02-.01,0,0-.01,0-.01,.01h0v.02h.02s.02,.02,.01,.04h-.02v.02h.01s0,0,0,0h0s.04,.02,.06,.03c.01,0,.01,.02,.02,.03h0l-.02-.02s-.04-.01,0,0c.02,.01,.04,.03,.05,.04h.02v.02s-.02,0-.02,.01h0s0,.02,0,.03h0s0,.05-.01,.05c0,0,0,0-.01,0h0s-.01,0-.02,0h0s0,.03,.02,.03h0s0,.02-.01,.02h0s.04,.03,.04,.05c0,0,0,.01,0,0h0s0,0,0,0c0,.01,0,.03,0,.04,0,.01,.01,.02,.02,.02h0s.01,0,.01,0h0s-.02,.06-.06,.07c0,0-.01,0-.01,0h0v.02h0s0,0,.01,0h.01s.02,0,.01,.02v.02h0s-.02,.04-.03,.05c0,0-.01,.02,0,.03h0s.01,.02,.02,.02c.01,0,.03,.01,.02,.02,0,0-.01,0-.02,.01Z" />
    <path class="cls-2222222" d="M15.46,10.94h0s0-.08,.02-.11c0-.01-.01-.02-.02-.01-.05,.07-.09,.14-.09,.21,0,.06-.05,.23-.04,.28h0s.01,.01,.02,.03c.01,.02,.02,.04,.03,.06,0-.02-.01-.04-.02-.06,0,.02,.02,.04,.02,.06,.05,.19,.04,.39-.03,.57-.03,.11-.07,.41-.12,.52h0s0,0,0,0h0c.02,.06,.04,.12,.06,.18,0,0,0,.01,.02,0h.02s.01,0,.01,0h0s.03,.07,.04,.1c0,.01-.01,.03-.02,.04v.02h0c-.01,.09,0,.18,0,.25h0s-.02,.03-.01,.04h0s-.01,.06-.03,.07c0,0,0,0-.02,0,0,.01,.01,.02,.01,.03,.03,.08,.03,.18,.03,.26,0,.14,.02,.28,.05,.41h.02c.01,.05,.04,.09,.05,.14,0,.04,.01,.09,.03,.13,.01,.03,.03,.05,.04,.07,.02,.03,.05,.06,.06,.09v.03s.06,.14,.1,.12h0s.01-.05,.04-.07h0c.06-.16,.1-.31,.12-.46,0-.02,0-.04,0-.07,0-.11,0-.21,.01-.32,0-.12-.01-.25-.04-.37,0-.02,0-.03,.02-.05,.01-.01,.02-.03,.02-.04,0-.09,.01-.21,0-.31h0c0-.06,.03-.1,.03-.15h0s0-.03,0-.03c.01-.05-.06-.28-.05-.34,0,0,0-.02,0-.03h0c.03-.12,.11-.23,.12-.33,0-.01,0-.03-.01-.04l-.02-.03s-.02-.04-.03-.06h0s0-.02,.01-.02h0s0-.11,0-.16v-.02s0-.02,0-.02c0-.02,0-.03-.01-.05h0s.02-.05,.04-.07h0s.03-.04,.02-.06c0-.03-.04-.08-.04-.1h0s.07-.08,.08-.13c.03-.13,.02-.27,.04-.39,0-.01-.01-.03-.01-.01h0s-.02,0-.02-.01c.01-.06,.04-.11,.06-.17,0-.02,0-.03,.02-.05h.01s.01-.02,.01-.02c0,0,0,0-.01-.02,0,0,0,0,0,0h0s.01-.01,.02-.02c0-.01,.03-.02,.03-.03,0,0,0,0-.01-.01h0s0-.01,.01-.02c0,0,0-.02,.01-.02h0s0-.02,0-.02c-.02-.02-.08-.09-.09-.11h0s-.01-.02-.02-.02h0v-.03h.02v-.02s0-.01,0-.02c-.02,.02-.04,.04-.06,.06-.01,.01-.03,0-.02,0h0s0-.02,.02-.03c.01-.01,.02-.02,.03-.03,0-.01,0-.02,0-.03h0s0-.01,.01-.01c0,0,0,0,0,0,0,0,.01,0,.01,0h0s.01,.02,.02,.01h0s0-.03,0-.04h0s.02-.03,.02-.04h0v-.02s0,0,0,0h0s-.02,0-.02,.02c0,0-.01,0-.01-.02h0s0,0,0,0h0s-.01,0-.02-.02h0s0-.01,0,0h0s.01,0,.02,.01c.04,.03,.04,.03,0,0l-.02-.02s0,0-.02,0h-.02s0,0,0,0h0s0,.01,0,.01h-.01s-.02,0,0,0c.02,.01,.06,.04,.07,.05h-.02s-.01-.04-.02-.05h0v-.02s-.02,0-.03,.01c-.02,.01-.08-.02-.12-.02-.02,0,0,0,0,.02h0s0,.02-.02,.03h0s-.01,0-.01,.01h0s0,.01,.01,.01c0,0,0,0,0,0h0s-.03,.03-.04,.03h0s.02,.02,.01,.04h0s-.01,.04-.03,.04c0,0-.02,0-.03,0-.01,0-.02-.02,0-.01h0s0,0,0-.02c0,0,0-.01,0-.02,0,0-.01,0-.02,0h0v.02h0s0,.05,0,.06h-.02s-.01,0-.02,0h0s.01,0,.01,0c0,0,0,0,0,.01h0s.02,.05,.04,.07c0,.01,0,.03,0,.05h0s0-.02-.01-.03c-.02-.04-.03-.04-.01,0,.01,.03,.02,.06,.02,.08,0,0,0,.01,0,.02h0s0,.02,0,.01c0,0-.01,0-.02,0h0s0,.02,0,.03c0,0,0,.02,0,.03,0,.01-.02,.03-.03,.02h0v-.02s0-.01-.01-.01h0s0,.03,0,.04h0s0,.01-.01,.01h0s.01,.05,0,.08c0,0,0,.01,0,.01h0s0,.01,0,.01c-.01,.01-.02,.03-.03,.05,0,.01,0,.03,.01,.03h0s.01,0,.01,0h0s-.05,.04-.09,.02c0,0-.01,0-.02,0h0v.02h0s0,0,.01,.01h.01s0,.03,0,.03v.02h-.03s-.03,.02-.04,.02c-.01,0-.03,0-.03,.02h0s0,.03,0,.04c0,.02,.02,.03,0,.04,0,0-.02,0-.03,0Z" />
    <path class="cls-2222222" d="M22.88,11.81h0s0-.06,.01-.08c0-.01-.01-.02-.02-.01-.04,.05-.08,.1-.08,.15,0,.04-.05,.19-.02,.23h0s0,0,.02,.01c.01,.02,.03,.03,.04,.05,0-.02-.02-.03-.03-.04,0,.01,.02,.03,.03,.04,.03,.07,.05,.14,.05,.22h0c0,.15-.07,.29-.1,.43-.01,.07-.03,.14-.04,.18h0s0,0,0,0h0s.05,.09,.07,.13c0,0,0,0,.01,0,0,0,.02,0,.03-.01,0,0,.01,0,0,0h0s.04,.05,.04,.07c0,0,0,.03-.01,.04h0v.02h.01c0,.06,0,.12,0,.18h0s-.01,.02-.01,.04h0s0,.04-.02,.05c0,0-.01,.01-.02,0h0c.06,.06,.05,.17,.06,.25,.01,.1,.03,.19,.06,.28h.02s.04,.06,.05,.09c.02,.04,.03,.09,.05,.13,.01,.02,.02,.03,.04,.04,.02,.02,.05,.04,.06,.07h0s.07,.12,.1,.09h0s.01-.03,.04-.05h0c.05-.12,.08-.23,.1-.35,0-.02,0-.04,0-.06,0-.04,0-.09,0-.13,0-.07,0-.14,0-.21,0-.06-.02-.11-.04-.17,0,0,0-.01,0-.02,0,0,0-.02,.02-.02,.01-.01,.02-.03,.02-.05,0-.07,0-.15-.01-.22h0s.03-.07,.03-.11h0s0-.02,0-.02c0-.04-.07-.21-.07-.25,0,0,0-.02,0-.02h0c.02-.09,.1-.18,.1-.25,0-.01,0-.02-.01-.03l-.02-.02s-.03-.03-.04-.04h0s0-.01,0-.01h.02s-.01-.09,0-.13h0s0-.02,0-.03v-.03h-.02s.02-.04,.04-.06h0s.02-.03,.02-.04c0-.02-.04-.06-.04-.07h0s.07-.06,.07-.1c.01-.1,.02-.19,.02-.29,0-.01-.02-.03-.01-.01h0s-.02,0-.02-.01c.01-.04,.03-.08,.05-.12,0-.02,.01-.03,.02-.04h0s.01-.01,.01-.02c0,0-.01,0-.01-.01h0s.02-.02,.02-.03c0,0,.02-.01,.02-.02,0,0,0,0-.01-.01h0s0,0,.01-.01c0,0,0-.02,.01-.02h0v-.02s-.08-.07-.1-.08h0s-.01-.02-.02-.02h0v-.02h0s.01-.02,.02-.03h0s-.04,.04-.07,.06c0,0-.02,0-.02,0h0s.01-.02,.02-.03c0,0,.02-.01,.02-.02,.01-.01,0-.02,0-.03h0s0,0,.01,0c0,0,0,0,0-.01,0,0,.01,0,.01,0h0s0,.02,.02,.01h0s0-.03,0-.03h0s.01-.02,.02-.02h0v-.02s0,0-.01,0h0s-.02,0-.02,.01c0,0-.01-.01-.01-.02h-.01s-.02-.01-.02-.02h0s.02,0,.03,.01c.04,.02,.03,.02,0,0l-.03-.02s0,0-.01,0h-.02s0,0,0,0h0s0,0,0,.01h-.01s-.01,0,0,0c.02,0,.06,.03,.07,.03h0s0,0,0-.01v-.02h-.02s0-.02-.01-.03c0,0-.01,0-.02,.01-.02,0-.09-.01-.13-.01-.02,0,0,0,0,.02h0s0,.02-.02,.02c0,0-.01,0-.02,.01h0v.02h0s-.03,.02-.04,.03h0s.02,.02,.01,.03h0s-.01,.02-.02,.03c-.01,0-.02,0-.03,0-.01,0-.01-.01,0,0h0s0,0,0,0c0,0,0-.01-.01-.02,0,0-.01,0-.01,0h0v.02h0s0,.04,0,.04h0s-.01,0-.02,0h0s0,.02,0,.02h0s.02,.04,.04,.05c0,0,0,.02,0,.03h0s0-.01-.01-.02c-.02-.03-.03-.03,0,0,.01,.02,.03,.04,.02,.05,0,0,0,0,0,.01h0s0,.01,0,0c0,0-.01,0-.02,0h0s0,.02,0,.03h0s-.02,.04-.03,.04h-.01s0-.02-.02-.02h0s0,.02,0,.03h-.03s.02,.05,.01,.07c0,0,0,.01,0,.01h0s0,0,0,.01c0,.01-.02,.02-.02,.03,0,.01,0,.03,.01,.03h.01s0,0,0,0h0s-.05,.03-.09,.02c0,0-.01,0-.01,0h0s0,.02,.01,.02h.01s0,.02,0,.03h-.02s-.04,.03-.05,.03c0,0-.02,0-.02,.02h0s0,.02,0,.03c0,.01,.02,.03,0,.03,0,0-.01,0-.02,0Z" />
    <path class="cls-2222222" d="M25.38,13.32h0s.05-.02,.08-.02c.01,0,.01-.02,0-.02-.06-.02-.12-.04-.16-.02-.04,.02-.2,.02-.21,.06h0s0,0,0,.02c0,.02-.02,.04-.03,.06,.01-.01,.02-.03,.03-.04,0,.01-.02,.03-.03,.04-.05,.05-.11,.09-.18,.12h0c-.13,.05-.28,.04-.42,.06-.07,.01-.13,.02-.17,.02h0s0,0,0,0h0s-.06,.08-.09,.11c0,0,0,.01,0,.02,0,0,.01,.01,.02,.02,0,0,0,.01,0,0h0s-.02,.05-.04,.07c0,0-.03,0-.04,0h0s0,0,0,0h0c-.05,.03-.11,.05-.16,.07h0s-.02,0-.03,0h0s-.03,0-.05,0c-.01,0-.02,0,0-.02h0c-.03,.07-.13,.11-.2,.14-.08,.04-.16,.1-.23,.16h0v.02s-.03,.05-.05,.07c-.03,.03-.07,.06-.1,.1,0,.02-.02,.03-.02,.05,0,.03-.02,.06-.04,.08h0s-.08,.11-.05,.13h0s.03,0,.06,.02h0c.11,0,.23-.01,.34-.03,.02,0,.04-.01,.06-.02,.04-.02,.07-.04,.11-.05,.06-.02,.13-.05,.18-.08,.05-.03,.09-.06,.14-.1,0,0,0,0,.01,0,0,0,.02,0,.02,0,.02,0,.04,0,.05,0,.06-.03,.13-.05,.19-.09h0s.08,0,.11-.02h0s.01-.01,.02-.01c.04,0,.16-.14,.2-.16,0,0,.01,0,.02,0h0c.08-.01,.19,.03,.26,0,.01,0,.02-.01,.02-.02v-.03s.03-.04,.04-.05h0s.01,0,.02,0h.02s.06-.03,.1-.04h0s.02,0,.02-.01l.02-.02h0s.04,0,.06,.01h0s.03,.01,.04,0c.02-.02,.04-.06,.05-.07h0s.08,.05,.11,.04c.09-.02,.18-.05,.27-.09,.01,0,.02-.02,0-.02h0s0-.02,0-.02c.04,0,.08,0,.12,0,.02,0,.03,0,.05,0h0s.01,.01,.02,.01c0,0,0-.01,0-.02h0s.02,.01,.03,.02c0,0,.02,.01,.03,.01,0,0,0,0,0-.01h0s0,0,.02,0c0,0,.01-.01,.02,0h.01s.03-.11,.04-.13h0s0-.02,0-.03h.05s-.05-.02-.07-.04c0,0,0-.02,0-.02h0s.02,0,.03,0c0,0,.02,0,.03,.01,.02,0,.02,0,.03-.02h.01s0,0,.01,0c0,0,0,0,0,.01h0s-.01,.02,0,.02c0,0,0,0,.01,0,0,0,.01,0,.02,0h0s.02,0,.03,0h.02s0,0,0,0h0s-.01-.02-.02-.02c0,0,0-.01,.01-.02h0s0-.03,0-.04h0s0,.02,0,.05c0,.04,0,.04,0,0v-.03s0,0,0-.01v-.02s0,0,0,0h0s0,0,0,0v-.02s-.01-.01-.01,0c0,.03,0,.07,0,.08h0s0-.02,0-.02h.01v-.02h0s0,0,0-.02c0,0-.01,0-.02-.01-.02-.02-.02-.09-.04-.13,0-.01,0,0-.01,0h0s-.02,0-.03,0h-.02s0,0,0,0h0s-.03-.02-.04-.02h0s0,.02-.02,.03h0s-.02,0-.03-.01c0,0-.01-.02-.02-.03,0-.01,0-.02,0,0h0s0,0,0-.01c0,0,.01,0,.01-.02,0,0,0,0,0-.01h-.03s-.02,.03-.03,.01h0v-.02h-.01s0,.01-.01,0h0s-.02,.03-.03,.05c0,.01-.02,0-.03,.01h0s.01,0,.02-.01c.02-.03,.01-.03,0,0-.01,.02-.03,.04-.04,.04h-.01s0,.01,0,0c0,0,0-.01,0-.02h0s-.01,0-.02,0h0s-.03,0-.03-.02h0v-.02h0s0-.01,0-.02h0s-.02,0-.02,.01h-.01s0-.01,0-.02h0s-.03,.02-.05,.03c0,0-.01,0,0,0h0s0,0,0,0c-.01,0-.02,0-.04-.01-.01,0-.03,0-.02,.02h0s0,.02,0,.02h0s-.04-.04-.05-.08c0,0,0-.01,0-.01h-.01s0,.01,0,.02h0s-.01,.03-.03,.02h-.02s-.02-.04-.03-.05c0,0-.01-.01-.02-.01h0s-.01,.01-.02,.02c0,.01-.02,.03-.02,.01v-.02Z" />
    <path class="cls-2222222" d="M26.65,20.77h0s-.05,.02-.08,.02c-.01,0-.01,.02,0,.02,.06,.02,.12,.04,.16,.02,.04-.02,.19-.02,.21-.06h0s0,0,0-.02c0-.02,.02-.04,.03-.06-.01,.01-.02,.03-.03,.04,0-.01,.02-.03,.03-.04,.05-.05,.11-.09,.17-.12h0c.13-.05,.28-.04,.42-.06,.07-.01,.13-.02,.17-.02h0s0,0,0,0h0s.06-.08,.09-.11c0,0,0-.01,0-.02,0,0-.01-.01-.02-.02,0,0,0-.01,0,0h0s.02-.05,.04-.07c0,0,.03,0,.04,0h0s0,0,0,0h0c.05-.03,.11-.05,.16-.07h0s.02,0,.03,0h0s.03,0,.05,0c.01,0,.02,0,.01,.02h0c.03-.07,.13-.1,.2-.14,.08-.04,.15-.1,.22-.16h0v-.02s.03-.05,.05-.07c.03-.04,.07-.06,.09-.1,0-.02,.02-.03,.02-.05,0-.03,.02-.06,.04-.08h0s.08-.11,.05-.13h0s-.03,0-.06-.02h0c-.11,0-.22,0-.33,.03-.02,0-.04,.01-.06,.02-.04,.02-.07,.04-.11,.05-.06,.02-.12,.05-.18,.08-.05,.03-.09,.06-.13,.09,0,0,0,0-.01,0,0,0-.02,0-.02,0-.02,0-.04,0-.05,0-.06,.03-.13,.05-.19,.09h0s-.07,0-.11,.02h0s-.01,.01-.02,.01c-.04,0-.16,.14-.2,.16,0,0-.01,0-.02,0h0c-.08,.01-.18-.03-.25-.01-.01,0-.02,.01-.02,.02v.03s-.03,.04-.04,.05h0s-.01,0-.01,0h-.02s-.06,.03-.1,.04h0s-.02,0-.02,.01l-.02,.02h0s-.04,0-.06-.01h0s-.03-.01-.04,0c-.02,.02-.04,.06-.05,.07h0s-.08-.05-.11-.04c-.09,.02-.18,.05-.26,.08-.01,0-.02,.02,0,.02h0s0,.02,0,.02c-.04,0-.08,0-.12,0-.02,0-.03,0-.05,0h0s-.01-.01-.02-.01c0,0,0,.01,0,.02h0s-.02-.01-.03-.02c0,0-.02-.01-.02-.01,0,0,0,0,0,.01h0s0,0-.02,0c0,0-.01,.01-.02,0h-.01s-.03,.11-.04,.13h0s0,.02,0,.03h-.05s.05,.02,.07,.04c0,0,0,.02,0,.02h0s-.02,0-.03,0h-.02s-.02,0-.03,0h-.01s0,0-.01,0c0,0,0,0,0-.01h0s.01-.02,0-.02c0,0,0,0-.01,0,0,0-.01,0-.02,0h0s-.02,0-.02,0h-.02s0,0,0,0h0s.01,.02,.02,.02c0,0,0,.01-.01,.02h0s0,.03,0,.04h0s0-.02,0-.05c0-.04,0-.04,0,0v.03s0,0,0,.01v.02s0,0,0,0h0s0,0,0,0v.02s.01,.01,.01,0c0-.03,0-.07,0-.08h0s0,.02,0,.02h-.01v.02h0s0,0,0,.02c0,0,.01,0,.02,.01,.02,.02,.02,.09,.04,.13,0,.01,0,0,.01,0h0s.02,0,.03,0h.02s0,0,0,0h0s.03,.02,.04,.02h0s0-.02,.02-.03h0s.02,0,.03,.01c0,0,.01,.02,.02,.03,0,.01,0,.02,0,0h0s0,0,0,.01c0,0-.01,0-.01,.02h0v.02h.02s.02-.03,.03-.02h0v.02h.01s0-.01,.01,0h0s.02-.03,.03-.05c0-.01,.02,0,.03-.01h0s-.01,0-.02,.01c-.02,.03-.01,.03,0,0,.01-.02,.03-.04,.04-.04h.01s0-.01,0,0c0,0,0,.01,0,.02h0s.01,0,.02,0h0s.03,0,.03,.02h0v.02h0s0,.01,0,.02h0s.02,0,.02-.01h.01s0,.01,0,.02h0s.03-.02,.05-.02c0,0,.01,0,0,0h0s0,0,0,0c.01,0,.02,0,.04,.01,.01,0,.03,0,.02-.02h0s0-.02,0-.02h0s.04,.04,.05,.08c0,0,0,.01,0,.01h.01s0-.01,0-.02h0s.01-.03,.02-.02h.02s.03,.04,.03,.05c0,0,.01,.02,.02,.01h0s.01-.01,.02-.02c0-.01,.02-.03,.02-.01v.02Z" />
    <path class="cls-2222222" d="M28.28,21.09h0s.05,.01,.07,.02c.01,0,.02,0,.02-.02-.03-.05-.07-.1-.11-.11-.04,0-.17-.09-.2-.06h-.01s-.04,.03-.06,.04c.02,0,.03-.01,.05-.02-.01,0-.03,.01-.05,.02-.07,.02-.14,.02-.2,0h0c-.13-.03-.24-.13-.37-.18-.06-.03-.12-.06-.15-.08h0s-.09,.04-.13,.05c0,0-.01,0,0,.01,0,.01,0,.02,0,.03,0,0,0,0,0,0h0s-.05,.03-.07,.03c0,0-.02-.01-.03-.02h0s0,0,0,0h0c-.05,0-.11-.02-.16-.03h0s-.01-.02-.03-.02h0s-.03-.01-.04-.03c0,0-.01-.01,0-.02h0c-.07,.04-.16,.01-.24,0-.09,0-.17,0-.26,0h-.01s-.05,.04-.07,.05c-.04,.02-.1,.01-.13,.03-.02,0-.03,.02-.04,.03-.02,.02-.05,.04-.08,.05h0s-.12,.04-.11,.08h0c.02,.05,.03,.02,.04,.05h0c.09,.07,.18,.12,.28,.16,.02,0,.04,.01,.06,.01,.04,0,.08,.01,.11,.02,.06,.01,.12,.03,.19,.03,.05,0,.11,0,.16,0,0,0,.01,0,.01,0,0,0,.01,0,.02,.02,0,.02,.02,.03,.04,.03,.06,0,.13,.03,.2,.03h0s.06,.04,.1,.05h.02s.2-.03,.24-.02c0,0,.01,0,.02,0h0c.07,.04,.13,.13,.19,.15,0,0,.02,0,.03,0l.02-.02s.03-.02,.05-.03h0s0,0,.01,0v.02s.07,0,.11,.01h0s.02,0,.03,0h.03s.03,.02,.04,.04h0s.02,.03,.03,.03c.02,0,.07-.03,.08-.03h0s.04,.08,.07,.09c.08,.03,.17,.06,.26,.08,.01,0,.03,0,.02-.01h0s0-.02,.02-.01c.03,.02,.06,.05,.09,.07,.01,0,.03,.02,.03,.03h0s0,.02,0,.02c0,0,0,0,.01-.01h0s.01,.03,.01,.04c0,0,0,.02,.01,.02,0,0,0,0,.01,0h0s0,0,.01,.01c0,0,.02,0,.01,.02h.02s.08-.06,.1-.08h0s.01,0,.01-.02h.02s.01,.02,.02,.03h0s-.03-.05-.04-.08c0,0,0-.02,0-.01h0s.02,.02,.02,.03v.02s.03,0,.04,0h0s0,0,0,.01c0,0,0,0,0,0,0,0,0,0,0,.01h0s-.02,0-.02,.01c0,0,0,0,0,0,0,0,.01,0,.02,0h0s.01,.01,.02,.02c0,0,0,0,0,.01h0s0,0,0,0h0s0-.02,0-.03c0,0,.01,0,.02,0h0s.01-.03,.02-.03h0s0,.02-.02,.04c-.03,.03-.03,.03,0,0l.02-.02h0v-.03s0,0,0,0h0s0,0,0,0c0,0,0,0,0-.01h0s0-.01,0,0c-.01,.02-.04,.05-.05,.06h0s.01-.02,.01-.02h.03s0-.01,.01-.02c0,0,0-.01,0-.02,0-.02,.03-.09,.04-.13,0-.01,0,0-.02,0h0s-.02,0-.02-.02v-.02h-.01s-.01,0-.01,0h0v-.02s-.01-.01-.02,0h0s-.01,.02-.02,.01h0s-.01-.02-.01-.03c0-.01,0-.02,0-.03,0-.01,.01-.01,0,0h0s0,0,0,0c0,0,.01,0,.02,0,0,0,0,0,0-.01,0-.01-.01-.01-.02-.01h0s-.03,.01-.03,0h0v-.02h0s0,0,0,0h0s-.03,.01-.05,.02c0,0-.02,0-.03,0h0s.01,0,.02,0c.03-.01,.03-.02,0,0-.02,0-.04,.02-.05,.01,0,0,0,0-.01,0h0s-.01,0,0,0c0,0,0-.01,0-.02h0s0-.02-.02-.02h0s-.02-.03-.02-.04h.02s0-.02,.01-.02h0s-.02-.01-.03,0h0v-.02h0s-.04,0-.06,0c0,0,0,0-.01,0h0s0,0-.01,0c0-.01-.01-.02-.02-.03,0,0-.02,0-.03,0h0s0,.02,0,.02h0s-.01-.06,0-.09c0,0,0-.02,0-.02h0s-.02,0-.02,.02h0s-.02,0-.02,0h0v-.02h0s0-.04,0-.05c0,0,0-.02,0-.02h0s-.02,0-.02,0c-.02,0-.03,.01-.03,0v-.02Z" />
    <path class="cls-2222222" d="M25.36,26.91h0s.05,.02,.07,.03c0,0,.02,0,.02-.01-.03-.06-.06-.11-.11-.12-.04-.01-.16-.11-.2-.09h0s0,0-.02,0c-.02,0-.04,.02-.06,.02,.02,0,.03,0,.05-.01-.02,0-.03,0-.05,.01-.07,0-.14,0-.21-.02h0c-.13-.05-.24-.15-.36-.22-.06-.03-.11-.07-.14-.1h0s-.09,.03-.14,.03c0,0-.01,0-.01,.01,0,.01,0,.02,0,.03,0,0,0,0,0,0h0s-.05,.02-.07,.02c0,0-.02-.02-.03-.02h0s0,0,0,0h0c-.05-.02-.11-.03-.16-.05h0s-.01-.02-.02-.02h0s-.03-.02-.04-.03c0,0-.01-.02,0-.02h0c-.07,.03-.17,0-.24-.02-.09-.02-.18-.03-.27-.02h-.01s-.05,.03-.08,.04c-.04,0-.1,0-.14,.01-.02,0-.03,.01-.05,.02-.03,.02-.05,.03-.08,.04h0s-.13,.03-.12,.07h0c.01,.05,.03,.02,.04,.06h0c.08,.08,.17,.14,.27,.2,.02,0,.04,.02,.06,.02,.04,0,.08,.02,.12,.03,.06,.02,.12,.04,.19,.05,.05,0,.11,.01,.16,.01,0,0,.01,0,.02,0,0,0,.01,.01,.01,.02,0,.02,.02,.03,.04,.03,.06,.02,.13,.05,.2,.06h0s.06,.05,.09,.06h.02s.21,0,.25,.01c0,0,.01,0,.02,0h0c.07,.05,.12,.15,.18,.18,0,0,.02,0,.03,0l.03-.02s.04-.02,.05-.02h0s0,0,.01,.01v.02s.08,.01,.11,.02h0s.02,0,.03,0h.03s.03,.03,.04,.05h0s.02,.03,.03,.03c.02,0,.07-.02,.08-.02h0s.03,.09,.06,.1c.08,.04,.17,.08,.26,.11,.01,0,.03,0,.02,0h0s0-.02,.02-.01c.03,.02,.06,.06,.09,.08,.01,0,.03,.02,.03,.04h0s0,.02,0,.02c0,0,0,0,.01,0h0s0,.03,.01,.04c0,0,0,.02,.01,.03h.01s0,0,0,0c0,0,.02,0,0,.02h.02s.09-.05,.11-.07h0s.01,0,.02-.01h.02s.01,.03,.01,.03h0s-.02-.05-.03-.08c0,0,0-.02,.01-.01h0s.02,.02,.02,.03c0,0,0,.02,.01,.03,0,.01,.02,0,.03,0h0s0,0,0,.01c0,0,0,0,0,0,0,0,0,.01,0,.01h0s-.02,0-.02,.01h0s.01,.02,.02,.02h0s.01,.01,.01,.02c0,0,0,0,0,.01h0s0,0,0,0h0s0-.02,0-.03c0,0,.01,0,.02,0h0s.01-.03,.02-.03h0s0,.02-.03,.04c-.03,.03-.03,.03,0,0l.03-.02h0v-.03s0,0,0,0h0s0,0,0,0c0,0,0,0,0-.01h0s0-.01,0,0c-.02,.02-.05,.05-.05,.06h0s.01-.02,.02-.01h.03s.01,0,.01-.01c0,0,0-.01,0-.02,0-.02,.04-.08,.06-.12,0-.01,0,0-.02,0h0s-.02-.01-.02-.02v-.02h-.01s-.01,0-.01,0h0v-.02s0-.01-.01-.01h0s-.02,.01-.03,0h0s-.01-.02-.01-.03c0-.01,0-.02,0-.03,0-.01,.01-.01,0,0h0s0,0,.01,0c0,0,.01,0,.02,0,0,0,0,0,0-.01,0-.01-.01-.02-.02-.02h0s-.03,0-.03-.01h0v-.02h0s0,0,0,0h0s-.04,0-.06,.02c-.01,0-.02-.01-.03,0h0s.01,0,.03,0c.03,0,.03-.02,0-.01-.02,0-.05,.01-.05,0,0,0,0,0-.01,0h0s-.01,0,0,0c0,0,0-.01,0-.02h0s0-.02-.02-.02h0s-.02-.03-.01-.04h.02s.01-.01,.01-.02h0s-.02-.02-.03,0h0v-.02h0s-.04-.01-.06-.02c0,0,0,0-.01,0h0s0,0-.01,0c0-.01-.01-.02-.02-.03,0-.01-.02-.01-.03,0h0s0,.02,0,.02h0s0-.06,.01-.09c0,0,0,0,0-.01h-.01s0,0-.01,0h0s-.02,.01-.03,0h0v-.02h0s0-.04,0-.05c0,0,0-.02,0-.02h0s-.02,0-.02,0c-.02,0-.03,0-.03,0v-.02Z" />
    <path class="cls-2222222" d="M23.37,28.65h0s0,.05,0,.07c0,.01,.01,.02,.02,0,.04-.05,.07-.09,.06-.14,0-.04,.03-.19,0-.21h-.01s-.03-.04-.05-.05c0,.01,.02,.03,.03,.04-.01-.01-.02-.02-.03-.04-.04-.06-.06-.12-.07-.19h0c-.01-.13,.04-.26,.05-.4,0-.06,.02-.13,.03-.16h0s0,0,0,0h0s-.05-.07-.08-.11c0,0,0,0-.01,0,0,0-.02,0-.03,.01,0,0,0,0,0,0h0s-.04-.04-.05-.06c0,0,0-.03,0-.04h0v-.02c-.01-.05-.02-.11-.03-.16h0s.01-.02,0-.03h0s0-.03,.01-.04c0,0,0-.02,.02,0h0c-.06-.05-.07-.14-.08-.22-.02-.08-.05-.16-.09-.24h-.02s-.03-.04-.05-.06c-.03-.03-.04-.09-.07-.12-.01-.01-.03-.02-.04-.03-.03-.01-.05-.03-.07-.06h0s-.07-.1-.11-.07h0s0,.03-.03,.06h0c-.04,.11-.06,.21-.07,.32,0,.02,0,.04,0,.06,0,.04,.01,.07,.02,.11,0,.06,.01,.12,.03,.18,.01,.05,.03,.1,.05,.15,0,0,0,0,0,.01,0,0,0,.01-.01,.02-.01,.01-.02,.03-.02,.05,.01,.06,.01,.13,.03,.19h0s-.02,.07-.02,.1h0s0,.02,0,.02c0,.04,.09,.18,.1,.22,0,0,0,.01,0,.02h0c-.01,.08-.08,.17-.08,.23,0,.01,0,.02,.01,.02l.03,.02s.03,.03,.04,.04h0s0,0,0,.01h-.02s.02,.08,.03,.11h0s0,.02,0,.03l.02,.02h0s-.02,.04-.03,.06h0s-.02,.03-.01,.04c.01,.02,.05,.05,.05,.06h0s-.06,.06-.06,.09c0,.09,0,.17,0,.26,0,.01,.02,.03,.02,.01h0s.02,0,.02,.01c0,.04-.03,.07-.03,.11,0,.02,0,.03-.02,.04h0s-.01,.01,0,.02c0,0,.01,0,.01,0h0s-.02,.02-.02,.03c0,0-.02,.01-.02,.02,0,0,0,0,.01,0h0s0,0,0,.01c0,0,0,.01-.01,.02h0s.09,.07,.11,.08h0s.01,.02,.02,.01h0v.02h0s-.01,.02-.01,.03h0s.04-.04,.06-.06c0,0,.02,0,.01,0h0s0,.02-.02,.03l-.02,.02s0,.01,0,.03h0s0,0-.01,0c0,0,0,0,0,.01,0,0,0,0-.01,0h0s0-.02-.01-.01h0s0,.03,0,.03h0s0,.02-.01,.02c0,0,0,0,0,.01h0s0,.01,.02,0h0s.02-.01,.02-.02c0,0,.01,0,.01,.01h.01s.02,0,.02,.02h0s-.02,0-.04-.01c-.04-.02-.04-.02,0,0l.03,.02s0,0,.01,0c0,0,.01,0,.02,0,0,0,0,0,0,0h0s0,0,0,0c0,0,.01,0,.02,0,0,0,0,0,0,0-.02,0-.07-.02-.08-.02h0s0,0,.01,0h0v.02h.01s0,.01,.01,.01c0,0,.01,0,.02-.01,.02-.01,.09,0,.13,0,.01,0,0,0,0-.01h0s0-.02,.01-.02h.01v-.02h0s-.01,0,0-.01h0l.02-.02s0,0,0,0h0s-.02-.01-.02-.02h0s0-.02,.02-.02c.01,0,.02,0,.04,0,.01,0,.02,0,0,0h0s0,0,0,0c0,0,0,.01,.01,.02,0,0,0,0,.01,0,.01,0,.01-.01,0-.02h0s-.01-.02,0-.03h0s.01,0,.02,0h0s0-.02,0-.02h0s-.03-.03-.04-.04c0,0,0-.02,0-.03h0s0,.01,.01,.02c.02,.03,.03,.02,0,0-.01-.02-.03-.03-.03-.04h0s0-.02,0-.02c0,0,.01,0,.02,0h0s0-.02,0-.02h0s.02-.04,.03-.03h.01s0,.02,.02,.02h0s0-.02,0-.03h.03s-.02-.04-.02-.06c0,0,0-.01,0-.01h0s0,0,0-.01c0,0,.01-.02,.02-.03,0-.01,0-.03-.01-.02h-.01s0,0,0,0h0s.04-.03,.08-.03c0,0,.02,0,.02,0h0s-.01-.01-.02-.01h0s-.01-.02,0-.02h.02s.04-.03,.05-.03c0,0,.02,0,.02-.01h0s0-.02-.01-.02c-.01-.01-.02-.02,0-.03h.02Z" />
    <path class="cls-2222222" d="M17.6,29.57h0s0,.05,0,.08c0,.01,.02,.02,.02,0,.03-.06,.06-.12,.04-.16-.01-.04,0-.2-.03-.23h0s0,0-.02,0c-.02-.01-.03-.03-.05-.04,.01,.01,.02,.03,.04,.04-.01-.01-.02-.02-.04-.04-.05-.06-.08-.13-.09-.2h0c-.03-.14,0-.3,0-.44,0-.07,0-.14,0-.18h0s0,0,0,0h0s-.06-.07-.09-.11c0,0-.01,0-.02,0,0,0-.02,.01-.02,.02,0,0-.01,0,0,0h0s-.04-.04-.06-.06c0,0,0-.03,0-.04h0s0-.02,0-.01h0c-.01-.06-.02-.12-.04-.18h0s0-.03,0-.04h0s0-.04,0-.05c0,0,0-.02,.02,0h0c-.07-.05-.09-.15-.11-.23-.03-.09-.07-.18-.12-.26h-.02s-.05-.05-.07-.07c-.03-.03-.05-.08-.08-.11-.01-.01-.03-.02-.05-.03-.03-.01-.06-.03-.08-.05h0s-.1-.1-.12-.07h0s0,.03-.03,.06h0c-.02,.12-.03,.24-.02,.36,0,.02,0,.04,.01,.06,.01,.04,.03,.08,.04,.12,.02,.07,.03,.14,.06,.2,.02,.05,.05,.1,.08,.15,0,0,0,0,0,.01,0,0,0,.02,0,.03-.01,.01-.01,.03,0,.05,.02,.07,.03,.15,.06,.21h0s-.01,.08,0,.12h0s0,.02,0,.02c0,.04,.12,.19,.13,.23,0,0,0,.02,0,.02h0c0,.09-.06,.19-.05,.27,0,.01,0,.02,.02,.03h.03s.03,.04,.05,.05h0s0,.01,0,.02h-.01s.03,.09,.04,.13h0s0,.02,.01,.03l.02,.03h0s-.01,.04-.02,.06h0s-.02,.03,0,.04c.01,.02,.06,.05,.06,.06h0s-.05,.08-.05,.11c.01,.1,.03,.19,.05,.29,0,.01,.02,.02,.02,.01h0s.02,0,.02,0c0,.04-.02,.08-.02,.13,0,.02,0,.03-.01,.05h0s0,.02,0,.02c0,0,.01,0,.02,0h0s-.01,.03-.02,.03c0,0-.02,.02-.02,.02,0,0,0,0,.01,0h0s0,0,0,.02c0,0,.01,.01,0,.02h0s.09,.06,.11,.07h0s.01,.02,.02,.01h0v.02h0s-.01,.03-.01,.03h0s.03-.05,.05-.07c0,0,.02,0,.02,0h0s0,.02-.01,.03c0,0-.01,.02-.02,.02,0,.01,0,.02,.01,.03h0s0,.02,0,.02c0,0,0,0-.01,0h0s-.01-.02-.02-.01h0s0,.03,0,.03h0s0,.02-.01,.03h0v.02s0,0,.01,0h0s.02-.01,.02-.02c0,0,.01,0,.02,.01h.01s.02,0,.02,.01h0s0,0,0,0h0s-.02,0-.04,0c-.04-.01-.04-.01,0,0h.03s0,.01,.01,0h.02s0,0,0,0h0s0,0,0,0h.02s.01,0,0,0c-.03,0-.07-.02-.08-.02h0s.01,0,.01,0h0v.02h.01s0,.01,.01,.01c0,0,.01-.01,.02-.01,.02-.01,.09,0,.13-.02,.02,0,0,0,0-.02h0s0-.02,0-.03h.01v-.02s0,0-.01,0h0s.03-.04,.03-.04h0s-.02-.01-.02-.02h0s0-.03,.02-.03c.01,0,.02,0,.03-.01,.01,0,.02,0,0,0h0s0,0,0,0c0,0,0,.01,.01,.02,0,0,.01,0,.01,0h0v-.02h-.01s-.01-.03,0-.04h.03v-.02h-.02v-.02s-.03-.03-.04-.04c0,0,0-.03,0-.03h0s0,.01,.02,.02c.02,.03,.03,.02,0,0-.02-.02-.03-.04-.03-.05,0,0,0-.01,0-.01h0s0,0,0,0c0,0,.01,0,.02,0h0s0-.02,0-.03h0s.02-.04,.02-.04h.01s0,.02,.02,.02h0s0-.02-.01-.03h0s0-.01,.01-.01h0s-.02-.03-.02-.06c0,0,0-.01,0-.01h0s0,0,0-.01c0-.01,.01-.02,.02-.04,0-.01,0-.03-.02-.02h-.01s-.01,0,0,0h0s.04-.04,.08-.04c0,0,.01,0,.01,0h0v-.02h0s0,0-.01,0h-.01s-.01-.02,0-.03h0v-.02h0s.03-.02,.04-.03c0,0,.02-.01,.02-.02h0s0-.02-.01-.03c-.01-.01-.03-.02,0-.03h.02Z" />
    <path class="cls-2222222" d="M15.23,28.85h0s-.04,.03-.06,.05c0,0,0,.02,0,.02,.06,0,.12,0,.15-.03,.03-.03,.17-.09,.16-.13h0s0,0,0-.02c0-.02,0-.04,0-.06,0,.02,0,.03-.01,.05,0-.02,0-.03,.01-.05,.03-.14,.15-.2,.28-.26,.07-.03,.24-.15,.32-.18h0s0,0,0,0h0s.02-.09,.04-.13c0,0,0-.01,0-.01,0,0-.02,0-.03-.01,0,0,0,0,0,0h0s0-.06,.01-.08c0,0,.02-.01,.03-.01h0v-.02s.08-.08,.11-.11h0s.02,0,.03-.01h0s.03-.02,.04-.02c.01,0,.02,0,.02,.01h0c0-.08,.07-.14,.12-.2,.05-.07,.1-.14,.14-.22h0v-.02s0-.05,.01-.08c0-.04,.04-.09,.05-.13,0-.02,0-.03,0-.05,0-.03,0-.06,0-.09h0s.03-.12,0-.13h0s-.03,0-.06,0h0c-.1,.04-.19,.08-.27,.14-.03,.02-.04,.04-.06,.06-.04,.05-.1,.08-.14,.13-.05,.06-.1,.13-.14,.21h0s-.01,.02-.02,.02c-.02,0-.04,0-.05,.02-.04,.05-.1,.09-.13,.14h0s-.07,.03-.09,.05h0s0,.02-.01,.02c-.03,.02-.09,.18-.11,.21,0,0-.01,0-.01,.01h0c-.07,.04-.18,.04-.23,.08,0,0-.01,.02-.01,.03v.03s0,.04,0,.05h0s0,0-.01,0h-.02s-.04,.05-.07,.07h0s0,.01-.01,.02v.03h-.01s-.04,.01-.06,.01h0s-.03,0-.04,.01c0,.02-.01,.07-.02,.08h0s-.08-.02-.11,0c-.07,.05-.14,.11-.2,.17,0,0,0,.03,0,.02h0s.01,.02,0,.02c-.03,.02-.07,.02-.1,.04-.01,0-.03,.01-.05,0h0s-.01,0-.02,0c0,0,0,.01,0,.02h0s-.02,0-.03,0c0,0-.02,0-.03,0,0,0,0,0,0,.01h0s0,0-.02,0c0,0,0,.02-.02,0h0s.01,.11,.01,.14h0s0,.02,0,.03h-.04s.06,.02,.08,.03c0,0,.01,.01,0,.01h0s-.02,0-.03,0h-.03s0,0-.02,.02h-.01s0,0-.01,0c0,0,0,0,0,0h0s0-.02,0-.02c0,0,0,0-.01,0,0,0-.01,0-.02,.01h0s-.02,0-.02,0c0,0,0,0-.02,0h0s0,.01,0,.02h0s.02,.01,.03,.01c0,0,0,.02,0,.02h0s0,.03,0,.04h0s0-.02-.01-.04c-.01-.04,0-.04,0,0v.03s.01,0,.02,.01h.01s0,.02,0,.01h0s0,0,0,0h.02s0,.02,0,.01c-.01-.02-.02-.07-.03-.08h0s0,.02,0,.02h0s0,.02,0,.03h0s0,.01,0,.02c0,0,.01,0,.02,0,.02,.01,.06,.07,.08,.11,0,.01,0,0,0-.01h0s.02,0,.03,0h.02s0-.01,0-.01h.02s.01,0,.01,0h0s0-.02,0-.03h0s.02,0,.03,0c0,0,.02,.01,.03,.02,0,.01,0,.02,0,0h0s0,0,0,.01c0,0,0,0,0,.02,0,0,0,0,0,0,.01,0,.02,0,.02,0h0s.01-.03,.03-.02h0v.02h.02s0-.02,0-.02h0s0-.04,0-.06c0-.01,.02-.01,.02-.02h0s0,0,0,.02c0,.03,0,.04,0,0,0-.02,.01-.04,.02-.05,0,0,.01,0,.01,0h0s0-.01,0,0c0,0,0,.01,.01,.02h0s.01,0,.02,0h0s.04,0,.04,0h0v.02h0s0,.01,0,.02h0s.02,0,.02-.02h.01s0,0,0,0h0s.01-.03,.03-.04c0,0,0,0,0,0h0s0,0,0,0c.01,0,.02,0,.04,0,.01,0,.02-.02,.01-.02h0s0-.02,0-.02h0s.05,.02,.07,.05c0,0,.01,.02,.02,.01h0s0-.02,0-.02h0s0-.02,.02-.02h.02s.03,.02,.04,.03c0,0,.02,0,.02,0h0s0-.02,0-.02c0-.02,0-.03,.02-.02v.02Z" />
    <path class="cls-1111111" d="M12.22,18.82v2.9c0,.87,.37,1.69,1.02,2.26l2.55,2.23c.66,.58,1.53,.84,2.4,.71l3.09-.44c1-.14,1.86-.78,2.29-1.69l1.32-2.79c.37-.78,.39-1.68,.05-2.47l-1.28-2.99c-.47-1.1-1.56-1.82-2.76-1.82h-4.23c-.65,0-1.28,.21-1.8,.6l-1.46,1.09c-.76,.57-1.2,1.46-1.2,2.4Z" />
</svg>