<?xml version="1.0" encoding="UTF-8"?>
<svg id="Livello_1" xmlns="http://www.w3.org/2000/svg" xmlns:xlink="http://www.w3.org/1999/xlink" width="24.25" height="27.07" viewBox="0 0 24.25 27.07">
    <defs>
        <style>.cls-11111{fill:currentColor;}.cls-22222{fill:currentColor;}.cls-22222,.cls-33333{stroke:currentColor;}.cls-33333{fill:#fff;}</style>
    </defs>
    <path class="cls-33333" d="M13.37,.83l9.12,5.27c.77,.45,1.25,1.27,1.25,2.17v10.54c0,.89-.48,1.72-1.25,2.17l-9.12,5.27c-.77,.45-1.73,.45-2.5,0L1.75,20.97c-.77-.45-1.25-1.27-1.25-2.17V8.27c0-.89,.48-1.72,1.25-2.17L10.87,.83c.77-.45,1.73-.45,2.5,0Z" />
    <path class="cls-11111" d="M9.96,21.93l.13,.28c-.15-.32-.3-.64-.45-.97-.12-.27-.24-.55-.36-.82,.13,.38,.27,.78,.42,1.18l.06,.15,.08,.19,.24,.55c.16,.36,.33,.73,.5,1.06,.32-.37,.62-.74,.88-1.08l.18-.25c.05-.06,.1-.13,.14-.2,.05-.09,.1-.19,.14-.28,.2,.03,1.11-.88,1.09-.93,.15-.22,.31-.44,.47-.65l-.34,.44,.34-.44c1.13-1.44,2.34-2.82,3.63-4.14l.69-.74c.36-.39,.76-.84,1.17-1.29-.35-.56-.71-1.12-1.02-1.63l-.61-1.01-.25-.41,.26,.46c-.4-.54-.77-1.03-1.11-1.49,.03,.12,.07,.24,.13,.35l-.15-.26c-.26-.3-.51-.62-.73-.95,.07,.03-.05-.16-.16-.34l.02,.08c-.41-.66-.93-1.4-1.3-1.98-.04-.06-.07-.12-.09-.19l-.39-.54c.07,.02-.26-.48-.06-.23-.08-.1-.16-.2-.23-.3l-.23-.34c-.22-.32-.44-.64-.64-.9l-.13-.19c-.33,.46-.67,.93-1.02,1.41l-.73,1.05c-.49,.7-.97,1.42-1.44,2.13l.04-.02c-.32,.55-.66,1.08-1.04,1.59-.28,.42-.52,.87-.72,1.33-.35,.51-.45,.73-.79,1.24,.13-.1-.29,.51-.09,.29,.3-.28,.26-.34,.51-.58h-.02c1-1.24,1.97-2.5,2.94-3.78,.6-.89,1.31-1.81,1.96-2.72l.19-.27,.05-.07,.02-.04,.1-.16,.09,.11c.06,.08,.12,.16,.18,.24,.21,.3,.41,.59,.6,.86,.12,.18,.22,.36,.3,.56,.53,.79,1.19,1.78,1.79,2.67l-.03-.04c.32,.47,.5,.85,.81,1.31,.01,0,.06,.06,.09,.09,.26,.44,.55,.86,.86,1.26,.4,.55,.82,1.14,.95,1.32,0,.01-.02,.02-.03,.03l-.05,.07-.54,.56-.62,.62c-.41,.41-.8,.81-1.13,1.19-.12,.18-.26,.39-.35,.55-.14,.12-.12,.18-.27,.33-.47,.32-.63,.6-.41,.42-.28,.35-.59,.68-.85,.98l-.34,.44c-.06,.09-.15,.17-.25,.22-.15,.18-.32,.35-.49,.52-.1,.05-.64,.85-.74,.93l.04-.06c-.15,.16-.31,.31-.47,.46l-.23,.21-.15,.15-.15,.15c-.35-.75-.72-1.53-1.04-2.21-.05,0,.13,.24,.07,.28-.3-.66-.55-1.34-.86-2-.04-.11-.07-.23-.1-.34-.08-.22-.08-.11-.15-.27l.03-.04c-.14-.21-.11-.35-.23-.55-.02,0-.06-.08-.1-.16,.04-.02-.11-.23-.07-.24h0s-.04-.09-.06-.14c-.06-.09-.55-.82-.62-.91v-.04c-.07-.12-.13-.16-.1-.08l-.07-.15v.02l-.06-.15s0-.07,.04-.04c-.06-.08-.1-.16-.14-.26,.08,.25,.18,.55,.25,.82-.06-.09-.12-.29-.18-.39-.03-.14-.13-.42-.21-.64-.02-.04-.09-.05-.12-.17,.01-.07-.06-.12-.07-.21,.06,.09,.11,.19,.15,.29,.03-.03-.09-.26-.11-.34-.03-.03-.11-.23-.18-.35,.06,.04-.02-.11-.04-.19-.03-.08-.07-.13-.07-.09-.05,0,.13,.34,.03,.24-.03-.1-.07-.19-.12-.28-.02,0,.01,.07-.04,.02-.04-.1-.12-.19-.12-.25,.02,.03,.03,.06,.04,.09-.06-.13,.47,.61,.38,.46,0,.05-.47-.65-.43-.57,.02,.08-.07-.04-.04,.05l.07,.08c.04,.11,.02,.17-.01,.14-.08-.18,.4,.45,.3,.3l.02,.07c-.07-.09-.12-.2-.15-.31-.02,0-.07-.08-.12-.15v-.03c-.06-.07-.1-.18-.11-.12,.21,.44-.37-.19-.18,.24-.04-.2,.08,.04,.18,.23,0,.09,.02,.18,.06,.26,.06,.12,.05,.06,.07,.08,.02,.07,.07,.2,.04,.19,.07,.08,.05,.16,.11,.26,.06,.09,.01-.01,.06,.05l.21,.47c0,.06,.02,.21-.07,.13-.1-.22,.1,.06-.01-.17,0,.12-.11-.2-.17-.22,.03,.12,.08,.24,.14,.35v-.03c.08,.14,.15,.29,.2,.45-.03-.02-.02,.04-.07-.04l.07,.15s.03,.03,.01-.01c.04,.06,.07,.13,.09,.2-.01,.03,.47,.76,.44,.75,.05,.11,.03,.15,.1,.25,.02,0-.56-1.01-.49-.87,.02,.1,.69,1.19,.68,1.27,.04,.08,.09,.18,.1,.15,.05,.14-.06-.02-.03,.08,0,0,0-.01,.02,.02l.02,.1c.13,.2,.24,.53,.38,.73-.08-.07-.15-.15-.22-.24v-.03s-.08-.13-.1-.12c.05,.14,.11,.27,.2,.39l.02,.09h0s0,.04-.01,.03h0c-.02,.1,.29,.51,.37,.77,.04,.07,.01,0,.07,.09,.09,.26,.16,.45,.27,.72,.07,.07,.08,.07,.06-.04l.09,.2c-.16-.15,.11,.4-.06,.23,.03,.1,.07,.2,.13,.29,.02,0,.06,0,.13,.15l.11,.33s-.04,0-.06,0c.15,.24,.05,.24,.17,.47,.08,.14,.22,.43,.26,.42,.04,.07,.06,.15,.08,.23,0,.04-.01,.05-.04,.04Z" />
    <path class="cls-11111" d="M10.06,22.02l.03,.27-.18-1.3-.08-.64-.04-.39c-.02,.28,.07,1.33,.16,2.19,.08,.79,.2,1.58,.36,2.36,.2-.52,.38-1.05,.51-1.54,.02,.17,.23-.16,.47-.61,.18-.32,.33-.65,.46-.98,.08-.22,.16-.43,.23-.63l.12-.36c-.06,.16-.08,.25-.21,.59,.13-.34,.15-.42,.21-.59,.55-1.49,1.19-2.95,1.92-4.37l1.11-2.37c-.11-.44-.22-.88-.31-1.27l-.19-.83-.09-.4,.09,.45-.54-1.52c-.01,.11-.01,.22,0,.33l-.05-.25c-.14-.32-.27-.64-.37-.97,.05,.04,0-.15-.04-.32v.07c-.17-.65-.4-1.4-.55-1.98-.02-.06-.02-.12-.02-.18l-.23-.75c.06,.03-.17-.78-.03-.39-.11-.31-.21-.63-.3-.94-.09-.31-.18-.63-.27-.84l-.09-.32c-.33,.99-.68,2.02-1.03,3.07-.22,.69-.43,1.4-.63,2.09l.03-.03c-.11,.54-.26,1.07-.45,1.59-.12,.42-.2,.86-.23,1.3-.16,.51-.18,.73-.33,1.23,.09-.11-.11,.5,.02,.27,.18-.31,.13-.34,.28-.6h-.02c.53-1.27,1.02-2.56,1.5-3.87,.13-.45,.29-.91,.45-1.37l.17-.48,.05-.16,.08-.31,.2,.48c.02,.07,.04,.14,.05,.21l.03,.26c.23,.8,.51,1.78,.76,2.69v-.04c.13,.47,.17,.84,.31,1.3,.01,0,.03,.07,.05,.1,.07,.32,.16,.64,.27,.95,.08,.25,.17,.52,.26,.78,.08,.25,.18,.55,.2,.59-.04,.11-.08,.21-.13,.31l-.06,.14c-.44,.92-.99,1.83-1.33,2.63-.05,.19-.11,.39-.14,.55-.09,.13-.05,.18-.13,.35-.32,.38-.38,.65-.23,.45-.14,.36-.31,.71-.44,1.03l-.16,.45c-.03,.09-.08,.18-.15,.24-.08,.19-.17,.38-.28,.55-.04,.03-.04,.08-.07,.2-.01,.09-.04,.18-.07,.26v-.04c-.08,.18-.12,.03-.15,.1l-.02,.03c-.01-.19-.03-.31-.05-.46-.06-.4-.11-.79-.16-1.15-.05,0,.04,.23-.02,.25-.08-.62-.11-1.26-.19-1.89,0-.1,0-.21,.01-.31,0-.2-.04-.12-.06-.26l.04-.03c-.07-.21,0-.32-.04-.52-.02,0-.03-.08-.04-.15,.05,0-.03-.22,.01-.22h0s-.01-.09-.01-.13l-.3-.91v-.04c-.02-.12-.06-.16-.06-.09l-.02-.14v-.13s0-.06,.03-.02c-.03-.08-.05-.16-.05-.25,0,.23,0,.51-.02,.75-.03-.09-.03-.27-.05-.37,.01-.2,0-.39,0-.59,0-.04-.07-.07-.06-.17,.03-.05-.02-.11,0-.2,.03,.09,.04,.19,.05,.28,.04-.02,0-.24,0-.31-.02-.03-.03-.22-.06-.33,.05,.05,.01-.1,.03-.17,0-.08-.03-.13-.04-.09-.05-.02,.02,.32-.05,.21,0-.09,0-.18-.02-.27-.03,0-.01,.06-.04,0,0-.09-.05-.19-.03-.24,0,.03,.01,.05,.01,.08-.01-.12,.25,.63,.22,.47-.02,.04-.24-.66-.23-.58,0,.07-.05-.05-.05,.03l.04,.08c0,.1-.03,.15-.05,.12-.02-.17,.24,.47,.19,.32v.06c-.04-.09-.06-.19-.05-.29-.02,0-.05-.08-.06-.15v-.03c-.02-.07-.03-.17-.06-.12,.06,.42-.29-.25-.25,.17,.03-.18,.06,.05,.1,.23-.03,.08-.04,.16-.03,.24,.02,.11,.03,.06,.05,.08,0,.06,0,.18-.03,.17,.05,.08,0,.14,.02,.25,.03,.09,.01,0,.04,.06l.05,.45s-.05,.18-.11,.09c-.02-.21,.08,.07,.04-.15-.05,.1-.04-.19-.1-.23-.01,.11,0,.22,.03,.33v-.02c.04,.14,.06,.28,.05,.43-.03-.02-.03,.03-.05-.05l.02,.14s.02,.04,.02,0c.02,.06,.03,.12,.02,.19-.02,.02,.2,.75,.19,.73,.02,.1-.02,.13,.02,.23,.02,0-.22-.98-.19-.84-.01,.09,.28,1.16,.25,1.23,.01,.08,.03,.17,.05,.15,0,.13-.05-.03-.06,.06,0,0,.01,0,.01,.02l-.02,.09c.06,.2,.06,.5,.14,.7-.06-.08-.1-.16-.13-.25v-.03s-.02-.13-.05-.12c0,.13,.02,.25,.06,.37v.08h0s-.01,.04-.02,.02h0c-.06,.08,.11,.49,.11,.73,.02,.07,.01,0,.04,.09,0,.24,0,.41,.03,.67,.04,.08,.05,.08,.07-.02l.02,.19c-.1-.16-.02,.36-.13,.18,0,.09,0,.19,.03,.28,.02,0,.05,.02,.07,.15v.3s-.04-.02-.06,0c.08,.3-.01,.33,.05,.69,.04,.23,.11,.69,.15,.63,.04,.3,.02,.36-.02,.39Z" />
    <path class="cls-11111" d="M6.84,13.43h.01s-.09,0-.13-.03c.1,.16,.21,.3,.29-.04,0,.18,.1,.27,.1,.22,.02-.03,.04-.06,.06-.08-.01,.01-.03,.03-.04,.05,.01-.02,.03-.03,.04-.05,.13-.14,.26-.08,.41,0,.13,.03,.25,.08,.37,.13,.01,0,.02,.01,.04,.02l-.04-.03s.09-.09,.14-.13c0-.03-.01-.06-.03-.09l.02,.02c.02-.08,.07-.07,.09-.1,0,.04,.01,.05,.03,.05v-.03c.05,.02,.12-.02,.17-.01,0,0,.01,.01,.02,.03l.05-.03c0,.05,.04,.05,.02,.08,.04-.06,.07-.02,.11-.09,.14,0,.27-.06,.39-.14v-.02s.08-.14,.14-.11c.04-.07,.1-.11,.11-.22,.05-.02,.06-.07,.11-.1-.01-.05,.04-.07,.02-.11-.03-.08-.03-.01-.06-.07v.02c-.11-.08-.23-.13-.35-.15-.08,.05-.17,0-.25,.02-.09,.02-.18,.05-.26,.1-.02,.02-.03-.03-.05-.06-.07,.02-.16,0-.24,.04h0s-.07-.05-.11-.04c0,.02,0,.02,0,.02,0-.07-.24,.15-.26,.11h-.01c-.09-.02-.18-.17-.25-.15-.02,.03-.03,.07-.05,.1-.01-.03-.02,.03-.03,.02-.04-.15-.06-.08-.04-.03-.03,.02-.07,0-.1,.01-.01,.01-.03,.02-.04,.03-.01,.01-.02,0-.02-.04-.03,.02-.02-.02-.05-.03,0-.05-.08,.08-.09,.07h0s-.06-.12-.1-.12c-.1-.04-.21,0-.3-.02,0,.05,.02-.01,.02,.06-.05,0-.11-.08-.16-.08-.01-.02-.02-.04-.03-.06-.02-.02-.01,.03-.02,.02v-.05s-.03-.05-.05-.03c0,.02,0,.02-.01,.02,0-.05-.02,0-.02-.04h0s0,0-.01,0c0,.02-.07,.16-.08,.18h0s-.01,.03,0,.04h-.02s0-.04,0-.06c0,.02-.01,.03-.02,.02,.02,.04,.05,.08,.06,.13,0,.02-.02,0-.03,0-.01-.03-.03-.06-.05-.09,0,0,0,.06-.01,.03,0-.04,0,0-.02-.03,0-.02,.02-.01,.02,0,0-.05-.02-.03-.03-.04,0,.01-.02,0-.03,.01,0-.04,0-.03-.01-.05,0,0-.01,.01,0,.03,0,.05,.03,.03,.02,.08,0-.02-.02-.02-.02-.01,0,.03,0,.02,0,.05,0,0-.02,.03-.02,0,0,0,0,0,0,0-.01,0,.06-.17,.04-.16,0,.02-.06,.16-.05,.16,0,.01,0,.05,0,.06v-.03s.02,.05,.02,.07c-.01,0,.04-.18,.03-.15h0s-.02,.04-.03,.02c0,.02,0,.03-.01,.04h0s-.01,0-.01,.04c.04,0-.02,.27,.01,.28-.01-.06,0-.06,.02-.07,0,.02,0,.04,.02,.06,0,0,0-.02,0-.04,.01,.02,.02,.04,.01,.05,0-.04,.01,.02,.02,.01,0-.02,0-.02,0-.03,.01,0,.03,0,.04,.02,0,.04,.01,.08,0,.12-.02,0,0-.07-.01-.06,0,.07-.02,.02-.02,.07,0,.03,.02,.03,.03,.02h0s.03-.03,.04,0c0,.02,0,.04,0,.05h.01v-.02s0,0,.01,0c0,.02,.07-.1,.06-.09,0,0,.01,.04,.02,.01,0-.02-.09,.08-.07,.08,0,.03,.1-.12,.11-.08,0,0,.01,0,.01-.03,.01,.01,0,.05,0,.07h0v.02s.05,.01,.07-.04c0,.03-.01,.07-.02,.1h0s-.01,.01-.01,.03c.01,.02,.02,.01,.03-.01v.02h0s0,0,0,.02h0c0,.08,.04-.04,.06,0,0-.01,0-.01,0-.03,.02,.03,.03,.05,.06,.07,0-.02,0-.05,0-.08h.02c-.02,.09,.03,.09,.01,.17,0,.02,.01,.02,.02,0,0-.02,0-.05,.01-.05,0,.01,.02,.03,.03,.04,0,.02,0,.04,0,.06,.02-.03,.02,.06,.04,.05,.01,0,.02-.01,.03-.02,0-.01,0-.02,0-.04,.02,0,.02,.04,.01,.08Z" />
    <path class="cls-11111" d="M13.44,13.19h-.02c.08,0,.15,.03,.22,.06-.14-.18-.31-.35-.49-.04,.02-.18-.13-.28-.14-.24-.04,.02-.07,.05-.11,.06,.03,0,.05-.02,.08-.03-.02,.01-.05,.02-.08,.03-.11,.03-.24,.04-.35,.02-.12-.02-.23-.06-.33-.13-.13-.06-.48-.15-.61-.23-.02,0-.04-.02-.06-.03l.06,.04c-.08,.03-.17,.06-.25,.08,0,.03,.02,.06,.03,.09l-.03-.02c-.05,.07-.12,.05-.16,.07,.01-.04-.01-.05-.04-.06v.03c-.09-.02-.19-.03-.29-.04-.01,0-.02-.02-.02-.03l-.09,.02s-.06-.06-.02-.08c-.07,.05-.13,0-.2,.05-.22-.03-.45-.02-.67,.02v.02c-.08,.02-.16,.11-.25,.06-.08,.06-.18,.08-.22,.18-.08,0-.12,.05-.2,.06,.01,.06-.08,.05-.05,.1,.04,.08,.05,.02,.08,.09v-.02c.18,.11,.37,.19,.57,.25,.14,0,.28,.02,.42,.05,.15,0,.3,0,.45-.02,.03,0,.05,.04,.07,.07,.12,0,.27,.04,.41,.03h0c.07,0,.12,.06,.19,.07,0-.02,.01-.01,.02-.02,0,.07,.43-.08,.45-.03,0,0,.02,0,.02,0,.14,.06,.27,.22,.39,.22,.03-.03,.07-.05,.1-.08,.02,.03,.03-.02,.06-.01,.04,.15,.09,.1,.07,.04,.05,0,.11,0,.16,.02,.02,0,.05-.01,.07-.02,.02,0,.03,.01,.03,.05,.05-.01,.03,.02,.08,.04,0,.05,.14-.06,.16-.04h0c.06,.02,.08,.13,.14,.14,.16,.04,.33,.08,.5,.1,.01-.05-.04,0-.03-.06,.09,.02,.17,.1,.26,.13,.02,.02,.03,.04,.03,.06,.03,.02,.02-.02,.04-.01v.05s.03,.06,.06,.04c0-.02,.02-.02,.03-.02,0,.05,.03,0,.02,.05h0s.01,0,.02,0c.01-.02,.15-.13,.16-.15h0s.03-.02,.02-.04h.02l.02,.02s0,.03,0,.05c.01-.02,.03-.02,.04-.01-.03-.04-.06-.09-.09-.14,.02-.01,.04,.02,.05,.01,.02,.04,.04,.07,.07,.1,0,0,.02-.06,.03-.03,0,.04,.02,0,.02,.03-.02,.02-.03,0-.04,0,0,.04,.03,.04,.04,.05,0-.01,.03,0,.05,0-.01,.04,0,.03,.02,.05,.01,0,.02,0,.02-.02,.01-.05-.04-.04-.02-.08,0,.02,.02,.02,.04,.02,0-.03,0-.02,0-.04,.01,0,.03-.02,.03,0,0,0,0,0-.01,0,.02,0-.12,.15-.1,.14,0-.02,.12-.13,.11-.14,0-.01,.02-.04,0-.06l-.02,.03s0-.02-.01-.04c0-.01,0-.03,0-.04,.02,0-.1,.16-.07,.14h0s.04-.04,.04-.01c0,0,0-.02,0-.02,0,0,.01-.01,.02-.02h0s.03,0,.02-.03c-.06,0,.08-.25,.03-.27,.02,.06-.02,.06-.05,.06,0-.02,0-.05-.02-.07-.02,0-.01,.02-.02,.03,0-.01-.02-.03-.02-.06-.02,.03-.02-.03-.03-.02-.02,.01,0,.02-.01,.03-.02,0-.04-.02-.06-.03,0-.04,0-.08,0-.12,.03,.01-.02,.07,.01,.06,0-.06,.03-.01,.04-.06h0v-.03h-.02s-.01,0-.02,0h0s-.05,.02-.06-.01c0-.02,0-.04,.02-.04h-.02s0,0,0,.01c-.01,.02-.02,0-.03-.01,0-.02-.13,.08-.12,.06-.02,0-.01-.04-.03-.02,0,.02,.16-.06,.14-.05,0-.03-.19,.09-.19,.04-.01,0-.03,0-.03,.03-.02-.01,.01-.04,0-.07,0,0,0,.01,0,.01v-.03s-.08-.02-.12,.02c.01-.03,.03-.06,.05-.09h0s.02,0,.02-.02c-.02-.02-.03-.02-.06,0v-.02h0s0,0,0-.02h0c0-.08-.08,.03-.11-.02-.01,0,0,.01-.02,.02-.02-.03-.05-.06-.08-.08,0,.01-.01,.02-.01,.03,0,.01,0,.03,0,.04h-.03c.04-.09-.04-.1,0-.17h0v-.02s-.02,0-.02,0h-.01s-.01,.06-.03,.05c-.01-.02-.03-.03-.04-.05,0-.03,0-.04,.01-.06-.04,.03-.02-.06-.05-.06-.02,0-.06,0-.07,.05-.03,0-.02-.04-.01-.08Z" />
    <path class="cls-11111" d="M17.52,13.49h-.02c.05,0,.11,0,.16,.03-.11-.16-.24-.3-.34,.03,0-.18-.11-.26-.12-.22-.02,.03-.05,.05-.07,.08,.02-.01,.03-.03,.05-.04-.02,.02-.03,.03-.05,.04-.15,.13-.32,.07-.48,0-.15-.04-.3-.08-.44-.13-.01,0-.03-.01-.04-.02l.05,.03c-.05,.04-.11,.08-.17,.12,0,.03,.02,.06,.03,.09l-.03-.02c-.03,.07-.08,.07-.11,.1,0,0,0-.01,0-.02,0,0,0-.01,0-.02s0,0-.01-.01c0,0-.01,0-.02,0v.03c-.06,0-.13,0-.2,0,0,0-.01-.01-.02-.03l-.06,.03c0-.05-.05-.05-.02-.08-.05,.06-.09,.02-.13,.08-.16,0-.32,.04-.47,.12v.02c-.05,.03-.1,.13-.17,.1-.05,.07-.12,.1-.14,.21-.05,.01-.08,.07-.13,.09,.01,.05-.05,.06-.03,.1,.03,.07,.04,.01,.07,.07v-.02c.13,.08,.27,.13,.42,.16,.1-.04,.2,0,.29-.01,.11-.02,.21-.05,.31-.09,.02-.01,.04,.03,.05,.06,.08-.02,.19,0,.28-.03h0c.05,0,.09,.05,.13,.04,0-.01,0-.02,.01-.02,0,.07,.29-.14,.31-.1h.02c.1,.03,.2,.17,.29,.16,.02-.03,.04-.06,.06-.1,.01,.03,.02-.03,.04-.02,.04,.14,.07,.08,.05,.03,.04,0,.08-.01,.11,0,.02,0,.03-.02,.05-.03,.01-.01,.02,0,.03,.04,.04-.02,.02,.02,.06,.03,0,.05,.1-.08,.11-.06h0s.07,.11,.11,.12c.12,.02,.23,.03,.35,.03,0-.05-.02,.01-.02-.06,.06,.01,.13,.08,.19,.09,.01,.02,.02,.04,.03,.06,.02,.02,.01-.02,.03-.02v.05s.03,.05,.05,.03c0-.02,0-.02,.02-.02,0,.05,.02,0,.02,.04h0s0,0,.01,0c0-.02,.09-.15,.1-.17h0s.02-.03,.01-.04h.03s0,.04,0,.06c0-.02,.02-.03,.03-.02-.03-.04-.05-.08-.07-.13,.01-.02,.03,.01,.04,0,.01,.03,.03,.06,.06,.08,0,0,0-.06,.02-.03,0,.04,.01,0,.02,.03-.01,.02-.02,.01-.03,0,0,.04,.02,.03,.03,.04,0-.01,.02,0,.03-.01,0,.04,0,.03,.02,.05,0,0,.01-.01,.01-.03,0-.05-.03-.03-.02-.08,0,.02,.02,.02,.03,.01,0-.03,0-.02,0-.04,0,0,.02-.02,.02,0,0,0,0,0,0,0,.01,0-.07,.16-.05,.15,0-.02,.07-.15,.07-.15,0-.01,0-.05,0-.05v.03s-.02-.05-.02-.07c.02,0-.05,.17-.04,.15h0s.02-.04,.03-.02c0,0,0-.02,0-.02,0,0,0-.01,.01-.02h0s.02,0,.01-.04c-.04,0,.04-.26,0-.27,.02,.06,0,.06-.03,.06,0-.02,0-.04-.02-.06-.01,0,0,.02,0,.03-.01-.02-.02-.03-.02-.05,0,.03-.01-.02-.02-.01,0,.02,0,.02,0,.03-.02,0-.03,0-.05-.02,0-.04-.01-.08,0-.12,.02,0-.01,.07,.01,.06,0-.06,.02-.02,.03-.06,0-.03-.02-.03-.03-.02h0s-.03,.03-.04,0c0-.02,0-.04,0-.04h-.01s0,0,0,.01c0,.02-.01,0-.02,0,0-.02-.08,.1-.08,.08-.01,0-.01-.03-.02-.01,0,.02,.1-.08,.09-.07,0-.03-.12,.11-.13,.07,0,0-.02,0-.02,.03-.01-.01,0-.05,0-.07h0v-.02s-.06-.01-.08,.04c0-.03,.02-.06,.03-.09h0s.01-.01,.01-.03c-.01-.02-.02-.01-.04,.01v-.02h0s0,0,0-.02h0c0-.07-.05,.04-.08,0,0,0,0,.01-.01,.02-.02-.03-.04-.05-.07-.07,0,.02,0,.05,0,.07h-.02c.02-.09-.03-.09-.01-.17,0-.02-.02-.02-.03,0,0,.02,0,.05-.02,.05-.01-.01-.02-.03-.03-.04,0-.02,0-.04,0-.06-.03,.03-.02-.06-.04-.05-.01,0-.04,0-.05,.06-.02,0-.02-.04-.02-.07Z" />
    <path class="cls-22222" d="M14.65,13.8l-2.53-8.03-2.53,7.59,1.38,8.48,3.69-8.03Z" />
</svg>