<svg width="36" height="36" viewBox="0 0 36 36" xmlns="http://www.w3.org/2000/svg">
<g filter="url(#filter0_d_577_37925)">
<path d="M4.06669 8.78868L17.4231 1.07735L30.7795 8.78868V24.2113L17.4231 31.9227L4.06669 24.2113V8.78868Z" fill="#F9F9F9" stroke="currentColor"/>
<path d="M14.9499 26.0964L15.093 26.4133C14.9248 26.0502 14.753 25.6795 14.5778 25.3012C14.4411 24.9907 14.3022 24.675 14.1636 24.3603C14.3106 24.7975 14.4702 25.2572 14.645 25.7101L14.7113 25.8796L14.8023 26.0972L15.0807 26.7234C15.2693 27.1403 15.4625 27.5531 15.6501 27.9354C16.0122 27.5114 16.3588 27.087 16.6533 26.6984L16.8638 26.4143C16.9207 26.3401 16.973 26.2626 17.0202 26.1823C17.0803 26.0747 17.1339 25.9679 17.1802 25.8624C17.4142 25.891 18.4472 24.8536 18.4297 24.801C18.6021 24.5511 18.7816 24.3023 18.9681 24.0545L18.5852 24.5626L18.9681 24.0545C20.2617 22.4076 21.6462 20.8289 23.1156 19.3253L23.8995 18.4757C24.3059 18.0273 24.7664 17.5193 25.2357 17.0016C24.8367 16.3671 24.4296 15.7197 24.0653 15.1406L23.3654 13.9912L23.0852 13.5268L23.3856 14.0511C22.9236 13.4341 22.5009 12.8696 22.1126 12.3511C22.1487 12.4878 22.1981 12.6209 22.2601 12.7486L22.0901 12.4541C21.7907 12.1083 21.5106 11.7474 21.2507 11.3731C21.3267 11.4114 21.1892 11.1854 21.067 10.9866L21.0935 11.0786C20.6241 10.3273 20.0322 9.48397 19.6037 8.818C19.5577 8.74993 19.5218 8.67609 19.4968 8.59855L19.0535 7.97971C19.1342 7.99904 18.7521 7.42637 18.9807 7.71125C18.8886 7.601 18.8021 7.48681 18.7185 7.37099L18.4522 6.98772C18.2032 6.6188 17.9544 6.2507 17.7225 5.95931L17.5766 5.73737C17.1951 6.26765 16.808 6.80578 16.4153 7.35176L15.5771 8.54725C15.0192 9.35141 14.4655 10.1673 13.93 10.9788L13.9764 10.951C13.6157 11.5786 13.2187 12.1861 12.7871 12.7706C12.4721 13.2552 12.198 13.7634 11.9675 14.2904C11.5662 14.8675 11.4501 15.1276 11.0688 15.7018C11.2222 15.5912 10.7324 16.2828 10.9702 16.0342C11.3079 15.7107 11.2649 15.6513 11.5488 15.3748L11.5257 15.3731C12.6673 13.9591 13.7791 12.522 14.8848 11.0539C15.5665 10.0361 16.3841 8.98531 17.1232 7.94759L17.3416 7.63798L17.3973 7.55579L17.4223 7.51542L17.5338 7.33479L17.6392 7.46562C17.7129 7.5551 17.7814 7.64852 17.8442 7.74545C18.0856 8.08764 18.3182 8.41732 18.5353 8.7251C18.6708 8.92561 18.7858 9.13836 18.8786 9.36034C19.4852 10.2685 20.2343 11.39 20.9201 12.4167L20.8892 12.3657C21.2516 12.9028 21.465 13.3402 21.8192 13.8644C21.8319 13.8531 21.8863 13.9346 21.9198 13.9699C22.2196 14.4684 22.5489 14.9498 22.9061 15.4117C23.3603 16.0421 23.8428 16.7118 23.9902 16.9164C23.9801 16.9282 23.9684 16.9388 23.9556 16.9478L23.8984 17.0265L23.2757 17.6685C23.0402 17.9056 22.8008 18.1466 22.5675 18.3815C22.1013 18.8502 21.6555 19.3048 21.2806 19.7413C21.1438 19.9521 20.9828 20.1836 20.8757 20.3678C20.7155 20.4996 20.7396 20.5698 20.5706 20.7484C20.0386 21.1175 19.8481 21.4327 20.1031 21.2261C19.7809 21.6242 19.4305 22.0016 19.1339 22.3469L18.7436 22.8461C18.6723 22.9508 18.5752 23.0368 18.461 23.0964C18.288 23.3048 18.1006 23.5016 17.9 23.6855C17.7803 23.7391 17.1631 24.6541 17.0597 24.7467L17.1058 24.682C16.9356 24.8651 16.7552 25.039 16.5654 25.2032L16.3028 25.4433L16.1299 25.6105L15.9616 25.7784C15.5566 24.9172 15.1406 24.0326 14.7736 23.2521C14.715 23.2627 14.9169 23.5261 14.854 23.5714C14.5113 22.8211 14.2219 22.0399 13.8757 21.2829C13.83 21.1554 13.7919 21.0254 13.7615 20.8938C13.6677 20.6445 13.6693 20.7627 13.5931 20.5836L13.6295 20.539C13.4691 20.2986 13.5048 20.1394 13.3707 19.9056C13.3455 19.9012 13.3013 19.8137 13.2622 19.727C13.3106 19.7005 13.1336 19.4632 13.1856 19.4555L13.1806 19.4547C13.155 19.4045 13.1331 19.3527 13.115 19.2996C13.0482 19.2009 12.4834 18.3658 12.4078 18.254L12.3942 18.2037C12.3274 18.0661 12.2621 18.0234 12.2911 18.1081L12.2135 17.9363L12.2263 17.9545L12.1492 17.7837C12.1389 17.7504 12.1457 17.7048 12.1906 17.7433C12.1247 17.6528 12.071 17.5547 12.031 17.4511C12.1258 17.732 12.2383 18.0833 12.319 18.385C12.2475 18.2778 12.1766 18.0586 12.1124 17.9364C12.0756 17.7732 11.9599 17.4551 11.8707 17.2072C11.8432 17.1562 11.7699 17.1449 11.7388 17.0154C11.7505 16.9405 11.6743 16.8821 11.6559 16.7712C11.7234 16.8773 11.78 16.9894 11.825 17.106C11.8616 17.0662 11.7244 16.813 11.6946 16.7165C11.6601 16.6803 11.5706 16.4522 11.4922 16.3185C11.5649 16.3599 11.4674 16.1939 11.4521 16.1009C11.4132 16.0047 11.3671 15.9524 11.3696 15.9973C11.3073 15.988 11.5171 16.3835 11.4051 16.2748C11.3743 16.1618 11.3284 16.0533 11.2686 15.9518C11.2418 15.962 11.2806 16.0281 11.2253 15.9749C11.1791 15.8622 11.0927 15.7593 11.09 15.6842C11.11 15.7147 11.1262 15.7474 11.1383 15.7816C11.0734 15.6371 11.6753 16.4837 11.5726 16.3048C11.5721 16.3632 11.0325 15.5565 11.0759 15.6526C11.1042 15.7456 10.9992 15.6107 11.0327 15.7052L11.1117 15.7917C11.1602 15.9196 11.1383 15.9904 11.0998 15.9547C11.0063 15.7458 11.5558 16.4648 11.4458 16.2992L11.4673 16.3766C11.3887 16.2706 11.3309 16.1516 11.2966 16.0255C11.2706 16.0362 11.2138 15.9392 11.1649 15.8594L11.1552 15.8278C11.1013 15.7469 11.0503 15.623 11.0427 15.6944C11.2865 16.2007 10.6223 15.4753 10.8395 15.9741C10.7992 15.7425 10.9308 16.0179 11.0395 16.2315C11.0401 16.335 11.0626 16.4373 11.1056 16.5322C11.1736 16.6651 11.1639 16.6025 11.1905 16.6218C11.2129 16.7022 11.2696 16.8499 11.2307 16.8443C11.316 16.9338 11.287 17.0224 11.3588 17.1431C11.4278 17.2469 11.3708 17.1288 11.4253 17.2L11.6609 17.7402C11.6569 17.8038 11.6807 17.9822 11.5834 17.8874C11.4701 17.6319 11.7 17.9526 11.5665 17.6935C11.5555 17.8351 11.4391 17.4684 11.3677 17.442C11.4018 17.5841 11.4575 17.7207 11.5331 17.8471L11.5282 17.8149C11.6257 17.9777 11.7024 18.1512 11.7567 18.3316C11.7191 18.3096 11.73 18.3763 11.681 18.2867L11.7581 18.461C11.7756 18.4797 11.7935 18.499 11.7752 18.447C11.8243 18.5156 11.8585 18.5931 11.8758 18.6748C11.8608 18.704 12.4088 19.5478 12.3806 19.5265C12.44 19.6505 12.4182 19.6963 12.4996 19.8067C12.5251 19.811 11.8578 18.6551 11.943 18.8159C11.9668 18.9336 12.7264 20.1713 12.7174 20.2685C12.7626 20.3597 12.82 20.4685 12.8342 20.4363C12.8957 20.597 12.7659 20.41 12.7954 20.5307C12.8003 20.5315 12.8032 20.5164 12.819 20.552L12.8386 20.6719C12.9901 20.8969 13.1081 21.2726 13.2771 21.5037C13.1829 21.4217 13.1 21.3285 13.0303 21.2263L13.0296 21.1922C13.0113 21.1724 12.9397 21.0421 12.9173 21.0565C12.972 21.2132 13.0474 21.3625 13.1414 21.5008L13.1634 21.5981C13.1663 21.596 13.1677 21.5924 13.1717 21.5914C13.1817 21.6512 13.1766 21.6466 13.1579 21.6314C13.1539 21.629 13.1502 21.626 13.1472 21.6225C13.1219 21.7506 13.4784 22.2098 13.5747 22.5082C13.6239 22.587 13.5904 22.5108 13.6528 22.6084C13.7607 22.9092 13.8328 23.1177 13.9586 23.4265C14.0346 23.5095 14.0504 23.5117 14.0275 23.3813L14.1249 23.6135C13.9457 23.442 14.2478 24.0731 14.0587 23.8803C14.0901 23.9983 14.1395 24.1112 14.2054 24.2151C14.232 24.2189 14.2743 24.2246 14.3499 24.3851L14.4739 24.7593C14.4679 24.8148 14.4254 24.7515 14.4077 24.7687C14.5765 25.0391 14.4671 25.0431 14.5991 25.3101C14.6865 25.4752 14.8467 25.8068 14.8972 25.7944C14.9376 25.8773 14.9689 25.964 14.9906 26.0532C14.9974 26.1022 14.9767 26.1046 14.9499 26.0964Z" fill="currentColor"/>
<path d="M15.0679 26.2014L15.1057 26.51C15.0399 26.0247 14.9729 25.5305 14.9041 25.0232L14.8132 24.2931L14.7653 23.8477C14.7415 24.1619 14.8461 25.3637 14.9526 26.3505C15.0401 27.255 15.1765 28.1545 15.3613 29.0453C15.5862 28.4476 15.7907 27.843 15.9464 27.2804C15.969 27.4733 16.215 27.0954 16.4854 26.5862C16.6887 26.2237 16.8651 25.8476 17.0134 25.461C17.1044 25.2129 17.1917 24.9747 17.2764 24.7437L17.4138 24.3325C17.3461 24.5209 17.3197 24.62 17.1701 25.0042C17.3197 24.62 17.3461 24.5209 17.4138 24.3325C18.0387 22.6264 18.7721 20.9592 19.6097 19.3404C19.8794 18.7659 20.3916 17.6755 20.8805 16.6345C20.7546 16.1266 20.6315 15.6298 20.5221 15.1881L20.3039 14.2441L20.1994 13.7845L20.3025 14.2999L19.6872 12.5611C19.6744 12.685 19.6753 12.8099 19.6899 12.9336L19.6308 12.6439C19.4678 12.2816 19.3278 11.9101 19.2114 11.5314C19.2697 11.5813 19.2177 11.3574 19.1708 11.1601L19.1642 11.2446C18.9799 10.4974 18.7119 9.6438 18.5368 8.9786C18.5169 8.90985 18.5083 8.83851 18.5113 8.76718L18.2442 7.91037C18.314 7.94738 18.0549 7.01943 18.2144 7.46913C18.0836 7.11751 17.9781 6.75407 17.8725 6.39143C17.7679 6.0326 17.6633 5.67503 17.5621 5.43672L17.4613 5.07147C17.0815 6.20751 16.6898 7.37924 16.2895 8.57662C16.0388 9.37088 15.7957 10.1738 15.5676 10.9696L15.6019 10.9359C15.4723 11.5521 15.3015 12.1595 15.0907 12.7544C14.9559 13.2398 14.8676 13.7361 14.8267 14.2371C14.6419 14.8189 14.6194 15.0675 14.4524 15.6427C14.5596 15.5152 14.3299 16.2143 14.4704 15.9502C14.6798 15.6005 14.6196 15.5582 14.7941 15.2603L14.7718 15.2636C15.3732 13.8051 15.9387 12.3328 16.4884 10.8351C16.6391 10.3247 16.8189 9.80022 17.0047 9.27207L17.1986 8.72647L17.2582 8.54536L17.3526 8.1902L17.5853 8.7337C17.6118 8.81219 17.6292 8.89331 17.6371 8.97554L17.6699 9.2765C17.9305 10.1917 18.2492 11.3111 18.544 12.3464L18.5324 12.2959C18.6894 12.8362 18.7405 13.2576 18.8942 13.7851C18.9099 13.7783 18.9333 13.8602 18.9527 13.8979C19.0276 14.2672 19.1323 14.6302 19.2659 14.9837C19.3597 15.2675 19.4632 15.5805 19.5614 15.8776C19.6557 16.1588 19.7681 16.5115 19.7913 16.5571C19.7509 16.6805 19.7002 16.8005 19.6397 16.916L19.5765 17.0815C19.0738 18.1317 18.4458 19.1733 18.0551 20.0913C18.0017 20.3037 17.9331 20.5392 17.898 20.722C17.7954 20.8706 17.8422 20.9265 17.7478 21.1177C17.3835 21.5515 17.3168 21.866 17.481 21.6323C17.3211 22.0468 17.128 22.4493 16.9734 22.8124L16.7856 23.3294C16.7556 23.4359 16.695 23.5322 16.6109 23.6069C16.5231 23.8249 16.418 24.036 16.2963 24.2382C16.2497 24.2754 16.2475 24.3347 16.2189 24.4654C16.2023 24.5675 16.1761 24.6679 16.1408 24.7655L16.1507 24.7228C16.0516 24.9232 16.009 24.7558 15.966 24.8412L15.9428 24.8783C15.9271 24.6607 15.9056 24.5184 15.88 24.3581C15.8165 23.9042 15.7545 23.4609 15.6968 23.0485C15.6376 23.0441 15.7472 23.3129 15.6729 23.3369C15.5824 22.6243 15.5526 21.8975 15.4609 21.1783C15.4575 21.0598 15.4621 20.9412 15.4746 20.8232C15.4637 20.591 15.428 20.6914 15.4117 20.5225L15.4605 20.493C15.3833 20.2531 15.4675 20.1266 15.4133 19.8983C15.3907 19.8888 15.376 19.8047 15.366 19.7225C15.4206 19.7111 15.3265 19.4701 15.3786 19.4754L15.374 19.4736C15.3654 19.4253 15.3608 19.3764 15.3603 19.3274L15.0152 18.2822L15.018 18.2365C14.9977 18.1049 14.9488 18.0539 14.9498 18.1322L14.93 17.9692L14.9364 17.9875L14.9167 17.8255C14.9173 17.795 14.9382 17.7579 14.9689 17.8007C14.9346 17.7095 14.9143 17.614 14.9087 17.5172C14.9106 17.7764 14.9072 18.0992 14.8891 18.3729C14.8547 18.2659 14.8562 18.0643 14.8334 17.9464C14.8449 17.7226 14.8447 17.4983 14.8327 17.2745C14.8225 17.2251 14.7562 17.1989 14.7673 17.0823C14.802 17.0215 14.7477 16.9548 14.7652 16.8568C14.7961 16.9617 14.8148 17.0696 14.821 17.1785C14.8685 17.1531 14.8175 16.9077 14.8194 16.8193C14.7979 16.7808 14.7844 16.5675 14.7517 16.4366C14.808 16.4881 14.7674 16.3255 14.7821 16.2433C14.7753 16.1531 14.7478 16.0984 14.736 16.137C14.6795 16.115 14.755 16.4972 14.6824 16.3798C14.6887 16.2775 14.6791 16.175 14.654 16.0755C14.6252 16.0781 14.6414 16.1427 14.6054 16.0852C14.5969 15.9794 14.5468 15.8727 14.5679 15.8086C14.5774 15.8388 14.5826 15.8703 14.5833 15.9019C14.5669 15.7649 14.8744 16.6179 14.8328 16.4433C14.8139 16.4925 14.5534 15.6874 14.5645 15.7786C14.5621 15.8637 14.5045 15.7258 14.5067 15.8133L14.5548 15.9045C14.5607 16.0237 14.5175 16.0786 14.4921 16.0397C14.4687 15.8417 14.7663 16.5748 14.7136 16.4097L14.7097 16.4801C14.6682 16.3729 14.6504 16.2585 14.6575 16.1443C14.6293 16.1474 14.6057 16.0524 14.5842 15.9738L14.5849 15.9448C14.559 15.8641 14.5495 15.7478 14.5197 15.8064C14.5926 16.2902 14.1875 15.5257 14.2375 15.997C14.2721 15.7919 14.3108 16.0548 14.3472 16.2603C14.3154 16.3465 14.3045 16.4387 14.3154 16.5296C14.3385 16.6576 14.349 16.6024 14.3682 16.6248C14.3642 16.6979 14.3718 16.8357 14.3364 16.8222C14.3896 16.9172 14.334 16.9856 14.3645 17.104C14.3975 17.2076 14.3804 17.0947 14.4099 17.1673L14.4645 17.6779C14.4406 17.7308 14.4071 17.8871 14.3441 17.7849C14.3165 17.543 14.4348 17.8665 14.3891 17.617C14.334 17.7342 14.3385 17.3976 14.2787 17.359C14.2664 17.4865 14.2765 17.6151 14.3088 17.7394L14.3143 17.711C14.356 17.8708 14.3745 18.0354 14.3694 18.2001C14.3404 18.173 14.3298 18.2318 14.3113 18.1449L14.3299 18.3099C14.3407 18.3297 14.3517 18.3501 14.3507 18.302C14.3758 18.3711 14.3841 18.4448 14.3748 18.5175C14.3513 18.5389 14.6081 19.3773 14.588 19.3529C14.6055 19.4713 14.5703 19.505 14.6131 19.6169C14.6361 19.6264 14.3639 18.4968 14.3945 18.6523C14.3801 18.7572 14.7146 19.977 14.6755 20.0572C14.6898 20.1446 14.7103 20.2498 14.7339 20.2257C14.7419 20.3756 14.677 20.1879 14.6671 20.2967C14.6716 20.2986 14.6791 20.2864 14.683 20.3202L14.6638 20.426C14.7374 20.6509 14.7316 20.9955 14.82 21.2294C14.7566 21.1398 14.7068 21.0419 14.672 20.9387L14.6821 20.9097C14.6708 20.8887 14.6436 20.7623 14.6177 20.7694C14.6205 20.9143 14.6454 21.0581 14.6914 21.1962L14.6817 21.2834C14.6851 21.2824 14.6877 21.2796 14.6918 21.2797C14.6825 21.3326 14.679 21.3275 14.666 21.3104C14.6631 21.3074 14.6606 21.3041 14.6585 21.3005C14.594 21.4031 14.7894 21.8726 14.7872 22.147C14.8094 22.2248 14.8014 22.1527 14.8302 22.2495C14.8383 22.5285 14.8414 22.7213 14.8641 23.0112C14.9104 23.0986 14.9248 23.104 14.9441 22.9885L14.9638 23.2071C14.8469 23.0213 14.9362 23.6239 14.8166 23.4179C14.8092 23.5245 14.8209 23.6316 14.8509 23.7345C14.8751 23.7437 14.9137 23.7581 14.9353 23.9111L14.9356 24.2559C14.9124 24.3015 14.8917 24.2383 14.8695 24.2488C14.9559 24.5919 14.8576 24.6221 14.9218 25.0364C14.9676 25.2984 15.0449 25.8213 15.0882 25.7595C15.1344 26.1029 15.1057 26.1693 15.0679 26.2014Z" fill="currentColor"/>
<path d="M11.3893 16.3752L11.4045 16.3813C11.3518 16.3813 11.2998 16.3686 11.2527 16.3442C11.3635 16.5284 11.4944 16.6912 11.58 16.2995C11.5893 16.5078 11.6969 16.6047 11.6991 16.5534C11.7185 16.5194 11.7413 16.4876 11.7669 16.4583C11.7501 16.4743 11.7344 16.4915 11.7199 16.5097C11.7344 16.4915 11.7501 16.4743 11.7669 16.4583C11.9114 16.2967 12.0684 16.3674 12.2308 16.4479C12.3759 16.4878 12.5185 16.5365 12.658 16.5938C12.6714 16.6015 12.6847 16.6085 12.6982 16.6144L12.6534 16.577C12.7024 16.5248 12.7548 16.4762 12.8102 16.4315C12.8038 16.397 12.7935 16.3634 12.7793 16.3315L12.8045 16.3513C12.8275 16.2649 12.8805 16.2687 12.9054 16.2322C12.9 16.2776 12.9196 16.2865 12.9369 16.2933L12.9301 16.2634C12.9958 16.2822 13.072 16.2454 13.1307 16.251C13.1389 16.2509 13.1451 16.2678 13.1488 16.2835L13.2051 16.2485C13.2007 16.3092 13.2517 16.3018 13.2249 16.3399C13.267 16.2681 13.3098 16.3121 13.3499 16.2378C13.5089 16.2273 13.6623 16.1732 13.7946 16.0811L13.791 16.0586C13.8429 16.0184 13.8887 15.8988 13.9519 15.9384C13.997 15.8575 14.0611 15.8148 14.0791 15.6884C14.1311 15.671 14.1519 15.6074 14.2029 15.5746C14.1897 15.512 14.2525 15.4989 14.2274 15.4504C14.1935 15.3628 14.1916 15.4374 14.1629 15.3666L14.1638 15.3877C14.0417 15.3013 13.9043 15.2411 13.7595 15.2106C13.6688 15.2637 13.5704 15.2203 13.4762 15.2363C13.3717 15.2592 13.2711 15.2981 13.1777 15.3517C13.1569 15.3697 13.142 15.3173 13.1242 15.288C13.0442 15.3162 12.9422 15.2949 12.8519 15.3292L12.8563 15.3313C12.8083 15.3418 12.7724 15.2774 12.7255 15.2881C12.7257 15.306 12.7185 15.3071 12.715 15.3164C12.7068 15.2334 12.439 15.4894 12.4225 15.4417C12.4179 15.4456 12.4128 15.4488 12.4074 15.4514C12.3085 15.4141 12.2062 15.2522 12.1213 15.2668C12.101 15.3049 12.0827 15.3441 12.0666 15.3843C12.0516 15.3487 12.0487 15.4178 12.0306 15.4082C11.9847 15.2415 11.9577 15.3113 11.9814 15.3702C11.9436 15.3927 11.9057 15.378 11.8721 15.3837C11.8566 15.3959 11.8411 15.4087 11.8254 15.4231C11.812 15.437 11.8046 15.4123 11.7979 15.3728C11.7637 15.3964 11.7738 15.3553 11.738 15.3384C11.7294 15.2801 11.6482 15.4311 11.6382 15.4134L11.644 15.4048C11.6026 15.3946 11.5751 15.2819 11.5346 15.2768C11.4223 15.2341 11.2995 15.2773 11.1954 15.2573C11.1943 15.3183 11.2183 15.2438 11.2195 15.3246C11.1581 15.314 11.0962 15.2382 11.0342 15.228C11.0212 15.2074 11.0111 15.185 11.0042 15.1614C10.9844 15.1387 10.9926 15.1906 10.9781 15.1827L10.9761 15.1276C10.9549 15.1728 10.9451 15.0665 10.9252 15.0893C10.9241 15.1115 10.9168 15.1144 10.9098 15.1127C10.9094 15.0543 10.8879 15.1168 10.8889 15.0634L10.8887 15.0678C10.8845 15.0668 10.8814 15.0706 10.8762 15.0605C10.8681 15.0811 10.792 15.2413 10.7837 15.2661L10.7799 15.2565C10.7685 15.2583 10.7637 15.3017 10.7703 15.3122L10.7563 15.3089L10.7579 15.3049L10.7439 15.3016C10.7396 15.2825 10.7391 15.2628 10.7424 15.2435C10.7345 15.2639 10.7256 15.275 10.7177 15.2645C10.7459 15.3109 10.7701 15.3598 10.79 15.4107C10.7806 15.4308 10.7635 15.3996 10.7533 15.406C10.7397 15.3703 10.7204 15.3371 10.6963 15.3079C10.692 15.3113 10.689 15.3765 10.6793 15.3477C10.6745 15.3027 10.6683 15.3494 10.6601 15.3168C10.6695 15.2928 10.6786 15.3037 10.688 15.306C10.6864 15.2529 10.6651 15.2699 10.6576 15.2549C10.6541 15.2716 10.6359 15.2543 10.6244 15.2691C10.6294 15.2181 10.6151 15.2365 10.6083 15.209C10.6006 15.2029 10.5957 15.2234 10.5988 15.2414C10.5963 15.297 10.6296 15.2746 10.6188 15.3329C10.616 15.306 10.6008 15.3153 10.5927 15.3177C10.5926 15.348 10.5983 15.3408 10.593 15.3697C10.5839 15.363 10.5743 15.3995 10.5691 15.3681C10.5708 15.3598 10.5745 15.365 10.5772 15.3658C10.5654 15.3627 10.6411 15.168 10.6259 15.1857C10.6298 15.2126 10.5587 15.3654 10.5665 15.3673C10.5737 15.3822 10.5614 15.4219 10.5688 15.4325L10.5771 15.3959C10.588 15.4227 10.5917 15.4521 10.5879 15.481C10.5708 15.4762 10.6363 15.2742 10.6217 15.3048L10.6276 15.3192C10.6214 15.3389 10.6049 15.356 10.5985 15.3242C10.5996 15.3426 10.5942 15.3608 10.5833 15.3755L10.5808 15.3704C10.5737 15.3856 10.5638 15.3784 10.5684 15.418C10.6102 15.4132 10.5409 15.7224 10.5814 15.7397C10.5644 15.6736 10.5871 15.6719 10.6049 15.6642C10.6065 15.69 10.6143 15.715 10.6274 15.7369C10.6385 15.7317 10.6339 15.7127 10.6361 15.6959C10.6476 15.7143 10.6534 15.7361 10.6524 15.7581C10.6611 15.7166 10.6663 15.7845 10.6766 15.7703C10.6858 15.7511 10.676 15.7523 10.6825 15.7323C10.6979 15.7363 10.7126 15.7424 10.7264 15.7505C10.7363 15.7968 10.7389 15.8444 10.7341 15.8916C10.7133 15.8847 10.7421 15.8091 10.7204 15.8201C10.7297 15.8946 10.7012 15.8405 10.6973 15.8969C10.7042 15.9306 10.7182 15.9309 10.7299 15.9216L10.7275 15.9117C10.7378 15.9019 10.7585 15.8863 10.7696 15.9262C10.767 15.9524 10.7719 15.9721 10.7643 15.9785L10.7785 15.9835C10.7799 15.9798 10.7806 15.9759 10.7805 15.972C10.7804 15.9681 10.7796 15.9643 10.778 15.9607C10.7847 15.9404 10.7914 15.9517 10.7966 15.9672C10.7981 15.9949 10.8721 15.8507 10.8697 15.8681C10.88 15.8673 10.8825 15.9089 10.8924 15.8807C10.8935 15.8582 10.7947 15.9756 10.8082 15.9666C10.817 15.997 10.9241 15.8281 10.9304 15.8806C10.938 15.8786 10.9472 15.8727 10.9454 15.8445C10.9582 15.8582 10.9415 15.8982 10.9506 15.9245C10.9509 15.9201 10.9499 15.9104 10.9528 15.9115L10.9616 15.9469C10.9815 15.9034 11.0106 15.9601 11.0314 15.9024C11.0265 15.9404 11.0177 15.9778 11.0051 16.0138L11.0028 15.999C10.9949 16.0132 10.9905 16.0291 10.9902 16.0454C11.0029 16.0641 11.0138 16.059 11.0272 16.0314C11.0296 16.0389 11.0325 16.0465 11.0345 16.0543C11.0344 16.0506 11.0342 16.0475 11.0342 16.0433C11.0378 16.0533 11.0386 16.0642 11.0366 16.0746L11.0356 16.081C11.0436 16.1632 11.0856 16.0289 11.1088 16.0714C11.1157 16.0598 11.1095 16.0575 11.118 16.0417C11.1359 16.0704 11.1578 16.0963 11.1829 16.1185C11.1913 16.0902 11.191 16.06 11.1819 16.0319L11.2006 16.0434C11.1836 16.1378 11.2356 16.1335 11.2168 16.2277C11.2223 16.2493 11.2336 16.2537 11.2441 16.2384C11.2451 16.2147 11.2468 16.1766 11.26 16.1767C11.2706 16.1929 11.2804 16.2097 11.2892 16.227C11.2903 16.2496 11.2899 16.2722 11.2879 16.2948C11.3114 16.2552 11.3084 16.3619 11.3305 16.356C11.344 16.3518 11.3556 16.3428 11.3633 16.3305C11.3709 16.3183 11.3742 16.3036 11.3725 16.2891C11.3911 16.2915 11.3911 16.3312 11.3893 16.3752Z" fill="currentColor"/>
<path d="M18.9217 16.1015L18.8972 16.0914C18.9834 16.1055 19.0672 16.1318 19.1461 16.1695C18.9893 15.9623 18.7954 15.7699 18.5895 16.1202C18.6069 15.9184 18.4417 15.7956 18.4299 15.844C18.3895 15.8723 18.3463 15.8963 18.3011 15.9158C18.3307 15.9057 18.3598 15.8937 18.388 15.8799C18.3598 15.8937 18.3307 15.9057 18.3011 15.9158C18.1701 15.9543 18.0323 15.9634 17.8975 15.9426C17.7626 15.9217 17.634 15.8714 17.5205 15.7951C17.3757 15.7314 16.972 15.619 16.8265 15.5354C16.8053 15.5244 16.784 15.5139 16.7623 15.5045C16.7968 15.5287 16.7968 15.5287 16.8316 15.5528C16.738 15.5899 16.6425 15.6216 16.5454 15.6477C16.5512 15.6843 16.5633 15.7196 16.5813 15.752L16.5422 15.7259C16.4899 15.8021 16.4016 15.7835 16.354 15.8114C16.3702 15.7695 16.3387 15.7555 16.3107 15.7441L16.3175 15.7746C16.2055 15.7532 16.0924 15.7383 15.9787 15.73C15.9649 15.7278 15.9573 15.7099 15.9536 15.6939L15.8535 15.7115C15.8704 15.6547 15.7836 15.6474 15.8347 15.6186C15.7526 15.6753 15.6878 15.6213 15.6086 15.681C15.352 15.646 15.0913 15.6543 14.8374 15.7055L14.8399 15.7281C14.7463 15.7519 14.6505 15.8533 14.5507 15.7976C14.4622 15.8622 14.3478 15.885 14.2976 16.0008C14.2075 16.0028 14.1626 16.0577 14.0717 16.0746C14.0839 16.1381 13.9765 16.133 14.011 16.1864C14.054 16.2796 14.0689 16.2089 14.1059 16.2846L14.1078 16.2642C14.3116 16.3866 14.5303 16.4817 14.7584 16.5472C14.9199 16.5476 15.0808 16.5661 15.2381 16.6024C15.4116 16.6102 15.5855 16.6014 15.7574 16.5761C15.7951 16.5648 15.8119 16.6191 15.8371 16.6521C15.9759 16.6477 16.1437 16.6967 16.3007 16.6894L16.2936 16.6861C16.3759 16.6896 16.426 16.7612 16.5064 16.7642C16.5088 16.7471 16.5212 16.7481 16.5286 16.7402C16.5291 16.8218 17.0192 16.6525 17.0394 16.7028C17.0481 16.7003 17.0571 16.6986 17.0662 16.6978C17.2264 16.7612 17.3725 16.9448 17.5173 16.9547C17.5564 16.9251 17.5933 16.8927 17.6278 16.8578C17.6473 16.8961 17.6631 16.8309 17.692 16.8451C17.7427 17.0173 17.7989 16.9582 17.7684 16.8952C17.8308 16.8933 17.8932 16.8993 17.9541 16.9131C17.9822 16.9059 18.0102 16.898 18.0388 16.8887C18.0634 16.8791 18.072 16.9048 18.077 16.9445C18.1381 16.9315 18.1147 16.968 18.1721 16.9941C18.1774 17.0523 18.3374 16.9309 18.3516 16.9506L18.3405 16.9572C18.4083 16.9786 18.4366 17.0941 18.5037 17.1103C18.6903 17.1588 18.8794 17.197 19.0702 17.2244C19.0816 17.1664 19.0295 17.2309 19.0403 17.1533C19.1417 17.1807 19.2337 17.2706 19.3361 17.2978C19.3536 17.3192 19.3671 17.3436 19.3759 17.3698C19.4055 17.3971 19.4001 17.3453 19.4232 17.3568L19.4177 17.4101C19.4605 17.3729 19.4601 17.4772 19.4972 17.461C19.5025 17.4401 19.5152 17.4394 19.5268 17.443C19.5181 17.4989 19.5641 17.4452 19.5539 17.496L19.5549 17.4918C19.562 17.494 19.5677 17.4912 19.5748 17.5023C19.5917 17.4849 19.7448 17.3533 19.7626 17.3318L19.7675 17.3421C19.7869 17.3436 19.8019 17.3035 19.7924 17.2916L19.8155 17.2987L19.8121 17.3021L19.835 17.3092C19.8393 17.328 19.8369 17.3478 19.8284 17.3651C19.8449 17.3479 19.8616 17.3398 19.8732 17.352C19.8348 17.3023 19.8019 17.2487 19.7749 17.192C19.794 17.1754 19.8177 17.2099 19.8359 17.2068C19.8555 17.2481 19.8827 17.2853 19.916 17.3165C19.9238 17.3145 19.9391 17.253 19.9509 17.2833C19.9517 17.3277 19.9696 17.2848 19.9781 17.3182C19.9587 17.3385 19.9451 17.3256 19.9296 17.3207C19.9239 17.3719 19.9625 17.3616 19.9726 17.3781C19.9811 17.3631 20.009 17.3848 20.0306 17.3739C20.0141 17.4212 20.0409 17.4076 20.048 17.4358C20.06 17.4438 20.0715 17.4256 20.0691 17.4075C20.0821 17.3551 20.0228 17.3671 20.0501 17.3145C20.0506 17.341 20.0775 17.3363 20.0915 17.3363C20.0965 17.3074 20.0858 17.3127 20.0993 17.2865C20.1134 17.2955 20.1353 17.2634 20.1391 17.2948C20.1349 17.3022 20.1295 17.2962 20.1251 17.2947C20.1444 17.301 19.9865 17.4657 20.0149 17.4531C20.0125 17.4263 20.1562 17.3003 20.1433 17.2963C20.1336 17.28 20.1606 17.2455 20.1498 17.2333L20.1301 17.266C20.1233 17.2531 20.1193 17.2389 20.1185 17.2243C20.1177 17.2097 20.1201 17.1952 20.1256 17.1816C20.1534 17.191 20.0116 17.3656 20.0409 17.3404L20.0332 17.325C20.0467 17.308 20.0771 17.2962 20.0828 17.3285C20.0842 17.3188 20.088 17.3096 20.0939 17.3017C20.0998 17.2939 20.1076 17.2877 20.1165 17.2838L20.1198 17.2893C20.1342 17.2768 20.1498 17.2864 20.1483 17.2473C20.0773 17.2401 20.2426 16.9642 20.1774 16.9362C20.1954 17.0042 20.1571 16.9994 20.1259 17.0017C20.1264 16.9741 20.1171 16.9473 20.0997 16.926C20.0802 16.9278 20.0849 16.9473 20.0787 16.9627C20.0707 16.9467 20.0529 16.9315 20.061 16.8987C20.04 16.9359 20.042 16.8695 20.0223 16.8802C20.004 16.896 20.0205 16.8976 20.0065 16.9149C19.9821 16.9071 19.9584 16.8971 19.9357 16.8851C19.9264 16.8394 19.9296 16.7921 19.9451 16.7481C19.9789 16.7606 19.9187 16.8247 19.9568 16.8203C19.9529 16.7464 19.9922 16.8062 20.0077 16.7534C20.0075 16.7474 20.0058 16.7417 20.0028 16.7365C19.9999 16.7314 19.9957 16.727 19.9908 16.7238C19.9858 16.7206 19.9801 16.7186 19.9742 16.7181C19.9684 16.7175 19.9624 16.7184 19.957 16.7207L19.9593 16.7308C19.9405 16.7373 19.9034 16.7463 19.891 16.705C19.8995 16.6808 19.8945 16.6606 19.9082 16.6566L19.8852 16.6479C19.8808 16.6553 19.8764 16.6629 19.8823 16.6697C19.8679 16.6872 19.8584 16.6745 19.8522 16.6583C19.854 16.6314 19.7071 16.7484 19.7137 16.7324C19.6964 16.7303 19.6988 16.6899 19.6776 16.7139C19.6723 16.7352 19.8567 16.6508 19.8326 16.6556C19.8227 16.6241 19.6162 16.7554 19.6138 16.7034C19.6008 16.7032 19.5845 16.7062 19.583 16.7336C19.5637 16.717 19.598 16.6834 19.5868 16.6557C19.5858 16.6599 19.5859 16.6694 19.5811 16.6676L19.572 16.6312C19.5318 16.6673 19.4918 16.6049 19.4478 16.6541C19.4629 16.6179 19.4837 16.5845 19.5095 16.5551L19.5111 16.5698C19.5157 16.5621 19.5358 16.5559 19.5397 16.529C19.5213 16.5076 19.5022 16.5094 19.4753 16.5321C19.472 16.5242 19.4692 16.5162 19.4667 16.5081L19.4653 16.5187C19.4608 16.5008 19.462 16.4982 19.4664 16.4881L19.469 16.4823C19.4686 16.4015 19.3768 16.518 19.3446 16.4708C19.3313 16.48 19.3413 16.484 19.3245 16.4966C19.2964 16.4618 19.2639 16.431 19.2277 16.405C19.2186 16.4166 19.2127 16.4303 19.2106 16.4449C19.2085 16.4594 19.2102 16.4743 19.2157 16.488L19.186 16.4717C19.2296 16.3863 19.1415 16.3758 19.188 16.291C19.1873 16.2862 19.1854 16.2817 19.1824 16.2779C19.1795 16.2741 19.1756 16.2711 19.1711 16.2693C19.1667 16.2675 19.1618 16.2669 19.157 16.2676C19.1523 16.2682 19.1478 16.2701 19.144 16.2731C19.1384 16.2955 19.1296 16.3315 19.1075 16.3277C19.0926 16.3098 19.0789 16.291 19.0664 16.2714C19.0652 16.2408 19.0765 16.2307 19.0793 16.207C19.0336 16.2382 19.0556 16.137 19.0175 16.1364C18.9927 16.1412 18.9462 16.137 18.9365 16.1886C18.9054 16.1809 18.9117 16.143 18.9217 16.1015Z" fill="currentColor"/>
<path d="M23.5907 16.4425L23.5728 16.4361C23.6346 16.4376 23.6954 16.4514 23.752 16.4767C23.6251 16.2959 23.4738 16.135 23.3625 16.5093C23.3566 16.3084 23.2314 16.2118 23.2275 16.2611C23.203 16.2938 23.1752 16.3237 23.1447 16.3505C23.1647 16.3359 23.1837 16.3198 23.2016 16.3025C23.1837 16.3198 23.1647 16.3359 23.1447 16.3505C22.9691 16.5013 22.7846 16.4284 22.5938 16.3456C22.4236 16.3029 22.2556 16.2515 22.0904 16.1915C22.0747 16.1837 22.0591 16.1766 22.0432 16.1704L22.0954 16.2078C22.0352 16.2571 21.9719 16.3022 21.9058 16.3429C21.9127 16.3768 21.9242 16.4095 21.94 16.4401L21.9105 16.4202C21.8811 16.5027 21.8184 16.4973 21.7879 16.5317C21.79 16.5253 21.7908 16.5185 21.7901 16.5118C21.7894 16.5052 21.7872 16.4987 21.7838 16.493C21.7804 16.4873 21.7757 16.4824 21.7702 16.4787C21.7647 16.475 21.7585 16.4727 21.7519 16.4718L21.7593 16.5008C21.6798 16.4961 21.6001 16.498 21.5209 16.5064C21.5112 16.5062 21.5043 16.4897 21.5003 16.4745L21.4326 16.5064C21.4393 16.4481 21.3786 16.4535 21.4114 16.4178C21.3596 16.4855 21.31 16.4418 21.2605 16.5121C21.0755 16.5161 20.8938 16.5628 20.7288 16.6486L20.7326 16.6704C20.6699 16.7075 20.6126 16.8211 20.5386 16.7809C20.4831 16.8574 20.406 16.8964 20.3815 17.0175C20.3193 17.0325 20.2931 17.0931 20.2317 17.123C20.2458 17.1837 20.171 17.1943 20.1996 17.2418C20.2377 17.3272 20.2417 17.2555 20.2741 17.3245L20.2736 17.3042C20.4205 17.3929 20.5814 17.4549 20.7489 17.4875C20.8579 17.4394 20.9735 17.4843 21.0859 17.4719C21.2086 17.4537 21.3286 17.4195 21.4429 17.3703C21.468 17.3537 21.4845 17.4046 21.5048 17.4333C21.6005 17.4088 21.7209 17.4326 21.829 17.4024L21.8238 17.4003C21.881 17.3917 21.9221 17.4548 21.978 17.446C21.9781 17.4288 21.9868 17.428 21.9912 17.4191C21.9988 17.4993 22.3229 17.2615 22.3413 17.3079C22.347 17.3043 22.3531 17.3013 22.3595 17.2991C22.4759 17.3381 22.5934 17.4972 22.6945 17.4859C22.7194 17.4503 22.742 17.4131 22.7623 17.3745C22.7793 17.4093 22.7844 17.3429 22.8057 17.3527C22.856 17.5146 22.8897 17.4483 22.863 17.3908C22.9055 17.3799 22.9495 17.3767 22.9931 17.3813C23.0118 17.3701 23.0305 17.3583 23.0495 17.345C23.0657 17.332 23.0739 17.356 23.0809 17.3942C23.122 17.3726 23.1091 17.4119 23.1511 17.4292C23.1599 17.4856 23.26 17.3429 23.2715 17.3603L23.2644 17.3684C23.3132 17.3795 23.3431 17.4889 23.391 17.495C23.5241 17.5156 23.6585 17.5255 23.7931 17.5247C23.7959 17.466 23.7656 17.537 23.7661 17.4592C23.8388 17.4713 23.9104 17.5463 23.9837 17.5581C23.9983 17.5777 24.0097 17.5997 24.0176 17.6231C24.0405 17.6456 24.0322 17.5954 24.0492 17.6034L24.0501 17.6565C24.0764 17.6138 24.0854 17.7163 24.1096 17.695C24.1114 17.6737 24.1202 17.6711 24.1285 17.673C24.1275 17.7292 24.1545 17.6698 24.152 17.7211L24.1523 17.7169C24.1574 17.718 24.1611 17.7144 24.167 17.7243C24.1772 17.7047 24.2715 17.553 24.2818 17.5294L24.2862 17.5388C24.2997 17.5375 24.3065 17.4958 24.2989 17.4855L24.3155 17.4891L24.3135 17.4929L24.33 17.4965C24.3346 17.5149 24.3347 17.5341 24.3303 17.5525C24.3402 17.5331 24.351 17.5227 24.3602 17.533C24.3283 17.4882 24.3008 17.4403 24.278 17.3901C24.2897 17.371 24.3092 17.4015 24.3215 17.3957C24.3374 17.4315 24.3595 17.4641 24.3867 17.4919C24.3918 17.4888 24.397 17.4262 24.4078 17.4542C24.4124 17.4977 24.421 17.4529 24.4298 17.4846C24.4181 17.5073 24.4076 17.4966 24.3964 17.4941C24.397 17.5452 24.4228 17.5295 24.4313 17.5442C24.4359 17.5282 24.4571 17.5455 24.4711 17.5317C24.4639 17.5806 24.4812 17.5633 24.4886 17.5899C24.4976 17.5961 24.504 17.5765 24.5007 17.5591C24.5051 17.5056 24.465 17.5261 24.4793 17.4704C24.482 17.4963 24.5002 17.4879 24.5099 17.4858C24.5107 17.4566 24.5038 17.4635 24.5108 17.4358C24.5214 17.4425 24.5337 17.4077 24.5391 17.4381C24.5369 17.446 24.5326 17.4409 24.5294 17.4401C24.5434 17.4434 24.4487 17.6283 24.4672 17.6118C24.4632 17.5858 24.5514 17.441 24.5421 17.439C24.534 17.4243 24.5496 17.3865 24.541 17.3761L24.5303 17.4111C24.5181 17.3856 24.5144 17.3567 24.5196 17.3288C24.5398 17.334 24.4571 17.5263 24.4751 17.4973L24.4685 17.4832C24.4763 17.4645 24.4963 17.4485 24.5031 17.4794C24.5028 17.4703 24.5044 17.4613 24.5077 17.4529C24.5111 17.4445 24.5161 17.4369 24.5224 17.4305L24.5252 17.4355C24.5341 17.4211 24.5457 17.4283 24.5412 17.39C24.4915 17.3933 24.5814 17.098 24.5337 17.08C24.5522 17.1442 24.5253 17.1451 24.5039 17.1519C24.5024 17.1264 24.4938 17.1019 24.4791 17.0813C24.4658 17.0859 24.4707 17.1044 24.4678 17.1204C24.4548 17.1032 24.4484 17.0817 24.4499 17.06C24.4386 17.0997 24.4341 17.0341 24.4215 17.0476C24.4101 17.0657 24.4217 17.0649 24.4135 17.0839C24.3957 17.0797 24.3784 17.0733 24.3619 17.0649C24.3514 17.0204 24.3494 16.9742 24.3563 16.929C24.3808 16.9363 24.3448 17.008 24.3708 16.9982C24.3616 16.9261 24.394 16.9792 24.4001 16.925C24.3927 16.8924 24.3761 16.8916 24.362 16.9002L24.3646 16.9098C24.3521 16.9189 24.3273 16.9332 24.315 16.8945C24.3188 16.8693 24.3135 16.8502 24.3227 16.8443L24.3059 16.8391C24.3036 16.847 24.3012 16.8551 24.3059 16.861C24.2975 16.8803 24.2898 16.8692 24.2841 16.8541C24.2829 16.8275 24.1916 16.9638 24.1948 16.9472C24.1826 16.9477 24.1807 16.9075 24.1682 16.9343C24.1664 16.9559 24.2865 16.8462 24.2702 16.8544C24.2606 16.8248 24.1293 16.984 24.1231 16.9332C24.114 16.935 24.103 16.9403 24.1044 16.9674C24.0896 16.9539 24.1103 16.9159 24.1002 16.8903C24.0998 16.8946 24.1007 16.9038 24.0973 16.9028L24.0878 16.8684C24.0631 16.9097 24.0299 16.8542 24.0038 16.909C24.0107 16.8722 24.0221 16.8365 24.0377 16.8026L24.0401 16.8169C24.0496 16.8041 24.0553 16.7887 24.0563 16.7726C24.0416 16.7542 24.0286 16.7588 24.012 16.785C24.0093 16.7776 24.006 16.7702 24.0039 16.7627C24.0039 16.7662 24.0041 16.7692 24.0039 16.7733C24 16.7637 23.9993 16.7531 24.0019 16.7431L24.0032 16.737C23.9958 16.6576 23.9426 16.7855 23.9161 16.7438C23.9077 16.7548 23.915 16.7572 23.9045 16.7721C23.8832 16.7432 23.8578 16.7176 23.8293 16.6961C23.8186 16.7228 23.8183 16.7526 23.8284 16.7795L23.8064 16.7678C23.829 16.6775 23.7671 16.68 23.7917 16.5899C23.7858 16.569 23.7725 16.5644 23.7597 16.5787C23.7579 16.6015 23.755 16.6382 23.7393 16.6377C23.7272 16.6219 23.716 16.6054 23.7059 16.5883C23.7051 16.5665 23.7062 16.5447 23.7092 16.5231C23.6803 16.5605 23.6865 16.4578 23.6601 16.4628C23.6434 16.4711 23.6108 16.4738 23.6086 16.5258C23.5864 16.5229 23.5874 16.4848 23.5907 16.4425Z" fill="currentColor"/>
<path d="M20.3099 16.8033L17.413 7.62183L14.5161 16.2932L16.0962 25.9848L20.3099 16.8033Z" fill="currentColor" stroke="currentColor"/>
</g>
<defs>
<filter id="filter0_d_577_37925" x="-0.433289" y="0.5" width="35.7128" height="40" filterUnits="userSpaceOnUse" color-interpolation-filters="sRGB">
<feFlood flood-opacity="0" result="BackgroundImageFix"/>
<feColorMatrix in="SourceAlpha" type="matrix" values="0 0 0 0 0 0 0 0 0 0 0 0 0 0 0 0 0 0 127 0" result="hardAlpha"/>
<feOffset dy="4"/>
<feGaussianBlur stdDeviation="2"/>
<feComposite in2="hardAlpha" operator="out"/>
<feColorMatrix type="matrix" values="0 0 0 0 0 0 0 0 0 0 0 0 0 0 0 0 0 0 0.12 0"/>
<feBlend mode="normal" in2="BackgroundImageFix" result="effect1_dropShadow_577_37925"/>
<feBlend mode="normal" in="SourceGraphic" in2="effect1_dropShadow_577_37925" result="shape"/>
</filter>
</defs>
</svg>
