<?xml version="1.0" encoding="UTF-8"?>
<svg id="Livello_1" xmlns="http://www.w3.org/2000/svg" xmlns:xlink="http://www.w3.org/1999/xlink" width="24.25" height="27.07" viewBox="0 0 24.25 27.07">
    <defs>
        <style>.cls-111{fill:currentColor;}.cls-222{fill:currentColor;}.cls-222,.cls-333{stroke:currentColor;}.cls-333{fill:#fff;}</style>
    </defs>
    <path class="cls-333" d="M13.37,.83l9.12,5.27c.77,.45,1.25,1.27,1.25,2.17v10.54c0,.89-.48,1.72-1.25,2.17l-9.12,5.27c-.77,.45-1.73,.45-2.5,0L1.75,20.97c-.77-.45-1.25-1.27-1.25-2.17V8.27c0-.89,.48-1.72,1.25-2.17L10.87,.83c.77-.45,1.73-.45,2.5,0Z" />
    <path class="cls-111" d="M16.84,20c.09,0,.29,.07,.38,.08h0c-.71,0-1.45-.01-2.18-.03,.48,.05,.98,.09,1.48,.12l.75,.03h0c.75,0,1.39-.57,1.34-1.31,0-.13-.02-.26-.04-.39-.04-.36,0-.72,.08-1.07,.09-.37,.14-.74,.13-1.12l-.04-.95v0c-.05-2.01,.11-4.19,.29-6.45h0c.09-1.45-1.06-2.68-2.52-2.69h-.14l-1.76-.02h.07l-1.8,.13c-.08,0-.09,.1,0,.11h-.33s-.05,0-.07,0c-.29,.06-.85,.07-1.23,.1-.04,0-.29-.02-.33-.03-.07,0-.16,0-.25,0,0,0,0,0,0,.01h0s0,.01,0,.01c-.93,0-2,.04-2.83,.05-.08,0-.15,0-.23-.02-.02,0-.05,0-.07,0h-.24c-.17,.02-.99-.02-.82-.04h0c-.22,.02-.43,.04-.67,.05h-.3c-.4,.02-.72,.36-.69,.76h0l.04,3.17c.02,1.03,.06,2.07,.1,3.09,0,0,0,0,.01,0h0s.01,0,.01,0c.07,.74,.11,1.47,.11,2.21,.03,.59,.1,1.17,.22,1.74,0,.02,0,.03,0,.05,.01,.48,.04,.77,.07,1.12,0,.11,.13,1.02,.14,.92h0c.08-.47,.01-.5,.07-.88,0,0,0,0,0,0h0s0,0,0,0c.08-1.86,.12-3.72,.15-5.61-.05-1.26-.01-2.63-.03-3.94l-.02-1.11v-.48h-.01c0-.09,.05-.17,.14-.18h.16l.25-.02,.96-.04c.18,0,.35,0,.52,.02,.16,.01,.33,.03,.49,.02l3.66-.08h-.06c.65-.02,1.14,.02,1.76,.01,.06,0,.17-.02,.23-.02h0s.05,0,.08,0c.19,.02,1.1-.03,2.02-.07l1.4-.07c.22-.02,.45-.02,.67-.02h.11c.09,0,.17,.08,.15,.17v.06l-.03,.11-.02,.24-.1,.93c-.06,.61-.12,1.2-.13,1.74,.02,.19,.03,.4,.05,.58,.01,.12,.01,.25,.01,.37,0,.1,0,.2,0,.3,0,0,0,.04,0,.04h0c-.03,.11-.08,1.48-.09,1.58,0,.2-.02,.4-.03,.59v.65h0c.02,.26-.06,.51-.08,.77-.01,.14-.03,.28-.05,.42,0,.01,0,.03,0,.04-.04,.17,.01,1,.01,1.29,0,.01,0,0,0,0h0c-.04,.57-.15,.95-.18,1.51h0c-.02,.32-.29,.58-.62,.58h-2.6c-.08,0-.12,.02-.04,.02h0c.12,0,.14,.03,.02,.03l-2.43-.07c-.14-.01-.29-.03-.43-.06-.27-.02-.18,.02-.35,.02-.02,0-.03,0-.04-.02h0s-.03-.02-.04-.02c-.27,.03-.41-.05-.67-.04-.02,0-.04,0-.05,0-.05,.01-.1,.02-.15,.02-.02,0-.05-.02-.07-.02-.08-.01-.26,.01-.27-.02h0s-.1,0-.14,0c-.02,0-.05,0-.07,0l-1.26,.17s-.05,0-.07,0h0s-.03,0-.04,0c-.15,0-.21,.04-.12,.05h-.38s-.11-.05-.12-.05c-.09,0-.17,.01-.26,0,.16,.02,.34,.03,.52,.06,.08,0,.08,.06,0,.06h0s0,0-.01,0c-.18-.03-.53-.06-.81-.08-.06,0-.1,.06-.24,.04h-.01s-.05-.04,0-.04h.04s.05-.02,0-.02c-.1-.01-.25,0-.33-.01-.01,0-.03,0-.04,0-.04,0-.11,0-.19,0-.07,0-.43-.03-.49-.04h-.02c-.08,0-.06,.05,.02,.06,.06,0,.13,0,.16,.02,.03,0-.04,.02-.07,.02-.08,0-.16-.01-.25,0-.04,0-.02,.03-.06,.05h-.01c-.07,.01-.15,.01-.22,0-.02,0-.02-.01,0,0h0c-.2,0,.1-.05-.09-.01-.06,0-.08,.02-.06,.02,.05,0,.03,.02,.02,.03-.04,.02,.04,.02,.08,.01h0s.08-.01,.12,0c.09,.01,.13,.04,.11,.06,0,0-.02,0-.03,0-.15,0,.42-.12,.52-.15,0,0,.02,0,.03,0h0s0,.01,0,.01c-.1,.01-.21,.02-.32,0-.03,0-.08,.01-.12,.02-.04,0-.1,.01-.15,.02-.01,0-.02,0-.03,0h0s-.03,0-.04,0c-.09,0-.2,0-.17,.03,0,0,.02,0,.03,0,.1,0,.15,0,.17,.02,.05,.03,.26,.19,.32,.19h0s.02,0,.02,0c.1,.04,.21,.06,.31,.06,.09,0,.11,0,.11-.02,0-.01,.02-.02,.04-.01h0c.07,0,.36,.05,.44,.06,.04,0,.07,0,.12,0h0c.07,0,.12-.03,.2-.03h.38c.09,.01,.18,.02,.26,.06,.04,.02,.05,.04,0,.06,0,0-.02,0-.02,0h-.02c-.07,0-.29-.02-.36-.02h-.01s-.05,.04,0,.04c.11,.01,.22,.01,.33,0h0c.16-.02,.32-.02,.48,0,.03,0,.06,.05,.03,.06h.21s.05-.02,.06-.02c.06,0,.13,0,.19,.01h.02c.07,.01,.47-.03,.75-.06,.08,0,.49,0,.58-.01h0s.02,0,0,0c-.14,0-.63,.03-.94,.06-.18,.01-.14,.03,.04,.02,.45-.02,1.32-.1,1.47-.07,.01,0,.02,0,.03,0h.07s.13,0,.17,.02h0s.04,0,.06,0h.01l.1,.03s.02,0,.03,0c.17-.02,.39-.01,.61-.01,.05,0,.06,.06,.01,.07h0s-.01,0-.02,0h0s-.03,0-.04,0h-.04c-.08,.01-.07,.04,0,.04,.13,0,.26,0,.39-.02,0,0,.01,0,.02,0l.09,.02h0c.06,0,.05,0,.03,.02h0s0,0,0,.01c.13,.05,.66-.04,.99-.02,.03,0,.07,.01,.1,0,0,0,0,0,.02,0,.04-.01,.08,0,.13,0,.31,.02,.53,.04,.87,.06h.03s.11-.07,.13-.07h0s.05,.05,.07,.05c.04,.01,.11,.02,.18,.03,.05,0,.25,.09,.3,.09,.05,0,.09,0,.14,0,.02,0,.04-.02,.06-.03,.03-.02,.08-.03,.2-.03l.4,.04s.03,0,.03,.02h0s0,.04,.03,.04c.27-.02,.25,.06,.55,.06,.2,0,.39,0,.58-.05,.01,0,.02,0,.04,0h.06Z" />
    <path class="cls-111" d="M7.29,16.54c-.02,.06-.06,.09-.07,.16h0c0-.45,.01-.93,.03-1.4-.06,.36-.11,.75-.14,1.13l-.02,.28v.39c0,.05,0,.11,0,.16,0,.47,.4,.84,.87,.78h0l.36-.05h0c.12-.02,.29,0,.41,.04,.15,.04,.35,.08,.53,.1,.26,.03,.58-.02,.84-.05,.08,0,.15-.02,.23-.02,1.48-.11,2.97-.11,4.45-.01l.52,.02h0c.7,0,1.27-.55,1.29-1.25l.02-.84,.05-1.25,.02-.37h0s-.07,.04-.07,0l-.07-.74c0-.08-.1-.09-.11-.01h0v-.2s.01-.05,.01-.08c-.05-.26-.08-.52-.09-.78,0-.04,.03-.16,.04-.2,0-.05,0-.11,.01-.18,0,0,0,0-.01,0h0s-.01,0-.01,0c.01-.6-.02-1.3-.01-1.83,0-.04,0-.08,.01-.12,0-.03,.01-.06,.01-.09v-.12c-.02-.14,.03-.68,.05-.54h0c-.03-.2-.04-.41-.04-.62,0-.31-.01-.61-.05-.87h0c0-.08-.07-.13-.14-.13l-1.26,.12-1.04,.12c-.69,.08-1.38,.17-2.06,.27,0,0,0,0,0,.01h0s0,.01,0,.01c-.5,.11-1,.19-1.51,.23-.4,.06-.79,.16-1.17,.3-.02,0-.04,.01-.06,.02-.31,.04-.51,.08-.74,.13-.1,.02-.73,.19-.63,.19h0c.33,.05,.34-.02,.61,.02,0,0,0,0,0,0h0s0,0,0,0c1.29-.03,2.57-.1,3.87-.18,.86-.12,1.81-.16,2.71-.26,.15-.01,.3-.03,.45-.06,.06-.01,.12,.03,.13,.09h0c.01,.08,.02,.16,.02,.24l.04,.81s0,.07,0,.11c0,.26-.05,.52-.05,.78,.01,.67,.02,1.41,.03,2.14v-.04c.01,.42-.04,.75-.04,1.15,0,.04,.01,.09,.02,.12h0s0,.05,0,.08c-.04,.29,.14,2.25,.13,2.61,0,.03,0,.07,0,.1h0s0,.03,0,.04h0c0,.11-.11,.18-.21,.16-.03,0-.06-.01-.09-.02-.09-.02-.36-.03-.53-.05-.33-.02-.65-.04-.94-.04-.1,0-.19,0-.29,.03-.06,0-.11,.02-.17,.03-.14,.03-.29,.03-.44,.06-.03,0-.07,0-.12,0,0,0-.03,0-.03,0h0c-.1-.03-1-.01-1.1-.01-.14,0-.27,0-.39,0l-.45,.03h0c-.18,.03-.36-.04-.54-.04-.06,0-.12,0-.17-.01-.09,0-.17-.01-.26-.01-.28,0-.55,.03-.83,.06h0s0,0,0,0c-.16,0-.32-.03-.47-.05l-.17-.02c-.05,0-.1-.03-.15-.03h0c-.06,0-.1-.05-.1-.11v-2.08c0-.06-.02-.09-.02-.03h0c0,.08-.03,.08-.03,0,.02-.52,.07-1.05,.08-1.58,.01-.08,.03-.17,.05-.25,0-.02,0-.04,.01-.06,.01-.14-.02-.09-.02-.19,0-.01,0-.03,.02-.03h0s.02-.02,.02-.04c-.02-.16,.04-.25,.04-.39,0-.03-.02-.07-.02-.11,0-.02,0-.04,0-.07,0-.01,.01-.02,.02-.04,.02-.04-.01-.18,.02-.18h0s0-.06,0-.09c0-.02,0-.04,0-.05l-.17-.81s0-.03,0-.05h0s0-.02,0-.03c0-.1-.04-.14-.05-.08v-.12h0v-.12h0s.04-.08,.04-.09c0-.05,0-.1,0-.16-.02,.1-.04,.22-.06,.34-.01,.05-.07,.05-.07,0h0c.04-.17,.06-.33,.08-.49,0-.03,0-.06-.01-.09-.01-.02-.03-.05-.02-.11,0,0,0-.01,0-.02h0s.04-.05,.03,0h0s.02,.06,.03,.02c0-.06,0-.14,.01-.19,0-.02,0-.04,0-.06,0-.03,0-.06,0-.1,0-.06,.03-.26,.04-.32h0v-.02h0c0-.06-.06-.05-.06,0,0,.03,0,.06-.01,.08,0,.05-.03,0-.02-.05,0-.04,0-.08,0-.12,0-.03-.01-.01-.04-.03h0s-.01-.03-.01-.04c0-.05,0-.09-.01-.13,0-.03,.02-.02,.01,0h0c0-.18,.06,.11,.01-.06v-.03s-.02,0-.02,.01c0,.01-.02,0-.03,0-.02-.02-.02,.03,0,.05h0s.02,.05,0,.08c-.01,.04-.03,.07-.05,.07-.02,0-.02-.02-.02-.04,.02-.04,.12,.29,.15,.35,0,0,0,.01,0,.02h0s-.01,0-.01,0c-.01-.06-.02-.12,0-.18,0-.03-.01-.08-.02-.12,0-.02,0-.05-.01-.08,0,0,0-.01,0-.02h0s0-.02,0-.02c0-.04,0-.09-.02-.11,0-.02-.02,.02-.02,.03,0,.12-.04,.12-.08,.08-.05-.04-.14,.15-.13,.21h0s0,.03,0,.04c-.03,.06-.05,.13-.06,.2,0,.05,0,.07,.01,.07,.01,.01,.02,.02,.02,.04h0s-.04,.22-.05,.27c0,.02,0,.05,0,.08h0c.01,.05,.03,.08,.03,.13v.23c-.01,.07-.02,.14-.07,.19-.02,.02-.04,.03-.06,0,0,0,0-.02,0-.03h0c0-.07,.02-.18,.02-.24h0s-.04-.05-.04,0c-.01,.07-.01,.14,0,.21h.01c.01,.1,.01,.2,0,.3,0,.03-.06,.06-.06,.03h0v.13h0s.03,.03,.03,.04c0,.04,0,.08-.01,.12,0,0,0,.01,0,.02,0,.06,.04,.31,.07,.49,0,.06,0,.31,0,.36h0s0,.02,0,0c0-.08-.03-.35-.05-.54-.02-.16-.03-.13-.02,.02,.03,.3,.09,.76,.07,.87,0,.01,0,.03,0,.04v.04s.02,.11-.02,.1c0,0,0,0-.01,0,0,.01,0,.02,0,.03h0v.02l-.02,.05s0,.03,0,.05c.02,.11,0,.24,.01,.38,0,.04-.06,.06-.07,.02h0s0-.02,0-.02h0s0-.02,0-.03v-.04s-.04-.04-.04,0c0,.09,0,.17,.02,.26,0,0,0,.01,0,.02l-.02,.05h0s-.02,.04-.03,.02h0s0,0-.01,0c-.05,.08,.04,.41,.02,.63,0,.03-.01,.06,0,.08h0s.01,.06,0,.09c-.03,.2-.05,.34-.06,.56h0v.04s.07,.05,.07,.07h0s-.03,.02-.05,.03c-.02,.02-.03,.08-.04,.13-.01,.05-.09,.15-.09,.2,0,.02,0,.04,0,.06,0,.02,.02,.04,.04,.06,.01,.02,.02,.05,.02,.1,0,.01,0,.03,0,.04l-.04,.23s0,.03-.02,.03h0s-.04,0-.04,.03c.01,.16-.06,.15-.06,.34,0,.09,0,.24,.03,.32,0,.04,.03,.16,.02,.2h0Z" />
    <path class="cls-222" d="M15.12,17.54h-7l.33-8.23,6.67-.77v9Z" />
    <path class="cls-111" d="M7.42,8.12h0s.03,.03,.05,.05c0,.01,.03,0,.03,0,0-.07,0-.14-.02-.17-.03-.03-.14-.18-.17-.15h-.01s-.06,.02-.09,.03c.02,0,.04,0,.06,0-.02,0-.04,0-.06,0-.06,0-.11,0-.15-.01-.18-.08-.24-.3-.34-.47-.02-.03-.03-.05-.05-.08h0s0,0,0,0h0c-.06,.02-.11,.02-.17,.02,0,0-.01,0-.02,.01,0,.02-.02,.04-.02,.05,0,0,0,0-.01,0h0s-.06,.02-.08,.02c-.01,0-.02-.03-.03-.04h0s0-.01-.01,0h0s0,0-.01,0c-.04-.04-.1-.06-.14-.09h0s0-.03-.02-.03h0s-.02-.02-.02-.03c0-.02,0-.03,.02-.04h0c-.09,.03-.19-.03-.27-.07-.08-.03-.17-.06-.25-.06,0,0-.01,0-.02,0h0s0,0-.01,0c-.02,0-.04,0-.07,.01-.06,.02-.15-.01-.21,.01-.02,0-.04,.02-.06,.03-.04,.02-.08,.03-.12,.04h0s-.11,.03-.15,.05c0,0-.01,.01-.02,.03-.02,.07,.01,.03,0,.08h0c.03,.1,.08,.2,.14,.28,.02,.03,.06,.05,.1,.07,.06,.03,.09,.08,.15,.11,.08,.04,.17,.07,.26,.08,0,0,.01,0,.02,0h0s.02,.08,.05,.1c.05,.03,.09,.07,.15,.09h0s.03,.07,.06,.09h0s.02,0,.02,0c.04,.03,.23,.02,.26,.04,0,0,.01,.01,.02,.01h0c.04,.08,.03,.21,.08,.26,0,0,.02,0,.03,0l.04-.02s.06-.02,.07-.02h0s0,0,0,.01c-.02,.04-.02,.06-.02,.07,0,.04,.07-.02,.11,0h0s.02,.01,.04,.01h.04s0,.06,0,.08h0s0,.03,0,.04c.02,0,.1-.02,.11-.01h0s-.01,.11,0,.14c0,0,0,.01,.01,.02,.05,.07,.13,.11,.19,.16,.01,.01,.05,0,.03,0h0s.02-.02,.03,0c.01,.03,.02,.07,.03,.1,.01,.02,.02,.05,.01,.08h0s0,.03,0,.03c0,0,.01-.01,.02-.01h0s-.01,.05-.01,.06c0,.01,0,.02,0,.03h.01s.01,0,0,.01c0,.01,.02,0,0,.03h.02s.13-.06,.16-.08h0s.02,0,.03-.02h.01v.02h0s0,.03,0,.04h0s.01-.08,.03-.13c0,0,0-.01,.01,0h0s0,.04,0,.05v.03s0,0,.03,.02h0s0,.02,0,.03c0,0,0,0,0,0h0s-.02,0-.02,0c0,.01,0,.02,0,.02,0,0,.01,.01,.02,.02h0s0,.02,0,.02c-.01,.01,0,.02,0,.03h0s.01,0,.02-.01h0s.01-.04,.02-.05c0,0,.02,0,.03,0h.01s.04-.04,.04-.03h0s-.03,.03-.07,.05c-.04,.03-.04,.02,0,0,.03-.01,.05-.03,.07-.04,0,0,0-.01,.01-.02,0,0,.02-.02,.02-.02,0,0,0,0,0,0h0s-.01,0,0,0c0-.01,.01-.02,.02-.03,0,0,.01,0,0,0-.03,.02-.09,.07-.11,.08h0s.03-.02,.02,0c0-.01,.02-.02,.04-.03h0s.01,0,.02,0c0,0,0-.02,0-.03,.01-.03,.11-.12,.15-.17,.01-.01,0,0-.02,0h0s-.01-.02,0-.03v-.02s0-.01,0,0h-.02s.02-.05,.01-.05h0s-.03,.01-.03,0h0s0-.02,0-.02c.01-.02,.02-.04,.04-.05,.01-.02,.02,0,0,0h0s0,0,.01,0c.02-.02,.02,0,.04-.01,0,0,0,0,0-.01,0-.02,0-.02,0-.03h-.01s-.03,0-.02-.02h0s.02-.03,.02-.03h-.02s0,0,0,0c0,0,0-.01,0-.01-.01,0-.05,.01-.07,.02-.02,0-.02-.02-.03-.02h0s.01,0,.03,0c.04,0,.04-.02,0-.01-.03,0-.05,0-.06,0,0,0,0-.01,0-.01h0s-.02,0-.01,0c0,0,.02-.02,.03-.03h0v-.02h-.01s-.01-.05,0-.05l.03-.02h0s.02,0,.03-.01h0s0-.02-.03-.02h0s0-.03,.01-.03h0c.03-.05-.04-.01-.05-.02,0,0,0,0-.01,0h0s-.01,0-.01,0c0-.01,0-.03,0-.04,0-.01-.02-.02-.02,0,0,0-.01,.02-.02,.03,0,0,0,0-.01,0h0c.05-.05,.03-.08,.07-.12,0,0,.02-.02,.02-.03h0s-.02,0-.03,.01h0s-.03,0-.02-.02h0v-.02h0s.03-.07,.04-.08c0-.01,0-.02,0-.02-.01,0-.02,0-.04,0h0s-.03,0-.02-.01c0,0,.02-.02,.03-.03Z" />
    <path class="cls-111" d="M16.8,8.28h0s-.04,.02-.06,.03c-.01,0-.02,.03,0,.03,.06,.03,.12,.06,.15,.05,.04,0,.22-.05,.21-.09h0s0,0,0-.01c0-.03,0-.06,0-.09,0,.02,0,.04-.01,.06,0-.02,0-.04,.01-.06,0-.05,.03-.08,.05-.11,.13-.15,.37-.1,.57-.12,.02,0,.05,0,.08,0h0s0,0,0,0h0c.01-.06,.03-.11,.05-.16,0,0,0-.01,0-.02-.01-.01-.03-.03-.04-.04,0,0,0,0,0,0h0s0-.07,0-.08c0,0,.03-.01,.04,0h0s0,0,0,0h0s0-.01,0-.01c.05-.02,.09-.07,.13-.08h0s.02,0,.03,0h0s.02-.01,.03,0c.02,.01,.04,0,.03,.04h0c0-.08,.09-.15,.15-.21,.06-.06,.11-.12,.14-.19,0,0,0-.01,0-.02h0s0-.01,0-.02c0-.02,0-.04,0-.06,0-.06,.06-.13,.06-.19,0-.02,0-.04,0-.06,0-.04,0-.08,0-.12h0s0-.1,0-.15c0-.01,0-.02-.02-.03-.06-.05-.04,0-.07-.03h0c-.1,0-.2,0-.3,.02-.04,0-.07,.03-.1,.06-.05,.04-.11,.05-.15,.08-.06,.06-.12,.12-.16,.19,0,0,0,.01,0,.01h0s-.07-.01-.1,0c-.04,.03-.09,.05-.13,.09h0s-.08,0-.11,.02h0s-.01,.02-.02,.02c-.04,.02-.1,.19-.13,.21,0,0-.01,0-.01,0h0c-.08,.01-.2-.05-.26-.03-.01,0-.02,.02-.01,.03v.05s0,.06,0,.07h0s0,0,0,0c-.03-.03-.05-.05-.07-.05-.04-.01,0,.07-.04,.09h0s-.02,.02-.03,.03v.03h-.01s-.05-.02-.07-.03h0s-.03-.02-.03,0c-.01,.01-.01,.09-.02,.1h0s-.08-.06-.11-.06c0,0-.02,0-.02,0-.08,.01-.14,.07-.21,.1-.02,0-.03,.04-.01,.03h0s.01,.03,0,.03c-.03,0-.07,0-.1,0-.03,0-.06,0-.08-.02h0s-.02-.02-.02-.01c0,0,0,.02,0,.02h0s-.04-.03-.05-.04c0,0-.02-.01-.02-.01h0s0,.02-.02,.01c-.01-.01,0,.02-.03-.01h0s.01,.15,.02,.18h0s0,.03,.01,.04h-.05s.07,.04,.11,.07c0,0,0,.01,0,.01h0s-.04,0-.05-.01h-.02s0,.01-.03,0h0s0,0-.02-.02h0v-.02s.01-.01,0-.02c0,0-.01-.01-.02-.01,0,0-.02,0-.02,0h0s-.02,0-.02,0c-.01-.02-.01,0-.03-.02h0s0,.01,0,.02h0s.03,.02,.04,.04v.02h0v.02s.02,.05,0,.04h0s-.01-.05-.02-.09c-.01-.05,0-.05,0,0,0,.03,0,.06,.01,.07,0,0,0,.01,0,.02,0,0,.01,.02,.01,.03,0,0,0,0,0,0h0s0,0,0,0c0,0,.02,.02,.02,.03,0,0,0,.01,0,0-.01-.03-.03-.11-.04-.13,0,0,0,0,0,0h0s0,.04-.02,.02c0,.01,.01,.03,.01,.04h0s0,.01,0,.03c0,0,.01,0,.02,.01,.03,.02,.07,.14,.1,.2,0,.02,0,0,0-.02h0s.02,0,.03,0c0,0,.01,.01,.02,.02,0,0,0,0,0,0v-.02h0s.05,.03,.05,.03h0s0-.03,.02-.03h0s.01,0,.02,0c.01,.02,.03,.03,.04,.05,.01,.02,0,.02,0,0h0s0,0,0,.01c.01,.02-.01,.01,0,.04h0s.02,.02,.03,.02h0s.01-.04,.03-.02h0s.01,.03,.02,.04h0v-.02s0,0,0,0c0,0,0,0,.01,0,0-.01,0-.05,0-.07,0-.02,.02,0,.02-.02h0s0,0,0,.02c0,.04,0,.04,.01,0,0-.02,.01-.05,.02-.05,0,0,0,0,.01,0h0s0-.02,0,0c0,.01,.01,.02,.02,.03h.02s.05,0,.05,.01v.03h0s0,.02,0,.03h0s.02,0,.02-.02h.01s0,.02,.01,.02h0s.02-.02,.03-.03c0,0,.01,0,0,0h0s0-.01,0,0c.01,0,.03,.01,.04,.02,.01,0,.02,0,.02-.02,0,0-.01-.02-.02-.03,0,0,0-.01,0,0h0c.03,.07,.06,.06,.08,.12,0,0,.01,.02,.02,.02h0s0-.02,0-.03h0s0-.03,.03-.02h.02l.06,.08s.02,.02,.02,.01c0,0,.01-.02,.01-.03h0s0-.03,.02-.01c0,.01,.01,.02,.02,.04Z" />
    <path class="cls-111" d="M17.9,18.83h0s.02,.03,.03,.05c0,.01,.03,.01,.03,0,.02-.07,.03-.13,.01-.16-.02-.03-.11-.19-.14-.17h0s-.06,.02-.09,.02c.02,0,.04,0,.06,0-.02,0-.04,0-.06,0-.09,0-.14-.02-.18-.07-.09-.11-.12-.26-.17-.39-.02-.05-.04-.09-.05-.14h0s0,0,0,0h0c-.05,.01-.11,.01-.16,0,0,0-.01,0-.02,0-.01,.02-.02,.03-.03,.05,0,0,0,0,0,0h0s-.06,.01-.08,0c-.01,0-.02-.03-.02-.04h0s0-.01-.01,0h0s-.01,0-.01,0c-.03-.04-.09-.06-.11-.1,0,0,0,0,0,0,0-.01,0-.02-.01-.02h0s-.02-.02-.01-.03c0-.02,0-.03,.03-.04h0c-.08,.02-.17-.05-.25-.09-.07-.04-.14-.07-.22-.08,0,0-.01,0-.02,0h0s0,0-.02,0c-.02,0-.04,0-.06,0-.06,0-.15-.02-.21,0-.02,0-.04,.01-.06,.02-.04,.02-.08,.02-.12,.02h0s-.1,.02-.15,.03c-.01,0-.02,0-.03,.02-.03,.06,0,.03-.01,.07h0c0,.1,.04,.19,.08,.28,.02,.03,.05,.05,.08,.08,.05,.03,.07,.09,.12,.12,.07,.05,.15,.08,.23,.1h.02s0,.08,.03,.11c.04,.03,.07,.07,.12,.09h0s.01,.07,.04,.09h0s.01,0,.02,.01c.03,.03,.21,.04,.24,.07,0,0,0,.01,.01,.01h0c.03,.08-.01,.21,.03,.26,0,0,.02,.01,.03,0l.05-.02s.06-.02,.07-.01h0s0,0,0,.01c-.03,.04-.04,.06-.04,.08,0,.04,.07-.02,.1,0h0s.02,.01,.04,.02h.04s-.01,.06-.01,.08h0s0,.03,0,.03c.01,.01,.1,0,.11,0h0s-.03,.1-.03,.13c0,0,0,.02,0,.02,.03,.07,.1,.11,.15,.17,.01,.01,.05,.02,.03,0h0s.03-.02,.03,0c0,.03,0,.06,.01,.09,0,.03,.01,.06,0,.08h0s0,.03,0,.03c0,0,.02,0,.02,0h0s-.02,.05-.03,.06c0,.01-.01,.02,0,.02h.01s0,0,0,.01c0,.01,.02,0,0,.03h.01s.14-.04,.17-.05h0s.03,0,.04-.02h.01v.02h0v.03h0s.03-.08,.05-.12c0,0,0-.01,.01,0h0s0,.04,0,.05v.02s0,.01,.02,.02h0s0,.02,0,.03h-.02s-.01,0-.02,0c0,.01,0,.02,0,.02,0,0,.01,.01,.01,.02h0v.02s0,.02-.01,.03h0s.02,0,.02,0h0s.02-.03,.02-.05c0,0,.02,0,.02,0h.01s.04-.03,.04-.02h0s-.04,.03-.08,.04c-.04,.02-.04,.02,0,0,.03-.01,.06-.02,.07-.03,0,0,0,0,.01-.01,0,0,.02-.01,.03-.02,0,0,0,0,0,0h0s0,0,0,0c0-.01,.01-.02,.02-.03,0,0,.01,0,0,0-.03,.02-.1,.06-.12,.07,0,0,0,0,0,0h0s.03-.01,.01,0c.01-.01,.02-.02,.04-.02h0s.01,0,.03,0c0,0,0-.02,.01-.02,.02-.03,.13-.1,.17-.15,.01-.01,0,0-.02,0h0s0-.02,0-.03v-.02s0,0,0,0h-.02l.02-.05h0s-.03,0-.03,0h0s0-.02,0-.02c.01-.02,.03-.03,.04-.05,.02-.02,.02,0,0,0h0s0,0,.01,0c.02-.02,.01,0,.04,0h.01s0-.03,0-.04h-.01s-.03,0-.01-.02h0s.02-.02,.03-.03h-.02s0,0,0,0c0,0,0,0,0,0-.01,0-.05,0-.07,.01-.02,0-.01-.02-.03-.02h0s.01,0,.03,0c.04,0,.04-.01,0-.01-.03,0-.05,0-.05,0,0,0,0-.01,0-.01h0s-.02,0,0,0c0,0,.02-.02,.03-.03h0v-.02h-.01s0-.04,0-.05l.03-.02h0s.02,0,.03-.01h0s0-.02-.02-.02h0s0-.02,.02-.03h0s-.03-.02-.05-.03c0,0,0-.01-.01,0h0s-.01,0,0,0c0-.01,0-.03,0-.04,0-.01-.01-.02-.02-.01,0,0-.02,.01-.02,.02,0,0,0,0-.01,0h0c.06-.05,.04-.07,.09-.11,0,0,.02-.01,.02-.02h0s-.02,0-.03,0h0s-.03,0-.02-.02h0l.05-.09s.01-.02,0-.02c-.01,0-.02,0-.04,0h0s-.03,0-.02-.01c0,0,.02-.02,.03-.03Z" />
</svg>