<svg width="36" height="36" viewBox="0 0 36 36" xmlns="http://www.w3.org/2000/svg">
<g filter="url(#filter0_d_577_37864)">
<path d="M17.4231 0.5L31.2795 8.5V24.5L17.4231 32.5L3.56669 24.5V8.5L17.4231 0.5Z"/>
<path d="M4.06669 8.78868L17.4231 1.07735L30.7795 8.78868V24.2113L17.4231 31.9227L4.06669 24.2113V8.78868Z" fill="#F9F9F9" stroke="currentColor"/>
</g>
<g filter="url(#filter1_d_577_37864)">
<path d="M23.0024 23.9689L23.2518 23.9745C22.4452 23.9795 21.5971 23.962 20.7613 23.9417C21.3063 23.9945 21.8808 24.0454 22.456 24.0806L23.3155 24.1197L24.8234 24.124C24.9134 23.2657 24.873 22.3992 24.7036 21.5523C24.9361 20.9519 25.0518 20.315 25.0446 19.6739L24.9992 18.5934L25.0162 19.3405L24.9992 18.5934C24.9436 16.2919 25.1292 13.8026 25.3288 11.2275C25.3716 10.5341 25.44 9.42396 25.5178 8.16183L22.2919 8.15724L20.2836 8.13088L19.6234 8.11908L20.359 8.14625L17.7887 8.31894C17.955 8.36304 18.1249 8.39337 18.2965 8.40959L17.8827 8.39545C17.5069 8.48392 16.6377 8.49087 16.2297 8.53129C16.3169 8.48623 15.9949 8.4815 15.7109 8.47839L15.8237 8.50605C14.7456 8.50106 13.4951 8.5522 12.5317 8.55861C12.4322 8.56114 12.3327 8.55179 12.2355 8.53077L11.3124 8.57609C11.3827 8.51637 10.5458 8.53377 10.986 8.49152C10.7293 8.52005 10.4903 8.53345 10.2176 8.54334L9.04218 8.57669C9.04998 8.86101 9.06181 9.14189 9.0822 9.40853L9.13067 13.0261C9.15763 14.2128 9.19615 15.409 9.24848 16.5881L9.27097 16.5303C9.35632 17.3801 9.39757 18.2335 9.3946 19.0872C9.42881 19.7658 9.51334 20.4411 9.64752 21.1079C9.66599 21.9349 9.73005 22.2646 9.76393 23.0755C9.82628 22.8664 9.84076 23.8632 9.88876 23.4641C9.97568 22.9259 9.90105 22.8966 9.9712 22.4398L9.95015 22.4534C10.0415 20.3226 10.0925 18.189 10.1188 16.0292C10.0638 14.5881 10.1052 13.0249 10.0871 11.5265L10.0644 10.2605L10.0507 9.70926L10.0359 9.52566L10.2065 9.50904L10.252 9.50466L10.3865 9.49911L10.6763 9.48757L11.772 9.43948C12.0658 9.43182 12.3597 9.44886 12.6504 9.4904L17.1182 9.3955L17.0456 9.39433C17.8329 9.37453 18.4235 9.4296 19.1923 9.40976C19.1883 9.39254 19.3075 9.38995 19.3652 9.38027C19.4325 9.41966 20.5637 9.36383 21.7121 9.30349L23.3167 9.22098C23.5722 9.20121 23.8286 9.19446 24.0849 9.20076L24.211 9.18983L24.4119 9.19934L24.3766 9.46912L24.3571 9.59966L24.3303 9.86847L24.2212 10.9301C24.1507 11.6275 24.0895 12.2991 24.0678 12.9147C24.0933 13.209 24.1125 13.54 24.1453 13.7883C24.1324 13.979 24.1315 14.1702 24.1427 14.3609C23.9424 15.083 23.9925 15.5131 24.0688 15.1392C24.0636 15.7403 24.021 16.3418 24.0022 16.8751L24.0072 17.6192C24.0172 17.7672 23.9931 17.9156 23.9368 18.0536C23.9305 18.3711 23.9044 18.688 23.8586 19.0025C23.794 19.1373 23.8854 20.4316 23.8604 20.5915L23.856 20.4982C23.8155 21.1547 23.6827 21.5864 23.648 22.2284L23.6003 22.8871L19.8189 22.8896C19.802 22.9487 20.1957 22.876 20.2158 22.9543L17.1747 22.8645C17.0098 22.8513 16.8457 22.8299 16.6831 22.8006C16.3582 22.779 16.4913 22.8292 16.2534 22.8218L16.2213 22.7684C15.8736 22.8126 15.7129 22.7098 15.3855 22.7323C15.3037 22.7572 15.2175 22.765 15.1324 22.7553C15.1264 22.6987 14.7741 22.7597 14.7909 22.7079L14.7875 22.7122C14.7189 22.7141 14.6502 22.7119 14.5818 22.7055L13.0652 22.9066L13.0022 22.8973C12.8154 22.8992 12.7356 22.9414 12.8447 22.9515L12.6144 22.9485L12.6409 22.9446L12.412 22.9417C12.3697 22.9368 12.3219 22.9105 12.387 22.8855C12.2531 22.9073 12.1172 22.9143 11.9817 22.9064C12.3426 22.9409 12.791 22.9897 13.1684 23.0465C13.0133 23.0662 12.7332 23.0364 12.565 23.0427C12.3642 23.0056 11.9515 22.9742 11.6303 22.9489C11.5597 22.9522 11.5112 23.0155 11.351 22.9878C11.2728 22.9442 11.1701 22.9896 11.037 22.9582C11.1889 22.9418 11.342 22.9381 11.4946 22.9471C11.468 22.8957 11.1172 22.9127 10.9947 22.8983C10.9372 22.9146 10.6381 22.8981 10.4501 22.9127C10.532 22.8632 10.2983 22.8813 10.1867 22.8549C10.06 22.8491 9.97891 22.869 10.0304 22.8864C9.98957 22.9403 10.535 22.9179 10.3584 22.9747C10.2167 22.9539 10.0729 22.9492 9.92998 22.9605C9.92838 22.9899 10.0213 22.9827 9.93472 23.0109C9.80444 23.0228 9.67325 23.0224 9.54305 23.0098C9.58704 23.0044 9.63151 23.0036 9.67567 23.0074C9.48209 23.0047 10.7246 22.8145 10.474 22.8319C10.5391 22.8579 9.37179 23.0074 9.50069 23.009C9.61866 23.0234 9.4163 23.0621 9.5384 23.0723L9.67397 23.0366C9.8409 23.0473 9.90942 23.0986 9.85069 23.1188C9.57101 23.1145 10.6448 22.9174 10.4057 22.9474L10.5029 22.9612C10.3454 22.988 10.1844 22.9899 10.0263 22.9666C10.0255 22.9956 9.88907 23.006 9.77577 23.0166L9.73563 23.0118C9.61865 23.0266 9.45509 23.0199 9.53121 23.0582C10.2174 23.0527 9.08032 23.3537 9.74501 23.3697C9.46603 23.3059 9.83872 23.3039 10.1311 23.296C10.2486 23.3411 10.3737 23.3648 10.5 23.366C10.6822 23.3607 10.6073 23.3424 10.642 23.3261C10.743 23.3404 10.9361 23.3522 10.9107 23.386C11.0527 23.3457 11.1377 23.4114 11.308 23.3973C11.458 23.3786 11.2978 23.3799 11.4042 23.3604L12.1243 23.3772C12.1936 23.4087 12.4049 23.4645 12.2512 23.5137C11.9098 23.5075 12.3812 23.4337 12.0259 23.4447C12.179 23.5168 11.7115 23.4649 11.6469 23.5197C11.8233 23.5502 12.0031 23.558 12.1815 23.5429L12.1431 23.5334C12.373 23.5138 12.6045 23.5183 12.8335 23.5466C12.7904 23.572 12.8703 23.591 12.746 23.5974L12.9789 23.6019C13.0085 23.5938 13.0388 23.5855 12.9717 23.5798C13.0726 23.5641 13.1757 23.5661 13.2759 23.5858C13.3013 23.6125 14.5142 23.4713 14.4766 23.4882C14.5997 23.5053 14.7244 23.5092 14.8484 23.5C14.8657 23.4781 13.2451 23.5939 13.4669 23.5849C13.6102 23.6142 15.3676 23.4483 15.4721 23.4991C15.5963 23.4969 15.7463 23.4911 15.7171 23.4639C15.9271 23.4769 15.6542 23.5159 15.8038 23.5413C15.8072 23.537 15.7916 23.5277 15.8393 23.5286L15.9831 23.5628C16.3092 23.5202 16.7875 23.5745 17.1289 23.5183C16.9899 23.5704 16.8452 23.6068 16.6976 23.6267L16.6591 23.6125C16.6279 23.6209 16.4471 23.6305 16.4522 23.6577C16.6545 23.6752 16.8582 23.6704 17.0593 23.6433L17.1789 23.6654L17.1755 23.6548C17.2474 23.6716 17.2398 23.6743 17.2136 23.685L17.1984 23.6912C17.3295 23.7707 18.018 23.6397 18.3993 23.6804C18.5116 23.669 18.4098 23.6669 18.5496 23.6515C18.9392 23.6826 19.2079 23.7066 19.6153 23.7245C19.7454 23.69 19.7555 23.6763 19.5983 23.6407L19.9059 23.6515C19.6263 23.7433 20.4806 23.738 20.1723 23.8297C20.3201 23.8521 20.4703 23.8554 20.619 23.8396C20.6363 23.8165 20.6633 23.7795 20.8801 23.7794L21.3597 23.8275C21.4188 23.8574 21.3272 23.8693 21.3378 23.8932C21.7231 23.8544 21.6742 23.9579 22.0376 23.9517C22.2691 23.9634 22.5011 23.9413 22.7258 23.886C23.0328 23.8878 23.0328 23.9262 23.0024 23.9689Z" fill="currentColor"/>
<path d="M11.8313 19.9618L11.8254 20.1232C11.8206 19.601 11.839 19.0518 11.8603 18.5106C11.7962 18.924 11.7347 19.3637 11.6989 19.7996L11.6773 20.1253L11.6676 20.5679C11.6658 20.9723 11.6732 21.3687 11.6928 21.7232C12.0364 21.707 12.3659 21.6824 12.6617 21.6477L13.0779 21.5877C13.1631 21.5722 13.2461 21.5465 13.3248 21.5113C13.4271 21.7131 14.607 21.8055 14.631 21.7557C14.8759 21.7184 15.1239 21.6874 15.3748 21.6626L14.86 21.7131L15.3748 21.6626C17.0691 21.5396 18.7702 21.5341 20.4653 21.6462L21.0622 21.6647L22.504 21.6831L22.5494 19.284L22.6042 17.8561L22.6242 17.4287L22.5874 17.9048L22.4396 16.2393C22.3929 16.3444 22.3594 16.4546 22.34 16.5674L22.3595 16.2996C22.2935 15.9456 22.2532 15.5877 22.2388 15.2283C22.2843 15.2851 22.293 15.0766 22.2996 14.8927L22.2697 14.9655C22.2876 14.2675 22.2496 13.4574 22.2544 12.8336C22.2532 12.7684 22.2641 12.7035 22.2867 12.6421L22.2508 12.044C22.3117 12.0899 22.3036 11.5479 22.342 11.8332C22.3089 11.5991 22.2918 11.363 22.2909 11.1266C22.2832 10.7763 22.2751 10.4267 22.2376 10.1359L22.2367 9.97565L20.6358 10.1286L19.4489 10.2604C18.6536 10.3538 17.8533 10.4584 17.0654 10.5748L17.1071 10.5931C16.5322 10.7246 15.9479 10.8142 15.3592 10.8612C14.8915 10.9349 14.4331 11.0561 13.9917 11.2229C13.4245 11.2888 13.2033 11.3698 12.6485 11.4497C12.7978 11.4977 12.1135 11.5696 12.3922 11.5927C12.7701 11.6452 12.7837 11.5715 13.1041 11.6126L13.0929 11.5931C14.5665 11.5572 16.0386 11.4822 17.5265 11.3818C18.5128 11.2448 19.5916 11.1938 20.6207 11.0891C20.8389 11.0748 21.0557 11.0454 21.2695 11.0011L21.2873 11.1311C21.301 11.223 21.3077 11.3157 21.3074 11.4085L21.3539 12.3354C21.3582 12.5267 21.337 12.7177 21.2909 12.9038C21.3047 13.787 21.3204 14.7935 21.336 15.7974L21.338 15.7504C21.3491 16.2603 21.2853 16.6424 21.2967 17.1403C21.3145 17.1378 21.3157 17.215 21.3251 17.2525C21.2422 17.3256 21.5022 20.214 21.4546 20.3296L21.4644 20.4108C21.4582 20.4983 21.4485 20.5805 21.4367 20.6521C21.3159 20.638 21.2057 20.6208 21.1134 20.6031C21.0072 20.5854 20.6989 20.5676 20.5069 20.5517C20.07 20.5199 19.6498 20.4968 19.2625 20.5031C19.0603 20.5413 18.8327 20.5748 18.6623 20.6178C18.4976 20.5835 18.466 20.6505 18.2674 20.6415C17.7631 20.4805 17.468 20.5485 17.7283 20.6053C17.3135 20.6276 16.8974 20.6139 16.5289 20.6199L16.0159 20.6587C15.9126 20.6746 15.8067 20.6576 15.7141 20.6103C15.4946 20.6186 15.2747 20.6078 15.0572 20.5778C14.6908 20.5834 14.325 20.6081 13.9614 20.6518L14.0255 20.6434C13.823 20.6364 13.6212 20.6153 13.4218 20.5803L13.1443 20.5406C13.1169 20.5293 13.0877 20.5225 13.058 20.5206L12.9432 20.5092L12.9505 20.2568L12.9469 19.447L12.9473 17.9C12.8862 17.8891 12.9611 18.144 12.8803 18.157C12.89 17.5044 12.965 16.8463 12.9743 16.1877C12.9882 16.0801 13.0103 15.9737 13.0405 15.8694C13.063 15.6589 13.0111 15.7452 13.0188 15.5911L13.074 15.5703C13.0285 15.3452 13.1347 15.241 13.1116 15.029C13.0894 15.0178 13.0863 14.9404 13.088 14.8652C13.1465 14.8613 13.0836 14.6332 13.1371 14.644L13.1326 14.6419C13.1307 14.5973 13.1331 14.5527 13.1397 14.5086L12.9327 13.5266L12.9423 13.4858C12.9403 13.3649 12.8969 13.3132 12.8865 13.3838L12.8896 13.2347L12.8936 13.2519L12.8967 13.1036C12.9018 13.0763 12.929 13.0453 12.9548 13.0874C12.9323 13.0018 12.9251 12.9131 12.9334 12.8251C12.8976 13.0588 12.8469 13.3491 12.7882 13.5935C12.7827 13.4633 12.7841 13.3329 12.7923 13.2028C12.8369 13.003 12.8694 12.8009 12.8896 12.5975C12.8862 12.5518 12.821 12.5204 12.8496 12.4167C12.8946 12.366 12.8477 12.2995 12.8803 12.2133C12.8971 12.3112 12.9009 12.4108 12.8915 12.5096C12.9446 12.4923 12.9272 12.2653 12.9421 12.1859C12.9253 12.1487 12.9424 11.955 12.9275 11.8332C12.9786 11.8862 12.96 11.735 12.9873 11.6627C12.9934 11.5806 12.9728 11.5281 12.9548 11.5615C12.8991 11.535 12.922 11.8882 12.8636 11.7739C12.885 11.683 12.89 11.5891 12.8783 11.4965C12.848 11.4954 12.8554 11.5556 12.8263 11.4996C12.8329 11.4032 12.7963 11.3012 12.8276 11.2459C12.8331 11.2743 12.8339 11.3033 12.83 11.3318C12.833 11.2065 13.0288 12.011 13.0109 11.8487C12.9841 11.8909 12.8302 11.1351 12.8284 11.2185C12.8136 11.2949 12.7736 11.1639 12.7631 11.243L12.7999 11.3308C12.7887 11.4389 12.7358 11.4833 12.7149 11.4452C12.7195 11.2641 12.9225 11.9594 12.8916 11.8045L12.8774 11.8675C12.8498 11.7665 12.8479 11.6606 12.872 11.5588C12.8421 11.5584 12.8314 11.47 12.8205 11.3967L12.8255 11.3707C12.8102 11.2949 12.8172 11.189 12.7776 11.2383C12.783 11.6827 12.4727 10.9465 12.4559 11.3769C12.5219 11.1962 12.5239 11.4376 12.5318 11.6269C12.4868 11.6991 12.4618 11.7815 12.4594 11.8658C12.4648 11.9838 12.4837 11.9353 12.5006 11.9577C12.4857 12.0231 12.4735 12.1482 12.4386 12.1318C12.4802 12.2237 12.4123 12.2788 12.4267 12.389C12.446 12.4861 12.4447 12.3824 12.4649 12.4513L12.4472 12.9176C12.4146 12.9626 12.3569 13.0994 12.3062 12.9999C12.3128 12.7788 12.3888 13.0841 12.3776 12.8539C12.303 12.9531 12.3568 12.6504 12.3003 12.6086C12.2688 12.7213 12.2606 12.839 12.2761 12.9548L12.2859 12.9299C12.306 13.0787 12.3013 13.2296 12.272 13.3769C12.2458 13.3491 12.2261 13.4008 12.2195 13.3204L12.2148 13.4711C12.2232 13.4903 12.2317 13.51 12.2376 13.4665C12.2537 13.5315 12.2516 13.5995 12.2313 13.6634C12.2037 13.6799 12.3489 14.4652 12.3315 14.4409C12.3325 14.5495 12.2909 14.5759 12.3192 14.6817C12.3418 14.6928 12.2229 13.6435 12.2321 13.7871C12.2019 13.8799 12.3724 15.0179 12.3199 15.0855C12.3221 15.166 12.3281 15.2631 12.3562 15.2442C12.3427 15.3802 12.3025 15.2035 12.2763 15.3003C12.2807 15.3025 12.2903 15.2924 12.2893 15.3233L12.254 15.4164C12.2978 15.6276 12.2415 15.9373 12.2995 16.1584C12.2471 16.0716 12.2094 15.9774 12.1877 15.8791L12.2024 15.8542C12.1938 15.834 12.1839 15.7169 12.1558 15.7203C12.1376 15.8512 12.1425 15.9841 12.1704 16.1134L12.1476 16.1909L12.1585 16.1886C12.1411 16.2352 12.1383 16.2303 12.1273 16.2133L12.1209 16.2035C12.0388 16.2884 12.1738 16.7342 12.1315 16.9811C12.1432 17.0538 12.1454 16.9879 12.1613 17.0784C12.129 17.3307 12.1041 17.5048 12.0854 17.7685C12.121 17.8528 12.1351 17.8593 12.172 17.7575L12.1608 17.9567C12.0661 17.7757 12.0711 18.3289 11.9766 18.1293C11.9534 18.2241 11.9499 18.3224 11.9662 18.4185C11.99 18.4297 12.0282 18.4472 12.0283 18.5875L11.9783 18.8982C11.9475 18.9365 11.9352 18.8771 11.9105 18.884C11.9504 19.1335 11.8436 19.1019 11.8498 19.3372C11.8591 19.4846 11.8632 19.7757 11.9174 19.7828C11.9151 19.9814 11.8754 19.9815 11.8313 19.9618Z" fill="currentColor"/>
<path d="M12.0469 10.3123L12.0388 10.2985C12.0803 10.3306 12.1132 10.3718 12.1349 10.4187C12.1628 10.2119 12.1616 10.0091 11.8498 10.2539C11.9726 10.0904 11.9485 9.95179 11.9148 9.98931C11.8784 10.0032 11.8407 10.0135 11.8022 10.0202C11.8254 10.0183 11.8484 10.0148 11.8711 10.0097C11.8484 10.0148 11.8254 10.0183 11.8022 10.0202C11.5878 10.0548 11.5085 9.90602 11.4312 9.74638C11.342 9.62801 11.2604 9.50452 11.1867 9.37655C11.1811 9.36292 11.1749 9.34956 11.1679 9.33655L11.1798 9.39207C11.1089 9.4019 11.0374 9.40693 10.9658 9.40714C10.9493 9.43708 10.9365 9.46879 10.9277 9.50162L10.9202 9.47128C10.8482 9.52285 10.809 9.48779 10.7666 9.50036C10.7992 9.46922 10.7894 9.45053 10.78 9.43485L10.7667 9.4617C10.7269 9.40755 10.6439 9.38919 10.6013 9.34931C10.5948 9.34441 10.6006 9.32784 10.6075 9.31376L10.5414 9.30614C10.5826 9.26277 10.538 9.23738 10.5828 9.22488C10.505 9.25366 10.4988 9.19443 10.4209 9.22631C10.2888 9.13754 10.1342 9.08524 9.97378 9.07504L9.96257 9.09433C9.89665 9.09326 9.78606 9.15605 9.76121 9.08767C9.66779 9.10457 9.57997 9.14308 9.50523 9.19992C9.45352 9.18149 9.39749 9.21705 9.33696 9.21088C9.30823 9.2663 9.25075 9.23817 9.24022 9.29015C9.21215 9.37705 9.26013 9.32171 9.23857 9.39272L9.25104 9.37625C9.29263 9.5151 9.36308 9.64425 9.4581 9.75577C9.56247 9.77064 9.61265 9.86328 9.69676 9.90833C9.7934 9.95448 9.89676 9.98607 10.0033 10.002C10.0308 10.0011 10.0099 10.0498 10.0055 10.0828C10.086 10.11 10.1528 10.188 10.2451 10.2169L10.243 10.2126C10.2872 10.2338 10.2753 10.3044 10.3188 10.3247C10.3297 10.3111 10.3362 10.3146 10.3447 10.3097C10.2993 10.3775 10.6694 10.3461 10.6526 10.3923C10.6587 10.3922 10.6647 10.3928 10.6705 10.3942C10.725 10.4824 10.7043 10.6672 10.7801 10.7077C10.8199 10.6912 10.8588 10.6725 10.8965 10.6518C10.886 10.688 10.9314 10.6373 10.9397 10.6556C10.8717 10.8098 10.9364 10.7733 10.9546 10.7143C10.9983 10.7201 11.0189 10.7543 11.0489 10.7704C11.0687 10.7706 11.0889 10.7703 11.1102 10.769C11.1294 10.7665 11.1198 10.7897 11.1003 10.8237C11.1419 10.8266 11.1083 10.8516 11.1259 10.8861C11.0963 10.9355 11.2542 10.8704 11.2511 10.8899L11.2412 10.8929C11.2673 10.9258 11.2186 11.0278 11.2472 11.0562C11.3088 11.1568 11.4323 11.1986 11.5016 11.277C11.5405 11.2314 11.475 11.2733 11.5246 11.2113C11.5662 11.2566 11.5676 11.3516 11.6099 11.397C11.6072 11.4206 11.6012 11.4436 11.5919 11.4656C11.5932 11.4948 11.6193 11.4506 11.6257 11.4653L11.5929 11.5083C11.6377 11.487 11.5791 11.5734 11.609 11.5682C11.6237 11.5521 11.6312 11.5542 11.6357 11.5599C11.5995 11.6043 11.6554 11.57 11.6213 11.6098L11.6242 11.6066C11.627 11.61 11.6317 11.6089 11.6295 11.6197C11.6487 11.6091 11.8085 11.5339 11.8305 11.5201L11.8275 11.5297C11.8376 11.5353 11.8684 11.5054 11.8698 11.4934L11.8787 11.5044L11.875 11.5065L11.8839 11.5174C11.8753 11.5345 11.8634 11.5498 11.8488 11.5623C11.8678 11.5517 11.8816 11.5487 11.8813 11.5614C11.8882 11.509 11.8997 11.4573 11.9157 11.4068C11.9357 11.3973 11.9296 11.4312 11.9417 11.4326C11.9301 11.4678 11.9245 11.5046 11.9252 11.5415C11.9307 11.5416 11.9737 11.494 11.9634 11.5217C11.9391 11.5587 11.9731 11.5271 11.9592 11.5567C11.9369 11.5692 11.9365 11.5555 11.9305 11.548C11.8986 11.5892 11.926 11.5893 11.9225 11.6052C11.9357 11.5946 11.9393 11.6188 11.9575 11.6146C11.9217 11.6502 11.9444 11.6449 11.9326 11.6698C11.9349 11.6791 11.9515 11.6666 11.9603 11.6511C11.9969 11.6105 11.9569 11.6073 12.0017 11.5696C11.9871 11.5917 12.0048 11.5938 12.0127 11.5969C12.0317 11.5741 12.0228 11.5761 12.045 11.5574C12.0479 11.568 12.0782 11.5462 12.0627 11.5731C12.0562 11.5783 12.0565 11.5722 12.0549 11.57C12.0623 11.5795 11.8813 11.6809 11.9043 11.6768C11.918 11.6541 12.0692 11.5815 12.0642 11.5753C12.0679 11.5596 12.1024 11.537 12.1031 11.5245L12.0738 11.5472C12.082 11.5202 12.0974 11.4957 12.1185 11.4762C12.1288 11.4902 11.9514 11.6035 11.9819 11.5891L11.9862 11.5746C12.0034 11.5635 12.027 11.5605 12.0121 11.5885C12.0227 11.5739 12.0383 11.5634 12.0561 11.5589L12.0549 11.5642C12.07 11.5571 12.0733 11.5685 12.0944 11.5357C12.0586 11.514 12.306 11.3219 12.285 11.2842C12.257 11.3446 12.2382 11.332 12.2194 11.3271C12.2342 11.3067 12.2437 11.2831 12.2471 11.2584C12.2351 11.2555 12.2268 11.2728 12.2147 11.2842C12.2171 11.263 12.2262 11.2431 12.2406 11.2271C12.2079 11.2533 12.2463 11.1987 12.2292 11.2032C12.21 11.2122 12.2185 11.2172 12.2009 11.2284C12.1913 11.216 12.1835 11.2024 12.1778 11.1879C12.1989 11.1468 12.2266 11.1092 12.2597 11.0764C12.2718 11.0943 12.2021 11.134 12.2259 11.1389C12.2651 11.0767 12.2537 11.1351 12.292 11.0947C12.3076 11.065 12.2968 11.0563 12.2818 11.0562L12.2775 11.0651C12.2633 11.0663 12.2374 11.0656 12.2535 11.0286C12.2719 11.0104 12.2804 10.9924 12.2903 10.9922L12.2823 10.9799C12.2757 10.985 12.2689 10.9903 12.2684 10.9974C12.2505 11.0087 12.2523 10.996 12.2579 10.9812C12.2739 10.9593 12.1259 11.0236 12.1386 11.0118C12.13 11.0063 12.154 10.9733 12.1286 10.9885C12.1137 11.0049 12.2646 10.976 12.2484 10.9746C12.2605 10.9463 12.0709 11.0092 12.0987 10.9656C12.0915 10.9625 12.0806 10.9614 12.0645 10.9838C12.0629 10.9657 12.1009 10.9455 12.1102 10.9201L12.1004 10.9286L12.1156 10.8964C12.0728 10.9174 12.0853 10.8567 12.033 10.8878C12.0606 10.862 12.0908 10.8391 12.1232 10.8194L12.1158 10.832C12.1309 10.826 12.1442 10.8166 12.1547 10.8045C12.1563 10.7826 12.1446 10.7799 12.1168 10.7927L12.1254 10.7709L12.1187 10.7793C12.1222 10.7696 12.1283 10.7609 12.1364 10.7542L12.1411 10.75C12.1861 10.6828 12.0693 10.7591 12.0777 10.7128C12.065 10.7174 12.0684 10.723 12.0519 10.7297C12.0557 10.6972 12.0547 10.6643 12.0488 10.6321C12.0245 10.6484 12.006 10.6715 11.9956 10.6983L11.9881 10.6782C12.0604 10.617 12.0167 10.5888 12.0903 10.5288C12.0995 10.5091 12.0934 10.499 12.0756 10.5041C12.06 10.5215 12.0349 10.5494 12.0246 10.5413C12.0263 10.5225 12.0291 10.5039 12.033 10.4854C12.0463 10.4676 12.0607 10.4507 12.0764 10.4349C12.0332 10.4506 12.1022 10.3716 12.0811 10.3626C12.0676 10.3576 12.0527 10.3575 12.039 10.3621C12.0254 10.3667 12.0138 10.3758 12.0064 10.3878C11.9933 10.3745 12.018 10.3445 12.0469 10.3123Z" fill="currentColor"/>
<path d="M22.769 10.4981L22.7843 10.4967C22.7408 10.5197 22.692 10.5316 22.6424 10.5311C22.8217 10.6394 23.007 10.7209 22.8883 10.3509C22.9963 10.5238 23.1308 10.5593 23.1079 10.5148C23.1074 10.4778 23.1106 10.4409 23.1175 10.4046C23.1114 10.4256 23.1069 10.447 23.1039 10.4686C23.1069 10.447 23.1114 10.4256 23.1175 10.4046C23.1578 10.2045 23.3201 10.1962 23.4916 10.1941C23.6299 10.1648 23.77 10.1442 23.911 10.1324C23.9252 10.1331 23.9395 10.1331 23.9537 10.1324L23.8991 10.1201C23.9138 10.055 23.9332 9.9909 23.9571 9.92837C23.9354 9.90199 23.9108 9.87801 23.8837 9.85685L23.9139 9.86275C23.891 9.77932 23.9361 9.75955 23.9389 9.7177C23.9564 9.75861 23.9767 9.75766 23.9941 9.75594L23.9741 9.73347C24.0369 9.72093 24.0814 9.65648 24.1321 9.63572C24.1387 9.63208 24.1519 9.64384 24.1625 9.65549L24.1916 9.60126C24.2173 9.65472 24.2554 9.62633 24.2518 9.6703C24.2517 9.59103 24.3078 9.60978 24.3049 9.52921C24.4312 9.44953 24.5312 9.33623 24.5927 9.20291L24.5789 9.18536C24.602 9.12862 24.5818 9.00713 24.6525 9.01336C24.6684 8.92409 24.6627 8.83248 24.636 8.74567C24.6702 8.70832 24.6565 8.64527 24.6824 8.59529C24.6415 8.54784 24.6864 8.5094 24.6425 8.4791C24.5727 8.41945 24.6071 8.48357 24.5495 8.436L24.5603 8.45351C24.4215 8.43298 24.2798 8.44161 24.1447 8.4788C24.0962 8.56327 23.9949 8.56917 23.9256 8.62377C23.8506 8.6894 23.787 8.76629 23.7373 8.85149C23.729 8.8758 23.6915 8.8378 23.6629 8.82063C23.6111 8.87938 23.5175 8.90556 23.4602 8.97397L23.4649 8.97383C23.4307 9.00356 23.3703 8.96456 23.3372 8.99401C23.346 9.00906 23.3406 9.01318 23.3422 9.02261C23.2955 8.95564 23.2 9.28947 23.1635 9.25611L23.1559 9.27087C23.0571 9.28223 22.8955 9.18917 22.8332 9.23846C22.8349 9.27986 22.8389 9.32113 22.8451 9.36212C22.8156 9.33834 22.8466 9.39828 22.8272 9.39806C22.7093 9.27642 22.721 9.34738 22.7687 9.3871C22.7487 9.42268 22.7106 9.42663 22.6859 9.4461C22.679 9.46322 22.6726 9.4808 22.6666 9.49985C22.6625 9.51749 22.6445 9.49972 22.62 9.46909C22.6034 9.504 22.5919 9.46469 22.5545 9.46591C22.5193 9.42017 22.5258 9.58364 22.509 9.57301L22.5096 9.56314C22.4708 9.57245 22.3941 9.48869 22.3586 9.502C22.2462 9.51455 22.1667 9.60461 22.072 9.63284C22.1005 9.68517 22.0842 9.61138 22.1241 9.67945C22.0688 9.69715 21.9817 9.65969 21.9262 9.67796C21.9054 9.66594 21.8864 9.65132 21.8696 9.63447C21.8425 9.62375 21.8741 9.66431 21.8585 9.66397L21.8303 9.61799C21.8348 9.66556 21.7756 9.57955 21.7703 9.6076C21.7801 9.62691 21.7756 9.63257 21.7689 9.63418C21.7405 9.58471 21.7531 9.64713 21.7282 9.60133L21.7301 9.60513C21.7262 9.60616 21.7255 9.61071 21.7164 9.60444C21.7197 9.62541 21.7347 9.79457 21.7399 9.81923L21.7321 9.81273C21.7237 9.81918 21.7406 9.85813 21.7511 9.86417L21.738 9.86745L21.7374 9.86336L21.7244 9.86662C21.7117 9.85226 21.7018 9.83578 21.6952 9.81798C21.6986 9.83872 21.6966 9.85199 21.6852 9.84652C21.7309 9.87391 21.7742 9.90492 21.8146 9.93923C21.8166 9.96039 21.7876 9.9414 21.7823 9.95127C21.7545 9.92708 21.7228 9.90731 21.6886 9.89271C21.6867 9.89746 21.7156 9.95408 21.6938 9.9339C21.6682 9.8977 21.6856 9.94012 21.6633 9.91596C21.6594 9.89154 21.672 9.89679 21.6809 9.89464C21.654 9.85023 21.6447 9.87401 21.6314 9.86452C21.6366 9.88025 21.6133 9.87344 21.6111 9.89095C21.5906 9.84546 21.5878 9.86728 21.569 9.84695C21.5598 9.84505 21.5656 9.86468 21.5768 9.87857C21.6016 9.9269 21.618 9.89342 21.6372 9.94761C21.622 9.926 21.6141 9.94049 21.6086 9.9461C21.6231 9.97187 21.6243 9.96322 21.6339 9.99011C21.6233 9.98838 21.633 10.0235 21.6136 9.9991C21.611 9.99136 21.6166 9.99413 21.6191 9.99362C21.608 9.99615 21.5761 9.79789 21.5721 9.81953C21.5883 9.84063 21.6038 10.0014 21.6111 9.99953C21.6242 10.0091 21.6332 10.0482 21.6444 10.054L21.6335 10.0192C21.6555 10.0375 21.6726 10.0608 21.6833 10.0869C21.6671 10.0902 21.6233 9.8902 21.6261 9.92255L21.6379 9.93219C21.6423 9.95162 21.6371 9.97331 21.6165 9.949C21.6263 9.96394 21.6306 9.98162 21.6288 9.99921L21.6243 9.996C21.6258 10.012 21.6142 10.0102 21.6371 10.0418C21.669 10.0196 21.7613 10.3123 21.8027 10.3094C21.7569 10.2606 21.7747 10.2494 21.7856 10.2351C21.7991 10.2561 21.8173 10.2738 21.8389 10.287C21.8455 10.2778 21.8326 10.2636 21.8263 10.2484C21.8449 10.2593 21.8599 10.2752 21.8696 10.2941C21.8567 10.2551 21.8936 10.3106 21.8952 10.2939C21.8935 10.2737 21.8861 10.2789 21.8817 10.2591C21.8964 10.2558 21.9114 10.2546 21.9264 10.2556C21.9568 10.2907 21.9818 10.3299 22.0006 10.372C21.9803 10.3752 21.9674 10.2985 21.955 10.3172C21.9985 10.3765 21.9491 10.3429 21.9731 10.3926C21.9949 10.4181 22.0065 10.4124 22.0116 10.3993L22.0049 10.392C22.0086 10.3791 22.018 10.357 22.0463 10.386C22.0568 10.4094 22.0703 10.424 22.0672 10.4327L22.0811 10.4308C22.0799 10.4233 22.0759 10.4165 22.0698 10.4116C22.0655 10.3915 22.0764 10.3982 22.0881 10.4091C22.1027 10.4319 22.0937 10.2774 22.1002 10.2931C22.1081 10.288 22.1302 10.3222 22.1247 10.294C22.1147 10.2744 22.0906 10.417 22.0973 10.4035C22.119 10.4255 22.1252 10.2355 22.1557 10.2774C22.1609 10.2723 22.1655 10.2634 22.1506 10.2403C22.1676 10.2463 22.1733 10.2875 22.1934 10.3059L22.1889 10.2939L22.2131 10.3202C22.2084 10.2745 22.2595 10.3101 22.2487 10.2521C22.2629 10.2863 22.2737 10.3218 22.2809 10.3581L22.2719 10.3465C22.2723 10.3622 22.2764 10.3776 22.2839 10.3914C22.3033 10.4018 22.3097 10.3927 22.3074 10.3634L22.3244 10.3797L22.3189 10.3705C22.3267 10.3775 22.3325 10.3863 22.3359 10.396L22.3382 10.4019C22.3844 10.4682 22.3539 10.3359 22.3934 10.362C22.3934 10.3491 22.3872 10.3498 22.3866 10.3328C22.4146 10.3491 22.445 10.3616 22.4766 10.3697C22.4698 10.342 22.4551 10.3166 22.4341 10.2966L22.455 10.2983C22.4865 10.3859 22.5269 10.3596 22.557 10.4478C22.5718 10.4637 22.5831 10.4626 22.5844 10.4451C22.5738 10.4244 22.5568 10.3913 22.5676 10.3857C22.5876 10.3925 22.6055 10.4042 22.6194 10.4196C22.6334 10.4351 22.643 10.4537 22.6473 10.4739C22.6474 10.43 22.6964 10.522 22.7117 10.5073C22.7208 10.497 22.726 10.4838 22.7264 10.4702C22.7268 10.4565 22.7223 10.4431 22.7137 10.4323C22.7301 10.4262 22.7492 10.4599 22.769 10.4981Z" fill="currentColor"/>
<path d="M24.0298 22.5533L24.0247 22.5394C24.0581 22.5742 24.0816 22.6168 24.093 22.663C24.1582 22.469 24.1952 22.2758 23.8544 22.4786C24.0012 22.3349 24.0045 22.2006 23.9655 22.2331C23.9288 22.2427 23.8912 22.2489 23.8533 22.2516C23.8757 22.252 23.8981 22.2509 23.9204 22.2483C23.8981 22.2509 23.8757 22.252 23.8533 22.2516C23.6441 22.2638 23.5971 22.1145 23.554 21.9551C23.4917 21.8334 23.4377 21.7079 23.3923 21.5794C23.3896 21.566 23.3862 21.5526 23.382 21.5395L23.3828 21.5935C23.3144 21.596 23.2458 21.5939 23.1777 21.5871C23.1565 21.6139 23.1385 21.6428 23.1239 21.6734L23.1226 21.6438C23.0448 21.6859 23.0143 21.6487 22.9719 21.6566C23.0085 21.6301 23.0027 21.6113 22.9968 21.5955L22.9792 21.6198C22.9517 21.5644 22.8768 21.5389 22.844 21.4968C22.8388 21.4915 22.8473 21.4763 22.8564 21.4636L22.7954 21.4499C22.8425 21.4126 22.8051 21.3841 22.8499 21.3766C22.7708 21.3964 22.7762 21.3395 22.6965 21.3622C22.5866 21.2641 22.4496 21.199 22.3022 21.175L22.288 21.1922C22.2259 21.1848 22.1095 21.2339 22.0988 21.1664C22.0058 21.1739 21.9158 21.2019 21.8358 21.2484C21.7903 21.2258 21.7306 21.2543 21.6747 21.2425C21.6371 21.2925 21.588 21.2601 21.5683 21.3086C21.5255 21.3886 21.5812 21.3405 21.5475 21.406L21.5624 21.3916C21.575 21.5259 21.6174 21.6559 21.6869 21.7728C21.7827 21.7971 21.8128 21.89 21.8838 21.9411C21.9673 21.9947 22.0592 22.0349 22.1559 22.06C22.1822 22.0617 22.1532 22.1061 22.1429 22.1371C22.2139 22.1708 22.2623 22.2515 22.3443 22.2879L22.343 22.2836C22.3809 22.3081 22.3564 22.3741 22.3936 22.3977C22.4066 22.3857 22.412 22.3897 22.421 22.3859C22.3653 22.4461 22.7211 22.452 22.6966 22.4944L22.7131 22.4978C22.748 22.5871 22.6938 22.7609 22.7579 22.8068C22.7987 22.7949 22.839 22.7809 22.8783 22.7649C22.8616 22.7983 22.9141 22.7546 22.9185 22.7727C22.8253 22.9129 22.8933 22.8844 22.9215 22.8299C22.9618 22.8398 22.9748 22.8743 23.0001 22.8925C23.0188 22.8946 23.0379 22.8963 23.0583 22.8971C23.0769 22.8966 23.0635 22.9178 23.0387 22.9482C23.0775 22.9549 23.0411 22.9755 23.0512 23.0101C23.014 23.0542 23.1755 23.0076 23.1689 23.0259L23.159 23.0278C23.1775 23.0616 23.1123 23.154 23.134 23.1838C23.1734 23.2855 23.2822 23.3372 23.333 23.4186C23.3783 23.3789 23.3087 23.4125 23.3671 23.3583C23.3979 23.4055 23.3814 23.496 23.4128 23.5433C23.4058 23.5656 23.3958 23.587 23.383 23.6068C23.3788 23.6348 23.4117 23.5952 23.415 23.6098L23.3759 23.6475C23.4223 23.6316 23.3506 23.7081 23.3798 23.7061C23.3967 23.6922 23.4034 23.695 23.4066 23.7007C23.3641 23.7396 23.4234 23.7123 23.3836 23.7469L23.387 23.7442C23.3889 23.7476 23.3936 23.7471 23.3896 23.7571C23.4097 23.7489 23.5749 23.6928 23.5982 23.6818L23.5936 23.6907C23.602 23.6969 23.6369 23.6715 23.6404 23.6602L23.6468 23.6716L23.6428 23.6732L23.6492 23.6844C23.6379 23.6999 23.6238 23.7132 23.6076 23.7238C23.6275 23.7155 23.6412 23.714 23.6386 23.7261C23.655 23.6766 23.6755 23.6285 23.7001 23.5823C23.7207 23.5752 23.7087 23.6069 23.7198 23.6094C23.7024 23.6413 23.6902 23.6758 23.6838 23.7114C23.689 23.712 23.7386 23.6709 23.7237 23.6962C23.6937 23.7291 23.7318 23.7023 23.713 23.7292C23.6896 23.7389 23.6918 23.7258 23.6876 23.7181C23.6497 23.7542 23.6756 23.7569 23.6693 23.7717C23.6838 23.763 23.6826 23.7863 23.7006 23.7841C23.6601 23.8145 23.6825 23.8117 23.6667 23.8342C23.6671 23.8433 23.6852 23.833 23.6964 23.8191C23.7386 23.784 23.7014 23.777 23.7508 23.7456C23.7329 23.7652 23.7492 23.7689 23.7562 23.7726C23.7784 23.7527 23.7695 23.7538 23.794 23.7381C23.7948 23.7485 23.8276 23.7307 23.8078 23.7548C23.8007 23.7592 23.8022 23.7533 23.8011 23.751C23.8062 23.7607 23.6161 23.8398 23.6386 23.8381C23.6558 23.8178 23.8125 23.7634 23.8089 23.757C23.8153 23.7424 23.8522 23.7243 23.8552 23.7124L23.8232 23.7312C23.8362 23.7061 23.8553 23.6844 23.8788 23.6679C23.886 23.6822 23.6969 23.7729 23.7285 23.7621L23.7353 23.7488C23.7536 23.7398 23.7765 23.7393 23.7571 23.7645C23.7697 23.7517 23.7863 23.7433 23.8043 23.7406L23.8021 23.7455C23.8177 23.7402 23.8188 23.7514 23.8448 23.7223C23.815 23.6981 24.085 23.5392 24.0722 23.5013C24.0344 23.5561 24.019 23.5423 24.0021 23.5358C24.0198 23.518 24.0332 23.4966 24.0412 23.4731C24.0304 23.4693 24.0194 23.4848 24.0058 23.4945C24.0122 23.4744 24.0244 23.4564 24.041 23.4427C24.0052 23.4645 24.0517 23.4162 24.0347 23.4189C24.0149 23.4255 24.0219 23.4311 24.0031 23.4401C23.9964 23.4273 23.9916 23.4135 23.989 23.3994C24.0168 23.3622 24.0499 23.3292 24.0874 23.3012C24.0954 23.3193 24.022 23.3504 24.0436 23.3574C24.0924 23.302 24.0706 23.3564 24.1145 23.3217C24.1347 23.295 24.1262 23.2856 24.112 23.2841L24.1063 23.2922C24.0926 23.2919 24.0683 23.2887 24.0904 23.2551C24.1113 23.2395 24.1226 23.2233 24.1321 23.224L24.1268 23.2115C24.1196 23.2158 24.1122 23.2202 24.1104 23.2268C24.0914 23.2358 24.0954 23.224 24.1035 23.2104C24.1228 23.1911 23.9708 23.238 23.985 23.228C23.9779 23.2219 24.0068 23.1928 23.98 23.2048C23.9628 23.219 24.1108 23.2061 24.0957 23.2032C24.1125 23.1774 23.9215 23.219 23.956 23.1801C23.9497 23.1765 23.9397 23.1744 23.9202 23.1941C23.9221 23.1767 23.9619 23.1612 23.9754 23.1379L23.9645 23.1451L23.9849 23.1159C23.9405 23.1317 23.9638 23.0752 23.9085 23.0996C23.9392 23.0779 23.9721 23.059 24.0066 23.0433L23.9972 23.0546C24.0128 23.0503 24.0271 23.0426 24.0391 23.0322C24.0448 23.0115 24.0342 23.0078 24.0056 23.0173L24.0178 22.9973L24.0099 23.0048C24.0151 22.9958 24.0224 22.9881 24.0314 22.9826L24.0366 22.979C24.0917 22.9195 23.967 22.9807 23.9835 22.9374C23.9708 22.9406 23.9729 22.9462 23.9561 22.951C23.9657 22.9208 23.9708 22.8895 23.9714 22.8579C23.9453 22.8711 23.9236 22.8912 23.9087 22.9158L23.9054 22.8959C23.9852 22.8447 23.9492 22.8135 24.0301 22.7636C24.0424 22.7457 24.0386 22.7355 24.0209 22.7387C24.0028 22.7537 23.9738 22.7778 23.9656 22.7691C23.9677 22.7487 23.9751 22.7291 23.9871 22.7123C23.9992 22.6954 24.0155 22.6818 24.0346 22.6728C23.9908 22.6836 24.0709 22.6151 24.0526 22.6045C24.04 22.5985 24.0256 22.597 24.0119 22.6C23.9982 22.6031 23.9859 22.6106 23.9772 22.6213C23.9674 22.6073 23.9964 22.5811 24.0298 22.5533Z" fill="currentColor"/>
</g>
<path d="M21.8651 20.7514H12.5795L13.0216 11.5448L21.8651 10.6883V20.7514Z" fill="currentColor" stroke="currentColor"/>
<defs>
<filter id="filter0_d_577_37864" x="-0.433289" y="0.5" width="35.7128" height="40" filterUnits="userSpaceOnUse" color-interpolation-filters="sRGB">
<feFlood flood-opacity="0" result="BackgroundImageFix"/>
<feColorMatrix in="SourceAlpha" type="matrix" values="0 0 0 0 0 0 0 0 0 0 0 0 0 0 0 0 0 0 127 0" result="hardAlpha"/>
<feOffset dy="4"/>
<feGaussianBlur stdDeviation="2"/>
<feComposite in2="hardAlpha" operator="out"/>
<feColorMatrix type="matrix" values="0 0 0 0 0 0 0 0 0 0 0 0 0 0 0 0 0 0 0.12 0"/>
<feBlend mode="normal" in2="BackgroundImageFix" result="effect1_dropShadow_577_37864"/>
<feBlend mode="normal" in="SourceGraphic" in2="effect1_dropShadow_577_37864" result="shape"/>
</filter>
<filter id="filter1_d_577_37864" x="5.04218" y="8.11908" width="24.4756" height="24.0049" filterUnits="userSpaceOnUse" color-interpolation-filters="sRGB">
<feFlood flood-opacity="0" result="BackgroundImageFix"/>
<feColorMatrix in="SourceAlpha" type="matrix" values="0 0 0 0 0 0 0 0 0 0 0 0 0 0 0 0 0 0 127 0" result="hardAlpha"/>
<feOffset dy="4"/>
<feGaussianBlur stdDeviation="2"/>
<feComposite in2="hardAlpha" operator="out"/>
<feColorMatrix type="matrix" values="0 0 0 0 0.47451 0 0 0 0 0.52549 0 0 0 0 0.847059 0 0 0 0.25 0"/>
<feBlend mode="normal" in2="BackgroundImageFix" result="effect1_dropShadow_577_37864"/>
<feBlend mode="normal" in="SourceGraphic" in2="effect1_dropShadow_577_37864" result="shape"/>
</filter>
</defs>
</svg>
