<svg width="21" height="21" viewBox="0 0 21 21" fill="none" xmlns="http://www.w3.org/2000/svg">
<path d="M17.1253 12.1825L18.6123 10.7662L20.0959 9.34995L20.465 8.99588L20.6479 8.81885L20.6962 8.77025C20.7514 8.71818 20.7997 8.65917 20.8376 8.59669C20.9412 8.44396 20.9963 8.26345 20.9998 8.076C21.0067 7.72888 20.8411 7.40258 20.5547 7.20819C20.4271 7.12835 20.2856 7.07627 20.1373 7.05198L20.0096 7.03115L19.5024 6.95132L15.4589 6.3126L14.4445 6.15639L14.2203 6.12168H14.1754C14.1478 6.1078 14.1271 6.08697 14.1099 6.06267L13.2646 4.32357L11.4498 0.630145C11.3015 0.317731 11.0185 0.0921067 10.6839 0.0192102C10.4562 -0.0259161 10.2181 0.00878884 10.0111 0.119869C9.86275 0.196237 9.73509 0.303851 9.63849 0.43923C9.60054 0.491299 9.56604 0.546843 9.53844 0.605854L9.50393 0.671798L9.44528 0.78983L9.33142 1.02587L8.86911 1.98047L7.96518 3.86536L7.05088 5.75373L6.93702 5.98977C6.88872 6.08697 6.91287 6.04184 6.89217 6.06961C6.87492 6.09391 6.84733 6.11473 6.81973 6.12862C6.79213 6.12862 6.81972 6.12863 6.74382 6.14946L6.48506 6.18764L5.96754 6.26748L1.85152 6.90619L1.31675 6.98602L1.05799 7.02769L0.926888 7.04851H0.864788C0.795785 7.05893 0.730226 7.07628 0.664674 7.10058C0.499067 7.15959 0.350714 7.26373 0.23686 7.39564C0.123005 7.53102 0.0470971 7.69416 0.0160458 7.86772C-0.0460567 8.20791 0.0746923 8.55504 0.333453 8.78067L0.685374 9.15209L2.19999 10.6031L3.71461 12.0471L4.48743 12.7691L4.65994 12.9358C4.68064 12.9531 4.69788 12.9774 4.71513 12.9982C4.74273 13.0468 4.75999 13.1024 4.75999 13.1614L4.14587 17.2262L3.99061 18.2642L3.9147 18.7848L3.8733 19.0417L3.8526 19.191C3.83535 19.3333 3.85606 19.4756 3.91127 19.6041C4.02167 19.8644 4.26317 20.0449 4.54608 20.0796C4.68754 20.1004 4.83245 20.0761 4.96355 20.0171L5.11191 19.9373L5.56733 19.6839L6.4816 19.1736L10.1284 17.1325C10.2354 17.07 10.3285 16.9867 10.3975 16.8826C10.47 16.8062 10.5148 16.709 10.5286 16.6014C10.5217 16.4764 10.4286 16.3723 10.3044 16.3515C10.1215 16.3168 9.93175 16.3445 9.76614 16.4313L9.67989 16.4765L5.93304 18.3301L5.03945 18.7779L5.12915 18.3856L5.31202 17.3755L5.70189 15.317L5.89853 14.2861L5.99514 13.7723C6.04344 13.5641 6.0745 13.3488 6.08485 13.1336C6.07795 12.6893 5.89853 12.2658 5.58112 11.9569L5.39827 11.7729L4.66339 11.03L3.19363 9.54435L2.08958 8.43702H2.10683L6.22284 7.86772L6.73693 7.79831L6.99569 7.76012C7.1475 7.73929 7.29239 7.70111 7.4373 7.64557C7.73401 7.52407 7.98931 7.32621 8.18252 7.06934C8.30672 6.88189 8.41024 6.68402 8.49995 6.47922L9.42803 4.60474L10.3734 2.71638L10.5183 2.39701L11.8259 5.05254L12.2847 5.97589L12.5125 6.43757C12.6022 6.63543 12.7091 6.82634 12.8299 7.00685C13.0127 7.26372 13.2611 7.46506 13.5475 7.59003C13.6924 7.65251 13.8408 7.69763 13.996 7.7254L14.2582 7.76012L15.2726 7.90244L18.9573 8.40924L17.6049 9.76998L16.1558 11.2279L15.4278 11.9673C15.1138 12.2797 14.9414 12.7067 14.9448 13.151C14.9483 13.2725 14.9621 13.394 14.9862 13.5155L15.7556 17.5734L15.9488 18.587L15.9902 18.7987L15.8556 18.7328L14.9448 18.2746L11.2704 16.4452C11.1082 16.3549 10.9219 16.3237 10.7391 16.3584C10.5873 16.4035 10.5114 16.5042 10.5148 16.6084C10.5252 16.7125 10.5735 16.8097 10.6459 16.8861C10.7184 16.9867 10.8115 17.07 10.9185 17.129L11.0013 17.1776L14.5756 19.1806L15.4692 19.6804L15.9143 19.9303L16.0282 19.9928C16.142 20.0553 16.2697 20.0866 16.3973 20.0866C16.5353 20.0831 16.6699 20.0449 16.7906 19.9755C16.8976 19.9095 16.9873 19.8193 17.0528 19.7151C17.1632 19.5277 17.2012 19.3055 17.1598 19.0938L17.1218 18.8404L17.0287 18.3405L16.8769 17.3234L16.2593 13.2412C16.2248 13.1093 16.28 12.9705 16.3939 12.8976L17.1253 12.1825Z" fill="#595959"/>
<path d="M17.1253 12.7362L18.6123 11.2556L20.0959 9.77495L20.465 9.40479L20.6479 9.2197L20.6962 9.1689C20.7514 9.11447 20.7997 9.05277 20.8376 8.98745C20.9412 8.82777 20.9963 8.63906 20.9998 8.44309C21.0067 8.08019 20.8411 7.73906 20.5547 7.53583C20.4271 7.45236 20.2856 7.39792 20.1373 7.37252L20.0096 7.35075L19.5024 7.26729L15.4589 6.59953L14.4445 6.43623L14.2203 6.39994H14.1754C14.1478 6.38542 14.1271 6.36365 14.1099 6.33825L13.2646 4.5201L11.4498 0.658788C11.3015 0.332174 11.0185 0.0962934 10.6839 0.0200834C10.4562 -0.0270941 10.2181 0.00918833 10.0111 0.125318C9.86275 0.205157 9.73509 0.317662 9.63849 0.459195C9.60054 0.51363 9.56604 0.571699 9.53844 0.633393L9.50393 0.702334L9.44528 0.825732L9.33142 1.0725L8.86911 2.07049L7.96518 4.04106L7.05088 6.01526L6.93702 6.26203C6.88872 6.36365 6.91287 6.31647 6.89217 6.34551C6.87492 6.37091 6.84733 6.39268 6.81973 6.40719C6.79213 6.40719 6.81972 6.4072 6.74382 6.42898L6.48506 6.46889L5.96754 6.55236L1.85152 7.22011L1.31675 7.30357L1.05799 7.34713L0.926888 7.3689H0.864788C0.795785 7.37979 0.730226 7.39793 0.664674 7.42333C0.499067 7.48503 0.350714 7.5939 0.23686 7.7318C0.123005 7.87334 0.0470971 8.0439 0.0160458 8.22535C-0.0460567 8.58099 0.0746923 8.9439 0.333453 9.17979L0.685374 9.5681L2.19999 11.085L3.71461 12.5947L4.48743 13.3496L4.65994 13.5238C4.68064 13.5419 4.69788 13.5673 4.71513 13.5891C4.74273 13.6399 4.75999 13.6979 4.75999 13.7596L4.14587 18.0092L3.99061 19.0943L3.9147 19.6387L3.8733 19.9072L3.8526 20.0633C3.83535 20.2121 3.85606 20.3609 3.91127 20.4951C4.02167 20.7673 4.26317 20.956 4.54608 20.9923C4.68754 21.0141 4.83245 20.9887 4.96355 20.927L5.11191 20.8435L5.56733 20.5786L6.4816 20.0451L10.1284 17.9113C10.2354 17.8459 10.3285 17.7588 10.3975 17.65C10.47 17.5701 10.5148 17.4685 10.5286 17.356C10.5217 17.2254 10.4286 17.1165 10.3044 17.0947C10.1215 17.0584 9.93175 17.0875 9.76614 17.1782L9.67989 17.2254L5.93304 19.1633L5.03945 19.6314L5.12915 19.2214L5.31202 18.1653L5.70189 16.0133L5.89853 14.9354L5.99514 14.3984C6.04344 14.1806 6.0745 13.9556 6.08485 13.7306C6.07795 13.2661 5.89853 12.8233 5.58112 12.5004L5.39827 12.308L4.66339 11.5314L3.19363 9.97818L2.08958 8.82052H2.10683L6.22284 8.22535L6.73693 8.15277L6.99569 8.11285C7.1475 8.09107 7.29239 8.05116 7.4373 7.99309C7.73401 7.86608 7.98931 7.65922 8.18252 7.39067C8.30672 7.1947 8.41024 6.98784 8.49995 6.77373L9.42803 4.81405L10.3734 2.83985L10.5183 2.50597L11.8259 5.2822L12.2847 6.24753L12.5125 6.73018C12.6022 6.93704 12.7091 7.13663 12.8299 7.32534C13.0127 7.59389 13.2611 7.80438 13.5475 7.93503C13.6924 8.00035 13.8408 8.04752 13.996 8.07656L14.2582 8.11285L15.2726 8.26164L18.9573 8.79148L17.6049 10.2141L16.1558 11.7383L15.4278 12.5112C15.1138 12.8379 14.9414 13.2842 14.9448 13.7488C14.9483 13.8758 14.9621 14.0028 14.9862 14.1298L15.7556 18.3722L15.9488 19.4318L15.9902 19.6532L15.8556 19.5843L14.9448 19.1052L11.2704 17.1927C11.1082 17.0984 10.9219 17.0657 10.7391 17.102C10.5873 17.1492 10.5114 17.2544 10.5148 17.3633C10.5252 17.4721 10.5735 17.5738 10.6459 17.6536C10.7184 17.7589 10.8115 17.8459 10.9185 17.9076L11.0013 17.9584L14.5756 20.0524L15.4692 20.575L15.9143 20.8363L16.0282 20.9016C16.142 20.9669 16.2697 20.9996 16.3973 20.9996C16.5353 20.996 16.6699 20.956 16.7906 20.8835C16.8976 20.8145 16.9873 20.7201 17.0528 20.6113C17.1632 20.4153 17.2012 20.183 17.1598 19.9617L17.1218 19.6968L17.0287 19.1742L16.8769 18.1109L16.2593 13.8431C16.2248 13.7052 16.28 13.56 16.3939 13.4838L17.1253 12.7362Z" fill="#595959"/>
</svg>
