<svg width="138" height="148" viewBox="0 0 138 148" fill="none" xmlns="http://www.w3.org/2000/svg">
<path d="M137.638 94.1069C133.852 88.2665 128.8 83.0702 124.326 77.7406C119.339 71.7997 114.322 65.8843 109.274 59.9946C104.42 54.3493 99.5488 48.7192 94.6596 43.1042C90.5907 38.4313 86.6621 33.3324 82.2907 28.8424C79.0131 20.4083 73.2168 13.1793 65.6845 8.1315C50.3611 -2.12993 19.75 -5.71344 11.7543 15.797C11.6406 16.0693 11.5871 16.3628 11.5973 16.6575C11.6074 16.9523 11.6811 17.2414 11.8132 17.5053C1.56438 27.4117 -2.17007 44.0087 1.21583 57.5262C3.80441 67.8603 10.7213 75.6214 18.1945 82.8961C24.2924 88.8322 31.5249 95.2248 40.5721 95.2438C46.3388 95.2559 51.3887 92.6587 55.845 89.2065C55.8032 90.6572 56.0212 92.1514 56.0889 93.7709C56.2167 97.4995 56.1211 101.232 55.8026 104.95C55.2145 112.465 54.022 119.938 53.0144 127.406C52.5984 130.489 58.0039 130.484 58.4349 127.406C59.5199 119.657 60.7778 111.898 61.3283 104.088C61.678 99.1257 62.8737 90.4606 59.4496 86.1452C59.569 86.0356 59.6904 85.9275 59.8087 85.8173C61.232 89.0113 63.699 91.6308 66.8077 93.2492C67.252 93.6691 67.6899 94.0902 68.1006 94.5204C70.7043 97.2484 73.2071 100.069 75.5603 103.015C80.4751 109.217 84.7763 115.878 88.4039 122.906C88.6678 123.374 89.0852 123.737 89.586 123.934C90.0868 124.131 90.6405 124.151 91.154 123.989C93.3489 123.416 95.5132 122.754 97.6473 122.004C95.6653 127.67 97.5923 135.801 98.9421 141.284C98.7835 143.897 105.005 145.113 104.27 140.727C103.624 136.875 102.661 133.096 102.259 129.199C101.961 126.298 102.389 123.276 101.687 120.457C106.266 118.586 110.656 116.283 114.796 113.58C116.683 112.343 118.516 111.019 120.296 109.629C119.709 114.172 120.471 119.536 120.69 123.199C121.138 130.691 122.14 138.135 123.143 145.57C123.583 148.829 129.318 148.792 128.849 145.57C127.769 138.137 126.689 130.695 126.163 123.199C125.911 119.614 125.8 116.03 125.848 112.437C125.884 109.777 126.251 107.493 125.526 105.155C126.746 104.017 127.939 102.851 129.081 101.633C130.334 100.298 131.761 97.984 133.441 96.8912C133.512 96.9592 133.579 97.0323 133.65 97.1C135.453 98.8158 139.071 96.3191 137.638 94.1069ZM45.6066 89.7834C37.0875 92.4668 29.6591 86.8195 23.8404 81.2847C17.4883 75.2424 10.8599 68.6804 7.54293 60.4204C0.952736 44.0087 7.64364 26.7072 20.0075 15.1841C20.2235 15.0031 20.3858 14.7668 20.477 14.5006C20.5682 14.2345 20.5849 13.9486 20.5251 13.6737C20.4653 13.3989 20.3314 13.1455 20.1378 12.9408C19.9442 12.7362 19.6982 12.5881 19.4264 12.5124C29.0509 1.70635 47.6665 3.94761 59.6231 10.6188C66.3668 14.3877 71.9106 19.9705 75.6209 26.7295C75.4972 26.9823 75.4445 27.2639 75.4685 27.5441C75.4925 27.8244 75.5922 28.093 75.7571 28.3213C76.3244 29.161 76.9217 29.9834 77.5326 30.7979C80.3558 37.6695 80.8149 45.2793 78.8383 52.4384C76.3812 61.1739 70.2808 68.3479 64.2023 74.8533C58.9491 80.4753 53.2087 87.3887 45.6066 89.7834ZM126.119 97.3917C122.903 100.898 119.358 104.091 115.534 106.928C108.451 112.125 100.527 116.075 92.105 118.606C88.5603 112.101 84.4567 105.914 79.8403 100.115C77.3128 96.9401 74.6185 93.9002 71.7688 91.0083C69.4754 88.691 67.3284 86.1321 64.3196 84.9114C63.7208 84.332 63.0909 83.7853 62.4327 83.2738C62.6647 83.0412 62.8985 82.8082 63.1267 82.5764C69.5855 76.0133 76.209 69.1072 80.5062 60.8858C80.5159 61.9798 80.5156 63.0633 80.4974 64.1315C80.3357 73.6218 80.2936 83.1138 80.2187 92.6051C80.1934 95.791 85.7017 95.7972 85.727 92.6051C85.8019 83.114 85.9099 73.6229 85.8982 64.1315C85.8889 56.6139 86.7483 48.3827 85.9361 40.7579C87.0347 41.9956 88.1282 43.233 89.1898 44.4802C94.2198 50.3901 99.2307 56.3162 104.222 62.2586C109.014 67.9621 113.804 73.6662 118.594 79.3709C122.379 83.8852 125.986 88.833 129.973 93.2795C128.604 94.5696 127.317 95.943 126.119 97.3917Z" fill="#1D1D1B"/>
<path d="M51.4237 46.0727C51.4237 48.5871 54.2314 50.4098 57.6949 50.1438C61.1584 49.8777 63.9661 47.6237 63.9661 45.1092C63.9661 42.5948 60.713 42.5771 57.6949 41.5755C54.8071 40.6172 51.4237 43.5583 51.4237 46.0727Z" fill="#1D1D1B"/>
<path d="M50.9572 73.1884C50.6297 73.8859 50.1727 74.5096 49.6123 75.0239C49.0518 75.5383 48.399 75.9332 47.6911 76.1861C46.9832 76.4389 46.2341 76.5448 45.4866 76.4976C44.7392 76.4504 44.0081 76.2511 43.3351 75.911C42.6621 75.5709 42.0604 75.0968 41.5644 74.5158C41.0685 73.9347 40.688 73.2581 40.4447 72.5246C40.2014 71.7912 40.1001 71.0152 40.1466 70.2412C40.1931 69.4671 40.3865 68.7102 40.7156 68.0136C42.0954 65.0845 44.3534 67.2723 47.4947 67.0807C50.5004 66.8974 52.337 70.2594 50.9572 73.1884Z" fill="#1D1D1B"/>
</svg>
