<svg width="287" height="215" viewBox="0 0 287 215" fill="none" xmlns="http://www.w3.org/2000/svg">
<path d="M33.8212 8.18161C34.7313 7.71214 35.4143 8.09012 36.0707 8.70893C37.2891 9.85753 38.8682 8.99594 40.3217 9.36104L40.167 10.6085L42.4175 9.59149L42.214 9.41722C43.677 9.27915 45.139 9.12995 46.6033 9.00649C47.8333 8.90278 49.0656 8.82485 50.2974 8.74301C52.4432 8.60051 54.5876 8.40992 56.736 8.34507C58.0013 8.30688 59.2738 8.46325 60.542 8.54795C62.4347 8.67431 64.3246 8.87393 66.2192 8.93293C68.2682 8.99676 70.3213 8.93754 72.3726 8.9225C72.5346 8.92131 72.7948 8.76242 72.8436 8.81706C74.8581 11.0719 77.1872 8.8713 79.3615 9.23151C81.4529 9.48065 83.5628 9.55017 85.6667 9.43926C86.0372 9.43606 86.4031 8.92252 86.455 8.88332L96.8671 8.08979C96.5157 8.55498 96.2837 8.86197 96.0519 9.16874C98.02 10.0357 102.961 9.51263 103.923 8.48022C105.608 8.7639 107.182 8.98442 108.736 9.3033C110.317 9.62776 111.878 9.32495 113.443 9.26788C115.099 9.20753 116.748 9.00002 118.399 8.85231C118.508 8.84265 118.629 8.74434 118.716 8.77214C121.469 9.65539 124.04 8.45171 126.694 8.15612C128.408 7.96523 130.4 7.47666 131.811 8.1008C133.349 8.78141 134.444 8.45436 135.847 8.21023C137.072 9.59748 138.686 8.82641 139.978 8.67524C141.423 10.2526 143.149 9.34227 144.74 9.54913C144.782 9.84888 144.828 10.1838 144.889 10.6258H153.308C153.135 11.0288 152.998 11.3511 152.672 12.1147C159.654 12.6981 166.49 13.2693 173.349 13.8424C172.305 15.2471 173.485 15.6944 174.727 15.957C175.876 16.1999 177.065 16.2596 178.275 16.4046C178.366 17.3739 179.713 17.8934 182.796 17.9235C182.254 18.9959 181.753 19.988 181.251 20.98L180.569 21.4805L182.818 23.4614L179.99 27.3851C180.537 29.4442 182.379 29.1481 183.952 29.1655C189.244 29.2242 194.536 29.1991 199.828 29.2048C201.737 29.2068 203.646 29.2051 205.693 29.2051C204.722 26.6565 203.931 24.5804 203.18 22.6094C205.273 23.0646 207.1 23.4645 208.929 23.8516C209.01 23.8687 209.117 23.7685 209.212 23.723C209.856 25.7681 212.603 25.6739 213.355 27.5704C213.558 28.0842 213.478 28.7048 213.566 29.7175C217.682 29.8362 221.809 29.7621 225.896 30.1244C230.436 30.5269 235.021 31.1461 238.829 33.9201C239.583 34.5859 240.06 35.4989 240.168 36.4849C240.66 40.7861 238.885 44.5864 236.958 48.273C235.712 50.6579 234.121 52.8705 232.747 55.1954C232.543 55.5401 232.775 56.1043 232.647 56.5209C232.399 57.2025 232.113 57.8704 231.79 58.5215C231.96 58.5926 232.312 58.7397 232.923 58.9951C232.326 59.3635 231.943 59.7981 231.537 59.8192C228.891 59.957 226.241 60.8604 223.581 59.7181C223.045 59.488 222.273 59.7928 221.608 59.8289C221.023 59.8606 220.323 60.6219 219.88 59.5599C219.823 59.4244 219.388 59.4143 219.123 59.3893C213.291 58.8384 207.943 60.565 202.684 62.7066C202.39 62.7943 202.129 62.9647 201.934 63.1964C205.796 63.1964 209.659 63.1967 213.522 63.1975C220.403 63.2085 227.304 62.9114 234.158 63.3386C239.911 63.6972 245.629 64.8219 250.909 67.3608C251.371 67.5553 251.845 67.722 252.328 67.8599C254.228 68.5037 254.909 69.5704 255.01 71.5117C255.217 75.5088 253.667 79.0673 252.183 82.6328C251.586 84.0684 250.39 85.3169 250.033 86.7815C249.793 87.7621 249.687 88.4524 248.877 89.2269C248.407 89.6764 248.994 91.0554 248.831 91.9699C248.722 92.584 248.133 93.1173 247.717 93.7502L248.778 94.2092C248.698 94.3936 248.671 94.5563 248.618 94.5644C246.852 94.9065 245.069 95.1596 243.277 95.3229C241.922 95.3946 240.55 95.0071 239.181 94.9651C227.472 94.606 215.764 94.265 204.054 93.9421C197.353 93.7481 190.653 93.5508 183.952 93.3503C183.565 93.339 183.176 93.3488 182.501 93.3488C188.653 94.2502 194.515 95.0965 200.372 95.9702C208.759 97.2213 217.138 98.518 225.531 99.7271C226.813 99.8301 228.102 99.8137 229.38 99.678C229.568 99.6695 229.809 99.4146 229.91 99.2177C230.298 98.4649 230.441 97.5235 231.659 97.5362C231.775 97.5374 231.9 96.8261 232.076 96.2748C232.705 96.3792 233.313 96.5772 233.88 96.8618C236.758 98.9291 239.827 100.827 242.346 103.259C244.173 105.023 246.113 107.136 245.698 110.138C245.663 110.396 246.025 110.685 246.084 110.981C246.317 112.152 246.511 113.33 246.699 114.509C246.732 114.716 246.597 114.958 246.655 115.151C247.432 117.738 246.062 119.164 243.817 120.066C242.317 120.755 240.754 121.308 239.15 121.718C236.675 122.22 236.214 122.504 235.639 125.165C238.839 125.573 242.053 125.862 245.22 126.411C252.857 127.734 260.489 129.096 268.088 130.612C271.479 131.257 274.811 132.17 278.05 133.341C280.001 134.067 281.66 135.563 283.405 136.773C284.363 137.351 285.225 138.068 285.96 138.899C287.271 140.612 287.479 144.382 285.79 145.225C283.847 146.194 284.709 147.54 284.476 148.572C283.869 151.264 282.262 153.003 279.728 153.576C278.106 153.942 278.358 155.291 277.545 156.027C276.568 157.022 275.678 158.096 274.887 159.237C274.521 159.704 274.223 160.22 273.624 161.12C271.98 161.06 269.804 162.075 267.644 160.241C266.676 159.418 264.895 159.504 263.486 159.169C263.116 159.081 262.755 158.96 262.691 158.941C261.372 161.316 260.039 163.598 258.832 165.941C258.274 167.022 257.65 167.602 256.296 167.616C245.049 167.729 233.802 168.025 222.555 168.042C212.031 168.058 201.662 169.078 191.447 171.818C194.189 172.007 196.931 172.18 199.671 172.389C203.076 172.648 206.433 173.039 209.366 175.026C210.059 175.495 211.16 176.141 211.355 174.311L211.792 174.159C212.991 175.636 214.19 177.113 215.605 178.855C216.355 176.576 219.705 178.21 219.702 175.256C220.674 175.881 221.339 176.694 222.549 175.856C222.861 175.64 224.321 176.241 225.217 177.09C226.399 178.21 228.349 178.561 229.952 179.235C229.425 179.559 228.825 179.929 228.255 180.279C229.468 180.345 230.559 180.404 231.65 180.463C231.673 180.659 231.696 180.855 231.719 181.051L230.623 181.626C231.59 182.301 232.573 182.985 233.555 183.67L233.757 183.384C233.378 183.099 232.999 182.813 232.878 182.722C232.305 181.639 234.75 180.912 232.771 179.954C233.939 179.973 235.18 179.765 235.777 180.952C236.855 181.093 237.958 181.237 239.062 181.381L239.19 181.745C237.739 182.432 236.288 183.119 234.836 183.806L234.972 184.278C235.63 184.278 236.379 184.478 236.928 184.24C238.356 183.621 239.683 182.785 241.082 182.098C241.41 181.937 242.04 181.852 242.225 182.031C242.419 182.203 242.575 182.41 242.683 182.642C242.792 182.873 242.851 183.124 242.857 183.378C242.754 183.98 242.272 184.519 241.852 185.262L239.5 183.798C239.419 184.659 239.419 184.659 243.158 186.935C243.082 187.576 243.011 188.18 242.913 189.011C242.395 188.657 241.826 188.267 241.065 187.746C240.987 188.144 240.746 188.691 240.882 188.802C241.301 189.144 241.908 189.584 242.362 189.512C243.781 189.286 244.451 189.844 244.778 191.236C244.364 191.324 243.943 191.559 243.678 191.446C242.401 190.934 241.164 190.334 239.974 189.651C238.716 188.891 237.814 189.048 237.268 190.123L232.337 188.466C231.966 188.699 231.549 188.856 231.112 188.925C227.417 189.04 223.719 189.067 220.024 189.166C219.361 189.243 218.706 189.376 218.066 189.564C218.892 190.19 219.45 190.614 219.994 191.027L221.234 189.65L221.597 189.846C221.564 190.181 221.532 190.516 221.496 190.895C222.084 191.133 222.695 191.312 223.321 191.43C223.796 191.405 224.262 191.288 224.691 191.086C224.834 191.039 224.931 190.813 225.067 190.794C226.404 190.606 227.745 190.446 229.083 190.279C228.811 190.984 228.541 191.688 228.273 192.391C228.003 192.178 227.734 191.965 227.465 191.752H230.442L230.515 191.355C230.031 190.999 229.547 190.644 229.063 190.288C230.064 189.322 231.121 189.437 231.571 190.56C232.076 191.823 232.736 192.132 234.006 191.712C234.268 191.626 234.599 191.441 234.801 191.524C236.257 192.13 237.884 192.226 239.405 191.795C239.747 191.706 240.242 192.171 240.666 192.381C240.235 192.67 239.808 193.198 239.373 193.205C237.936 193.227 236.496 193.057 235.056 192.967C234.01 192.902 232.963 192.848 231.916 192.789C231.889 192.997 231.861 193.205 231.834 193.413C233.351 193.556 234.867 193.699 236.688 193.871L235.383 195.01C234.178 194.3 233.103 193.756 231.657 194.398C231.027 194.678 230.094 194.311 229.299 194.238L229.302 193.729C229.965 193.635 230.629 193.541 231.292 193.446L231.358 193.012C230.763 192.987 230.168 192.935 229.573 192.946C228.77 192.96 227.963 193.095 227.167 193.043C226.441 192.952 225.723 192.811 225.017 192.621C224.98 192.77 224.943 192.918 224.906 193.067L228.746 193.919C226.758 194.942 224.266 193.265 222.464 195.525C223.717 195.616 224.869 195.765 226.022 195.769C227.349 195.773 228.68 195.564 230.004 195.602C232.03 195.661 234.052 195.845 236.074 195.999C236.256 196.013 236.566 196.188 236.575 196.306C236.675 197.525 237.534 197.367 238.39 197.358C238.889 197.375 239.362 197.575 239.716 197.917C238.17 197.917 236.164 198.507 235.184 197.782C233.644 196.642 232.034 197.394 230.579 196.754C229.245 196.167 227.17 197.558 226.825 199.149C227.402 199.288 227.987 199.389 228.577 199.453C229.099 199.444 229.619 199.394 230.132 199.302L230.206 199.71C228.801 199.952 227.396 200.194 225.991 200.436L225.976 200.827H229.729L229.53 201.077C229.949 201.273 230.368 201.469 231.192 201.854H228.885L228.81 202.202C229.535 202.327 230.505 202.806 230.945 202.517C232.971 201.188 234.635 202.426 236.421 203.204C235.469 203.315 234.517 203.425 233.564 203.536C233.573 203.72 233.581 203.904 233.589 204.088C234.142 204.17 234.696 204.253 235.473 204.369C235.144 204.779 234.921 205.058 234.564 205.503C241.425 205.555 248.107 205.592 254.782 207.123C254.827 207.553 254.894 208.182 254.947 208.685C253.54 208.919 252.168 209.148 250.791 209.377C249.912 208.551 249.151 208.107 247.683 208.581C246.338 209.016 244.677 208.562 243.16 208.441C242.343 208.376 241.537 208.19 240.726 208.058L240.601 208.604L254.935 212.564C254.88 213.29 254.818 214.106 254.749 215C254.463 214.647 254.195 214.318 253.939 214.002C252.892 214.503 250.781 213.846 249.926 213.344C248.786 212.673 247.404 212.386 246.114 211.968C245.868 211.889 245.55 212.032 245.298 211.961C243.518 211.458 241.762 210.87 239.97 210.416C236.803 209.613 233.637 208.772 230.425 208.183C229.085 207.938 227.628 208.299 225.937 208.401C225.549 208.982 224.926 209.852 223.819 208.61C223.693 208.516 223.545 208.454 223.388 208.431C223.232 208.407 223.071 208.422 222.922 208.474C221.765 209.625 220.656 209.469 219.359 208.079C219.41 208.744 219.43 209 219.439 209.122C219.022 209.242 218.597 209.336 218.167 209.404C217.117 209.506 216.063 209.609 215.01 209.629C211.547 209.693 208.084 209.707 204.622 209.765C201.939 209.809 199.255 209.853 196.575 209.965C194.58 210.048 192.592 210.26 190.599 210.377C189.549 210.439 188.494 210.424 187.442 210.438C187.108 210.443 186.721 210.319 186.449 210.443C185.705 210.745 184.882 210.809 184.098 210.626C181.734 210.308 179.295 210.519 176.774 210.519C176.863 210.373 177.102 209.98 177.368 209.544C176.118 208.529 175.561 209.568 175.172 210.098C171.653 210.371 168.402 210.624 165.018 210.886C165.051 210.702 165.099 210.436 165.174 210.019L153.23 210.807C153.161 210.406 153.074 209.895 152.986 209.385C152.404 209.62 151.803 209.809 151.19 209.95C150.693 210.029 150.156 209.833 149.646 209.871C146.761 210.087 143.878 210.336 140.994 210.574C140.827 210.43 140.659 210.286 140.491 210.143C140.952 209.959 141.413 209.776 141.875 209.592L141.782 209.249C139.389 209.406 136.996 209.563 134.602 209.72C133.911 209.723 133.323 208.234 132.42 209.787C132.366 209.881 132.039 209.822 131.839 209.837C129.964 209.98 128.014 210.498 126.235 210.161C124.519 209.837 122.961 210.48 121.427 210.288C118.1 209.873 114.944 210.643 111.718 210.993C109.987 211.18 108.228 211.124 106.484 211.216C105.025 211.292 103.57 211.423 101.987 211.54L102.188 210.36C100.644 210.44 99.1713 210.516 97.5404 210.6L97.3237 209.53H88.6684C88.7509 208.822 88.8226 208.207 88.9344 207.247L90.0043 206.466C89.2384 205.762 88.5341 205.115 87.8297 204.468L87.2263 204.507C87.7665 203.287 88.3923 202.104 89.0992 200.967C90.2437 199.359 87.5516 198.73 88.7167 196.834C75.4647 196.817 62.6579 196.807 49.8511 196.781C42.5309 196.767 35.2106 196.748 27.8907 196.687C25.6961 196.669 24.942 196.03 24.2277 193.998C22.379 188.739 22.9057 183.531 24.5357 178.336C24.7873 177.535 24.9629 176.711 25.2258 175.696C23.149 175.696 21.1931 175.739 19.24 175.685C16.5674 175.612 15.829 175.009 15.0255 172.571C13.3058 167.352 13.7952 162.206 15.5277 157.099C15.85 156.442 16.1048 155.756 16.2884 155.05C16.3941 154.139 15.7374 153.811 14.8339 153.808C11.9245 153.8 9.01515 153.77 6.1059 153.719C2.42344 153.656 1.93851 153.357 0.852685 149.956C-0.680707 145.154 0.0887225 140.396 1.31921 135.661C1.64224 134.418 1.83766 133.143 2.18853 131.908C2.39865 131.237 2.70014 130.597 3.08496 130.004C3.80412 128.785 4.59338 127.607 5.44901 126.474C5.85121 125.927 6.44561 125.543 7.11939 125.395C9.82287 125.142 12.5424 125.052 15.2563 124.905C15.6458 124.932 16.0371 124.907 16.42 124.833C16.7443 124.724 17.1697 124.453 17.2312 124.183C17.2236 124.011 17.1723 123.843 17.0816 123.694C16.9909 123.546 16.8638 123.422 16.7117 123.333C16.0056 123.006 15.3834 122.529 14.8905 121.938C14.3977 121.347 14.0466 120.656 13.8629 119.916C13.7092 119.422 12.6743 118.914 12.0259 118.892C10.1901 118.831 8.50521 118.963 8.03452 116.547C7.78932 115.288 6.47886 114.148 6.46014 112.942C6.41916 110.302 4.89034 107.348 7.6298 105.075C7.68963 105.022 7.73619 104.957 7.76581 104.884C7.79544 104.811 7.80733 104.733 7.80056 104.655C7.36861 103.494 8.2992 102.904 8.72105 102.023C9.83384 99.6995 11.794 98.5262 13.7555 97.0863C15.7524 95.6206 17.9285 95.0577 20.208 94.7211C23.5509 94.2275 26.9956 94.2674 30.2835 93.572C34.2156 92.7405 38.0282 91.3737 41.8925 90.2388L41.8239 89.656C41.2895 89.5323 40.7466 89.4469 40.1995 89.4005C37.6312 89.3534 35.0614 89.3757 32.4935 89.3188C27.7105 89.2127 27.0671 88.8409 26.0763 84.2126C25.1526 79.8976 25.7682 75.5916 26.8554 71.3303C27.2425 69.813 27.2346 68.2006 27.4121 66.6321C27.5203 66.1081 27.5808 65.5758 27.5929 65.0415C27.5064 64.5518 27.365 64.0727 27.1714 63.6129L26.675 63.531L29.5396 60.2988C25.1221 60.2988 20.4587 60.3327 15.796 60.2871C12.6146 60.256 9.43221 60.1566 6.25419 60.0079C3.84688 59.8953 3.04475 59.18 2.32119 56.9613C0.608046 51.7081 1.30635 46.5773 3.02237 41.4687C3.39208 40.3681 3.49429 39.1848 3.78192 38.0545C3.91146 37.5283 4.1279 37.0259 4.4228 36.5672C5.32574 35.2035 6.23758 33.8396 7.25236 32.5554C7.62522 32.0944 8.16343 31.7878 8.75892 31.6971C10.9623 31.5419 13.1791 31.5723 15.3845 31.4362C16.0981 31.3378 16.7623 31.0248 17.2843 30.5409C15.6099 29.9775 14.6522 27.7822 12.7421 28.7517C9.83875 26.9201 7.02732 25.1465 4.11075 23.3065L5.53428 22.8328L4.34231 21.1503C5.72925 20.106 6.83646 17.6156 6.2576 16.2855C7.09147 15.9378 7.9542 15.6304 8.76545 15.2253C9.58273 14.8172 10.2522 14.2075 9.71421 13.2244C8.6749 11.3253 10.4267 10.3537 11.2081 9.16055C11.6851 8.43215 12.8438 8.14928 13.6236 7.57303C13.8716 7.38981 13.8774 6.90333 14.009 6.56109C14.0555 6.347 14.1543 6.14698 14.297 5.97795C16.5168 4.24591 18.6951 2.4536 21.021 0.867052C21.6629 0.429272 22.7733 0.469097 23.6372 0.563425C24.4482 0.651984 25.1722 0.965421 25.6581 0.0246867C25.6879 -0.0329165 26.2049 0.0150352 26.2527 0.119291C26.8779 1.48155 28.441 1.08886 29.4068 1.76686C29.7392 2.08067 30.0164 2.44538 30.2276 2.8465C30.8652 3.75481 31.3231 4.88668 32.1737 5.52225C33.173 6.26891 33.8214 7.01714 33.8807 8.23213C32.1366 7.66764 30.3888 7.10113 28.4348 6.46777C29.1672 8.8899 31.4486 9.15969 33.1528 9.98354C33.7819 10.2877 34.8686 9.695 35.9896 9.46053C35.0189 8.88792 34.4201 8.53476 33.8212 8.18161ZM33.6944 24.3409C34.2361 24.2984 34.7797 24.2833 35.323 24.2955C36.0434 24.3438 36.7583 24.4689 37.4756 24.5609L37.7039 24.1308C37.3297 23.7423 36.9295 23.0073 36.5861 23.0316C35.6118 23.1658 34.6572 23.4118 33.7423 23.7645C33.6758 23.7855 33.7299 24.1687 33.724 24.3787C32.7901 23.9359 31.8708 23.4558 30.9042 23.096C30.7791 23.0494 30.4097 23.6247 30.1535 23.9119L30.329 24.4884C31.4508 24.4392 32.5726 24.3901 33.6944 24.3409ZM22.3613 21.6337C24.1993 21.8651 22.6779 22.775 22.7297 23.5807C23.4838 23.201 24.03 22.7237 24.6182 22.6683C26.2478 22.515 27.8947 22.5233 29.5352 22.4967C30.3199 22.4839 31.1154 22.6249 31.8891 22.5439C34.685 22.2511 37.4551 21.315 40.2923 22.2978C40.3306 22.311 40.4189 22.1877 40.4839 22.1281L39.9582 22.6095L37.5358 18.8245L37.2675 19.4961L35.0577 20.5739L34.8591 20.1309L36.3309 19.6396C34.5936 18.0158 33.1097 20.1493 31.0247 19.6387C31.7634 19.4428 32.1408 19.3763 32.4902 19.241C32.8861 19.0878 33.2567 18.873 33.9392 18.5367L31.9194 17.7882C32.1073 15.9103 32.1074 15.9103 30.0355 16.1071C29.3598 14.6695 29.3598 14.6695 25.579 13.88C25.4898 14.1526 25.4833 14.5028 25.3 14.6791C24.0387 15.8924 23.1934 14.7485 22.3016 14.039C21.2019 14.7851 20.5003 16.5062 18.9821 15.2258C19.1523 16.2251 19.3274 17.253 19.5025 18.281C20.063 18.4535 20.4183 19.0332 20.7756 19.6117C20.9192 19.8442 21.0671 20.074 21.2131 20.3051C21.472 20.1347 21.8143 20.018 21.9738 19.7835C22.4164 19.1327 22.7829 18.4329 23.2344 17.6583C23.5264 17.9083 23.8353 18.0701 23.8157 18.1721C23.636 19.1752 23.403 20.1685 23.1177 21.1481C23.0521 21.3638 22.623 21.4746 22.3613 21.6337ZM25.8036 30.3536L25.6996 29.7917C24.1581 30.6923 22.6835 30.8387 21.9311 29.23C21.3485 27.9844 20.7059 28.1336 20.0751 28.5475C18.4057 27.6653 16.8985 26.8688 15.3912 26.0723L15.1198 26.4939C15.5365 26.8935 15.9938 27.2509 16.4846 27.5606C17.6194 28.1359 18.7795 28.5133 19.478 29.7935C20.0357 30.5634 20.8733 31.0979 21.8209 31.2886C22.6825 31.485 23.6781 31.1241 24.615 31.0077L24.5986 31.3066C25.0003 30.9889 25.4019 30.6712 25.8036 30.3536ZM46.2495 20.5849L45.6601 19.4077C45.3879 19.5505 44.9363 19.6401 44.8722 19.8448C44.4079 21.327 43.9769 21.4286 42.7522 20.2219C41.9395 19.4213 41.1591 19.5099 40.3283 20.112C42.357 21.3579 44.3749 22.4125 46.8492 21.7369C47.0949 21.6699 47.4407 21.9905 47.7515 22.1008C48.6107 22.4057 49.8227 21.9225 50.0718 21.1604L48.2391 21.6889C48.178 20.9721 48.1297 20.4052 48.081 19.8342L46.2495 20.5849ZM19.0473 5.6167C20.715 6.70697 21.963 7.44409 23.118 8.30022C24.2653 9.15068 24.6963 7.57843 25.5991 7.71242C25.5119 7.43224 25.5003 6.96881 25.3257 6.90054C23.7593 6.28819 22.1804 5.6931 20.5661 5.21937C20.1705 5.10329 19.6313 5.45083 19.0473 5.6167ZM40.2529 23.0101L39.8781 23.3816C40.2735 23.7943 40.6226 24.4945 41.0732 24.5631C42.3259 24.6706 43.5849 24.6895 44.8403 24.6197C44.6017 24.0325 44.4557 23.228 44.2297 23.206C43.6425 23.2468 43.0678 23.3909 42.5335 23.6314L42.5887 23.949C41.8101 23.6361 41.0315 23.3231 40.2529 23.0101ZM45.6071 23.8205C46.5572 25.1215 47.1155 24.2598 47.6232 23.6053C49.2526 23.6063 50.6634 24.9261 52.2927 24.2087C50.109 23.8894 47.9606 22.1286 45.6071 23.8205ZM223.413 193.536C223.423 193.361 223.433 193.185 223.443 193.01C222.032 192.932 220.621 192.855 218.691 192.75C219.711 193.618 221.765 193.101 220.216 195.262C221.383 195.021 222.082 194.876 222.892 194.708L221.378 193.856L221.523 193.536H223.413ZM28.1556 10.4387L28.0274 9.70638C27.0412 9.99866 25.7468 8.72787 25.0533 10.4262C24.9999 10.5569 25.1716 10.7747 25.3293 11.1917C25.5937 10.783 25.7273 10.5765 25.6492 10.6972C26.6179 10.5973 27.3867 10.518 28.1556 10.4387Z" fill="#F2F2F2"/>
</svg>
