<svg width="84" height="113" viewBox="0 0 84 113" fill="none" xmlns="http://www.w3.org/2000/svg">
<path d="M20.1938 103.653C20.0661 103.035 20.0201 102.44 19.9749 101.85C20.1552 101.328 20.3096 100.796 20.475 100.272L21.4641 97.1088L22.4532 93.9454L22.9478 92.3637C23.3285 91.9046 23.699 91.4427 24.1456 91.0001C24.263 91.615 24.3082 92.2052 24.3542 92.8L23.8597 94.3817L22.8705 97.5451L21.8814 100.709C21.7215 101.236 21.5468 101.762 21.3971 102.293C21.0219 102.756 20.6515 103.218 20.1938 103.653Z" fill="#1A1A1A" stroke="#1A1A1A" stroke-width="0.4149" stroke-miterlimit="10"/>
<path d="M29.6449 92.3777C29.5123 91.5398 29.4797 90.7356 29.4407 89.9268C29.6611 89.2093 29.8518 88.48 30.0606 87.7589L31.2823 83.4147L32.5041 79.0705L33.1176 76.8979C33.5677 76.2598 34.0104 75.6115 34.5371 75C34.658 75.8343 34.6906 76.6384 34.735 77.4463L34.1214 79.6189L32.8997 83.9631L31.678 88.3073C31.4756 89.033 31.2615 89.7551 31.0762 90.4835C30.6271 91.1272 30.1833 91.7698 29.6449 92.3777C29.6449 92.3777 30.1833 91.7698 29.6449 92.3777Z" fill="#1A1A1A"/>
<path d="M29.6449 92.3777C29.5123 91.5398 29.4797 90.7356 29.4407 89.9268C29.6611 89.2093 29.8518 88.48 30.0606 87.7589L31.2823 83.4147L32.5041 79.0705L33.1176 76.8979C33.5677 76.2598 34.0104 75.6115 34.5371 75C34.658 75.8343 34.6906 76.6384 34.735 77.4463L34.1214 79.6189L32.8997 83.9631L31.678 88.3073C31.4756 89.033 31.2615 89.7551 31.0762 90.4835C30.6271 91.1272 30.1833 91.7698 29.6449 92.3777ZM29.6449 92.3777C29.6449 92.3777 30.1833 91.7698 29.6449 92.3777Z" stroke="#1A1A1A" stroke-width="0.4149" stroke-miterlimit="10"/>
<path d="M27.9897 94.6499C27.5493 94.594 27.181 94.4857 26.8126 94.3774C26.6232 94.119 26.4179 93.8782 26.2209 93.6309L25.0198 92.1462C24.6268 91.6563 23.6034 90.3936 23.2233 89.9206C23.1978 89.5343 23.1676 89.1489 23.1955 88.7138C23.6275 88.7762 23.9959 88.8845 24.3689 88.9919C24.7481 89.4602 25.7781 90.7314 26.1655 91.2175L27.3666 92.7022C27.5681 92.9486 27.7613 93.2014 27.9713 93.4414C28.0015 93.8267 28.0308 94.2074 27.9897 94.6499Z" fill="#1A1A1A" stroke="#1A1A1A" stroke-width="0.4149" stroke-miterlimit="10"/>
<path d="M17.5503 94C17.6532 94.6926 17.6694 95.357 17.6855 96.0214C17.4814 96.6152 17.2973 97.216 17.1033 97.8132L15.9521 101.404L14.8009 104.994L14.2254 106.786C13.8211 107.317 13.42 107.85 12.9457 108.356C12.8561 107.67 12.8433 107.002 12.8172 106.334L13.3927 104.542L14.5439 100.952L15.6951 97.3613C15.8824 96.7639 16.0832 96.1667 16.264 95.5625C16.6683 95.0323 17.0659 94.502 17.5503 94Z" fill="#1A1A1A" stroke="#1A1A1A" stroke-width="0.4149" stroke-miterlimit="10"/>
<g filter="url(#filter0_d_605_60959)">
<path d="M23.6454 87.7637L31.9709 90.5706L33.7028 99.1841L27.1092 104.991L18.7837 102.184L17.0518 93.5703L23.6454 87.7637Z" fill="#F9F9F9"/>
<path d="M17.5989 93.7547L23.7592 88.3297L31.5376 90.9521L33.1557 98.9997L26.9954 104.425L19.217 101.802L17.5989 93.7547Z" stroke="#D8D8D8"/>
</g>
<path d="M83.8001 57.5921C81.4953 54.0179 78.4193 50.8378 75.6954 47.5762C72.6589 43.9404 69.6042 40.3203 66.5312 36.7159C63.5759 33.261 60.6098 29.8155 57.633 26.3792C55.1557 23.5194 52.7638 20.3989 50.1023 17.6511C48.1067 12.4896 44.5777 8.06554 39.9917 4.97636C30.6621 -1.30348 12.0247 -3.49655 7.15654 9.66752C7.08735 9.83418 7.05474 10.0138 7.06094 10.1942C7.06713 10.3745 7.11197 10.5515 7.19243 10.713C0.952468 16.7756 -1.32124 26.9327 0.740252 35.2052C2.3163 41.5296 6.52764 46.2792 11.0776 50.7313C14.7903 54.3641 19.1938 58.2762 24.7021 58.2879C28.2132 58.2953 31.2878 56.7058 34.0009 54.5931C33.9755 55.481 34.1082 56.3954 34.1494 57.3865C34.2272 59.6683 34.169 61.9528 33.9752 64.2277C33.6171 68.827 32.8911 73.4004 32.2776 77.9705C32.0243 79.8573 35.3154 79.8542 35.5778 77.9705C36.2384 73.2283 37.0043 68.4799 37.3394 63.7003C37.5524 60.6635 38.2803 55.3606 36.1956 52.7197C36.2683 52.6526 36.3422 52.5864 36.4142 52.519C37.2808 54.4736 38.7828 56.0768 40.6756 57.0672C40.9461 57.3242 41.2127 57.5819 41.4627 57.8452C43.048 59.5146 44.5718 61.2406 46.0045 63.0435C48.9969 66.8393 51.6157 70.916 53.8243 75.2167C53.9849 75.5029 54.2391 75.7251 54.544 75.8458C54.8489 75.9665 55.186 75.9784 55.4987 75.8795C56.835 75.5286 58.1528 75.1237 59.4521 74.6647C58.2454 78.1322 59.4186 83.1082 60.2404 86.4641C60.1439 88.0629 63.9315 88.8072 63.4841 86.123C63.091 83.7653 62.5044 81.4529 62.2601 79.0683C62.0783 77.2928 62.3389 75.4434 61.9117 73.718C64.6997 72.5727 67.3722 71.1635 69.8927 69.5093C71.0418 68.7521 72.1578 67.9423 73.2416 67.0917C72.8843 69.8719 73.3484 73.1546 73.4816 75.3961C73.7541 79.9813 74.3646 84.5368 74.9752 89.0865C75.2428 91.0811 78.7345 91.0583 78.4493 89.0865C77.7916 84.5378 77.1337 79.9837 76.8136 75.3961C76.6606 73.2022 76.5928 71.009 76.6222 68.8098C76.6439 67.1821 76.8674 65.7844 76.4258 64.3536C77.1685 63.6566 77.8952 62.9431 78.5904 62.1981C79.353 61.3809 80.2223 59.9648 81.245 59.296C81.2881 59.3376 81.329 59.3824 81.3722 59.4238C82.4701 60.4739 84.673 58.9459 83.8001 57.5921ZM27.7673 54.9462C22.5805 56.5884 18.0578 53.1323 14.5151 49.7451C10.6476 46.0473 6.61201 42.0314 4.59248 36.9764C0.580068 26.9327 4.65379 16.3445 12.1815 9.29245C12.313 9.18166 12.4118 9.03705 12.4673 8.87418C12.5229 8.7113 12.533 8.53634 12.4966 8.36813C12.4602 8.19993 12.3787 8.04485 12.2608 7.91961C12.1429 7.79437 11.9932 7.70371 11.8276 7.6574C17.6875 1.04426 29.0215 2.41588 36.3012 6.49855C40.4071 8.80507 43.7824 12.2217 46.0414 16.3581C45.9661 16.5128 45.934 16.6851 45.9487 16.8566C45.9633 17.0281 46.024 17.1925 46.1243 17.3323C46.4697 17.8461 46.8334 18.3494 47.2054 18.8479C48.9242 23.0532 49.2038 27.7103 48.0003 32.0916C46.5043 37.4376 42.7901 41.8279 39.0892 45.8091C35.8909 49.2498 32.3959 53.4807 27.7673 54.9462ZM76.7868 59.6023C74.8286 61.7483 72.6707 63.7025 70.3423 65.4385C66.0299 68.6189 61.2052 71.036 56.0777 72.5849C53.9195 68.6042 51.4211 64.8181 48.6104 61.2692C47.0715 59.326 45.4311 57.4656 43.6961 55.6958C42.2998 54.2776 40.9926 52.7117 39.1607 51.9646C38.7961 51.61 38.4126 51.2754 38.0119 50.9624C38.1531 50.82 38.2955 50.6775 38.4344 50.5356C42.3668 46.5191 46.3995 42.2926 49.0158 37.2612C49.0217 37.9308 49.0215 38.5939 49.0105 39.2476C48.912 45.0555 48.8864 50.8644 48.8407 56.673C48.8254 58.6228 52.1791 58.6265 52.1945 56.673C52.2401 50.8646 52.3058 45.0562 52.2987 39.2476C52.2931 34.6469 52.8163 29.6095 52.3218 24.9432C52.9906 25.7007 53.6565 26.458 54.3028 27.2213C57.3653 30.838 60.4162 34.4647 63.4553 38.1014C66.3724 41.5918 69.289 45.0827 72.2053 48.5739C74.5102 51.3365 76.7059 54.3645 79.1333 57.0857C78.3 57.8753 77.5164 58.7157 76.7868 59.6023Z" fill="#1D1D1B"/>
<path d="M31.4086 27.9515C31.4086 29.6251 33.0437 30.8382 35.0607 30.6611C37.0778 30.484 38.7129 28.9838 38.7129 27.3103C38.7129 25.6367 36.8184 25.6249 35.0607 24.9583C33.379 24.3205 31.4086 26.278 31.4086 27.9515Z" fill="#1D1D1B"/>
<path d="M31.1068 44.8143C30.8949 45.2205 30.5992 45.5837 30.2365 45.8833C29.8739 46.1828 29.4514 46.4128 28.9934 46.5601C28.5353 46.7073 28.0506 46.769 27.5669 46.7415C27.0833 46.714 26.6102 46.5979 26.1747 46.3999C25.7392 46.2018 25.3498 45.9257 25.0289 45.5873C24.708 45.2489 24.4618 44.8549 24.3044 44.4277C24.1469 44.0006 24.0814 43.5487 24.1115 43.0979C24.1416 42.6471 24.2667 42.2063 24.4797 41.8006C25.3725 40.0948 26.8336 41.3689 28.8663 41.2573C30.8112 41.1506 31.9997 43.1085 31.1068 44.8143Z" fill="#1D1D1B"/>
<defs>
<filter id="filter0_d_605_60959" x="13.0518" y="87.7637" width="24.651" height="25.2271" filterUnits="userSpaceOnUse" color-interpolation-filters="sRGB">
<feFlood flood-opacity="0" result="BackgroundImageFix"/>
<feColorMatrix in="SourceAlpha" type="matrix" values="0 0 0 0 0 0 0 0 0 0 0 0 0 0 0 0 0 0 127 0" result="hardAlpha"/>
<feOffset dy="4"/>
<feGaussianBlur stdDeviation="2"/>
<feComposite in2="hardAlpha" operator="out"/>
<feColorMatrix type="matrix" values="0 0 0 0 0 0 0 0 0 0 0 0 0 0 0 0 0 0 0.12 0"/>
<feBlend mode="normal" in2="BackgroundImageFix" result="effect1_dropShadow_605_60959"/>
<feBlend mode="normal" in="SourceGraphic" in2="effect1_dropShadow_605_60959" result="shape"/>
</filter>
</defs>
</svg>
