<svg width="255" height="147" viewBox="0 0 255 147" fill="none" xmlns="http://www.w3.org/2000/svg">
<path d="M253.825 91.6483C247.868 86.2663 241.738 81.1044 236.194 75.2875C233.402 72.3936 230.782 69.3413 228.347 66.1461C226.008 63.038 224.248 59.4831 221.921 56.393C221.988 55.0135 222.03 53.6365 222.029 52.2668C225.015 45.257 225.761 37.5072 224.166 30.0636C220.915 14.9256 204.439 -5.08966 186.89 3.25172C186.66 3.35011 186.455 3.49629 186.287 3.6804C186.119 3.86451 185.993 4.08223 185.918 4.31882C173.848 4.33155 161.786 12.1874 155.865 22.3333C151.339 30.09 150.96 38.8149 151.206 47.5701C151.406 54.7143 152.026 62.7959 157.509 68.0827C162.084 72.4932 168.549 73.4906 174.754 73.6008C174.524 74.2582 174.342 74.9317 174.211 75.6157C173.669 76.3849 173.193 77.2462 172.609 78.1534C170.998 80.6547 169.398 83.1646 167.744 85.6378C164.523 90.4546 160.197 93.2459 156.076 97.1369C154.466 98.6568 156.699 100.847 158.447 99.8491C163.082 97.195 167.094 93.5914 170.215 89.2786C171.829 87.0031 173.189 84.5342 174.603 82.1233C174.609 82.1399 174.613 82.1579 174.619 82.1745C174.641 82.6875 174.659 83.1974 174.654 83.697C174.626 86.8641 174.481 90.0285 174.172 93.1814C173.497 99.7967 172.178 106.332 170.234 112.695C170.118 113.132 170.158 113.595 170.345 114.006C170.533 114.417 170.858 114.752 171.265 114.954C173.748 116.339 176.313 117.573 178.947 118.648C176.241 122.589 175.834 127.81 175.373 132.444C174.926 136.931 174.439 141.31 176.5 145.464C177.48 147.438 181.522 146.164 180.619 143.931C177.55 136.337 181.163 127.541 181.949 119.786C185.146 120.924 188.428 121.814 191.765 122.446C195.136 123.083 198.551 123.465 201.981 123.591C202.007 123.592 202.033 123.592 202.059 123.593C200.535 126.441 200.027 130.021 199.515 133.09C198.862 137.041 198.576 141.042 198.663 145.044C198.715 147.648 203.196 147.656 203.189 145.044C203.14 140.924 203.455 136.808 204.132 132.742C204.663 129.725 205.924 126.664 206.057 123.594C206.535 123.581 207.013 123.577 207.491 123.554C209.039 123.477 211.272 122.91 212.937 123.229C212.94 123.311 212.937 123.395 212.941 123.477C213.023 125.566 216.694 126.166 217.128 123.993C218.276 118.255 218.274 112.168 218.702 106.337C219.179 99.8379 219.623 93.3364 220.033 86.8329C220.417 80.5899 220.78 74.3458 221.125 68.1006C221.198 66.7629 221.295 65.4132 221.396 64.0572C224.245 68.7179 228.235 73.0676 231.575 76.7038C237.513 83.0438 243.863 88.9913 250.585 94.5079C252.583 96.1781 256.003 93.6158 253.825 91.6483ZM216.991 65.7429C216.558 72.2486 216.104 78.753 215.629 85.2559C215.173 91.4974 214.716 97.7389 214.259 103.98C213.894 108.917 213.164 114.011 212.962 119.023C211.369 119.005 209.777 119.085 208.195 119.262C204.172 119.507 200.135 119.37 196.139 118.855C188.771 117.867 181.627 115.634 175.019 112.254C176.705 106.254 177.864 100.122 178.482 93.9244C178.821 90.5311 178.979 87.1224 178.955 83.7126C178.93 81.0758 179.108 78.3854 178.134 75.9639C178.336 75.3018 178.394 74.6048 178.304 73.9188C178.287 73.8015 178.248 73.6886 178.188 73.5862C178.353 73.5832 178.518 73.5803 178.682 73.5761C187.398 73.3507 196.494 72.9949 204.653 69.6374C209.602 67.5981 213.946 64.3436 217.277 60.1801C217.193 62.044 217.113 63.9036 216.991 65.7429ZM219.225 47.1004C219.001 47.1811 218.803 47.3206 218.652 47.504C218.501 47.6874 218.403 47.908 218.369 48.1422C218.218 48.9806 218.095 49.8259 217.985 50.6746C215.645 56.4748 211.433 61.3428 206.008 64.5181C199.361 68.3664 191.423 69.1462 183.893 69.5345C177.385 69.8701 169.819 70.7024 163.789 67.7172C157.032 64.3722 155.853 56.6267 155.585 49.8881C155.293 42.5315 155.14 34.6998 158 27.7723C163.682 14.0083 177.955 7.45048 192.264 7.69359C192.502 7.7101 192.74 7.66193 192.952 7.55422C193.165 7.44652 193.344 7.28333 193.47 7.08232C193.595 6.88131 193.664 6.65009 193.667 6.41349C193.67 6.17689 193.608 5.94392 193.488 5.73967C205.709 4.81897 215.692 17.0284 219.017 28.0331C220.888 34.2436 220.96 40.851 219.225 47.1004Z" fill="#1D1D1B"/>
<path d="M178.716 37.5734C178.714 38.9176 178.195 40.206 177.272 41.1559C176.349 42.1057 175.098 42.6392 173.793 42.6392C172.489 42.6392 171.238 42.1057 170.315 41.1559C169.392 40.206 168.872 38.9176 168.871 37.5734C168.871 34.7721 171.424 35.5808 173.793 34.2066C176.06 32.8918 178.716 34.7721 178.716 37.5734Z" fill="#1D1D1B"/>
<path d="M190.53 37.9797C190.53 40.2354 192.734 41.8705 195.453 41.6318C198.172 41.3932 200.375 39.371 200.375 37.1153C200.375 34.8596 197.822 34.8437 195.453 33.9452C193.186 33.0855 190.53 35.724 190.53 37.9797Z" fill="#1D1D1B"/>
<path d="M159.374 82.1176C155.68 79.4776 152.405 76.3121 149.655 72.725C147.354 69.6438 143.841 65.0518 143.609 61.153C143.603 60.9639 143.557 60.7782 143.473 60.6081C143.389 60.4379 143.269 60.2872 143.122 60.1659C143.344 57.0916 143.544 53.9987 143.53 50.9433C146.5 43.956 147.219 36.2402 145.591 28.8379C142.274 13.7835 125.672 -6.07697 108.099 2.28844C107.869 2.38719 107.663 2.53345 107.496 2.7173C107.328 2.90115 107.203 3.11829 107.128 3.35402C95.0202 3.41042 82.9497 11.2727 77.0485 21.392C72.537 29.1281 72.189 37.813 72.4679 46.5257C72.5077 49.8519 72.8406 53.1685 73.4628 56.4382C70.7019 55.8597 67.9936 55.0601 65.3652 54.0474C62.4139 53.0581 59.2963 51.3491 56.1612 51.6838C54.9348 51.8147 54.1334 52.9604 55.083 53.9633C57.69 56.7167 62.8013 57.3725 66.3589 58.4599C69.1127 59.3017 71.7936 60.3904 74.5154 60.133C75.4177 62.6933 76.9069 65.0149 78.8675 66.918C83.4725 71.291 89.9618 72.2602 96.187 72.3473C95.1737 75.0986 95.1372 78.1065 96.0834 80.8808C96.1073 81.3913 96.1267 81.8987 96.124 82.3958C96.1072 85.5481 95.9742 88.698 95.6756 91.8372C95.0228 98.4235 93.7242 104.932 91.7979 111.273C91.6834 111.707 91.7246 112.168 91.9145 112.577C92.1043 112.985 92.4313 113.317 92.8406 113.516C94.3835 114.364 95.9547 115.151 97.5543 115.879C96.0397 119.058 96.027 123.019 95.7827 126.449C95.4108 131.049 95.3942 135.671 95.733 140.273C95.9179 142.484 99.7222 142.539 99.6583 140.273C99.5348 135.898 99.3796 131.552 99.6163 127.175C99.7934 123.904 100.64 120.399 100.383 117.097C104.588 118.803 108.961 120.077 113.432 120.899C116.817 121.52 120.243 121.889 123.684 122.002C124.742 122.035 125.801 122.036 126.859 122.018C126.179 123.611 126.148 125.624 125.895 127.36C125.245 131.634 124.971 135.955 125.078 140.275C125.153 142.672 129.294 142.684 129.283 140.275C129.203 136.201 129.379 132.126 129.811 128.074C130.066 125.972 130.975 123.746 130.595 121.797C131.937 121.532 133.311 121.466 134.673 121.601C134.676 121.683 134.674 121.766 134.678 121.848C134.768 123.927 138.453 124.511 138.881 122.346C140.011 116.632 139.986 110.573 140.394 104.769C140.766 99.4615 141.115 94.1527 141.44 88.8424C143.717 91.0112 145.995 93.1786 148.275 95.3446C150.112 97.0811 151.716 98.6319 154.271 99.1984C156.886 99.7783 158.162 96.278 155.433 95.506C152.997 94.8168 150.961 92.1636 149.194 90.4866L145.985 87.4399C149.904 86.3286 153.912 85.5447 157.965 85.0965C159.314 84.9479 160.927 83.2563 159.374 82.1176ZM138.526 64.3737C138.116 70.85 137.685 77.3251 137.233 83.7988C136.799 90.0124 136.364 96.2259 135.928 102.439C135.58 107.354 134.867 112.426 134.683 117.416C133.085 117.403 131.488 117.489 129.901 117.671C125.867 117.928 121.817 117.807 117.806 117.309C110.412 116.352 103.238 114.156 96.5966 110.816C98.2652 104.839 99.4046 98.7311 100.002 92.561C100.329 89.1825 100.475 85.7894 100.438 82.3958C100.402 79.6709 100.599 76.8846 99.4789 74.4081C99.4546 73.7121 99.3919 73.0179 99.2912 72.3285C99.5701 72.3221 99.8504 72.3167 100.127 72.3086C108.869 72.0526 117.993 71.6655 126.165 68.2944C131.121 66.2468 135.467 62.992 138.792 58.8362C138.715 60.6915 138.642 62.5426 138.526 64.3737ZM140.698 45.8115C140.474 45.8927 140.275 46.0323 140.125 46.2154C139.974 46.3984 139.877 46.6182 139.843 46.8514C139.695 47.6865 139.575 48.5283 139.468 49.3733C137.142 55.1544 132.935 60.0146 127.505 63.1945C120.851 67.0486 112.891 67.8534 105.339 68.2672C98.8116 68.6248 91.2253 69.4806 85.1654 66.5315C78.3747 63.2268 77.1634 55.5225 76.8699 48.8167C76.5496 41.4962 76.3669 33.7021 79.21 26.7973C84.8589 13.0781 99.1522 6.49962 113.506 6.68971C113.745 6.7053 113.984 6.65648 114.196 6.54853C114.409 6.44057 114.588 6.27756 114.713 6.07705C114.839 5.87654 114.907 5.64613 114.909 5.41064C114.911 5.17515 114.848 4.9435 114.727 4.74065C126.983 3.78004 137.042 15.8953 140.418 26.8355C142.319 33.0098 142.416 39.5855 140.698 45.8115ZM141.695 84.654C141.993 79.5027 142.277 74.3505 142.545 69.1975C143.377 70.4752 144.224 71.6079 144.782 72.3986C147.283 75.9321 150.195 79.1655 153.46 82.033C149.464 82.5465 145.526 83.4239 141.695 84.654Z" fill="#1D1D1B"/>
<path d="M96.0153 33.3959C96.0153 36.2467 94.2521 35.7069 92.0772 35.7069C91.0327 35.7069 90.031 35.1631 89.2925 34.195C88.5539 33.227 88.139 31.9141 88.139 30.5451C88.139 27.6942 90.1819 28.5172 92.0772 27.1188C93.8906 25.7808 96.0153 30.5451 96.0153 33.3959Z" fill="#1D1D1B"/>
<path d="M109.799 38.1508C109.799 40.6659 112.126 42.708 114.662 41.0613C120.628 37.1871 120.628 39.7022 120.628 37.1871C120.628 34.6721 117.82 31.9351 115.214 30.9332C112.72 29.9747 109.799 35.6358 109.799 38.1508Z" fill="#1D1D1B"/>
<path d="M57.8311 56.2585L57.8261 56.3426L57.8489 56.4237C58.1688 57.5616 58.304 58.8212 58.3954 60.108C58.4209 60.4668 58.443 60.8297 58.4651 61.1924C58.5211 62.1104 58.5769 63.0262 58.6867 63.8662C59.2045 67.8583 59.8334 71.8317 60.5733 75.7863C61.3001 79.6744 62.1369 83.5379 63.0838 87.3768C63.3371 88.404 63.6582 89.462 63.9772 90.5134C64.1672 91.1397 64.3566 91.7636 64.5304 92.3773C65.0037 94.0476 65.3803 95.6947 65.435 97.3151C65.4472 97.6747 65.1814 97.9723 64.7005 98.0753C64.2089 98.1807 63.7645 98.0161 63.5873 97.7127C62.6763 96.1519 62.0736 94.3417 61.591 92.4487C61.308 91.339 61.0747 90.2396 60.8433 89.1494C60.674 88.3521 60.5059 87.5597 60.3201 86.7719C59.4642 83.1413 58.7068 79.4914 58.0478 75.8224C57.9673 75.3743 57.8909 74.9259 57.814 74.475C57.7934 74.354 57.7727 74.2327 57.752 74.1113L56.7599 74.168C56.7179 74.9267 56.6776 75.6838 56.6373 76.4403C56.5789 77.5353 56.5207 78.6291 56.4576 79.7249C56.1391 85.1049 55.7931 90.4835 55.4196 95.8605C55.3257 97.2116 55.2597 98.5695 55.1937 99.9269C55.0215 103.468 54.8494 107.006 54.1834 110.412C54.1254 110.708 53.9676 110.892 53.7588 111.005C53.536 111.125 53.2336 111.173 52.9107 111.128C52.2307 111.034 51.7401 110.6 51.7174 110.072C51.7163 110.048 51.716 110.022 51.7158 109.987L51.7157 109.981C51.7155 109.949 51.7152 109.91 51.7137 109.87L51.6989 109.471L51.3065 109.397C50.5383 109.252 49.6688 109.316 48.8721 109.412C48.5788 109.447 48.2989 109.486 48.0325 109.523C47.5421 109.591 47.0971 109.652 46.6964 109.674C45.9743 109.711 45.2521 109.734 44.5297 109.743L44.3928 109.745L44.2758 109.816C44.2712 109.819 44.267 109.821 44.2632 109.824C44.2599 109.826 44.257 109.828 44.2546 109.829L44.2426 109.837L44.2416 109.838L44.0946 109.922L44.0302 110.084C43.7631 110.756 43.6292 111.698 43.5404 112.546C43.5019 112.913 43.4719 113.26 43.4447 113.575C43.4058 114.025 43.3725 114.41 43.3282 114.695C43.0574 116.418 42.8508 118.149 42.7085 119.887C42.493 122.517 42.5212 125.132 42.5492 127.733C42.5579 128.537 42.5665 129.339 42.568 130.14C42.5687 130.522 42.4246 130.767 42.2287 130.925C42.0195 131.094 41.7143 131.191 41.3735 131.186C40.6707 131.175 40.0622 130.759 39.9843 130.082C39.3634 124.685 39.8909 118.997 40.8757 113.629L40.8759 113.629L40.878 113.616C41.051 112.5 41.3212 111.402 41.6856 110.333L41.8997 109.705L41.237 109.672C38.7542 109.549 36.2825 109.262 33.8381 108.813C29.907 108.079 26.0701 106.913 22.398 105.336L21.6387 105.01L21.7022 105.834C21.8425 107.653 21.6604 109.548 21.3858 111.47C21.2841 112.182 21.1684 112.905 21.0526 113.628C20.86 114.831 20.6671 116.035 20.5381 117.194C20.2589 119.702 20.0521 122.229 19.8459 124.747C19.7081 126.431 19.5705 128.112 19.4118 129.78C19.3484 130.447 18.7431 130.861 18.0193 130.866C17.6701 130.869 17.3603 130.768 17.1536 130.601C16.9625 130.446 16.8292 130.212 16.844 129.848C17.0308 125.252 17.5664 120.643 18.1331 116.056C18.218 115.369 18.2931 114.677 18.3682 113.985C18.7088 110.847 19.0506 107.697 20.3111 104.938L20.5148 104.492L20.073 104.28C19.0516 103.788 18.0429 103.278 17.055 102.73L17.0442 102.724L17.0332 102.718C16.7993 102.603 16.613 102.412 16.505 102.177C16.3982 101.945 16.3742 101.683 16.4367 101.436C18.0285 96.137 19.1018 90.6975 19.6415 85.1933L19.6417 85.1913C19.8888 82.5645 19.9986 79.931 20.0126 77.2983C20.0148 76.8715 19.9984 76.4391 19.9786 76.0131L19.9754 75.9429L19.9529 75.8764C19.2111 73.6776 19.2397 71.2938 20.0341 69.1132L20.2775 68.4451L19.5665 68.4421C17.6522 68.4339 15.7419 68.2662 13.8558 67.9407L13.4052 67.8629L13.2876 68.3048C13.0824 69.0757 12.883 69.8411 12.6847 70.6019C11.7511 74.1852 10.8438 77.6675 9.48553 81.145C8.18255 84.481 6.85682 87.8074 5.53037 91.1357C4.98258 92.5101 4.43467 93.8849 3.88819 95.2608C3.63859 95.8892 2.88761 96.154 2.15295 95.9856C1.8001 95.9046 1.5338 95.7355 1.39417 95.5409C1.27154 95.37 1.21055 95.1332 1.34985 94.7847C1.84931 93.535 2.34779 92.2853 2.84619 91.0357C4.37397 87.2054 5.90105 83.3768 7.45378 79.5581C8.44278 77.2354 9.23584 74.8348 9.8247 72.3813L9.82475 72.3813L9.82635 72.3742C9.83973 72.3147 9.85295 72.2556 9.86607 72.1971C10.2487 70.4897 10.5365 69.2053 11.576 68.1589L12.1668 67.5642L11.3628 67.3269C9.23296 66.6985 7.28151 65.5814 5.66554 64.0658C1.29416 59.8676 0.746365 53.3944 0.558431 47.46C0.329328 40.2262 0.624126 33.1316 4.25857 26.8314C9.03438 18.5527 18.8073 12.132 28.5641 12.0861L28.9293 12.0844L29.0387 11.7359C29.0787 11.6087 29.1458 11.4912 29.2356 11.3916C29.3254 11.292 29.4359 11.2126 29.5596 11.1589L29.5686 11.155L29.5774 11.1508C36.5624 7.78947 43.3766 10.0695 48.8452 14.8125C54.3231 19.5636 58.3625 26.7243 59.7037 32.8778C61.0209 38.931 60.439 45.2405 58.0366 50.9546L57.9971 51.0486L57.9976 51.1507C58.0055 52.8395 57.9338 54.5458 57.8311 56.2585ZM52.7446 93.9933L52.7446 93.993C53.1029 88.8275 53.4606 83.662 53.8177 78.4965C54.1898 73.1136 54.5445 67.7296 54.8817 62.3446C54.9698 60.9368 55.0279 59.5152 55.086 58.0961C55.091 57.9742 55.096 57.8523 55.101 57.7304L55.1641 56.1935L54.2094 57.3996C51.5273 60.7877 48.0225 63.4416 44.0245 65.1113C37.4018 67.873 29.99 68.197 22.7894 68.4101C22.6245 68.415 22.4584 68.4187 22.2901 68.4224C22.2289 68.4238 22.1673 68.4252 22.1054 68.4266L21.5415 68.4397L21.6222 68.998C21.7025 69.5531 21.7524 70.1121 21.7719 70.6726L21.7752 70.7702L21.8151 70.8594C22.5506 72.504 22.5526 74.3176 22.5548 76.2543C22.5552 76.5994 22.5555 76.9485 22.5601 77.3013C22.5902 80.1047 22.4713 82.9077 22.204 85.6985C21.7155 90.7991 20.7837 95.848 19.4192 100.789L19.3105 101.182L19.6745 101.367C25.1868 104.17 31.1409 106.013 37.2786 106.816L37.2812 106.816C40.6109 107.234 43.973 107.336 47.3221 107.119L47.3348 107.119L47.3475 107.117C48.6321 106.968 49.9247 106.899 51.218 106.909L51.7037 106.912L51.7215 106.427C51.812 103.952 52.0551 101.483 52.2981 99.0137C52.4628 97.3406 52.6274 95.6677 52.7446 93.9933ZM56.3404 47.3518L56.5832 47.2631L56.6512 47.0138C58.0884 41.747 58.0072 36.1843 56.4169 30.9613L56.4168 30.9609C55.006 26.3389 52.2016 21.4719 48.4609 17.8534C44.7199 14.2347 39.9984 11.8263 34.7712 12.2404L33.9716 12.3038L34.3806 12.9938C34.434 13.084 34.4616 13.1867 34.4606 13.2909C34.4596 13.3952 34.43 13.4974 34.3748 13.5866C34.3195 13.6757 34.2407 13.7485 34.1464 13.7969C34.0521 13.8453 33.9462 13.8672 33.8401 13.8602L33.827 13.8594L33.8139 13.8592C21.8708 13.6993 9.88559 19.2356 5.14002 30.8865C2.75493 36.7421 2.91628 43.3284 3.17918 49.4021C3.41958 54.9546 4.40616 61.6663 10.2799 64.5559C12.8613 65.8258 15.7467 66.2667 18.6353 66.3593C20.9188 66.4325 23.2371 66.2878 25.4256 66.1512C25.9996 66.1153 26.5647 66.0801 27.118 66.0494C33.3277 65.7055 39.9853 65.0357 45.5716 61.7646L45.5736 61.7633C50.134 59.0637 53.6675 54.9372 55.6215 50.028L55.6452 49.9686L55.6531 49.9052C55.7404 49.2076 55.8378 48.5165 55.9578 47.8332L55.9591 47.8255L55.9602 47.8179C55.9752 47.7139 56.0182 47.6156 56.085 47.5335C56.1519 47.4514 56.24 47.3885 56.3404 47.3518Z" fill="#1A1A1A" stroke="#1A1A1A"/>
<path d="M19.5605 51.8721C19.5605 52.8039 19.1883 53.6981 18.5251 54.3578C17.8618 55.0176 16.9616 55.3887 16.0224 55.3887C15.0832 55.3887 14.183 55.0176 13.5197 54.3578C12.8565 53.6981 12.4844 52.8039 12.4844 51.8721C12.4844 51.3979 12.5947 51.1487 12.7243 50.995C12.8626 50.8309 13.0808 50.7058 13.4314 50.59C13.657 50.5155 13.8874 50.4586 14.1496 50.3938C14.3184 50.3521 14.5004 50.3072 14.7027 50.2522C15.19 50.1197 15.7297 49.9429 16.2667 49.6422C17.7262 48.825 19.5605 49.9567 19.5605 51.8721Z" fill="#1A1A1A" stroke="#1A1A1A"/>
<path d="M35.4245 50.0776L35.4245 50.0776C35.9735 50.2824 36.5236 50.3826 37.0197 50.4503C37.2235 50.4782 37.4089 50.4997 37.5818 50.5199C37.8531 50.5514 38.0938 50.5794 38.327 50.6225C38.6994 50.6912 38.9163 50.7794 39.0427 50.8913C39.1423 50.9797 39.2412 51.1324 39.2412 51.4946C39.2412 53.0204 37.6746 54.5502 35.5562 54.7331C33.4452 54.9153 31.9573 53.6782 31.9573 52.2097C31.9573 51.4849 32.3939 50.8009 33.0809 50.365C33.7655 49.9307 34.638 49.7843 35.4245 50.0776Z" fill="#1A1A1A" stroke="#1A1A1A"/>
<path d="M16.1128 53.8811C15.0242 55.0927 13.7181 58.0668 17.2029 60.2705C21.5589 63.0251 16.7839 64.886 18.7342 66.6409" stroke="#1A1A1A" stroke-width="3"/>
<path d="M35.4735 52.7173C34.2007 53.6307 32.3581 56.2438 35.1706 59.3887C38.6862 63.3198 33.8197 63.8803 35.2856 66.1609" stroke="#1A1A1A" stroke-width="3"/>
</svg>
